ply
format ascii 1.0
element vertex 38
property float x
property float y
property float z
element face 72
property list uchar int vertex_indices
end_header
0.000000 0.000000 0.000000
0.012000 0.000000 0.000000
0.010392 0.006000 0.000000
0.006000 0.010392 0.000000
0.000000 0.012000 0.000000
-0.006000 0.010392 0.000000
-0.010392 0.006000 0.000000
-0.012000 0.000000 0.000000
-0.010392 -0.006000 0.000000
-0.006000 -0.010392 0.000000
-0.000000 -0.012000 0.000000
0.006000 -0.010392 0.000000
0.010392 -0.006000 0.000000
0.012000 0.000000 0.180000
0.010392 0.006000 0.180000
0.006000 0.010392 0.180000
0.000000 0.012000 0.180000
-0.006000 0.010392 0.180000
-0.010392 0.006000 0.180000
-0.012000 0.000000 0.180000
-0.010392 -0.006000 0.180000
-0.006000 -0.010392 0.180000
-0.000000 -0.012000 0.180000
0.006000 -0.010392 0.180000
0.010392 -0.006000 0.180000
0.025000 0.000000 0.180000
0.021651 0.012500 0.180000
0.012500 0.021651 0.180000
0.000000 0.025000 0.180000
-0.012500 0.021651 0.180000
-0.021651 0.012500 0.180000
-0.025000 0.000000 0.180000
-0.021651 -0.012500 0.180000
-0.012500 -0.021651 0.180000
-0.000000 -0.025000 0.180000
0.012500 -0.021651 0.180000
0.021651 -0.012500 0.180000
0.000000 0.000000 0.250000
3 0 2 1
3 0 3 2
3 0 4 3
3 0 5 4
3 0 6 5
3 0 7 6
3 0 8 7
3 0 9 8
3 0 10 9
3 0 11 10
3 0 12 11
3 0 1 12
3 1 2 13
3 2 14 13
3 2 3 14
3 3 15 14
3 3 4 15
3 4 16 15
3 4 5 16
3 5 17 16
3 5 6 17
3 6 18 17
3 6 7 18
3 7 19 18
3 7 8 19
3 8 20 19
3 8 9 20
3 9 21 20
3 9 10 21
3 10 22 21
3 10 11 22
3 11 23 22
3 11 12 23
3 12 24 23
3 12 1 24
3 1 13 24
3 13 25 14
3 14 25 26
3 14 26 15
3 15 26 27
3 15 27 16
3 16 27 28
3 16 28 17
3 17 28 29
3 17 29 18
3 18 29 30
3 18 30 19
3 19 30 31
3 19 31 20
3 20 31 32
3 20 32 21
3 21 32 33
3 21 33 22
3 22 33 34
3 22 34 23
3 23 34 35
3 23 35 24
3 24 35 36
3 24 36 13
3 13 36 25
3 25 26 37
3 26 27 37
3 27 28 37
3 28 29 37
3 29 30 37
3 30 31 37
3 31 32 37
3 32 33 37
3 33 34 37
3 34 35 37
3 35 36 37
3 36 25 37
