ply
format ascii 1.0
element vertex 12
property float x
property float y
property float z
element face 20
property list uchar int vertex_indices
end_header
-52.573111 85.065081 0.000000
52.573111 85.065081 0.000000
-52.573111 -85.065081 0.000000
52.573111 -85.065081 0.000000
0.000000 -52.573111 85.065081
0.000000 52.573111 85.065081
0.000000 -52.573111 -85.065081
0.000000 52.573111 -85.065081
85.065081 0.000000 -52.573111
85.065081 0.000000 52.573111
-85.065081 0.000000 -52.573111
-85.065081 0.000000 52.573111
3 0 11 5
3 0 5 1
3 0 1 7
3 0 7 10
3 0 10 11
3 1 5 9
3 5 11 4
3 11 10 2
3 10 7 6
3 7 1 8
3 3 9 4
3 3 4 2
3 3 2 6
3 3 6 8
3 3 8 9
3 4 9 5
3 2 4 11
3 6 2 10
3 8 6 7
3 9 8 1
