ply
format ascii 1.0
element vertex 642
property float x
property float y
property float z
element face 1280
property list uchar int vertex_indices
property uchar red
property uchar green
property uchar blue
end_header
-0.047316 0.076559 0.000000
0.047316 0.076559 0.000000
-0.047316 -0.076559 0.000000
0.047316 -0.076559 0.000000
0.000000 -0.047316 0.076559
0.000000 0.047316 0.076559
0.000000 -0.047316 -0.076559
0.000000 0.047316 -0.076559
0.076559 0.000000 -0.047316
0.076559 0.000000 0.047316
-0.076559 0.000000 -0.047316
-0.076559 0.000000 0.047316
-0.072812 0.045000 0.027812
-0.045000 0.027812 0.072812
-0.027812 0.072812 0.045000
0.027812 0.072812 0.045000
0.000000 0.090000 0.000000
0.027812 0.072812 -0.045000
-0.027812 0.072812 -0.045000
-0.045000 0.027812 -0.072812
-0.072812 0.045000 -0.027812
-0.090000 0.000000 0.000000
0.045000 0.027812 0.072812
0.072812 0.045000 0.027812
-0.045000 -0.027812 0.072812
0.000000 0.000000 0.090000
-0.072812 -0.045000 -0.027812
-0.072812 -0.045000 0.027812
0.000000 0.000000 -0.090000
-0.045000 -0.027812 -0.072812
0.072812 0.045000 -0.027812
0.045000 0.027812 -0.072812
0.072812 -0.045000 0.027812
0.045000 -0.027812 0.072812
0.027812 -0.072812 0.045000
-0.027812 -0.072812 0.045000
0.000000 -0.090000 0.000000
-0.027812 -0.072812 -0.045000
0.027812 -0.072812 -0.045000
0.045000 -0.027812 -0.072812
0.072812 -0.045000 -0.027812
0.090000 0.000000 0.000000
-0.062440 0.063184 0.014456
-0.052901 0.061937 0.038279
-0.039050 0.077640 0.023390
-0.063184 0.014456 0.062440
-0.061937 0.038279 0.052901
-0.077640 0.023390 0.039050
-0.014456 0.062440 0.063184
-0.038279 0.052901 0.061937
-0.023390 0.039050 0.077640
-0.014621 0.085595 0.023658
-0.024594 0.086574 0.000000
0.014456 0.062440 0.063184
0.000000 0.076559 0.047316
0.024594 0.086574 0.000000
0.014621 0.085595 0.023658
0.039050 0.077640 0.023390
-0.014621 0.085595 -0.023658
-0.039050 0.077640 -0.023390
0.039050 0.077640 -0.023390
0.014621 0.085595 -0.023658
-0.014456 0.062440 -0.063184
0.000000 0.076559 -0.047316
0.014456 0.062440 -0.063184
-0.052901 0.061937 -0.038279
-0.062440 0.063184 -0.014456
-0.023390 0.039050 -0.077640
-0.038279 0.052901 -0.061937
-0.077640 0.023390 -0.039050
-0.061937 0.038279 -0.052901
-0.063184 0.014456 -0.062440
-0.076559 0.047316 0.000000
-0.086574 0.000000 -0.024594
-0.085595 0.023658 -0.014621
-0.085595 0.023658 0.014621
-0.086574 0.000000 0.024594
0.052901 0.061937 0.038279
0.062440 0.063184 0.014456
0.023390 0.039050 0.077640
0.038279 0.052901 0.061937
0.077640 0.023390 0.039050
0.061937 0.038279 0.052901
0.063184 0.014456 0.062440
-0.023658 0.014621 0.085595
0.000000 0.024594 0.086574
-0.063184 -0.014456 0.062440
-0.047316 0.000000 0.076559
0.000000 -0.024594 0.086574
-0.023658 -0.014621 0.085595
-0.023390 -0.039050 0.077640
-0.085595 -0.023658 0.014621
-0.077640 -0.023390 0.039050
-0.077640 -0.023390 -0.039050
-0.085595 -0.023658 -0.014621
-0.062440 -0.063184 0.014456
-0.076559 -0.047316 0.000000
-0.062440 -0.063184 -0.014456
-0.047316 0.000000 -0.076559
-0.063184 -0.014456 -0.062440
0.000000 0.024594 -0.086574
-0.023658 0.014621 -0.085595
-0.023390 -0.039050 -0.077640
-0.023658 -0.014621 -0.085595
0.000000 -0.024594 -0.086574
0.038279 0.052901 -0.061937
0.023390 0.039050 -0.077640
0.062440 0.063184 -0.014456
0.052901 0.061937 -0.038279
0.063184 0.014456 -0.062440
0.061937 0.038279 -0.052901
0.077640 0.023390 -0.039050
0.062440 -0.063184 0.014456
0.052901 -0.061937 0.038279
0.039050 -0.077640 0.023390
0.063184 -0.014456 0.062440
0.061937 -0.038279 0.052901
0.077640 -0.023390 0.039050
0.014456 -0.062440 0.063184
0.038279 -0.052901 0.061937
0.023390 -0.039050 0.077640
0.014621 -0.085595 0.023658
0.024594 -0.086574 0.000000
-0.014456 -0.062440 0.063184
0.000000 -0.076559 0.047316
-0.024594 -0.086574 0.000000
-0.014621 -0.085595 0.023658
-0.039050 -0.077640 0.023390
0.014621 -0.085595 -0.023658
0.039050 -0.077640 -0.023390
-0.039050 -0.077640 -0.023390
-0.014621 -0.085595 -0.023658
0.014456 -0.062440 -0.063184
0.000000 -0.076559 -0.047316
-0.014456 -0.062440 -0.063184
0.052901 -0.061937 -0.038279
0.062440 -0.063184 -0.014456
0.023390 -0.039050 -0.077640
0.038279 -0.052901 -0.061937
0.077640 -0.023390 -0.039050
0.061937 -0.038279 -0.052901
0.063184 -0.014456 -0.062440
0.076559 -0.047316 0.000000
0.086574 0.000000 -0.024594
0.085595 -0.023658 -0.014621
0.085595 -0.023658 0.014621
0.086574 0.000000 0.024594
0.023658 -0.014621 0.085595
0.047316 0.000000 0.076559
0.023658 0.014621 0.085595
-0.052901 -0.061937 0.038279
-0.038279 -0.052901 0.061937
-0.061937 -0.038279 0.052901
-0.038279 -0.052901 -0.061937
-0.052901 -0.061937 -0.038279
-0.061937 -0.038279 -0.052901
0.047316 0.000000 -0.076559
0.023658 -0.014621 -0.085595
0.023658 0.014621 -0.085595
0.085595 0.023658 0.014621
0.085595 0.023658 -0.014621
0.076559 0.047316 0.000000
-0.055408 0.070546 0.007298
-0.051413 0.071338 0.019172
-0.043600 0.077844 0.011808
-0.063640 0.054135 0.033457
-0.058267 0.063208 0.026640
-0.068279 0.054614 0.021338
-0.033753 0.075952 0.034525
-0.046451 0.070511 0.031154
-0.040859 0.068214 0.042159
-0.070546 0.007298 0.055408
-0.071338 0.019172 0.051413
-0.077844 0.011808 0.043600
-0.054135 0.033457 0.063640
-0.063208 0.026640 0.058267
-0.054614 0.021338 0.068279
-0.075952 0.034525 0.033753
-0.070511 0.031154 0.046451
-0.068214 0.042159 0.040859
-0.007298 0.055408 0.070546
-0.019172 0.051413 0.071338
-0.011808 0.043600 0.077844
-0.033457 0.063640 0.054135
-0.026640 0.058267 0.063208
-0.021338 0.068279 0.054614
-0.034525 0.033753 0.075952
-0.031154 0.046451 0.070511
-0.042159 0.040859 0.068214
-0.058192 0.050783 0.046204
-0.050783 0.046204 0.058192
-0.046204 0.058192 0.050783
-0.032241 0.083187 0.011849
-0.036302 0.082354 0.000000
-0.021481 0.080191 0.034757
-0.027113 0.082462 0.023767
-0.012416 0.089139 0.000000
-0.019811 0.086975 0.011951
-0.007402 0.088892 0.011976
0.007298 0.055408 0.070546
0.000000 0.063262 0.064015
0.014079 0.075616 0.046733
0.007303 0.070218 0.055822
0.021338 0.068279 0.054614
-0.007303 0.070218 0.055822
-0.014079 0.075616 0.046733
0.036302 0.082354 0.000000
0.032241 0.083187 0.011849
0.043600 0.077844 0.011808
0.007402 0.088892 0.011976
0.019811 0.086975 0.011951
0.012416 0.089139 0.000000
0.033753 0.075952 0.034525
0.027113 0.082462 0.023767
0.021481 0.080191 0.034757
-0.007409 0.082168 0.035965
0.007409 0.082168 0.035965
0.000000 0.086748 0.023976
-0.032241 0.083187 -0.011849
-0.043600 0.077844 -0.011808
-0.007402 0.088892 -0.011976
-0.019811 0.086975 -0.011951
-0.033753 0.075952 -0.034525
-0.027113 0.082462 -0.023767
-0.021481 0.080191 -0.034757
0.043600 0.077844 -0.011808
0.032241 0.083187 -0.011849
0.021481 0.080191 -0.034757
0.027113 0.082462 -0.023767
0.033753 0.075952 -0.034525
0.019811 0.086975 -0.011951
0.007402 0.088892 -0.011976
-0.007298 0.055408 -0.070546
0.000000 0.063262 -0.064015
0.007298 0.055408 -0.070546
-0.014079 0.075616 -0.046733
-0.007303 0.070218 -0.055822
-0.021338 0.068279 -0.054614
0.021338 0.068279 -0.054614
0.007303 0.070218 -0.055822
0.014079 0.075616 -0.046733
0.000000 0.086748 -0.023976
0.007409 0.082168 -0.035965
-0.007409 0.082168 -0.035965
-0.051413 0.071338 -0.019172
-0.055408 0.070546 -0.007298
-0.040859 0.068214 -0.042159
-0.046451 0.070511 -0.031154
-0.068279 0.054614 -0.021338
-0.058267 0.063208 -0.026640
-0.063640 0.054135 -0.033457
-0.011808 0.043600 -0.077844
-0.019172 0.051413 -0.071338
-0.042159 0.040859 -0.068214
-0.031154 0.046451 -0.070511
-0.034525 0.033753 -0.075952
-0.026640 0.058267 -0.063208
-0.033457 0.063640 -0.054135
-0.077844 0.011808 -0.043600
-0.071338 0.019172 -0.051413
-0.070546 0.007298 -0.055408
-0.068214 0.042159 -0.040859
-0.070511 0.031154 -0.046451
-0.075952 0.034525 -0.033753
-0.054614 0.021338 -0.068279
-0.063208 0.026640 -0.058267
-0.054135 0.033457 -0.063640
-0.046204 0.058192 -0.050783
-0.050783 0.046204 -0.058192
-0.058192 0.050783 -0.046204
-0.063262 0.064015 0.000000
-0.075616 0.046733 -0.014079
-0.070218 0.055822 -0.007303
-0.070218 0.055822 0.007303
-0.075616 0.046733 0.014079
-0.082354 0.000000 -0.036302
-0.083187 0.011849 -0.032241
-0.088892 0.011976 -0.007402
-0.086975 0.011951 -0.019811
-0.089139 0.000000 -0.012416
-0.082462 0.023767 -0.027113
-0.080191 0.034757 -0.021481
-0.083187 0.011849 0.032241
-0.082354 0.000000 0.036302
-0.080191 0.034757 0.021481
-0.082462 0.023767 0.027113
-0.089139 0.000000 0.012416
-0.086975 0.011951 0.019811
-0.088892 0.011976 0.007402
-0.082168 0.035965 -0.007409
-0.086748 0.023976 0.000000
-0.082168 0.035965 0.007409
0.051413 0.071338 0.019172
0.055408 0.070546 0.007298
0.040859 0.068214 0.042159
0.046451 0.070511 0.031154
0.068279 0.054614 0.021338
0.058267 0.063208 0.026640
0.063640 0.054135 0.033457
0.011808 0.043600 0.077844
0.019172 0.051413 0.071338
0.042159 0.040859 0.068214
0.031154 0.046451 0.070511
0.034525 0.033753 0.075952
0.026640 0.058267 0.063208
0.033457 0.063640 0.054135
0.077844 0.011808 0.043600
0.071338 0.019172 0.051413
0.070546 0.007298 0.055408
0.068214 0.042159 0.040859
0.070511 0.031154 0.046451
0.075952 0.034525 0.033753
0.054614 0.021338 0.068279
0.063208 0.026640 0.058267
0.054135 0.033457 0.063640
0.046204 0.058192 0.050783
0.050783 0.046204 0.058192
0.058192 0.050783 0.046204
-0.011849 0.032241 0.083187
0.000000 0.036302 0.082354
-0.034757 0.021481 0.080191
-0.023767 0.027113 0.082462
0.000000 0.012416 0.089139
-0.011951 0.019811 0.086975
-0.011976 0.007402 0.088892
-0.070546 -0.007298 0.055408
-0.064015 0.000000 0.063262
-0.046733 -0.014079 0.075616
-0.055822 -0.007303 0.070218
-0.054614 -0.021338 0.068279
-0.055822 0.007303 0.070218
-0.046733 0.014079 0.075616
0.000000 -0.036302 0.082354
-0.011849 -0.032241 0.083187
-0.011808 -0.043600 0.077844
-0.011976 -0.007402 0.088892
-0.011951 -0.019811 0.086975
0.000000 -0.012416 0.089139
-0.034525 -0.033753 0.075952
-0.023767 -0.027113 0.082462
-0.034757 -0.021481 0.080191
-0.035965 0.007409 0.082168
-0.035965 -0.007409 0.082168
-0.023976 0.000000 0.086748
-0.083187 -0.011849 0.032241
-0.077844 -0.011808 0.043600
-0.088892 -0.011976 0.007402
-0.086975 -0.011951 0.019811
-0.075952 -0.034525 0.033753
-0.082462 -0.023767 0.027113
-0.080191 -0.034757 0.021481
-0.077844 -0.011808 -0.043600
-0.083187 -0.011849 -0.032241
-0.080191 -0.034757 -0.021481
-0.082462 -0.023767 -0.027113
-0.075952 -0.034525 -0.033753
-0.086975 -0.011951 -0.019811
-0.088892 -0.011976 -0.007402
-0.055408 -0.070546 0.007298
-0.063262 -0.064015 0.000000
-0.055408 -0.070546 -0.007298
-0.075616 -0.046733 0.014079
-0.070218 -0.055822 0.007303
-0.068279 -0.054614 0.021338
-0.068279 -0.054614 -0.021338
-0.070218 -0.055822 -0.007303
-0.075616 -0.046733 -0.014079
-0.086748 -0.023976 0.000000
-0.082168 -0.035965 -0.007409
-0.082168 -0.035965 0.007409
-0.064015 0.000000 -0.063262
-0.070546 -0.007298 -0.055408
-0.046733 0.014079 -0.075616
-0.055822 0.007303 -0.070218
-0.054614 -0.021338 -0.068279
-0.055822 -0.007303 -0.070218
-0.046733 -0.014079 -0.075616
0.000000 0.036302 -0.082354
-0.011849 0.032241 -0.083187
-0.011976 0.007402 -0.088892
-0.011951 0.019811 -0.086975
0.000000 0.012416 -0.089139
-0.023767 0.027113 -0.082462
-0.034757 0.021481 -0.080191
-0.011808 -0.043600 -0.077844
-0.011849 -0.032241 -0.083187
0.000000 -0.036302 -0.082354
-0.034757 -0.021481 -0.080191
-0.023767 -0.027113 -0.082462
-0.034525 -0.033753 -0.075952
0.000000 -0.012416 -0.089139
-0.011951 -0.019811 -0.086975
-0.011976 -0.007402 -0.088892
-0.035965 0.007409 -0.082168
-0.023976 0.000000 -0.086748
-0.035965 -0.007409 -0.082168
0.019172 0.051413 -0.071338
0.011808 0.043600 -0.077844
0.033457 0.063640 -0.054135
0.026640 0.058267 -0.063208
0.034525 0.033753 -0.075952
0.031154 0.046451 -0.070511
0.042159 0.040859 -0.068214
0.055408 0.070546 -0.007298
0.051413 0.071338 -0.019172
0.063640 0.054135 -0.033457
0.058267 0.063208 -0.026640
0.068279 0.054614 -0.021338
0.046451 0.070511 -0.031154
0.040859 0.068214 -0.042159
0.070546 0.007298 -0.055408
0.071338 0.019172 -0.051413
0.077844 0.011808 -0.043600
0.054135 0.033457 -0.063640
0.063208 0.026640 -0.058267
0.054614 0.021338 -0.068279
0.075952 0.034525 -0.033753
0.070511 0.031154 -0.046451
0.068214 0.042159 -0.040859
0.046204 0.058192 -0.050783
0.058192 0.050783 -0.046204
0.050783 0.046204 -0.058192
0.055408 -0.070546 0.007298
0.051413 -0.071338 0.019172
0.043600 -0.077844 0.011808
0.063640 -0.054135 0.033457
0.058267 -0.063208 0.026640
0.068279 -0.054614 0.021338
0.033753 -0.075952 0.034525
0.046451 -0.070511 0.031154
0.040859 -0.068214 0.042159
0.070546 -0.007298 0.055408
0.071338 -0.019172 0.051413
0.077844 -0.011808 0.043600
0.054135 -0.033457 0.063640
0.063208 -0.026640 0.058267
0.054614 -0.021338 0.068279
0.075952 -0.034525 0.033753
0.070511 -0.031154 0.046451
0.068214 -0.042159 0.040859
0.007298 -0.055408 0.070546
0.019172 -0.051413 0.071338
0.011808 -0.043600 0.077844
0.033457 -0.063640 0.054135
0.026640 -0.058267 0.063208
0.021338 -0.068279 0.054614
0.034525 -0.033753 0.075952
0.031154 -0.046451 0.070511
0.042159 -0.040859 0.068214
0.058192 -0.050783 0.046204
0.050783 -0.046204 0.058192
0.046204 -0.058192 0.050783
0.032241 -0.083187 0.011849
0.036302 -0.082354 0.000000
0.021481 -0.080191 0.034757
0.027113 -0.082462 0.023767
0.012416 -0.089139 0.000000
0.019811 -0.086975 0.011951
0.007402 -0.088892 0.011976
-0.007298 -0.055408 0.070546
0.000000 -0.063262 0.064015
-0.014079 -0.075616 0.046733
-0.007303 -0.070218 0.055822
-0.021338 -0.068279 0.054614
0.007303 -0.070218 0.055822
0.014079 -0.075616 0.046733
-0.036302 -0.082354 0.000000
-0.032241 -0.083187 0.011849
-0.043600 -0.077844 0.011808
-0.007402 -0.088892 0.011976
-0.019811 -0.086975 0.011951
-0.012416 -0.089139 0.000000
-0.033753 -0.075952 0.034525
-0.027113 -0.082462 0.023767
-0.021481 -0.080191 0.034757
0.007409 -0.082168 0.035965
-0.007409 -0.082168 0.035965
0.000000 -0.086748 0.023976
0.032241 -0.083187 -0.011849
0.043600 -0.077844 -0.011808
0.007402 -0.088892 -0.011976
0.019811 -0.086975 -0.011951
0.033753 -0.075952 -0.034525
0.027113 -0.082462 -0.023767
0.021481 -0.080191 -0.034757
-0.043600 -0.077844 -0.011808
-0.032241 -0.083187 -0.011849
-0.021481 -0.080191 -0.034757
-0.027113 -0.082462 -0.023767
-0.033753 -0.075952 -0.034525
-0.019811 -0.086975 -0.011951
-0.007402 -0.088892 -0.011976
0.007298 -0.055408 -0.070546
0.000000 -0.063262 -0.064015
-0.007298 -0.055408 -0.070546
0.014079 -0.075616 -0.046733
0.007303 -0.070218 -0.055822
0.021338 -0.068279 -0.054614
-0.021338 -0.068279 -0.054614
-0.007303 -0.070218 -0.055822
-0.014079 -0.075616 -0.046733
0.000000 -0.086748 -0.023976
-0.007409 -0.082168 -0.035965
0.007409 -0.082168 -0.035965
0.051413 -0.071338 -0.019172
0.055408 -0.070546 -0.007298
0.040859 -0.068214 -0.042159
0.046451 -0.070511 -0.031154
0.068279 -0.054614 -0.021338
0.058267 -0.063208 -0.026640
0.063640 -0.054135 -0.033457
0.011808 -0.043600 -0.077844
0.019172 -0.051413 -0.071338
0.042159 -0.040859 -0.068214
0.031154 -0.046451 -0.070511
0.034525 -0.033753 -0.075952
0.026640 -0.058267 -0.063208
0.033457 -0.063640 -0.054135
0.077844 -0.011808 -0.043600
0.071338 -0.019172 -0.051413
0.070546 -0.007298 -0.055408
0.068214 -0.042159 -0.040859
0.070511 -0.031154 -0.046451
0.075952 -0.034525 -0.033753
0.054614 -0.021338 -0.068279
0.063208 -0.026640 -0.058267
0.054135 -0.033457 -0.063640
0.046204 -0.058192 -0.050783
0.050783 -0.046204 -0.058192
0.058192 -0.050783 -0.046204
0.063262 -0.064015 0.000000
0.075616 -0.046733 -0.014079
0.070218 -0.055822 -0.007303
0.070218 -0.055822 0.007303
0.075616 -0.046733 0.014079
0.082354 0.000000 -0.036302
0.083187 -0.011849 -0.032241
0.088892 -0.011976 -0.007402
0.086975 -0.011951 -0.019811
0.089139 0.000000 -0.012416
0.082462 -0.023767 -0.027113
0.080191 -0.034757 -0.021481
0.083187 -0.011849 0.032241
0.082354 0.000000 0.036302
0.080191 -0.034757 0.021481
0.082462 -0.023767 0.027113
0.089139 0.000000 0.012416
0.086975 -0.011951 0.019811
0.088892 -0.011976 0.007402
0.082168 -0.035965 -0.007409
0.086748 -0.023976 0.000000
0.082168 -0.035965 0.007409
0.011849 -0.032241 0.083187
0.034757 -0.021481 0.080191
0.023767 -0.027113 0.082462
0.011951 -0.019811 0.086975
0.011976 -0.007402 0.088892
0.064015 0.000000 0.063262
0.046733 0.014079 0.075616
0.055822 0.007303 0.070218
0.055822 -0.007303 0.070218
0.046733 -0.014079 0.075616
0.011849 0.032241 0.083187
0.011976 0.007402 0.088892
0.011951 0.019811 0.086975
0.023767 0.027113 0.082462
0.034757 0.021481 0.080191
0.035965 -0.007409 0.082168
0.035965 0.007409 0.082168
0.023976 0.000000 0.086748
-0.051413 -0.071338 0.019172
-0.040859 -0.068214 0.042159
-0.046451 -0.070511 0.031154
-0.058267 -0.063208 0.026640
-0.063640 -0.054135 0.033457
-0.019172 -0.051413 0.071338
-0.042159 -0.040859 0.068214
-0.031154 -0.046451 0.070511
-0.026640 -0.058267 0.063208
-0.033457 -0.063640 0.054135
-0.071338 -0.019172 0.051413
-0.068214 -0.042159 0.040859
-0.070511 -0.031154 0.046451
-0.063208 -0.026640 0.058267
-0.054135 -0.033457 0.063640
-0.046204 -0.058192 0.050783
-0.050783 -0.046204 0.058192
-0.058192 -0.050783 0.046204
-0.019172 -0.051413 -0.071338
-0.033457 -0.063640 -0.054135
-0.026640 -0.058267 -0.063208
-0.031154 -0.046451 -0.070511
-0.042159 -0.040859 -0.068214
-0.051413 -0.071338 -0.019172
-0.063640 -0.054135 -0.033457
-0.058267 -0.063208 -0.026640
-0.046451 -0.070511 -0.031154
-0.040859 -0.068214 -0.042159
-0.071338 -0.019172 -0.051413
-0.054135 -0.033457 -0.063640
-0.063208 -0.026640 -0.058267
-0.070511 -0.031154 -0.046451
-0.068214 -0.042159 -0.040859
-0.046204 -0.058192 -0.050783
-0.058192 -0.050783 -0.046204
-0.050783 -0.046204 -0.058192
0.064015 0.000000 -0.063262
0.046733 -0.014079 -0.075616
0.055822 -0.007303 -0.070218
0.055822 0.007303 -0.070218
0.046733 0.014079 -0.075616
0.011849 -0.032241 -0.083187
0.011976 -0.007402 -0.088892
0.011951 -0.019811 -0.086975
0.023767 -0.027113 -0.082462
0.034757 -0.021481 -0.080191
0.011849 0.032241 -0.083187
0.034757 0.021481 -0.080191
0.023767 0.027113 -0.082462
0.011951 0.019811 -0.086975
0.011976 0.007402 -0.088892
0.035965 -0.007409 -0.082168
0.023976 0.000000 -0.086748
0.035965 0.007409 -0.082168
0.083187 0.011849 0.032241
0.088892 0.011976 0.007402
0.086975 0.011951 0.019811
0.082462 0.023767 0.027113
0.080191 0.034757 0.021481
0.083187 0.011849 -0.032241
0.080191 0.034757 -0.021481
0.082462 0.023767 -0.027113
0.086975 0.011951 -0.019811
0.088892 0.011976 -0.007402
0.063262 0.064015 0.000000
0.075616 0.046733 0.014079
0.070218 0.055822 0.007303
0.070218 0.055822 -0.007303
0.075616 0.046733 -0.014079
0.086748 0.023976 0.000000
0.082168 0.035965 -0.007409
0.082168 0.035965 0.007409
3 0 162 164 255 0 242
3 42 163 162 255 0 214
3 44 164 163 255 0 252
3 162 163 164 255 0 236
3 12 165 167 255 0 156
3 43 166 165 255 0 194
3 42 167 166 255 0 185
3 165 166 167 255 0 179
3 14 168 170 234 0 255
3 44 169 168 246 0 255
3 43 170 169 255 0 233
3 168 169 170 252 0 255
3 42 166 163 255 0 208
3 43 169 166 255 0 217
3 44 163 169 255 0 246
3 166 169 163 255 0 224
3 11 171 173 255 0 20
3 45 172 171 255 0 47
3 47 173 172 255 0 57
3 171 172 173 255 0 41
3 13 174 176 255 0 120
3 46 175 174 255 0 122
3 45 176 175 255 0 80
3 174 175 176 255 0 107
3 12 177 179 255 0 124
3 47 178 177 255 0 92
3 46 179 178 255 0 123
3 177 178 179 255 0 113
3 45 175 172 255 0 72
3 46 178 175 255 0 111
3 47 172 178 255 0 78
3 175 178 172 255 0 87
3 5 180 182 159 0 255
3 48 181 180 185 0 255
3 50 182 181 221 0 255
3 180 181 182 188 0 255
3 14 183 185 220 0 255
3 49 184 183 252 0 255
3 48 185 184 205 0 255
3 183 184 185 226 0 255
3 13 186 188 255 0 170
3 50 187 186 255 0 226
3 49 188 187 255 0 218
3 186 187 188 255 0 205
3 48 184 181 209 0 255
3 49 187 184 255 0 249
3 50 181 187 247 0 255
3 184 187 181 239 0 255
3 12 179 165 255 0 147
3 46 189 179 255 0 148
3 43 165 189 255 0 185
3 179 189 165 255 0 160
3 13 188 174 255 0 152
3 49 190 188 255 0 199
3 46 174 190 255 0 149
3 188 190 174 255 0 167
3 14 170 183 240 0 255
3 43 191 170 255 0 226
3 49 183 191 255 0 237
3 170 191 183 255 0 244
3 46 190 189 255 0 163
3 49 191 190 255 0 209
3 43 189 191 255 0 201
3 190 191 189 255 0 191
3 0 164 193 247 0 255
3 44 192 164 236 0 255
3 52 193 192 213 0 255
3 164 192 193 232 0 255
3 14 194 168 212 0 255
3 51 195 194 188 0 255
3 44 168 195 225 0 255
3 194 195 168 208 0 255
3 16 196 198 145 0 255
3 52 197 196 179 0 255
3 51 198 197 166 0 255
3 196 197 198 163 0 255
3 44 195 192 221 0 255
3 51 197 195 185 0 255
3 52 192 197 198 0 255
3 195 197 192 201 0 255
3 5 199 180 127 0 255
3 53 200 199 98 0 255
3 48 180 200 156 0 255
3 199 200 180 127 0 255
3 15 201 203 58 0 255
3 54 202 201 104 0 255
3 53 203 202 76 0 255
3 201 202 203 79 0 255
3 14 185 205 196 0 255
3 48 204 185 178 0 255
3 54 205 204 150 0 255
3 185 204 205 175 0 255
3 53 202 200 100 0 255
3 54 204 202 127 0 255
3 48 200 204 154 0 255
3 202 204 200 127 0 255
3 1 206 208 7 0 255
3 55 207 206 41 0 255
3 57 208 207 18 0 255
3 206 207 208 22 0 255
3 16 209 211 109 0 255
3 56 210 209 88 0 255
3 55 211 210 75 0 255
3 209 210 211 91 0 255
3 15 212 214 42 0 255
3 57 213 212 29 0 255
3 56 214 213 66 0 255
3 212 213 214 46 0 255
3 55 210 207 56 0 255
3 56 213 210 69 0 255
3 57 207 213 33 0 255
3 210 213 207 53 0 255
3 14 205 194 193 0 255
3 54 215 205 149 0 255
3 51 194 215 169 0 255
3 205 215 194 170 0 255
3 15 214 201 61 0 255
3 56 216 214 85 0 255
3 54 201 216 105 0 255
3 214 216 201 84 0 255
3 16 198 209 127 0 255
3 51 217 198 147 0 255
3 56 209 217 107 0 255
3 198 217 209 127 0 255
3 54 216 215 127 0 255
3 56 217 216 106 0 255
3 51 215 217 148 0 255
3 216 217 215 127 0 255
3 0 193 219 247 0 255
3 52 218 193 213 0 255
3 59 219 218 236 0 255
3 193 218 219 232 0 255
3 16 220 196 145 0 255
3 58 221 220 166 0 255
3 52 196 221 179 0 255
3 220 221 196 163 0 255
3 18 222 224 212 0 255
3 59 223 222 225 0 255
3 58 224 223 188 0 255
3 222 223 224 208 0 255
3 52 221 218 198 0 255
3 58 223 221 185 0 255
3 59 218 223 221 0 255
3 221 223 218 201 0 255
3 1 225 206 7 0 255
3 60 226 225 18 0 255
3 55 206 226 41 0 255
3 225 226 206 22 0 255
3 17 227 229 42 0 255
3 61 228 227 66 0 255
3 60 229 228 29 0 255
3 227 228 229 46 0 255
3 16 211 231 109 0 255
3 55 230 211 75 0 255
3 61 231 230 88 0 255
3 211 230 231 91 0 255
3 60 228 226 33 0 255
3 61 230 228 69 0 255
3 55 226 230 56 0 255
3 228 230 226 53 0 255
3 7 232 234 127 0 255
3 62 233 232 156 0 255
3 64 234 233 98 0 255
3 232 233 234 127 0 255
3 18 235 237 196 0 255
3 63 236 235 150 0 255
3 62 237 236 178 0 255
3 235 236 237 175 0 255
3 17 238 240 58 0 255
3 64 239 238 76 0 255
3 63 240 239 104 0 255
3 238 239 240 79 0 255
3 62 236 233 154 0 255
3 63 239 236 127 0 255
3 64 233 239 100 0 255
3 236 239 233 127 0 255
3 16 231 220 127 0 255
3 61 241 231 107 0 255
3 58 220 241 147 0 255
3 231 241 220 127 0 255
3 17 240 227 61 0 255
3 63 242 240 105 0 255
3 61 227 242 85 0 255
3 240 242 227 84 0 255
3 18 224 235 193 0 255
3 58 243 224 169 0 255
3 63 235 243 149 0 255
3 224 243 235 170 0 255
3 61 242 241 106 0 255
3 63 243 242 127 0 255
3 58 241 243 148 0 255
3 242 243 241 127 0 255
3 0 219 245 255 0 242
3 59 244 219 255 0 252
3 66 245 244 255 0 214
3 219 244 245 255 0 236
3 18 246 222 234 0 255
3 65 247 246 255 0 233
3 59 222 247 246 0 255
3 246 247 222 252 0 255
3 20 248 250 255 0 156
3 66 249 248 255 0 185
3 65 250 249 255 0 194
3 248 249 250 255 0 179
3 59 247 244 255 0 246
3 65 249 247 255 0 217
3 66 244 249 255 0 208
3 247 249 244 255 0 224
3 7 251 232 159 0 255
3 67 252 251 221 0 255
3 62 232 252 185 0 255
3 251 252 232 188 0 255
3 19 253 255 255 0 170
3 68 254 253 255 0 218
3 67 255 254 255 0 226
3 253 254 255 255 0 205
3 18 237 257 220 0 255
3 62 256 237 205 0 255
3 68 257 256 252 0 255
3 237 256 257 226 0 255
3 67 254 252 247 0 255
3 68 256 254 255 0 249
3 62 252 256 209 0 255
3 254 256 252 239 0 255
3 10 258 260 255 0 20
3 69 259 258 255 0 57
3 71 260 259 255 0 47
3 258 259 260 255 0 41
3 20 261 263 255 0 124
3 70 262 261 255 0 123
3 69 263 262 255 0 92
3 261 262 263 255 0 113
3 19 264 266 255 0 120
3 71 265 264 255 0 80
3 70 266 265 255 0 122
3 264 265 266 255 0 107
3 69 262 259 255 0 78
3 70 265 262 255 0 111
3 71 259 265 255 0 72
3 262 265 259 255 0 87
3 18 257 246 240 0 255
3 68 267 257 255 0 237
3 65 246 267 255 0 226
3 257 267 246 255 0 244
3 19 266 253 255 0 152
3 70 268 266 255 0 149
3 68 253 268 255 0 199
3 266 268 253 255 0 167
3 20 250 261 255 0 147
3 65 269 250 255 0 185
3 70 261 269 255 0 148
3 250 269 261 255 0 160
3 68 268 267 255 0 209
3 70 269 268 255 0 163
3 65 267 269 255 0 201
3 268 269 267 255 0 191
3 0 245 162 255 0 229
3 66 270 245 255 0 201
3 42 162 270 255 0 201
3 245 270 162 255 0 211
3 20 271 248 255 0 144
3 72 272 271 255 0 144
3 66 248 272 255 0 173
3 271 272 248 255 0 154
3 12 167 274 255 0 144
3 42 273 167 255 0 173
3 72 274 273 255 0 144
3 167 273 274 255 0 154
3 66 272 270 255 0 182
3 72 273 272 255 0 153
3 42 270 273 255 0 182
3 272 273 270 255 0 173
3 10 275 258 255 0 12
3 73 276 275 255 0 11
3 69 258 276 255 0 47
3 275 276 258 255 0 23
3 21 277 279 255 0 10
3 74 278 277 255 0 43
3 73 279 278 255 0 11
3 277 278 279 255 0 21
3 20 263 281 255 0 112
3 69 280 263 255 0 81
3 74 281 280 255 0 77
3 263 280 281 255 0 90
3 73 278 276 255 0 22
3 74 280 278 255 0 55
3 69 276 280 255 0 57
3 278 280 276 255 0 45
3 11 173 283 255 0 12
3 47 282 173 255 0 47
3 76 283 282 255 0 11
3 173 282 283 255 0 23
3 12 284 177 255 0 112
3 75 285 284 255 0 77
3 47 177 285 255 0 81
3 284 285 177 255 0 90
3 21 286 288 255 0 10
3 76 287 286 255 0 11
3 75 288 287 255 0 43
3 286 287 288 255 0 21
3 47 285 282 255 0 57
3 75 287 285 255 0 55
3 76 282 287 255 0 22
3 285 287 282 255 0 45
3 20 281 271 255 0 123
3 74 289 281 255 0 88
3 72 271 289 255 0 123
3 281 289 271 255 0 111
3 21 288 277 255 0 21
3 75 290 288 255 0 54
3 74 277 290 255 0 54
3 288 290 277 255 0 43
3 12 274 284 255 0 123
3 72 291 274 255 0 123
3 75 284 291 255 0 88
3 274 291 284 255 0 111
3 74 290 289 255 0 77
3 75 291 290 255 0 77
3 72 289 291 255 0 111
3 290 291 289 255 0 88
3 1 208 293 0 12 255
3 57 292 208 0 2 255
3 78 293 292 0 40 255
3 208 292 293 0 18 255
3 15 294 212 20 0 255
3 77 295 294 0 21 255
3 57 212 295 8 0 255
3 294 295 212 2 0 255
3 23 296 298 0 98 255
3 78 297 296 0 69 255
3 77 298 297 0 60 255
3 296 297 298 0 75 255
3 57 295 292 0 8 255
3 77 297 295 0 37 255
3 78 292 297 0 46 255
3 295 297 292 0 30 255
3 5 299 199 95 0 255
3 79 300 299 33 0 255
3 53 199 300 69 0 255
3 299 300 199 66 0 255
3 22 301 303 0 84 255
3 80 302 301 0 36 255
3 79 303 302 0 28 255
3 301 302 303 0 49 255
3 15 203 305 34 0 255
3 53 304 203 49 0 255
3 80 305 304 2 0 255
3 203 304 305 28 0 255
3 79 302 300 7 0 255
3 80 304 302 0 5 255
3 53 300 304 45 0 255
3 302 304 300 15 0 255
3 9 306 308 0 234 255
3 81 307 306 0 197 255
3 83 308 307 0 207 255
3 306 307 308 0 213 255
3 23 309 311 0 130 255
3 82 310 309 0 131 255
3 81 311 310 0 162 255
3 309 310 311 0 141 255
3 22 312 314 0 134 255
3 83 313 312 0 174 255
3 82 314 313 0 132 255
3 312 313 314 0 147 255
3 81 310 307 0 176 255
3 82 313 310 0 143 255
3 83 307 313 0 182 255
3 310 313 307 0 167 255
3 15 305 294 14 0 255
3 80 315 305 0 17 255
3 77 294 315 0 28 255
3 305 315 294 0 10 255
3 22 314 301 0 102 255
3 82 316 314 0 105 255
3 80 301 316 0 55 255
3 314 316 301 0 87 255
3 23 298 309 0 107 255
3 77 317 298 0 69 255
3 82 309 317 0 106 255
3 298 317 309 0 94 255
3 80 316 315 0 45 255
3 82 317 316 0 91 255
3 77 315 317 0 53 255
3 316 317 315 0 63 255
3 5 182 319 150 0 255
3 50 318 182 222 0 255
3 85 319 318 158 0 255
3 182 318 319 178 0 255
3 13 320 186 255 0 153
3 84 321 320 255 0 159
3 50 186 321 255 0 215
3 320 321 186 255 0 176
3 25 322 324 255 0 250
3 85 323 322 177 0 255
3 84 324 323 255 0 175
3 322 323 324 255 0 250
3 50 321 318 255 0 250
3 84 323 321 255 0 195
3 85 318 323 200 0 255
3 321 323 318 255 0 250
3 11 325 171 255 0 0
3 86 326 325 255 26 0
3 45 171 326 255 0 26
3 325 326 171 255 0 0
3 24 327 329 255 99 0
3 87 328 327 255 34 0
3 86 329 328 255 59 0
3 327 328 329 255 64 0
3 13 176 331 255 0 99
3 45 330 176 255 0 59
3 87 331 330 255 0 34
3 176 330 331 255 0 64
3 86 328 326 255 28 0
3 87 330 328 255 0 0
3 45 326 330 255 0 28
3 328 330 326 255 0 0
3 4 332 334 150 255 0
3 88 333 332 158 255 0
3 90 334 333 222 255 0
3 332 333 334 178 255 0
3 25 335 337 255 250 0
3 89 336 335 255 175 0
3 88 337 336 177 255 0
3 335 336 337 255 250 0
3 24 338 340 255 153 0
3 90 339 338 255 215 0
3 89 340 339 255 159 0
3 338 339 340 255 176 0
3 88 336 333 200 255 0
3 89 339 336 255 195 0
3 90 333 339 255 250 0
3 336 339 333 255 250 0
3 13 331 320 255 0 113
3 87 341 331 255 0 39
3 84 320 341 255 0 105
3 331 341 320 255 0 85
3 24 340 327 255 113 0
3 89 342 340 255 105 0
3 87 327 342 255 39 0
3 340 342 327 255 85 0
3 25 324 335 255 0 0
3 84 343 324 255 0 86
3 89 335 343 255 86 0
3 324 343 335 255 0 0
3 87 342 341 255 0 0
3 89 343 342 255 62 0
3 84 341 343 255 0 62
3 342 343 341 255 0 0
3 11 283 345 255 12 0
3 76 344 283 255 11 0
3 92 345 344 255 47 0
3 283 344 345 255 23 0
3 21 346 286 255 10 0
3 91 347 346 255 43 0
3 76 286 347 255 11 0
3 346 347 286 255 21 0
3 27 348 350 255 112 0
3 92 349 348 255 81 0
3 91 350 349 255 77 0
3 348 349 350 255 90 0
3 76 347 344 255 22 0
3 91 349 347 255 55 0
3 92 344 349 255 57 0
3 347 349 344 255 45 0
3 10 351 275 255 12 0
3 93 352 351 255 47 0
3 73 275 352 255 11 0
3 351 352 275 255 23 0
3 26 353 355 255 112 0
3 94 354 353 255 77 0
3 93 355 354 255 81 0
3 353 354 355 255 90 0
3 21 279 357 255 10 0
3 73 356 279 255 11 0
3 94 357 356 255 43 0
3 279 356 357 255 21 0
3 93 354 352 255 57 0
3 94 356 354 255 55 0
3 73 352 356 255 22 0
3 354 356 352 255 45 0
3 2 358 360 255 229 0
3 95 359 358 255 201 0
3 97 360 359 255 201 0
3 358 359 360 255 211 0
3 27 361 363 255 144 0
3 96 362 361 255 144 0
3 95 363 362 255 173 0
3 361 362 363 255 154 0
3 26 364 366 255 144 0
3 97 365 364 255 173 0
3 96 366 365 255 144 0
3 364 365 366 255 154 0
3 95 362 359 255 182 0
3 96 365 362 255 153 0
3 97 359 365 255 182 0
3 362 365 359 255 173 0
3 21 357 346 255 21 0
3 94 367 357 255 54 0
3 91 346 367 255 54 0
3 357 367 346 255 43 0
3 26 366 353 255 123 0
3 96 368 366 255 123 0
3 94 353 368 255 88 0
3 366 368 353 255 111 0
3 27 350 361 255 123 0
3 91 369 350 255 88 0
3 96 361 369 255 123 0
3 350 369 361 255 111 0
3 94 368 367 255 77 0
3 96 369 368 255 111 0
3 91 367 369 255 77 0
3 368 369 367 255 88 0
3 10 260 371 255 0 0
3 71 370 260 255 0 26
3 99 371 370 255 26 0
3 260 370 371 255 0 0
3 19 372 264 255 0 99
3 98 373 372 255 0 34
3 71 264 373 255 0 59
3 372 373 264 255 0 64
3 29 374 376 255 99 0
3 99 375 374 255 59 0
3 98 376 375 255 34 0
3 374 375 376 255 64 0
3 71 373 370 255 0 28
3 98 375 373 255 0 0
3 99 370 375 255 28 0
3 373 375 370 255 0 0
3 7 377 251 150 0 255
3 100 378 377 158 0 255
3 67 251 378 222 0 255
3 377 378 251 178 0 255
3 28 379 381 255 0 250
3 101 380 379 255 0 175
3 100 381 380 177 0 255
3 379 380 381 255 0 250
3 19 255 383 255 0 153
3 67 382 255 255 0 215
3 101 383 382 255 0 159
3 255 382 383 255 0 176
3 100 380 378 200 0 255
3 101 382 380 255 0 195
3 67 378 382 255 0 250
3 380 382 378 255 0 250
3 6 384 386 150 255 0
3 102 385 384 222 255 0
3 104 386 385 158 255 0
3 384 385 386 178 255 0
3 29 387 389 255 153 0
3 103 388 387 255 159 0
3 102 389 388 255 215 0
3 387 388 389 255 176 0
3 28 390 392 255 250 0
3 104 391 390 177 255 0
3 103 392 391 255 175 0
3 390 391 392 255 250 0
3 102 388 385 255 250 0
3 103 391 388 255 195 0
3 104 385 391 200 255 0
3 388 391 385 255 250 0
3 19 383 372 255 0 113
3 101 393 383 255 0 105
3 98 372 393 255 0 39
3 383 393 372 255 0 85
3 28 392 379 255 0 0
3 103 394 392 255 86 0
3 101 379 394 255 0 86
3 392 394 379 255 0 0
3 29 376 387 255 113 0
3 98 395 376 255 39 0
3 103 387 395 255 105 0
3 376 395 387 255 85 0
3 101 394 393 255 0 62
3 103 395 394 255 62 0
3 98 393 395 255 0 0
3 394 395 393 255 0 0
3 7 234 397 95 0 255
3 64 396 234 69 0 255
3 106 397 396 33 0 255
3 234 396 397 66 0 255
3 17 398 238 34 0 255
3 105 399 398 2 0 255
3 64 238 399 49 0 255
3 398 399 238 28 0 255
3 31 400 402 0 84 255
3 106 401 400 0 28 255
3 105 402 401 0 36 255
3 400 401 402 0 49 255
3 64 399 396 45 0 255
3 105 401 399 0 5 255
3 106 396 401 7 0 255
3 399 401 396 15 0 255
3 1 403 225 0 12 255
3 107 404 403 0 40 255
3 60 225 404 0 2 255
3 403 404 225 0 18 255
3 30 405 407 0 98 255
3 108 406 405 0 60 255
3 107 407 406 0 69 255
3 405 406 407 0 75 255
3 17 229 409 20 0 255
3 60 408 229 8 0 255
3 108 409 408 0 21 255
3 229 408 409 2 0 255
3 107 406 404 0 46 255
3 108 408 406 0 37 255
3 60 404 408 0 8 255
3 406 408 404 0 30 255
3 8 410 412 0 234 255
3 109 411 410 0 207 255
3 111 412 411 0 197 255
3 410 411 412 0 213 255
3 31 413 415 0 134 255
3 110 414 413 0 132 255
3 109 415 414 0 174 255
3 413 414 415 0 147 255
3 30 416 418 0 130 255
3 111 417 416 0 162 255
3 110 418 417 0 131 255
3 416 417 418 0 141 255
3 109 414 411 0 182 255
3 110 417 414 0 143 255
3 111 411 417 0 176 255
3 414 417 411 0 167 255
3 17 409 398 14 0 255
3 108 419 409 0 28 255
3 105 398 419 0 17 255
3 409 419 398 0 10 255
3 30 418 405 0 107 255
3 110 420 418 0 106 255
3 108 405 420 0 69 255
3 418 420 405 0 94 255
3 31 402 413 0 102 255
3 105 421 402 0 55 255
3 110 413 421 0 105 255
3 402 421 413 0 87 255
3 108 420 419 0 53 255
3 110 421 420 0 91 255
3 105 419 421 0 45 255
3 420 421 419 0 63 255
3 3 422 424 0 255 12
3 112 423 422 0 255 40
3 114 424 423 0 255 2
3 422 423 424 0 255 18
3 32 425 427 0 255 98
3 113 426 425 0 255 60
3 112 427 426 0 255 69
3 425 426 427 0 255 75
3 34 428 430 20 255 0
3 114 429 428 8 255 0
3 113 430 429 0 255 21
3 428 429 430 2 255 0
3 112 426 423 0 255 46
3 113 429 426 0 255 37
3 114 423 429 0 255 8
3 426 429 423 0 255 30
3 9 431 433 0 255 234
3 115 432 431 0 255 207
3 117 433 432 0 255 197
3 431 432 433 0 255 213
3 33 434 436 0 255 134
3 116 435 434 0 255 132
3 115 436 435 0 255 174
3 434 435 436 0 255 147
3 32 437 439 0 255 130
3 117 438 437 0 255 162
3 116 439 438 0 255 131
3 437 438 439 0 255 141
3 115 435 432 0 255 182
3 116 438 435 0 255 143
3 117 432 438 0 255 176
3 435 438 432 0 255 167
3 4 440 442 95 255 0
3 118 441 440 69 255 0
3 120 442 441 33 255 0
3 440 441 442 66 255 0
3 34 443 445 34 255 0
3 119 444 443 2 255 0
3 118 445 444 49 255 0
3 443 444 445 28 255 0
3 33 446 448 0 255 84
3 120 447 446 0 255 28
3 119 448 447 0 255 36
3 446 447 448 0 255 49
3 118 444 441 45 255 0
3 119 447 444 0 255 5
3 120 441 447 7 255 0
3 444 447 441 15 255 0
3 32 439 425 0 255 107
3 116 449 439 0 255 106
3 113 425 449 0 255 69
3 439 449 425 0 255 94
3 33 448 434 0 255 102
3 119 450 448 0 255 55
3 116 434 450 0 255 105
3 448 450 434 0 255 87
3 34 430 443 14 255 0
3 113 451 430 0 255 28
3 119 443 451 0 255 17
3 430 451 443 0 255 10
3 116 450 449 0 255 91
3 119 451 450 0 255 45
3 113 449 451 0 255 53
3 450 451 449 0 255 63
3 3 424 453 7 255 0
3 114 452 424 18 255 0
3 122 453 452 41 255 0
3 424 452 453 22 255 0
3 34 454 428 42 255 0
3 121 455 454 66 255 0
3 114 428 455 29 255 0
3 454 455 428 46 255 0
3 36 456 458 109 255 0
3 122 457 456 75 255 0
3 121 458 457 88 255 0
3 456 457 458 91 255 0
3 114 455 452 33 255 0
3 121 457 455 69 255 0
3 122 452 457 56 255 0
3 455 457 452 53 255 0
3 4 459 440 127 255 0
3 123 460 459 156 255 0
3 118 440 460 98 255 0
3 459 460 440 127 255 0
3 35 461 463 196 255 0
3 124 462 461 150 255 0
3 123 463 462 178 255 0
3 461 462 463 175 255 0
3 34 445 465 58 255 0
3 118 464 445 76 255 0
3 124 465 464 104 255 0
3 445 464 465 79 255 0
3 123 462 460 154 255 0
3 124 464 462 127 255 0
3 118 460 464 100 255 0
3 462 464 460 127 255 0
3 2 466 468 247 255 0
3 125 467 466 213 255 0
3 127 468 467 236 255 0
3 466 467 468 232 255 0
3 36 469 471 145 255 0
3 126 470 469 166 255 0
3 125 471 470 179 255 0
3 469 470 471 163 255 0
3 35 472 474 212 255 0
3 127 473 472 225 255 0
3 126 474 473 188 255 0
3 472 473 474 208 255 0
3 125 470 467 198 255 0
3 126 473 470 185 255 0
3 127 467 473 221 255 0
3 470 473 467 201 255 0
3 34 465 454 61 255 0
3 124 475 465 105 255 0
3 121 454 475 85 255 0
3 465 475 454 84 255 0
3 35 474 461 193 255 0
3 126 476 474 169 255 0
3 124 461 476 149 255 0
3 474 476 461 170 255 0
3 36 458 469 127 255 0
3 121 477 458 107 255 0
3 126 469 477 147 255 0
3 458 477 469 127 255 0
3 124 476 475 127 255 0
3 126 477 476 148 255 0
3 121 475 477 106 255 0
3 476 477 475 127 255 0
3 3 453 479 7 255 0
3 122 478 453 41 255 0
3 129 479 478 18 255 0
3 453 478 479 22 255 0
3 36 480 456 109 255 0
3 128 481 480 88 255 0
3 122 456 481 75 255 0
3 480 481 456 91 255 0
3 38 482 484 42 255 0
3 129 483 482 29 255 0
3 128 484 483 66 255 0
3 482 483 484 46 255 0
3 122 481 478 56 255 0
3 128 483 481 69 255 0
3 129 478 483 33 255 0
3 481 483 478 53 255 0
3 2 485 466 247 255 0
3 130 486 485 236 255 0
3 125 466 486 213 255 0
3 485 486 466 232 255 0
3 37 487 489 212 255 0
3 131 488 487 188 255 0
3 130 489 488 225 255 0
3 487 488 489 208 255 0
3 36 471 491 145 255 0
3 125 490 471 179 255 0
3 131 491 490 166 255 0
3 471 490 491 163 255 0
3 130 488 486 221 255 0
3 131 490 488 185 255 0
3 125 486 490 198 255 0
3 488 490 486 201 255 0
3 6 492 494 127 255 0
3 132 493 492 98 255 0
3 134 494 493 156 255 0
3 492 493 494 127 255 0
3 38 495 497 58 255 0
3 133 496 495 104 255 0
3 132 497 496 76 255 0
3 495 496 497 79 255 0
3 37 498 500 196 255 0
3 134 499 498 178 255 0
3 133 500 499 150 255 0
3 498 499 500 175 255 0
3 132 496 493 100 255 0
3 133 499 496 127 255 0
3 134 493 499 154 255 0
3 496 499 493 127 255 0
3 36 491 480 127 255 0
3 131 501 491 147 255 0
3 128 480 501 107 255 0
3 491 501 480 127 255 0
3 37 500 487 193 255 0
3 133 502 500 149 255 0
3 131 487 502 169 255 0
3 500 502 487 170 255 0
3 38 484 495 61 255 0
3 128 503 484 85 255 0
3 133 495 503 105 255 0
3 484 503 495 84 255 0
3 131 502 501 148 255 0
3 133 503 502 127 255 0
3 128 501 503 106 255 0
3 502 503 501 127 255 0
3 3 479 505 0 255 12
3 129 504 479 0 255 2
3 136 505 504 0 255 40
3 479 504 505 0 255 18
3 38 506 482 20 255 0
3 135 507 506 0 255 21
3 129 482 507 8 255 0
3 506 507 482 2 255 0
3 40 508 510 0 255 98
3 136 509 508 0 255 69
3 135 510 509 0 255 60
3 508 509 510 0 255 75
3 129 507 504 0 255 8
3 135 509 507 0 255 37
3 136 504 509 0 255 46
3 507 509 504 0 255 30
3 6 511 492 95 255 0
3 137 512 511 33 255 0
3 132 492 512 69 255 0
3 511 512 492 66 255 0
3 39 513 515 0 255 84
3 138 514 513 0 255 36
3 137 515 514 0 255 28
3 513 514 515 0 255 49
3 38 497 517 34 255 0
3 132 516 497 49 255 0
3 138 517 516 2 255 0
3 497 516 517 28 255 0
3 137 514 512 7 255 0
3 138 516 514 0 255 5
3 132 512 516 45 255 0
3 514 516 512 15 255 0
3 8 518 520 0 255 234
3 139 519 518 0 255 197
3 141 520 519 0 255 207
3 518 519 520 0 255 213
3 40 521 523 0 255 130
3 140 522 521 0 255 131
3 139 523 522 0 255 162
3 521 522 523 0 255 141
3 39 524 526 0 255 134
3 141 525 524 0 255 174
3 140 526 525 0 255 132
3 524 525 526 0 255 147
3 139 522 519 0 255 176
3 140 525 522 0 255 143
3 141 519 525 0 255 182
3 522 525 519 0 255 167
3 38 517 506 14 255 0
3 138 527 517 0 255 17
3 135 506 527 0 255 28
3 517 527 506 0 255 10
3 39 526 513 0 255 102
3 140 528 526 0 255 105
3 138 513 528 0 255 55
3 526 528 513 0 255 87
3 40 510 521 0 255 107
3 135 529 510 0 255 69
3 140 521 529 0 255 106
3 510 529 521 0 255 94
3 138 528 527 0 255 45
3 140 529 528 0 255 91
3 135 527 529 0 255 53
3 528 529 527 0 255 63
3 3 505 422 0 255 25
3 136 530 505 0 255 53
3 112 422 530 0 255 53
3 505 530 422 0 255 43
3 40 531 508 0 255 110
3 142 532 531 0 255 110
3 136 508 532 0 255 81
3 531 532 508 0 255 100
3 32 427 534 0 255 110
3 112 533 427 0 255 81
3 142 534 533 0 255 110
3 427 533 534 0 255 100
3 136 532 530 0 255 72
3 142 533 532 0 255 101
3 112 530 533 0 255 72
3 532 533 530 0 255 81
3 8 535 518 0 255 242
3 143 536 535 0 255 243
3 139 518 536 0 255 207
3 535 536 518 0 255 231
3 41 537 539 0 255 244
3 144 538 537 0 255 211
3 143 539 538 0 255 243
3 537 538 539 0 255 233
3 40 523 541 0 255 142
3 139 540 523 0 255 173
3 144 541 540 0 255 177
3 523 540 541 0 255 164
3 143 538 536 0 255 232
3 144 540 538 0 255 199
3 139 536 540 0 255 197
3 538 540 536 0 255 209
3 9 433 543 0 255 242
3 117 542 433 0 255 207
3 146 543 542 0 255 243
3 433 542 543 0 255 231
3 32 544 437 0 255 142
3 145 545 544 0 255 177
3 117 437 545 0 255 173
3 544 545 437 0 255 164
3 41 546 548 0 255 244
3 146 547 546 0 255 243
3 145 548 547 0 255 211
3 546 547 548 0 255 233
3 117 545 542 0 255 197
3 145 547 545 0 255 199
3 146 542 547 0 255 232
3 545 547 542 0 255 209
3 40 541 531 0 255 131
3 144 549 541 0 255 166
3 142 531 549 0 255 131
3 541 549 531 0 255 143
3 41 548 537 0 255 233
3 145 550 548 0 255 200
3 144 537 550 0 255 200
3 548 550 537 0 255 211
3 32 534 544 0 255 131
3 142 551 534 0 255 131
3 145 544 551 0 255 166
3 534 551 544 0 255 143
3 144 550 549 0 255 177
3 145 551 550 0 255 177
3 142 549 551 0 255 143
3 550 551 549 0 255 166
3 4 442 332 104 255 0
3 120 552 442 32 255 0
3 88 332 552 96 255 0
3 442 552 332 76 255 0
3 33 553 446 0 255 101
3 147 554 553 0 255 95
3 120 446 554 0 255 39
3 553 554 446 0 255 78
3 25 337 556 0 255 4
3 88 555 337 77 255 0
3 147 556 555 0 255 79
3 337 555 556 0 255 4
3 120 554 552 0 255 4
3 147 555 554 0 255 59
3 88 552 555 54 255 0
3 554 555 552 0 255 4
3 9 308 431 0 255 255
3 83 557 308 0 228 255
3 115 431 557 0 255 228
3 308 557 431 0 255 255
3 22 558 312 0 155 255
3 148 559 558 0 220 255
3 83 312 559 0 195 255
3 558 559 312 0 190 255
3 33 436 561 0 255 155
3 115 560 436 0 255 195
3 148 561 560 0 255 220
3 436 560 561 0 255 190
3 83 559 557 0 226 255
3 148 560 559 0 255 255
3 115 557 560 0 255 226
3 559 560 557 0 255 255
3 5 319 299 104 0 255
3 85 562 319 96 0 255
3 79 299 562 32 0 255
3 319 562 299 76 0 255
3 25 563 322 0 4 255
3 149 564 563 0 79 255
3 85 322 564 77 0 255
3 563 564 322 0 4 255
3 22 303 566 0 101 255
3 79 565 303 0 39 255
3 149 566 565 0 95 255
3 303 565 566 0 78 255
3 85 564 562 54 0 255
3 149 565 564 0 59 255
3 79 562 565 0 4 255
3 564 565 562 0 4 255
3 33 561 553 0 255 141
3 148 567 561 0 255 215
3 147 553 567 0 255 149
3 561 567 553 0 255 169
3 22 566 558 0 141 255
3 149 568 566 0 149 255
3 148 558 568 0 215 255
3 566 568 558 0 169 255
3 25 556 563 0 255 255
3 147 569 556 0 255 168
3 149 563 569 0 168 255
3 556 569 563 0 255 255
3 148 568 567 0 255 255
3 149 569 568 0 192 255
3 147 567 569 0 255 192
3 568 569 567 0 255 255
3 2 468 358 255 242 0
3 127 570 468 255 252 0
3 95 358 570 255 214 0
3 468 570 358 255 236 0
3 35 571 472 234 255 0
3 150 572 571 255 233 0
3 127 472 572 246 255 0
3 571 572 472 252 255 0
3 27 363 574 255 156 0
3 95 573 363 255 185 0
3 150 574 573 255 194 0
3 363 573 574 255 179 0
3 127 572 570 255 246 0
3 150 573 572 255 217 0
3 95 570 573 255 208 0
3 572 573 570 255 224 0
3 4 334 459 159 255 0
3 90 575 334 221 255 0
3 123 459 575 185 255 0
3 334 575 459 188 255 0
3 24 576 338 255 170 0
3 151 577 576 255 218 0
3 90 338 577 255 226 0
3 576 577 338 255 205 0
3 35 463 579 220 255 0
3 123 578 463 205 255 0
3 151 579 578 252 255 0
3 463 578 579 226 255 0
3 90 577 575 247 255 0
3 151 578 577 255 249 0
3 123 575 578 209 255 0
3 577 578 575 239 255 0
3 11 345 325 255 20 0
3 92 580 345 255 57 0
3 86 325 580 255 47 0
3 345 580 325 255 41 0
3 27 581 348 255 124 0
3 152 582 581 255 123 0
3 92 348 582 255 92 0
3 581 582 348 255 113 0
3 24 329 584 255 120 0
3 86 583 329 255 80 0
3 152 584 583 255 122 0
3 329 583 584 255 107 0
3 92 582 580 255 78 0
3 152 583 582 255 111 0
3 86 580 583 255 72 0
3 582 583 580 255 87 0
3 35 579 571 240 255 0
3 151 585 579 255 237 0
3 150 571 585 255 226 0
3 579 585 571 255 244 0
3 24 584 576 255 152 0
3 152 586 584 255 149 0
3 151 576 586 255 199 0
3 584 586 576 255 167 0
3 27 574 581 255 147 0
3 150 587 574 255 185 0
3 152 581 587 255 148 0
3 574 587 581 255 160 0
3 151 586 585 255 209 0
3 152 587 586 255 163 0
3 150 585 587 255 201 0
3 586 587 585 255 191 0
3 6 494 384 159 255 0
3 134 588 494 185 255 0
3 102 384 588 221 255 0
3 494 588 384 188 255 0
3 37 589 498 220 255 0
3 153 590 589 252 255 0
3 134 498 590 205 255 0
3 589 590 498 226 255 0
3 29 389 592 255 170 0
3 102 591 389 255 226 0
3 153 592 591 255 218 0
3 389 591 592 255 205 0
3 134 590 588 209 255 0
3 153 591 590 255 249 0
3 102 588 591 247 255 0
3 590 591 588 239 255 0
3 2 360 485 255 242 0
3 97 593 360 255 214 0
3 130 485 593 255 252 0
3 360 593 485 255 236 0
3 26 594 364 255 156 0
3 154 595 594 255 194 0
3 97 364 595 255 185 0
3 594 595 364 255 179 0
3 37 489 597 234 255 0
3 130 596 489 246 255 0
3 154 597 596 255 233 0
3 489 596 597 252 255 0
3 97 595 593 255 208 0
3 154 596 595 255 217 0
3 130 593 596 255 246 0
3 595 596 593 255 224 0
3 10 371 351 255 20 0
3 99 598 371 255 47 0
3 93 351 598 255 57 0
3 371 598 351 255 41 0
3 29 599 374 255 120 0
3 155 600 599 255 122 0
3 99 374 600 255 80 0
3 599 600 374 255 107 0
3 26 355 602 255 124 0
3 93 601 355 255 92 0
3 155 602 601 255 123 0
3 355 601 602 255 113 0
3 99 600 598 255 72 0
3 155 601 600 255 111 0
3 93 598 601 255 78 0
3 600 601 598 255 87 0
3 37 597 589 240 255 0
3 154 603 597 255 226 0
3 153 589 603 255 237 0
3 597 603 589 255 244 0
3 26 602 594 255 147 0
3 155 604 602 255 148 0
3 154 594 604 255 185 0
3 602 604 594 255 160 0
3 29 592 599 255 152 0
3 153 605 592 255 199 0
3 155 599 605 255 149 0
3 592 605 599 255 167 0
3 154 604 603 255 201 0
3 155 605 604 255 163 0
3 153 603 605 255 209 0
3 604 605 603 255 191 0
3 8 520 410 0 255 255
3 141 606 520 0 255 228
3 109 410 606 0 228 255
3 520 606 410 0 255 255
3 39 607 524 0 255 155
3 156 608 607 0 255 220
3 141 524 608 0 255 195
3 607 608 524 0 255 190
3 31 415 610 0 155 255
3 109 609 415 0 195 255
3 156 610 609 0 220 255
3 415 609 610 0 190 255
3 141 608 606 0 255 226
3 156 609 608 0 255 255
3 109 606 609 0 226 255
3 608 609 606 0 255 255
3 6 386 511 104 255 0
3 104 611 386 96 255 0
3 137 511 611 32 255 0
3 386 611 511 76 255 0
3 28 612 390 0 255 4
3 157 613 612 0 255 79
3 104 390 613 77 255 0
3 612 613 390 0 255 4
3 39 515 615 0 255 101
3 137 614 515 0 255 39
3 157 615 614 0 255 95
3 515 614 615 0 255 78
3 104 613 611 54 255 0
3 157 614 613 0 255 59
3 137 611 614 0 255 4
3 613 614 611 0 255 4
3 7 397 377 104 0 255
3 106 616 397 32 0 255
3 100 377 616 96 0 255
3 397 616 377 76 0 255
3 31 617 400 0 101 255
3 158 618 617 0 95 255
3 106 400 618 0 39 255
3 617 618 400 0 78 255
3 28 381 620 0 4 255
3 100 619 381 77 0 255
3 158 620 619 0 79 255
3 381 619 620 0 4 255
3 106 618 616 0 4 255
3 158 619 618 0 59 255
3 100 616 619 54 0 255
3 618 619 616 0 4 255
3 39 615 607 0 255 141
3 157 621 615 0 255 149
3 156 607 621 0 255 215
3 615 621 607 0 255 169
3 28 620 612 0 255 255
3 158 622 620 0 168 255
3 157 612 622 0 255 168
3 620 622 612 0 255 255
3 31 610 617 0 141 255
3 156 623 610 0 215 255
3 158 617 623 0 149 255
3 610 623 617 0 169 255
3 157 622 621 0 255 192
3 158 623 622 0 192 255
3 156 621 623 0 255 255
3 622 623 621 0 255 255
3 9 543 306 0 242 255
3 146 624 543 0 243 255
3 81 306 624 0 207 255
3 543 624 306 0 231 255
3 41 625 546 0 244 255
3 159 626 625 0 211 255
3 146 546 626 0 243 255
3 625 626 546 0 233 255
3 23 311 628 0 142 255
3 81 627 311 0 173 255
3 159 628 627 0 177 255
3 311 627 628 0 164 255
3 146 626 624 0 232 255
3 159 627 626 0 199 255
3 81 624 627 0 197 255
3 626 627 624 0 209 255
3 8 412 535 0 242 255
3 111 629 412 0 207 255
3 143 535 629 0 243 255
3 412 629 535 0 231 255
3 30 630 416 0 142 255
3 160 631 630 0 177 255
3 111 416 631 0 173 255
3 630 631 416 0 164 255
3 41 539 633 0 244 255
3 143 632 539 0 243 255
3 160 633 632 0 211 255
3 539 632 633 0 233 255
3 111 631 629 0 197 255
3 160 632 631 0 199 255
3 143 629 632 0 232 255
3 631 632 629 0 209 255
3 1 293 403 0 25 255
3 78 634 293 0 53 255
3 107 403 634 0 53 255
3 293 634 403 0 43 255
3 23 635 296 0 110 255
3 161 636 635 0 110 255
3 78 296 636 0 81 255
3 635 636 296 0 100 255
3 30 407 638 0 110 255
3 107 637 407 0 81 255
3 161 638 637 0 110 255
3 407 637 638 0 100 255
3 78 636 634 0 72 255
3 161 637 636 0 101 255
3 107 634 637 0 72 255
3 636 637 634 0 81 255
3 41 633 625 0 233 255
3 160 639 633 0 200 255
3 159 625 639 0 200 255
3 633 639 625 0 211 255
3 30 638 630 0 131 255
3 161 640 638 0 131 255
3 160 630 640 0 166 255
3 638 640 630 0 143 255
3 23 628 635 0 131 255
3 159 641 628 0 166 255
3 161 635 641 0 131 255
3 628 641 635 0 143 255
3 160 640 639 0 177 255
3 161 641 640 0 143 255
3 159 639 641 0 177 255
3 640 641 639 0 166 255
