ply
format ascii 1.0
comment https://github.com/mikedh/trimesh
element vertex 256
property float x
property float y
property float z
element face 496
property list uchar int vertex_indices
end_header
-0.07457040 0.00000000 -0.00363760
-0.07665481 0.00000000 -0.00370198
-0.07913157 0.00000000 -0.00403997
-0.08034950 0.00000000 -0.00442624
-0.08082850 0.00000000 -0.00466766
-0.08123694 0.00000000 -0.00494805
-0.08189045 0.00000000 -0.00564610
-0.08232611 0.00000000 -0.00652715
-0.08254395 0.00000000 -0.00759122
-0.08257118 0.00000000 -0.00819189
-0.08248939 0.00000000 -0.00913206
-0.08183508 0.00000000 -0.01070630
-0.08126255 0.00000000 -0.01134037
-0.08054993 0.00000000 -0.01184771
-0.07877486 0.00000000 -0.01242752
-0.07771241 0.00000000 -0.01250000
-0.07695585 0.00000000 -0.01246568
-0.07555815 0.00000000 -0.01219116
-0.07431430 0.00000000 -0.01164212
-0.07322432 0.00000000 -0.01081856
-0.07273703 0.00000000 -0.01030384
-0.07229822 0.00000000 -0.00973222
-0.07159612 0.00000000 -0.00845355
-0.07112806 0.00000000 -0.00699430
-0.07089403 0.00000000 -0.00535447
-0.07086478 0.00000000 -0.00446683
-0.07086478 0.00000000 -0.00363760
-0.07457040 -0.00124385 -0.00363760
-0.07665481 -0.00124385 -0.00370198
-0.07913157 -0.00124385 -0.00403997
-0.08034950 -0.00124385 -0.00442624
-0.08082850 -0.00124385 -0.00466766
-0.08123694 -0.00124385 -0.00494805
-0.08189045 -0.00124385 -0.00564610
-0.08232611 -0.00124385 -0.00652715
-0.08254395 -0.00124385 -0.00759122
-0.08257118 -0.00124385 -0.00819189
-0.08248939 -0.00124385 -0.00913206
-0.08183508 -0.00124385 -0.01070630
-0.08126255 -0.00124385 -0.01134037
-0.08054993 -0.00124385 -0.01184771
-0.07877486 -0.00124385 -0.01242752
-0.07771241 -0.00124385 -0.01250000
-0.07695585 -0.00124385 -0.01246568
-0.07555815 -0.00124385 -0.01219116
-0.07431430 -0.00124385 -0.01164212
-0.07322432 -0.00124385 -0.01081856
-0.07273703 -0.00124385 -0.01030384
-0.07229822 -0.00124385 -0.00973222
-0.07159612 -0.00124385 -0.00845355
-0.07112806 -0.00124385 -0.00699430
-0.07089403 -0.00124385 -0.00535447
-0.07086478 -0.00124385 -0.00446683
-0.07086478 -0.00124385 -0.00363760
0.01005239 0.00000000 -0.00166818
0.01001717 0.00000000 -0.00092458
0.00979366 0.00000000 0.00044721
0.00936609 0.00000000 0.00166514
0.00873445 0.00000000 0.00272921
0.00834211 0.00000000 0.00320355
0.00790735 0.00000000 0.00363173
0.00693640 0.00000000 0.00431682
0.00583022 0.00000000 0.00477354
0.00458881 0.00000000 0.00500190
0.00391738 0.00000000 0.00503045
0.00315780 0.00000000 0.00500292
0.00175523 0.00000000 0.00478265
0.00050815 0.00000000 0.00434212
-0.00058346 0.00000000 0.00368133
-0.00107095 0.00000000 0.00326833
-0.00151422 0.00000000 0.00280533
-0.00225194 0.00000000 0.00174450
-0.00279126 0.00000000 0.00050390
-0.00313219 0.00000000 -0.00091649
-0.00322825 0.00000000 -0.00169409
0.01005239 -0.00124385 -0.00166818
0.01001717 -0.00124385 -0.00092458
0.00979366 -0.00124385 0.00044721
0.00936609 -0.00124385 0.00166514
0.00873445 -0.00124385 0.00272921
0.00834211 -0.00124385 0.00320355
0.00790735 -0.00124385 0.00363173
0.00693640 -0.00124385 0.00431682
0.00583022 -0.00124385 0.00477354
0.00458881 -0.00124385 0.00500190
0.00391738 -0.00124385 0.00503045
0.00315780 -0.00124385 0.00500292
0.00175523 -0.00124385 0.00478265
0.00050815 -0.00124385 0.00434212
-0.00058346 -0.00124385 0.00368133
-0.00107095 -0.00124385 0.00326833
-0.00151422 -0.00124385 0.00280533
-0.00225194 -0.00124385 0.00174450
-0.00279126 -0.00124385 0.00050390
-0.00313219 -0.00124385 -0.00091649
-0.00322825 -0.00124385 -0.00169409
0.03480946 0.00000000 -0.00343029
0.03478334 0.00000000 -0.00244659
0.03457441 0.00000000 -0.00065047
0.03415656 0.00000000 0.00091730
0.03352978 0.00000000 0.00225670
0.03313804 0.00000000 0.00284076
0.03270065 0.00000000 0.00336308
0.03169893 0.00000000 0.00419879
0.03052797 0.00000000 0.00475593
0.02918776 0.00000000 0.00503450
0.02845418 0.00000000 0.00506932
0.02772658 0.00000000 0.00503450
0.02639528 0.00000000 0.00475593
0.02522917 0.00000000 0.00419879
0.02422827 0.00000000 0.00336308
0.02378976 0.00000000 0.00284076
0.02339802 0.00000000 0.00225670
0.02277124 0.00000000 0.00091730
0.02235339 0.00000000 -0.00065047
0.02214446 0.00000000 -0.00244659
0.02211834 0.00000000 -0.00343029
0.02214446 0.00000000 -0.00440954
0.02235339 0.00000000 -0.00619919
0.02277124 0.00000000 -0.00776371
0.02339802 0.00000000 -0.00910311
0.02378976 0.00000000 -0.00968839
0.02422827 0.00000000 -0.01021071
0.02522917 0.00000000 -0.01104642
0.02639528 0.00000000 -0.01160356
0.02772658 0.00000000 -0.01188213
0.02845418 0.00000000 -0.01191695
0.02918776 0.00000000 -0.01188213
0.03052797 0.00000000 -0.01160356
0.03169893 0.00000000 -0.01104642
0.03270065 0.00000000 -0.01021071
0.03313804 0.00000000 -0.00968839
0.03352978 0.00000000 -0.00910311
0.03415656 0.00000000 -0.00776371
0.03457441 0.00000000 -0.00619919
0.03478334 0.00000000 -0.00440954
0.03480946 -0.00124385 -0.00343029
0.03478334 -0.00124385 -0.00244659
0.03457441 -0.00124385 -0.00065047
0.03415656 -0.00124385 0.00091730
0.03352978 -0.00124385 0.00225670
0.03313804 -0.00124385 0.00284076
0.03270065 -0.00124385 0.00336308
0.03169893 -0.00124385 0.00419879
0.03052797 -0.00124385 0.00475593
0.02918776 -0.00124385 0.00503450
0.02845418 -0.00124385 0.00506932
0.02772658 -0.00124385 0.00503450
0.02639528 -0.00124385 0.00475593
0.02522917 -0.00124385 0.00419879
0.02422827 -0.00124385 0.00336308
0.02378976 -0.00124385 0.00284076
0.02339802 -0.00124385 0.00225670
0.02277124 -0.00124385 0.00091730
0.02235339 -0.00124385 -0.00065047
0.02214446 -0.00124385 -0.00244659
0.02211834 -0.00124385 -0.00343029
0.02214446 -0.00124385 -0.00440954
0.02235339 -0.00124385 -0.00619919
0.02277124 -0.00124385 -0.00776371
0.02339802 -0.00124385 -0.00910311
0.02378976 -0.00124385 -0.00968839
0.02422827 -0.00124385 -0.01021071
0.02522917 -0.00124385 -0.01104642
0.02639528 -0.00124385 -0.01160356
0.02772658 -0.00124385 -0.01188213
0.02845418 -0.00124385 -0.01191695
0.02918776 -0.00124385 -0.01188213
0.03052797 -0.00124385 -0.01160356
0.03169893 -0.00124385 -0.01104642
0.03270065 -0.00124385 -0.01021071
0.03313804 -0.00124385 -0.00968839
0.03352978 -0.00124385 -0.00910311
0.03415656 -0.00124385 -0.00776371
0.03457441 -0.00124385 -0.00619919
0.03478334 -0.00124385 -0.00440954
0.07620943 0.00000000 0.01250000
0.07544509 0.00000000 0.01245141
0.07406276 0.00000000 0.01206271
0.07287560 0.00000000 0.01128531
0.07188360 0.00000000 0.01011920
0.07146079 0.00000000 0.00939039
0.07108879 0.00000000 0.00856561
0.07049359 0.00000000 0.00662210
0.07009679 0.00000000 0.00428665
0.06989839 0.00000000 0.00155926
0.06987359 0.00000000 0.00004859
0.06989839 0.00000000 -0.00145611
0.07009679 0.00000000 -0.00417460
0.07049359 0.00000000 -0.00650519
0.07108879 0.00000000 -0.00844789
0.07146079 0.00000000 -0.00927378
0.07188360 0.00000000 -0.01000259
0.07287560 0.00000000 -0.01116870
0.07406276 0.00000000 -0.01194610
0.07544509 0.00000000 -0.01233480
0.07620943 0.00000000 -0.01238339
0.07697975 0.00000000 -0.01233480
0.07837097 0.00000000 -0.01194610
0.07956299 0.00000000 -0.01116870
0.08055580 0.00000000 -0.01000259
0.08097751 0.00000000 -0.00927378
0.08135102 0.00000000 -0.00844789
0.08194865 0.00000000 -0.00650519
0.08234707 0.00000000 -0.00417460
0.08254628 0.00000000 -0.00145611
0.08257118 0.00000000 0.00004859
0.08254628 0.00000000 0.00155926
0.08234707 0.00000000 0.00428665
0.08194865 0.00000000 0.00662210
0.08135102 0.00000000 0.00856561
0.08097751 0.00000000 0.00939039
0.08055580 0.00000000 0.01011920
0.07956299 0.00000000 0.01128531
0.07837097 0.00000000 0.01206271
0.07697975 0.00000000 0.01245141
0.07620943 -0.00124385 0.01250000
0.07544509 -0.00124385 0.01245141
0.07406276 -0.00124385 0.01206271
0.07287560 -0.00124385 0.01128531
0.07188360 -0.00124385 0.01011920
0.07146079 -0.00124385 0.00939039
0.07108879 -0.00124385 0.00856561
0.07049359 -0.00124385 0.00662210
0.07009679 -0.00124385 0.00428665
0.06989839 -0.00124385 0.00155926
0.06987359 -0.00124385 0.00004859
0.06989839 -0.00124385 -0.00145611
0.07009679 -0.00124385 -0.00417460
0.07049359 -0.00124385 -0.00650519
0.07108879 -0.00124385 -0.00844789
0.07146079 -0.00124385 -0.00927378
0.07188360 -0.00124385 -0.01000259
0.07287560 -0.00124385 -0.01116870
0.07406276 -0.00124385 -0.01194610
0.07544509 -0.00124385 -0.01233480
0.07620943 -0.00124385 -0.01238339
0.07697975 -0.00124385 -0.01233480
0.07837097 -0.00124385 -0.01194610
0.07956299 -0.00124385 -0.01116870
0.08055580 -0.00124385 -0.01000259
0.08097751 -0.00124385 -0.00927378
0.08135102 -0.00124385 -0.00844789
0.08194865 -0.00124385 -0.00650519
0.08234707 -0.00124385 -0.00417460
0.08254628 -0.00124385 -0.00145611
0.08257118 -0.00124385 0.00004859
0.08254628 -0.00124385 0.00155926
0.08234707 -0.00124385 0.00428665
0.08194865 -0.00124385 0.00662210
0.08135102 -0.00124385 0.00856561
0.08097751 -0.00124385 0.00939039
0.08055580 -0.00124385 0.01011920
0.07956299 -0.00124385 0.01128531
0.07837097 -0.00124385 0.01206271
0.07697975 -0.00124385 0.01245141
3 1 0 26
3 3 2 1
3 5 4 3
3 7 6 5
3 9 8 7
3 11 10 9
3 13 12 11
3 15 14 13
3 17 16 15
3 19 18 17
3 21 20 19
3 23 22 21
3 25 24 23
3 1 26 25
3 5 3 1
3 9 7 5
3 13 11 9
3 17 15 13
3 21 19 17
3 25 23 21
3 5 1 25
3 13 9 5
3 21 17 13
3 5 25 21
3 21 13 5
3 53 27 28
3 28 29 30
3 30 31 32
3 32 33 34
3 34 35 36
3 36 37 38
3 38 39 40
3 40 41 42
3 42 43 44
3 44 45 46
3 46 47 48
3 48 49 50
3 50 51 52
3 52 53 28
3 28 30 32
3 32 34 36
3 36 38 40
3 40 42 44
3 44 46 48
3 48 50 52
3 52 28 32
3 32 36 40
3 40 44 48
3 48 52 32
3 32 40 48
3 28 27 1
3 1 27 0
3 29 28 2
3 2 28 1
3 30 29 3
3 3 29 2
3 31 30 4
3 4 30 3
3 32 31 5
3 5 31 4
3 33 32 6
3 6 32 5
3 34 33 7
3 7 33 6
3 35 34 8
3 8 34 7
3 36 35 9
3 9 35 8
3 37 36 10
3 10 36 9
3 38 37 11
3 11 37 10
3 39 38 12
3 12 38 11
3 40 39 13
3 13 39 12
3 41 40 14
3 14 40 13
3 42 41 15
3 15 41 14
3 43 42 16
3 16 42 15
3 44 43 17
3 17 43 16
3 45 44 18
3 18 44 17
3 46 45 19
3 19 45 18
3 47 46 20
3 20 46 19
3 48 47 21
3 21 47 20
3 49 48 22
3 22 48 21
3 50 49 23
3 23 49 22
3 51 50 24
3 24 50 23
3 52 51 25
3 25 51 24
3 27 53 0
3 0 53 26
3 53 52 26
3 26 52 25
3 55 54 74
3 57 56 55
3 59 58 57
3 61 60 59
3 63 62 61
3 65 64 63
3 67 66 65
3 69 68 67
3 71 70 69
3 73 72 71
3 55 74 73
3 59 57 55
3 63 61 59
3 67 65 63
3 71 69 67
3 55 73 71
3 63 59 55
3 71 67 63
3 63 55 71
3 95 75 76
3 76 77 78
3 78 79 80
3 80 81 82
3 82 83 84
3 84 85 86
3 86 87 88
3 88 89 90
3 90 91 92
3 92 93 94
3 94 95 76
3 76 78 80
3 80 82 84
3 84 86 88
3 88 90 92
3 92 94 76
3 76 80 84
3 84 88 92
3 92 76 84
3 76 75 55
3 55 75 54
3 77 76 56
3 56 76 55
3 78 77 57
3 57 77 56
3 79 78 58
3 58 78 57
3 80 79 59
3 59 79 58
3 81 80 60
3 60 80 59
3 82 81 61
3 61 81 60
3 83 82 62
3 62 82 61
3 84 83 63
3 63 83 62
3 85 84 64
3 64 84 63
3 86 85 65
3 65 85 64
3 87 86 66
3 66 86 65
3 88 87 67
3 67 87 66
3 89 88 68
3 68 88 67
3 90 89 69
3 69 89 68
3 91 90 70
3 70 90 69
3 92 91 71
3 71 91 70
3 93 92 72
3 72 92 71
3 94 93 73
3 73 93 72
3 75 95 54
3 54 95 74
3 95 94 74
3 74 94 73
3 97 96 135
3 99 98 97
3 101 100 99
3 103 102 101
3 105 104 103
3 107 106 105
3 109 108 107
3 111 110 109
3 113 112 111
3 115 114 113
3 117 116 115
3 119 118 117
3 121 120 119
3 123 122 121
3 125 124 123
3 127 126 125
3 129 128 127
3 131 130 129
3 133 132 131
3 135 134 133
3 99 97 135
3 103 101 99
3 107 105 103
3 111 109 107
3 115 113 111
3 119 117 115
3 123 121 119
3 127 125 123
3 131 129 127
3 135 133 131
3 103 99 135
3 111 107 103
3 119 115 111
3 127 123 119
3 135 131 127
3 111 103 135
3 127 119 111
3 111 135 127
3 175 136 137
3 137 138 139
3 139 140 141
3 141 142 143
3 143 144 145
3 145 146 147
3 147 148 149
3 149 150 151
3 151 152 153
3 153 154 155
3 155 156 157
3 157 158 159
3 159 160 161
3 161 162 163
3 163 164 165
3 165 166 167
3 167 168 169
3 169 170 171
3 171 172 173
3 173 174 175
3 175 137 139
3 139 141 143
3 143 145 147
3 147 149 151
3 151 153 155
3 155 157 159
3 159 161 163
3 163 165 167
3 167 169 171
3 171 173 175
3 175 139 143
3 143 147 151
3 151 155 159
3 159 163 167
3 167 171 175
3 175 143 151
3 151 159 167
3 167 175 151
3 137 136 97
3 97 136 96
3 138 137 98
3 98 137 97
3 139 138 99
3 99 138 98
3 140 139 100
3 100 139 99
3 141 140 101
3 101 140 100
3 142 141 102
3 102 141 101
3 143 142 103
3 103 142 102
3 144 143 104
3 104 143 103
3 145 144 105
3 105 144 104
3 146 145 106
3 106 145 105
3 147 146 107
3 107 146 106
3 148 147 108
3 108 147 107
3 149 148 109
3 109 148 108
3 150 149 110
3 110 149 109
3 151 150 111
3 111 150 110
3 152 151 112
3 112 151 111
3 153 152 113
3 113 152 112
3 154 153 114
3 114 153 113
3 155 154 115
3 115 154 114
3 156 155 116
3 116 155 115
3 157 156 117
3 117 156 116
3 158 157 118
3 118 157 117
3 159 158 119
3 119 158 118
3 160 159 120
3 120 159 119
3 161 160 121
3 121 160 120
3 162 161 122
3 122 161 121
3 163 162 123
3 123 162 122
3 164 163 124
3 124 163 123
3 165 164 125
3 125 164 124
3 166 165 126
3 126 165 125
3 167 166 127
3 127 166 126
3 168 167 128
3 128 167 127
3 169 168 129
3 129 168 128
3 170 169 130
3 130 169 129
3 171 170 131
3 131 170 130
3 172 171 132
3 132 171 131
3 173 172 133
3 133 172 132
3 174 173 134
3 134 173 133
3 136 175 96
3 96 175 135
3 175 174 135
3 135 174 134
3 177 176 215
3 179 178 177
3 181 180 179
3 183 182 181
3 185 184 183
3 187 186 185
3 189 188 187
3 191 190 189
3 193 192 191
3 195 194 193
3 197 196 195
3 199 198 197
3 201 200 199
3 203 202 201
3 205 204 203
3 207 206 205
3 209 208 207
3 211 210 209
3 213 212 211
3 215 214 213
3 179 177 215
3 183 181 179
3 187 185 183
3 191 189 187
3 195 193 191
3 199 197 195
3 203 201 199
3 207 205 203
3 211 209 207
3 215 213 211
3 183 179 215
3 191 187 183
3 199 195 191
3 207 203 199
3 215 211 207
3 191 183 215
3 207 199 191
3 191 215 207
3 255 216 217
3 217 218 219
3 219 220 221
3 221 222 223
3 223 224 225
3 225 226 227
3 227 228 229
3 229 230 231
3 231 232 233
3 233 234 235
3 235 236 237
3 237 238 239
3 239 240 241
3 241 242 243
3 243 244 245
3 245 246 247
3 247 248 249
3 249 250 251
3 251 252 253
3 253 254 255
3 255 217 219
3 219 221 223
3 223 225 227
3 227 229 231
3 231 233 235
3 235 237 239
3 239 241 243
3 243 245 247
3 247 249 251
3 251 253 255
3 255 219 223
3 223 227 231
3 231 235 239
3 239 243 247
3 247 251 255
3 255 223 231
3 231 239 247
3 247 255 231
3 217 216 177
3 177 216 176
3 218 217 178
3 178 217 177
3 219 218 179
3 179 218 178
3 220 219 180
3 180 219 179
3 221 220 181
3 181 220 180
3 222 221 182
3 182 221 181
3 223 222 183
3 183 222 182
3 224 223 184
3 184 223 183
3 225 224 185
3 185 224 184
3 226 225 186
3 186 225 185
3 227 226 187
3 187 226 186
3 228 227 188
3 188 227 187
3 229 228 189
3 189 228 188
3 230 229 190
3 190 229 189
3 231 230 191
3 191 230 190
3 232 231 192
3 192 231 191
3 233 232 193
3 193 232 192
3 234 233 194
3 194 233 193
3 235 234 195
3 195 234 194
3 236 235 196
3 196 235 195
3 237 236 197
3 197 236 196
3 238 237 198
3 198 237 197
3 239 238 199
3 199 238 198
3 240 239 200
3 200 239 199
3 241 240 201
3 201 240 200
3 242 241 202
3 202 241 201
3 243 242 203
3 203 242 202
3 244 243 204
3 204 243 203
3 245 244 205
3 205 244 204
3 246 245 206
3 206 245 205
3 247 246 207
3 207 246 206
3 248 247 208
3 208 247 207
3 249 248 209
3 209 248 208
3 250 249 210
3 210 249 209
3 251 250 211
3 211 250 210
3 252 251 212
3 212 251 211
3 253 252 213
3 213 252 212
3 254 253 214
3 214 253 213
3 216 255 176
3 176 255 215
3 255 254 215
3 215 254 214
