ply
format ascii 1.0
comment https://github.com/mikedh/trimesh
element vertex 538
property float x
property float y
property float z
element face 1044
property list uchar int vertex_indices
end_header
-0.25060496 0.00000000 0.00000000
-0.25056735 0.00000000 -0.00142178
-0.25026661 0.00000000 -0.00402940
-0.24966511 0.00000000 -0.00632245
-0.24876288 0.00000000 -0.00830093
-0.24819897 0.00000000 -0.00917220
-0.24756940 0.00000000 -0.00995215
-0.24614172 0.00000000 -0.01120008
-0.24448934 0.00000000 -0.01203203
-0.24261226 0.00000000 -0.01244800
-0.24158946 0.00000000 -0.01250000
-0.24056652 0.00000000 -0.01244800
-0.23868829 0.00000000 -0.01203203
-0.23703361 0.00000000 -0.01120008
-0.23560247 0.00000000 -0.00995215
-0.23497073 0.00000000 -0.00917220
-0.23440251 0.00000000 -0.00830093
-0.23349336 0.00000000 -0.00632245
-0.23288725 0.00000000 -0.00402940
-0.23258421 0.00000000 -0.00142178
-0.23254631 0.00000000 0.00000000
-0.23258421 0.00000000 0.00142178
-0.23288725 0.00000000 0.00402940
-0.23349336 0.00000000 0.00632245
-0.23440251 0.00000000 0.00830093
-0.23497073 0.00000000 0.00917220
-0.23560247 0.00000000 0.00995215
-0.23703361 0.00000000 0.01120008
-0.23868829 0.00000000 0.01203203
-0.24056652 0.00000000 0.01244800
-0.24158946 0.00000000 0.01250000
-0.24261226 0.00000000 0.01244800
-0.24448934 0.00000000 0.01203203
-0.24614172 0.00000000 0.01120008
-0.24756940 0.00000000 0.00995215
-0.24819897 0.00000000 0.00917220
-0.24876288 0.00000000 0.00830093
-0.24966511 0.00000000 0.00632245
-0.25026661 0.00000000 0.00402940
-0.25056735 0.00000000 0.00142178
-0.25060496 -0.00176991 0.00000000
-0.25056735 -0.00176991 -0.00142178
-0.25026661 -0.00176991 -0.00402940
-0.24966511 -0.00176991 -0.00632245
-0.24876288 -0.00176991 -0.00830093
-0.24819897 -0.00176991 -0.00917220
-0.24756940 -0.00176991 -0.00995215
-0.24614172 -0.00176991 -0.01120008
-0.24448934 -0.00176991 -0.01203203
-0.24261226 -0.00176991 -0.01244800
-0.24158946 -0.00176991 -0.01250000
-0.24056652 -0.00176991 -0.01244800
-0.23868829 -0.00176991 -0.01203203
-0.23703361 -0.00176991 -0.01120008
-0.23560247 -0.00176991 -0.00995215
-0.23497073 -0.00176991 -0.00917220
-0.23440251 -0.00176991 -0.00830093
-0.23349336 -0.00176991 -0.00632245
-0.23288725 -0.00176991 -0.00402940
-0.23258421 -0.00176991 -0.00142178
-0.23254631 -0.00176991 0.00000000
-0.23258421 -0.00176991 0.00142178
-0.23288725 -0.00176991 0.00402940
-0.23349336 -0.00176991 0.00632245
-0.23440251 -0.00176991 0.00830093
-0.23497073 -0.00176991 0.00917220
-0.23560247 -0.00176991 0.00995215
-0.23703361 -0.00176991 0.01120008
-0.23868829 -0.00176991 0.01203203
-0.24056652 -0.00176991 0.01244800
-0.24158946 -0.00176991 0.01250000
-0.24261226 -0.00176991 0.01244800
-0.24448934 -0.00176991 0.01203203
-0.24614172 -0.00176991 0.01120008
-0.24756940 -0.00176991 0.00995215
-0.24819897 -0.00176991 0.00917220
-0.24876288 -0.00176991 0.00830093
-0.24966511 -0.00176991 0.00632245
-0.25026661 -0.00176991 0.00402940
-0.25056735 -0.00176991 0.00142178
-0.19402771 0.00000000 0.00291298
-0.19407782 0.00000000 0.00397107
-0.19439586 0.00000000 0.00592304
-0.19500427 0.00000000 0.00765608
-0.19590305 0.00000000 0.00917018
-0.19646133 0.00000000 0.00984513
-0.19707996 0.00000000 0.01045440
-0.19846155 0.00000000 0.01142924
-0.20003557 0.00000000 0.01207913
-0.20180203 0.00000000 0.01240407
-0.20275742 0.00000000 0.01244469
-0.20383826 0.00000000 0.01240551
-0.20583403 0.00000000 0.01209209
-0.20760855 0.00000000 0.01146525
-0.20916183 0.00000000 0.01052498
-0.20985550 0.00000000 0.00993732
-0.21048623 0.00000000 0.00927850
-0.21153598 0.00000000 0.00776900
-0.21230339 0.00000000 0.00600370
-0.21278851 0.00000000 0.00398259
-0.21292520 0.00000000 0.00287611
-0.19402771 -0.00176991 0.00291298
-0.19407782 -0.00176991 0.00397107
-0.19439586 -0.00176991 0.00592304
-0.19500427 -0.00176991 0.00765608
-0.19590305 -0.00176991 0.00917018
-0.19646133 -0.00176991 0.00984513
-0.19707996 -0.00176991 0.01045440
-0.19846155 -0.00176991 0.01142924
-0.20003557 -0.00176991 0.01207913
-0.20180203 -0.00176991 0.01240407
-0.20275742 -0.00176991 0.01244469
-0.20383826 -0.00176991 0.01240551
-0.20583403 -0.00176991 0.01209209
-0.20760855 -0.00176991 0.01146525
-0.20916183 -0.00176991 0.01052498
-0.20985550 -0.00176991 0.00993732
-0.21048623 -0.00176991 0.00927850
-0.21153598 -0.00176991 0.00776900
-0.21230339 -0.00176991 0.00600370
-0.21278851 -0.00176991 0.00398259
-0.21292520 -0.00176991 0.00287611
-0.11005946 0.00000000 0.01244469
-0.11109637 0.00000000 0.01239269
-0.11300340 0.00000000 0.01197672
-0.11468805 0.00000000 0.01114477
-0.11615030 0.00000000 0.00989684
-0.11679803 0.00000000 0.00911689
-0.11737921 0.00000000 0.00824648
-0.11830910 0.00000000 0.00627492
-0.11892904 0.00000000 0.00399570
-0.11923900 0.00000000 0.00140881
-0.11927775 0.00000000 0.00000000
-0.11923929 0.00000000 -0.00140881
-0.11893163 0.00000000 -0.00399570
-0.11831631 0.00000000 -0.00627492
-0.11739333 0.00000000 -0.00824648
-0.11681646 0.00000000 -0.00911689
-0.11617047 0.00000000 -0.00989684
-0.11470821 0.00000000 -0.01114477
-0.11301896 0.00000000 -0.01197672
-0.11110271 0.00000000 -0.01239269
-0.11005946 0.00000000 -0.01244469
-0.10902701 0.00000000 -0.01239255
-0.10712804 0.00000000 -0.01197542
-0.10545031 0.00000000 -0.01114117
-0.10399383 0.00000000 -0.00988978
-0.10334855 0.00000000 -0.00910767
-0.10276736 0.00000000 -0.00823337
-0.10183746 0.00000000 -0.00625835
-0.10121753 0.00000000 -0.00398144
-0.10090757 0.00000000 -0.00140262
-0.10086882 0.00000000 0.00000000
-0.10090757 0.00000000 0.00139628
-0.10121753 0.00000000 0.00396588
-0.10183746 0.00000000 0.00623819
-0.10276736 0.00000000 0.00821321
-0.10334855 0.00000000 0.00908923
-0.10399383 0.00000000 0.00987567
-0.10545031 0.00000000 0.01113397
-0.10712804 0.00000000 0.01197283
-0.10902701 0.00000000 0.01239226
-0.11005946 -0.00176991 0.01244469
-0.11109637 -0.00176991 0.01239269
-0.11300340 -0.00176991 0.01197672
-0.11468805 -0.00176991 0.01114477
-0.11615030 -0.00176991 0.00989684
-0.11679803 -0.00176991 0.00911689
-0.11737921 -0.00176991 0.00824648
-0.11830910 -0.00176991 0.00627492
-0.11892904 -0.00176991 0.00399570
-0.11923900 -0.00176991 0.00140881
-0.11927775 -0.00176991 0.00000000
-0.11923929 -0.00176991 -0.00140881
-0.11893163 -0.00176991 -0.00399570
-0.11831631 -0.00176991 -0.00627492
-0.11739333 -0.00176991 -0.00824648
-0.11681646 -0.00176991 -0.00911689
-0.11617047 -0.00176991 -0.00989684
-0.11470821 -0.00176991 -0.01114477
-0.11301896 -0.00176991 -0.01197672
-0.11110271 -0.00176991 -0.01239269
-0.11005946 -0.00176991 -0.01244469
-0.10902701 -0.00176991 -0.01239255
-0.10712804 -0.00176991 -0.01197542
-0.10545031 -0.00176991 -0.01114117
-0.10399383 -0.00176991 -0.00988978
-0.10334855 -0.00176991 -0.00910767
-0.10276736 -0.00176991 -0.00823337
-0.10183746 -0.00176991 -0.00625835
-0.10121753 -0.00176991 -0.00398144
-0.10090757 -0.00176991 -0.00140262
-0.10086882 -0.00176991 0.00000000
-0.10090757 -0.00176991 0.00139628
-0.10121753 -0.00176991 0.00396588
-0.10183746 -0.00176991 0.00623819
-0.10276736 -0.00176991 0.00821321
-0.10334855 -0.00176991 0.00908923
-0.10399383 -0.00176991 0.00987567
-0.10545031 -0.00176991 0.01113397
-0.10712804 -0.00176991 0.01197283
-0.10902701 -0.00176991 0.01239226
0.00436256 0.00000000 0.01244469
0.00332564 0.00000000 0.01239269
0.00141861 0.00000000 0.01197672
-0.00026603 0.00000000 0.01114477
-0.00172829 0.00000000 0.00989684
-0.00237601 0.00000000 0.00911689
-0.00295720 0.00000000 0.00824648
-0.00388709 0.00000000 0.00627492
-0.00450702 0.00000000 0.00399570
-0.00481699 0.00000000 0.00140881
-0.00485573 0.00000000 0.00000000
-0.00481728 0.00000000 -0.00140881
-0.00450962 0.00000000 -0.00399570
-0.00389430 0.00000000 -0.00627492
-0.00297131 0.00000000 -0.00824648
-0.00239445 0.00000000 -0.00911689
-0.00174845 0.00000000 -0.00989684
-0.00028620 0.00000000 -0.01114477
0.00140305 0.00000000 -0.01197672
0.00331930 0.00000000 -0.01239269
0.00436256 0.00000000 -0.01244469
0.00539500 0.00000000 -0.01239255
0.00729397 0.00000000 -0.01197542
0.00897170 0.00000000 -0.01114117
0.01042819 0.00000000 -0.00988978
0.01107347 0.00000000 -0.00910767
0.01165465 0.00000000 -0.00823337
0.01258455 0.00000000 -0.00625835
0.01320448 0.00000000 -0.00398144
0.01351444 0.00000000 -0.00140262
0.01355319 0.00000000 0.00000000
0.01351444 0.00000000 0.00139628
0.01320448 0.00000000 0.00396588
0.01258455 0.00000000 0.00623819
0.01165465 0.00000000 0.00821321
0.01107347 0.00000000 0.00908923
0.01042819 0.00000000 0.00987567
0.00897170 0.00000000 0.01113397
0.00729397 0.00000000 0.01197283
0.00539500 0.00000000 0.01239226
0.00436256 -0.00176991 0.01244469
0.00332564 -0.00176991 0.01239269
0.00141861 -0.00176991 0.01197672
-0.00026603 -0.00176991 0.01114477
-0.00172829 -0.00176991 0.00989684
-0.00237601 -0.00176991 0.00911689
-0.00295720 -0.00176991 0.00824648
-0.00388709 -0.00176991 0.00627492
-0.00450702 -0.00176991 0.00399570
-0.00481699 -0.00176991 0.00140881
-0.00485573 -0.00176991 0.00000000
-0.00481728 -0.00176991 -0.00140881
-0.00450962 -0.00176991 -0.00399570
-0.00389430 -0.00176991 -0.00627492
-0.00297131 -0.00176991 -0.00824648
-0.00239445 -0.00176991 -0.00911689
-0.00174845 -0.00176991 -0.00989684
-0.00028620 -0.00176991 -0.01114477
0.00140305 -0.00176991 -0.01197672
0.00331930 -0.00176991 -0.01239269
0.00436256 -0.00176991 -0.01244469
0.00539500 -0.00176991 -0.01239255
0.00729397 -0.00176991 -0.01197542
0.00897170 -0.00176991 -0.01114117
0.01042819 -0.00176991 -0.00988978
0.01107347 -0.00176991 -0.00910767
0.01165465 -0.00176991 -0.00823337
0.01258455 -0.00176991 -0.00625835
0.01320448 -0.00176991 -0.00398144
0.01351444 -0.00176991 -0.00140262
0.01355319 -0.00176991 0.00000000
0.01351444 -0.00176991 0.00139628
0.01320448 -0.00176991 0.00396588
0.01258455 -0.00176991 0.00623819
0.01165465 -0.00176991 0.00821321
0.01107347 -0.00176991 0.00908923
0.01042819 -0.00176991 0.00987567
0.00897170 -0.00176991 0.01113397
0.00729397 -0.00176991 0.01197283
0.00539500 -0.00176991 0.01239226
0.07336145 0.00000000 0.00011062
0.07039546 0.00000000 0.00001901
0.06687120 0.00000000 -0.00046192
0.06513816 0.00000000 -0.00101156
0.06445658 0.00000000 -0.00135509
0.06387540 0.00000000 -0.00175407
0.06294550 0.00000000 -0.00274734
0.06232557 0.00000000 -0.00400103
0.06201561 0.00000000 -0.00551513
0.06197686 0.00000000 -0.00636984
0.06209324 0.00000000 -0.00770764
0.06302429 0.00000000 -0.00994769
0.06383896 0.00000000 -0.01084993
0.06485297 0.00000000 -0.01157183
0.06737878 0.00000000 -0.01239687
0.06889058 0.00000000 -0.01250000
0.06996710 0.00000000 -0.01245117
0.07195595 0.00000000 -0.01206055
0.07372586 0.00000000 -0.01127930
0.07527684 0.00000000 -0.01010742
0.07597023 0.00000000 -0.00937500
0.07659462 0.00000000 -0.00856163
0.07759365 0.00000000 -0.00674217
0.07825968 0.00000000 -0.00466575
0.07859269 0.00000000 -0.00233237
0.07863431 0.00000000 -0.00106932
0.07863431 0.00000000 0.00011062
0.07336145 -0.00176991 0.00011062
0.07039546 -0.00176991 0.00001901
0.06687120 -0.00176991 -0.00046192
0.06513816 -0.00176991 -0.00101156
0.06445658 -0.00176991 -0.00135509
0.06387540 -0.00176991 -0.00175407
0.06294550 -0.00176991 -0.00274734
0.06232557 -0.00176991 -0.00400103
0.06201561 -0.00176991 -0.00551513
0.06197686 -0.00176991 -0.00636984
0.06209324 -0.00176991 -0.00770764
0.06302429 -0.00176991 -0.00994769
0.06383896 -0.00176991 -0.01084993
0.06485297 -0.00176991 -0.01157183
0.06737878 -0.00176991 -0.01239687
0.06889058 -0.00176991 -0.01250000
0.06996710 -0.00176991 -0.01245117
0.07195595 -0.00176991 -0.01206055
0.07372586 -0.00176991 -0.01127930
0.07527684 -0.00176991 -0.01010742
0.07597023 -0.00176991 -0.00937500
0.07659462 -0.00176991 -0.00856163
0.07759365 -0.00176991 -0.00674217
0.07825968 -0.00176991 -0.00466575
0.07859269 -0.00176991 -0.00233237
0.07863431 -0.00176991 -0.00106932
0.07863431 -0.00176991 0.00011062
0.15453885 0.00000000 0.00291298
0.15448873 0.00000000 0.00397107
0.15417071 0.00000000 0.00592304
0.15356229 0.00000000 0.00765608
0.15266351 0.00000000 0.00917018
0.15210523 0.00000000 0.00984513
0.15148659 0.00000000 0.01045440
0.15010500 0.00000000 0.01142924
0.14853097 0.00000000 0.01207913
0.14676453 0.00000000 0.01240407
0.14580913 0.00000000 0.01244469
0.14472829 0.00000000 0.01240551
0.14273253 0.00000000 0.01209209
0.14095801 0.00000000 0.01146525
0.13940473 0.00000000 0.01052498
0.13871105 0.00000000 0.00993732
0.13808031 0.00000000 0.00927850
0.13703059 0.00000000 0.00776900
0.13626316 0.00000000 0.00600370
0.13577805 0.00000000 0.00398259
0.13564137 0.00000000 0.00287611
0.15453885 -0.00176991 0.00291298
0.15448873 -0.00176991 0.00397107
0.15417071 -0.00176991 0.00592304
0.15356229 -0.00176991 0.00765608
0.15266351 -0.00176991 0.00917018
0.15210523 -0.00176991 0.00984513
0.15148659 -0.00176991 0.01045440
0.15010500 -0.00176991 0.01142924
0.14853097 -0.00176991 0.01207913
0.14676453 -0.00176991 0.01240407
0.14580913 -0.00176991 0.01244469
0.14472829 -0.00176991 0.01240551
0.14273253 -0.00176991 0.01209209
0.14095801 -0.00176991 0.01146525
0.13940473 -0.00176991 0.01052498
0.13871105 -0.00176991 0.00993732
0.13808031 -0.00176991 0.00927850
0.13703059 -0.00176991 0.00776900
0.13626316 -0.00176991 0.00600370
0.13577805 -0.00176991 0.00398259
0.13564137 -0.00176991 0.00287611
0.17170791 0.00000000 0.00000000
0.17174551 0.00000000 -0.00142178
0.17204626 0.00000000 -0.00402940
0.17264776 0.00000000 -0.00632245
0.17354999 0.00000000 -0.00830093
0.17411388 0.00000000 -0.00917220
0.17474347 0.00000000 -0.00995215
0.17617115 0.00000000 -0.01120008
0.17782353 0.00000000 -0.01203203
0.17970061 0.00000000 -0.01244800
0.18072340 0.00000000 -0.01250000
0.18174635 0.00000000 -0.01244800
0.18362458 0.00000000 -0.01203203
0.18527925 0.00000000 -0.01120008
0.18671040 0.00000000 -0.00995215
0.18734214 0.00000000 -0.00917220
0.18791036 0.00000000 -0.00830093
0.18881951 0.00000000 -0.00632245
0.18942562 0.00000000 -0.00402940
0.18972866 0.00000000 -0.00142178
0.18976654 0.00000000 0.00000000
0.18972866 0.00000000 0.00142178
0.18942562 0.00000000 0.00402940
0.18881951 0.00000000 0.00632245
0.18791036 0.00000000 0.00830093
0.18734214 0.00000000 0.00917220
0.18671040 0.00000000 0.00995215
0.18527925 0.00000000 0.01120008
0.18362458 0.00000000 0.01203203
0.18174635 0.00000000 0.01244800
0.18072340 0.00000000 0.01250000
0.17970061 0.00000000 0.01244800
0.17782353 0.00000000 0.01203203
0.17617115 0.00000000 0.01120008
0.17474347 0.00000000 0.00995215
0.17411388 0.00000000 0.00917220
0.17354999 0.00000000 0.00830093
0.17264776 0.00000000 0.00632245
0.17204626 0.00000000 0.00402940
0.17174551 0.00000000 0.00142178
0.17170791 -0.00176991 0.00000000
0.17174551 -0.00176991 -0.00142178
0.17204626 -0.00176991 -0.00402940
0.17264776 -0.00176991 -0.00632245
0.17354999 -0.00176991 -0.00830093
0.17411388 -0.00176991 -0.00917220
0.17474347 -0.00176991 -0.00995215
0.17617115 -0.00176991 -0.01120008
0.17782353 -0.00176991 -0.01203203
0.17970061 -0.00176991 -0.01244800
0.18072340 -0.00176991 -0.01250000
0.18174635 -0.00176991 -0.01244800
0.18362458 -0.00176991 -0.01203203
0.18527925 -0.00176991 -0.01120008
0.18671040 -0.00176991 -0.00995215
0.18734214 -0.00176991 -0.00917220
0.18791036 -0.00176991 -0.00830093
0.18881951 -0.00176991 -0.00632245
0.18942562 -0.00176991 -0.00402940
0.18972866 -0.00176991 -0.00142178
0.18976654 -0.00176991 0.00000000
0.18972866 -0.00176991 0.00142178
0.18942562 -0.00176991 0.00402940
0.18881951 -0.00176991 0.00632245
0.18791036 -0.00176991 0.00830093
0.18734214 -0.00176991 0.00917220
0.18671040 -0.00176991 0.00995215
0.18527925 -0.00176991 0.01120008
0.18362458 -0.00176991 0.01203203
0.18174635 -0.00176991 0.01244800
0.18072340 -0.00176991 0.01250000
0.17970061 -0.00176991 0.01244800
0.17782353 -0.00176991 0.01203203
0.17617115 -0.00176991 0.01120008
0.17474347 -0.00176991 0.00995215
0.17411388 -0.00176991 0.00917220
0.17354999 -0.00176991 0.00830093
0.17264776 -0.00176991 0.00632245
0.17204626 -0.00176991 0.00402940
0.17174551 -0.00176991 0.00142178
0.24141432 0.00000000 0.01244469
0.24037740 0.00000000 0.01239269
0.23847038 0.00000000 0.01197672
0.23678572 0.00000000 0.01114477
0.23532347 0.00000000 0.00989684
0.23467575 0.00000000 0.00911689
0.23409456 0.00000000 0.00824648
0.23316467 0.00000000 0.00627492
0.23254474 0.00000000 0.00399570
0.23223478 0.00000000 0.00140881
0.23219603 0.00000000 0.00000000
0.23223448 0.00000000 -0.00140881
0.23254214 0.00000000 -0.00399570
0.23315747 0.00000000 -0.00627492
0.23408045 0.00000000 -0.00824648
0.23465732 0.00000000 -0.00911689
0.23530331 0.00000000 -0.00989684
0.23676556 0.00000000 -0.01114477
0.23845482 0.00000000 -0.01197672
0.24037106 0.00000000 -0.01239269
0.24141432 0.00000000 -0.01244469
0.24244677 0.00000000 -0.01239255
0.24434572 0.00000000 -0.01197542
0.24602346 0.00000000 -0.01114117
0.24747995 0.00000000 -0.00988978
0.24812523 0.00000000 -0.00910767
0.24870642 0.00000000 -0.00823337
0.24963631 0.00000000 -0.00625835
0.25025624 0.00000000 -0.00398144
0.25056621 0.00000000 -0.00140262
0.25060496 0.00000000 0.00000000
0.25056621 0.00000000 0.00139628
0.25025624 0.00000000 0.00396588
0.24963631 0.00000000 0.00623819
0.24870642 0.00000000 0.00821321
0.24812523 0.00000000 0.00908923
0.24747995 0.00000000 0.00987567
0.24602346 0.00000000 0.01113397
0.24434572 0.00000000 0.01197283
0.24244677 0.00000000 0.01239226
0.24141432 -0.00176991 0.01244469
0.24037740 -0.00176991 0.01239269
0.23847038 -0.00176991 0.01197672
0.23678572 -0.00176991 0.01114477
0.23532347 -0.00176991 0.00989684
0.23467575 -0.00176991 0.00911689
0.23409456 -0.00176991 0.00824648
0.23316467 -0.00176991 0.00627492
0.23254474 -0.00176991 0.00399570
0.23223478 -0.00176991 0.00140881
0.23219603 -0.00176991 0.00000000
0.23223448 -0.00176991 -0.00140881
0.23254214 -0.00176991 -0.00399570
0.23315747 -0.00176991 -0.00627492
0.23408045 -0.00176991 -0.00824648
0.23465732 -0.00176991 -0.00911689
0.23530331 -0.00176991 -0.00989684
0.23676556 -0.00176991 -0.01114477
0.23845482 -0.00176991 -0.01197672
0.24037106 -0.00176991 -0.01239269
0.24141432 -0.00176991 -0.01244469
0.24244677 -0.00176991 -0.01239255
0.24434572 -0.00176991 -0.01197542
0.24602346 -0.00176991 -0.01114117
0.24747995 -0.00176991 -0.00988978
0.24812523 -0.00176991 -0.00910767
0.24870642 -0.00176991 -0.00823337
0.24963631 -0.00176991 -0.00625835
0.25025624 -0.00176991 -0.00398144
0.25056621 -0.00176991 -0.00140262
0.25060496 -0.00176991 0.00000000
0.25056621 -0.00176991 0.00139628
0.25025624 -0.00176991 0.00396588
0.24963631 -0.00176991 0.00623819
0.24870642 -0.00176991 0.00821321
0.24812523 -0.00176991 0.00908923
0.24747995 -0.00176991 0.00987567
0.24602346 -0.00176991 0.01113397
0.24434572 -0.00176991 0.01197283
0.24244677 -0.00176991 0.01239226
3 1 0 39
3 3 2 1
3 5 4 3
3 7 6 5
3 9 8 7
3 11 10 9
3 13 12 11
3 15 14 13
3 17 16 15
3 19 18 17
3 21 20 19
3 23 22 21
3 25 24 23
3 27 26 25
3 29 28 27
3 31 30 29
3 33 32 31
3 35 34 33
3 37 36 35
3 39 38 37
3 3 1 39
3 7 5 3
3 11 9 7
3 15 13 11
3 19 17 15
3 23 21 19
3 27 25 23
3 31 29 27
3 35 33 31
3 39 37 35
3 7 3 39
3 15 11 7
3 23 19 15
3 31 27 23
3 39 35 31
3 15 7 39
3 31 23 15
3 15 39 31
3 79 40 41
3 41 42 43
3 43 44 45
3 45 46 47
3 47 48 49
3 49 50 51
3 51 52 53
3 53 54 55
3 55 56 57
3 57 58 59
3 59 60 61
3 61 62 63
3 63 64 65
3 65 66 67
3 67 68 69
3 69 70 71
3 71 72 73
3 73 74 75
3 75 76 77
3 77 78 79
3 79 41 43
3 43 45 47
3 47 49 51
3 51 53 55
3 55 57 59
3 59 61 63
3 63 65 67
3 67 69 71
3 71 73 75
3 75 77 79
3 79 43 47
3 47 51 55
3 55 59 63
3 63 67 71
3 71 75 79
3 79 47 55
3 55 63 71
3 71 79 55
3 41 40 1
3 1 40 0
3 42 41 2
3 2 41 1
3 43 42 3
3 3 42 2
3 44 43 4
3 4 43 3
3 45 44 5
3 5 44 4
3 46 45 6
3 6 45 5
3 47 46 7
3 7 46 6
3 48 47 8
3 8 47 7
3 49 48 9
3 9 48 8
3 50 49 10
3 10 49 9
3 51 50 11
3 11 50 10
3 52 51 12
3 12 51 11
3 53 52 13
3 13 52 12
3 54 53 14
3 14 53 13
3 55 54 15
3 15 54 14
3 56 55 16
3 16 55 15
3 57 56 17
3 17 56 16
3 58 57 18
3 18 57 17
3 59 58 19
3 19 58 18
3 60 59 20
3 20 59 19
3 61 60 21
3 21 60 20
3 62 61 22
3 22 61 21
3 63 62 23
3 23 62 22
3 64 63 24
3 24 63 23
3 65 64 25
3 25 64 24
3 66 65 26
3 26 65 25
3 67 66 27
3 27 66 26
3 68 67 28
3 28 67 27
3 69 68 29
3 29 68 28
3 70 69 30
3 30 69 29
3 71 70 31
3 31 70 30
3 72 71 32
3 32 71 31
3 73 72 33
3 33 72 32
3 74 73 34
3 34 73 33
3 75 74 35
3 35 74 34
3 76 75 36
3 36 75 35
3 77 76 37
3 37 76 36
3 78 77 38
3 38 77 37
3 40 79 0
3 0 79 39
3 79 78 39
3 39 78 38
3 81 80 100
3 83 82 81
3 85 84 83
3 87 86 85
3 89 88 87
3 91 90 89
3 93 92 91
3 95 94 93
3 97 96 95
3 99 98 97
3 81 100 99
3 85 83 81
3 89 87 85
3 93 91 89
3 97 95 93
3 81 99 97
3 89 85 81
3 97 93 89
3 89 81 97
3 121 101 102
3 102 103 104
3 104 105 106
3 106 107 108
3 108 109 110
3 110 111 112
3 112 113 114
3 114 115 116
3 116 117 118
3 118 119 120
3 120 121 102
3 102 104 106
3 106 108 110
3 110 112 114
3 114 116 118
3 118 120 102
3 102 106 110
3 110 114 118
3 118 102 110
3 102 101 81
3 81 101 80
3 103 102 82
3 82 102 81
3 104 103 83
3 83 103 82
3 105 104 84
3 84 104 83
3 106 105 85
3 85 105 84
3 107 106 86
3 86 106 85
3 108 107 87
3 87 107 86
3 109 108 88
3 88 108 87
3 110 109 89
3 89 109 88
3 111 110 90
3 90 110 89
3 112 111 91
3 91 111 90
3 113 112 92
3 92 112 91
3 114 113 93
3 93 113 92
3 115 114 94
3 94 114 93
3 116 115 95
3 95 115 94
3 117 116 96
3 96 116 95
3 118 117 97
3 97 117 96
3 119 118 98
3 98 118 97
3 120 119 99
3 99 119 98
3 101 121 80
3 80 121 100
3 121 120 100
3 100 120 99
3 123 122 161
3 125 124 123
3 127 126 125
3 129 128 127
3 131 130 129
3 133 132 131
3 135 134 133
3 137 136 135
3 139 138 137
3 141 140 139
3 143 142 141
3 145 144 143
3 147 146 145
3 149 148 147
3 151 150 149
3 153 152 151
3 155 154 153
3 157 156 155
3 159 158 157
3 161 160 159
3 125 123 161
3 129 127 125
3 133 131 129
3 137 135 133
3 141 139 137
3 145 143 141
3 149 147 145
3 153 151 149
3 157 155 153
3 161 159 157
3 129 125 161
3 137 133 129
3 145 141 137
3 153 149 145
3 161 157 153
3 137 129 161
3 153 145 137
3 137 161 153
3 201 162 163
3 163 164 165
3 165 166 167
3 167 168 169
3 169 170 171
3 171 172 173
3 173 174 175
3 175 176 177
3 177 178 179
3 179 180 181
3 181 182 183
3 183 184 185
3 185 186 187
3 187 188 189
3 189 190 191
3 191 192 193
3 193 194 195
3 195 196 197
3 197 198 199
3 199 200 201
3 201 163 165
3 165 167 169
3 169 171 173
3 173 175 177
3 177 179 181
3 181 183 185
3 185 187 189
3 189 191 193
3 193 195 197
3 197 199 201
3 201 165 169
3 169 173 177
3 177 181 185
3 185 189 193
3 193 197 201
3 201 169 177
3 177 185 193
3 193 201 177
3 163 162 123
3 123 162 122
3 164 163 124
3 124 163 123
3 165 164 125
3 125 164 124
3 166 165 126
3 126 165 125
3 167 166 127
3 127 166 126
3 168 167 128
3 128 167 127
3 169 168 129
3 129 168 128
3 170 169 130
3 130 169 129
3 171 170 131
3 131 170 130
3 172 171 132
3 132 171 131
3 173 172 133
3 133 172 132
3 174 173 134
3 134 173 133
3 175 174 135
3 135 174 134
3 176 175 136
3 136 175 135
3 177 176 137
3 137 176 136
3 178 177 138
3 138 177 137
3 179 178 139
3 139 178 138
3 180 179 140
3 140 179 139
3 181 180 141
3 141 180 140
3 182 181 142
3 142 181 141
3 183 182 143
3 143 182 142
3 184 183 144
3 144 183 143
3 185 184 145
3 145 184 144
3 186 185 146
3 146 185 145
3 187 186 147
3 147 186 146
3 188 187 148
3 148 187 147
3 189 188 149
3 149 188 148
3 190 189 150
3 150 189 149
3 191 190 151
3 151 190 150
3 192 191 152
3 152 191 151
3 193 192 153
3 153 192 152
3 194 193 154
3 154 193 153
3 195 194 155
3 155 194 154
3 196 195 156
3 156 195 155
3 197 196 157
3 157 196 156
3 198 197 158
3 158 197 157
3 199 198 159
3 159 198 158
3 200 199 160
3 160 199 159
3 162 201 122
3 122 201 161
3 201 200 161
3 161 200 160
3 203 202 241
3 205 204 203
3 207 206 205
3 209 208 207
3 211 210 209
3 213 212 211
3 215 214 213
3 217 216 215
3 219 218 217
3 221 220 219
3 223 222 221
3 225 224 223
3 227 226 225
3 229 228 227
3 231 230 229
3 233 232 231
3 235 234 233
3 237 236 235
3 239 238 237
3 241 240 239
3 205 203 241
3 209 207 205
3 213 211 209
3 217 215 213
3 221 219 217
3 225 223 221
3 229 227 225
3 233 231 229
3 237 235 233
3 241 239 237
3 209 205 241
3 217 213 209
3 225 221 217
3 233 229 225
3 241 237 233
3 217 209 241
3 233 225 217
3 217 241 233
3 281 242 243
3 243 244 245
3 245 246 247
3 247 248 249
3 249 250 251
3 251 252 253
3 253 254 255
3 255 256 257
3 257 258 259
3 259 260 261
3 261 262 263
3 263 264 265
3 265 266 267
3 267 268 269
3 269 270 271
3 271 272 273
3 273 274 275
3 275 276 277
3 277 278 279
3 279 280 281
3 281 243 245
3 245 247 249
3 249 251 253
3 253 255 257
3 257 259 261
3 261 263 265
3 265 267 269
3 269 271 273
3 273 275 277
3 277 279 281
3 281 245 249
3 249 253 257
3 257 261 265
3 265 269 273
3 273 277 281
3 281 249 257
3 257 265 273
3 273 281 257
3 243 242 203
3 203 242 202
3 244 243 204
3 204 243 203
3 245 244 205
3 205 244 204
3 246 245 206
3 206 245 205
3 247 246 207
3 207 246 206
3 248 247 208
3 208 247 207
3 249 248 209
3 209 248 208
3 250 249 210
3 210 249 209
3 251 250 211
3 211 250 210
3 252 251 212
3 212 251 211
3 253 252 213
3 213 252 212
3 254 253 214
3 214 253 213
3 255 254 215
3 215 254 214
3 256 255 216
3 216 255 215
3 257 256 217
3 217 256 216
3 258 257 218
3 218 257 217
3 259 258 219
3 219 258 218
3 260 259 220
3 220 259 219
3 261 260 221
3 221 260 220
3 262 261 222
3 222 261 221
3 263 262 223
3 223 262 222
3 264 263 224
3 224 263 223
3 265 264 225
3 225 264 224
3 266 265 226
3 226 265 225
3 267 266 227
3 227 266 226
3 268 267 228
3 228 267 227
3 269 268 229
3 229 268 228
3 270 269 230
3 230 269 229
3 271 270 231
3 231 270 230
3 272 271 232
3 232 271 231
3 273 272 233
3 233 272 232
3 274 273 234
3 234 273 233
3 275 274 235
3 235 274 234
3 276 275 236
3 236 275 235
3 277 276 237
3 237 276 236
3 278 277 238
3 238 277 237
3 279 278 239
3 239 278 238
3 280 279 240
3 240 279 239
3 242 281 202
3 202 281 241
3 281 280 241
3 241 280 240
3 283 282 308
3 285 284 283
3 287 286 285
3 289 288 287
3 291 290 289
3 293 292 291
3 295 294 293
3 297 296 295
3 299 298 297
3 301 300 299
3 303 302 301
3 305 304 303
3 307 306 305
3 283 308 307
3 287 285 283
3 291 289 287
3 295 293 291
3 299 297 295
3 303 301 299
3 307 305 303
3 287 283 307
3 295 291 287
3 303 299 295
3 287 307 303
3 303 295 287
3 335 309 310
3 310 311 312
3 312 313 314
3 314 315 316
3 316 317 318
3 318 319 320
3 320 321 322
3 322 323 324
3 324 325 326
3 326 327 328
3 328 329 330
3 330 331 332
3 332 333 334
3 334 335 310
3 310 312 314
3 314 316 318
3 318 320 322
3 322 324 326
3 326 328 330
3 330 332 334
3 334 310 314
3 314 318 322
3 322 326 330
3 330 334 314
3 314 322 330
3 310 309 283
3 283 309 282
3 311 310 284
3 284 310 283
3 312 311 285
3 285 311 284
3 313 312 286
3 286 312 285
3 314 313 287
3 287 313 286
3 315 314 288
3 288 314 287
3 316 315 289
3 289 315 288
3 317 316 290
3 290 316 289
3 318 317 291
3 291 317 290
3 319 318 292
3 292 318 291
3 320 319 293
3 293 319 292
3 321 320 294
3 294 320 293
3 322 321 295
3 295 321 294
3 323 322 296
3 296 322 295
3 324 323 297
3 297 323 296
3 325 324 298
3 298 324 297
3 326 325 299
3 299 325 298
3 327 326 300
3 300 326 299
3 328 327 301
3 301 327 300
3 329 328 302
3 302 328 301
3 330 329 303
3 303 329 302
3 331 330 304
3 304 330 303
3 332 331 305
3 305 331 304
3 333 332 306
3 306 332 305
3 334 333 307
3 307 333 306
3 309 335 282
3 282 335 308
3 335 334 308
3 308 334 307
3 337 336 356
3 339 338 337
3 341 340 339
3 343 342 341
3 345 344 343
3 347 346 345
3 349 348 347
3 351 350 349
3 353 352 351
3 355 354 353
3 337 356 355
3 341 339 337
3 345 343 341
3 349 347 345
3 353 351 349
3 337 355 353
3 345 341 337
3 353 349 345
3 345 337 353
3 377 357 358
3 358 359 360
3 360 361 362
3 362 363 364
3 364 365 366
3 366 367 368
3 368 369 370
3 370 371 372
3 372 373 374
3 374 375 376
3 376 377 358
3 358 360 362
3 362 364 366
3 366 368 370
3 370 372 374
3 374 376 358
3 358 362 366
3 366 370 374
3 374 358 366
3 358 357 337
3 337 357 336
3 359 358 338
3 338 358 337
3 360 359 339
3 339 359 338
3 361 360 340
3 340 360 339
3 362 361 341
3 341 361 340
3 363 362 342
3 342 362 341
3 364 363 343
3 343 363 342
3 365 364 344
3 344 364 343
3 366 365 345
3 345 365 344
3 367 366 346
3 346 366 345
3 368 367 347
3 347 367 346
3 369 368 348
3 348 368 347
3 370 369 349
3 349 369 348
3 371 370 350
3 350 370 349
3 372 371 351
3 351 371 350
3 373 372 352
3 352 372 351
3 374 373 353
3 353 373 352
3 375 374 354
3 354 374 353
3 376 375 355
3 355 375 354
3 357 377 336
3 336 377 356
3 377 376 356
3 356 376 355
3 379 378 417
3 381 380 379
3 383 382 381
3 385 384 383
3 387 386 385
3 389 388 387
3 391 390 389
3 393 392 391
3 395 394 393
3 397 396 395
3 399 398 397
3 401 400 399
3 403 402 401
3 405 404 403
3 407 406 405
3 409 408 407
3 411 410 409
3 413 412 411
3 415 414 413
3 417 416 415
3 381 379 417
3 385 383 381
3 389 387 385
3 393 391 389
3 397 395 393
3 401 399 397
3 405 403 401
3 409 407 405
3 413 411 409
3 417 415 413
3 385 381 417
3 393 389 385
3 401 397 393
3 409 405 401
3 417 413 409
3 393 385 417
3 409 401 393
3 393 417 409
3 457 418 419
3 419 420 421
3 421 422 423
3 423 424 425
3 425 426 427
3 427 428 429
3 429 430 431
3 431 432 433
3 433 434 435
3 435 436 437
3 437 438 439
3 439 440 441
3 441 442 443
3 443 444 445
3 445 446 447
3 447 448 449
3 449 450 451
3 451 452 453
3 453 454 455
3 455 456 457
3 457 419 421
3 421 423 425
3 425 427 429
3 429 431 433
3 433 435 437
3 437 439 441
3 441 443 445
3 445 447 449
3 449 451 453
3 453 455 457
3 457 421 425
3 425 429 433
3 433 437 441
3 441 445 449
3 449 453 457
3 457 425 433
3 433 441 449
3 449 457 433
3 419 418 379
3 379 418 378
3 420 419 380
3 380 419 379
3 421 420 381
3 381 420 380
3 422 421 382
3 382 421 381
3 423 422 383
3 383 422 382
3 424 423 384
3 384 423 383
3 425 424 385
3 385 424 384
3 426 425 386
3 386 425 385
3 427 426 387
3 387 426 386
3 428 427 388
3 388 427 387
3 429 428 389
3 389 428 388
3 430 429 390
3 390 429 389
3 431 430 391
3 391 430 390
3 432 431 392
3 392 431 391
3 433 432 393
3 393 432 392
3 434 433 394
3 394 433 393
3 435 434 395
3 395 434 394
3 436 435 396
3 396 435 395
3 437 436 397
3 397 436 396
3 438 437 398
3 398 437 397
3 439 438 399
3 399 438 398
3 440 439 400
3 400 439 399
3 441 440 401
3 401 440 400
3 442 441 402
3 402 441 401
3 443 442 403
3 403 442 402
3 444 443 404
3 404 443 403
3 445 444 405
3 405 444 404
3 446 445 406
3 406 445 405
3 447 446 407
3 407 446 406
3 448 447 408
3 408 447 407
3 449 448 409
3 409 448 408
3 450 449 410
3 410 449 409
3 451 450 411
3 411 450 410
3 452 451 412
3 412 451 411
3 453 452 413
3 413 452 412
3 454 453 414
3 414 453 413
3 455 454 415
3 415 454 414
3 456 455 416
3 416 455 415
3 418 457 378
3 378 457 417
3 457 456 417
3 417 456 416
3 459 458 497
3 461 460 459
3 463 462 461
3 465 464 463
3 467 466 465
3 469 468 467
3 471 470 469
3 473 472 471
3 475 474 473
3 477 476 475
3 479 478 477
3 481 480 479
3 483 482 481
3 485 484 483
3 487 486 485
3 489 488 487
3 491 490 489
3 493 492 491
3 495 494 493
3 497 496 495
3 461 459 497
3 465 463 461
3 469 467 465
3 473 471 469
3 477 475 473
3 481 479 477
3 485 483 481
3 489 487 485
3 493 491 489
3 497 495 493
3 465 461 497
3 473 469 465
3 481 477 473
3 489 485 481
3 497 493 489
3 473 465 497
3 489 481 473
3 473 497 489
3 537 498 499
3 499 500 501
3 501 502 503
3 503 504 505
3 505 506 507
3 507 508 509
3 509 510 511
3 511 512 513
3 513 514 515
3 515 516 517
3 517 518 519
3 519 520 521
3 521 522 523
3 523 524 525
3 525 526 527
3 527 528 529
3 529 530 531
3 531 532 533
3 533 534 535
3 535 536 537
3 537 499 501
3 501 503 505
3 505 507 509
3 509 511 513
3 513 515 517
3 517 519 521
3 521 523 525
3 525 527 529
3 529 531 533
3 533 535 537
3 537 501 505
3 505 509 513
3 513 517 521
3 521 525 529
3 529 533 537
3 537 505 513
3 513 521 529
3 529 537 513
3 499 498 459
3 459 498 458
3 500 499 460
3 460 499 459
3 501 500 461
3 461 500 460
3 502 501 462
3 462 501 461
3 503 502 463
3 463 502 462
3 504 503 464
3 464 503 463
3 505 504 465
3 465 504 464
3 506 505 466
3 466 505 465
3 507 506 467
3 467 506 466
3 508 507 468
3 468 507 467
3 509 508 469
3 469 508 468
3 510 509 470
3 470 509 469
3 511 510 471
3 471 510 470
3 512 511 472
3 472 511 471
3 513 512 473
3 473 512 472
3 514 513 474
3 474 513 473
3 515 514 475
3 475 514 474
3 516 515 476
3 476 515 475
3 517 516 477
3 477 516 476
3 518 517 478
3 478 517 477
3 519 518 479
3 479 518 478
3 520 519 480
3 480 519 479
3 521 520 481
3 481 520 480
3 522 521 482
3 482 521 481
3 523 522 483
3 483 522 482
3 524 523 484
3 484 523 483
3 525 524 485
3 485 524 484
3 526 525 486
3 486 525 485
3 527 526 487
3 487 526 486
3 528 527 488
3 488 527 487
3 529 528 489
3 489 528 488
3 530 529 490
3 490 529 489
3 531 530 491
3 491 530 490
3 532 531 492
3 492 531 491
3 533 532 493
3 493 532 492
3 534 533 494
3 494 533 493
3 535 534 495
3 495 534 494
3 536 535 496
3 496 535 495
3 498 537 458
3 458 537 497
3 537 536 497
3 497 536 496
