ply
format ascii 1.0
comment https://github.com/mikedh/trimesh
element vertex 458
property float x
property float y
property float z
element face 888
property list uchar int vertex_indices
end_header
-0.17418073 0.00000000 0.00000000
-0.17414314 0.00000000 -0.00142178
-0.17384239 0.00000000 -0.00402940
-0.17324089 0.00000000 -0.00632245
-0.17233865 0.00000000 -0.00830093
-0.17177474 0.00000000 -0.00917220
-0.17114517 0.00000000 -0.00995215
-0.16971749 0.00000000 -0.01120008
-0.16806512 0.00000000 -0.01203203
-0.16618803 0.00000000 -0.01244800
-0.16516523 0.00000000 -0.01250000
-0.16414230 0.00000000 -0.01244800
-0.16226406 0.00000000 -0.01203203
-0.16060938 0.00000000 -0.01120008
-0.15917824 0.00000000 -0.00995215
-0.15854651 0.00000000 -0.00917220
-0.15797828 0.00000000 -0.00830093
-0.15706913 0.00000000 -0.00632245
-0.15646303 0.00000000 -0.00402940
-0.15615998 0.00000000 -0.00142178
-0.15612210 0.00000000 0.00000000
-0.15615998 0.00000000 0.00142178
-0.15646303 0.00000000 0.00402940
-0.15706913 0.00000000 0.00632245
-0.15797828 0.00000000 0.00830093
-0.15854651 0.00000000 0.00917220
-0.15917824 0.00000000 0.00995215
-0.16060938 0.00000000 0.01120008
-0.16226406 0.00000000 0.01203203
-0.16414230 0.00000000 0.01244800
-0.16516523 0.00000000 0.01250000
-0.16618803 0.00000000 0.01244800
-0.16806512 0.00000000 0.01203203
-0.16971749 0.00000000 0.01120008
-0.17114517 0.00000000 0.00995215
-0.17177474 0.00000000 0.00917220
-0.17233865 0.00000000 0.00830093
-0.17324089 0.00000000 0.00632245
-0.17384239 0.00000000 0.00402940
-0.17414314 0.00000000 0.00142178
-0.17418073 -0.00176991 0.00000000
-0.17414314 -0.00176991 -0.00142178
-0.17384239 -0.00176991 -0.00402940
-0.17324089 -0.00176991 -0.00632245
-0.17233865 -0.00176991 -0.00830093
-0.17177474 -0.00176991 -0.00917220
-0.17114517 -0.00176991 -0.00995215
-0.16971749 -0.00176991 -0.01120008
-0.16806512 -0.00176991 -0.01203203
-0.16618803 -0.00176991 -0.01244800
-0.16516523 -0.00176991 -0.01250000
-0.16414230 -0.00176991 -0.01244800
-0.16226406 -0.00176991 -0.01203203
-0.16060938 -0.00176991 -0.01120008
-0.15917824 -0.00176991 -0.00995215
-0.15854651 -0.00176991 -0.00917220
-0.15797828 -0.00176991 -0.00830093
-0.15706913 -0.00176991 -0.00632245
-0.15646303 -0.00176991 -0.00402940
-0.15615998 -0.00176991 -0.00142178
-0.15612210 -0.00176991 0.00000000
-0.15615998 -0.00176991 0.00142178
-0.15646303 -0.00176991 0.00402940
-0.15706913 -0.00176991 0.00632245
-0.15797828 -0.00176991 0.00830093
-0.15854651 -0.00176991 0.00917220
-0.15917824 -0.00176991 0.00995215
-0.16060938 -0.00176991 0.01120008
-0.16226406 -0.00176991 0.01203203
-0.16414230 -0.00176991 0.01244800
-0.16516523 -0.00176991 0.01250000
-0.16618803 -0.00176991 0.01244800
-0.16806512 -0.00176991 0.01203203
-0.16971749 -0.00176991 0.01120008
-0.17114517 -0.00176991 0.00995215
-0.17177474 -0.00176991 0.00917220
-0.17233865 -0.00176991 0.00830093
-0.17324089 -0.00176991 0.00632245
-0.17384239 -0.00176991 0.00402940
-0.17414314 -0.00176991 0.00142178
-0.11760347 0.00000000 0.00291298
-0.11765360 0.00000000 0.00397107
-0.11797163 0.00000000 0.00592304
-0.11858004 0.00000000 0.00765608
-0.11947882 0.00000000 0.00917018
-0.12003710 0.00000000 0.00984513
-0.12065574 0.00000000 0.01045440
-0.12203733 0.00000000 0.01142924
-0.12361135 0.00000000 0.01207913
-0.12537780 0.00000000 0.01240407
-0.12633319 0.00000000 0.01244469
-0.12741403 0.00000000 0.01240551
-0.12940980 0.00000000 0.01209209
-0.13118432 0.00000000 0.01146525
-0.13273761 0.00000000 0.01052498
-0.13343127 0.00000000 0.00993732
-0.13406201 0.00000000 0.00927850
-0.13511175 0.00000000 0.00776900
-0.13587916 0.00000000 0.00600370
-0.13636428 0.00000000 0.00398259
-0.13650097 0.00000000 0.00287611
-0.11760347 -0.00176991 0.00291298
-0.11765360 -0.00176991 0.00397107
-0.11797163 -0.00176991 0.00592304
-0.11858004 -0.00176991 0.00765608
-0.11947882 -0.00176991 0.00917018
-0.12003710 -0.00176991 0.00984513
-0.12065574 -0.00176991 0.01045440
-0.12203733 -0.00176991 0.01142924
-0.12361135 -0.00176991 0.01207913
-0.12537780 -0.00176991 0.01240407
-0.12633319 -0.00176991 0.01244469
-0.12741403 -0.00176991 0.01240551
-0.12940980 -0.00176991 0.01209209
-0.13118432 -0.00176991 0.01146525
-0.13273761 -0.00176991 0.01052498
-0.13343127 -0.00176991 0.00993732
-0.13406201 -0.00176991 0.00927850
-0.13511175 -0.00176991 0.00776900
-0.13587916 -0.00176991 0.00600370
-0.13636428 -0.00176991 0.00398259
-0.13650097 -0.00176991 0.00287611
-0.03363523 0.00000000 0.01244469
-0.03467214 0.00000000 0.01239269
-0.03657918 0.00000000 0.01197672
-0.03826382 0.00000000 0.01114477
-0.03972607 0.00000000 0.00989684
-0.04037380 0.00000000 0.00911689
-0.04095498 0.00000000 0.00824648
-0.04188488 0.00000000 0.00627492
-0.04250481 0.00000000 0.00399570
-0.04281478 0.00000000 0.00140881
-0.04285352 0.00000000 0.00000000
-0.04281506 0.00000000 -0.00140881
-0.04250740 0.00000000 -0.00399570
-0.04189208 0.00000000 -0.00627492
-0.04096910 0.00000000 -0.00824648
-0.04039224 0.00000000 -0.00911689
-0.03974624 0.00000000 -0.00989684
-0.03828399 0.00000000 -0.01114477
-0.03659473 0.00000000 -0.01197672
-0.03467848 0.00000000 -0.01239269
-0.03363523 0.00000000 -0.01244469
-0.03260278 0.00000000 -0.01239255
-0.03070382 0.00000000 -0.01197542
-0.02902609 0.00000000 -0.01114117
-0.02756960 0.00000000 -0.00988978
-0.02692432 0.00000000 -0.00910767
-0.02634313 0.00000000 -0.00823337
-0.02541324 0.00000000 -0.00625835
-0.02479331 0.00000000 -0.00398144
-0.02448334 0.00000000 -0.00140262
-0.02444460 0.00000000 0.00000000
-0.02448334 0.00000000 0.00139628
-0.02479331 0.00000000 0.00396588
-0.02541324 0.00000000 0.00623819
-0.02634313 0.00000000 0.00821321
-0.02692432 0.00000000 0.00908923
-0.02756960 0.00000000 0.00987567
-0.02902609 0.00000000 0.01113397
-0.03070382 0.00000000 0.01197283
-0.03260278 0.00000000 0.01239226
-0.03363523 -0.00176991 0.01244469
-0.03467214 -0.00176991 0.01239269
-0.03657918 -0.00176991 0.01197672
-0.03826382 -0.00176991 0.01114477
-0.03972607 -0.00176991 0.00989684
-0.04037380 -0.00176991 0.00911689
-0.04095498 -0.00176991 0.00824648
-0.04188488 -0.00176991 0.00627492
-0.04250481 -0.00176991 0.00399570
-0.04281478 -0.00176991 0.00140881
-0.04285352 -0.00176991 0.00000000
-0.04281506 -0.00176991 -0.00140881
-0.04250740 -0.00176991 -0.00399570
-0.04189208 -0.00176991 -0.00627492
-0.04096910 -0.00176991 -0.00824648
-0.04039224 -0.00176991 -0.00911689
-0.03974624 -0.00176991 -0.00989684
-0.03828399 -0.00176991 -0.01114477
-0.03659473 -0.00176991 -0.01197672
-0.03467848 -0.00176991 -0.01239269
-0.03363523 -0.00176991 -0.01244469
-0.03260278 -0.00176991 -0.01239255
-0.03070382 -0.00176991 -0.01197542
-0.02902609 -0.00176991 -0.01114117
-0.02756960 -0.00176991 -0.00988978
-0.02692432 -0.00176991 -0.00910767
-0.02634313 -0.00176991 -0.00823337
-0.02541324 -0.00176991 -0.00625835
-0.02479331 -0.00176991 -0.00398144
-0.02448334 -0.00176991 -0.00140262
-0.02444460 -0.00176991 0.00000000
-0.02448334 -0.00176991 0.00139628
-0.02479331 -0.00176991 0.00396588
-0.02541324 -0.00176991 0.00623819
-0.02634313 -0.00176991 0.00821321
-0.02692432 -0.00176991 0.00908923
-0.02756960 -0.00176991 0.00987567
-0.02902609 -0.00176991 0.01113397
-0.03070382 -0.00176991 0.01197283
-0.03260278 -0.00176991 0.01239226
0.06488984 0.00000000 0.00291298
0.06483971 0.00000000 0.00397107
0.06452169 0.00000000 0.00592304
0.06391328 0.00000000 0.00765608
0.06301449 0.00000000 0.00917018
0.06245621 0.00000000 0.00984513
0.06183758 0.00000000 0.01045440
0.06045599 0.00000000 0.01142924
0.05888196 0.00000000 0.01207913
0.05711551 0.00000000 0.01240407
0.05616012 0.00000000 0.01244469
0.05507928 0.00000000 0.01240551
0.05308352 0.00000000 0.01209209
0.05130900 0.00000000 0.01146525
0.04975571 0.00000000 0.01052498
0.04906204 0.00000000 0.00993732
0.04843131 0.00000000 0.00927850
0.04738157 0.00000000 0.00776900
0.04661415 0.00000000 0.00600370
0.04612904 0.00000000 0.00398259
0.04599235 0.00000000 0.00287611
0.06488984 -0.00176991 0.00291298
0.06483971 -0.00176991 0.00397107
0.06452169 -0.00176991 0.00592304
0.06391328 -0.00176991 0.00765608
0.06301449 -0.00176991 0.00917018
0.06245621 -0.00176991 0.00984513
0.06183758 -0.00176991 0.01045440
0.06045599 -0.00176991 0.01142924
0.05888196 -0.00176991 0.01207913
0.05711551 -0.00176991 0.01240407
0.05616012 -0.00176991 0.01244469
0.05507928 -0.00176991 0.01240551
0.05308352 -0.00176991 0.01209209
0.05130900 -0.00176991 0.01146525
0.04975571 -0.00176991 0.01052498
0.04906204 -0.00176991 0.00993732
0.04843131 -0.00176991 0.00927850
0.04738157 -0.00176991 0.00776900
0.04661415 -0.00176991 0.00600370
0.04612904 -0.00176991 0.00398259
0.04599235 -0.00176991 0.00287611
0.09355411 0.00000000 0.00011062
0.09058813 0.00000000 0.00001901
0.08706386 0.00000000 -0.00046192
0.08533082 0.00000000 -0.00101156
0.08464924 0.00000000 -0.00135509
0.08406806 0.00000000 -0.00175407
0.08313817 0.00000000 -0.00274734
0.08251823 0.00000000 -0.00400103
0.08220827 0.00000000 -0.00551513
0.08216953 0.00000000 -0.00636984
0.08228590 0.00000000 -0.00770764
0.08321695 0.00000000 -0.00994769
0.08403162 0.00000000 -0.01084993
0.08504563 0.00000000 -0.01157183
0.08757144 0.00000000 -0.01239687
0.08908324 0.00000000 -0.01250000
0.09015977 0.00000000 -0.01245117
0.09214861 0.00000000 -0.01206055
0.09391852 0.00000000 -0.01127930
0.09546950 0.00000000 -0.01010742
0.09616289 0.00000000 -0.00937500
0.09678728 0.00000000 -0.00856163
0.09778631 0.00000000 -0.00674217
0.09845234 0.00000000 -0.00466575
0.09878535 0.00000000 -0.00233237
0.09882697 0.00000000 -0.00106932
0.09882697 0.00000000 0.00011062
0.09355411 -0.00176991 0.00011062
0.09058813 -0.00176991 0.00001901
0.08706386 -0.00176991 -0.00046192
0.08533082 -0.00176991 -0.00101156
0.08464924 -0.00176991 -0.00135509
0.08406806 -0.00176991 -0.00175407
0.08313817 -0.00176991 -0.00274734
0.08251823 -0.00176991 -0.00400103
0.08220827 -0.00176991 -0.00551513
0.08216953 -0.00176991 -0.00636984
0.08228590 -0.00176991 -0.00770764
0.08321695 -0.00176991 -0.00994769
0.08403162 -0.00176991 -0.01084993
0.08504563 -0.00176991 -0.01157183
0.08757144 -0.00176991 -0.01239687
0.08908324 -0.00176991 -0.01250000
0.09015977 -0.00176991 -0.01245117
0.09214861 -0.00176991 -0.01206055
0.09391852 -0.00176991 -0.01127930
0.09546950 -0.00176991 -0.01010742
0.09616289 -0.00176991 -0.00937500
0.09678728 -0.00176991 -0.00856163
0.09778631 -0.00176991 -0.00674217
0.09845234 -0.00176991 -0.00466575
0.09878535 -0.00176991 -0.00233237
0.09882697 -0.00176991 -0.00106932
0.09882697 -0.00176991 0.00011062
0.13820635 0.00000000 0.00000000
0.13816875 0.00000000 0.00142178
0.13786802 0.00000000 0.00402940
0.13726652 0.00000000 0.00632245
0.13636428 0.00000000 0.00830093
0.13580038 0.00000000 0.00917220
0.13517080 0.00000000 0.00995215
0.13374312 0.00000000 0.01120008
0.13209073 0.00000000 0.01203203
0.13021366 0.00000000 0.01244800
0.12919086 0.00000000 0.01250000
0.12816590 0.00000000 0.01244800
0.12628537 0.00000000 0.01203203
0.12463069 0.00000000 0.01120008
0.12320185 0.00000000 0.00995215
0.12257213 0.00000000 0.00917220
0.12200823 0.00000000 0.00830093
0.12110599 0.00000000 0.00632245
0.12050450 0.00000000 0.00402940
0.12020376 0.00000000 0.00142178
0.12016616 0.00000000 0.00000000
0.12020376 0.00000000 -0.00142178
0.12050450 0.00000000 -0.00402940
0.12110599 0.00000000 -0.00632245
0.12200823 0.00000000 -0.00830093
0.12257213 0.00000000 -0.00917220
0.12320185 0.00000000 -0.00995215
0.12463069 0.00000000 -0.01120008
0.12628537 0.00000000 -0.01203203
0.12816590 0.00000000 -0.01244800
0.12919086 0.00000000 -0.01250000
0.13021366 0.00000000 -0.01244800
0.13209073 0.00000000 -0.01203203
0.13374312 0.00000000 -0.01120008
0.13517080 0.00000000 -0.00995215
0.13580038 0.00000000 -0.00917220
0.13636428 0.00000000 -0.00830093
0.13726652 0.00000000 -0.00632245
0.13786802 0.00000000 -0.00402940
0.13816875 0.00000000 -0.00142178
0.13820635 -0.00176991 0.00000000
0.13816875 -0.00176991 0.00142178
0.13786802 -0.00176991 0.00402940
0.13726652 -0.00176991 0.00632245
0.13636428 -0.00176991 0.00830093
0.13580038 -0.00176991 0.00917220
0.13517080 -0.00176991 0.00995215
0.13374312 -0.00176991 0.01120008
0.13209073 -0.00176991 0.01203203
0.13021366 -0.00176991 0.01244800
0.12919086 -0.00176991 0.01250000
0.12816590 -0.00176991 0.01244800
0.12628537 -0.00176991 0.01203203
0.12463069 -0.00176991 0.01120008
0.12320185 -0.00176991 0.00995215
0.12257213 -0.00176991 0.00917220
0.12200823 -0.00176991 0.00830093
0.12110599 -0.00176991 0.00632245
0.12050450 -0.00176991 0.00402940
0.12020376 -0.00176991 0.00142178
0.12016616 -0.00176991 0.00000000
0.12020376 -0.00176991 -0.00142178
0.12050450 -0.00176991 -0.00402940
0.12110599 -0.00176991 -0.00632245
0.12200823 -0.00176991 -0.00830093
0.12257213 -0.00176991 -0.00917220
0.12320185 -0.00176991 -0.00995215
0.12463069 -0.00176991 -0.01120008
0.12628537 -0.00176991 -0.01203203
0.12816590 -0.00176991 -0.01244800
0.12919086 -0.00176991 -0.01250000
0.13021366 -0.00176991 -0.01244800
0.13209073 -0.00176991 -0.01203203
0.13374312 -0.00176991 -0.01120008
0.13517080 -0.00176991 -0.00995215
0.13580038 -0.00176991 -0.00917220
0.13636428 -0.00176991 -0.00830093
0.13726652 -0.00176991 -0.00632245
0.13786802 -0.00176991 -0.00402940
0.13816875 -0.00176991 -0.00142178
0.16499010 0.00000000 0.01244469
0.16395317 0.00000000 0.01239269
0.16204615 0.00000000 0.01197672
0.16036150 0.00000000 0.01114477
0.15889925 0.00000000 0.00989684
0.15825152 0.00000000 0.00911689
0.15767033 0.00000000 0.00824648
0.15674044 0.00000000 0.00627492
0.15612051 0.00000000 0.00399570
0.15581055 0.00000000 0.00140881
0.15577181 0.00000000 0.00000000
0.15581025 0.00000000 -0.00140881
0.15611792 0.00000000 -0.00399570
0.15673324 0.00000000 -0.00627492
0.15765622 0.00000000 -0.00824648
0.15823309 0.00000000 -0.00911689
0.15887909 0.00000000 -0.00989684
0.16034134 0.00000000 -0.01114477
0.16203059 0.00000000 -0.01197672
0.16394684 0.00000000 -0.01239269
0.16499010 0.00000000 -0.01244469
0.16602254 0.00000000 -0.01239255
0.16792151 0.00000000 -0.01197542
0.16959924 0.00000000 -0.01114117
0.17105572 0.00000000 -0.00988978
0.17170100 0.00000000 -0.00910767
0.17228219 0.00000000 -0.00823337
0.17321208 0.00000000 -0.00625835
0.17383201 0.00000000 -0.00398144
0.17414197 0.00000000 -0.00140262
0.17418073 0.00000000 0.00000000
0.17414197 0.00000000 0.00139628
0.17383201 0.00000000 0.00396588
0.17321208 0.00000000 0.00623819
0.17228219 0.00000000 0.00821321
0.17170100 0.00000000 0.00908923
0.17105572 0.00000000 0.00987567
0.16959924 0.00000000 0.01113397
0.16792151 0.00000000 0.01197283
0.16602254 0.00000000 0.01239226
0.16499010 -0.00176991 0.01244469
0.16395317 -0.00176991 0.01239269
0.16204615 -0.00176991 0.01197672
0.16036150 -0.00176991 0.01114477
0.15889925 -0.00176991 0.00989684
0.15825152 -0.00176991 0.00911689
0.15767033 -0.00176991 0.00824648
0.15674044 -0.00176991 0.00627492
0.15612051 -0.00176991 0.00399570
0.15581055 -0.00176991 0.00140881
0.15577181 -0.00176991 0.00000000
0.15581025 -0.00176991 -0.00140881
0.15611792 -0.00176991 -0.00399570
0.15673324 -0.00176991 -0.00627492
0.15765622 -0.00176991 -0.00824648
0.15823309 -0.00176991 -0.00911689
0.15887909 -0.00176991 -0.00989684
0.16034134 -0.00176991 -0.01114477
0.16203059 -0.00176991 -0.01197672
0.16394684 -0.00176991 -0.01239269
0.16499010 -0.00176991 -0.01244469
0.16602254 -0.00176991 -0.01239255
0.16792151 -0.00176991 -0.01197542
0.16959924 -0.00176991 -0.01114117
0.17105572 -0.00176991 -0.00988978
0.17170100 -0.00176991 -0.00910767
0.17228219 -0.00176991 -0.00823337
0.17321208 -0.00176991 -0.00625835
0.17383201 -0.00176991 -0.00398144
0.17414197 -0.00176991 -0.00140262
0.17418073 -0.00176991 0.00000000
0.17414197 -0.00176991 0.00139628
0.17383201 -0.00176991 0.00396588
0.17321208 -0.00176991 0.00623819
0.17228219 -0.00176991 0.00821321
0.17170100 -0.00176991 0.00908923
0.17105572 -0.00176991 0.00987567
0.16959924 -0.00176991 0.01113397
0.16792151 -0.00176991 0.01197283
0.16602254 -0.00176991 0.01239226
3 1 0 39
3 3 2 1
3 5 4 3
3 7 6 5
3 9 8 7
3 11 10 9
3 13 12 11
3 15 14 13
3 17 16 15
3 19 18 17
3 21 20 19
3 23 22 21
3 25 24 23
3 27 26 25
3 29 28 27
3 31 30 29
3 33 32 31
3 35 34 33
3 37 36 35
3 39 38 37
3 3 1 39
3 7 5 3
3 11 9 7
3 15 13 11
3 19 17 15
3 23 21 19
3 27 25 23
3 31 29 27
3 35 33 31
3 39 37 35
3 7 3 39
3 15 11 7
3 23 19 15
3 31 27 23
3 39 35 31
3 15 7 39
3 31 23 15
3 15 39 31
3 79 40 41
3 41 42 43
3 43 44 45
3 45 46 47
3 47 48 49
3 49 50 51
3 51 52 53
3 53 54 55
3 55 56 57
3 57 58 59
3 59 60 61
3 61 62 63
3 63 64 65
3 65 66 67
3 67 68 69
3 69 70 71
3 71 72 73
3 73 74 75
3 75 76 77
3 77 78 79
3 79 41 43
3 43 45 47
3 47 49 51
3 51 53 55
3 55 57 59
3 59 61 63
3 63 65 67
3 67 69 71
3 71 73 75
3 75 77 79
3 79 43 47
3 47 51 55
3 55 59 63
3 63 67 71
3 71 75 79
3 79 47 55
3 55 63 71
3 71 79 55
3 41 40 1
3 1 40 0
3 42 41 2
3 2 41 1
3 43 42 3
3 3 42 2
3 44 43 4
3 4 43 3
3 45 44 5
3 5 44 4
3 46 45 6
3 6 45 5
3 47 46 7
3 7 46 6
3 48 47 8
3 8 47 7
3 49 48 9
3 9 48 8
3 50 49 10
3 10 49 9
3 51 50 11
3 11 50 10
3 52 51 12
3 12 51 11
3 53 52 13
3 13 52 12
3 54 53 14
3 14 53 13
3 55 54 15
3 15 54 14
3 56 55 16
3 16 55 15
3 57 56 17
3 17 56 16
3 58 57 18
3 18 57 17
3 59 58 19
3 19 58 18
3 60 59 20
3 20 59 19
3 61 60 21
3 21 60 20
3 62 61 22
3 22 61 21
3 63 62 23
3 23 62 22
3 64 63 24
3 24 63 23
3 65 64 25
3 25 64 24
3 66 65 26
3 26 65 25
3 67 66 27
3 27 66 26
3 68 67 28
3 28 67 27
3 69 68 29
3 29 68 28
3 70 69 30
3 30 69 29
3 71 70 31
3 31 70 30
3 72 71 32
3 32 71 31
3 73 72 33
3 33 72 32
3 74 73 34
3 34 73 33
3 75 74 35
3 35 74 34
3 76 75 36
3 36 75 35
3 77 76 37
3 37 76 36
3 78 77 38
3 38 77 37
3 40 79 0
3 0 79 39
3 79 78 39
3 39 78 38
3 81 80 100
3 83 82 81
3 85 84 83
3 87 86 85
3 89 88 87
3 91 90 89
3 93 92 91
3 95 94 93
3 97 96 95
3 99 98 97
3 81 100 99
3 85 83 81
3 89 87 85
3 93 91 89
3 97 95 93
3 81 99 97
3 89 85 81
3 97 93 89
3 89 81 97
3 121 101 102
3 102 103 104
3 104 105 106
3 106 107 108
3 108 109 110
3 110 111 112
3 112 113 114
3 114 115 116
3 116 117 118
3 118 119 120
3 120 121 102
3 102 104 106
3 106 108 110
3 110 112 114
3 114 116 118
3 118 120 102
3 102 106 110
3 110 114 118
3 118 102 110
3 102 101 81
3 81 101 80
3 103 102 82
3 82 102 81
3 104 103 83
3 83 103 82
3 105 104 84
3 84 104 83
3 106 105 85
3 85 105 84
3 107 106 86
3 86 106 85
3 108 107 87
3 87 107 86
3 109 108 88
3 88 108 87
3 110 109 89
3 89 109 88
3 111 110 90
3 90 110 89
3 112 111 91
3 91 111 90
3 113 112 92
3 92 112 91
3 114 113 93
3 93 113 92
3 115 114 94
3 94 114 93
3 116 115 95
3 95 115 94
3 117 116 96
3 96 116 95
3 118 117 97
3 97 117 96
3 119 118 98
3 98 118 97
3 120 119 99
3 99 119 98
3 101 121 80
3 80 121 100
3 121 120 100
3 100 120 99
3 123 122 161
3 125 124 123
3 127 126 125
3 129 128 127
3 131 130 129
3 133 132 131
3 135 134 133
3 137 136 135
3 139 138 137
3 141 140 139
3 143 142 141
3 145 144 143
3 147 146 145
3 149 148 147
3 151 150 149
3 153 152 151
3 155 154 153
3 157 156 155
3 159 158 157
3 161 160 159
3 125 123 161
3 129 127 125
3 133 131 129
3 137 135 133
3 141 139 137
3 145 143 141
3 149 147 145
3 153 151 149
3 157 155 153
3 161 159 157
3 129 125 161
3 137 133 129
3 145 141 137
3 153 149 145
3 161 157 153
3 137 129 161
3 153 145 137
3 137 161 153
3 201 162 163
3 163 164 165
3 165 166 167
3 167 168 169
3 169 170 171
3 171 172 173
3 173 174 175
3 175 176 177
3 177 178 179
3 179 180 181
3 181 182 183
3 183 184 185
3 185 186 187
3 187 188 189
3 189 190 191
3 191 192 193
3 193 194 195
3 195 196 197
3 197 198 199
3 199 200 201
3 201 163 165
3 165 167 169
3 169 171 173
3 173 175 177
3 177 179 181
3 181 183 185
3 185 187 189
3 189 191 193
3 193 195 197
3 197 199 201
3 201 165 169
3 169 173 177
3 177 181 185
3 185 189 193
3 193 197 201
3 201 169 177
3 177 185 193
3 193 201 177
3 163 162 123
3 123 162 122
3 164 163 124
3 124 163 123
3 165 164 125
3 125 164 124
3 166 165 126
3 126 165 125
3 167 166 127
3 127 166 126
3 168 167 128
3 128 167 127
3 169 168 129
3 129 168 128
3 170 169 130
3 130 169 129
3 171 170 131
3 131 170 130
3 172 171 132
3 132 171 131
3 173 172 133
3 133 172 132
3 174 173 134
3 134 173 133
3 175 174 135
3 135 174 134
3 176 175 136
3 136 175 135
3 177 176 137
3 137 176 136
3 178 177 138
3 138 177 137
3 179 178 139
3 139 178 138
3 180 179 140
3 140 179 139
3 181 180 141
3 141 180 140
3 182 181 142
3 142 181 141
3 183 182 143
3 143 182 142
3 184 183 144
3 144 183 143
3 185 184 145
3 145 184 144
3 186 185 146
3 146 185 145
3 187 186 147
3 147 186 146
3 188 187 148
3 148 187 147
3 189 188 149
3 149 188 148
3 190 189 150
3 150 189 149
3 191 190 151
3 151 190 150
3 192 191 152
3 152 191 151
3 193 192 153
3 153 192 152
3 194 193 154
3 154 193 153
3 195 194 155
3 155 194 154
3 196 195 156
3 156 195 155
3 197 196 157
3 157 196 156
3 198 197 158
3 158 197 157
3 199 198 159
3 159 198 158
3 200 199 160
3 160 199 159
3 162 201 122
3 122 201 161
3 201 200 161
3 161 200 160
3 203 202 222
3 205 204 203
3 207 206 205
3 209 208 207
3 211 210 209
3 213 212 211
3 215 214 213
3 217 216 215
3 219 218 217
3 221 220 219
3 203 222 221
3 207 205 203
3 211 209 207
3 215 213 211
3 219 217 215
3 203 221 219
3 211 207 203
3 219 215 211
3 211 203 219
3 243 223 224
3 224 225 226
3 226 227 228
3 228 229 230
3 230 231 232
3 232 233 234
3 234 235 236
3 236 237 238
3 238 239 240
3 240 241 242
3 242 243 224
3 224 226 228
3 228 230 232
3 232 234 236
3 236 238 240
3 240 242 224
3 224 228 232
3 232 236 240
3 240 224 232
3 224 223 203
3 203 223 202
3 225 224 204
3 204 224 203
3 226 225 205
3 205 225 204
3 227 226 206
3 206 226 205
3 228 227 207
3 207 227 206
3 229 228 208
3 208 228 207
3 230 229 209
3 209 229 208
3 231 230 210
3 210 230 209
3 232 231 211
3 211 231 210
3 233 232 212
3 212 232 211
3 234 233 213
3 213 233 212
3 235 234 214
3 214 234 213
3 236 235 215
3 215 235 214
3 237 236 216
3 216 236 215
3 238 237 217
3 217 237 216
3 239 238 218
3 218 238 217
3 240 239 219
3 219 239 218
3 241 240 220
3 220 240 219
3 242 241 221
3 221 241 220
3 223 243 202
3 202 243 222
3 243 242 222
3 222 242 221
3 245 244 270
3 247 246 245
3 249 248 247
3 251 250 249
3 253 252 251
3 255 254 253
3 257 256 255
3 259 258 257
3 261 260 259
3 263 262 261
3 265 264 263
3 267 266 265
3 269 268 267
3 245 270 269
3 249 247 245
3 253 251 249
3 257 255 253
3 261 259 257
3 265 263 261
3 269 267 265
3 249 245 269
3 257 253 249
3 265 261 257
3 249 269 265
3 265 257 249
3 297 271 272
3 272 273 274
3 274 275 276
3 276 277 278
3 278 279 280
3 280 281 282
3 282 283 284
3 284 285 286
3 286 287 288
3 288 289 290
3 290 291 292
3 292 293 294
3 294 295 296
3 296 297 272
3 272 274 276
3 276 278 280
3 280 282 284
3 284 286 288
3 288 290 292
3 292 294 296
3 296 272 276
3 276 280 284
3 284 288 292
3 292 296 276
3 276 284 292
3 272 271 245
3 245 271 244
3 273 272 246
3 246 272 245
3 274 273 247
3 247 273 246
3 275 274 248
3 248 274 247
3 276 275 249
3 249 275 248
3 277 276 250
3 250 276 249
3 278 277 251
3 251 277 250
3 279 278 252
3 252 278 251
3 280 279 253
3 253 279 252
3 281 280 254
3 254 280 253
3 282 281 255
3 255 281 254
3 283 282 256
3 256 282 255
3 284 283 257
3 257 283 256
3 285 284 258
3 258 284 257
3 286 285 259
3 259 285 258
3 287 286 260
3 260 286 259
3 288 287 261
3 261 287 260
3 289 288 262
3 262 288 261
3 290 289 263
3 263 289 262
3 291 290 264
3 264 290 263
3 292 291 265
3 265 291 264
3 293 292 266
3 266 292 265
3 294 293 267
3 267 293 266
3 295 294 268
3 268 294 267
3 296 295 269
3 269 295 268
3 271 297 244
3 244 297 270
3 297 296 270
3 270 296 269
3 299 298 337
3 301 300 299
3 303 302 301
3 305 304 303
3 307 306 305
3 309 308 307
3 311 310 309
3 313 312 311
3 315 314 313
3 317 316 315
3 319 318 317
3 321 320 319
3 323 322 321
3 325 324 323
3 327 326 325
3 329 328 327
3 331 330 329
3 333 332 331
3 335 334 333
3 337 336 335
3 301 299 337
3 305 303 301
3 309 307 305
3 313 311 309
3 317 315 313
3 321 319 317
3 325 323 321
3 329 327 325
3 333 331 329
3 337 335 333
3 305 301 337
3 313 309 305
3 321 317 313
3 329 325 321
3 337 333 329
3 313 305 337
3 329 321 313
3 313 337 329
3 377 338 339
3 339 340 341
3 341 342 343
3 343 344 345
3 345 346 347
3 347 348 349
3 349 350 351
3 351 352 353
3 353 354 355
3 355 356 357
3 357 358 359
3 359 360 361
3 361 362 363
3 363 364 365
3 365 366 367
3 367 368 369
3 369 370 371
3 371 372 373
3 373 374 375
3 375 376 377
3 377 339 341
3 341 343 345
3 345 347 349
3 349 351 353
3 353 355 357
3 357 359 361
3 361 363 365
3 365 367 369
3 369 371 373
3 373 375 377
3 377 341 345
3 345 349 353
3 353 357 361
3 361 365 369
3 369 373 377
3 377 345 353
3 353 361 369
3 369 377 353
3 339 338 299
3 299 338 298
3 340 339 300
3 300 339 299
3 341 340 301
3 301 340 300
3 342 341 302
3 302 341 301
3 343 342 303
3 303 342 302
3 344 343 304
3 304 343 303
3 345 344 305
3 305 344 304
3 346 345 306
3 306 345 305
3 347 346 307
3 307 346 306
3 348 347 308
3 308 347 307
3 349 348 309
3 309 348 308
3 350 349 310
3 310 349 309
3 351 350 311
3 311 350 310
3 352 351 312
3 312 351 311
3 353 352 313
3 313 352 312
3 354 353 314
3 314 353 313
3 355 354 315
3 315 354 314
3 356 355 316
3 316 355 315
3 357 356 317
3 317 356 316
3 358 357 318
3 318 357 317
3 359 358 319
3 319 358 318
3 360 359 320
3 320 359 319
3 361 360 321
3 321 360 320
3 362 361 322
3 322 361 321
3 363 362 323
3 323 362 322
3 364 363 324
3 324 363 323
3 365 364 325
3 325 364 324
3 366 365 326
3 326 365 325
3 367 366 327
3 327 366 326
3 368 367 328
3 328 367 327
3 369 368 329
3 329 368 328
3 370 369 330
3 330 369 329
3 371 370 331
3 331 370 330
3 372 371 332
3 332 371 331
3 373 372 333
3 333 372 332
3 374 373 334
3 334 373 333
3 375 374 335
3 335 374 334
3 376 375 336
3 336 375 335
3 338 377 298
3 298 377 337
3 377 376 337
3 337 376 336
3 379 378 417
3 381 380 379
3 383 382 381
3 385 384 383
3 387 386 385
3 389 388 387
3 391 390 389
3 393 392 391
3 395 394 393
3 397 396 395
3 399 398 397
3 401 400 399
3 403 402 401
3 405 404 403
3 407 406 405
3 409 408 407
3 411 410 409
3 413 412 411
3 415 414 413
3 417 416 415
3 381 379 417
3 385 383 381
3 389 387 385
3 393 391 389
3 397 395 393
3 401 399 397
3 405 403 401
3 409 407 405
3 413 411 409
3 417 415 413
3 385 381 417
3 393 389 385
3 401 397 393
3 409 405 401
3 417 413 409
3 393 385 417
3 409 401 393
3 393 417 409
3 457 418 419
3 419 420 421
3 421 422 423
3 423 424 425
3 425 426 427
3 427 428 429
3 429 430 431
3 431 432 433
3 433 434 435
3 435 436 437
3 437 438 439
3 439 440 441
3 441 442 443
3 443 444 445
3 445 446 447
3 447 448 449
3 449 450 451
3 451 452 453
3 453 454 455
3 455 456 457
3 457 419 421
3 421 423 425
3 425 427 429
3 429 431 433
3 433 435 437
3 437 439 441
3 441 443 445
3 445 447 449
3 449 451 453
3 453 455 457
3 457 421 425
3 425 429 433
3 433 437 441
3 441 445 449
3 449 453 457
3 457 425 433
3 433 441 449
3 449 457 433
3 419 418 379
3 379 418 378
3 420 419 380
3 380 419 379
3 421 420 381
3 381 420 380
3 422 421 382
3 382 421 381
3 423 422 383
3 383 422 382
3 424 423 384
3 384 423 383
3 425 424 385
3 385 424 384
3 426 425 386
3 386 425 385
3 427 426 387
3 387 426 386
3 428 427 388
3 388 427 387
3 429 428 389
3 389 428 388
3 430 429 390
3 390 429 389
3 431 430 391
3 391 430 390
3 432 431 392
3 392 431 391
3 433 432 393
3 393 432 392
3 434 433 394
3 394 433 393
3 435 434 395
3 395 434 394
3 436 435 396
3 396 435 395
3 437 436 397
3 397 436 396
3 438 437 398
3 398 437 397
3 439 438 399
3 399 438 398
3 440 439 400
3 400 439 399
3 441 440 401
3 401 440 400
3 442 441 402
3 402 441 401
3 443 442 403
3 403 442 402
3 444 443 404
3 404 443 403
3 445 444 405
3 405 444 404
3 446 445 406
3 406 445 405
3 447 446 407
3 407 446 406
3 448 447 408
3 408 447 407
3 449 448 409
3 409 448 408
3 450 449 410
3 410 449 409
3 451 450 411
3 411 450 410
3 452 451 412
3 412 451 411
3 453 452 413
3 413 452 412
3 454 453 414
3 414 453 413
3 455 454 415
3 415 454 414
3 456 455 416
3 416 455 415
3 418 457 378
3 378 457 417
3 457 456 417
3 417 456 416
