ply
format ascii 1.0
comment https://github.com/mikedh/trimesh
element vertex 256
property float x
property float y
property float z
element face 496
property list uchar int vertex_indices
end_header
-0.18454842 0.00000000 0.00000000
-0.18458602 0.00000000 0.00142178
-0.18488675 0.00000000 0.00402940
-0.18548825 0.00000000 0.00632245
-0.18639049 0.00000000 0.00830093
-0.18695439 0.00000000 0.00917220
-0.18758397 0.00000000 0.00995215
-0.18901165 0.00000000 0.01120008
-0.19066404 0.00000000 0.01203203
-0.19254111 0.00000000 0.01244800
-0.19356391 0.00000000 0.01250000
-0.19458887 0.00000000 0.01244800
-0.19646940 0.00000000 0.01203203
-0.19812408 0.00000000 0.01120008
-0.19955291 0.00000000 0.00995215
-0.20018263 0.00000000 0.00917220
-0.20074654 0.00000000 0.00830093
-0.20164877 0.00000000 0.00632245
-0.20225027 0.00000000 0.00402940
-0.20255102 0.00000000 0.00142178
-0.20258862 0.00000000 0.00000000
-0.20255102 0.00000000 -0.00142178
-0.20225027 0.00000000 -0.00402940
-0.20164877 0.00000000 -0.00632245
-0.20074654 0.00000000 -0.00830093
-0.20018263 0.00000000 -0.00917220
-0.19955291 0.00000000 -0.00995215
-0.19812408 0.00000000 -0.01120008
-0.19646940 0.00000000 -0.01203203
-0.19458887 0.00000000 -0.01244800
-0.19356391 0.00000000 -0.01250000
-0.19254111 0.00000000 -0.01244800
-0.19066404 0.00000000 -0.01203203
-0.18901165 0.00000000 -0.01120008
-0.18758397 0.00000000 -0.00995215
-0.18695439 0.00000000 -0.00917220
-0.18639049 0.00000000 -0.00830093
-0.18548825 0.00000000 -0.00632245
-0.18488675 0.00000000 -0.00402940
-0.18458602 0.00000000 -0.00142178
-0.18454842 -0.00176991 0.00000000
-0.18458602 -0.00176991 0.00142178
-0.18488675 -0.00176991 0.00402940
-0.18548825 -0.00176991 0.00632245
-0.18639049 -0.00176991 0.00830093
-0.18695439 -0.00176991 0.00917220
-0.18758397 -0.00176991 0.00995215
-0.18901165 -0.00176991 0.01120008
-0.19066404 -0.00176991 0.01203203
-0.19254111 -0.00176991 0.01244800
-0.19356391 -0.00176991 0.01250000
-0.19458887 -0.00176991 0.01244800
-0.19646940 -0.00176991 0.01203203
-0.19812408 -0.00176991 0.01120008
-0.19955291 -0.00176991 0.00995215
-0.20018263 -0.00176991 0.00917220
-0.20074654 -0.00176991 0.00830093
-0.20164877 -0.00176991 0.00632245
-0.20225027 -0.00176991 0.00402940
-0.20255102 -0.00176991 0.00142178
-0.20258862 -0.00176991 0.00000000
-0.20255102 -0.00176991 -0.00142178
-0.20225027 -0.00176991 -0.00402940
-0.20164877 -0.00176991 -0.00632245
-0.20074654 -0.00176991 -0.00830093
-0.20018263 -0.00176991 -0.00917220
-0.19955291 -0.00176991 -0.00995215
-0.19812408 -0.00176991 -0.01120008
-0.19646940 -0.00176991 -0.01203203
-0.19458887 -0.00176991 -0.01244800
-0.19356391 -0.00176991 -0.01250000
-0.19254111 -0.00176991 -0.01244800
-0.19066404 -0.00176991 -0.01203203
-0.18901165 -0.00176991 -0.01120008
-0.18758397 -0.00176991 -0.00995215
-0.18695439 -0.00176991 -0.00917220
-0.18639049 -0.00176991 -0.00830093
-0.18548825 -0.00176991 -0.00632245
-0.18488675 -0.00176991 -0.00402940
-0.18458602 -0.00176991 -0.00142178
-0.00407736 0.00000000 0.00040560
-0.00411453 0.00000000 0.00180534
-0.00441182 0.00000000 0.00436111
-0.00500640 0.00000000 0.00659194
-0.00589826 0.00000000 0.00849782
-0.00645568 0.00000000 0.00932891
-0.00707806 0.00000000 0.01007213
-0.00850344 0.00000000 0.01126129
-0.01016965 0.00000000 0.01205407
-0.01207668 0.00000000 0.01245045
-0.01312051 0.00000000 0.01250000
-0.01415583 0.00000000 0.01245045
-0.01605019 0.00000000 0.01205407
-0.01770949 0.00000000 0.01126129
-0.01913371 0.00000000 0.01007213
-0.01975768 0.00000000 0.00932891
-0.02031509 0.00000000 0.00849782
-0.02120696 0.00000000 0.00659194
-0.02180154 0.00000000 0.00436111
-0.02209883 0.00000000 0.00180534
-0.02213599 0.00000000 0.00040560
-0.02209883 0.00000000 -0.00098780
-0.02180154 0.00000000 -0.00353435
-0.02120696 0.00000000 -0.00576057
-0.02031509 0.00000000 -0.00766645
-0.01975768 0.00000000 -0.00849926
-0.01913371 0.00000000 -0.00924249
-0.01770949 0.00000000 -0.01043165
-0.01605019 0.00000000 -0.01122442
-0.01415583 0.00000000 -0.01162081
-0.01312051 0.00000000 -0.01167035
-0.01207668 0.00000000 -0.01162081
-0.01016965 0.00000000 -0.01122442
-0.00850344 0.00000000 -0.01043165
-0.00707806 0.00000000 -0.00924249
-0.00645568 0.00000000 -0.00849926
-0.00589826 0.00000000 -0.00766645
-0.00500640 0.00000000 -0.00576057
-0.00441182 0.00000000 -0.00353435
-0.00411453 0.00000000 -0.00098780
-0.00407736 -0.00176991 0.00040560
-0.00411453 -0.00176991 0.00180534
-0.00441182 -0.00176991 0.00436111
-0.00500640 -0.00176991 0.00659194
-0.00589826 -0.00176991 0.00849782
-0.00645568 -0.00176991 0.00932891
-0.00707806 -0.00176991 0.01007213
-0.00850344 -0.00176991 0.01126129
-0.01016965 -0.00176991 0.01205407
-0.01207668 -0.00176991 0.01245045
-0.01312051 -0.00176991 0.01250000
-0.01415583 -0.00176991 0.01245045
-0.01605019 -0.00176991 0.01205407
-0.01770949 -0.00176991 0.01126129
-0.01913371 -0.00176991 0.01007213
-0.01975768 -0.00176991 0.00932891
-0.02031509 -0.00176991 0.00849782
-0.02120696 -0.00176991 0.00659194
-0.02180154 -0.00176991 0.00436111
-0.02209883 -0.00176991 0.00180534
-0.02213599 -0.00176991 0.00040560
-0.02209883 -0.00176991 -0.00098780
-0.02180154 -0.00176991 -0.00353435
-0.02120696 -0.00176991 -0.00576057
-0.02031509 -0.00176991 -0.00766645
-0.01975768 -0.00176991 -0.00849926
-0.01913371 -0.00176991 -0.00924249
-0.01770949 -0.00176991 -0.01043165
-0.01605019 -0.00176991 -0.01122442
-0.01415583 -0.00176991 -0.01162081
-0.01312051 -0.00176991 -0.01167035
-0.01207668 -0.00176991 -0.01162081
-0.01016965 -0.00176991 -0.01122442
-0.00850344 -0.00176991 -0.01043165
-0.00707806 -0.00176991 -0.00924249
-0.00645568 -0.00176991 -0.00849926
-0.00589826 -0.00176991 -0.00766645
-0.00500640 -0.00176991 -0.00576057
-0.00441182 -0.00176991 -0.00353435
-0.00411453 -0.00176991 -0.00098780
0.10133262 0.00000000 0.00011062
0.09836663 0.00000000 0.00001901
0.09484237 0.00000000 -0.00046192
0.09310933 0.00000000 -0.00101156
0.09242775 0.00000000 -0.00135509
0.09184657 0.00000000 -0.00175407
0.09091667 0.00000000 -0.00274734
0.09029675 0.00000000 -0.00400103
0.08998678 0.00000000 -0.00551513
0.08994803 0.00000000 -0.00636984
0.09006441 0.00000000 -0.00770764
0.09099546 0.00000000 -0.00994769
0.09181013 0.00000000 -0.01084993
0.09282414 0.00000000 -0.01157183
0.09534995 0.00000000 -0.01239687
0.09686175 0.00000000 -0.01250000
0.09793827 0.00000000 -0.01245117
0.09992712 0.00000000 -0.01206055
0.10169703 0.00000000 -0.01127930
0.10324801 0.00000000 -0.01010742
0.10394140 0.00000000 -0.00937500
0.10456579 0.00000000 -0.00856163
0.10556483 0.00000000 -0.00674217
0.10623084 0.00000000 -0.00466575
0.10656385 0.00000000 -0.00233237
0.10660548 0.00000000 -0.00106932
0.10660548 0.00000000 0.00011062
0.10133262 -0.00176991 0.00011062
0.09836663 -0.00176991 0.00001901
0.09484237 -0.00176991 -0.00046192
0.09310933 -0.00176991 -0.00101156
0.09242775 -0.00176991 -0.00135509
0.09184657 -0.00176991 -0.00175407
0.09091667 -0.00176991 -0.00274734
0.09029675 -0.00176991 -0.00400103
0.08998678 -0.00176991 -0.00551513
0.08994803 -0.00176991 -0.00636984
0.09006441 -0.00176991 -0.00770764
0.09099546 -0.00176991 -0.00994769
0.09181013 -0.00176991 -0.01084993
0.09282414 -0.00176991 -0.01157183
0.09534995 -0.00176991 -0.01239687
0.09686175 -0.00176991 -0.01250000
0.09793827 -0.00176991 -0.01245117
0.09992712 -0.00176991 -0.01206055
0.10169703 -0.00176991 -0.01127930
0.10324801 -0.00176991 -0.01010742
0.10394140 -0.00176991 -0.00937500
0.10456579 -0.00176991 -0.00856163
0.10556483 -0.00176991 -0.00674217
0.10623084 -0.00176991 -0.00466575
0.10656385 -0.00176991 -0.00233237
0.10660548 -0.00176991 -0.00106932
0.10660548 -0.00176991 0.00011062
0.20258862 0.00000000 0.00291298
0.20253849 0.00000000 0.00397107
0.20222045 0.00000000 0.00592304
0.20161206 0.00000000 0.00765608
0.20071326 0.00000000 0.00917018
0.20015498 0.00000000 0.00984513
0.19953635 0.00000000 0.01045440
0.19815476 0.00000000 0.01142924
0.19658074 0.00000000 0.01207913
0.19481428 0.00000000 0.01240407
0.19385889 0.00000000 0.01244469
0.19277805 0.00000000 0.01240551
0.19078229 0.00000000 0.01209209
0.18900776 0.00000000 0.01146525
0.18745449 0.00000000 0.01052498
0.18676081 0.00000000 0.00993732
0.18613008 0.00000000 0.00927850
0.18508035 0.00000000 0.00776900
0.18431292 0.00000000 0.00600370
0.18382780 0.00000000 0.00398259
0.18369111 0.00000000 0.00287611
0.20258862 -0.00176991 0.00291298
0.20253849 -0.00176991 0.00397107
0.20222045 -0.00176991 0.00592304
0.20161206 -0.00176991 0.00765608
0.20071326 -0.00176991 0.00917018
0.20015498 -0.00176991 0.00984513
0.19953635 -0.00176991 0.01045440
0.19815476 -0.00176991 0.01142924
0.19658074 -0.00176991 0.01207913
0.19481428 -0.00176991 0.01240407
0.19385889 -0.00176991 0.01244469
0.19277805 -0.00176991 0.01240551
0.19078229 -0.00176991 0.01209209
0.18900776 -0.00176991 0.01146525
0.18745449 -0.00176991 0.01052498
0.18676081 -0.00176991 0.00993732
0.18613008 -0.00176991 0.00927850
0.18508035 -0.00176991 0.00776900
0.18431292 -0.00176991 0.00600370
0.18382780 -0.00176991 0.00398259
0.18369111 -0.00176991 0.00287611
3 1 0 39
3 3 2 1
3 5 4 3
3 7 6 5
3 9 8 7
3 11 10 9
3 13 12 11
3 15 14 13
3 17 16 15
3 19 18 17
3 21 20 19
3 23 22 21
3 25 24 23
3 27 26 25
3 29 28 27
3 31 30 29
3 33 32 31
3 35 34 33
3 37 36 35
3 39 38 37
3 3 1 39
3 7 5 3
3 11 9 7
3 15 13 11
3 19 17 15
3 23 21 19
3 27 25 23
3 31 29 27
3 35 33 31
3 39 37 35
3 7 3 39
3 15 11 7
3 23 19 15
3 31 27 23
3 39 35 31
3 15 7 39
3 31 23 15
3 15 39 31
3 79 40 41
3 41 42 43
3 43 44 45
3 45 46 47
3 47 48 49
3 49 50 51
3 51 52 53
3 53 54 55
3 55 56 57
3 57 58 59
3 59 60 61
3 61 62 63
3 63 64 65
3 65 66 67
3 67 68 69
3 69 70 71
3 71 72 73
3 73 74 75
3 75 76 77
3 77 78 79
3 79 41 43
3 43 45 47
3 47 49 51
3 51 53 55
3 55 57 59
3 59 61 63
3 63 65 67
3 67 69 71
3 71 73 75
3 75 77 79
3 79 43 47
3 47 51 55
3 55 59 63
3 63 67 71
3 71 75 79
3 79 47 55
3 55 63 71
3 71 79 55
3 41 40 1
3 1 40 0
3 42 41 2
3 2 41 1
3 43 42 3
3 3 42 2
3 44 43 4
3 4 43 3
3 45 44 5
3 5 44 4
3 46 45 6
3 6 45 5
3 47 46 7
3 7 46 6
3 48 47 8
3 8 47 7
3 49 48 9
3 9 48 8
3 50 49 10
3 10 49 9
3 51 50 11
3 11 50 10
3 52 51 12
3 12 51 11
3 53 52 13
3 13 52 12
3 54 53 14
3 14 53 13
3 55 54 15
3 15 54 14
3 56 55 16
3 16 55 15
3 57 56 17
3 17 56 16
3 58 57 18
3 18 57 17
3 59 58 19
3 19 58 18
3 60 59 20
3 20 59 19
3 61 60 21
3 21 60 20
3 62 61 22
3 22 61 21
3 63 62 23
3 23 62 22
3 64 63 24
3 24 63 23
3 65 64 25
3 25 64 24
3 66 65 26
3 26 65 25
3 67 66 27
3 27 66 26
3 68 67 28
3 28 67 27
3 69 68 29
3 29 68 28
3 70 69 30
3 30 69 29
3 71 70 31
3 31 70 30
3 72 71 32
3 32 71 31
3 73 72 33
3 33 72 32
3 74 73 34
3 34 73 33
3 75 74 35
3 35 74 34
3 76 75 36
3 36 75 35
3 77 76 37
3 37 76 36
3 78 77 38
3 38 77 37
3 40 79 0
3 0 79 39
3 79 78 39
3 39 78 38
3 81 80 119
3 83 82 81
3 85 84 83
3 87 86 85
3 89 88 87
3 91 90 89
3 93 92 91
3 95 94 93
3 97 96 95
3 99 98 97
3 101 100 99
3 103 102 101
3 105 104 103
3 107 106 105
3 109 108 107
3 111 110 109
3 113 112 111
3 115 114 113
3 117 116 115
3 119 118 117
3 83 81 119
3 87 85 83
3 91 89 87
3 95 93 91
3 99 97 95
3 103 101 99
3 107 105 103
3 111 109 107
3 115 113 111
3 119 117 115
3 87 83 119
3 95 91 87
3 103 99 95
3 111 107 103
3 119 115 111
3 95 87 119
3 111 103 95
3 95 119 111
3 159 120 121
3 121 122 123
3 123 124 125
3 125 126 127
3 127 128 129
3 129 130 131
3 131 132 133
3 133 134 135
3 135 136 137
3 137 138 139
3 139 140 141
3 141 142 143
3 143 144 145
3 145 146 147
3 147 148 149
3 149 150 151
3 151 152 153
3 153 154 155
3 155 156 157
3 157 158 159
3 159 121 123
3 123 125 127
3 127 129 131
3 131 133 135
3 135 137 139
3 139 141 143
3 143 145 147
3 147 149 151
3 151 153 155
3 155 157 159
3 159 123 127
3 127 131 135
3 135 139 143
3 143 147 151
3 151 155 159
3 159 127 135
3 135 143 151
3 151 159 135
3 121 120 81
3 81 120 80
3 122 121 82
3 82 121 81
3 123 122 83
3 83 122 82
3 124 123 84
3 84 123 83
3 125 124 85
3 85 124 84
3 126 125 86
3 86 125 85
3 127 126 87
3 87 126 86
3 128 127 88
3 88 127 87
3 129 128 89
3 89 128 88
3 130 129 90
3 90 129 89
3 131 130 91
3 91 130 90
3 132 131 92
3 92 131 91
3 133 132 93
3 93 132 92
3 134 133 94
3 94 133 93
3 135 134 95
3 95 134 94
3 136 135 96
3 96 135 95
3 137 136 97
3 97 136 96
3 138 137 98
3 98 137 97
3 139 138 99
3 99 138 98
3 140 139 100
3 100 139 99
3 141 140 101
3 101 140 100
3 142 141 102
3 102 141 101
3 143 142 103
3 103 142 102
3 144 143 104
3 104 143 103
3 145 144 105
3 105 144 104
3 146 145 106
3 106 145 105
3 147 146 107
3 107 146 106
3 148 147 108
3 108 147 107
3 149 148 109
3 109 148 108
3 150 149 110
3 110 149 109
3 151 150 111
3 111 150 110
3 152 151 112
3 112 151 111
3 153 152 113
3 113 152 112
3 154 153 114
3 114 153 113
3 155 154 115
3 115 154 114
3 156 155 116
3 116 155 115
3 157 156 117
3 117 156 116
3 158 157 118
3 118 157 117
3 120 159 80
3 80 159 119
3 159 158 119
3 119 158 118
3 161 160 186
3 163 162 161
3 165 164 163
3 167 166 165
3 169 168 167
3 171 170 169
3 173 172 171
3 175 174 173
3 177 176 175
3 179 178 177
3 181 180 179
3 183 182 181
3 185 184 183
3 161 186 185
3 165 163 161
3 169 167 165
3 173 171 169
3 177 175 173
3 181 179 177
3 185 183 181
3 165 161 185
3 173 169 165
3 181 177 173
3 165 185 181
3 181 173 165
3 213 187 188
3 188 189 190
3 190 191 192
3 192 193 194
3 194 195 196
3 196 197 198
3 198 199 200
3 200 201 202
3 202 203 204
3 204 205 206
3 206 207 208
3 208 209 210
3 210 211 212
3 212 213 188
3 188 190 192
3 192 194 196
3 196 198 200
3 200 202 204
3 204 206 208
3 208 210 212
3 212 188 192
3 192 196 200
3 200 204 208
3 208 212 192
3 192 200 208
3 188 187 161
3 161 187 160
3 189 188 162
3 162 188 161
3 190 189 163
3 163 189 162
3 191 190 164
3 164 190 163
3 192 191 165
3 165 191 164
3 193 192 166
3 166 192 165
3 194 193 167
3 167 193 166
3 195 194 168
3 168 194 167
3 196 195 169
3 169 195 168
3 197 196 170
3 170 196 169
3 198 197 171
3 171 197 170
3 199 198 172
3 172 198 171
3 200 199 173
3 173 199 172
3 201 200 174
3 174 200 173
3 202 201 175
3 175 201 174
3 203 202 176
3 176 202 175
3 204 203 177
3 177 203 176
3 205 204 178
3 178 204 177
3 206 205 179
3 179 205 178
3 207 206 180
3 180 206 179
3 208 207 181
3 181 207 180
3 209 208 182
3 182 208 181
3 210 209 183
3 183 209 182
3 211 210 184
3 184 210 183
3 212 211 185
3 185 211 184
3 187 213 160
3 160 213 186
3 213 212 186
3 186 212 185
3 215 214 234
3 217 216 215
3 219 218 217
3 221 220 219
3 223 222 221
3 225 224 223
3 227 226 225
3 229 228 227
3 231 230 229
3 233 232 231
3 215 234 233
3 219 217 215
3 223 221 219
3 227 225 223
3 231 229 227
3 215 233 231
3 223 219 215
3 231 227 223
3 223 215 231
3 255 235 236
3 236 237 238
3 238 239 240
3 240 241 242
3 242 243 244
3 244 245 246
3 246 247 248
3 248 249 250
3 250 251 252
3 252 253 254
3 254 255 236
3 236 238 240
3 240 242 244
3 244 246 248
3 248 250 252
3 252 254 236
3 236 240 244
3 244 248 252
3 252 236 244
3 236 235 215
3 215 235 214
3 237 236 216
3 216 236 215
3 238 237 217
3 217 237 216
3 239 238 218
3 218 238 217
3 240 239 219
3 219 239 218
3 241 240 220
3 220 240 219
3 242 241 221
3 221 241 220
3 243 242 222
3 222 242 221
3 244 243 223
3 223 243 222
3 245 244 224
3 224 244 223
3 246 245 225
3 225 245 224
3 247 246 226
3 226 246 225
3 248 247 227
3 227 247 226
3 249 248 228
3 228 248 227
3 250 249 229
3 229 249 228
3 251 250 230
3 230 250 229
3 252 251 231
3 231 251 230
3 253 252 232
3 232 252 231
3 254 253 233
3 233 253 232
3 235 255 214
3 214 255 234
3 255 254 234
3 234 254 233
