ply
format ascii 1.0
comment https://github.com/mikedh/trimesh
element vertex 652
property float x
property float y
property float z
element face 1280
property list uchar int vertex_indices
end_header
0.05303403 0.00000000 0.01062068
0.05519190 -0.00000000 0.01062068
0.05575197 -0.00000000 0.01059003
0.05659550 -0.00000000 0.01034482
0.05687897 -0.00000000 0.01013026
0.05708495 -0.00000000 0.00983600
0.05732036 -0.00000000 0.00895323
0.05734978 -0.00000000 0.00836472
0.05734978 -0.00000000 0.00715239
0.05363431 0.00000000 0.00715239
0.05363431 0.00000000 0.00539862
0.05734978 -0.00000000 0.00539862
0.05734978 0.00000000 -0.00657957
0.05961752 0.00000000 -0.00657957
0.05961752 -0.00000000 0.00539862
0.06177539 -0.00000000 0.00539862
0.06177539 -0.00000000 0.00715239
0.05961752 -0.00000000 0.00715239
0.05961752 -0.00000000 0.00810970
0.05960084 -0.00000000 0.00866308
0.05946745 -0.00000000 0.00965326
0.05920065 -0.00000000 0.01048796
0.05880047 -0.00000000 0.01116720
0.05855035 -0.00000000 0.01144852
0.05826406 -0.00000000 0.01169496
0.05757452 -0.00000000 0.01208927
0.05672903 -0.00000000 0.01235214
0.05572757 -0.00000000 0.01248357
0.05516836 -0.00000000 0.01250000
0.05303403 -0.00000000 0.01250000
0.05303403 0.00075330 0.01062068
0.05519190 0.00075330 0.01062068
0.05575197 0.00075330 0.01059003
0.05659550 0.00075330 0.01034482
0.05687897 0.00075330 0.01013026
0.05708495 0.00075330 0.00983600
0.05732036 0.00075330 0.00895323
0.05734978 0.00075330 0.00836472
0.05734978 0.00075330 0.00715239
0.05363431 0.00075330 0.00715239
0.05363431 0.00075330 0.00539862
0.05734978 0.00075330 0.00539862
0.05734978 0.00075330 -0.00657957
0.05961752 0.00075330 -0.00657957
0.05961752 0.00075330 0.00539862
0.06177539 0.00075330 0.00539862
0.06177539 0.00075330 0.00715239
0.05961752 0.00075330 0.00715239
0.05961752 0.00075330 0.00810970
0.05960084 0.00075330 0.00866308
0.05946745 0.00075330 0.00965326
0.05920065 0.00075330 0.01048796
0.05880047 0.00075330 0.01116720
0.05855035 0.00075330 0.01144852
0.05826406 0.00075330 0.01169496
0.05757452 0.00075330 0.01208927
0.05672903 0.00075330 0.01235214
0.05572757 0.00075330 0.01248357
0.05516836 0.00075330 0.01250000
0.05303403 0.00075330 0.01250000
0.04358693 0.00000000 0.00523580
0.04401753 0.00000000 0.00536723
0.04448736 0.00000000 0.00544668
0.04500230 0.00000000 0.00547316
0.04546705 0.00000000 0.00545373
0.04631303 0.00000000 0.00529827
0.04704769 0.00000000 0.00498733
0.04767102 0.00000000 0.00452094
0.04794094 0.00000000 0.00422944
0.04818095 0.00000000 0.00390153
0.04856495 0.00000000 0.00314382
0.04882095 0.00000000 0.00225026
0.04894895 0.00000000 0.00122086
0.04896495 0.00000000 0.00065521
0.04896495 0.00000000 -0.00657957
0.05123269 0.00000000 -0.00657957
0.05123269 0.00000000 0.00715239
0.04896495 0.00000000 0.00715239
0.04896495 0.00000000 0.00501805
0.04858144 0.00000000 0.00560337
0.04765552 0.00000000 0.00653126
0.04711310 0.00000000 0.00687382
0.04651159 0.00000000 0.00713988
0.04512466 0.00000000 0.00744394
0.04433925 0.00000000 0.00748195
0.04409502 0.00000000 0.00747411
0.04382528 0.00000000 0.00745056
0.04352808 0.00000000 0.00741427
0.04320146 0.00000000 0.00736033
0.04318969 0.00000000 0.00504551
0.04358693 0.00075330 0.00523580
0.04401753 0.00075330 0.00536723
0.04448736 0.00075330 0.00544668
0.04500230 0.00075330 0.00547316
0.04546705 0.00075330 0.00545373
0.04631303 0.00075330 0.00529827
0.04704769 0.00075330 0.00498733
0.04767102 0.00075330 0.00452094
0.04794094 0.00075330 0.00422944
0.04818095 0.00075330 0.00390153
0.04856495 0.00075330 0.00314382
0.04882095 0.00075330 0.00225026
0.04894895 0.00075330 0.00122086
0.04896495 0.00075330 0.00065521
0.04896495 0.00075330 -0.00657957
0.05123269 0.00075330 -0.00657957
0.05123269 0.00075330 0.00715239
0.04896495 0.00075330 0.00715239
0.04896495 0.00075330 0.00501805
0.04858144 0.00075330 0.00560337
0.04765552 0.00075330 0.00653126
0.04711310 0.00075330 0.00687382
0.04651159 0.00075330 0.00713988
0.04512466 0.00075330 0.00744394
0.04433925 0.00075330 0.00748195
0.04409502 0.00075330 0.00747411
0.04382528 0.00075330 0.00745056
0.04352808 0.00075330 0.00741427
0.04320146 0.00075330 0.00736033
0.04318969 0.00075330 0.00504551
0.03008058 0.00000000 -0.00657957
0.03233654 0.00000000 -0.00657957
0.03233654 0.00000000 -0.00449623
0.03274678 0.00000000 -0.00507935
0.03370998 0.00000000 -0.00600135
0.03426294 0.00000000 -0.00634024
0.03487180 0.00000000 -0.00660115
0.03628227 0.00000000 -0.00689933
0.03708387 0.00000000 -0.00693660
0.03759716 0.00000000 -0.00691808
0.03854320 0.00000000 -0.00676998
0.03938183 0.00000000 -0.00647376
0.04011305 0.00000000 -0.00602943
0.04043839 0.00000000 -0.00575173
0.04072989 0.00000000 -0.00544300
0.04119629 0.00000000 -0.00475052
0.04150722 0.00000000 -0.00395799
0.04166268 0.00000000 -0.00306541
0.04168212 0.00000000 -0.00258161
0.04165790 0.00000000 -0.00202068
0.04146418 0.00000000 -0.00100550
0.04107675 0.00000000 -0.00013254
0.04049559 0.00000000 0.00059820
0.04013237 0.00000000 0.00091023
0.03972016 0.00000000 0.00118610
0.03875304 0.00000000 0.00162748
0.03759563 0.00000000 0.00192174
0.03624794 0.00000000 0.00206887
0.03550274 0.00000000 0.00208726
0.03233654 0.00000000 0.00208726
0.03233654 0.00000000 0.00231089
0.03235254 0.00000000 0.00268926
0.03248054 0.00000000 0.00337978
0.03273654 0.00000000 0.00398202
0.03312055 0.00000000 0.00449599
0.03336055 0.00000000 0.00471987
0.03362949 0.00000000 0.00491941
0.03424498 0.00000000 0.00523868
0.03536223 0.00000000 0.00551804
0.03623642 0.00000000 0.00557125
0.03682125 0.00000000 0.00555359
0.03796885 0.00000000 0.00541235
0.03853161 0.00000000 0.00528876
0.03908334 0.00000000 0.00512986
0.04015443 0.00000000 0.00470614
0.04067380 0.00000000 0.00444131
0.04067380 0.00000000 0.00652856
0.03945558 0.00000000 0.00694641
0.03827267 0.00000000 0.00724262
0.03712311 0.00000000 0.00742212
0.03600493 0.00000000 0.00748195
0.03528308 0.00000000 0.00745780
0.03398100 0.00000000 0.00726457
0.03286773 0.00000000 0.00687811
0.03194328 0.00000000 0.00629843
0.03155186 0.00000000 0.00593613
0.03120703 0.00000000 0.00552570
0.03065530 0.00000000 0.00455515
0.03028748 0.00000000 0.00338499
0.03010357 0.00000000 0.00201523
0.03008058 0.00000000 0.00125549
0.03584309 0.00000000 0.00028273
0.03734306 0.00000000 0.00007804
0.03808067 0.00000000 -0.00015589
0.03837075 0.00000000 -0.00030210
0.03861811 0.00000000 -0.00047191
0.03901388 0.00000000 -0.00089466
0.03927774 0.00000000 -0.00142825
0.03940966 0.00000000 -0.00207267
0.03942615 0.00000000 -0.00243644
0.03937662 0.00000000 -0.00300583
0.03898035 0.00000000 -0.00395922
0.03863362 0.00000000 -0.00434322
0.03820205 0.00000000 -0.00465047
0.03712703 0.00000000 -0.00500162
0.03648359 0.00000000 -0.00504551
0.03602541 0.00000000 -0.00502473
0.03517893 0.00000000 -0.00485848
0.03442563 0.00000000 -0.00452597
0.03376552 0.00000000 -0.00402720
0.03347041 0.00000000 -0.00371547
0.03320466 0.00000000 -0.00336929
0.03277946 0.00000000 -0.00259491
0.03249599 0.00000000 -0.00171116
0.03235426 0.00000000 -0.00071805
0.03233654 0.00000000 -0.00018048
0.03233654 0.00000000 0.00032172
0.03458073 0.00000000 0.00032172
0.03008058 0.00075330 -0.00657957
0.03233654 0.00075330 -0.00657957
0.03233654 0.00075330 -0.00449623
0.03274678 0.00075330 -0.00507935
0.03370998 0.00075330 -0.00600135
0.03426294 0.00075330 -0.00634024
0.03487180 0.00075330 -0.00660115
0.03628227 0.00075330 -0.00689933
0.03708387 0.00075330 -0.00693660
0.03759716 0.00075330 -0.00691808
0.03854320 0.00075330 -0.00676998
0.03938183 0.00075330 -0.00647376
0.04011305 0.00075330 -0.00602943
0.04043839 0.00075330 -0.00575173
0.04072989 0.00075330 -0.00544300
0.04119629 0.00075330 -0.00475052
0.04150722 0.00075330 -0.00395799
0.04166268 0.00075330 -0.00306541
0.04168212 0.00075330 -0.00258161
0.04165790 0.00075330 -0.00202068
0.04146418 0.00075330 -0.00100550
0.04107675 0.00075330 -0.00013254
0.04049559 0.00075330 0.00059820
0.04013237 0.00075330 0.00091023
0.03972016 0.00075330 0.00118610
0.03875304 0.00075330 0.00162748
0.03759563 0.00075330 0.00192174
0.03624794 0.00075330 0.00206887
0.03550274 0.00075330 0.00208726
0.03233654 0.00075330 0.00208726
0.03233654 0.00075330 0.00231089
0.03235254 0.00075330 0.00268926
0.03248054 0.00075330 0.00337978
0.03273654 0.00075330 0.00398202
0.03312055 0.00075330 0.00449599
0.03336055 0.00075330 0.00471987
0.03362949 0.00075330 0.00491941
0.03424498 0.00075330 0.00523868
0.03536223 0.00075330 0.00551804
0.03623642 0.00075330 0.00557125
0.03682125 0.00075330 0.00555359
0.03796885 0.00075330 0.00541235
0.03853161 0.00075330 0.00528876
0.03908334 0.00075330 0.00512986
0.04015443 0.00075330 0.00470614
0.04067380 0.00075330 0.00444131
0.04067380 0.00075330 0.00652856
0.03945558 0.00075330 0.00694641
0.03827267 0.00075330 0.00724262
0.03712311 0.00075330 0.00742212
0.03600493 0.00075330 0.00748195
0.03528308 0.00075330 0.00745780
0.03398100 0.00075330 0.00726457
0.03286773 0.00075330 0.00687811
0.03194328 0.00075330 0.00629843
0.03155186 0.00075330 0.00593613
0.03120703 0.00075330 0.00552570
0.03065530 0.00075330 0.00455515
0.03028748 0.00075330 0.00338499
0.03010357 0.00075330 0.00201523
0.03008058 0.00075330 0.00125549
0.03584309 0.00075330 0.00028273
0.03734306 0.00075330 0.00007804
0.03808067 0.00075330 -0.00015589
0.03837075 0.00075330 -0.00030210
0.03861811 0.00075330 -0.00047191
0.03901388 0.00075330 -0.00089466
0.03927774 0.00075330 -0.00142825
0.03940966 0.00075330 -0.00207267
0.03942615 0.00075330 -0.00243644
0.03937662 0.00075330 -0.00300583
0.03898035 0.00075330 -0.00395922
0.03863362 0.00075330 -0.00434322
0.03820205 0.00075330 -0.00465047
0.03712703 0.00075330 -0.00500162
0.03648359 0.00075330 -0.00504551
0.03602541 0.00075330 -0.00502473
0.03517893 0.00075330 -0.00485848
0.03442563 0.00075330 -0.00452597
0.03376552 0.00075330 -0.00402720
0.03347041 0.00075330 -0.00371547
0.03320466 0.00075330 -0.00336929
0.03277946 0.00075330 -0.00259491
0.03249599 0.00075330 -0.00171116
0.03235426 0.00075330 -0.00071805
0.03233654 0.00075330 -0.00018048
0.03233654 0.00075330 0.00032172
0.03458073 0.00075330 0.00032172
0.01430011 0.00000000 0.00522697
0.01328787 0.00000000 0.00634907
0.01271996 0.00000000 0.00676004
0.01210545 0.00000000 0.00707588
0.01072049 0.00000000 0.00743683
0.00995003 0.00000000 0.00748195
0.00942882 0.00000000 0.00745847
0.00847838 0.00000000 0.00727064
0.00765054 0.00000000 0.00689497
0.00694530 0.00000000 0.00633147
0.00663866 0.00000000 0.00597928
0.00636556 0.00000000 0.00558474
0.00592859 0.00000000 0.00467647
0.00563727 0.00000000 0.00360930
0.00549162 0.00000000 0.00238323
0.00547341 0.00000000 0.00171061
0.00547341 0.00000000 -0.00657957
0.00774114 0.00000000 -0.00657957
0.00774114 0.00000000 0.00163606
0.00778504 0.00000000 0.00255905
0.00801548 0.00000000 0.00370444
0.00827883 0.00000000 0.00430865
0.00844343 0.00000000 0.00456293
0.00862949 0.00000000 0.00478730
0.00907038 0.00000000 0.00514629
0.00960299 0.00000000 0.00538562
0.01022730 0.00000000 0.00550529
0.01057385 0.00000000 0.00552024
0.01100083 0.00000000 0.00550204
0.01178600 0.00000000 0.00535638
0.01247946 0.00000000 0.00506507
0.01308122 0.00000000 0.00462810
0.01334770 0.00000000 0.00435499
0.01358587 0.00000000 0.00405136
0.01396693 0.00000000 0.00336427
0.01422097 0.00000000 0.00257076
0.01434799 0.00000000 0.00167082
0.01436387 0.00000000 0.00118095
0.01436387 0.00000000 -0.00657957
0.01663160 0.00000000 -0.00657957
0.01663160 0.00000000 0.00163606
0.01667525 0.00000000 0.00256395
0.01690440 0.00000000 0.00371302
0.01716629 0.00000000 0.00431723
0.01732997 0.00000000 0.00457078
0.01751645 0.00000000 0.00479331
0.01796078 0.00000000 0.00514936
0.01850025 0.00000000 0.00538673
0.01913486 0.00000000 0.00550541
0.01948785 0.00000000 0.00552024
0.01990931 0.00000000 0.00550198
0.02068565 0.00000000 0.00535583
0.02137323 0.00000000 0.00506353
0.02197204 0.00000000 0.00462509
0.02223816 0.00000000 0.00435107
0.02247632 0.00000000 0.00404578
0.02285739 0.00000000 0.00335722
0.02311143 0.00000000 0.00256469
0.02323845 0.00000000 0.00166819
0.02325433 0.00000000 0.00118095
0.02325433 0.00000000 -0.00657957
0.02552206 0.00000000 -0.00657957
0.02552206 0.00000000 0.00715239
0.02325433 0.00000000 0.00715239
0.02325433 0.00000000 0.00501805
0.02284874 0.00000000 0.00560828
0.02192282 0.00000000 0.00654009
0.02140247 0.00000000 0.00688167
0.02083775 0.00000000 0.00714429
0.01955675 0.00000000 0.00744443
0.01884048 0.00000000 0.00748195
0.01811931 0.00000000 0.00743438
0.01684616 0.00000000 0.00705381
0.01629419 0.00000000 0.00672081
0.01580450 0.00000000 0.00629904
0.01502962 0.00000000 0.00519656
0.01474444 0.00000000 0.00451585
0.01430011 0.00075330 0.00522697
0.01328787 0.00075330 0.00634907
0.01271996 0.00075330 0.00676004
0.01210545 0.00075330 0.00707588
0.01072049 0.00075330 0.00743683
0.00995003 0.00075330 0.00748195
0.00942882 0.00075330 0.00745847
0.00847838 0.00075330 0.00727064
0.00765054 0.00075330 0.00689497
0.00694530 0.00075330 0.00633147
0.00663866 0.00075330 0.00597928
0.00636556 0.00075330 0.00558474
0.00592859 0.00075330 0.00467647
0.00563727 0.00075330 0.00360930
0.00549162 0.00075330 0.00238323
0.00547341 0.00075330 0.00171061
0.00547341 0.00075330 -0.00657957
0.00774114 0.00075330 -0.00657957
0.00774114 0.00075330 0.00163606
0.00778504 0.00075330 0.00255905
0.00801548 0.00075330 0.00370444
0.00827883 0.00075330 0.00430865
0.00844343 0.00075330 0.00456293
0.00862949 0.00075330 0.00478730
0.00907038 0.00075330 0.00514629
0.00960299 0.00075330 0.00538562
0.01022730 0.00075330 0.00550529
0.01057385 0.00075330 0.00552024
0.01100083 0.00075330 0.00550204
0.01178600 0.00075330 0.00535638
0.01247946 0.00075330 0.00506507
0.01308122 0.00075330 0.00462810
0.01334770 0.00075330 0.00435499
0.01358587 0.00075330 0.00405136
0.01396693 0.00075330 0.00336427
0.01422097 0.00075330 0.00257076
0.01434799 0.00075330 0.00167082
0.01436387 0.00075330 0.00118095
0.01436387 0.00075330 -0.00657957
0.01663160 0.00075330 -0.00657957
0.01663160 0.00075330 0.00163606
0.01667525 0.00075330 0.00256395
0.01690440 0.00075330 0.00371302
0.01716629 0.00075330 0.00431723
0.01732997 0.00075330 0.00457078
0.01751645 0.00075330 0.00479331
0.01796078 0.00075330 0.00514936
0.01850025 0.00075330 0.00538673
0.01913486 0.00075330 0.00550541
0.01948785 0.00075330 0.00552024
0.01990931 0.00075330 0.00550198
0.02068565 0.00075330 0.00535583
0.02137323 0.00075330 0.00506353
0.02197204 0.00075330 0.00462509
0.02223816 0.00075330 0.00435107
0.02247632 0.00075330 0.00404578
0.02285739 0.00075330 0.00335722
0.02311143 0.00075330 0.00256469
0.02323845 0.00075330 0.00166819
0.02325433 0.00075330 0.00118095
0.02325433 0.00075330 -0.00657957
0.02552206 0.00075330 -0.00657957
0.02552206 0.00075330 0.00715239
0.02325433 0.00075330 0.00715239
0.02325433 0.00075330 0.00501805
0.02284874 0.00075330 0.00560828
0.02192282 0.00075330 0.00654009
0.02140247 0.00075330 0.00688167
0.02083775 0.00075330 0.00714429
0.01955675 0.00075330 0.00744443
0.01884048 0.00075330 0.00748195
0.01811931 0.00075330 0.00743438
0.01684616 0.00075330 0.00705381
0.01629419 0.00075330 0.00672081
0.01580450 0.00075330 0.00629904
0.01502962 0.00075330 0.00519656
0.01474444 0.00075330 0.00451585
-0.01077100 0.00000000 -0.00025110
-0.00039749 0.00000000 -0.00025110
-0.00045205 0.00000000 -0.00081638
-0.00066490 0.00000000 -0.00184284
-0.00101604 0.00000000 -0.00273051
-0.00150549 0.00000000 -0.00347939
-0.00180207 0.00000000 -0.00380179
-0.00213140 0.00000000 -0.00408777
-0.00288273 0.00000000 -0.00454534
-0.00375765 0.00000000 -0.00485038
-0.00475616 0.00000000 -0.00500291
-0.00530176 0.00000000 -0.00502197
-0.00594618 0.00000000 -0.00500211
-0.00720560 0.00000000 -0.00484321
-0.00782059 0.00000000 -0.00470417
-0.00842970 0.00000000 -0.00452517
-0.00964204 0.00000000 -0.00404651
-0.01024526 0.00000000 -0.00374686
-0.01024526 0.00000000 -0.00588120
-0.00901429 0.00000000 -0.00633435
-0.00775389 0.00000000 -0.00666588
-0.00711413 0.00000000 -0.00678432
-0.00582137 0.00000000 -0.00691968
-0.00516836 0.00000000 -0.00693660
-0.00436780 0.00000000 -0.00690674
-0.00289505 0.00000000 -0.00666791
-0.00159346 0.00000000 -0.00619023
-0.00046302 0.00000000 -0.00547372
0.00003801 0.00000000 -0.00502589
0.00048767 0.00000000 -0.00452615
0.00120712 0.00000000 -0.00340013
0.00168676 0.00000000 -0.00210540
0.00192658 0.00000000 -0.00064197
0.00195656 0.00000000 0.00015301
0.00192811 0.00000000 0.00097380
0.00170056 0.00000000 0.00248481
0.00124544 0.00000000 0.00382171
0.00056276 0.00000000 0.00498451
0.00013609 0.00000000 0.00550063
-0.00033888 0.00000000 0.00596500
-0.00140802 0.00000000 0.00670800
-0.00263604 0.00000000 0.00720333
-0.00402297 0.00000000 0.00745099
-0.00477602 0.00000000 0.00748195
-0.00545042 0.00000000 0.00745406
-0.00669071 0.00000000 0.00723092
-0.00778632 0.00000000 0.00678463
-0.00873726 0.00000000 0.00611519
-0.00915848 0.00000000 0.00569680
-0.00953641 0.00000000 0.00523144
-0.01014111 0.00000000 0.00418046
-0.01054424 0.00000000 0.00296911
-0.01074580 0.00000000 0.00159738
-0.01077100 0.00000000 0.00085138
-0.00849370 0.00000000 0.00196477
-0.00835835 0.00000000 0.00279556
-0.00809940 0.00000000 0.00353316
-0.00771687 0.00000000 0.00417758
-0.00747926 0.00000000 0.00446485
-0.00721596 0.00000000 0.00472416
-0.00662793 0.00000000 0.00513906
-0.00595801 0.00000000 0.00541566
-0.00520619 0.00000000 0.00555396
-0.00479956 0.00000000 0.00557125
-0.00433954 0.00000000 0.00555457
-0.00349012 0.00000000 0.00542118
-0.00273487 0.00000000 0.00515439
-0.00207377 0.00000000 0.00475420
-0.00177853 0.00000000 0.00450408
-0.00151009 0.00000000 0.00422368
-0.00106331 0.00000000 0.00358122
-0.00073668 0.00000000 0.00282989
-0.00053021 0.00000000 0.00196968
-0.00047204 0.00000000 0.00149874
-0.00851504 0.00000000 0.00151444
-0.01077100 0.00075330 -0.00025110
-0.00039749 0.00075330 -0.00025110
-0.00045205 0.00075330 -0.00081638
-0.00066490 0.00075330 -0.00184284
-0.00101604 0.00075330 -0.00273051
-0.00150549 0.00075330 -0.00347939
-0.00180207 0.00075330 -0.00380179
-0.00213140 0.00075330 -0.00408777
-0.00288273 0.00075330 -0.00454534
-0.00375765 0.00075330 -0.00485038
-0.00475616 0.00075330 -0.00500291
-0.00530176 0.00075330 -0.00502197
-0.00594618 0.00075330 -0.00500211
-0.00720560 0.00075330 -0.00484321
-0.00782059 0.00075330 -0.00470417
-0.00842970 0.00075330 -0.00452517
-0.00964204 0.00075330 -0.00404651
-0.01024526 0.00075330 -0.00374686
-0.01024526 0.00075330 -0.00588120
-0.00901429 0.00075330 -0.00633435
-0.00775389 0.00075330 -0.00666588
-0.00711413 0.00075330 -0.00678432
-0.00582137 0.00075330 -0.00691968
-0.00516836 0.00075330 -0.00693660
-0.00436780 0.00075330 -0.00690674
-0.00289505 0.00075330 -0.00666791
-0.00159346 0.00075330 -0.00619023
-0.00046302 0.00075330 -0.00547372
0.00003801 0.00075330 -0.00502589
0.00048767 0.00075330 -0.00452615
0.00120712 0.00075330 -0.00340013
0.00168676 0.00075330 -0.00210540
0.00192658 0.00075330 -0.00064197
0.00195656 0.00075330 0.00015301
0.00192811 0.00075330 0.00097380
0.00170056 0.00075330 0.00248481
0.00124544 0.00075330 0.00382171
0.00056276 0.00075330 0.00498451
0.00013609 0.00075330 0.00550063
-0.00033888 0.00075330 0.00596500
-0.00140802 0.00075330 0.00670800
-0.00263604 0.00075330 0.00720333
-0.00402297 0.00075330 0.00745099
-0.00477602 0.00075330 0.00748195
-0.00545042 0.00075330 0.00745406
-0.00669071 0.00075330 0.00723092
-0.00778632 0.00075330 0.00678463
-0.00873726 0.00075330 0.00611519
-0.00915848 0.00075330 0.00569680
-0.00953641 0.00075330 0.00523144
-0.01014111 0.00075330 0.00418046
-0.01054424 0.00075330 0.00296911
-0.01074580 0.00075330 0.00159738
-0.01077100 0.00075330 0.00085138
-0.00849370 0.00075330 0.00196477
-0.00835835 0.00075330 0.00279556
-0.00809940 0.00075330 0.00353316
-0.00771687 0.00075330 0.00417758
-0.00747926 0.00075330 0.00446485
-0.00721596 0.00075330 0.00472416
-0.00662793 0.00075330 0.00513906
-0.00595801 0.00075330 0.00541566
-0.00520619 0.00075330 0.00555396
-0.00479956 0.00075330 0.00557125
-0.00433954 0.00075330 0.00555457
-0.00349012 0.00075330 0.00542118
-0.00273487 0.00075330 0.00515439
-0.00207377 0.00075330 0.00475420
-0.00177853 0.00075330 0.00450408
-0.00151009 0.00075330 0.00422368
-0.00106331 0.00075330 0.00358122
-0.00073668 0.00075330 0.00282989
-0.00053021 0.00075330 0.00196968
-0.00047204 0.00075330 0.00149874
-0.00851504 0.00075330 0.00151444
-0.02490903 0.00000000 -0.01250000
-0.01185975 0.00000000 -0.01250000
-0.01185975 0.00000000 -0.01075016
-0.02490903 0.00000000 -0.01075016
-0.02490903 0.00075330 -0.01250000
-0.01185975 0.00075330 -0.01250000
-0.01185975 0.00075330 -0.01075016
-0.02490903 0.00075330 -0.01075016
-0.03621238 0.00000000 0.00233443
-0.04303912 0.00000000 0.00233443
-0.04303912 0.00000000 0.00025110
-0.03621238 0.00000000 0.00025110
-0.03621238 0.00000000 -0.00657957
-0.03415259 0.00000000 -0.00657957
-0.03415259 0.00000000 0.00025110
-0.02732193 0.00000000 0.00025110
-0.02732193 0.00000000 0.00233443
-0.03415259 0.00000000 0.00233443
-0.03415259 0.00000000 0.00916510
-0.03621238 0.00000000 0.00916510
-0.03621238 0.00075330 0.00233443
-0.04303912 0.00075330 0.00233443
-0.04303912 0.00075330 0.00025110
-0.03621238 0.00075330 0.00025110
-0.03621238 0.00075330 -0.00657957
-0.03415259 0.00075330 -0.00657957
-0.03415259 0.00075330 0.00025110
-0.02732193 0.00075330 0.00025110
-0.02732193 0.00075330 0.00233443
-0.03415259 0.00075330 0.00233443
-0.03415259 0.00075330 0.00916510
-0.03621238 0.00075330 0.00916510
-0.06149291 0.00000000 0.01172709
-0.06149291 0.00000000 0.00983600
-0.04991883 0.00000000 -0.00449623
-0.06177539 0.00000000 -0.00449623
-0.06177539 0.00000000 -0.00657957
-0.04683111 0.00000000 -0.00657957
-0.04683111 0.00000000 -0.00469240
-0.05840518 0.00000000 0.00963983
-0.04710967 0.00000000 0.00963983
-0.04710967 0.00000000 0.01172709
-0.06149291 0.00075330 0.01172709
-0.06149291 0.00075330 0.00983600
-0.04991883 0.00075330 -0.00449623
-0.06177539 0.00075330 -0.00449623
-0.06177539 0.00075330 -0.00657957
-0.04683111 0.00075330 -0.00657957
-0.04683111 0.00075330 -0.00469240
-0.05840518 0.00075330 0.00963983
-0.04710967 0.00075330 0.00963983
-0.04710967 0.00075330 0.01172709
3 28 29 0
3 26 27 28
3 24 25 26
3 22 23 24
3 20 21 22
3 18 19 20
3 15 16 17
3 12 13 14
3 9 10 11
3 28 0 1
3 24 26 28
3 20 22 24
3 17 18 20
3 14 15 17
3 11 12 14
3 8 9 11
3 28 1 2
3 20 24 28
3 14 17 20
3 8 11 14
3 28 2 3
3 8 14 20
3 28 3 4
3 7 8 20
3 20 28 4
3 6 7 20
3 20 4 5
3 5 6 20
3 30 59 58
3 58 57 56
3 56 55 54
3 54 53 52
3 52 51 50
3 50 49 48
3 47 46 45
3 44 43 42
3 41 40 39
3 31 30 58
3 58 56 54
3 54 52 50
3 50 48 47
3 47 45 44
3 44 42 41
3 41 39 38
3 32 31 58
3 58 54 50
3 50 47 44
3 44 41 38
3 33 32 58
3 50 44 38
3 34 33 58
3 50 38 37
3 34 58 50
3 50 37 36
3 35 34 50
3 50 36 35
3 30 31 0
3 0 31 1
3 31 32 1
3 1 32 2
3 32 33 2
3 2 33 3
3 33 34 3
3 3 34 4
3 34 35 4
3 4 35 5
3 35 36 5
3 5 36 6
3 36 37 6
3 6 37 7
3 37 38 7
3 7 38 8
3 38 39 8
3 8 39 9
3 39 40 9
3 9 40 10
3 40 41 10
3 10 41 11
3 41 42 11
3 11 42 12
3 42 43 12
3 12 43 13
3 43 44 13
3 13 44 14
3 44 45 14
3 14 45 15
3 45 46 15
3 15 46 16
3 46 47 16
3 16 47 17
3 47 48 17
3 17 48 18
3 48 49 18
3 18 49 19
3 49 50 19
3 19 50 20
3 50 51 20
3 20 51 21
3 51 52 21
3 21 52 22
3 52 53 22
3 22 53 23
3 53 54 23
3 23 54 24
3 54 55 24
3 24 55 25
3 55 56 25
3 25 56 26
3 56 57 26
3 26 57 27
3 57 58 27
3 27 58 28
3 59 30 29
3 29 30 0
3 58 59 28
3 28 59 29
3 88 89 60
3 86 87 88
3 84 85 86
3 82 83 84
3 80 81 82
3 78 79 80
3 76 77 78
3 74 75 76
3 88 60 61
3 84 86 88
3 80 82 84
3 73 74 76
3 88 61 62
3 80 84 88
3 73 76 78
3 88 62 63
3 78 80 88
3 72 73 78
3 88 63 64
3 71 72 78
3 88 64 65
3 70 71 78
3 88 65 66
3 69 70 78
3 78 88 66
3 68 69 78
3 78 66 67
3 67 68 78
3 90 119 118
3 118 117 116
3 116 115 114
3 114 113 112
3 112 111 110
3 110 109 108
3 108 107 106
3 106 105 104
3 91 90 118
3 118 116 114
3 114 112 110
3 106 104 103
3 92 91 118
3 118 114 110
3 108 106 103
3 93 92 118
3 118 110 108
3 108 103 102
3 94 93 118
3 108 102 101
3 95 94 118
3 108 101 100
3 96 95 118
3 108 100 99
3 96 118 108
3 108 99 98
3 97 96 108
3 108 98 97
3 90 91 60
3 60 91 61
3 91 92 61
3 61 92 62
3 92 93 62
3 62 93 63
3 93 94 63
3 63 94 64
3 94 95 64
3 64 95 65
3 95 96 65
3 65 96 66
3 96 97 66
3 66 97 67
3 97 98 67
3 67 98 68
3 98 99 68
3 68 99 69
3 99 100 69
3 69 100 70
3 100 101 70
3 70 101 71
3 101 102 71
3 71 102 72
3 102 103 72
3 72 103 73
3 103 104 73
3 73 104 74
3 104 105 74
3 74 105 75
3 105 106 75
3 75 106 76
3 106 107 76
3 76 107 77
3 107 108 77
3 77 108 78
3 108 109 78
3 78 109 79
3 109 110 79
3 79 110 80
3 110 111 80
3 80 111 81
3 111 112 81
3 81 112 82
3 112 113 82
3 82 113 83
3 113 114 83
3 83 114 84
3 114 115 84
3 84 115 85
3 115 116 85
3 85 116 86
3 116 117 86
3 86 117 87
3 117 118 87
3 87 118 88
3 119 90 89
3 89 90 60
3 118 119 88
3 88 119 89
3 188 189 138
3 138 189 190
3 136 137 138
3 134 135 136
3 132 133 134
3 130 131 132
3 128 129 130
3 126 127 128
3 124 125 126
3 122 123 124
3 120 121 122
3 179 180 120
3 177 178 179
3 175 176 177
3 173 174 175
3 171 172 173
3 169 170 171
3 167 168 169
3 165 166 167
3 147 148 149
3 145 146 147
3 143 144 145
3 141 142 143
3 139 140 141
3 188 138 139
3 138 190 191
3 134 136 138
3 130 132 134
3 126 128 130
3 122 124 126
3 179 120 122
3 175 177 179
3 171 173 175
3 167 169 171
3 164 165 167
3 145 147 149
3 141 143 145
3 188 139 141
3 138 191 192
3 130 134 138
3 122 126 130
3 175 179 122
3 167 171 175
3 163 164 167
3 141 145 149
3 187 188 141
3 138 192 193
3 162 163 167
3 186 187 141
3 130 138 193
3 161 162 167
3 185 186 141
3 130 193 194
3 160 161 167
3 184 185 141
3 130 194 195
3 160 167 175
3 183 184 141
3 130 195 196
3 159 160 175
3 183 141 149
3 130 196 197
3 158 159 175
3 182 183 149
3 130 197 198
3 157 158 175
3 181 182 149
3 122 130 198
3 156 157 175
3 207 181 149
3 122 198 199
3 155 156 175
3 206 207 149
3 122 199 200
3 154 155 175
3 122 200 201
3 153 154 175
3 122 201 202
3 152 153 175
3 122 202 203
3 151 152 175
3 122 203 204
3 150 151 175
3 122 204 205
3 149 150 175
3 175 122 205
3 206 149 175
3 175 205 206
3 226 277 276
3 278 277 226
3 226 225 224
3 224 223 222
3 222 221 220
3 220 219 218
3 218 217 216
3 216 215 214
3 214 213 212
3 212 211 210
3 210 209 208
3 208 268 267
3 267 266 265
3 265 264 263
3 263 262 261
3 261 260 259
3 259 258 257
3 257 256 255
3 255 254 253
3 237 236 235
3 235 234 233
3 233 232 231
3 231 230 229
3 229 228 227
3 227 226 276
3 279 278 226
3 226 224 222
3 222 220 218
3 218 216 214
3 214 212 210
3 210 208 267
3 267 265 263
3 263 261 259
3 259 257 255
3 255 253 252
3 237 235 233
3 233 231 229
3 229 227 276
3 280 279 226
3 226 222 218
3 218 214 210
3 210 267 263
3 263 259 255
3 255 252 251
3 237 233 229
3 229 276 275
3 281 280 226
3 255 251 250
3 229 275 274
3 281 226 218
3 255 250 249
3 229 274 273
3 282 281 218
3 255 249 248
3 229 273 272
3 283 282 218
3 263 255 248
3 229 272 271
3 284 283 218
3 263 248 247
3 237 229 271
3 285 284 218
3 263 247 246
3 237 271 270
3 286 285 218
3 263 246 245
3 237 270 269
3 286 218 210
3 263 245 244
3 237 269 295
3 287 286 210
3 263 244 243
3 237 295 294
3 288 287 210
3 263 243 242
3 289 288 210
3 263 242 241
3 290 289 210
3 263 241 240
3 291 290 210
3 263 240 239
3 292 291 210
3 263 239 238
3 293 292 210
3 263 238 237
3 293 210 263
3 263 237 294
3 294 293 263
3 208 209 120
3 120 209 121
3 209 210 121
3 121 210 122
3 210 211 122
3 122 211 123
3 211 212 123
3 123 212 124
3 212 213 124
3 124 213 125
3 213 214 125
3 125 214 126
3 214 215 126
3 126 215 127
3 215 216 127
3 127 216 128
3 216 217 128
3 128 217 129
3 217 218 129
3 129 218 130
3 218 219 130
3 130 219 131
3 219 220 131
3 131 220 132
3 220 221 132
3 132 221 133
3 221 222 133
3 133 222 134
3 222 223 134
3 134 223 135
3 223 224 135
3 135 224 136
3 224 225 136
3 136 225 137
3 225 226 137
3 137 226 138
3 226 227 138
3 138 227 139
3 227 228 139
3 139 228 140
3 228 229 140
3 140 229 141
3 229 230 141
3 141 230 142
3 230 231 142
3 142 231 143
3 231 232 143
3 143 232 144
3 232 233 144
3 144 233 145
3 233 234 145
3 145 234 146
3 234 235 146
3 146 235 147
3 235 236 147
3 147 236 148
3 236 237 148
3 148 237 149
3 237 238 149
3 149 238 150
3 238 239 150
3 150 239 151
3 239 240 151
3 151 240 152
3 240 241 152
3 152 241 153
3 241 242 153
3 153 242 154
3 242 243 154
3 154 243 155
3 243 244 155
3 155 244 156
3 244 245 156
3 156 245 157
3 245 246 157
3 157 246 158
3 246 247 158
3 158 247 159
3 247 248 159
3 159 248 160
3 248 249 160
3 160 249 161
3 249 250 161
3 161 250 162
3 250 251 162
3 162 251 163
3 251 252 163
3 163 252 164
3 252 253 164
3 164 253 165
3 253 254 165
3 165 254 166
3 254 255 166
3 166 255 167
3 255 256 167
3 167 256 168
3 256 257 168
3 168 257 169
3 257 258 169
3 169 258 170
3 258 259 170
3 170 259 171
3 259 260 171
3 171 260 172
3 260 261 172
3 172 261 173
3 261 262 173
3 173 262 174
3 262 263 174
3 174 263 175
3 263 264 175
3 175 264 176
3 264 265 176
3 176 265 177
3 265 266 177
3 177 266 178
3 266 267 178
3 178 267 179
3 268 208 180
3 180 208 120
3 267 268 179
3 179 268 180
3 269 270 181
3 181 270 182
3 270 271 182
3 182 271 183
3 271 272 183
3 183 272 184
3 272 273 184
3 184 273 185
3 273 274 185
3 185 274 186
3 274 275 186
3 186 275 187
3 275 276 187
3 187 276 188
3 276 277 188
3 188 277 189
3 277 278 189
3 189 278 190
3 278 279 190
3 190 279 191
3 279 280 191
3 191 280 192
3 280 281 192
3 192 281 193
3 281 282 193
3 193 282 194
3 282 283 194
3 194 283 195
3 283 284 195
3 195 284 196
3 284 285 196
3 196 285 197
3 285 286 197
3 197 286 198
3 286 287 198
3 198 287 199
3 287 288 199
3 199 288 200
3 288 289 200
3 200 289 201
3 289 290 201
3 201 290 202
3 290 291 202
3 202 291 203
3 291 292 203
3 203 292 204
3 292 293 204
3 204 293 205
3 293 294 205
3 205 294 206
3 295 269 207
3 207 269 181
3 294 295 206
3 206 295 207
3 370 371 372
3 368 369 370
3 366 367 368
3 364 365 366
3 362 363 364
3 360 361 362
3 358 359 360
3 356 357 358
3 334 335 336
3 312 313 314
3 310 311 312
3 308 309 310
3 306 307 308
3 304 305 306
3 302 303 304
3 300 301 302
3 298 299 300
3 296 297 298
3 368 370 372
3 364 366 368
3 360 362 364
3 355 356 358
3 334 336 337
3 312 314 315
3 308 310 312
3 304 306 308
3 300 302 304
3 296 298 300
3 364 368 372
3 355 358 360
3 334 337 338
3 312 315 316
3 304 308 312
3 296 300 304
3 354 355 360
3 333 334 338
3 304 312 316
3 372 296 304
3 353 354 360
3 333 338 339
3 304 316 317
3 352 353 360
3 333 339 340
3 304 317 318
3 352 360 364
3 333 340 341
3 304 318 319
3 351 352 364
3 332 333 341
3 304 319 320
3 350 351 364
3 331 332 341
3 304 320 321
3 349 350 364
3 331 341 342
3 304 321 322
3 348 349 364
3 330 331 342
3 304 322 323
3 347 348 364
3 329 330 342
3 304 323 324
3 346 347 364
3 329 342 343
3 304 324 325
3 345 346 364
3 372 304 325
3 344 345 364
3 372 325 326
3 343 344 364
3 372 326 327
3 343 364 372
3 372 327 328
3 329 343 372
3 372 328 329
3 449 448 447
3 447 446 445
3 445 444 443
3 443 442 441
3 441 440 439
3 439 438 437
3 437 436 435
3 435 434 433
3 413 412 411
3 391 390 389
3 389 388 387
3 387 386 385
3 385 384 383
3 383 382 381
3 381 380 379
3 379 378 377
3 377 376 375
3 375 374 373
3 449 447 445
3 445 443 441
3 441 439 437
3 435 433 432
3 414 413 411
3 392 391 389
3 389 387 385
3 385 383 381
3 381 379 377
3 377 375 373
3 449 445 441
3 437 435 432
3 415 414 411
3 393 392 389
3 389 385 381
3 381 377 373
3 437 432 431
3 415 411 410
3 393 389 381
3 381 373 449
3 437 431 430
3 416 415 410
3 394 393 381
3 437 430 429
3 417 416 410
3 395 394 381
3 441 437 429
3 418 417 410
3 396 395 381
3 441 429 428
3 418 410 409
3 397 396 381
3 441 428 427
3 418 409 408
3 398 397 381
3 441 427 426
3 419 418 408
3 399 398 381
3 441 426 425
3 419 408 407
3 400 399 381
3 441 425 424
3 419 407 406
3 401 400 381
3 441 424 423
3 420 419 406
3 402 401 381
3 441 423 422
3 402 381 449
3 441 422 421
3 403 402 449
3 441 421 420
3 404 403 449
3 449 441 420
3 405 404 449
3 449 420 406
3 406 405 449
3 373 374 296
3 296 374 297
3 374 375 297
3 297 375 298
3 375 376 298
3 298 376 299
3 376 377 299
3 299 377 300
3 377 378 300
3 300 378 301
3 378 379 301
3 301 379 302
3 379 380 302
3 302 380 303
3 380 381 303
3 303 381 304
3 381 382 304
3 304 382 305
3 382 383 305
3 305 383 306
3 383 384 306
3 306 384 307
3 384 385 307
3 307 385 308
3 385 386 308
3 308 386 309
3 386 387 309
3 309 387 310
3 387 388 310
3 310 388 311
3 388 389 311
3 311 389 312
3 389 390 312
3 312 390 313
3 390 391 313
3 313 391 314
3 391 392 314
3 314 392 315
3 392 393 315
3 315 393 316
3 393 394 316
3 316 394 317
3 394 395 317
3 317 395 318
3 395 396 318
3 318 396 319
3 396 397 319
3 319 397 320
3 397 398 320
3 320 398 321
3 398 399 321
3 321 399 322
3 399 400 322
3 322 400 323
3 400 401 323
3 323 401 324
3 401 402 324
3 324 402 325
3 402 403 325
3 325 403 326
3 403 404 326
3 326 404 327
3 404 405 327
3 327 405 328
3 405 406 328
3 328 406 329
3 406 407 329
3 329 407 330
3 407 408 330
3 330 408 331
3 408 409 331
3 331 409 332
3 409 410 332
3 332 410 333
3 410 411 333
3 333 411 334
3 411 412 334
3 334 412 335
3 412 413 335
3 335 413 336
3 413 414 336
3 336 414 337
3 414 415 337
3 337 415 338
3 415 416 338
3 338 416 339
3 416 417 339
3 339 417 340
3 417 418 340
3 340 418 341
3 418 419 341
3 341 419 342
3 419 420 342
3 342 420 343
3 420 421 343
3 343 421 344
3 421 422 344
3 344 422 345
3 422 423 345
3 345 423 346
3 423 424 346
3 346 424 347
3 424 425 347
3 347 425 348
3 425 426 348
3 348 426 349
3 426 427 349
3 349 427 350
3 427 428 350
3 350 428 351
3 428 429 351
3 351 429 352
3 429 430 352
3 352 430 353
3 430 431 353
3 353 431 354
3 431 432 354
3 354 432 355
3 432 433 355
3 355 433 356
3 433 434 356
3 356 434 357
3 434 435 357
3 357 435 358
3 435 436 358
3 358 436 359
3 436 437 359
3 359 437 360
3 437 438 360
3 360 438 361
3 438 439 361
3 361 439 362
3 439 440 362
3 362 440 363
3 440 441 363
3 363 441 364
3 441 442 364
3 364 442 365
3 442 443 365
3 365 443 366
3 443 444 366
3 366 444 367
3 444 445 367
3 367 445 368
3 445 446 368
3 368 446 369
3 446 447 369
3 369 447 370
3 447 448 370
3 370 448 371
3 449 373 372
3 372 373 296
3 448 449 371
3 371 449 372
3 522 523 484
3 484 523 524
3 482 483 484
3 480 481 482
3 478 479 480
3 476 477 478
3 474 475 476
3 472 473 474
3 470 471 472
3 468 469 470
3 466 467 468
3 503 450 451
3 501 502 503
3 499 500 501
3 497 498 499
3 495 496 497
3 493 494 495
3 491 492 493
3 489 490 491
3 487 488 489
3 485 486 487
3 522 484 485
3 482 484 524
3 478 480 482
3 474 476 478
3 470 472 474
3 466 468 470
3 499 501 503
3 495 497 499
3 491 493 495
3 487 489 491
3 522 485 487
3 474 478 482
3 466 470 474
3 495 499 503
3 487 491 495
3 521 522 487
3 465 466 474
3 520 521 487
3 464 465 474
3 519 520 487
3 463 464 474
3 518 519 487
3 462 463 474
3 517 518 487
3 461 462 474
3 516 517 487
3 460 461 474
3 516 487 495
3 459 460 474
3 515 516 495
3 458 459 474
3 514 515 495
3 457 458 474
3 513 514 495
3 457 474 482
3 512 513 495
3 456 457 482
3 511 512 495
3 455 456 482
3 510 511 495
3 454 455 482
3 509 510 495
3 453 454 482
3 508 509 495
3 452 453 482
3 508 495 503
3 451 452 482
3 507 508 503
3 451 482 524
3 506 507 503
3 503 451 524
3 505 506 503
3 503 524 504
3 504 505 503
3 559 598 597
3 599 598 559
3 559 558 557
3 557 556 555
3 555 554 553
3 553 552 551
3 551 550 549
3 549 548 547
3 547 546 545
3 545 544 543
3 543 542 541
3 526 525 578
3 578 577 576
3 576 575 574
3 574 573 572
3 572 571 570
3 570 569 568
3 568 567 566
3 566 565 564
3 564 563 562
3 562 561 560
3 560 559 597
3 599 559 557
3 557 555 553
3 553 551 549
3 549 547 545
3 545 543 541
3 578 576 574
3 574 572 570
3 570 568 566
3 566 564 562
3 562 560 597
3 557 553 549
3 549 545 541
3 578 574 570
3 570 566 562
3 562 597 596
3 549 541 540
3 562 596 595
3 549 540 539
3 562 595 594
3 549 539 538
3 562 594 593
3 549 538 537
3 562 593 592
3 549 537 536
3 562 592 591
3 549 536 535
3 570 562 591
3 549 535 534
3 570 591 590
3 549 534 533
3 570 590 589
3 549 533 532
3 570 589 588
3 557 549 532
3 570 588 587
3 557 532 531
3 570 587 586
3 557 531 530
3 570 586 585
3 557 530 529
3 570 585 584
3 557 529 528
3 570 584 583
3 557 528 527
3 578 570 583
3 557 527 526
3 578 583 582
3 599 557 526
3 578 582 581
3 599 526 578
3 578 581 580
3 579 599 578
3 578 580 579
3 525 526 450
3 450 526 451
3 526 527 451
3 451 527 452
3 527 528 452
3 452 528 453
3 528 529 453
3 453 529 454
3 529 530 454
3 454 530 455
3 530 531 455
3 455 531 456
3 531 532 456
3 456 532 457
3 532 533 457
3 457 533 458
3 533 534 458
3 458 534 459
3 534 535 459
3 459 535 460
3 535 536 460
3 460 536 461
3 536 537 461
3 461 537 462
3 537 538 462
3 462 538 463
3 538 539 463
3 463 539 464
3 539 540 464
3 464 540 465
3 540 541 465
3 465 541 466
3 541 542 466
3 466 542 467
3 542 543 467
3 467 543 468
3 543 544 468
3 468 544 469
3 544 545 469
3 469 545 470
3 545 546 470
3 470 546 471
3 546 547 471
3 471 547 472
3 547 548 472
3 472 548 473
3 548 549 473
3 473 549 474
3 549 550 474
3 474 550 475
3 550 551 475
3 475 551 476
3 551 552 476
3 476 552 477
3 552 553 477
3 477 553 478
3 553 554 478
3 478 554 479
3 554 555 479
3 479 555 480
3 555 556 480
3 480 556 481
3 556 557 481
3 481 557 482
3 557 558 482
3 482 558 483
3 558 559 483
3 483 559 484
3 559 560 484
3 484 560 485
3 560 561 485
3 485 561 486
3 561 562 486
3 486 562 487
3 562 563 487
3 487 563 488
3 563 564 488
3 488 564 489
3 564 565 489
3 489 565 490
3 565 566 490
3 490 566 491
3 566 567 491
3 491 567 492
3 567 568 492
3 492 568 493
3 568 569 493
3 493 569 494
3 569 570 494
3 494 570 495
3 570 571 495
3 495 571 496
3 571 572 496
3 496 572 497
3 572 573 497
3 497 573 498
3 573 574 498
3 498 574 499
3 574 575 499
3 499 575 500
3 575 576 500
3 500 576 501
3 576 577 501
3 501 577 502
3 578 525 503
3 503 525 450
3 577 578 502
3 502 578 503
3 579 580 504
3 504 580 505
3 580 581 505
3 505 581 506
3 581 582 506
3 506 582 507
3 582 583 507
3 507 583 508
3 583 584 508
3 508 584 509
3 584 585 509
3 509 585 510
3 585 586 510
3 510 586 511
3 586 587 511
3 511 587 512
3 587 588 512
3 512 588 513
3 588 589 513
3 513 589 514
3 589 590 514
3 514 590 515
3 590 591 515
3 515 591 516
3 591 592 516
3 516 592 517
3 592 593 517
3 517 593 518
3 593 594 518
3 518 594 519
3 594 595 519
3 519 595 520
3 595 596 520
3 520 596 521
3 596 597 521
3 521 597 522
3 597 598 522
3 522 598 523
3 599 579 524
3 524 579 504
3 598 599 523
3 523 599 524
3 602 603 600
3 600 601 602
3 604 607 606
3 606 605 604
3 604 605 600
3 600 605 601
3 605 606 601
3 601 606 602
3 607 604 603
3 603 604 600
3 606 607 602
3 602 607 603
3 618 619 608
3 615 616 617
3 612 613 614
3 609 610 611
3 617 618 608
3 614 615 617
3 611 612 614
3 608 609 611
3 614 617 608
3 608 611 614
3 620 631 630
3 629 628 627
3 626 625 624
3 623 622 621
3 620 630 629
3 629 627 626
3 626 624 623
3 623 621 620
3 620 629 626
3 626 623 620
3 620 621 608
3 608 621 609
3 621 622 609
3 609 622 610
3 622 623 610
3 610 623 611
3 623 624 611
3 611 624 612
3 624 625 612
3 612 625 613
3 625 626 613
3 613 626 614
3 626 627 614
3 614 627 615
3 627 628 615
3 615 628 616
3 628 629 616
3 616 629 617
3 629 630 617
3 617 630 618
3 631 620 619
3 619 620 608
3 630 631 618
3 618 631 619
3 640 641 632
3 637 638 639
3 635 636 637
3 632 633 634
3 639 640 632
3 634 635 637
3 639 632 634
3 634 637 639
3 642 651 650
3 649 648 647
3 647 646 645
3 644 643 642
3 642 650 649
3 647 645 644
3 644 642 649
3 649 647 644
3 642 643 632
3 632 643 633
3 643 644 633
3 633 644 634
3 644 645 634
3 634 645 635
3 645 646 635
3 635 646 636
3 646 647 636
3 636 647 637
3 647 648 637
3 637 648 638
3 648 649 638
3 638 649 639
3 649 650 639
3 639 650 640
3 651 642 641
3 641 642 632
3 650 651 640
3 640 651 641
