ply
format ascii 1.0
comment https://github.com/mikedh/trimesh
element vertex 96
property float x
property float y
property float z
element face 184
property list uchar int vertex_indices
end_header
-0.10759886 0.00000000 0.00013858
-0.11057141 0.00000000 0.00004677
-0.11410350 0.00000000 -0.00043523
-0.11584038 0.00000000 -0.00098609
-0.11652347 0.00000000 -0.00133038
-0.11710594 0.00000000 -0.00173024
-0.11803789 0.00000000 -0.00272571
-0.11865920 0.00000000 -0.00398218
-0.11896985 0.00000000 -0.00549964
-0.11900868 0.00000000 -0.00635625
-0.11889204 0.00000000 -0.00769702
-0.11795893 0.00000000 -0.00994203
-0.11714246 0.00000000 -0.01084627
-0.11612620 0.00000000 -0.01156978
-0.11359479 0.00000000 -0.01239664
-0.11207964 0.00000000 -0.01250000
-0.11100072 0.00000000 -0.01245106
-0.10900747 0.00000000 -0.01205957
-0.10723364 0.00000000 -0.01127659
-0.10567922 0.00000000 -0.01010212
-0.10498429 0.00000000 -0.00936807
-0.10435852 0.00000000 -0.00855290
-0.10335727 0.00000000 -0.00672940
-0.10268977 0.00000000 -0.00464838
-0.10235602 0.00000000 -0.00230983
-0.10231430 0.00000000 -0.00104398
-0.10231430 0.00000000 0.00013858
-0.10759886 -0.00177384 0.00013858
-0.11057141 -0.00177384 0.00004677
-0.11410350 -0.00177384 -0.00043523
-0.11584038 -0.00177384 -0.00098609
-0.11652347 -0.00177384 -0.00133038
-0.11710594 -0.00177384 -0.00173024
-0.11803789 -0.00177384 -0.00272571
-0.11865920 -0.00177384 -0.00398218
-0.11896985 -0.00177384 -0.00549964
-0.11900868 -0.00177384 -0.00635625
-0.11889204 -0.00177384 -0.00769702
-0.11795893 -0.00177384 -0.00994203
-0.11714246 -0.00177384 -0.01084627
-0.11612620 -0.00177384 -0.01156978
-0.11359479 -0.00177384 -0.01239664
-0.11207964 -0.00177384 -0.01250000
-0.11100072 -0.00177384 -0.01245106
-0.10900747 -0.00177384 -0.01205957
-0.10723364 -0.00177384 -0.01127659
-0.10567922 -0.00177384 -0.01010212
-0.10498429 -0.00177384 -0.00936807
-0.10435852 -0.00177384 -0.00855290
-0.10335727 -0.00177384 -0.00672940
-0.10268977 -0.00177384 -0.00464838
-0.10235602 -0.00177384 -0.00230983
-0.10231430 -0.00177384 -0.00104398
-0.10231430 -0.00177384 0.00013858
0.11900868 0.00000000 0.00294715
0.11895845 0.00000000 0.00400759
0.11863972 0.00000000 0.00596389
0.11802996 0.00000000 0.00770077
0.11712918 0.00000000 0.00921823
0.11656966 0.00000000 0.00989468
0.11594965 0.00000000 0.01050530
0.11456500 0.00000000 0.01148230
0.11298749 0.00000000 0.01213363
0.11121712 0.00000000 0.01245929
0.11025961 0.00000000 0.01250000
0.10917637 0.00000000 0.01246074
0.10717618 0.00000000 0.01214662
0.10539772 0.00000000 0.01151839
0.10384100 0.00000000 0.01057603
0.10314579 0.00000000 0.00998707
0.10251366 0.00000000 0.00932679
0.10146160 0.00000000 0.00781394
0.10069247 0.00000000 0.00604473
0.10020629 0.00000000 0.00401914
0.10006929 0.00000000 0.00291020
0.11900868 -0.00177384 0.00294715
0.11895845 -0.00177384 0.00400759
0.11863972 -0.00177384 0.00596389
0.11802996 -0.00177384 0.00770077
0.11712918 -0.00177384 0.00921823
0.11656966 -0.00177384 0.00989468
0.11594965 -0.00177384 0.01050530
0.11456500 -0.00177384 0.01148230
0.11298749 -0.00177384 0.01213363
0.11121712 -0.00177384 0.01245929
0.11025961 -0.00177384 0.01250000
0.10917637 -0.00177384 0.01246074
0.10717618 -0.00177384 0.01214662
0.10539772 -0.00177384 0.01151839
0.10384100 -0.00177384 0.01057603
0.10314579 -0.00177384 0.00998707
0.10251366 -0.00177384 0.00932679
0.10146160 -0.00177384 0.00781394
0.10069247 -0.00177384 0.00604473
0.10020629 -0.00177384 0.00401914
0.10006929 -0.00177384 0.00291020
3 1 0 26
3 3 2 1
3 5 4 3
3 7 6 5
3 9 8 7
3 11 10 9
3 13 12 11
3 15 14 13
3 17 16 15
3 19 18 17
3 21 20 19
3 23 22 21
3 25 24 23
3 1 26 25
3 5 3 1
3 9 7 5
3 13 11 9
3 17 15 13
3 21 19 17
3 25 23 21
3 5 1 25
3 13 9 5
3 21 17 13
3 5 25 21
3 21 13 5
3 53 27 28
3 28 29 30
3 30 31 32
3 32 33 34
3 34 35 36
3 36 37 38
3 38 39 40
3 40 41 42
3 42 43 44
3 44 45 46
3 46 47 48
3 48 49 50
3 50 51 52
3 52 53 28
3 28 30 32
3 32 34 36
3 36 38 40
3 40 42 44
3 44 46 48
3 48 50 52
3 52 28 32
3 32 36 40
3 40 44 48
3 48 52 32
3 32 40 48
3 28 27 1
3 1 27 0
3 29 28 2
3 2 28 1
3 30 29 3
3 3 29 2
3 31 30 4
3 4 30 3
3 32 31 5
3 5 31 4
3 33 32 6
3 6 32 5
3 34 33 7
3 7 33 6
3 35 34 8
3 8 34 7
3 36 35 9
3 9 35 8
3 37 36 10
3 10 36 9
3 38 37 11
3 11 37 10
3 39 38 12
3 12 38 11
3 40 39 13
3 13 39 12
3 41 40 14
3 14 40 13
3 42 41 15
3 15 41 14
3 43 42 16
3 16 42 15
3 44 43 17
3 17 43 16
3 45 44 18
3 18 44 17
3 46 45 19
3 19 45 18
3 47 46 20
3 20 46 19
3 48 47 21
3 21 47 20
3 49 48 22
3 22 48 21
3 50 49 23
3 23 49 22
3 51 50 24
3 24 50 23
3 52 51 25
3 25 51 24
3 27 53 0
3 0 53 26
3 53 52 26
3 26 52 25
3 55 54 74
3 57 56 55
3 59 58 57
3 61 60 59
3 63 62 61
3 65 64 63
3 67 66 65
3 69 68 67
3 71 70 69
3 73 72 71
3 55 74 73
3 59 57 55
3 63 61 59
3 67 65 63
3 71 69 67
3 55 73 71
3 63 59 55
3 71 67 63
3 63 55 71
3 95 75 76
3 76 77 78
3 78 79 80
3 80 81 82
3 82 83 84
3 84 85 86
3 86 87 88
3 88 89 90
3 90 91 92
3 92 93 94
3 94 95 76
3 76 78 80
3 80 82 84
3 84 86 88
3 88 90 92
3 92 94 76
3 76 80 84
3 84 88 92
3 92 76 84
3 76 75 55
3 55 75 54
3 77 76 56
3 56 76 55
3 78 77 57
3 57 77 56
3 79 78 58
3 58 78 57
3 80 79 59
3 59 79 58
3 81 80 60
3 60 80 59
3 82 81 61
3 61 81 60
3 83 82 62
3 62 82 61
3 84 83 63
3 63 83 62
3 85 84 64
3 64 84 63
3 86 85 65
3 65 85 64
3 87 86 66
3 66 86 65
3 88 87 67
3 67 87 66
3 89 88 68
3 68 88 67
3 90 89 69
3 69 89 68
3 91 90 70
3 70 90 69
3 92 91 71
3 71 91 70
3 93 92 72
3 72 92 71
3 94 93 73
3 73 93 72
3 75 95 54
3 54 95 74
3 95 94 74
3 74 94 73
