ply
format ascii 1.0
comment https://github.com/mikedh/trimesh
element vertex 812
property float x
property float y
property float z
element face 1580
property list uchar int vertex_indices
end_header
0.16828634 0.00000000 -0.03500000
0.17481847 0.00000000 -0.03500000
0.17481847 -0.00000000 0.01959638
0.16828634 -0.00000000 0.01959638
0.16828634 -0.00000000 0.01359542
0.16719154 -0.00000000 0.01524469
0.16460355 -0.00000000 0.01786093
0.16311038 -0.00000000 0.01882790
0.16146956 0.00000000 0.01957943
0.15773450 0.00000000 0.02043833
0.15564023 0.00000000 0.02054569
0.15388006 0.00000000 0.02045634
0.15061401 0.00000000 0.01974153
0.14768697 0.00000000 0.01831193
0.14509898 0.00000000 0.01616751
0.14393213 0.00000000 0.01482725
0.14287528 0.00000000 0.01334131
0.14118433 0.00000000 0.01003146
0.14005704 0.00000000 0.00627096
0.13949339 0.00000000 0.00205983
0.13942292 0.00000000 -0.00021472
0.13949339 0.00000000 -0.00248946
0.14005704 0.00000000 -0.00670200
0.14118433 0.00000000 -0.01046532
0.14287528 0.00000000 -0.01377941
0.14393213 0.00000000 -0.01526800
0.14509898 0.00000000 -0.01660826
0.14768697 0.00000000 -0.01875267
0.15061401 0.00000000 -0.02018228
0.15388006 0.00000000 -0.02089709
0.15564023 0.00000000 -0.02098644
0.15773450 0.00000000 -0.02087908
0.16146956 0.00000000 -0.02002018
0.16311038 0.00000000 -0.01926865
0.16460355 0.00000000 -0.01829674
0.16719154 0.00000000 -0.01567485
0.16828634 0.00000000 -0.01402486
0.14621587 0.00000000 0.00152832
0.14658457 0.00000000 0.00472516
0.14732198 0.00000000 0.00753635
0.14842810 0.00000000 0.00996188
0.14911941 0.00000000 0.01103003
0.14989126 0.00000000 0.01198622
0.15164153 0.00000000 0.01351613
0.15366729 0.00000000 0.01453607
0.15596850 0.00000000 0.01504604
0.15722242 0.00000000 0.01510978
0.15847898 0.00000000 0.01504604
0.16078442 0.00000000 0.01453607
0.16281301 0.00000000 0.01351613
0.16456470 0.00000000 0.01198622
0.16533671 0.00000000 0.01103003
0.16602804 0.00000000 0.00996188
0.16713415 0.00000000 0.00753635
0.16787155 0.00000000 0.00472516
0.16824026 0.00000000 0.00152832
0.16828634 0.00000000 -0.00021472
0.16824026 0.00000000 -0.00195777
0.16787155 0.00000000 -0.00515461
0.16713415 0.00000000 -0.00796580
0.16602804 0.00000000 -0.01039133
0.16533671 0.00000000 -0.01145948
0.16456470 0.00000000 -0.01241567
0.16281301 0.00000000 -0.01394558
0.16078442 0.00000000 -0.01496552
0.15847898 0.00000000 -0.01547549
0.15722242 0.00000000 -0.01553923
0.15596850 0.00000000 -0.01547549
0.15366729 0.00000000 -0.01496552
0.15164153 0.00000000 -0.01394558
0.14989126 0.00000000 -0.01241567
0.14911941 0.00000000 -0.01145948
0.14842810 0.00000000 -0.01039133
0.14732198 0.00000000 -0.00796580
0.14658457 0.00000000 -0.00515461
0.14621587 0.00000000 -0.00195777
0.14616978 0.00000000 -0.00021472
0.16828634 0.00216984 -0.03500000
0.17481847 0.00216984 -0.03500000
0.17481847 0.00216984 0.01959638
0.16828634 0.00216984 0.01959638
0.16828634 0.00216984 0.01359542
0.16719154 0.00216984 0.01524469
0.16460355 0.00216984 0.01786093
0.16311038 0.00216984 0.01882790
0.16146956 0.00216984 0.01957943
0.15773450 0.00216984 0.02043833
0.15564023 0.00216984 0.02054569
0.15388006 0.00216984 0.02045634
0.15061401 0.00216984 0.01974153
0.14768697 0.00216984 0.01831193
0.14509898 0.00216984 0.01616751
0.14393213 0.00216984 0.01482725
0.14287528 0.00216984 0.01334131
0.14118433 0.00216984 0.01003146
0.14005704 0.00216984 0.00627096
0.13949339 0.00216984 0.00205983
0.13942292 0.00216984 -0.00021472
0.13949339 0.00216984 -0.00248946
0.14005704 0.00216984 -0.00670200
0.14118433 0.00216984 -0.01046532
0.14287528 0.00216984 -0.01377941
0.14393213 0.00216984 -0.01526800
0.14509898 0.00216984 -0.01660826
0.14768697 0.00216984 -0.01875267
0.15061401 0.00216984 -0.02018228
0.15388006 0.00216984 -0.02089709
0.15564023 0.00216984 -0.02098644
0.15773450 0.00216984 -0.02087908
0.16146956 0.00216984 -0.02002018
0.16311038 0.00216984 -0.01926865
0.16460355 0.00216984 -0.01829674
0.16719154 0.00216984 -0.01567485
0.16828634 0.00216984 -0.01402486
0.14621587 0.00216984 0.00152832
0.14658457 0.00216984 0.00472516
0.14732198 0.00216984 0.00753635
0.14842810 0.00216984 0.00996188
0.14911941 0.00216984 0.01103003
0.14989126 0.00216984 0.01198622
0.15164153 0.00216984 0.01351613
0.15366729 0.00216984 0.01453607
0.15596850 0.00216984 0.01504604
0.15722242 0.00216984 0.01510978
0.15847898 0.00216984 0.01504604
0.16078442 0.00216984 0.01453607
0.16281301 0.00216984 0.01351613
0.16456470 0.00216984 0.01198622
0.16533671 0.00216984 0.01103003
0.16602804 0.00216984 0.00996188
0.16713415 0.00216984 0.00753635
0.16787155 0.00216984 0.00472516
0.16824026 0.00216984 0.00152832
0.16828634 0.00216984 -0.00021472
0.16824026 0.00216984 -0.00195777
0.16787155 0.00216984 -0.00515461
0.16713415 0.00216984 -0.00796580
0.16602804 0.00216984 -0.01039133
0.16533671 0.00216984 -0.01145948
0.16456470 0.00216984 -0.01241567
0.16281301 0.00216984 -0.01394558
0.16078442 0.00216984 -0.01496552
0.15847898 0.00216984 -0.01547549
0.15722242 0.00216984 -0.01553923
0.15596850 0.00216984 -0.01547549
0.15366729 0.00216984 -0.01496552
0.15164153 0.00216984 -0.01394558
0.14989126 0.00216984 -0.01241567
0.14911941 0.00216984 -0.01145948
0.14842810 0.00216984 -0.01039133
0.14732198 0.00216984 -0.00796580
0.14658457 0.00216984 -0.00515461
0.14621587 0.00216984 -0.00195777
0.14616978 0.00216984 -0.00021472
0.10688378 0.00000000 0.01407572
0.10812409 0.00000000 0.01445431
0.10947742 0.00000000 0.01468316
0.11096071 0.00000000 0.01475944
0.11229938 0.00000000 0.01470347
0.11473621 0.00000000 0.01425566
0.11685237 0.00000000 0.01336003
0.11864786 0.00000000 0.01201659
0.11942535 0.00000000 0.01117695
0.12011667 0.00000000 0.01023241
0.12122278 0.00000000 0.00804985
0.12196019 0.00000000 0.00547599
0.12232889 0.00000000 0.00251082
0.12237498 0.00000000 0.00088150
0.12237498 0.00000000 -0.01995802
0.12890711 0.00000000 -0.01995802
0.12890711 0.00000000 0.01959638
0.12237498 0.00000000 0.01959638
0.12237498 0.00000000 0.01344850
0.12127028 0.00000000 0.01513450
0.11860318 0.00000000 0.01780725
0.11704078 0.00000000 0.01879399
0.11530816 0.00000000 0.01956036
0.11131316 0.00000000 0.02043621
0.10905080 0.00000000 0.02054569
0.10834729 0.00000000 0.02052309
0.10757033 0.00000000 0.02045528
0.10671426 0.00000000 0.02035074
0.10577343 0.00000000 0.02019535
0.10573953 0.00000000 0.01352761
0.10688378 0.00216984 0.01407572
0.10812409 0.00216984 0.01445431
0.10947742 0.00216984 0.01468316
0.11096071 0.00216984 0.01475944
0.11229938 0.00216984 0.01470347
0.11473621 0.00216984 0.01425566
0.11685237 0.00216984 0.01336003
0.11864786 0.00216984 0.01201659
0.11942535 0.00216984 0.01117695
0.12011667 0.00216984 0.01023241
0.12122278 0.00216984 0.00804985
0.12196019 0.00216984 0.00547599
0.12232889 0.00216984 0.00251082
0.12237498 0.00216984 0.00088150
0.12237498 0.00216984 -0.01995802
0.12890711 0.00216984 -0.01995802
0.12890711 0.00216984 0.01959638
0.12237498 0.00216984 0.01959638
0.12237498 0.00216984 0.01344850
0.12127028 0.00216984 0.01513450
0.11860318 0.00216984 0.01780725
0.11704078 0.00216984 0.01879399
0.11530816 0.00216984 0.01956036
0.11131316 0.00216984 0.02043621
0.10905080 0.00216984 0.02054569
0.10834729 0.00216984 0.02052309
0.10757033 0.00216984 0.02045528
0.10671426 0.00216984 0.02035074
0.10577343 0.00216984 0.02019535
0.10573953 0.00216984 0.01352761
0.09242382 0.00000000 0.01959638
0.09242382 0.00000000 -0.01995802
0.09892204 0.00000000 -0.01995802
0.09892204 0.00000000 0.01959638
0.09242382 0.00216984 0.01959638
0.09242382 0.00216984 -0.01995802
0.09892204 0.00216984 -0.01995802
0.09892204 0.00216984 0.01959638
0.09242382 0.00000000 0.03500000
0.09242382 0.00000000 0.02676138
0.09892204 0.00000000 0.02676138
0.09892204 0.00000000 0.03500000
0.09242382 0.00216984 0.03500000
0.09242382 0.00216984 0.02676138
0.09892204 0.00216984 0.02676138
0.09892204 0.00216984 0.03500000
0.04675119 0.00000000 0.01405029
0.04383546 0.00000000 0.01728245
0.04219961 0.00000000 0.01846626
0.04042955 0.00000000 0.01937601
0.03644020 0.00000000 0.02041573
0.03422092 0.00000000 0.02054569
0.03271962 0.00000000 0.02047806
0.02998189 0.00000000 0.01993701
0.02759732 0.00000000 0.01885491
0.02556592 0.00000000 0.01723177
0.02468266 0.00000000 0.01621731
0.02389598 0.00000000 0.01508082
0.02263731 0.00000000 0.01246458
0.02179819 0.00000000 0.00939064
0.02137863 0.00000000 0.00585900
0.02132618 0.00000000 0.00392154
0.02132618 0.00000000 -0.01995802
0.02785831 0.00000000 -0.01995802
0.02785831 0.00000000 0.00370681
0.02798474 0.00000000 0.00636543
0.02864852 0.00000000 0.00966470
0.02940711 0.00000000 0.01140509
0.02988124 0.00000000 0.01213755
0.03041716 0.00000000 0.01278384
0.03168714 0.00000000 0.01381791
0.03322129 0.00000000 0.01450729
0.03501960 0.00000000 0.01485197
0.03601782 0.00000000 0.01489506
0.03724771 0.00000000 0.01484261
0.03950938 0.00000000 0.01442306
0.04150688 0.00000000 0.01358394
0.04324021 0.00000000 0.01232526
0.04400781 0.00000000 0.01153859
0.04469383 0.00000000 0.01066397
0.04579147 0.00000000 0.00868484
0.04652322 0.00000000 0.00639916
0.04688910 0.00000000 0.00380694
0.04693484 0.00000000 0.00239587
0.04693484 0.00000000 -0.01995802
0.05346696 0.00000000 -0.01995802
0.05346696 0.00000000 0.00370681
0.05359269 0.00000000 0.00637956
0.05425275 0.00000000 0.00968942
0.05500712 0.00000000 0.01142981
0.05547859 0.00000000 0.01216015
0.05601575 0.00000000 0.01280115
0.05729562 0.00000000 0.01382674
0.05884954 0.00000000 0.01451046
0.06067752 0.00000000 0.01485233
0.06169428 0.00000000 0.01489506
0.06290828 0.00000000 0.01484244
0.06514452 0.00000000 0.01442147
0.06712507 0.00000000 0.01357952
0.06884992 0.00000000 0.01231661
0.06961647 0.00000000 0.01152728
0.07030249 0.00000000 0.01064791
0.07140012 0.00000000 0.00866453
0.07213188 0.00000000 0.00638168
0.07249776 0.00000000 0.00379934
0.07254349 0.00000000 0.00239587
0.07254349 0.00000000 -0.01995802
0.07907562 0.00000000 -0.01995802
0.07907562 0.00000000 0.01959638
0.07254349 0.00000000 0.01959638
0.07254349 0.00000000 0.01344850
0.07137522 0.00000000 0.01514863
0.06870812 0.00000000 0.01783268
0.06720930 0.00000000 0.01881660
0.06558262 0.00000000 0.01957307
0.06189276 0.00000000 0.02043762
0.05982957 0.00000000 0.02054569
0.05775226 0.00000000 0.02040866
0.05408500 0.00000000 0.01931244
0.05249505 0.00000000 0.01835324
0.05108452 0.00000000 0.01713836
0.04885252 0.00000000 0.01396271
0.04803106 0.00000000 0.01200194
0.04675119 0.00216984 0.01405029
0.04383546 0.00216984 0.01728245
0.04219961 0.00216984 0.01846626
0.04042955 0.00216984 0.01937601
0.03644020 0.00216984 0.02041573
0.03422092 0.00216984 0.02054569
0.03271962 0.00216984 0.02047806
0.02998189 0.00216984 0.01993701
0.02759732 0.00216984 0.01885491
0.02556592 0.00216984 0.01723177
0.02468266 0.00216984 0.01621731
0.02389598 0.00216984 0.01508082
0.02263731 0.00216984 0.01246458
0.02179819 0.00216984 0.00939064
0.02137863 0.00216984 0.00585900
0.02132618 0.00216984 0.00392154
0.02132618 0.00216984 -0.01995802
0.02785831 0.00216984 -0.01995802
0.02785831 0.00216984 0.00370681
0.02798474 0.00216984 0.00636543
0.02864852 0.00216984 0.00966470
0.02940711 0.00216984 0.01140509
0.02988124 0.00216984 0.01213755
0.03041716 0.00216984 0.01278384
0.03168714 0.00216984 0.01381791
0.03322129 0.00216984 0.01450729
0.03501960 0.00216984 0.01485197
0.03601782 0.00216984 0.01489506
0.03724771 0.00216984 0.01484261
0.03950938 0.00216984 0.01442306
0.04150688 0.00216984 0.01358394
0.04324021 0.00216984 0.01232526
0.04400781 0.00216984 0.01153859
0.04469383 0.00216984 0.01066397
0.04579147 0.00216984 0.00868484
0.04652322 0.00216984 0.00639916
0.04688910 0.00216984 0.00380694
0.04693484 0.00216984 0.00239587
0.04693484 0.00216984 -0.01995802
0.05346696 0.00216984 -0.01995802
0.05346696 0.00216984 0.00370681
0.05359269 0.00216984 0.00637956
0.05425275 0.00216984 0.00968942
0.05500712 0.00216984 0.01142981
0.05547859 0.00216984 0.01216015
0.05601575 0.00216984 0.01280115
0.05729562 0.00216984 0.01382674
0.05884954 0.00216984 0.01451046
0.06067752 0.00216984 0.01485233
0.06169428 0.00216984 0.01489506
0.06290828 0.00216984 0.01484244
0.06514452 0.00216984 0.01442147
0.06712507 0.00216984 0.01357952
0.06884992 0.00216984 0.01231661
0.06961647 0.00216984 0.01152728
0.07030249 0.00216984 0.01064791
0.07140012 0.00216984 0.00866453
0.07213188 0.00216984 0.00638168
0.07249776 0.00216984 0.00379934
0.07254349 0.00216984 0.00239587
0.07254349 0.00216984 -0.01995802
0.07907562 0.00216984 -0.01995802
0.07907562 0.00216984 0.01959638
0.07254349 0.00216984 0.01959638
0.07254349 0.00216984 0.01344850
0.07137522 0.00216984 0.01514863
0.06870812 0.00216984 0.01783268
0.06720930 0.00216984 0.01881660
0.06558262 0.00216984 0.01957307
0.06189276 0.00216984 0.02043762
0.05982957 0.00216984 0.02054569
0.05775226 0.00216984 0.02040866
0.05408500 0.00216984 0.01931244
0.05249505 0.00216984 0.01835324
0.05108452 0.00216984 0.01713836
0.04885252 0.00216984 0.01396271
0.04803106 0.00216984 0.01200194
0.00187248 0.00000000 0.01959638
0.00187248 0.00000000 -0.01995802
0.00837070 0.00000000 -0.01995802
0.00837070 0.00000000 0.01959638
0.00187248 0.00216984 0.01959638
0.00187248 0.00216984 -0.01995802
0.00837070 0.00216984 -0.01995802
0.00837070 0.00216984 0.01959638
0.00187248 0.00000000 0.03500000
0.00187248 0.00000000 0.02676138
0.00837070 0.00000000 0.02676138
0.00837070 0.00000000 0.03500000
0.00187248 0.00216984 0.03500000
0.00187248 0.00216984 0.02676138
0.00837070 0.00216984 0.02676138
0.00837070 0.00216984 0.03500000
-0.01815477 0.00000000 0.01959638
-0.03153546 0.00000000 0.01959638
-0.03153546 0.00000000 0.01454472
-0.01815477 0.00000000 0.01454472
-0.01815477 0.00000000 -0.00692767
-0.01823741 0.00000000 -0.00913000
-0.01889853 0.00000000 -0.01223785
-0.01947701 0.00000000 -0.01314336
-0.02030978 0.00000000 -0.01374657
-0.02300513 0.00000000 -0.01443595
-0.02486772 0.00000000 -0.01452212
-0.03153546 0.00000000 -0.01452212
-0.03153546 0.00000000 -0.01995802
-0.02486772 0.00000000 -0.01995802
-0.02305898 0.00000000 -0.01991423
-0.01987909 0.00000000 -0.01956389
-0.01728263 0.00000000 -0.01886321
-0.01526959 0.00000000 -0.01781220
-0.01448186 0.00000000 -0.01715531
-0.01381173 0.00000000 -0.01637994
-0.01273952 0.00000000 -0.01439798
-0.01202472 0.00000000 -0.01184107
-0.01166731 0.00000000 -0.00870921
-0.01162264 0.00000000 -0.00692767
-0.01162264 0.00000000 0.01454472
-0.00685351 0.00000000 0.01454472
-0.00685351 0.00000000 0.01959638
-0.01162264 0.00000000 0.01959638
-0.01162264 0.00000000 0.03082984
-0.01815477 0.00000000 0.03082984
-0.01815477 0.00216984 0.01959638
-0.03153546 0.00216984 0.01959638
-0.03153546 0.00216984 0.01454472
-0.01815477 0.00216984 0.01454472
-0.01815477 0.00216984 -0.00692767
-0.01823741 0.00216984 -0.00913000
-0.01889853 0.00216984 -0.01223785
-0.01947701 0.00216984 -0.01314336
-0.02030978 0.00216984 -0.01374657
-0.02300513 0.00216984 -0.01443595
-0.02486772 0.00216984 -0.01452212
-0.03153546 0.00216984 -0.01452212
-0.03153546 0.00216984 -0.01995802
-0.02486772 0.00216984 -0.01995802
-0.02305898 0.00216984 -0.01991423
-0.01987909 0.00216984 -0.01956389
-0.01728263 0.00216984 -0.01886321
-0.01526959 0.00216984 -0.01781220
-0.01448186 0.00216984 -0.01715531
-0.01381173 0.00216984 -0.01637994
-0.01273952 0.00216984 -0.01439798
-0.01202472 0.00216984 -0.01184107
-0.01166731 0.00216984 -0.00870921
-0.01162264 0.00216984 -0.00692767
-0.01162264 0.00216984 0.01454472
-0.00685351 0.00216984 0.01454472
-0.00685351 0.00216984 0.01959638
-0.01162264 0.00216984 0.01959638
-0.01162264 0.00216984 0.03082984
-0.01815477 0.00216984 0.03082984
-0.04658167 0.00000000 0.01959638
-0.04658167 0.00000000 -0.01995802
-0.04008345 0.00000000 -0.01995802
-0.04008345 0.00000000 0.01959638
-0.04658167 0.00216984 0.01959638
-0.04658167 0.00216984 -0.01995802
-0.04008345 0.00216984 -0.01995802
-0.04008345 0.00216984 0.01959638
-0.04658167 0.00000000 0.03500000
-0.04658167 0.00000000 0.02676138
-0.04008345 0.00000000 0.02676138
-0.04008345 0.00000000 0.03500000
-0.04658167 0.00216984 0.03500000
-0.04658167 0.00216984 0.02676138
-0.04008345 0.00216984 0.02676138
-0.04008345 0.00216984 0.03500000
-0.06240485 0.00000000 0.01959638
-0.07476842 0.00000000 -0.01359542
-0.08713200 0.00000000 0.01959638
-0.09401447 0.00000000 0.01959638
-0.07917592 0.00000000 -0.01995802
-0.07034963 0.00000000 -0.01995802
-0.05552238 0.00000000 0.01959638
-0.06240485 0.00216984 0.01959638
-0.07476842 0.00216984 -0.01359542
-0.08713200 0.00216984 0.01959638
-0.09401447 0.00216984 0.01959638
-0.07917592 0.00216984 -0.01995802
-0.07034963 0.00216984 -0.01995802
-0.05552238 0.00216984 0.01959638
-0.13681799 0.00000000 -0.00172909
-0.10693746 0.00000000 -0.00172909
-0.10709462 0.00000000 -0.00335736
-0.10770771 0.00000000 -0.00631405
-0.10871917 0.00000000 -0.00887096
-0.11012901 0.00000000 -0.01102809
-0.11098331 0.00000000 -0.01195673
-0.11193191 0.00000000 -0.01278049
-0.11409610 0.00000000 -0.01409850
-0.11661628 0.00000000 -0.01497717
-0.11949245 0.00000000 -0.01541651
-0.12106404 0.00000000 -0.01547142
-0.12292027 0.00000000 -0.01541421
-0.12654796 0.00000000 -0.01495651
-0.12831944 0.00000000 -0.01455602
-0.13007396 0.00000000 -0.01404040
-0.13356605 0.00000000 -0.01266165
-0.13530362 0.00000000 -0.01179851
-0.13530362 0.00000000 -0.01794640
-0.13175786 0.00000000 -0.01925169
-0.12812732 0.00000000 -0.02020665
-0.12628451 0.00000000 -0.02054781
-0.12256075 0.00000000 -0.02093770
-0.12067979 0.00000000 -0.02098644
-0.11837380 0.00000000 -0.02090044
-0.11413159 0.00000000 -0.02021248
-0.11038240 0.00000000 -0.01883655
-0.10712623 0.00000000 -0.01677266
-0.10568302 0.00000000 -0.01548273
-0.10438779 0.00000000 -0.01404323
-0.10231542 0.00000000 -0.01079977
-0.10093384 0.00000000 -0.00707035
-0.10024305 0.00000000 -0.00285498
-0.10015670 0.00000000 -0.00056506
-0.10023864 0.00000000 0.00179920
-0.10089411 0.00000000 0.00615159
-0.10220506 0.00000000 0.01000250
-0.10417148 0.00000000 0.01335191
-0.10540049 0.00000000 0.01483855
-0.10676865 0.00000000 0.01617616
-0.10984824 0.00000000 0.01831634
-0.11338554 0.00000000 0.01974312
-0.11738053 0.00000000 0.02045652
-0.11954966 0.00000000 0.02054569
-0.12149224 0.00000000 0.02046534
-0.12506485 0.00000000 0.01982258
-0.12822074 0.00000000 0.01853707
-0.13095987 0.00000000 0.01660879
-0.13217317 0.00000000 0.01540362
-0.13326180 0.00000000 0.01406318
-0.13500361 0.00000000 0.01103586
-0.13616481 0.00000000 0.00754659
-0.13674541 0.00000000 0.00359539
-0.13681799 0.00000000 0.00144656
-0.13025832 0.00000000 0.00465365
-0.12986842 0.00000000 0.00704669
-0.12912254 0.00000000 0.00917132
-0.12802066 0.00000000 0.01102756
-0.12733623 0.00000000 0.01185502
-0.12657781 0.00000000 0.01260196
-0.12488404 0.00000000 0.01379707
-0.12295435 0.00000000 0.01459381
-0.12078875 0.00000000 0.01499218
-0.11961747 0.00000000 0.01504198
-0.11829240 0.00000000 0.01499395
-0.11584568 0.00000000 0.01460970
-0.11367019 0.00000000 0.01384122
-0.11176592 0.00000000 0.01268849
-0.11091550 0.00000000 0.01196803
-0.11014225 0.00000000 0.01116035
-0.10885532 0.00000000 0.00930977
-0.10791449 0.00000000 0.00714557
-0.10731976 0.00000000 0.00466777
-0.10715219 0.00000000 0.00331127
-0.13031976 0.00000000 0.00335647
-0.13681799 0.00216984 -0.00172909
-0.10693746 0.00216984 -0.00172909
-0.10709462 0.00216984 -0.00335736
-0.10770771 0.00216984 -0.00631405
-0.10871917 0.00216984 -0.00887096
-0.11012901 0.00216984 -0.01102809
-0.11098331 0.00216984 -0.01195673
-0.11193191 0.00216984 -0.01278049
-0.11409610 0.00216984 -0.01409850
-0.11661628 0.00216984 -0.01497717
-0.11949245 0.00216984 -0.01541651
-0.12106404 0.00216984 -0.01547142
-0.12292027 0.00216984 -0.01541421
-0.12654796 0.00216984 -0.01495651
-0.12831944 0.00216984 -0.01455602
-0.13007396 0.00216984 -0.01404040
-0.13356605 0.00216984 -0.01266165
-0.13530362 0.00216984 -0.01179851
-0.13530362 0.00216984 -0.01794640
-0.13175786 0.00216984 -0.01925169
-0.12812732 0.00216984 -0.02020665
-0.12628451 0.00216984 -0.02054781
-0.12256075 0.00216984 -0.02093770
-0.12067979 0.00216984 -0.02098644
-0.11837380 0.00216984 -0.02090044
-0.11413159 0.00216984 -0.02021248
-0.11038240 0.00216984 -0.01883655
-0.10712623 0.00216984 -0.01677266
-0.10568302 0.00216984 -0.01548273
-0.10438779 0.00216984 -0.01404323
-0.10231542 0.00216984 -0.01079977
-0.10093384 0.00216984 -0.00707035
-0.10024305 0.00216984 -0.00285498
-0.10015670 0.00216984 -0.00056506
-0.10023864 0.00216984 0.00179920
-0.10089411 0.00216984 0.00615159
-0.10220506 0.00216984 0.01000250
-0.10417148 0.00216984 0.01335191
-0.10540049 0.00216984 0.01483855
-0.10676865 0.00216984 0.01617616
-0.10984824 0.00216984 0.01831634
-0.11338554 0.00216984 0.01974312
-0.11738053 0.00216984 0.02045652
-0.11954966 0.00216984 0.02054569
-0.12149224 0.00216984 0.02046534
-0.12506485 0.00216984 0.01982258
-0.12822074 0.00216984 0.01853707
-0.13095987 0.00216984 0.01660879
-0.13217317 0.00216984 0.01540362
-0.13326180 0.00216984 0.01406318
-0.13500361 0.00216984 0.01103586
-0.13616481 0.00216984 0.00754659
-0.13674541 0.00216984 0.00359539
-0.13681799 0.00216984 0.00144656
-0.13025832 0.00216984 0.00465365
-0.12986842 0.00216984 0.00704669
-0.12912254 0.00216984 0.00917132
-0.12802066 0.00216984 0.01102756
-0.12733623 0.00216984 0.01185502
-0.12657781 0.00216984 0.01260196
-0.12488404 0.00216984 0.01379707
-0.12295435 0.00216984 0.01459381
-0.12078875 0.00216984 0.01499218
-0.11961747 0.00216984 0.01504198
-0.11829240 0.00216984 0.01499395
-0.11584568 0.00216984 0.01460970
-0.11367019 0.00216984 0.01384122
-0.11176592 0.00216984 0.01268849
-0.11091550 0.00216984 0.01196803
-0.11014225 0.00216984 0.01116035
-0.10885532 0.00216984 0.00930977
-0.10791449 0.00216984 0.00714557
-0.10731976 0.00216984 0.00466777
-0.10715219 0.00216984 0.00331127
-0.13031976 0.00216984 0.00335647
-0.17269383 0.00000000 0.01228447
-0.17130661 0.00000000 0.01294630
-0.16844739 0.00000000 0.01400297
-0.16697539 0.00000000 0.01439780
-0.16548081 0.00000000 0.01470930
-0.16240686 0.00000000 0.01506529
-0.16082752 0.00000000 0.01510978
-0.15856020 0.00000000 0.01501725
-0.15493250 0.00000000 0.01427702
-0.15357211 0.00000000 0.01362932
-0.15251403 0.00000000 0.01279585
-0.15130480 0.00000000 0.01056950
-0.15115364 0.00000000 0.00917662
-0.15126170 0.00000000 0.00810724
-0.15212625 0.00000000 0.00633294
-0.15288273 0.00000000 0.00562803
-0.15396623 0.00000000 0.00499162
-0.15744703 0.00000000 0.00376544
-0.15984431 0.00000000 0.00317565
-0.16207065 0.00000000 0.00267840
-0.16527879 0.00000000 0.00186188
-0.16915336 0.00000000 0.00035105
-0.17111130 0.00000000 -0.00084689
-0.17190275 0.00000000 -0.00150307
-0.17258613 0.00000000 -0.00221169
-0.17367952 0.00000000 -0.00382918
-0.17440845 0.00000000 -0.00571367
-0.17477292 0.00000000 -0.00786515
-0.17481847 0.00000000 -0.00904101
-0.17475031 0.00000000 -0.01038392
-0.17420502 0.00000000 -0.01285465
-0.17311445 0.00000000 -0.01503862
-0.17147860 0.00000000 -0.01693582
-0.17045619 0.00000000 -0.01777688
-0.16931458 0.00000000 -0.01852912
-0.16672519 0.00000000 -0.01973270
-0.16372752 0.00000000 -0.02053509
-0.16032161 0.00000000 -0.02093629
-0.15846555 0.00000000 -0.02098644
-0.15522209 0.00000000 -0.02083105
-0.15184301 0.00000000 -0.02036487
-0.14830571 0.00000000 -0.01959073
-0.14458761 0.00000000 -0.01851146
-0.14458761 0.00000000 -0.01179851
-0.14638309 0.00000000 -0.01267789
-0.14993168 0.00000000 -0.01408490
-0.15168479 0.00000000 -0.01461253
-0.15342730 0.00000000 -0.01501796
-0.15689114 0.00000000 -0.01548131
-0.15861247 0.00000000 -0.01553923
-0.16077383 0.00000000 -0.01544105
-0.16429983 0.00000000 -0.01465561
-0.16566445 0.00000000 -0.01396836
-0.16674726 0.00000000 -0.01310240
-0.16798474 0.00000000 -0.01088735
-0.16813943 0.00000000 -0.00953826
-0.16802783 0.00000000 -0.00829301
-0.16713503 0.00000000 -0.00626443
-0.16635384 0.00000000 -0.00548111
-0.16519968 0.00000000 -0.00478114
-0.16128945 0.00000000 -0.00341934
-0.15853336 0.00000000 -0.00275751
-0.15627311 0.00000000 -0.00222635
-0.15346475 0.00000000 -0.00150801
-0.15003623 0.00000000 -0.00011001
-0.14827323 0.00000000 0.00103565
-0.14754854 0.00000000 0.00167259
-0.14692079 0.00000000 0.00236143
-0.14591639 0.00000000 0.00392242
-0.14524679 0.00000000 0.00572780
-0.14491199 0.00000000 0.00777756
-0.14487013 0.00000000 0.00889409
-0.14493194 0.00000000 0.01024989
-0.14542638 0.00000000 0.01272204
-0.14641523 0.00000000 0.01487493
-0.14789852 0.00000000 0.01670856
-0.14882557 0.00000000 0.01750565
-0.14986636 0.00000000 0.01821816
-0.15225939 0.00000000 0.01935817
-0.15506776 0.00000000 0.02011818
-0.15829144 0.00000000 0.02049819
-0.16005903 0.00000000 0.02054569
-0.16354829 0.00000000 0.02041290
-0.16682848 0.00000000 0.02001453
-0.16988830 0.00000000 0.01935906
-0.17269383 0.00000000 0.01843235
-0.17269383 0.00216984 0.01228447
-0.17130661 0.00216984 0.01294630
-0.16844739 0.00216984 0.01400297
-0.16697539 0.00216984 0.01439780
-0.16548081 0.00216984 0.01470930
-0.16240686 0.00216984 0.01506529
-0.16082752 0.00216984 0.01510978
-0.15856020 0.00216984 0.01501725
-0.15493250 0.00216984 0.01427702
-0.15357211 0.00216984 0.01362932
-0.15251403 0.00216984 0.01279585
-0.15130480 0.00216984 0.01056950
-0.15115364 0.00216984 0.00917662
-0.15126170 0.00216984 0.00810724
-0.15212625 0.00216984 0.00633294
-0.15288273 0.00216984 0.00562803
-0.15396623 0.00216984 0.00499162
-0.15744703 0.00216984 0.00376544
-0.15984431 0.00216984 0.00317565
-0.16207065 0.00216984 0.00267840
-0.16527879 0.00216984 0.00186188
-0.16915336 0.00216984 0.00035105
-0.17111130 0.00216984 -0.00084689
-0.17190275 0.00216984 -0.00150307
-0.17258613 0.00216984 -0.00221169
-0.17367952 0.00216984 -0.00382918
-0.17440845 0.00216984 -0.00571367
-0.17477292 0.00216984 -0.00786515
-0.17481847 0.00216984 -0.00904101
-0.17475031 0.00216984 -0.01038392
-0.17420502 0.00216984 -0.01285465
-0.17311445 0.00216984 -0.01503862
-0.17147860 0.00216984 -0.01693582
-0.17045619 0.00216984 -0.01777688
-0.16931458 0.00216984 -0.01852912
-0.16672519 0.00216984 -0.01973270
-0.16372752 0.00216984 -0.02053509
-0.16032161 0.00216984 -0.02093629
-0.15846555 0.00216984 -0.02098644
-0.15522209 0.00216984 -0.02083105
-0.15184301 0.00216984 -0.02036487
-0.14830571 0.00216984 -0.01959073
-0.14458761 0.00216984 -0.01851146
-0.14458761 0.00216984 -0.01179851
-0.14638309 0.00216984 -0.01267789
-0.14993168 0.00216984 -0.01408490
-0.15168479 0.00216984 -0.01461253
-0.15342730 0.00216984 -0.01501796
-0.15689114 0.00216984 -0.01548131
-0.15861247 0.00216984 -0.01553923
-0.16077383 0.00216984 -0.01544105
-0.16429983 0.00216984 -0.01465561
-0.16566445 0.00216984 -0.01396836
-0.16674726 0.00216984 -0.01310240
-0.16798474 0.00216984 -0.01088735
-0.16813943 0.00216984 -0.00953826
-0.16802783 0.00216984 -0.00829301
-0.16713503 0.00216984 -0.00626443
-0.16635384 0.00216984 -0.00548111
-0.16519968 0.00216984 -0.00478114
-0.16128945 0.00216984 -0.00341934
-0.15853336 0.00216984 -0.00275751
-0.15627311 0.00216984 -0.00222635
-0.15346475 0.00216984 -0.00150801
-0.15003623 0.00216984 -0.00011001
-0.14827323 0.00216984 0.00103565
-0.14754854 0.00216984 0.00167259
-0.14692079 0.00216984 0.00236143
-0.14591639 0.00216984 0.00392242
-0.14524679 0.00216984 0.00572780
-0.14491199 0.00216984 0.00777756
-0.14487013 0.00216984 0.00889409
-0.14493194 0.00216984 0.01024989
-0.14542638 0.00216984 0.01272204
-0.14641523 0.00216984 0.01487493
-0.14789852 0.00216984 0.01670856
-0.14882557 0.00216984 0.01750565
-0.14986636 0.00216984 0.01821816
-0.15225939 0.00216984 0.01935817
-0.15506776 0.00216984 0.02011818
-0.15829144 0.00216984 0.02049819
-0.16005903 0.00216984 0.02054569
-0.16354829 0.00216984 0.02041290
-0.16682848 0.00216984 0.02001453
-0.16988830 0.00216984 0.01935906
-0.17269383 0.00216984 0.01843235
3 55 56 1
3 1 56 57
3 36 0 1
3 34 35 36
3 32 33 34
3 30 31 32
3 28 29 30
3 26 27 28
3 24 25 26
3 22 23 24
3 20 21 22
3 18 19 20
3 16 17 18
3 14 15 16
3 12 13 14
3 10 11 12
3 8 9 10
3 6 7 8
3 4 5 6
3 2 3 4
3 55 1 2
3 1 57 58
3 32 34 36
3 28 30 32
3 24 26 28
3 20 22 24
3 16 18 20
3 12 14 16
3 8 10 12
3 4 6 8
3 55 2 4
3 1 58 59
3 28 32 36
3 20 24 28
3 12 16 20
3 4 8 12
3 54 55 4
3 36 1 59
3 53 54 4
3 36 59 60
3 52 53 4
3 36 60 61
3 51 52 4
3 36 61 62
3 50 51 4
3 36 62 63
3 49 50 4
3 36 63 64
3 49 4 12
3 36 64 65
3 48 49 12
3 28 36 65
3 47 48 12
3 28 65 66
3 46 47 12
3 28 66 67
3 45 46 12
3 28 67 68
3 44 45 12
3 28 68 69
3 43 44 12
3 28 69 70
3 42 43 12
3 28 70 71
3 42 12 20
3 28 71 72
3 41 42 20
3 28 72 73
3 40 41 20
3 20 28 73
3 39 40 20
3 20 73 74
3 38 39 20
3 20 74 75
3 37 38 20
3 20 75 76
3 76 37 20
3 78 133 132
3 134 133 78
3 78 77 113
3 113 112 111
3 111 110 109
3 109 108 107
3 107 106 105
3 105 104 103
3 103 102 101
3 101 100 99
3 99 98 97
3 97 96 95
3 95 94 93
3 93 92 91
3 91 90 89
3 89 88 87
3 87 86 85
3 85 84 83
3 83 82 81
3 81 80 79
3 79 78 132
3 135 134 78
3 113 111 109
3 109 107 105
3 105 103 101
3 101 99 97
3 97 95 93
3 93 91 89
3 89 87 85
3 85 83 81
3 81 79 132
3 136 135 78
3 113 109 105
3 105 101 97
3 97 93 89
3 89 85 81
3 81 132 131
3 136 78 113
3 81 131 130
3 137 136 113
3 81 130 129
3 138 137 113
3 81 129 128
3 139 138 113
3 81 128 127
3 140 139 113
3 81 127 126
3 141 140 113
3 89 81 126
3 142 141 113
3 89 126 125
3 142 113 105
3 89 125 124
3 143 142 105
3 89 124 123
3 144 143 105
3 89 123 122
3 145 144 105
3 89 122 121
3 146 145 105
3 89 121 120
3 147 146 105
3 89 120 119
3 148 147 105
3 97 89 119
3 149 148 105
3 97 119 118
3 150 149 105
3 97 118 117
3 150 105 97
3 97 117 116
3 151 150 97
3 97 116 115
3 152 151 97
3 97 115 114
3 153 152 97
3 97 114 153
3 77 78 0
3 0 78 1
3 78 79 1
3 1 79 2
3 79 80 2
3 2 80 3
3 80 81 3
3 3 81 4
3 81 82 4
3 4 82 5
3 82 83 5
3 5 83 6
3 83 84 6
3 6 84 7
3 84 85 7
3 7 85 8
3 85 86 8
3 8 86 9
3 86 87 9
3 9 87 10
3 87 88 10
3 10 88 11
3 88 89 11
3 11 89 12
3 89 90 12
3 12 90 13
3 90 91 13
3 13 91 14
3 91 92 14
3 14 92 15
3 92 93 15
3 15 93 16
3 93 94 16
3 16 94 17
3 94 95 17
3 17 95 18
3 95 96 18
3 18 96 19
3 96 97 19
3 19 97 20
3 97 98 20
3 20 98 21
3 98 99 21
3 21 99 22
3 99 100 22
3 22 100 23
3 100 101 23
3 23 101 24
3 101 102 24
3 24 102 25
3 102 103 25
3 25 103 26
3 103 104 26
3 26 104 27
3 104 105 27
3 27 105 28
3 105 106 28
3 28 106 29
3 106 107 29
3 29 107 30
3 107 108 30
3 30 108 31
3 108 109 31
3 31 109 32
3 109 110 32
3 32 110 33
3 110 111 33
3 33 111 34
3 111 112 34
3 34 112 35
3 113 77 36
3 36 77 0
3 112 113 35
3 35 113 36
3 114 115 37
3 37 115 38
3 115 116 38
3 38 116 39
3 116 117 39
3 39 117 40
3 117 118 40
3 40 118 41
3 118 119 41
3 41 119 42
3 119 120 42
3 42 120 43
3 120 121 43
3 43 121 44
3 121 122 44
3 44 122 45
3 122 123 45
3 45 123 46
3 123 124 46
3 46 124 47
3 124 125 47
3 47 125 48
3 125 126 48
3 48 126 49
3 126 127 49
3 49 127 50
3 127 128 50
3 50 128 51
3 128 129 51
3 51 129 52
3 129 130 52
3 52 130 53
3 130 131 53
3 53 131 54
3 131 132 54
3 54 132 55
3 132 133 55
3 55 133 56
3 133 134 56
3 56 134 57
3 134 135 57
3 57 135 58
3 135 136 58
3 58 136 59
3 136 137 59
3 59 137 60
3 137 138 60
3 60 138 61
3 138 139 61
3 61 139 62
3 139 140 62
3 62 140 63
3 140 141 63
3 63 141 64
3 141 142 64
3 64 142 65
3 142 143 65
3 65 143 66
3 143 144 66
3 66 144 67
3 144 145 67
3 67 145 68
3 145 146 68
3 68 146 69
3 146 147 69
3 69 147 70
3 147 148 70
3 70 148 71
3 148 149 71
3 71 149 72
3 149 150 72
3 72 150 73
3 150 151 73
3 73 151 74
3 151 152 74
3 74 152 75
3 153 114 76
3 76 114 37
3 152 153 75
3 75 153 76
3 182 183 154
3 180 181 182
3 178 179 180
3 176 177 178
3 174 175 176
3 172 173 174
3 170 171 172
3 168 169 170
3 182 154 155
3 178 180 182
3 174 176 178
3 167 168 170
3 182 155 156
3 174 178 182
3 167 170 172
3 182 156 157
3 172 174 182
3 166 167 172
3 182 157 158
3 165 166 172
3 182 158 159
3 164 165 172
3 182 159 160
3 163 164 172
3 172 182 160
3 162 163 172
3 172 160 161
3 161 162 172
3 184 213 212
3 212 211 210
3 210 209 208
3 208 207 206
3 206 205 204
3 204 203 202
3 202 201 200
3 200 199 198
3 185 184 212
3 212 210 208
3 208 206 204
3 200 198 197
3 186 185 212
3 212 208 204
3 202 200 197
3 187 186 212
3 212 204 202
3 202 197 196
3 188 187 212
3 202 196 195
3 189 188 212
3 202 195 194
3 190 189 212
3 202 194 193
3 190 212 202
3 202 193 192
3 191 190 202
3 202 192 191
3 184 185 154
3 154 185 155
3 185 186 155
3 155 186 156
3 186 187 156
3 156 187 157
3 187 188 157
3 157 188 158
3 188 189 158
3 158 189 159
3 189 190 159
3 159 190 160
3 190 191 160
3 160 191 161
3 191 192 161
3 161 192 162
3 192 193 162
3 162 193 163
3 193 194 163
3 163 194 164
3 194 195 164
3 164 195 165
3 195 196 165
3 165 196 166
3 196 197 166
3 166 197 167
3 197 198 167
3 167 198 168
3 198 199 168
3 168 199 169
3 199 200 169
3 169 200 170
3 200 201 170
3 170 201 171
3 201 202 171
3 171 202 172
3 202 203 172
3 172 203 173
3 203 204 173
3 173 204 174
3 204 205 174
3 174 205 175
3 205 206 175
3 175 206 176
3 206 207 176
3 176 207 177
3 207 208 177
3 177 208 178
3 208 209 178
3 178 209 179
3 209 210 179
3 179 210 180
3 210 211 180
3 180 211 181
3 211 212 181
3 181 212 182
3 213 184 183
3 183 184 154
3 212 213 182
3 182 213 183
3 216 217 214
3 214 215 216
3 218 221 220
3 220 219 218
3 218 219 214
3 214 219 215
3 219 220 215
3 215 220 216
3 221 218 217
3 217 218 214
3 220 221 216
3 216 221 217
3 224 225 222
3 222 223 224
3 226 229 228
3 228 227 226
3 226 227 222
3 222 227 223
3 227 228 223
3 223 228 224
3 229 226 225
3 225 226 222
3 228 229 224
3 224 229 225
3 304 305 306
3 302 303 304
3 300 301 302
3 298 299 300
3 296 297 298
3 294 295 296
3 292 293 294
3 290 291 292
3 268 269 270
3 246 247 248
3 244 245 246
3 242 243 244
3 240 241 242
3 238 239 240
3 236 237 238
3 234 235 236
3 232 233 234
3 230 231 232
3 302 304 306
3 298 300 302
3 294 296 298
3 289 290 292
3 268 270 271
3 246 248 249
3 242 244 246
3 238 240 242
3 234 236 238
3 230 232 234
3 298 302 306
3 289 292 294
3 268 271 272
3 246 249 250
3 238 242 246
3 230 234 238
3 288 289 294
3 267 268 272
3 238 246 250
3 306 230 238
3 287 288 294
3 267 272 273
3 238 250 251
3 286 287 294
3 267 273 274
3 238 251 252
3 286 294 298
3 267 274 275
3 238 252 253
3 285 286 298
3 266 267 275
3 238 253 254
3 284 285 298
3 265 266 275
3 238 254 255
3 283 284 298
3 265 275 276
3 238 255 256
3 282 283 298
3 264 265 276
3 238 256 257
3 281 282 298
3 263 264 276
3 238 257 258
3 280 281 298
3 263 276 277
3 238 258 259
3 279 280 298
3 306 238 259
3 278 279 298
3 306 259 260
3 277 278 298
3 306 260 261
3 277 298 306
3 306 261 262
3 263 277 306
3 306 262 263
3 383 382 381
3 381 380 379
3 379 378 377
3 377 376 375
3 375 374 373
3 373 372 371
3 371 370 369
3 369 368 367
3 347 346 345
3 325 324 323
3 323 322 321
3 321 320 319
3 319 318 317
3 317 316 315
3 315 314 313
3 313 312 311
3 311 310 309
3 309 308 307
3 383 381 379
3 379 377 375
3 375 373 371
3 369 367 366
3 348 347 345
3 326 325 323
3 323 321 319
3 319 317 315
3 315 313 311
3 311 309 307
3 383 379 375
3 371 369 366
3 349 348 345
3 327 326 323
3 323 319 315
3 315 311 307
3 371 366 365
3 349 345 344
3 327 323 315
3 315 307 383
3 371 365 364
3 350 349 344
3 328 327 315
3 371 364 363
3 351 350 344
3 329 328 315
3 375 371 363
3 352 351 344
3 330 329 315
3 375 363 362
3 352 344 343
3 331 330 315
3 375 362 361
3 352 343 342
3 332 331 315
3 375 361 360
3 353 352 342
3 333 332 315
3 375 360 359
3 353 342 341
3 334 333 315
3 375 359 358
3 353 341 340
3 335 334 315
3 375 358 357
3 354 353 340
3 336 335 315
3 375 357 356
3 336 315 383
3 375 356 355
3 337 336 383
3 375 355 354
3 338 337 383
3 383 375 354
3 339 338 383
3 383 354 340
3 340 339 383
3 307 308 230
3 230 308 231
3 308 309 231
3 231 309 232
3 309 310 232
3 232 310 233
3 310 311 233
3 233 311 234
3 311 312 234
3 234 312 235
3 312 313 235
3 235 313 236
3 313 314 236
3 236 314 237
3 314 315 237
3 237 315 238
3 315 316 238
3 238 316 239
3 316 317 239
3 239 317 240
3 317 318 240
3 240 318 241
3 318 319 241
3 241 319 242
3 319 320 242
3 242 320 243
3 320 321 243
3 243 321 244
3 321 322 244
3 244 322 245
3 322 323 245
3 245 323 246
3 323 324 246
3 246 324 247
3 324 325 247
3 247 325 248
3 325 326 248
3 248 326 249
3 326 327 249
3 249 327 250
3 327 328 250
3 250 328 251
3 328 329 251
3 251 329 252
3 329 330 252
3 252 330 253
3 330 331 253
3 253 331 254
3 331 332 254
3 254 332 255
3 332 333 255
3 255 333 256
3 333 334 256
3 256 334 257
3 334 335 257
3 257 335 258
3 335 336 258
3 258 336 259
3 336 337 259
3 259 337 260
3 337 338 260
3 260 338 261
3 338 339 261
3 261 339 262
3 339 340 262
3 262 340 263
3 340 341 263
3 263 341 264
3 341 342 264
3 264 342 265
3 342 343 265
3 265 343 266
3 343 344 266
3 266 344 267
3 344 345 267
3 267 345 268
3 345 346 268
3 268 346 269
3 346 347 269
3 269 347 270
3 347 348 270
3 270 348 271
3 348 349 271
3 271 349 272
3 349 350 272
3 272 350 273
3 350 351 273
3 273 351 274
3 351 352 274
3 274 352 275
3 352 353 275
3 275 353 276
3 353 354 276
3 276 354 277
3 354 355 277
3 277 355 278
3 355 356 278
3 278 356 279
3 356 357 279
3 279 357 280
3 357 358 280
3 280 358 281
3 358 359 281
3 281 359 282
3 359 360 282
3 282 360 283
3 360 361 283
3 283 361 284
3 361 362 284
3 284 362 285
3 362 363 285
3 285 363 286
3 363 364 286
3 286 364 287
3 364 365 287
3 287 365 288
3 365 366 288
3 288 366 289
3 366 367 289
3 289 367 290
3 367 368 290
3 290 368 291
3 368 369 291
3 291 369 292
3 369 370 292
3 292 370 293
3 370 371 293
3 293 371 294
3 371 372 294
3 294 372 295
3 372 373 295
3 295 373 296
3 373 374 296
3 296 374 297
3 374 375 297
3 297 375 298
3 375 376 298
3 298 376 299
3 376 377 299
3 299 377 300
3 377 378 300
3 300 378 301
3 378 379 301
3 301 379 302
3 379 380 302
3 302 380 303
3 380 381 303
3 303 381 304
3 381 382 304
3 304 382 305
3 383 307 306
3 306 307 230
3 382 383 305
3 305 383 306
3 386 387 384
3 384 385 386
3 388 391 390
3 390 389 388
3 388 389 384
3 384 389 385
3 389 390 385
3 385 390 386
3 391 388 387
3 387 388 384
3 390 391 386
3 386 391 387
3 394 395 392
3 392 393 394
3 396 399 398
3 398 397 396
3 396 397 392
3 392 397 393
3 397 398 393
3 393 398 394
3 399 396 395
3 395 396 392
3 398 399 394
3 394 399 395
3 428 429 400
3 425 426 427
3 422 423 424
3 420 421 422
3 418 419 420
3 416 417 418
3 414 415 416
3 412 413 414
3 410 411 412
3 401 402 403
3 427 428 400
3 424 425 427
3 420 422 424
3 416 418 420
3 412 414 416
3 409 410 412
3 400 401 403
3 424 427 400
3 416 420 424
3 409 412 416
3 424 400 403
3 408 409 416
3 424 403 404
3 407 408 416
3 424 404 405
3 406 407 416
3 424 405 406
3 406 416 424
3 430 459 458
3 457 456 455
3 454 453 452
3 452 451 450
3 450 449 448
3 448 447 446
3 446 445 444
3 444 443 442
3 442 441 440
3 433 432 431
3 430 458 457
3 457 455 454
3 454 452 450
3 450 448 446
3 446 444 442
3 442 440 439
3 433 431 430
3 430 457 454
3 454 450 446
3 446 442 439
3 433 430 454
3 446 439 438
3 434 433 454
3 446 438 437
3 435 434 454
3 446 437 436
3 436 435 454
3 454 446 436
3 430 431 400
3 400 431 401
3 431 432 401
3 401 432 402
3 432 433 402
3 402 433 403
3 433 434 403
3 403 434 404
3 434 435 404
3 404 435 405
3 435 436 405
3 405 436 406
3 436 437 406
3 406 437 407
3 437 438 407
3 407 438 408
3 438 439 408
3 408 439 409
3 439 440 409
3 409 440 410
3 440 441 410
3 410 441 411
3 441 442 411
3 411 442 412
3 442 443 412
3 412 443 413
3 443 444 413
3 413 444 414
3 444 445 414
3 414 445 415
3 445 446 415
3 415 446 416
3 446 447 416
3 416 447 417
3 447 448 417
3 417 448 418
3 448 449 418
3 418 449 419
3 449 450 419
3 419 450 420
3 450 451 420
3 420 451 421
3 451 452 421
3 421 452 422
3 452 453 422
3 422 453 423
3 453 454 423
3 423 454 424
3 454 455 424
3 424 455 425
3 455 456 425
3 425 456 426
3 456 457 426
3 426 457 427
3 457 458 427
3 427 458 428
3 459 430 429
3 429 430 400
3 458 459 428
3 428 459 429
3 462 463 460
3 460 461 462
3 464 467 466
3 466 465 464
3 464 465 460
3 460 465 461
3 465 466 461
3 461 466 462
3 467 464 463
3 463 464 460
3 466 467 462
3 462 467 463
3 470 471 468
3 468 469 470
3 472 475 474
3 474 473 472
3 472 473 468
3 468 473 469
3 473 474 469
3 469 474 470
3 475 472 471
3 471 472 468
3 474 475 470
3 470 475 471
3 481 482 476
3 478 479 480
3 481 476 477
3 477 478 480
3 480 481 477
3 483 489 488
3 487 486 485
3 484 483 488
3 487 485 484
3 484 488 487
3 483 484 476
3 476 484 477
3 484 485 477
3 477 485 478
3 485 486 478
3 478 486 479
3 486 487 479
3 479 487 480
3 487 488 480
3 480 488 481
3 489 483 482
3 482 483 476
3 488 489 481
3 481 489 482
3 562 563 524
3 524 563 564
3 522 523 524
3 520 521 522
3 518 519 520
3 516 517 518
3 514 515 516
3 512 513 514
3 510 511 512
3 508 509 510
3 506 507 508
3 543 490 491
3 541 542 543
3 539 540 541
3 537 538 539
3 535 536 537
3 533 534 535
3 531 532 533
3 529 530 531
3 527 528 529
3 525 526 527
3 562 524 525
3 522 524 564
3 518 520 522
3 514 516 518
3 510 512 514
3 506 508 510
3 539 541 543
3 535 537 539
3 531 533 535
3 527 529 531
3 562 525 527
3 514 518 522
3 506 510 514
3 535 539 543
3 527 531 535
3 561 562 527
3 505 506 514
3 560 561 527
3 504 505 514
3 559 560 527
3 503 504 514
3 558 559 527
3 502 503 514
3 557 558 527
3 501 502 514
3 556 557 527
3 500 501 514
3 556 527 535
3 499 500 514
3 555 556 535
3 498 499 514
3 554 555 535
3 497 498 514
3 553 554 535
3 497 514 522
3 552 553 535
3 496 497 522
3 551 552 535
3 495 496 522
3 550 551 535
3 494 495 522
3 549 550 535
3 493 494 522
3 548 549 535
3 492 493 522
3 548 535 543
3 491 492 522
3 547 548 543
3 491 522 564
3 546 547 543
3 543 491 564
3 545 546 543
3 543 564 544
3 544 545 543
3 599 638 637
3 639 638 599
3 599 598 597
3 597 596 595
3 595 594 593
3 593 592 591
3 591 590 589
3 589 588 587
3 587 586 585
3 585 584 583
3 583 582 581
3 566 565 618
3 618 617 616
3 616 615 614
3 614 613 612
3 612 611 610
3 610 609 608
3 608 607 606
3 606 605 604
3 604 603 602
3 602 601 600
3 600 599 637
3 639 599 597
3 597 595 593
3 593 591 589
3 589 587 585
3 585 583 581
3 618 616 614
3 614 612 610
3 610 608 606
3 606 604 602
3 602 600 637
3 597 593 589
3 589 585 581
3 618 614 610
3 610 606 602
3 602 637 636
3 589 581 580
3 602 636 635
3 589 580 579
3 602 635 634
3 589 579 578
3 602 634 633
3 589 578 577
3 602 633 632
3 589 577 576
3 602 632 631
3 589 576 575
3 610 602 631
3 589 575 574
3 610 631 630
3 589 574 573
3 610 630 629
3 589 573 572
3 610 629 628
3 597 589 572
3 610 628 627
3 597 572 571
3 610 627 626
3 597 571 570
3 610 626 625
3 597 570 569
3 610 625 624
3 597 569 568
3 610 624 623
3 597 568 567
3 618 610 623
3 597 567 566
3 618 623 622
3 639 597 566
3 618 622 621
3 639 566 618
3 618 621 620
3 619 639 618
3 618 620 619
3 565 566 490
3 490 566 491
3 566 567 491
3 491 567 492
3 567 568 492
3 492 568 493
3 568 569 493
3 493 569 494
3 569 570 494
3 494 570 495
3 570 571 495
3 495 571 496
3 571 572 496
3 496 572 497
3 572 573 497
3 497 573 498
3 573 574 498
3 498 574 499
3 574 575 499
3 499 575 500
3 575 576 500
3 500 576 501
3 576 577 501
3 501 577 502
3 577 578 502
3 502 578 503
3 578 579 503
3 503 579 504
3 579 580 504
3 504 580 505
3 580 581 505
3 505 581 506
3 581 582 506
3 506 582 507
3 582 583 507
3 507 583 508
3 583 584 508
3 508 584 509
3 584 585 509
3 509 585 510
3 585 586 510
3 510 586 511
3 586 587 511
3 511 587 512
3 587 588 512
3 512 588 513
3 588 589 513
3 513 589 514
3 589 590 514
3 514 590 515
3 590 591 515
3 515 591 516
3 591 592 516
3 516 592 517
3 592 593 517
3 517 593 518
3 593 594 518
3 518 594 519
3 594 595 519
3 519 595 520
3 595 596 520
3 520 596 521
3 596 597 521
3 521 597 522
3 597 598 522
3 522 598 523
3 598 599 523
3 523 599 524
3 599 600 524
3 524 600 525
3 600 601 525
3 525 601 526
3 601 602 526
3 526 602 527
3 602 603 527
3 527 603 528
3 603 604 528
3 528 604 529
3 604 605 529
3 529 605 530
3 605 606 530
3 530 606 531
3 606 607 531
3 531 607 532
3 607 608 532
3 532 608 533
3 608 609 533
3 533 609 534
3 609 610 534
3 534 610 535
3 610 611 535
3 535 611 536
3 611 612 536
3 536 612 537
3 612 613 537
3 537 613 538
3 613 614 538
3 538 614 539
3 614 615 539
3 539 615 540
3 615 616 540
3 540 616 541
3 616 617 541
3 541 617 542
3 618 565 543
3 543 565 490
3 617 618 542
3 542 618 543
3 619 620 544
3 544 620 545
3 620 621 545
3 545 621 546
3 621 622 546
3 546 622 547
3 622 623 547
3 547 623 548
3 623 624 548
3 548 624 549
3 624 625 549
3 549 625 550
3 625 626 550
3 550 626 551
3 626 627 551
3 551 627 552
3 627 628 552
3 552 628 553
3 628 629 553
3 553 629 554
3 629 630 554
3 554 630 555
3 630 631 555
3 555 631 556
3 631 632 556
3 556 632 557
3 632 633 557
3 557 633 558
3 633 634 558
3 558 634 559
3 634 635 559
3 559 635 560
3 635 636 560
3 560 636 561
3 636 637 561
3 561 637 562
3 637 638 562
3 562 638 563
3 639 619 564
3 564 619 544
3 638 639 563
3 563 639 564
3 724 725 640
3 722 723 724
3 720 721 722
3 718 719 720
3 716 717 718
3 714 715 716
3 712 713 714
3 710 711 712
3 708 709 710
3 706 707 708
3 704 705 706
3 702 703 704
3 682 683 684
3 680 681 682
3 678 679 680
3 676 677 678
3 674 675 676
3 672 673 674
3 670 671 672
3 668 669 670
3 666 667 668
3 664 665 666
3 662 663 664
3 660 661 662
3 658 659 660
3 724 640 641
3 720 722 724
3 716 718 720
3 712 714 716
3 708 710 712
3 704 706 708
3 701 702 704
3 682 684 685
3 678 680 682
3 674 676 678
3 670 672 674
3 666 668 670
3 662 664 666
3 658 660 662
3 724 641 642
3 716 720 724
3 708 712 716
3 701 704 708
3 682 685 686
3 674 678 682
3 666 670 674
3 658 662 666
3 724 642 643
3 700 701 708
3 682 686 687
3 657 658 666
3 724 643 644
3 699 700 708
3 682 687 688
3 656 657 666
3 724 644 645
3 682 688 689
3 724 645 646
3 682 689 690
3 724 646 647
3 674 682 690
3 724 647 648
3 674 690 691
3 716 724 648
3 674 691 692
3 716 648 649
3 674 692 693
3 716 649 650
3 674 693 694
3 716 650 651
3 674 694 695
3 716 651 652
3 674 695 696
3 716 652 653
3 666 674 696
3 708 716 653
3 666 696 697
3 708 653 654
3 666 697 698
3 708 654 655
3 666 698 699
3 708 655 656
3 666 699 708
3 708 656 666
3 726 811 810
3 810 809 808
3 808 807 806
3 806 805 804
3 804 803 802
3 802 801 800
3 800 799 798
3 798 797 796
3 796 795 794
3 794 793 792
3 792 791 790
3 790 789 788
3 770 769 768
3 768 767 766
3 766 765 764
3 764 763 762
3 762 761 760
3 760 759 758
3 758 757 756
3 756 755 754
3 754 753 752
3 752 751 750
3 750 749 748
3 748 747 746
3 746 745 744
3 727 726 810
3 810 808 806
3 806 804 802
3 802 800 798
3 798 796 794
3 794 792 790
3 790 788 787
3 771 770 768
3 768 766 764
3 764 762 760
3 760 758 756
3 756 754 752
3 752 750 748
3 748 746 744
3 728 727 810
3 810 806 802
3 802 798 794
3 794 790 787
3 772 771 768
3 768 764 760
3 760 756 752
3 752 748 744
3 729 728 810
3 794 787 786
3 773 772 768
3 752 744 743
3 730 729 810
3 794 786 785
3 774 773 768
3 752 743 742
3 731 730 810
3 775 774 768
3 732 731 810
3 776 775 768
3 733 732 810
3 776 768 760
3 734 733 810
3 777 776 760
3 734 810 802
3 778 777 760
3 735 734 802
3 779 778 760
3 736 735 802
3 780 779 760
3 737 736 802
3 781 780 760
3 738 737 802
3 782 781 760
3 739 738 802
3 782 760 752
3 739 802 794
3 783 782 752
3 740 739 794
3 784 783 752
3 741 740 794
3 785 784 752
3 742 741 794
3 794 785 752
3 752 742 794
3 726 727 640
3 640 727 641
3 727 728 641
3 641 728 642
3 728 729 642
3 642 729 643
3 729 730 643
3 643 730 644
3 730 731 644
3 644 731 645
3 731 732 645
3 645 732 646
3 732 733 646
3 646 733 647
3 733 734 647
3 647 734 648
3 734 735 648
3 648 735 649
3 735 736 649
3 649 736 650
3 736 737 650
3 650 737 651
3 737 738 651
3 651 738 652
3 738 739 652
3 652 739 653
3 739 740 653
3 653 740 654
3 740 741 654
3 654 741 655
3 741 742 655
3 655 742 656
3 742 743 656
3 656 743 657
3 743 744 657
3 657 744 658
3 744 745 658
3 658 745 659
3 745 746 659
3 659 746 660
3 746 747 660
3 660 747 661
3 747 748 661
3 661 748 662
3 748 749 662
3 662 749 663
3 749 750 663
3 663 750 664
3 750 751 664
3 664 751 665
3 751 752 665
3 665 752 666
3 752 753 666
3 666 753 667
3 753 754 667
3 667 754 668
3 754 755 668
3 668 755 669
3 755 756 669
3 669 756 670
3 756 757 670
3 670 757 671
3 757 758 671
3 671 758 672
3 758 759 672
3 672 759 673
3 759 760 673
3 673 760 674
3 760 761 674
3 674 761 675
3 761 762 675
3 675 762 676
3 762 763 676
3 676 763 677
3 763 764 677
3 677 764 678
3 764 765 678
3 678 765 679
3 765 766 679
3 679 766 680
3 766 767 680
3 680 767 681
3 767 768 681
3 681 768 682
3 768 769 682
3 682 769 683
3 769 770 683
3 683 770 684
3 770 771 684
3 684 771 685
3 771 772 685
3 685 772 686
3 772 773 686
3 686 773 687
3 773 774 687
3 687 774 688
3 774 775 688
3 688 775 689
3 775 776 689
3 689 776 690
3 776 777 690
3 690 777 691
3 777 778 691
3 691 778 692
3 778 779 692
3 692 779 693
3 779 780 693
3 693 780 694
3 780 781 694
3 694 781 695
3 781 782 695
3 695 782 696
3 782 783 696
3 696 783 697
3 783 784 697
3 697 784 698
3 784 785 698
3 698 785 699
3 785 786 699
3 699 786 700
3 786 787 700
3 700 787 701
3 787 788 701
3 701 788 702
3 788 789 702
3 702 789 703
3 789 790 703
3 703 790 704
3 790 791 704
3 704 791 705
3 791 792 705
3 705 792 706
3 792 793 706
3 706 793 707
3 793 794 707
3 707 794 708
3 794 795 708
3 708 795 709
3 795 796 709
3 709 796 710
3 796 797 710
3 710 797 711
3 797 798 711
3 711 798 712
3 798 799 712
3 712 799 713
3 799 800 713
3 713 800 714
3 800 801 714
3 714 801 715
3 801 802 715
3 715 802 716
3 802 803 716
3 716 803 717
3 803 804 717
3 717 804 718
3 804 805 718
3 718 805 719
3 805 806 719
3 719 806 720
3 806 807 720
3 720 807 721
3 807 808 721
3 721 808 722
3 808 809 722
3 722 809 723
3 809 810 723
3 723 810 724
3 811 726 725
3 725 726 640
3 810 811 724
3 724 811 725
