ply
format ascii 1.0
comment https://github.com/mikedh/trimesh
element vertex 286
property float x
property float y
property float z
element face 552
property list uchar int vertex_indices
end_header
-0.46197549 0.00000000 0.00815634
-0.46211582 0.00000000 0.01111898
-0.46300632 0.00000000 0.01658451
-0.46470985 0.00000000 0.02143702
-0.46722645 0.00000000 0.02567651
-0.46878964 0.00000000 0.02756637
-0.47052181 0.00000000 0.02927233
-0.47439027 0.00000000 0.03200187
-0.47879753 0.00000000 0.03382156
-0.48374361 0.00000000 0.03473140
-0.48641869 0.00000000 0.03484513
-0.48944506 0.00000000 0.03473543
-0.49503317 0.00000000 0.03385785
-0.50000185 0.00000000 0.03210269
-0.50435102 0.00000000 0.02946995
-0.50629330 0.00000000 0.02782448
-0.50805938 0.00000000 0.02597979
-0.51099861 0.00000000 0.02175320
-0.51314741 0.00000000 0.01681036
-0.51450574 0.00000000 0.01115125
-0.51488847 0.00000000 0.00805310
-0.46197549 -0.00495575 0.00815634
-0.46211582 -0.00495575 0.01111898
-0.46300632 -0.00495575 0.01658451
-0.46470985 -0.00495575 0.02143702
-0.46722645 -0.00495575 0.02567651
-0.46878964 -0.00495575 0.02756637
-0.47052181 -0.00495575 0.02927233
-0.47439027 -0.00495575 0.03200187
-0.47879753 -0.00495575 0.03382156
-0.48374361 -0.00495575 0.03473140
-0.48641869 -0.00495575 0.03484513
-0.48944506 -0.00495575 0.03473543
-0.49503317 -0.00495575 0.03385785
-0.50000185 -0.00495575 0.03210269
-0.50435102 -0.00495575 0.02946995
-0.50629330 -0.00495575 0.02782448
-0.50805938 -0.00495575 0.02597979
-0.51099861 -0.00495575 0.02175320
-0.51314741 -0.00495575 0.01681036
-0.51450574 -0.00495575 0.01115125
-0.51488847 -0.00495575 0.00805310
-0.03504194 0.00000000 0.00815634
-0.03518229 0.00000000 0.01111898
-0.03607278 0.00000000 0.01658451
-0.03777632 0.00000000 0.02143702
-0.04029291 0.00000000 0.02567651
-0.04185610 0.00000000 0.02756637
-0.04358828 0.00000000 0.02927233
-0.04745673 0.00000000 0.03200187
-0.05186399 0.00000000 0.03382156
-0.05681007 0.00000000 0.03473140
-0.05948516 0.00000000 0.03484513
-0.06251153 0.00000000 0.03473543
-0.06809965 0.00000000 0.03385785
-0.07306831 0.00000000 0.03210269
-0.07741749 0.00000000 0.02946995
-0.07935979 0.00000000 0.02782448
-0.08112584 0.00000000 0.02597979
-0.08406509 0.00000000 0.02175320
-0.08621388 0.00000000 0.01681036
-0.08757219 0.00000000 0.01115125
-0.08795492 0.00000000 0.00805310
-0.03504194 -0.00495575 0.00815634
-0.03518229 -0.00495575 0.01111898
-0.03607278 -0.00495575 0.01658451
-0.03777632 -0.00495575 0.02143702
-0.04029291 -0.00495575 0.02567651
-0.04185610 -0.00495575 0.02756637
-0.04358828 -0.00495575 0.02927233
-0.04745673 -0.00495575 0.03200187
-0.05186399 -0.00495575 0.03382156
-0.05681007 -0.00495575 0.03473140
-0.05948516 -0.00495575 0.03484513
-0.06251153 -0.00495575 0.03473543
-0.06809965 -0.00495575 0.03385785
-0.07306831 -0.00495575 0.03210269
-0.07741749 -0.00495575 0.02946995
-0.07935979 -0.00495575 0.02782448
-0.08112584 -0.00495575 0.02597979
-0.08406509 -0.00495575 0.02175320
-0.08621388 -0.00495575 0.01681036
-0.08757219 -0.00495575 0.01115125
-0.08795492 -0.00495575 0.00805310
0.09562731 0.00000000 0.00000000
0.09573256 0.00000000 -0.00398098
0.09657466 0.00000000 -0.01128232
0.09825884 0.00000000 -0.01770286
0.10078511 0.00000000 -0.02324259
0.10236403 0.00000000 -0.02568215
0.10412686 0.00000000 -0.02786602
0.10812437 0.00000000 -0.03136022
0.11275102 0.00000000 -0.03368968
0.11800683 0.00000000 -0.03485441
0.12087066 0.00000000 -0.03500000
0.12373491 0.00000000 -0.03485441
0.12899394 0.00000000 -0.03368968
0.13362706 0.00000000 -0.03136022
0.13763425 0.00000000 -0.02786602
0.13940312 0.00000000 -0.02568215
0.14099413 0.00000000 -0.02324259
0.14353977 0.00000000 -0.01770286
0.14523685 0.00000000 -0.01128232
0.14608540 0.00000000 -0.00398098
0.14619146 0.00000000 0.00000000
0.14608540 0.00000000 0.00398098
0.14523685 0.00000000 0.01128232
0.14353977 0.00000000 0.01770286
0.14099413 0.00000000 0.02324259
0.13940312 0.00000000 0.02568215
0.13763425 0.00000000 0.02786602
0.13362706 0.00000000 0.03136022
0.12899394 0.00000000 0.03368968
0.12373491 0.00000000 0.03485441
0.12087066 0.00000000 0.03500000
0.11800683 0.00000000 0.03485441
0.11275102 0.00000000 0.03368968
0.10812437 0.00000000 0.03136022
0.10412686 0.00000000 0.02786602
0.10236403 0.00000000 0.02568215
0.10078511 0.00000000 0.02324259
0.09825884 0.00000000 0.01770286
0.09657466 0.00000000 0.01128232
0.09573256 0.00000000 0.00398098
0.09562731 -0.00495575 0.00000000
0.09573256 -0.00495575 -0.00398098
0.09657466 -0.00495575 -0.01128232
0.09825884 -0.00495575 -0.01770286
0.10078511 -0.00495575 -0.02324259
0.10236403 -0.00495575 -0.02568215
0.10412686 -0.00495575 -0.02786602
0.10812437 -0.00495575 -0.03136022
0.11275102 -0.00495575 -0.03368968
0.11800683 -0.00495575 -0.03485441
0.12087066 -0.00495575 -0.03500000
0.12373491 -0.00495575 -0.03485441
0.12899394 -0.00495575 -0.03368968
0.13362706 -0.00495575 -0.03136022
0.13763425 -0.00495575 -0.02786602
0.13940312 -0.00495575 -0.02568215
0.14099413 -0.00495575 -0.02324259
0.14353977 -0.00495575 -0.01770286
0.14523685 -0.00495575 -0.01128232
0.14608540 -0.00495575 -0.00398098
0.14619146 -0.00495575 0.00000000
0.14608540 -0.00495575 0.00398098
0.14523685 -0.00495575 0.01128232
0.14353977 -0.00495575 0.01770286
0.14099413 -0.00495575 0.02324259
0.13940312 -0.00495575 0.02568215
0.13763425 -0.00495575 0.02786602
0.13362706 -0.00495575 0.03136022
0.12899394 -0.00495575 0.03368968
0.12373491 -0.00495575 0.03485441
0.12087066 -0.00495575 0.03500000
0.11800683 -0.00495575 0.03485441
0.11275102 -0.00495575 0.03368968
0.10812437 -0.00495575 0.03136022
0.10412686 -0.00495575 0.02786602
0.10236403 -0.00495575 0.02568215
0.10078511 -0.00495575 0.02324259
0.09825884 -0.00495575 0.01770286
0.09657466 -0.00495575 0.01128232
0.09573256 -0.00495575 0.00398098
0.25404361 0.00000000 0.00815634
0.25390324 0.00000000 0.01111898
0.25301278 0.00000000 0.01658451
0.25130922 0.00000000 0.02143702
0.24879263 0.00000000 0.02567651
0.24722944 0.00000000 0.02756637
0.24549727 0.00000000 0.02927233
0.24162881 0.00000000 0.03200187
0.23722155 0.00000000 0.03382156
0.23227547 0.00000000 0.03473140
0.22960038 0.00000000 0.03484513
0.22657402 0.00000000 0.03473543
0.22098589 0.00000000 0.03385785
0.21601723 0.00000000 0.03210269
0.21166804 0.00000000 0.02946995
0.20972575 0.00000000 0.02782448
0.20795971 0.00000000 0.02597979
0.20502046 0.00000000 0.02175320
0.20287167 0.00000000 0.01681036
0.20151335 0.00000000 0.01115125
0.20113063 0.00000000 0.00805310
0.25404361 -0.00495575 0.00815634
0.25390324 -0.00495575 0.01111898
0.25301278 -0.00495575 0.01658451
0.25130922 -0.00495575 0.02143702
0.24879263 -0.00495575 0.02567651
0.24722944 -0.00495575 0.02756637
0.24549727 -0.00495575 0.02927233
0.24162881 -0.00495575 0.03200187
0.23722155 -0.00495575 0.03382156
0.23227547 -0.00495575 0.03473140
0.22960038 -0.00495575 0.03484513
0.22657402 -0.00495575 0.03473543
0.22098589 -0.00495575 0.03385785
0.21601723 -0.00495575 0.03210269
0.21166804 -0.00495575 0.02946995
0.20972575 -0.00495575 0.02782448
0.20795971 -0.00495575 0.02597979
0.20502046 -0.00495575 0.02175320
0.20287167 -0.00495575 0.01681036
0.20151335 -0.00495575 0.01115125
0.20113063 -0.00495575 0.00805310
0.48915470 0.00000000 0.03484513
0.48625132 0.00000000 0.03469954
0.48091164 0.00000000 0.03353481
0.47619462 0.00000000 0.03120535
0.47210032 0.00000000 0.02771116
0.47028670 0.00000000 0.02552729
0.46865937 0.00000000 0.02309014
0.46605566 0.00000000 0.01756977
0.46431985 0.00000000 0.01118795
0.46345195 0.00000000 0.00394468
0.46334347 0.00000000 0.00000000
0.46345115 0.00000000 -0.00394468
0.46431261 0.00000000 -0.01118795
0.46603552 0.00000000 -0.01756977
0.46861985 0.00000000 -0.02309014
0.47023508 0.00000000 -0.02552729
0.47204387 0.00000000 -0.02771116
0.47613817 0.00000000 -0.03120535
0.48086807 0.00000000 -0.03353481
0.48623359 0.00000000 -0.03469954
0.48915470 0.00000000 -0.03484513
0.49204555 0.00000000 -0.03469914
0.49736264 0.00000000 -0.03353118
0.50206029 0.00000000 -0.03119527
0.50613844 0.00000000 -0.02769139
0.50794524 0.00000000 -0.02550147
0.50957257 0.00000000 -0.02305344
0.51217628 0.00000000 -0.01752339
0.51391208 0.00000000 -0.01114802
0.51477998 0.00000000 -0.00392734
0.51488847 0.00000000 0.00000000
0.51477998 0.00000000 0.00390959
0.51391208 0.00000000 0.01110447
0.51217628 0.00000000 0.01746693
0.50957257 0.00000000 0.02299698
0.50794524 0.00000000 0.02544985
0.50613844 0.00000000 0.02765187
0.50206029 0.00000000 0.03117510
0.49736264 0.00000000 0.03352392
0.49204555 0.00000000 0.03469833
0.48915470 -0.00495575 0.03484513
0.48625132 -0.00495575 0.03469954
0.48091164 -0.00495575 0.03353481
0.47619462 -0.00495575 0.03120535
0.47210032 -0.00495575 0.02771116
0.47028670 -0.00495575 0.02552729
0.46865937 -0.00495575 0.02309014
0.46605566 -0.00495575 0.01756977
0.46431985 -0.00495575 0.01118795
0.46345195 -0.00495575 0.00394468
0.46334347 -0.00495575 0.00000000
0.46345115 -0.00495575 -0.00394468
0.46431261 -0.00495575 -0.01118795
0.46603552 -0.00495575 -0.01756977
0.46861985 -0.00495575 -0.02309014
0.47023508 -0.00495575 -0.02552729
0.47204387 -0.00495575 -0.02771116
0.47613817 -0.00495575 -0.03120535
0.48086807 -0.00495575 -0.03353481
0.48623359 -0.00495575 -0.03469954
0.48915470 -0.00495575 -0.03484513
0.49204555 -0.00495575 -0.03469914
0.49736264 -0.00495575 -0.03353118
0.50206029 -0.00495575 -0.03119527
0.50613844 -0.00495575 -0.02769139
0.50794524 -0.00495575 -0.02550147
0.50957257 -0.00495575 -0.02305344
0.51217628 -0.00495575 -0.01752339
0.51391208 -0.00495575 -0.01114802
0.51477998 -0.00495575 -0.00392734
0.51488847 -0.00495575 0.00000000
0.51477998 -0.00495575 0.00390959
0.51391208 -0.00495575 0.01110447
0.51217628 -0.00495575 0.01746693
0.50957257 -0.00495575 0.02299698
0.50794524 -0.00495575 0.02544985
0.50613844 -0.00495575 0.02765187
0.50206029 -0.00495575 0.03117510
0.49736264 -0.00495575 0.03352392
0.49204555 -0.00495575 0.03469833
3 1 0 20
3 3 2 1
3 5 4 3
3 7 6 5
3 9 8 7
3 11 10 9
3 13 12 11
3 15 14 13
3 17 16 15
3 19 18 17
3 1 20 19
3 5 3 1
3 9 7 5
3 13 11 9
3 17 15 13
3 1 19 17
3 9 5 1
3 17 13 9
3 9 1 17
3 41 21 22
3 22 23 24
3 24 25 26
3 26 27 28
3 28 29 30
3 30 31 32
3 32 33 34
3 34 35 36
3 36 37 38
3 38 39 40
3 40 41 22
3 22 24 26
3 26 28 30
3 30 32 34
3 34 36 38
3 38 40 22
3 22 26 30
3 30 34 38
3 38 22 30
3 22 21 1
3 1 21 0
3 23 22 2
3 2 22 1
3 24 23 3
3 3 23 2
3 25 24 4
3 4 24 3
3 26 25 5
3 5 25 4
3 27 26 6
3 6 26 5
3 28 27 7
3 7 27 6
3 29 28 8
3 8 28 7
3 30 29 9
3 9 29 8
3 31 30 10
3 10 30 9
3 32 31 11
3 11 31 10
3 33 32 12
3 12 32 11
3 34 33 13
3 13 33 12
3 35 34 14
3 14 34 13
3 36 35 15
3 15 35 14
3 37 36 16
3 16 36 15
3 38 37 17
3 17 37 16
3 39 38 18
3 18 38 17
3 40 39 19
3 19 39 18
3 21 41 0
3 0 41 20
3 41 40 20
3 20 40 19
3 43 42 62
3 45 44 43
3 47 46 45
3 49 48 47
3 51 50 49
3 53 52 51
3 55 54 53
3 57 56 55
3 59 58 57
3 61 60 59
3 43 62 61
3 47 45 43
3 51 49 47
3 55 53 51
3 59 57 55
3 43 61 59
3 51 47 43
3 59 55 51
3 51 43 59
3 83 63 64
3 64 65 66
3 66 67 68
3 68 69 70
3 70 71 72
3 72 73 74
3 74 75 76
3 76 77 78
3 78 79 80
3 80 81 82
3 82 83 64
3 64 66 68
3 68 70 72
3 72 74 76
3 76 78 80
3 80 82 64
3 64 68 72
3 72 76 80
3 80 64 72
3 64 63 43
3 43 63 42
3 65 64 44
3 44 64 43
3 66 65 45
3 45 65 44
3 67 66 46
3 46 66 45
3 68 67 47
3 47 67 46
3 69 68 48
3 48 68 47
3 70 69 49
3 49 69 48
3 71 70 50
3 50 70 49
3 72 71 51
3 51 71 50
3 73 72 52
3 52 72 51
3 74 73 53
3 53 73 52
3 75 74 54
3 54 74 53
3 76 75 55
3 55 75 54
3 77 76 56
3 56 76 55
3 78 77 57
3 57 77 56
3 79 78 58
3 58 78 57
3 80 79 59
3 59 79 58
3 81 80 60
3 60 80 59
3 82 81 61
3 61 81 60
3 63 83 42
3 42 83 62
3 83 82 62
3 62 82 61
3 85 84 123
3 87 86 85
3 89 88 87
3 91 90 89
3 93 92 91
3 95 94 93
3 97 96 95
3 99 98 97
3 101 100 99
3 103 102 101
3 105 104 103
3 107 106 105
3 109 108 107
3 111 110 109
3 113 112 111
3 115 114 113
3 117 116 115
3 119 118 117
3 121 120 119
3 123 122 121
3 87 85 123
3 91 89 87
3 95 93 91
3 99 97 95
3 103 101 99
3 107 105 103
3 111 109 107
3 115 113 111
3 119 117 115
3 123 121 119
3 91 87 123
3 99 95 91
3 107 103 99
3 115 111 107
3 123 119 115
3 99 91 123
3 115 107 99
3 99 123 115
3 163 124 125
3 125 126 127
3 127 128 129
3 129 130 131
3 131 132 133
3 133 134 135
3 135 136 137
3 137 138 139
3 139 140 141
3 141 142 143
3 143 144 145
3 145 146 147
3 147 148 149
3 149 150 151
3 151 152 153
3 153 154 155
3 155 156 157
3 157 158 159
3 159 160 161
3 161 162 163
3 163 125 127
3 127 129 131
3 131 133 135
3 135 137 139
3 139 141 143
3 143 145 147
3 147 149 151
3 151 153 155
3 155 157 159
3 159 161 163
3 163 127 131
3 131 135 139
3 139 143 147
3 147 151 155
3 155 159 163
3 163 131 139
3 139 147 155
3 155 163 139
3 125 124 85
3 85 124 84
3 126 125 86
3 86 125 85
3 127 126 87
3 87 126 86
3 128 127 88
3 88 127 87
3 129 128 89
3 89 128 88
3 130 129 90
3 90 129 89
3 131 130 91
3 91 130 90
3 132 131 92
3 92 131 91
3 133 132 93
3 93 132 92
3 134 133 94
3 94 133 93
3 135 134 95
3 95 134 94
3 136 135 96
3 96 135 95
3 137 136 97
3 97 136 96
3 138 137 98
3 98 137 97
3 139 138 99
3 99 138 98
3 140 139 100
3 100 139 99
3 141 140 101
3 101 140 100
3 142 141 102
3 102 141 101
3 143 142 103
3 103 142 102
3 144 143 104
3 104 143 103
3 145 144 105
3 105 144 104
3 146 145 106
3 106 145 105
3 147 146 107
3 107 146 106
3 148 147 108
3 108 147 107
3 149 148 109
3 109 148 108
3 150 149 110
3 110 149 109
3 151 150 111
3 111 150 110
3 152 151 112
3 112 151 111
3 153 152 113
3 113 152 112
3 154 153 114
3 114 153 113
3 155 154 115
3 115 154 114
3 156 155 116
3 116 155 115
3 157 156 117
3 117 156 116
3 158 157 118
3 118 157 117
3 159 158 119
3 119 158 118
3 160 159 120
3 120 159 119
3 161 160 121
3 121 160 120
3 162 161 122
3 122 161 121
3 124 163 84
3 84 163 123
3 163 162 123
3 123 162 122
3 165 164 184
3 167 166 165
3 169 168 167
3 171 170 169
3 173 172 171
3 175 174 173
3 177 176 175
3 179 178 177
3 181 180 179
3 183 182 181
3 165 184 183
3 169 167 165
3 173 171 169
3 177 175 173
3 181 179 177
3 165 183 181
3 173 169 165
3 181 177 173
3 173 165 181
3 205 185 186
3 186 187 188
3 188 189 190
3 190 191 192
3 192 193 194
3 194 195 196
3 196 197 198
3 198 199 200
3 200 201 202
3 202 203 204
3 204 205 186
3 186 188 190
3 190 192 194
3 194 196 198
3 198 200 202
3 202 204 186
3 186 190 194
3 194 198 202
3 202 186 194
3 186 185 165
3 165 185 164
3 187 186 166
3 166 186 165
3 188 187 167
3 167 187 166
3 189 188 168
3 168 188 167
3 190 189 169
3 169 189 168
3 191 190 170
3 170 190 169
3 192 191 171
3 171 191 170
3 193 192 172
3 172 192 171
3 194 193 173
3 173 193 172
3 195 194 174
3 174 194 173
3 196 195 175
3 175 195 174
3 197 196 176
3 176 196 175
3 198 197 177
3 177 197 176
3 199 198 178
3 178 198 177
3 200 199 179
3 179 199 178
3 201 200 180
3 180 200 179
3 202 201 181
3 181 201 180
3 203 202 182
3 182 202 181
3 204 203 183
3 183 203 182
3 185 205 164
3 164 205 184
3 205 204 184
3 184 204 183
3 207 206 245
3 209 208 207
3 211 210 209
3 213 212 211
3 215 214 213
3 217 216 215
3 219 218 217
3 221 220 219
3 223 222 221
3 225 224 223
3 227 226 225
3 229 228 227
3 231 230 229
3 233 232 231
3 235 234 233
3 237 236 235
3 239 238 237
3 241 240 239
3 243 242 241
3 245 244 243
3 209 207 245
3 213 211 209
3 217 215 213
3 221 219 217
3 225 223 221
3 229 227 225
3 233 231 229
3 237 235 233
3 241 239 237
3 245 243 241
3 213 209 245
3 221 217 213
3 229 225 221
3 237 233 229
3 245 241 237
3 221 213 245
3 237 229 221
3 221 245 237
3 285 246 247
3 247 248 249
3 249 250 251
3 251 252 253
3 253 254 255
3 255 256 257
3 257 258 259
3 259 260 261
3 261 262 263
3 263 264 265
3 265 266 267
3 267 268 269
3 269 270 271
3 271 272 273
3 273 274 275
3 275 276 277
3 277 278 279
3 279 280 281
3 281 282 283
3 283 284 285
3 285 247 249
3 249 251 253
3 253 255 257
3 257 259 261
3 261 263 265
3 265 267 269
3 269 271 273
3 273 275 277
3 277 279 281
3 281 283 285
3 285 249 253
3 253 257 261
3 261 265 269
3 269 273 277
3 277 281 285
3 285 253 261
3 261 269 277
3 277 285 261
3 247 246 207
3 207 246 206
3 248 247 208
3 208 247 207
3 249 248 209
3 209 248 208
3 250 249 210
3 210 249 209
3 251 250 211
3 211 250 210
3 252 251 212
3 212 251 211
3 253 252 213
3 213 252 212
3 254 253 214
3 214 253 213
3 255 254 215
3 215 254 214
3 256 255 216
3 216 255 215
3 257 256 217
3 217 256 216
3 258 257 218
3 218 257 217
3 259 258 219
3 219 258 218
3 260 259 220
3 220 259 219
3 261 260 221
3 221 260 220
3 262 261 222
3 222 261 221
3 263 262 223
3 223 262 222
3 264 263 224
3 224 263 223
3 265 264 225
3 225 264 224
3 266 265 226
3 226 265 225
3 267 266 227
3 227 266 226
3 268 267 228
3 228 267 227
3 269 268 229
3 229 268 228
3 270 269 230
3 230 269 229
3 271 270 231
3 231 270 230
3 272 271 232
3 232 271 231
3 273 272 233
3 233 272 232
3 274 273 234
3 234 273 233
3 275 274 235
3 235 274 234
3 276 275 236
3 236 275 235
3 277 276 237
3 237 276 236
3 278 277 238
3 238 277 237
3 279 278 239
3 239 278 238
3 280 279 240
3 240 279 239
3 281 280 241
3 241 280 240
3 282 281 242
3 242 281 241
3 283 282 243
3 243 282 242
3 284 283 244
3 244 283 243
3 246 285 206
3 206 285 245
3 285 284 245
3 245 284 244
