ply
format ascii 1.0
comment https://github.com/mikedh/trimesh
element vertex 220
property float x
property float y
property float z
element face 424
property list uchar int vertex_indices
end_header
-0.07922632 0.00000000 -0.00363760
-0.08131073 0.00000000 -0.00370198
-0.08378749 0.00000000 -0.00403997
-0.08500542 0.00000000 -0.00442624
-0.08548442 0.00000000 -0.00466766
-0.08589286 0.00000000 -0.00494805
-0.08654636 0.00000000 -0.00564610
-0.08698203 0.00000000 -0.00652715
-0.08719987 0.00000000 -0.00759122
-0.08722710 0.00000000 -0.00819189
-0.08714531 0.00000000 -0.00913206
-0.08649100 0.00000000 -0.01070630
-0.08591847 0.00000000 -0.01134037
-0.08520585 0.00000000 -0.01184771
-0.08343078 0.00000000 -0.01242752
-0.08236833 0.00000000 -0.01250000
-0.08161177 0.00000000 -0.01246568
-0.08021407 0.00000000 -0.01219116
-0.07897022 0.00000000 -0.01164212
-0.07788024 0.00000000 -0.01081856
-0.07739294 0.00000000 -0.01030384
-0.07695413 0.00000000 -0.00973222
-0.07625204 0.00000000 -0.00845355
-0.07578398 0.00000000 -0.00699430
-0.07554995 0.00000000 -0.00535447
-0.07552070 0.00000000 -0.00446683
-0.07552070 0.00000000 -0.00363760
-0.07922632 -0.00124385 -0.00363760
-0.08131073 -0.00124385 -0.00370198
-0.08378749 -0.00124385 -0.00403997
-0.08500542 -0.00124385 -0.00442624
-0.08548442 -0.00124385 -0.00466766
-0.08589286 -0.00124385 -0.00494805
-0.08654636 -0.00124385 -0.00564610
-0.08698203 -0.00124385 -0.00652715
-0.08719987 -0.00124385 -0.00759122
-0.08722710 -0.00124385 -0.00819189
-0.08714531 -0.00124385 -0.00913206
-0.08649100 -0.00124385 -0.01070630
-0.08591847 -0.00124385 -0.01134037
-0.08520585 -0.00124385 -0.01184771
-0.08343078 -0.00124385 -0.01242752
-0.08236833 -0.00124385 -0.01250000
-0.08161177 -0.00124385 -0.01246568
-0.08021407 -0.00124385 -0.01219116
-0.07897022 -0.00124385 -0.01164212
-0.07788024 -0.00124385 -0.01081856
-0.07739294 -0.00124385 -0.01030384
-0.07695413 -0.00124385 -0.00973222
-0.07625204 -0.00124385 -0.00845355
-0.07578398 -0.00124385 -0.00699430
-0.07554995 -0.00124385 -0.00535447
-0.07552070 -0.00124385 -0.00446683
-0.07552070 -0.00124385 -0.00363760
0.01831433 0.00000000 -0.00371534
0.01828791 0.00000000 -0.00271615
0.01807655 0.00000000 -0.00088359
0.01765384 0.00000000 0.00072790
0.01701977 0.00000000 0.00211832
0.01662348 0.00000000 0.00273063
0.01618103 0.00000000 0.00327876
0.01517769 0.00000000 0.00415577
0.01401644 0.00000000 0.00474044
0.01269729 0.00000000 0.00503278
0.01197849 0.00000000 0.00506932
0.01125818 0.00000000 0.00503278
0.00993659 0.00000000 0.00474044
0.00877373 0.00000000 0.00415577
0.00776958 0.00000000 0.00327876
0.00732703 0.00000000 0.00273063
0.00693073 0.00000000 0.00211832
0.00629666 0.00000000 0.00072790
0.00587395 0.00000000 -0.00088359
0.00566259 0.00000000 -0.00271615
0.00563618 0.00000000 -0.00371534
0.00566259 0.00000000 -0.00471453
0.00587395 0.00000000 -0.00654709
0.00629666 0.00000000 -0.00815859
0.00693073 0.00000000 -0.00954900
0.00732703 0.00000000 -0.01016131
0.00776958 0.00000000 -0.01070944
0.00877373 0.00000000 -0.01158645
0.00993659 0.00000000 -0.01217112
0.01125818 0.00000000 -0.01246346
0.01197849 0.00000000 -0.01250000
0.01269729 0.00000000 -0.01246346
0.01401644 0.00000000 -0.01217112
0.01517769 0.00000000 -0.01158645
0.01618103 0.00000000 -0.01070944
0.01662348 0.00000000 -0.01016131
0.01701977 0.00000000 -0.00954900
0.01765384 0.00000000 -0.00815859
0.01807655 0.00000000 -0.00654709
0.01828791 0.00000000 -0.00471453
0.01831433 -0.00124385 -0.00371534
0.01828791 -0.00124385 -0.00271615
0.01807655 -0.00124385 -0.00088359
0.01765384 -0.00124385 0.00072790
0.01701977 -0.00124385 0.00211832
0.01662348 -0.00124385 0.00273063
0.01618103 -0.00124385 0.00327876
0.01517769 -0.00124385 0.00415577
0.01401644 -0.00124385 0.00474044
0.01269729 -0.00124385 0.00503278
0.01197849 -0.00124385 0.00506932
0.01125818 -0.00124385 0.00503278
0.00993659 -0.00124385 0.00474044
0.00877373 -0.00124385 0.00415577
0.00776958 -0.00124385 0.00327876
0.00732703 -0.00124385 0.00273063
0.00693073 -0.00124385 0.00211832
0.00629666 -0.00124385 0.00072790
0.00587395 -0.00124385 -0.00088359
0.00566259 -0.00124385 -0.00271615
0.00563618 -0.00124385 -0.00371534
0.00566259 -0.00124385 -0.00471453
0.00587395 -0.00124385 -0.00654709
0.00629666 -0.00124385 -0.00815859
0.00693073 -0.00124385 -0.00954900
0.00732703 -0.00124385 -0.01016131
0.00776958 -0.00124385 -0.01070944
0.00877373 -0.00124385 -0.01158645
0.00993659 -0.00124385 -0.01217112
0.01125818 -0.00124385 -0.01246346
0.01197849 -0.00124385 -0.01250000
0.01269729 -0.00124385 -0.01246346
0.01401644 -0.00124385 -0.01217112
0.01517769 -0.00124385 -0.01158645
0.01618103 -0.00124385 -0.01070944
0.01662348 -0.00124385 -0.01016131
0.01701977 -0.00124385 -0.00954900
0.01765384 -0.00124385 -0.00815859
0.01807655 -0.00124385 -0.00654709
0.01828791 -0.00124385 -0.00471453
0.05835385 0.00000000 0.01250000
0.05758950 0.00000000 0.01245141
0.05620718 0.00000000 0.01206271
0.05502002 0.00000000 0.01128531
0.05402802 0.00000000 0.01011920
0.05360521 0.00000000 0.00939039
0.05323321 0.00000000 0.00856561
0.05263801 0.00000000 0.00662210
0.05224121 0.00000000 0.00428665
0.05204281 0.00000000 0.00155926
0.05201801 0.00000000 0.00004859
0.05204281 0.00000000 -0.00145611
0.05224121 0.00000000 -0.00417460
0.05263801 0.00000000 -0.00650519
0.05323321 0.00000000 -0.00844789
0.05360521 0.00000000 -0.00927378
0.05402802 0.00000000 -0.01000259
0.05502002 0.00000000 -0.01116870
0.05620718 0.00000000 -0.01194610
0.05758950 0.00000000 -0.01233480
0.05835385 0.00000000 -0.01238339
0.05912416 0.00000000 -0.01233480
0.06051539 0.00000000 -0.01194610
0.06170741 0.00000000 -0.01116870
0.06270022 0.00000000 -0.01000259
0.06312192 0.00000000 -0.00927378
0.06349544 0.00000000 -0.00844789
0.06409307 0.00000000 -0.00650519
0.06449149 0.00000000 -0.00417460
0.06469070 0.00000000 -0.00145611
0.06471560 0.00000000 0.00004859
0.06469070 0.00000000 0.00155926
0.06449149 0.00000000 0.00428665
0.06409307 0.00000000 0.00662210
0.06349544 0.00000000 0.00856561
0.06312192 0.00000000 0.00939039
0.06270022 0.00000000 0.01011920
0.06170741 0.00000000 0.01128531
0.06051539 0.00000000 0.01206271
0.05912416 0.00000000 0.01245141
0.05835385 -0.00124385 0.01250000
0.05758950 -0.00124385 0.01245141
0.05620718 -0.00124385 0.01206271
0.05502002 -0.00124385 0.01128531
0.05402802 -0.00124385 0.01011920
0.05360521 -0.00124385 0.00939039
0.05323321 -0.00124385 0.00856561
0.05263801 -0.00124385 0.00662210
0.05224121 -0.00124385 0.00428665
0.05204281 -0.00124385 0.00155926
0.05201801 -0.00124385 0.00004859
0.05204281 -0.00124385 -0.00145611
0.05224121 -0.00124385 -0.00417460
0.05263801 -0.00124385 -0.00650519
0.05323321 -0.00124385 -0.00844789
0.05360521 -0.00124385 -0.00927378
0.05402802 -0.00124385 -0.01000259
0.05502002 -0.00124385 -0.01116870
0.05620718 -0.00124385 -0.01194610
0.05758950 -0.00124385 -0.01233480
0.05835385 -0.00124385 -0.01238339
0.05912416 -0.00124385 -0.01233480
0.06051539 -0.00124385 -0.01194610
0.06170741 -0.00124385 -0.01116870
0.06270022 -0.00124385 -0.01000259
0.06312192 -0.00124385 -0.00927378
0.06349544 -0.00124385 -0.00844789
0.06409307 -0.00124385 -0.00650519
0.06449149 -0.00124385 -0.00417460
0.06469070 -0.00124385 -0.00145611
0.06471560 -0.00124385 0.00004859
0.06469070 -0.00124385 0.00155926
0.06449149 -0.00124385 0.00428665
0.06409307 -0.00124385 0.00662210
0.06349544 -0.00124385 0.00856561
0.06312192 -0.00124385 0.00939039
0.06270022 -0.00124385 0.01011920
0.06170741 -0.00124385 0.01128531
0.06051539 -0.00124385 0.01206271
0.05912416 -0.00124385 0.01245141
0.08722710 0.00000000 0.01163190
0.07690059 0.00000000 -0.00450570
0.08722710 0.00000000 -0.00450570
0.08722710 -0.00124385 0.01163190
0.07690059 -0.00124385 -0.00450570
0.08722710 -0.00124385 -0.00450570
3 1 0 26
3 3 2 1
3 5 4 3
3 7 6 5
3 9 8 7
3 11 10 9
3 13 12 11
3 15 14 13
3 17 16 15
3 19 18 17
3 21 20 19
3 23 22 21
3 25 24 23
3 1 26 25
3 5 3 1
3 9 7 5
3 13 11 9
3 17 15 13
3 21 19 17
3 25 23 21
3 5 1 25
3 13 9 5
3 21 17 13
3 5 25 21
3 21 13 5
3 53 27 28
3 28 29 30
3 30 31 32
3 32 33 34
3 34 35 36
3 36 37 38
3 38 39 40
3 40 41 42
3 42 43 44
3 44 45 46
3 46 47 48
3 48 49 50
3 50 51 52
3 52 53 28
3 28 30 32
3 32 34 36
3 36 38 40
3 40 42 44
3 44 46 48
3 48 50 52
3 52 28 32
3 32 36 40
3 40 44 48
3 48 52 32
3 32 40 48
3 28 27 1
3 1 27 0
3 29 28 2
3 2 28 1
3 30 29 3
3 3 29 2
3 31 30 4
3 4 30 3
3 32 31 5
3 5 31 4
3 33 32 6
3 6 32 5
3 34 33 7
3 7 33 6
3 35 34 8
3 8 34 7
3 36 35 9
3 9 35 8
3 37 36 10
3 10 36 9
3 38 37 11
3 11 37 10
3 39 38 12
3 12 38 11
3 40 39 13
3 13 39 12
3 41 40 14
3 14 40 13
3 42 41 15
3 15 41 14
3 43 42 16
3 16 42 15
3 44 43 17
3 17 43 16
3 45 44 18
3 18 44 17
3 46 45 19
3 19 45 18
3 47 46 20
3 20 46 19
3 48 47 21
3 21 47 20
3 49 48 22
3 22 48 21
3 50 49 23
3 23 49 22
3 51 50 24
3 24 50 23
3 52 51 25
3 25 51 24
3 27 53 0
3 0 53 26
3 53 52 26
3 26 52 25
3 55 54 93
3 57 56 55
3 59 58 57
3 61 60 59
3 63 62 61
3 65 64 63
3 67 66 65
3 69 68 67
3 71 70 69
3 73 72 71
3 75 74 73
3 77 76 75
3 79 78 77
3 81 80 79
3 83 82 81
3 85 84 83
3 87 86 85
3 89 88 87
3 91 90 89
3 93 92 91
3 57 55 93
3 61 59 57
3 65 63 61
3 69 67 65
3 73 71 69
3 77 75 73
3 81 79 77
3 85 83 81
3 89 87 85
3 93 91 89
3 61 57 93
3 69 65 61
3 77 73 69
3 85 81 77
3 93 89 85
3 69 61 93
3 85 77 69
3 69 93 85
3 133 94 95
3 95 96 97
3 97 98 99
3 99 100 101
3 101 102 103
3 103 104 105
3 105 106 107
3 107 108 109
3 109 110 111
3 111 112 113
3 113 114 115
3 115 116 117
3 117 118 119
3 119 120 121
3 121 122 123
3 123 124 125
3 125 126 127
3 127 128 129
3 129 130 131
3 131 132 133
3 133 95 97
3 97 99 101
3 101 103 105
3 105 107 109
3 109 111 113
3 113 115 117
3 117 119 121
3 121 123 125
3 125 127 129
3 129 131 133
3 133 97 101
3 101 105 109
3 109 113 117
3 117 121 125
3 125 129 133
3 133 101 109
3 109 117 125
3 125 133 109
3 95 94 55
3 55 94 54
3 96 95 56
3 56 95 55
3 97 96 57
3 57 96 56
3 98 97 58
3 58 97 57
3 99 98 59
3 59 98 58
3 100 99 60
3 60 99 59
3 101 100 61
3 61 100 60
3 102 101 62
3 62 101 61
3 103 102 63
3 63 102 62
3 104 103 64
3 64 103 63
3 105 104 65
3 65 104 64
3 106 105 66
3 66 105 65
3 107 106 67
3 67 106 66
3 108 107 68
3 68 107 67
3 109 108 69
3 69 108 68
3 110 109 70
3 70 109 69
3 111 110 71
3 71 110 70
3 112 111 72
3 72 111 71
3 113 112 73
3 73 112 72
3 114 113 74
3 74 113 73
3 115 114 75
3 75 114 74
3 116 115 76
3 76 115 75
3 117 116 77
3 77 116 76
3 118 117 78
3 78 117 77
3 119 118 79
3 79 118 78
3 120 119 80
3 80 119 79
3 121 120 81
3 81 120 80
3 122 121 82
3 82 121 81
3 123 122 83
3 83 122 82
3 124 123 84
3 84 123 83
3 125 124 85
3 85 124 84
3 126 125 86
3 86 125 85
3 127 126 87
3 87 126 86
3 128 127 88
3 88 127 87
3 129 128 89
3 89 128 88
3 130 129 90
3 90 129 89
3 131 130 91
3 91 130 90
3 132 131 92
3 92 131 91
3 94 133 54
3 54 133 93
3 133 132 93
3 93 132 92
3 135 134 173
3 137 136 135
3 139 138 137
3 141 140 139
3 143 142 141
3 145 144 143
3 147 146 145
3 149 148 147
3 151 150 149
3 153 152 151
3 155 154 153
3 157 156 155
3 159 158 157
3 161 160 159
3 163 162 161
3 165 164 163
3 167 166 165
3 169 168 167
3 171 170 169
3 173 172 171
3 137 135 173
3 141 139 137
3 145 143 141
3 149 147 145
3 153 151 149
3 157 155 153
3 161 159 157
3 165 163 161
3 169 167 165
3 173 171 169
3 141 137 173
3 149 145 141
3 157 153 149
3 165 161 157
3 173 169 165
3 149 141 173
3 165 157 149
3 149 173 165
3 213 174 175
3 175 176 177
3 177 178 179
3 179 180 181
3 181 182 183
3 183 184 185
3 185 186 187
3 187 188 189
3 189 190 191
3 191 192 193
3 193 194 195
3 195 196 197
3 197 198 199
3 199 200 201
3 201 202 203
3 203 204 205
3 205 206 207
3 207 208 209
3 209 210 211
3 211 212 213
3 213 175 177
3 177 179 181
3 181 183 185
3 185 187 189
3 189 191 193
3 193 195 197
3 197 199 201
3 201 203 205
3 205 207 209
3 209 211 213
3 213 177 181
3 181 185 189
3 189 193 197
3 197 201 205
3 205 209 213
3 213 181 189
3 189 197 205
3 205 213 189
3 175 174 135
3 135 174 134
3 176 175 136
3 136 175 135
3 177 176 137
3 137 176 136
3 178 177 138
3 138 177 137
3 179 178 139
3 139 178 138
3 180 179 140
3 140 179 139
3 181 180 141
3 141 180 140
3 182 181 142
3 142 181 141
3 183 182 143
3 143 182 142
3 184 183 144
3 144 183 143
3 185 184 145
3 145 184 144
3 186 185 146
3 146 185 145
3 187 186 147
3 147 186 146
3 188 187 148
3 148 187 147
3 189 188 149
3 149 188 148
3 190 189 150
3 150 189 149
3 191 190 151
3 151 190 150
3 192 191 152
3 152 191 151
3 193 192 153
3 153 192 152
3 194 193 154
3 154 193 153
3 195 194 155
3 155 194 154
3 196 195 156
3 156 195 155
3 197 196 157
3 157 196 156
3 198 197 158
3 158 197 157
3 199 198 159
3 159 198 158
3 200 199 160
3 160 199 159
3 201 200 161
3 161 200 160
3 202 201 162
3 162 201 161
3 203 202 163
3 163 202 162
3 204 203 164
3 164 203 163
3 205 204 165
3 165 204 164
3 206 205 166
3 166 205 165
3 207 206 167
3 167 206 166
3 208 207 168
3 168 207 167
3 209 208 169
3 169 208 168
3 210 209 170
3 170 209 169
3 211 210 171
3 171 210 170
3 212 211 172
3 172 211 171
3 174 213 134
3 134 213 173
3 213 212 173
3 173 212 172
3 215 214 216
3 219 217 218
3 218 217 215
3 215 217 214
3 217 219 214
3 214 219 216
3 219 218 216
3 216 218 215
