ply
format ascii 1.0
comment https://github.com/mikedh/trimesh
element vertex 230
property float x
property float y
property float z
element face 444
property list uchar int vertex_indices
end_header
-0.12346631 0.00000000 0.00011062
-0.12643228 0.00000000 0.00001901
-0.12995656 0.00000000 -0.00046192
-0.13168959 0.00000000 -0.00101156
-0.13237117 0.00000000 -0.00135509
-0.13295236 0.00000000 -0.00175407
-0.13388225 0.00000000 -0.00274734
-0.13450219 0.00000000 -0.00400103
-0.13481215 0.00000000 -0.00551513
-0.13485089 0.00000000 -0.00636984
-0.13473451 0.00000000 -0.00770764
-0.13380347 0.00000000 -0.00994769
-0.13298880 0.00000000 -0.01084993
-0.13197479 0.00000000 -0.01157183
-0.12944898 0.00000000 -0.01239687
-0.12793718 0.00000000 -0.01250000
-0.12686065 0.00000000 -0.01245117
-0.12487181 0.00000000 -0.01206055
-0.12310190 0.00000000 -0.01127930
-0.12155092 0.00000000 -0.01010742
-0.12085753 0.00000000 -0.00937500
-0.12023313 0.00000000 -0.00856163
-0.11923411 0.00000000 -0.00674217
-0.11856809 0.00000000 -0.00466575
-0.11823507 0.00000000 -0.00233237
-0.11819345 0.00000000 -0.00106932
-0.11819345 0.00000000 0.00011062
-0.12346631 -0.00176991 0.00011062
-0.12643228 -0.00176991 0.00001901
-0.12995656 -0.00176991 -0.00046192
-0.13168959 -0.00176991 -0.00101156
-0.13237117 -0.00176991 -0.00135509
-0.13295236 -0.00176991 -0.00175407
-0.13388225 -0.00176991 -0.00274734
-0.13450219 -0.00176991 -0.00400103
-0.13481215 -0.00176991 -0.00551513
-0.13485089 -0.00176991 -0.00636984
-0.13473451 -0.00176991 -0.00770764
-0.13380347 -0.00176991 -0.00994769
-0.13298880 -0.00176991 -0.01084993
-0.13197479 -0.00176991 -0.01157183
-0.12944898 -0.00176991 -0.01239687
-0.12793718 -0.00176991 -0.01250000
-0.12686065 -0.00176991 -0.01245117
-0.12487181 -0.00176991 -0.01206055
-0.12310190 -0.00176991 -0.01127930
-0.12155092 -0.00176991 -0.01010742
-0.12085753 -0.00176991 -0.00937500
-0.12023313 -0.00176991 -0.00856163
-0.11923411 -0.00176991 -0.00674217
-0.11856809 -0.00176991 -0.00466575
-0.11823507 -0.00176991 -0.00233237
-0.11819345 -0.00176991 -0.00106932
-0.11819345 -0.00176991 0.00011062
0.03137790 0.00000000 0.00000000
0.03134031 0.00000000 0.00142178
0.03103956 0.00000000 0.00402940
0.03043807 0.00000000 0.00632245
0.02953583 0.00000000 0.00830093
0.02897193 0.00000000 0.00917220
0.02834235 0.00000000 0.00995215
0.02691467 0.00000000 0.01120008
0.02526229 0.00000000 0.01203203
0.02338522 0.00000000 0.01244800
0.02236242 0.00000000 0.01250000
0.02133746 0.00000000 0.01244800
0.01945693 0.00000000 0.01203203
0.01780224 0.00000000 0.01120008
0.01637341 0.00000000 0.00995215
0.01574369 0.00000000 0.00917220
0.01517979 0.00000000 0.00830093
0.01427755 0.00000000 0.00632245
0.01367605 0.00000000 0.00402940
0.01337531 0.00000000 0.00142178
0.01333771 0.00000000 0.00000000
0.01337531 0.00000000 -0.00142178
0.01367605 0.00000000 -0.00402940
0.01427755 0.00000000 -0.00632245
0.01517979 0.00000000 -0.00830093
0.01574369 0.00000000 -0.00917220
0.01637341 0.00000000 -0.00995215
0.01780224 0.00000000 -0.01120008
0.01945693 0.00000000 -0.01203203
0.02133746 0.00000000 -0.01244800
0.02236242 0.00000000 -0.01250000
0.02338522 0.00000000 -0.01244800
0.02526229 0.00000000 -0.01203203
0.02691467 0.00000000 -0.01120008
0.02834235 0.00000000 -0.00995215
0.02897193 0.00000000 -0.00917220
0.02953583 0.00000000 -0.00830093
0.03043807 0.00000000 -0.00632245
0.03103956 0.00000000 -0.00402940
0.03134031 0.00000000 -0.00142178
0.03137790 -0.00176991 0.00000000
0.03134031 -0.00176991 0.00142178
0.03103956 -0.00176991 0.00402940
0.03043807 -0.00176991 0.00632245
0.02953583 -0.00176991 0.00830093
0.02897193 -0.00176991 0.00917220
0.02834235 -0.00176991 0.00995215
0.02691467 -0.00176991 0.01120008
0.02526229 -0.00176991 0.01203203
0.02338522 -0.00176991 0.01244800
0.02236242 -0.00176991 0.01250000
0.02133746 -0.00176991 0.01244800
0.01945693 -0.00176991 0.01203203
0.01780224 -0.00176991 0.01120008
0.01637341 -0.00176991 0.00995215
0.01574369 -0.00176991 0.00917220
0.01517979 -0.00176991 0.00830093
0.01427755 -0.00176991 0.00632245
0.01367605 -0.00176991 0.00402940
0.01337531 -0.00176991 0.00142178
0.01333771 -0.00176991 0.00000000
0.01337531 -0.00176991 -0.00142178
0.01367605 -0.00176991 -0.00402940
0.01427755 -0.00176991 -0.00632245
0.01517979 -0.00176991 -0.00830093
0.01574369 -0.00176991 -0.00917220
0.01637341 -0.00176991 -0.00995215
0.01780224 -0.00176991 -0.01120008
0.01945693 -0.00176991 -0.01203203
0.02133746 -0.00176991 -0.01244800
0.02236242 -0.00176991 -0.01250000
0.02338522 -0.00176991 -0.01244800
0.02526229 -0.00176991 -0.01203203
0.02691467 -0.00176991 -0.01120008
0.02834235 -0.00176991 -0.00995215
0.02897193 -0.00176991 -0.00917220
0.02953583 -0.00176991 -0.00830093
0.03043807 -0.00176991 -0.00632245
0.03103956 -0.00176991 -0.00402940
0.03134031 -0.00176991 -0.00142178
0.06032794 0.00000000 0.00011062
0.05736196 0.00000000 0.00001901
0.05383769 0.00000000 -0.00046192
0.05210465 0.00000000 -0.00101156
0.05142307 0.00000000 -0.00135509
0.05084189 0.00000000 -0.00175407
0.04991199 0.00000000 -0.00274734
0.04929207 0.00000000 -0.00400103
0.04898210 0.00000000 -0.00551513
0.04894335 0.00000000 -0.00636984
0.04905973 0.00000000 -0.00770764
0.04999078 0.00000000 -0.00994769
0.05080545 0.00000000 -0.01084993
0.05181946 0.00000000 -0.01157183
0.05434527 0.00000000 -0.01239687
0.05585707 0.00000000 -0.01250000
0.05693359 0.00000000 -0.01245117
0.05892244 0.00000000 -0.01206055
0.06069235 0.00000000 -0.01127930
0.06224333 0.00000000 -0.01010742
0.06293672 0.00000000 -0.00937500
0.06356111 0.00000000 -0.00856163
0.06456015 0.00000000 -0.00674217
0.06522617 0.00000000 -0.00466575
0.06555918 0.00000000 -0.00233237
0.06560080 0.00000000 -0.00106932
0.06560080 0.00000000 0.00011062
0.06032794 -0.00176991 0.00011062
0.05736196 -0.00176991 0.00001901
0.05383769 -0.00176991 -0.00046192
0.05210465 -0.00176991 -0.00101156
0.05142307 -0.00176991 -0.00135509
0.05084189 -0.00176991 -0.00175407
0.04991199 -0.00176991 -0.00274734
0.04929207 -0.00176991 -0.00400103
0.04898210 -0.00176991 -0.00551513
0.04894335 -0.00176991 -0.00636984
0.04905973 -0.00176991 -0.00770764
0.04999078 -0.00176991 -0.00994769
0.05080545 -0.00176991 -0.01084993
0.05181946 -0.00176991 -0.01157183
0.05434527 -0.00176991 -0.01239687
0.05585707 -0.00176991 -0.01250000
0.05693359 -0.00176991 -0.01245117
0.05892244 -0.00176991 -0.01206055
0.06069235 -0.00176991 -0.01127930
0.06224333 -0.00176991 -0.01010742
0.06293672 -0.00176991 -0.00937500
0.06356111 -0.00176991 -0.00856163
0.06456015 -0.00176991 -0.00674217
0.06522617 -0.00176991 -0.00466575
0.06555918 -0.00176991 -0.00233237
0.06560080 -0.00176991 -0.00106932
0.06560080 -0.00176991 0.00011062
0.13485089 0.00000000 0.00291298
0.13480078 0.00000000 0.00397107
0.13448274 0.00000000 0.00592304
0.13387433 0.00000000 0.00765608
0.13297555 0.00000000 0.00917018
0.13241726 0.00000000 0.00984513
0.13179862 0.00000000 0.01045440
0.13041703 0.00000000 0.01142924
0.12884302 0.00000000 0.01207913
0.12707657 0.00000000 0.01240407
0.12612118 0.00000000 0.01244469
0.12504034 0.00000000 0.01240551
0.12304457 0.00000000 0.01209209
0.12127005 0.00000000 0.01146525
0.11971677 0.00000000 0.01052498
0.11902309 0.00000000 0.00993732
0.11839236 0.00000000 0.00927850
0.11734263 0.00000000 0.00776900
0.11657520 0.00000000 0.00600370
0.11609009 0.00000000 0.00398259
0.11595340 0.00000000 0.00287611
0.13485089 -0.00176991 0.00291298
0.13480078 -0.00176991 0.00397107
0.13448274 -0.00176991 0.00592304
0.13387433 -0.00176991 0.00765608
0.13297555 -0.00176991 0.00917018
0.13241726 -0.00176991 0.00984513
0.13179862 -0.00176991 0.01045440
0.13041703 -0.00176991 0.01142924
0.12884302 -0.00176991 0.01207913
0.12707657 -0.00176991 0.01240407
0.12612118 -0.00176991 0.01244469
0.12504034 -0.00176991 0.01240551
0.12304457 -0.00176991 0.01209209
0.12127005 -0.00176991 0.01146525
0.11971677 -0.00176991 0.01052498
0.11902309 -0.00176991 0.00993732
0.11839236 -0.00176991 0.00927850
0.11734263 -0.00176991 0.00776900
0.11657520 -0.00176991 0.00600370
0.11609009 -0.00176991 0.00398259
0.11595340 -0.00176991 0.00287611
3 1 0 26
3 3 2 1
3 5 4 3
3 7 6 5
3 9 8 7
3 11 10 9
3 13 12 11
3 15 14 13
3 17 16 15
3 19 18 17
3 21 20 19
3 23 22 21
3 25 24 23
3 1 26 25
3 5 3 1
3 9 7 5
3 13 11 9
3 17 15 13
3 21 19 17
3 25 23 21
3 5 1 25
3 13 9 5
3 21 17 13
3 5 25 21
3 21 13 5
3 53 27 28
3 28 29 30
3 30 31 32
3 32 33 34
3 34 35 36
3 36 37 38
3 38 39 40
3 40 41 42
3 42 43 44
3 44 45 46
3 46 47 48
3 48 49 50
3 50 51 52
3 52 53 28
3 28 30 32
3 32 34 36
3 36 38 40
3 40 42 44
3 44 46 48
3 48 50 52
3 52 28 32
3 32 36 40
3 40 44 48
3 48 52 32
3 32 40 48
3 28 27 1
3 1 27 0
3 29 28 2
3 2 28 1
3 30 29 3
3 3 29 2
3 31 30 4
3 4 30 3
3 32 31 5
3 5 31 4
3 33 32 6
3 6 32 5
3 34 33 7
3 7 33 6
3 35 34 8
3 8 34 7
3 36 35 9
3 9 35 8
3 37 36 10
3 10 36 9
3 38 37 11
3 11 37 10
3 39 38 12
3 12 38 11
3 40 39 13
3 13 39 12
3 41 40 14
3 14 40 13
3 42 41 15
3 15 41 14
3 43 42 16
3 16 42 15
3 44 43 17
3 17 43 16
3 45 44 18
3 18 44 17
3 46 45 19
3 19 45 18
3 47 46 20
3 20 46 19
3 48 47 21
3 21 47 20
3 49 48 22
3 22 48 21
3 50 49 23
3 23 49 22
3 51 50 24
3 24 50 23
3 52 51 25
3 25 51 24
3 27 53 0
3 0 53 26
3 53 52 26
3 26 52 25
3 55 54 93
3 57 56 55
3 59 58 57
3 61 60 59
3 63 62 61
3 65 64 63
3 67 66 65
3 69 68 67
3 71 70 69
3 73 72 71
3 75 74 73
3 77 76 75
3 79 78 77
3 81 80 79
3 83 82 81
3 85 84 83
3 87 86 85
3 89 88 87
3 91 90 89
3 93 92 91
3 57 55 93
3 61 59 57
3 65 63 61
3 69 67 65
3 73 71 69
3 77 75 73
3 81 79 77
3 85 83 81
3 89 87 85
3 93 91 89
3 61 57 93
3 69 65 61
3 77 73 69
3 85 81 77
3 93 89 85
3 69 61 93
3 85 77 69
3 69 93 85
3 133 94 95
3 95 96 97
3 97 98 99
3 99 100 101
3 101 102 103
3 103 104 105
3 105 106 107
3 107 108 109
3 109 110 111
3 111 112 113
3 113 114 115
3 115 116 117
3 117 118 119
3 119 120 121
3 121 122 123
3 123 124 125
3 125 126 127
3 127 128 129
3 129 130 131
3 131 132 133
3 133 95 97
3 97 99 101
3 101 103 105
3 105 107 109
3 109 111 113
3 113 115 117
3 117 119 121
3 121 123 125
3 125 127 129
3 129 131 133
3 133 97 101
3 101 105 109
3 109 113 117
3 117 121 125
3 125 129 133
3 133 101 109
3 109 117 125
3 125 133 109
3 95 94 55
3 55 94 54
3 96 95 56
3 56 95 55
3 97 96 57
3 57 96 56
3 98 97 58
3 58 97 57
3 99 98 59
3 59 98 58
3 100 99 60
3 60 99 59
3 101 100 61
3 61 100 60
3 102 101 62
3 62 101 61
3 103 102 63
3 63 102 62
3 104 103 64
3 64 103 63
3 105 104 65
3 65 104 64
3 106 105 66
3 66 105 65
3 107 106 67
3 67 106 66
3 108 107 68
3 68 107 67
3 109 108 69
3 69 108 68
3 110 109 70
3 70 109 69
3 111 110 71
3 71 110 70
3 112 111 72
3 72 111 71
3 113 112 73
3 73 112 72
3 114 113 74
3 74 113 73
3 115 114 75
3 75 114 74
3 116 115 76
3 76 115 75
3 117 116 77
3 77 116 76
3 118 117 78
3 78 117 77
3 119 118 79
3 79 118 78
3 120 119 80
3 80 119 79
3 121 120 81
3 81 120 80
3 122 121 82
3 82 121 81
3 123 122 83
3 83 122 82
3 124 123 84
3 84 123 83
3 125 124 85
3 85 124 84
3 126 125 86
3 86 125 85
3 127 126 87
3 87 126 86
3 128 127 88
3 88 127 87
3 129 128 89
3 89 128 88
3 130 129 90
3 90 129 89
3 131 130 91
3 91 130 90
3 132 131 92
3 92 131 91
3 94 133 54
3 54 133 93
3 133 132 93
3 93 132 92
3 135 134 160
3 137 136 135
3 139 138 137
3 141 140 139
3 143 142 141
3 145 144 143
3 147 146 145
3 149 148 147
3 151 150 149
3 153 152 151
3 155 154 153
3 157 156 155
3 159 158 157
3 135 160 159
3 139 137 135
3 143 141 139
3 147 145 143
3 151 149 147
3 155 153 151
3 159 157 155
3 139 135 159
3 147 143 139
3 155 151 147
3 139 159 155
3 155 147 139
3 187 161 162
3 162 163 164
3 164 165 166
3 166 167 168
3 168 169 170
3 170 171 172
3 172 173 174
3 174 175 176
3 176 177 178
3 178 179 180
3 180 181 182
3 182 183 184
3 184 185 186
3 186 187 162
3 162 164 166
3 166 168 170
3 170 172 174
3 174 176 178
3 178 180 182
3 182 184 186
3 186 162 166
3 166 170 174
3 174 178 182
3 182 186 166
3 166 174 182
3 162 161 135
3 135 161 134
3 163 162 136
3 136 162 135
3 164 163 137
3 137 163 136
3 165 164 138
3 138 164 137
3 166 165 139
3 139 165 138
3 167 166 140
3 140 166 139
3 168 167 141
3 141 167 140
3 169 168 142
3 142 168 141
3 170 169 143
3 143 169 142
3 171 170 144
3 144 170 143
3 172 171 145
3 145 171 144
3 173 172 146
3 146 172 145
3 174 173 147
3 147 173 146
3 175 174 148
3 148 174 147
3 176 175 149
3 149 175 148
3 177 176 150
3 150 176 149
3 178 177 151
3 151 177 150
3 179 178 152
3 152 178 151
3 180 179 153
3 153 179 152
3 181 180 154
3 154 180 153
3 182 181 155
3 155 181 154
3 183 182 156
3 156 182 155
3 184 183 157
3 157 183 156
3 185 184 158
3 158 184 157
3 186 185 159
3 159 185 158
3 161 187 134
3 134 187 160
3 187 186 160
3 160 186 159
3 189 188 208
3 191 190 189
3 193 192 191
3 195 194 193
3 197 196 195
3 199 198 197
3 201 200 199
3 203 202 201
3 205 204 203
3 207 206 205
3 189 208 207
3 193 191 189
3 197 195 193
3 201 199 197
3 205 203 201
3 189 207 205
3 197 193 189
3 205 201 197
3 197 189 205
3 229 209 210
3 210 211 212
3 212 213 214
3 214 215 216
3 216 217 218
3 218 219 220
3 220 221 222
3 222 223 224
3 224 225 226
3 226 227 228
3 228 229 210
3 210 212 214
3 214 216 218
3 218 220 222
3 222 224 226
3 226 228 210
3 210 214 218
3 218 222 226
3 226 210 218
3 210 209 189
3 189 209 188
3 211 210 190
3 190 210 189
3 212 211 191
3 191 211 190
3 213 212 192
3 192 212 191
3 214 213 193
3 193 213 192
3 215 214 194
3 194 214 193
3 216 215 195
3 195 215 194
3 217 216 196
3 196 216 195
3 218 217 197
3 197 217 196
3 219 218 198
3 198 218 197
3 220 219 199
3 199 219 198
3 221 220 200
3 200 220 199
3 222 221 201
3 201 221 200
3 223 222 202
3 202 222 201
3 224 223 203
3 203 223 202
3 225 224 204
3 204 224 203
3 226 225 205
3 205 225 204
3 227 226 206
3 206 226 205
3 228 227 207
3 207 227 206
3 209 229 188
3 188 229 208
3 229 228 208
3 208 228 207
