ply
format ascii 1.0
comment https://github.com/mikedh/trimesh
element vertex 164
property float x
property float y
property float z
element face 316
property list uchar int vertex_indices
end_header
-0.07036620 0.00000000 -0.00173457
-0.07040159 0.00000000 -0.00098750
-0.07062614 0.00000000 0.00039073
-0.07105572 0.00000000 0.00161437
-0.07169031 0.00000000 0.00268342
-0.07208450 0.00000000 0.00315998
-0.07252130 0.00000000 0.00359017
-0.07349679 0.00000000 0.00427847
-0.07460815 0.00000000 0.00473733
-0.07585539 0.00000000 0.00496676
-0.07652996 0.00000000 0.00499544
-0.07729311 0.00000000 0.00496778
-0.07870224 0.00000000 0.00474649
-0.07995517 0.00000000 0.00430389
-0.08105189 0.00000000 0.00364000
-0.08154167 0.00000000 0.00322507
-0.08198701 0.00000000 0.00275990
-0.08272819 0.00000000 0.00169410
-0.08327004 0.00000000 0.00044768
-0.08361256 0.00000000 -0.00097936
-0.08370908 0.00000000 -0.00176061
-0.07036620 -0.00124967 -0.00173457
-0.07040159 -0.00124967 -0.00098750
-0.07062614 -0.00124967 0.00039073
-0.07105572 -0.00124967 0.00161437
-0.07169031 -0.00124967 0.00268342
-0.07208450 -0.00124967 0.00315998
-0.07252130 -0.00124967 0.00359017
-0.07349679 -0.00124967 0.00427847
-0.07460815 -0.00124967 0.00473733
-0.07585539 -0.00124967 0.00496676
-0.07652996 -0.00124967 0.00499544
-0.07729311 -0.00124967 0.00496778
-0.07870224 -0.00124967 0.00474649
-0.07995517 -0.00124967 0.00430389
-0.08105189 -0.00124967 0.00364000
-0.08154167 -0.00124967 0.00322507
-0.08198701 -0.00124967 0.00275990
-0.08272819 -0.00124967 0.00169410
-0.08327004 -0.00124967 0.00044768
-0.08361256 -0.00124967 -0.00097936
-0.08370908 -0.00124967 -0.00176061
0.03729213 0.00000000 -0.00173457
0.03725674 0.00000000 -0.00098750
0.03703219 0.00000000 0.00039073
0.03660261 0.00000000 0.00161437
0.03596801 0.00000000 0.00268342
0.03557383 0.00000000 0.00315998
0.03513703 0.00000000 0.00359017
0.03416153 0.00000000 0.00427847
0.03305017 0.00000000 0.00473733
0.03180294 0.00000000 0.00496676
0.03112837 0.00000000 0.00499544
0.03036522 0.00000000 0.00496778
0.02895608 0.00000000 0.00474649
0.02770315 0.00000000 0.00430389
0.02660643 0.00000000 0.00364000
0.02611665 0.00000000 0.00322507
0.02567131 0.00000000 0.00275990
0.02493013 0.00000000 0.00169410
0.02438828 0.00000000 0.00044768
0.02404576 0.00000000 -0.00097936
0.02394925 0.00000000 -0.00176061
0.03729213 -0.00124967 -0.00173457
0.03725674 -0.00124967 -0.00098750
0.03703219 -0.00124967 0.00039073
0.03660261 -0.00124967 0.00161437
0.03596801 -0.00124967 0.00268342
0.03557383 -0.00124967 0.00315998
0.03513703 -0.00124967 0.00359017
0.03416153 -0.00124967 0.00427847
0.03305017 -0.00124967 0.00473733
0.03180294 -0.00124967 0.00496676
0.03112837 -0.00124967 0.00499544
0.03036522 -0.00124967 0.00496778
0.02895608 -0.00124967 0.00474649
0.02770315 -0.00124967 0.00430389
0.02660643 -0.00124967 0.00364000
0.02611665 -0.00124967 0.00322507
0.02567131 -0.00124967 0.00275990
0.02493013 -0.00124967 0.00169410
0.02438828 -0.00124967 0.00044768
0.02404576 -0.00124967 -0.00097936
0.02394925 -0.00124967 -0.00176061
0.07731751 0.00000000 0.01250000
0.07654958 0.00000000 0.01245118
0.07516079 0.00000000 0.01206066
0.07396806 0.00000000 0.01127961
0.07297141 0.00000000 0.01010804
0.07254662 0.00000000 0.00937581
0.07217287 0.00000000 0.00854717
0.07157489 0.00000000 0.00659456
0.07117623 0.00000000 0.00424816
0.07097690 0.00000000 0.00150799
0.07095198 0.00000000 -0.00000976
0.07097690 0.00000000 -0.00152152
0.07117623 0.00000000 -0.00425274
0.07157489 0.00000000 -0.00659425
0.07217287 0.00000000 -0.00854605
0.07254662 0.00000000 -0.00937581
0.07297141 0.00000000 -0.01010804
0.07396806 0.00000000 -0.01127961
0.07516079 0.00000000 -0.01206066
0.07654958 0.00000000 -0.01245118
0.07731751 0.00000000 -0.01250000
0.07809144 0.00000000 -0.01245118
0.07948919 0.00000000 -0.01206066
0.08068679 0.00000000 -0.01127961
0.08168425 0.00000000 -0.01010804
0.08210793 0.00000000 -0.00937581
0.08248320 0.00000000 -0.00854605
0.08308363 0.00000000 -0.00659425
0.08348391 0.00000000 -0.00425274
0.08368406 0.00000000 -0.00152152
0.08370908 0.00000000 -0.00000976
0.08368406 0.00000000 0.00150799
0.08348391 0.00000000 0.00424816
0.08308363 0.00000000 0.00659456
0.08248320 0.00000000 0.00854717
0.08210793 0.00000000 0.00937581
0.08168425 0.00000000 0.01010804
0.08068679 0.00000000 0.01127961
0.07948919 0.00000000 0.01206066
0.07809144 0.00000000 0.01245118
0.07731751 -0.00124967 0.01250000
0.07654958 -0.00124967 0.01245118
0.07516079 -0.00124967 0.01206066
0.07396806 -0.00124967 0.01127961
0.07297141 -0.00124967 0.01010804
0.07254662 -0.00124967 0.00937581
0.07217287 -0.00124967 0.00854717
0.07157489 -0.00124967 0.00659456
0.07117623 -0.00124967 0.00424816
0.07097690 -0.00124967 0.00150799
0.07095198 -0.00124967 -0.00000976
0.07097690 -0.00124967 -0.00152152
0.07117623 -0.00124967 -0.00425274
0.07157489 -0.00124967 -0.00659425
0.07217287 -0.00124967 -0.00854605
0.07254662 -0.00124967 -0.00937581
0.07297141 -0.00124967 -0.01010804
0.07396806 -0.00124967 -0.01127961
0.07516079 -0.00124967 -0.01206066
0.07654958 -0.00124967 -0.01245118
0.07731751 -0.00124967 -0.01250000
0.07809144 -0.00124967 -0.01245118
0.07948919 -0.00124967 -0.01206066
0.08068679 -0.00124967 -0.01127961
0.08168425 -0.00124967 -0.01010804
0.08210793 -0.00124967 -0.00937581
0.08248320 -0.00124967 -0.00854605
0.08308363 -0.00124967 -0.00659425
0.08348391 -0.00124967 -0.00425274
0.08368406 -0.00124967 -0.00152152
0.08370908 -0.00124967 -0.00000976
0.08368406 -0.00124967 0.00150799
0.08348391 -0.00124967 0.00424816
0.08308363 -0.00124967 0.00659456
0.08248320 -0.00124967 0.00854717
0.08210793 -0.00124967 0.00937581
0.08168425 -0.00124967 0.01010804
0.08068679 -0.00124967 0.01127961
0.07948919 -0.00124967 0.01206066
0.07809144 -0.00124967 0.01245118
3 1 0 20
3 3 2 1
3 5 4 3
3 7 6 5
3 9 8 7
3 11 10 9
3 13 12 11
3 15 14 13
3 17 16 15
3 19 18 17
3 1 20 19
3 5 3 1
3 9 7 5
3 13 11 9
3 17 15 13
3 1 19 17
3 9 5 1
3 17 13 9
3 9 1 17
3 41 21 22
3 22 23 24
3 24 25 26
3 26 27 28
3 28 29 30
3 30 31 32
3 32 33 34
3 34 35 36
3 36 37 38
3 38 39 40
3 40 41 22
3 22 24 26
3 26 28 30
3 30 32 34
3 34 36 38
3 38 40 22
3 22 26 30
3 30 34 38
3 38 22 30
3 22 21 1
3 1 21 0
3 23 22 2
3 2 22 1
3 24 23 3
3 3 23 2
3 25 24 4
3 4 24 3
3 26 25 5
3 5 25 4
3 27 26 6
3 6 26 5
3 28 27 7
3 7 27 6
3 29 28 8
3 8 28 7
3 30 29 9
3 9 29 8
3 31 30 10
3 10 30 9
3 32 31 11
3 11 31 10
3 33 32 12
3 12 32 11
3 34 33 13
3 13 33 12
3 35 34 14
3 14 34 13
3 36 35 15
3 15 35 14
3 37 36 16
3 16 36 15
3 38 37 17
3 17 37 16
3 39 38 18
3 18 38 17
3 40 39 19
3 19 39 18
3 21 41 0
3 0 41 20
3 41 40 20
3 20 40 19
3 43 42 62
3 45 44 43
3 47 46 45
3 49 48 47
3 51 50 49
3 53 52 51
3 55 54 53
3 57 56 55
3 59 58 57
3 61 60 59
3 43 62 61
3 47 45 43
3 51 49 47
3 55 53 51
3 59 57 55
3 43 61 59
3 51 47 43
3 59 55 51
3 51 43 59
3 83 63 64
3 64 65 66
3 66 67 68
3 68 69 70
3 70 71 72
3 72 73 74
3 74 75 76
3 76 77 78
3 78 79 80
3 80 81 82
3 82 83 64
3 64 66 68
3 68 70 72
3 72 74 76
3 76 78 80
3 80 82 64
3 64 68 72
3 72 76 80
3 80 64 72
3 64 63 43
3 43 63 42
3 65 64 44
3 44 64 43
3 66 65 45
3 45 65 44
3 67 66 46
3 46 66 45
3 68 67 47
3 47 67 46
3 69 68 48
3 48 68 47
3 70 69 49
3 49 69 48
3 71 70 50
3 50 70 49
3 72 71 51
3 51 71 50
3 73 72 52
3 52 72 51
3 74 73 53
3 53 73 52
3 75 74 54
3 54 74 53
3 76 75 55
3 55 75 54
3 77 76 56
3 56 76 55
3 78 77 57
3 57 77 56
3 79 78 58
3 58 78 57
3 80 79 59
3 59 79 58
3 81 80 60
3 60 80 59
3 82 81 61
3 61 81 60
3 63 83 42
3 42 83 62
3 83 82 62
3 62 82 61
3 85 84 123
3 87 86 85
3 89 88 87
3 91 90 89
3 93 92 91
3 95 94 93
3 97 96 95
3 99 98 97
3 101 100 99
3 103 102 101
3 105 104 103
3 107 106 105
3 109 108 107
3 111 110 109
3 113 112 111
3 115 114 113
3 117 116 115
3 119 118 117
3 121 120 119
3 123 122 121
3 87 85 123
3 91 89 87
3 95 93 91
3 99 97 95
3 103 101 99
3 107 105 103
3 111 109 107
3 115 113 111
3 119 117 115
3 123 121 119
3 91 87 123
3 99 95 91
3 107 103 99
3 115 111 107
3 123 119 115
3 99 91 123
3 115 107 99
3 99 123 115
3 163 124 125
3 125 126 127
3 127 128 129
3 129 130 131
3 131 132 133
3 133 134 135
3 135 136 137
3 137 138 139
3 139 140 141
3 141 142 143
3 143 144 145
3 145 146 147
3 147 148 149
3 149 150 151
3 151 152 153
3 153 154 155
3 155 156 157
3 157 158 159
3 159 160 161
3 161 162 163
3 163 125 127
3 127 129 131
3 131 133 135
3 135 137 139
3 139 141 143
3 143 145 147
3 147 149 151
3 151 153 155
3 155 157 159
3 159 161 163
3 163 127 131
3 131 135 139
3 139 143 147
3 147 151 155
3 155 159 163
3 163 131 139
3 139 147 155
3 155 163 139
3 125 124 85
3 85 124 84
3 126 125 86
3 86 125 85
3 127 126 87
3 87 126 86
3 128 127 88
3 88 127 87
3 129 128 89
3 89 128 88
3 130 129 90
3 90 129 89
3 131 130 91
3 91 130 90
3 132 131 92
3 92 131 91
3 133 132 93
3 93 132 92
3 134 133 94
3 94 133 93
3 135 134 95
3 95 134 94
3 136 135 96
3 96 135 95
3 137 136 97
3 97 136 96
3 138 137 98
3 98 137 97
3 139 138 99
3 99 138 98
3 140 139 100
3 100 139 99
3 141 140 101
3 101 140 100
3 142 141 102
3 102 141 101
3 143 142 103
3 103 142 102
3 144 143 104
3 104 143 103
3 145 144 105
3 105 144 104
3 146 145 106
3 106 145 105
3 147 146 107
3 107 146 106
3 148 147 108
3 108 147 107
3 149 148 109
3 109 148 108
3 150 149 110
3 110 149 109
3 151 150 111
3 111 150 110
3 152 151 112
3 112 151 111
3 153 152 113
3 113 152 112
3 154 153 114
3 114 153 113
3 155 154 115
3 115 154 114
3 156 155 116
3 116 155 115
3 157 156 117
3 117 156 116
3 158 157 118
3 118 157 117
3 159 158 119
3 119 158 118
3 160 159 120
3 120 159 119
3 161 160 121
3 121 160 120
3 162 161 122
3 122 161 121
3 124 163 84
3 84 163 123
3 163 162 123
3 123 162 122
