ply
format ascii 1.0
comment https://github.com/mikedh/trimesh
element vertex 568
property float x
property float y
property float z
element face 1100
property list uchar int vertex_indices
end_header
-0.37666678 0.00000000 0.00000000
-0.37662917 0.00000000 -0.00142178
-0.37632844 0.00000000 -0.00402940
-0.37572694 0.00000000 -0.00632245
-0.37482470 0.00000000 -0.00830093
-0.37426081 0.00000000 -0.00917220
-0.37363124 0.00000000 -0.00995215
-0.37220356 0.00000000 -0.01120008
-0.37055117 0.00000000 -0.01203203
-0.36867410 0.00000000 -0.01244800
-0.36765128 0.00000000 -0.01250000
-0.36662835 0.00000000 -0.01244800
-0.36475012 0.00000000 -0.01203203
-0.36309543 0.00000000 -0.01120008
-0.36166430 0.00000000 -0.00995215
-0.36103258 0.00000000 -0.00917220
-0.36046433 0.00000000 -0.00830093
-0.35955518 0.00000000 -0.00632245
-0.35894910 0.00000000 -0.00402940
-0.35864604 0.00000000 -0.00142178
-0.35860816 0.00000000 0.00000000
-0.35864604 0.00000000 0.00142178
-0.35894910 0.00000000 0.00402940
-0.35955518 0.00000000 0.00632245
-0.36046433 0.00000000 0.00830093
-0.36103258 0.00000000 0.00917220
-0.36166430 0.00000000 0.00995215
-0.36309543 0.00000000 0.01120008
-0.36475012 0.00000000 0.01203203
-0.36662835 0.00000000 0.01244800
-0.36765128 0.00000000 0.01250000
-0.36867410 0.00000000 0.01244800
-0.37055117 0.00000000 0.01203203
-0.37220356 0.00000000 0.01120008
-0.37363124 0.00000000 0.00995215
-0.37426081 0.00000000 0.00917220
-0.37482470 0.00000000 0.00830093
-0.37572694 0.00000000 0.00632245
-0.37632844 0.00000000 0.00402940
-0.37662917 0.00000000 0.00142178
-0.37666678 -0.00176991 0.00000000
-0.37662917 -0.00176991 -0.00142178
-0.37632844 -0.00176991 -0.00402940
-0.37572694 -0.00176991 -0.00632245
-0.37482470 -0.00176991 -0.00830093
-0.37426081 -0.00176991 -0.00917220
-0.37363124 -0.00176991 -0.00995215
-0.37220356 -0.00176991 -0.01120008
-0.37055117 -0.00176991 -0.01203203
-0.36867410 -0.00176991 -0.01244800
-0.36765128 -0.00176991 -0.01250000
-0.36662835 -0.00176991 -0.01244800
-0.36475012 -0.00176991 -0.01203203
-0.36309543 -0.00176991 -0.01120008
-0.36166430 -0.00176991 -0.00995215
-0.36103258 -0.00176991 -0.00917220
-0.36046433 -0.00176991 -0.00830093
-0.35955518 -0.00176991 -0.00632245
-0.35894910 -0.00176991 -0.00402940
-0.35864604 -0.00176991 -0.00142178
-0.35860816 -0.00176991 0.00000000
-0.35864604 -0.00176991 0.00142178
-0.35894910 -0.00176991 0.00402940
-0.35955518 -0.00176991 0.00632245
-0.36046433 -0.00176991 0.00830093
-0.36103258 -0.00176991 0.00917220
-0.36166430 -0.00176991 0.00995215
-0.36309543 -0.00176991 0.01120008
-0.36475012 -0.00176991 0.01203203
-0.36662835 -0.00176991 0.01244800
-0.36765128 -0.00176991 0.01250000
-0.36867410 -0.00176991 0.01244800
-0.37055117 -0.00176991 0.01203203
-0.37220356 -0.00176991 0.01120008
-0.37363124 -0.00176991 0.00995215
-0.37426081 -0.00176991 0.00917220
-0.37482470 -0.00176991 0.00830093
-0.37572694 -0.00176991 0.00632245
-0.37632844 -0.00176991 0.00402940
-0.37662917 -0.00176991 0.00142178
-0.32008952 0.00000000 0.00291298
-0.32013965 0.00000000 0.00397107
-0.32045770 0.00000000 0.00592304
-0.32106608 0.00000000 0.00765608
-0.32196489 0.00000000 0.00917018
-0.32252315 0.00000000 0.00984513
-0.32314178 0.00000000 0.01045440
-0.32452339 0.00000000 0.01142924
-0.32609740 0.00000000 0.01207913
-0.32786387 0.00000000 0.01240407
-0.32881925 0.00000000 0.01244469
-0.32990009 0.00000000 0.01240551
-0.33189586 0.00000000 0.01209209
-0.33367038 0.00000000 0.01146525
-0.33522364 0.00000000 0.01052498
-0.33591732 0.00000000 0.00993732
-0.33654806 0.00000000 0.00927850
-0.33759779 0.00000000 0.00776900
-0.33836523 0.00000000 0.00600370
-0.33885035 0.00000000 0.00398259
-0.33898702 0.00000000 0.00287611
-0.32008952 -0.00176991 0.00291298
-0.32013965 -0.00176991 0.00397107
-0.32045770 -0.00176991 0.00592304
-0.32106608 -0.00176991 0.00765608
-0.32196489 -0.00176991 0.00917018
-0.32252315 -0.00176991 0.00984513
-0.32314178 -0.00176991 0.01045440
-0.32452339 -0.00176991 0.01142924
-0.32609740 -0.00176991 0.01207913
-0.32786387 -0.00176991 0.01240407
-0.32881925 -0.00176991 0.01244469
-0.32990009 -0.00176991 0.01240551
-0.33189586 -0.00176991 0.01209209
-0.33367038 -0.00176991 0.01146525
-0.33522364 -0.00176991 0.01052498
-0.33591732 -0.00176991 0.00993732
-0.33654806 -0.00176991 0.00927850
-0.33759779 -0.00176991 0.00776900
-0.33836523 -0.00176991 0.00600370
-0.33885035 -0.00176991 0.00398259
-0.33898702 -0.00176991 0.00287611
-0.23612130 0.00000000 0.01244469
-0.23715821 0.00000000 0.01239269
-0.23906523 0.00000000 0.01197672
-0.24074988 0.00000000 0.01114477
-0.24221213 0.00000000 0.00989684
-0.24285986 0.00000000 0.00911689
-0.24344105 0.00000000 0.00824648
-0.24437094 0.00000000 0.00627492
-0.24499087 0.00000000 0.00399570
-0.24530083 0.00000000 0.00140881
-0.24533957 0.00000000 0.00000000
-0.24530113 0.00000000 -0.00140881
-0.24499346 0.00000000 -0.00399570
-0.24437813 0.00000000 -0.00627492
-0.24345516 0.00000000 -0.00824648
-0.24287830 0.00000000 -0.00911689
-0.24223229 0.00000000 -0.00989684
-0.24077004 0.00000000 -0.01114477
-0.23908079 0.00000000 -0.01197672
-0.23716454 0.00000000 -0.01239269
-0.23612130 0.00000000 -0.01244469
-0.23508884 0.00000000 -0.01239255
-0.23318988 0.00000000 -0.01197542
-0.23151214 0.00000000 -0.01114117
-0.23005566 0.00000000 -0.00988978
-0.22941038 0.00000000 -0.00910767
-0.22882919 0.00000000 -0.00823337
-0.22789930 0.00000000 -0.00625835
-0.22727937 0.00000000 -0.00398144
-0.22696941 0.00000000 -0.00140262
-0.22693065 0.00000000 0.00000000
-0.22696941 0.00000000 0.00139628
-0.22727937 0.00000000 0.00396588
-0.22789930 0.00000000 0.00623819
-0.22882919 0.00000000 0.00821321
-0.22941038 0.00000000 0.00908923
-0.23005566 0.00000000 0.00987567
-0.23151214 0.00000000 0.01113397
-0.23318988 0.00000000 0.01197283
-0.23508884 0.00000000 0.01239226
-0.23612130 -0.00176991 0.01244469
-0.23715821 -0.00176991 0.01239269
-0.23906523 -0.00176991 0.01197672
-0.24074988 -0.00176991 0.01114477
-0.24221213 -0.00176991 0.00989684
-0.24285986 -0.00176991 0.00911689
-0.24344105 -0.00176991 0.00824648
-0.24437094 -0.00176991 0.00627492
-0.24499087 -0.00176991 0.00399570
-0.24530083 -0.00176991 0.00140881
-0.24533957 -0.00176991 0.00000000
-0.24530113 -0.00176991 -0.00140881
-0.24499346 -0.00176991 -0.00399570
-0.24437813 -0.00176991 -0.00627492
-0.24345516 -0.00176991 -0.00824648
-0.24287830 -0.00176991 -0.00911689
-0.24223229 -0.00176991 -0.00989684
-0.24077004 -0.00176991 -0.01114477
-0.23908079 -0.00176991 -0.01197672
-0.23716454 -0.00176991 -0.01239269
-0.23612130 -0.00176991 -0.01244469
-0.23508884 -0.00176991 -0.01239255
-0.23318988 -0.00176991 -0.01197542
-0.23151214 -0.00176991 -0.01114117
-0.23005566 -0.00176991 -0.00988978
-0.22941038 -0.00176991 -0.00910767
-0.22882919 -0.00176991 -0.00823337
-0.22789930 -0.00176991 -0.00625835
-0.22727937 -0.00176991 -0.00398144
-0.22696941 -0.00176991 -0.00140262
-0.22693065 -0.00176991 0.00000000
-0.22696941 -0.00176991 0.00139628
-0.22727937 -0.00176991 0.00396588
-0.22789930 -0.00176991 0.00623819
-0.22882919 -0.00176991 0.00821321
-0.22941038 -0.00176991 0.00908923
-0.23005566 -0.00176991 0.00987567
-0.23151214 -0.00176991 0.01113397
-0.23318988 -0.00176991 0.01197283
-0.23508884 -0.00176991 0.01239226
-0.13809055 0.00000000 0.01244469
-0.13912746 0.00000000 0.01239269
-0.14103450 0.00000000 0.01197672
-0.14271913 0.00000000 0.01114477
-0.14418139 0.00000000 0.00989684
-0.14482911 0.00000000 0.00911689
-0.14541030 0.00000000 0.00824648
-0.14634019 0.00000000 0.00627492
-0.14696012 0.00000000 0.00399570
-0.14727008 0.00000000 0.00140881
-0.14730884 0.00000000 0.00000000
-0.14727038 0.00000000 -0.00140881
-0.14696272 0.00000000 -0.00399570
-0.14634740 0.00000000 -0.00627492
-0.14542441 0.00000000 -0.00824648
-0.14484756 0.00000000 -0.00911689
-0.14420155 0.00000000 -0.00989684
-0.14273930 0.00000000 -0.01114477
-0.14105006 0.00000000 -0.01197672
-0.13913380 0.00000000 -0.01239269
-0.13809055 0.00000000 -0.01244469
-0.13705809 0.00000000 -0.01239255
-0.13515913 0.00000000 -0.01197542
-0.13348140 0.00000000 -0.01114117
-0.13202491 0.00000000 -0.00988978
-0.13137963 0.00000000 -0.00910767
-0.13079844 0.00000000 -0.00823337
-0.12986855 0.00000000 -0.00625835
-0.12924862 0.00000000 -0.00398144
-0.12893866 0.00000000 -0.00140262
-0.12889992 0.00000000 0.00000000
-0.12893866 0.00000000 0.00139628
-0.12924862 0.00000000 0.00396588
-0.12986855 0.00000000 0.00623819
-0.13079844 0.00000000 0.00821321
-0.13137963 0.00000000 0.00908923
-0.13202491 0.00000000 0.00987567
-0.13348140 0.00000000 0.01113397
-0.13515913 0.00000000 0.01197283
-0.13705809 0.00000000 0.01239226
-0.13809055 -0.00176991 0.01244469
-0.13912746 -0.00176991 0.01239269
-0.14103450 -0.00176991 0.01197672
-0.14271913 -0.00176991 0.01114477
-0.14418139 -0.00176991 0.00989684
-0.14482911 -0.00176991 0.00911689
-0.14541030 -0.00176991 0.00824648
-0.14634019 -0.00176991 0.00627492
-0.14696012 -0.00176991 0.00399570
-0.14727008 -0.00176991 0.00140881
-0.14730884 -0.00176991 0.00000000
-0.14727038 -0.00176991 -0.00140881
-0.14696272 -0.00176991 -0.00399570
-0.14634740 -0.00176991 -0.00627492
-0.14542441 -0.00176991 -0.00824648
-0.14484756 -0.00176991 -0.00911689
-0.14420155 -0.00176991 -0.00989684
-0.14273930 -0.00176991 -0.01114477
-0.14105006 -0.00176991 -0.01197672
-0.13913380 -0.00176991 -0.01239269
-0.13809055 -0.00176991 -0.01244469
-0.13705809 -0.00176991 -0.01239255
-0.13515913 -0.00176991 -0.01197542
-0.13348140 -0.00176991 -0.01114117
-0.13202491 -0.00176991 -0.00988978
-0.13137963 -0.00176991 -0.00910767
-0.13079844 -0.00176991 -0.00823337
-0.12986855 -0.00176991 -0.00625835
-0.12924862 -0.00176991 -0.00398144
-0.12893866 -0.00176991 -0.00140262
-0.12889992 -0.00176991 0.00000000
-0.12893866 -0.00176991 0.00139628
-0.12924862 -0.00176991 0.00396588
-0.12986855 -0.00176991 0.00623819
-0.13079844 -0.00176991 0.00821321
-0.13137963 -0.00176991 0.00908923
-0.13202491 -0.00176991 0.00987567
-0.13348140 -0.00176991 0.01113397
-0.13515913 -0.00176991 0.01197283
-0.13705809 -0.00176991 0.01239226
-0.08560392 0.00000000 0.01244469
-0.08664083 0.00000000 0.01239269
-0.08854786 0.00000000 0.01197672
-0.09023250 0.00000000 0.01114477
-0.09169476 0.00000000 0.00989684
-0.09234248 0.00000000 0.00911689
-0.09292366 0.00000000 0.00824648
-0.09385356 0.00000000 0.00627492
-0.09447349 0.00000000 0.00399570
-0.09478346 0.00000000 0.00140881
-0.09482221 0.00000000 0.00000000
-0.09478375 0.00000000 -0.00140881
-0.09447608 0.00000000 -0.00399570
-0.09386076 0.00000000 -0.00627492
-0.09293778 0.00000000 -0.00824648
-0.09236092 0.00000000 -0.00911689
-0.09171492 0.00000000 -0.00989684
-0.09025267 0.00000000 -0.01114477
-0.08856341 0.00000000 -0.01197672
-0.08664717 0.00000000 -0.01239269
-0.08560392 0.00000000 -0.01244469
-0.08457147 0.00000000 -0.01239255
-0.08267250 0.00000000 -0.01197542
-0.08099477 0.00000000 -0.01114117
-0.07953828 0.00000000 -0.00988978
-0.07889300 0.00000000 -0.00910767
-0.07831182 0.00000000 -0.00823337
-0.07738192 0.00000000 -0.00625835
-0.07676199 0.00000000 -0.00398144
-0.07645202 0.00000000 -0.00140262
-0.07641328 0.00000000 0.00000000
-0.07645202 0.00000000 0.00139628
-0.07676199 0.00000000 0.00396588
-0.07738192 0.00000000 0.00623819
-0.07831182 0.00000000 0.00821321
-0.07889300 0.00000000 0.00908923
-0.07953828 0.00000000 0.00987567
-0.08099477 0.00000000 0.01113397
-0.08267250 0.00000000 0.01197283
-0.08457147 0.00000000 0.01239226
-0.08560392 -0.00176991 0.01244469
-0.08664083 -0.00176991 0.01239269
-0.08854786 -0.00176991 0.01197672
-0.09023250 -0.00176991 0.01114477
-0.09169476 -0.00176991 0.00989684
-0.09234248 -0.00176991 0.00911689
-0.09292366 -0.00176991 0.00824648
-0.09385356 -0.00176991 0.00627492
-0.09447349 -0.00176991 0.00399570
-0.09478346 -0.00176991 0.00140881
-0.09482221 -0.00176991 0.00000000
-0.09478375 -0.00176991 -0.00140881
-0.09447608 -0.00176991 -0.00399570
-0.09386076 -0.00176991 -0.00627492
-0.09293778 -0.00176991 -0.00824648
-0.09236092 -0.00176991 -0.00911689
-0.09171492 -0.00176991 -0.00989684
-0.09025267 -0.00176991 -0.01114477
-0.08856341 -0.00176991 -0.01197672
-0.08664717 -0.00176991 -0.01239269
-0.08560392 -0.00176991 -0.01244469
-0.08457147 -0.00176991 -0.01239255
-0.08267250 -0.00176991 -0.01197542
-0.08099477 -0.00176991 -0.01114117
-0.07953828 -0.00176991 -0.00988978
-0.07889300 -0.00176991 -0.00910767
-0.07831182 -0.00176991 -0.00823337
-0.07738192 -0.00176991 -0.00625835
-0.07676199 -0.00176991 -0.00398144
-0.07645202 -0.00176991 -0.00140262
-0.07641328 -0.00176991 0.00000000
-0.07645202 -0.00176991 0.00139628
-0.07676199 -0.00176991 0.00396588
-0.07738192 -0.00176991 0.00623819
-0.07831182 -0.00176991 0.00821321
-0.07889300 -0.00176991 0.00908923
-0.07953828 -0.00176991 0.00987567
-0.08099477 -0.00176991 0.01113397
-0.08267250 -0.00176991 0.01197283
-0.08457147 -0.00176991 0.01239226
0.12020130 0.00000000 0.00000000
0.12016371 0.00000000 0.00142178
0.11986297 0.00000000 0.00402940
0.11926147 0.00000000 0.00632245
0.11835923 0.00000000 0.00830093
0.11779533 0.00000000 0.00917220
0.11716575 0.00000000 0.00995215
0.11573807 0.00000000 0.01120008
0.11408569 0.00000000 0.01203203
0.11220861 0.00000000 0.01244800
0.11118582 0.00000000 0.01250000
0.11016086 0.00000000 0.01244800
0.10828033 0.00000000 0.01203203
0.10662565 0.00000000 0.01120008
0.10519681 0.00000000 0.00995215
0.10456709 0.00000000 0.00917220
0.10400318 0.00000000 0.00830093
0.10310095 0.00000000 0.00632245
0.10249946 0.00000000 0.00402940
0.10219871 0.00000000 0.00142178
0.10216111 0.00000000 0.00000000
0.10219871 0.00000000 -0.00142178
0.10249946 0.00000000 -0.00402940
0.10310095 0.00000000 -0.00632245
0.10400318 0.00000000 -0.00830093
0.10456709 0.00000000 -0.00917220
0.10519681 0.00000000 -0.00995215
0.10662565 0.00000000 -0.01120008
0.10828033 0.00000000 -0.01203203
0.11016086 0.00000000 -0.01244800
0.11118582 0.00000000 -0.01250000
0.11220861 0.00000000 -0.01244800
0.11408569 0.00000000 -0.01203203
0.11573807 0.00000000 -0.01120008
0.11716575 0.00000000 -0.00995215
0.11779533 0.00000000 -0.00917220
0.11835923 0.00000000 -0.00830093
0.11926147 0.00000000 -0.00632245
0.11986297 0.00000000 -0.00402940
0.12016371 0.00000000 -0.00142178
0.12020130 -0.00176991 0.00000000
0.12016371 -0.00176991 0.00142178
0.11986297 -0.00176991 0.00402940
0.11926147 -0.00176991 0.00632245
0.11835923 -0.00176991 0.00830093
0.11779533 -0.00176991 0.00917220
0.11716575 -0.00176991 0.00995215
0.11573807 -0.00176991 0.01120008
0.11408569 -0.00176991 0.01203203
0.11220861 -0.00176991 0.01244800
0.11118582 -0.00176991 0.01250000
0.11016086 -0.00176991 0.01244800
0.10828033 -0.00176991 0.01203203
0.10662565 -0.00176991 0.01120008
0.10519681 -0.00176991 0.00995215
0.10456709 -0.00176991 0.00917220
0.10400318 -0.00176991 0.00830093
0.10310095 -0.00176991 0.00632245
0.10249946 -0.00176991 0.00402940
0.10219871 -0.00176991 0.00142178
0.10216111 -0.00176991 0.00000000
0.10219871 -0.00176991 -0.00142178
0.10249946 -0.00176991 -0.00402940
0.10310095 -0.00176991 -0.00632245
0.10400318 -0.00176991 -0.00830093
0.10456709 -0.00176991 -0.00917220
0.10519681 -0.00176991 -0.00995215
0.10662565 -0.00176991 -0.01120008
0.10828033 -0.00176991 -0.01203203
0.11016086 -0.00176991 -0.01244800
0.11118582 -0.00176991 -0.01250000
0.11220861 -0.00176991 -0.01244800
0.11408569 -0.00176991 -0.01203203
0.11573807 -0.00176991 -0.01120008
0.11716575 -0.00176991 -0.00995215
0.11779533 -0.00176991 -0.00917220
0.11835923 -0.00176991 -0.00830093
0.11926147 -0.00176991 -0.00632245
0.11986297 -0.00176991 -0.00402940
0.12016371 -0.00176991 -0.00142178
0.19417576 0.00000000 0.00291298
0.19412565 0.00000000 0.00397107
0.19380762 0.00000000 0.00592304
0.19319920 0.00000000 0.00765608
0.19230042 0.00000000 0.00917018
0.19174214 0.00000000 0.00984513
0.19112350 0.00000000 0.01045440
0.18974191 0.00000000 0.01142924
0.18816790 0.00000000 0.01207913
0.18640144 0.00000000 0.01240407
0.18544605 0.00000000 0.01244469
0.18436521 0.00000000 0.01240551
0.18236944 0.00000000 0.01209209
0.18059492 0.00000000 0.01146525
0.17904164 0.00000000 0.01052498
0.17834796 0.00000000 0.00993732
0.17771724 0.00000000 0.00927850
0.17666750 0.00000000 0.00776900
0.17590009 0.00000000 0.00600370
0.17541496 0.00000000 0.00398259
0.17527828 0.00000000 0.00287611
0.19417576 -0.00176991 0.00291298
0.19412565 -0.00176991 0.00397107
0.19380762 -0.00176991 0.00592304
0.19319920 -0.00176991 0.00765608
0.19230042 -0.00176991 0.00917018
0.19174214 -0.00176991 0.00984513
0.19112350 -0.00176991 0.01045440
0.18974191 -0.00176991 0.01142924
0.18816790 -0.00176991 0.01207913
0.18640144 -0.00176991 0.01240407
0.18544605 -0.00176991 0.01244469
0.18436521 -0.00176991 0.01240551
0.18236944 -0.00176991 0.01209209
0.18059492 -0.00176991 0.01146525
0.17904164 -0.00176991 0.01052498
0.17834796 -0.00176991 0.00993732
0.17771724 -0.00176991 0.00927850
0.17666750 -0.00176991 0.00776900
0.17590009 -0.00176991 0.00600370
0.17541496 -0.00176991 0.00398259
0.17527828 -0.00176991 0.00287611
0.25340098 0.00000000 0.00291298
0.25335085 0.00000000 0.00397107
0.25303280 0.00000000 0.00592304
0.25242442 0.00000000 0.00765608
0.25152564 0.00000000 0.00917018
0.25096735 0.00000000 0.00984513
0.25034872 0.00000000 0.01045440
0.24896713 0.00000000 0.01142924
0.24739310 0.00000000 0.01207913
0.24562664 0.00000000 0.01240407
0.24467126 0.00000000 0.01244469
0.24359041 0.00000000 0.01240551
0.24159464 0.00000000 0.01209209
0.23982012 0.00000000 0.01146525
0.23826684 0.00000000 0.01052498
0.23757318 0.00000000 0.00993732
0.23694244 0.00000000 0.00927850
0.23589270 0.00000000 0.00776900
0.23512529 0.00000000 0.00600370
0.23464017 0.00000000 0.00398259
0.23450348 0.00000000 0.00287611
0.25340098 -0.00176991 0.00291298
0.25335085 -0.00176991 0.00397107
0.25303280 -0.00176991 0.00592304
0.25242442 -0.00176991 0.00765608
0.25152564 -0.00176991 0.00917018
0.25096735 -0.00176991 0.00984513
0.25034872 -0.00176991 0.01045440
0.24896713 -0.00176991 0.01142924
0.24739310 -0.00176991 0.01207913
0.24562664 -0.00176991 0.01240407
0.24467126 -0.00176991 0.01244469
0.24359041 -0.00176991 0.01240551
0.24159464 -0.00176991 0.01209209
0.23982012 -0.00176991 0.01146525
0.23826684 -0.00176991 0.01052498
0.23757318 -0.00176991 0.00993732
0.23694244 -0.00176991 0.00927850
0.23589270 -0.00176991 0.00776900
0.23512529 -0.00176991 0.00600370
0.23464017 -0.00176991 0.00398259
0.23450348 -0.00176991 0.00287611
0.37666678 0.00000000 0.00291298
0.37661666 0.00000000 0.00397107
0.37629864 0.00000000 0.00592304
0.37569022 0.00000000 0.00765608
0.37479144 0.00000000 0.00917018
0.37423316 0.00000000 0.00984513
0.37361452 0.00000000 0.01045440
0.37223294 0.00000000 0.01142924
0.37065890 0.00000000 0.01207913
0.36889246 0.00000000 0.01240407
0.36793706 0.00000000 0.01244469
0.36685622 0.00000000 0.01240551
0.36486045 0.00000000 0.01209209
0.36308593 0.00000000 0.01146525
0.36153266 0.00000000 0.01052498
0.36083898 0.00000000 0.00993732
0.36020824 0.00000000 0.00927850
0.35915852 0.00000000 0.00776900
0.35839111 0.00000000 0.00600370
0.35790598 0.00000000 0.00398259
0.35776928 0.00000000 0.00287611
0.37666678 -0.00176991 0.00291298
0.37661666 -0.00176991 0.00397107
0.37629864 -0.00176991 0.00592304
0.37569022 -0.00176991 0.00765608
0.37479144 -0.00176991 0.00917018
0.37423316 -0.00176991 0.00984513
0.37361452 -0.00176991 0.01045440
0.37223294 -0.00176991 0.01142924
0.37065890 -0.00176991 0.01207913
0.36889246 -0.00176991 0.01240407
0.36793706 -0.00176991 0.01244469
0.36685622 -0.00176991 0.01240551
0.36486045 -0.00176991 0.01209209
0.36308593 -0.00176991 0.01146525
0.36153266 -0.00176991 0.01052498
0.36083898 -0.00176991 0.00993732
0.36020824 -0.00176991 0.00927850
0.35915852 -0.00176991 0.00776900
0.35839111 -0.00176991 0.00600370
0.35790598 -0.00176991 0.00398259
0.35776928 -0.00176991 0.00287611
3 1 0 39
3 3 2 1
3 5 4 3
3 7 6 5
3 9 8 7
3 11 10 9
3 13 12 11
3 15 14 13
3 17 16 15
3 19 18 17
3 21 20 19
3 23 22 21
3 25 24 23
3 27 26 25
3 29 28 27
3 31 30 29
3 33 32 31
3 35 34 33
3 37 36 35
3 39 38 37
3 3 1 39
3 7 5 3
3 11 9 7
3 15 13 11
3 19 17 15
3 23 21 19
3 27 25 23
3 31 29 27
3 35 33 31
3 39 37 35
3 7 3 39
3 15 11 7
3 23 19 15
3 31 27 23
3 39 35 31
3 15 7 39
3 31 23 15
3 15 39 31
3 79 40 41
3 41 42 43
3 43 44 45
3 45 46 47
3 47 48 49
3 49 50 51
3 51 52 53
3 53 54 55
3 55 56 57
3 57 58 59
3 59 60 61
3 61 62 63
3 63 64 65
3 65 66 67
3 67 68 69
3 69 70 71
3 71 72 73
3 73 74 75
3 75 76 77
3 77 78 79
3 79 41 43
3 43 45 47
3 47 49 51
3 51 53 55
3 55 57 59
3 59 61 63
3 63 65 67
3 67 69 71
3 71 73 75
3 75 77 79
3 79 43 47
3 47 51 55
3 55 59 63
3 63 67 71
3 71 75 79
3 79 47 55
3 55 63 71
3 71 79 55
3 41 40 1
3 1 40 0
3 42 41 2
3 2 41 1
3 43 42 3
3 3 42 2
3 44 43 4
3 4 43 3
3 45 44 5
3 5 44 4
3 46 45 6
3 6 45 5
3 47 46 7
3 7 46 6
3 48 47 8
3 8 47 7
3 49 48 9
3 9 48 8
3 50 49 10
3 10 49 9
3 51 50 11
3 11 50 10
3 52 51 12
3 12 51 11
3 53 52 13
3 13 52 12
3 54 53 14
3 14 53 13
3 55 54 15
3 15 54 14
3 56 55 16
3 16 55 15
3 57 56 17
3 17 56 16
3 58 57 18
3 18 57 17
3 59 58 19
3 19 58 18
3 60 59 20
3 20 59 19
3 61 60 21
3 21 60 20
3 62 61 22
3 22 61 21
3 63 62 23
3 23 62 22
3 64 63 24
3 24 63 23
3 65 64 25
3 25 64 24
3 66 65 26
3 26 65 25
3 67 66 27
3 27 66 26
3 68 67 28
3 28 67 27
3 69 68 29
3 29 68 28
3 70 69 30
3 30 69 29
3 71 70 31
3 31 70 30
3 72 71 32
3 32 71 31
3 73 72 33
3 33 72 32
3 74 73 34
3 34 73 33
3 75 74 35
3 35 74 34
3 76 75 36
3 36 75 35
3 77 76 37
3 37 76 36
3 78 77 38
3 38 77 37
3 40 79 0
3 0 79 39
3 79 78 39
3 39 78 38
3 81 80 100
3 83 82 81
3 85 84 83
3 87 86 85
3 89 88 87
3 91 90 89
3 93 92 91
3 95 94 93
3 97 96 95
3 99 98 97
3 81 100 99
3 85 83 81
3 89 87 85
3 93 91 89
3 97 95 93
3 81 99 97
3 89 85 81
3 97 93 89
3 89 81 97
3 121 101 102
3 102 103 104
3 104 105 106
3 106 107 108
3 108 109 110
3 110 111 112
3 112 113 114
3 114 115 116
3 116 117 118
3 118 119 120
3 120 121 102
3 102 104 106
3 106 108 110
3 110 112 114
3 114 116 118
3 118 120 102
3 102 106 110
3 110 114 118
3 118 102 110
3 102 101 81
3 81 101 80
3 103 102 82
3 82 102 81
3 104 103 83
3 83 103 82
3 105 104 84
3 84 104 83
3 106 105 85
3 85 105 84
3 107 106 86
3 86 106 85
3 108 107 87
3 87 107 86
3 109 108 88
3 88 108 87
3 110 109 89
3 89 109 88
3 111 110 90
3 90 110 89
3 112 111 91
3 91 111 90
3 113 112 92
3 92 112 91
3 114 113 93
3 93 113 92
3 115 114 94
3 94 114 93
3 116 115 95
3 95 115 94
3 117 116 96
3 96 116 95
3 118 117 97
3 97 117 96
3 119 118 98
3 98 118 97
3 120 119 99
3 99 119 98
3 101 121 80
3 80 121 100
3 121 120 100
3 100 120 99
3 123 122 161
3 125 124 123
3 127 126 125
3 129 128 127
3 131 130 129
3 133 132 131
3 135 134 133
3 137 136 135
3 139 138 137
3 141 140 139
3 143 142 141
3 145 144 143
3 147 146 145
3 149 148 147
3 151 150 149
3 153 152 151
3 155 154 153
3 157 156 155
3 159 158 157
3 161 160 159
3 125 123 161
3 129 127 125
3 133 131 129
3 137 135 133
3 141 139 137
3 145 143 141
3 149 147 145
3 153 151 149
3 157 155 153
3 161 159 157
3 129 125 161
3 137 133 129
3 145 141 137
3 153 149 145
3 161 157 153
3 137 129 161
3 153 145 137
3 137 161 153
3 201 162 163
3 163 164 165
3 165 166 167
3 167 168 169
3 169 170 171
3 171 172 173
3 173 174 175
3 175 176 177
3 177 178 179
3 179 180 181
3 181 182 183
3 183 184 185
3 185 186 187
3 187 188 189
3 189 190 191
3 191 192 193
3 193 194 195
3 195 196 197
3 197 198 199
3 199 200 201
3 201 163 165
3 165 167 169
3 169 171 173
3 173 175 177
3 177 179 181
3 181 183 185
3 185 187 189
3 189 191 193
3 193 195 197
3 197 199 201
3 201 165 169
3 169 173 177
3 177 181 185
3 185 189 193
3 193 197 201
3 201 169 177
3 177 185 193
3 193 201 177
3 163 162 123
3 123 162 122
3 164 163 124
3 124 163 123
3 165 164 125
3 125 164 124
3 166 165 126
3 126 165 125
3 167 166 127
3 127 166 126
3 168 167 128
3 128 167 127
3 169 168 129
3 129 168 128
3 170 169 130
3 130 169 129
3 171 170 131
3 131 170 130
3 172 171 132
3 132 171 131
3 173 172 133
3 133 172 132
3 174 173 134
3 134 173 133
3 175 174 135
3 135 174 134
3 176 175 136
3 136 175 135
3 177 176 137
3 137 176 136
3 178 177 138
3 138 177 137
3 179 178 139
3 139 178 138
3 180 179 140
3 140 179 139
3 181 180 141
3 141 180 140
3 182 181 142
3 142 181 141
3 183 182 143
3 143 182 142
3 184 183 144
3 144 183 143
3 185 184 145
3 145 184 144
3 186 185 146
3 146 185 145
3 187 186 147
3 147 186 146
3 188 187 148
3 148 187 147
3 189 188 149
3 149 188 148
3 190 189 150
3 150 189 149
3 191 190 151
3 151 190 150
3 192 191 152
3 152 191 151
3 193 192 153
3 153 192 152
3 194 193 154
3 154 193 153
3 195 194 155
3 155 194 154
3 196 195 156
3 156 195 155
3 197 196 157
3 157 196 156
3 198 197 158
3 158 197 157
3 199 198 159
3 159 198 158
3 200 199 160
3 160 199 159
3 162 201 122
3 122 201 161
3 201 200 161
3 161 200 160
3 203 202 241
3 205 204 203
3 207 206 205
3 209 208 207
3 211 210 209
3 213 212 211
3 215 214 213
3 217 216 215
3 219 218 217
3 221 220 219
3 223 222 221
3 225 224 223
3 227 226 225
3 229 228 227
3 231 230 229
3 233 232 231
3 235 234 233
3 237 236 235
3 239 238 237
3 241 240 239
3 205 203 241
3 209 207 205
3 213 211 209
3 217 215 213
3 221 219 217
3 225 223 221
3 229 227 225
3 233 231 229
3 237 235 233
3 241 239 237
3 209 205 241
3 217 213 209
3 225 221 217
3 233 229 225
3 241 237 233
3 217 209 241
3 233 225 217
3 217 241 233
3 281 242 243
3 243 244 245
3 245 246 247
3 247 248 249
3 249 250 251
3 251 252 253
3 253 254 255
3 255 256 257
3 257 258 259
3 259 260 261
3 261 262 263
3 263 264 265
3 265 266 267
3 267 268 269
3 269 270 271
3 271 272 273
3 273 274 275
3 275 276 277
3 277 278 279
3 279 280 281
3 281 243 245
3 245 247 249
3 249 251 253
3 253 255 257
3 257 259 261
3 261 263 265
3 265 267 269
3 269 271 273
3 273 275 277
3 277 279 281
3 281 245 249
3 249 253 257
3 257 261 265
3 265 269 273
3 273 277 281
3 281 249 257
3 257 265 273
3 273 281 257
3 243 242 203
3 203 242 202
3 244 243 204
3 204 243 203
3 245 244 205
3 205 244 204
3 246 245 206
3 206 245 205
3 247 246 207
3 207 246 206
3 248 247 208
3 208 247 207
3 249 248 209
3 209 248 208
3 250 249 210
3 210 249 209
3 251 250 211
3 211 250 210
3 252 251 212
3 212 251 211
3 253 252 213
3 213 252 212
3 254 253 214
3 214 253 213
3 255 254 215
3 215 254 214
3 256 255 216
3 216 255 215
3 257 256 217
3 217 256 216
3 258 257 218
3 218 257 217
3 259 258 219
3 219 258 218
3 260 259 220
3 220 259 219
3 261 260 221
3 221 260 220
3 262 261 222
3 222 261 221
3 263 262 223
3 223 262 222
3 264 263 224
3 224 263 223
3 265 264 225
3 225 264 224
3 266 265 226
3 226 265 225
3 267 266 227
3 227 266 226
3 268 267 228
3 228 267 227
3 269 268 229
3 229 268 228
3 270 269 230
3 230 269 229
3 271 270 231
3 231 270 230
3 272 271 232
3 232 271 231
3 273 272 233
3 233 272 232
3 274 273 234
3 234 273 233
3 275 274 235
3 235 274 234
3 276 275 236
3 236 275 235
3 277 276 237
3 237 276 236
3 278 277 238
3 238 277 237
3 279 278 239
3 239 278 238
3 280 279 240
3 240 279 239
3 242 281 202
3 202 281 241
3 281 280 241
3 241 280 240
3 283 282 321
3 285 284 283
3 287 286 285
3 289 288 287
3 291 290 289
3 293 292 291
3 295 294 293
3 297 296 295
3 299 298 297
3 301 300 299
3 303 302 301
3 305 304 303
3 307 306 305
3 309 308 307
3 311 310 309
3 313 312 311
3 315 314 313
3 317 316 315
3 319 318 317
3 321 320 319
3 285 283 321
3 289 287 285
3 293 291 289
3 297 295 293
3 301 299 297
3 305 303 301
3 309 307 305
3 313 311 309
3 317 315 313
3 321 319 317
3 289 285 321
3 297 293 289
3 305 301 297
3 313 309 305
3 321 317 313
3 297 289 321
3 313 305 297
3 297 321 313
3 361 322 323
3 323 324 325
3 325 326 327
3 327 328 329
3 329 330 331
3 331 332 333
3 333 334 335
3 335 336 337
3 337 338 339
3 339 340 341
3 341 342 343
3 343 344 345
3 345 346 347
3 347 348 349
3 349 350 351
3 351 352 353
3 353 354 355
3 355 356 357
3 357 358 359
3 359 360 361
3 361 323 325
3 325 327 329
3 329 331 333
3 333 335 337
3 337 339 341
3 341 343 345
3 345 347 349
3 349 351 353
3 353 355 357
3 357 359 361
3 361 325 329
3 329 333 337
3 337 341 345
3 345 349 353
3 353 357 361
3 361 329 337
3 337 345 353
3 353 361 337
3 323 322 283
3 283 322 282
3 324 323 284
3 284 323 283
3 325 324 285
3 285 324 284
3 326 325 286
3 286 325 285
3 327 326 287
3 287 326 286
3 328 327 288
3 288 327 287
3 329 328 289
3 289 328 288
3 330 329 290
3 290 329 289
3 331 330 291
3 291 330 290
3 332 331 292
3 292 331 291
3 333 332 293
3 293 332 292
3 334 333 294
3 294 333 293
3 335 334 295
3 295 334 294
3 336 335 296
3 296 335 295
3 337 336 297
3 297 336 296
3 338 337 298
3 298 337 297
3 339 338 299
3 299 338 298
3 340 339 300
3 300 339 299
3 341 340 301
3 301 340 300
3 342 341 302
3 302 341 301
3 343 342 303
3 303 342 302
3 344 343 304
3 304 343 303
3 345 344 305
3 305 344 304
3 346 345 306
3 306 345 305
3 347 346 307
3 307 346 306
3 348 347 308
3 308 347 307
3 349 348 309
3 309 348 308
3 350 349 310
3 310 349 309
3 351 350 311
3 311 350 310
3 352 351 312
3 312 351 311
3 353 352 313
3 313 352 312
3 354 353 314
3 314 353 313
3 355 354 315
3 315 354 314
3 356 355 316
3 316 355 315
3 357 356 317
3 317 356 316
3 358 357 318
3 318 357 317
3 359 358 319
3 319 358 318
3 360 359 320
3 320 359 319
3 322 361 282
3 282 361 321
3 361 360 321
3 321 360 320
3 363 362 401
3 365 364 363
3 367 366 365
3 369 368 367
3 371 370 369
3 373 372 371
3 375 374 373
3 377 376 375
3 379 378 377
3 381 380 379
3 383 382 381
3 385 384 383
3 387 386 385
3 389 388 387
3 391 390 389
3 393 392 391
3 395 394 393
3 397 396 395
3 399 398 397
3 401 400 399
3 365 363 401
3 369 367 365
3 373 371 369
3 377 375 373
3 381 379 377
3 385 383 381
3 389 387 385
3 393 391 389
3 397 395 393
3 401 399 397
3 369 365 401
3 377 373 369
3 385 381 377
3 393 389 385
3 401 397 393
3 377 369 401
3 393 385 377
3 377 401 393
3 441 402 403
3 403 404 405
3 405 406 407
3 407 408 409
3 409 410 411
3 411 412 413
3 413 414 415
3 415 416 417
3 417 418 419
3 419 420 421
3 421 422 423
3 423 424 425
3 425 426 427
3 427 428 429
3 429 430 431
3 431 432 433
3 433 434 435
3 435 436 437
3 437 438 439
3 439 440 441
3 441 403 405
3 405 407 409
3 409 411 413
3 413 415 417
3 417 419 421
3 421 423 425
3 425 427 429
3 429 431 433
3 433 435 437
3 437 439 441
3 441 405 409
3 409 413 417
3 417 421 425
3 425 429 433
3 433 437 441
3 441 409 417
3 417 425 433
3 433 441 417
3 403 402 363
3 363 402 362
3 404 403 364
3 364 403 363
3 405 404 365
3 365 404 364
3 406 405 366
3 366 405 365
3 407 406 367
3 367 406 366
3 408 407 368
3 368 407 367
3 409 408 369
3 369 408 368
3 410 409 370
3 370 409 369
3 411 410 371
3 371 410 370
3 412 411 372
3 372 411 371
3 413 412 373
3 373 412 372
3 414 413 374
3 374 413 373
3 415 414 375
3 375 414 374
3 416 415 376
3 376 415 375
3 417 416 377
3 377 416 376
3 418 417 378
3 378 417 377
3 419 418 379
3 379 418 378
3 420 419 380
3 380 419 379
3 421 420 381
3 381 420 380
3 422 421 382
3 382 421 381
3 423 422 383
3 383 422 382
3 424 423 384
3 384 423 383
3 425 424 385
3 385 424 384
3 426 425 386
3 386 425 385
3 427 426 387
3 387 426 386
3 428 427 388
3 388 427 387
3 429 428 389
3 389 428 388
3 430 429 390
3 390 429 389
3 431 430 391
3 391 430 390
3 432 431 392
3 392 431 391
3 433 432 393
3 393 432 392
3 434 433 394
3 394 433 393
3 435 434 395
3 395 434 394
3 436 435 396
3 396 435 395
3 437 436 397
3 397 436 396
3 438 437 398
3 398 437 397
3 439 438 399
3 399 438 398
3 440 439 400
3 400 439 399
3 402 441 362
3 362 441 401
3 441 440 401
3 401 440 400
3 443 442 462
3 445 444 443
3 447 446 445
3 449 448 447
3 451 450 449
3 453 452 451
3 455 454 453
3 457 456 455
3 459 458 457
3 461 460 459
3 443 462 461
3 447 445 443
3 451 449 447
3 455 453 451
3 459 457 455
3 443 461 459
3 451 447 443
3 459 455 451
3 451 443 459
3 483 463 464
3 464 465 466
3 466 467 468
3 468 469 470
3 470 471 472
3 472 473 474
3 474 475 476
3 476 477 478
3 478 479 480
3 480 481 482
3 482 483 464
3 464 466 468
3 468 470 472
3 472 474 476
3 476 478 480
3 480 482 464
3 464 468 472
3 472 476 480
3 480 464 472
3 464 463 443
3 443 463 442
3 465 464 444
3 444 464 443
3 466 465 445
3 445 465 444
3 467 466 446
3 446 466 445
3 468 467 447
3 447 467 446
3 469 468 448
3 448 468 447
3 470 469 449
3 449 469 448
3 471 470 450
3 450 470 449
3 472 471 451
3 451 471 450
3 473 472 452
3 452 472 451
3 474 473 453
3 453 473 452
3 475 474 454
3 454 474 453
3 476 475 455
3 455 475 454
3 477 476 456
3 456 476 455
3 478 477 457
3 457 477 456
3 479 478 458
3 458 478 457
3 480 479 459
3 459 479 458
3 481 480 460
3 460 480 459
3 482 481 461
3 461 481 460
3 463 483 442
3 442 483 462
3 483 482 462
3 462 482 461
3 485 484 504
3 487 486 485
3 489 488 487
3 491 490 489
3 493 492 491
3 495 494 493
3 497 496 495
3 499 498 497
3 501 500 499
3 503 502 501
3 485 504 503
3 489 487 485
3 493 491 489
3 497 495 493
3 501 499 497
3 485 503 501
3 493 489 485
3 501 497 493
3 493 485 501
3 525 505 506
3 506 507 508
3 508 509 510
3 510 511 512
3 512 513 514
3 514 515 516
3 516 517 518
3 518 519 520
3 520 521 522
3 522 523 524
3 524 525 506
3 506 508 510
3 510 512 514
3 514 516 518
3 518 520 522
3 522 524 506
3 506 510 514
3 514 518 522
3 522 506 514
3 506 505 485
3 485 505 484
3 507 506 486
3 486 506 485
3 508 507 487
3 487 507 486
3 509 508 488
3 488 508 487
3 510 509 489
3 489 509 488
3 511 510 490
3 490 510 489
3 512 511 491
3 491 511 490
3 513 512 492
3 492 512 491
3 514 513 493
3 493 513 492
3 515 514 494
3 494 514 493
3 516 515 495
3 495 515 494
3 517 516 496
3 496 516 495
3 518 517 497
3 497 517 496
3 519 518 498
3 498 518 497
3 520 519 499
3 499 519 498
3 521 520 500
3 500 520 499
3 522 521 501
3 501 521 500
3 523 522 502
3 502 522 501
3 524 523 503
3 503 523 502
3 505 525 484
3 484 525 504
3 525 524 504
3 504 524 503
3 527 526 546
3 529 528 527
3 531 530 529
3 533 532 531
3 535 534 533
3 537 536 535
3 539 538 537
3 541 540 539
3 543 542 541
3 545 544 543
3 527 546 545
3 531 529 527
3 535 533 531
3 539 537 535
3 543 541 539
3 527 545 543
3 535 531 527
3 543 539 535
3 535 527 543
3 567 547 548
3 548 549 550
3 550 551 552
3 552 553 554
3 554 555 556
3 556 557 558
3 558 559 560
3 560 561 562
3 562 563 564
3 564 565 566
3 566 567 548
3 548 550 552
3 552 554 556
3 556 558 560
3 560 562 564
3 564 566 548
3 548 552 556
3 556 560 564
3 564 548 556
3 548 547 527
3 527 547 526
3 549 548 528
3 528 548 527
3 550 549 529
3 529 549 528
3 551 550 530
3 530 550 529
3 552 551 531
3 531 551 530
3 553 552 532
3 532 552 531
3 554 553 533
3 533 553 532
3 555 554 534
3 534 554 533
3 556 555 535
3 535 555 534
3 557 556 536
3 536 556 535
3 558 557 537
3 537 557 536
3 559 558 538
3 538 558 537
3 560 559 539
3 539 559 538
3 561 560 540
3 540 560 539
3 562 561 541
3 541 561 540
3 563 562 542
3 542 562 541
3 564 563 543
3 543 563 542
3 565 564 544
3 544 564 543
3 566 565 545
3 545 565 544
3 547 567 526
3 526 567 546
3 567 566 546
3 546 566 545
