ply
format ascii 1.0
comment https://github.com/mikedh/trimesh
element vertex 362
property float x
property float y
property float z
element face 704
property list uchar int vertex_indices
end_header
-0.21883297 0.00000000 0.01244469
-0.21986988 0.00000000 0.01239269
-0.22177692 0.00000000 0.01197672
-0.22346155 0.00000000 0.01114477
-0.22492380 0.00000000 0.00989684
-0.22557153 0.00000000 0.00911689
-0.22615272 0.00000000 0.00824648
-0.22708261 0.00000000 0.00627492
-0.22770254 0.00000000 0.00399570
-0.22801250 0.00000000 0.00140881
-0.22805126 0.00000000 0.00000000
-0.22801280 0.00000000 -0.00140881
-0.22770514 0.00000000 -0.00399570
-0.22708982 0.00000000 -0.00627492
-0.22616683 0.00000000 -0.00824648
-0.22558998 0.00000000 -0.00911689
-0.22494397 0.00000000 -0.00989684
-0.22348171 0.00000000 -0.01114477
-0.22179247 0.00000000 -0.01197672
-0.21987621 0.00000000 -0.01239269
-0.21883297 0.00000000 -0.01244469
-0.21780051 0.00000000 -0.01239255
-0.21590155 0.00000000 -0.01197542
-0.21422382 0.00000000 -0.01114117
-0.21276733 0.00000000 -0.00988978
-0.21212205 0.00000000 -0.00910767
-0.21154086 0.00000000 -0.00823337
-0.21061097 0.00000000 -0.00625835
-0.20999104 0.00000000 -0.00398144
-0.20968108 0.00000000 -0.00140262
-0.20964234 0.00000000 0.00000000
-0.20968108 0.00000000 0.00139628
-0.20999104 0.00000000 0.00396588
-0.21061097 0.00000000 0.00623819
-0.21154086 0.00000000 0.00821321
-0.21212205 0.00000000 0.00908923
-0.21276733 0.00000000 0.00987567
-0.21422382 0.00000000 0.01113397
-0.21590155 0.00000000 0.01197283
-0.21780051 0.00000000 0.01239226
-0.21883297 -0.00176991 0.01244469
-0.21986988 -0.00176991 0.01239269
-0.22177692 -0.00176991 0.01197672
-0.22346155 -0.00176991 0.01114477
-0.22492380 -0.00176991 0.00989684
-0.22557153 -0.00176991 0.00911689
-0.22615272 -0.00176991 0.00824648
-0.22708261 -0.00176991 0.00627492
-0.22770254 -0.00176991 0.00399570
-0.22801250 -0.00176991 0.00140881
-0.22805126 -0.00176991 0.00000000
-0.22801280 -0.00176991 -0.00140881
-0.22770514 -0.00176991 -0.00399570
-0.22708982 -0.00176991 -0.00627492
-0.22616683 -0.00176991 -0.00824648
-0.22558998 -0.00176991 -0.00911689
-0.22494397 -0.00176991 -0.00989684
-0.22348171 -0.00176991 -0.01114477
-0.22179247 -0.00176991 -0.01197672
-0.21987621 -0.00176991 -0.01239269
-0.21883297 -0.00176991 -0.01244469
-0.21780051 -0.00176991 -0.01239255
-0.21590155 -0.00176991 -0.01197542
-0.21422382 -0.00176991 -0.01114117
-0.21276733 -0.00176991 -0.00988978
-0.21212205 -0.00176991 -0.00910767
-0.21154086 -0.00176991 -0.00823337
-0.21061097 -0.00176991 -0.00625835
-0.20999104 -0.00176991 -0.00398144
-0.20968108 -0.00176991 -0.00140262
-0.20964234 -0.00176991 0.00000000
-0.20968108 -0.00176991 0.00139628
-0.20999104 -0.00176991 0.00396588
-0.21061097 -0.00176991 0.00623819
-0.21154086 -0.00176991 0.00821321
-0.21212205 -0.00176991 0.00908923
-0.21276733 -0.00176991 0.00987567
-0.21422382 -0.00176991 0.01113397
-0.21590155 -0.00176991 0.01197283
-0.21780051 -0.00176991 0.01239226
-0.14781642 0.00000000 0.00000000
-0.14785402 0.00000000 0.00142178
-0.14815475 0.00000000 0.00402940
-0.14875625 0.00000000 0.00632245
-0.14965849 0.00000000 0.00830093
-0.15022239 0.00000000 0.00917220
-0.15085196 0.00000000 0.00995215
-0.15227966 0.00000000 0.01120008
-0.15393203 0.00000000 0.01203203
-0.15580910 0.00000000 0.01244800
-0.15683191 0.00000000 0.01250000
-0.15785687 0.00000000 0.01244800
-0.15973739 0.00000000 0.01203203
-0.16139208 0.00000000 0.01120008
-0.16282091 0.00000000 0.00995215
-0.16345064 0.00000000 0.00917220
-0.16401453 0.00000000 0.00830093
-0.16491678 0.00000000 0.00632245
-0.16551827 0.00000000 0.00402940
-0.16581902 0.00000000 0.00142178
-0.16585661 0.00000000 0.00000000
-0.16581902 0.00000000 -0.00142178
-0.16551827 0.00000000 -0.00402940
-0.16491678 0.00000000 -0.00632245
-0.16401453 0.00000000 -0.00830093
-0.16345064 0.00000000 -0.00917220
-0.16282091 0.00000000 -0.00995215
-0.16139208 0.00000000 -0.01120008
-0.15973739 0.00000000 -0.01203203
-0.15785687 0.00000000 -0.01244800
-0.15683191 0.00000000 -0.01250000
-0.15580910 0.00000000 -0.01244800
-0.15393203 0.00000000 -0.01203203
-0.15227966 0.00000000 -0.01120008
-0.15085196 0.00000000 -0.00995215
-0.15022239 0.00000000 -0.00917220
-0.14965849 0.00000000 -0.00830093
-0.14875625 0.00000000 -0.00632245
-0.14815475 0.00000000 -0.00402940
-0.14785402 0.00000000 -0.00142178
-0.14781642 -0.00176991 0.00000000
-0.14785402 -0.00176991 0.00142178
-0.14815475 -0.00176991 0.00402940
-0.14875625 -0.00176991 0.00632245
-0.14965849 -0.00176991 0.00830093
-0.15022239 -0.00176991 0.00917220
-0.15085196 -0.00176991 0.00995215
-0.15227966 -0.00176991 0.01120008
-0.15393203 -0.00176991 0.01203203
-0.15580910 -0.00176991 0.01244800
-0.15683191 -0.00176991 0.01250000
-0.15785687 -0.00176991 0.01244800
-0.15973739 -0.00176991 0.01203203
-0.16139208 -0.00176991 0.01120008
-0.16282091 -0.00176991 0.00995215
-0.16345064 -0.00176991 0.00917220
-0.16401453 -0.00176991 0.00830093
-0.16491678 -0.00176991 0.00632245
-0.16551827 -0.00176991 0.00402940
-0.16581902 -0.00176991 0.00142178
-0.16585661 -0.00176991 0.00000000
-0.16581902 -0.00176991 -0.00142178
-0.16551827 -0.00176991 -0.00402940
-0.16491678 -0.00176991 -0.00632245
-0.16401453 -0.00176991 -0.00830093
-0.16345064 -0.00176991 -0.00917220
-0.16282091 -0.00176991 -0.00995215
-0.16139208 -0.00176991 -0.01120008
-0.15973739 -0.00176991 -0.01203203
-0.15785687 -0.00176991 -0.01244800
-0.15683191 -0.00176991 -0.01250000
-0.15580910 -0.00176991 -0.01244800
-0.15393203 -0.00176991 -0.01203203
-0.15227966 -0.00176991 -0.01120008
-0.15085196 -0.00176991 -0.00995215
-0.15022239 -0.00176991 -0.00917220
-0.14965849 -0.00176991 -0.00830093
-0.14875625 -0.00176991 -0.00632245
-0.14815475 -0.00176991 -0.00402940
-0.14785402 -0.00176991 -0.00142178
0.03245414 0.00000000 0.00291298
0.03240401 0.00000000 0.00397107
0.03208598 0.00000000 0.00592304
0.03147758 0.00000000 0.00765608
0.03057879 0.00000000 0.00917018
0.03002051 0.00000000 0.00984513
0.02940188 0.00000000 0.01045440
0.02802029 0.00000000 0.01142924
0.02644626 0.00000000 0.01207913
0.02467981 0.00000000 0.01240407
0.02372442 0.00000000 0.01244469
0.02264358 0.00000000 0.01240551
0.02064781 0.00000000 0.01209209
0.01887329 0.00000000 0.01146525
0.01732001 0.00000000 0.01052498
0.01662634 0.00000000 0.00993732
0.01599560 0.00000000 0.00927850
0.01494587 0.00000000 0.00776900
0.01417845 0.00000000 0.00600370
0.01369334 0.00000000 0.00398259
0.01355665 0.00000000 0.00287611
0.03245414 -0.00176991 0.00291298
0.03240401 -0.00176991 0.00397107
0.03208598 -0.00176991 0.00592304
0.03147758 -0.00176991 0.00765608
0.03057879 -0.00176991 0.00917018
0.03002051 -0.00176991 0.00984513
0.02940188 -0.00176991 0.01045440
0.02802029 -0.00176991 0.01142924
0.02644626 -0.00176991 0.01207913
0.02467981 -0.00176991 0.01240407
0.02372442 -0.00176991 0.01244469
0.02264358 -0.00176991 0.01240551
0.02064781 -0.00176991 0.01209209
0.01887329 -0.00176991 0.01146525
0.01732001 -0.00176991 0.01052498
0.01662634 -0.00176991 0.00993732
0.01599560 -0.00176991 0.00927850
0.01494587 -0.00176991 0.00776900
0.01417845 -0.00176991 0.00600370
0.01369334 -0.00176991 0.00398259
0.01355665 -0.00176991 0.00287611
0.19207688 0.00000000 0.00000000
0.19203928 0.00000000 0.00142178
0.19173855 0.00000000 0.00402940
0.19113705 0.00000000 0.00632245
0.19023481 0.00000000 0.00830093
0.18967091 0.00000000 0.00917220
0.18904133 0.00000000 0.00995215
0.18761365 0.00000000 0.01120008
0.18596126 0.00000000 0.01203203
0.18408419 0.00000000 0.01244800
0.18306139 0.00000000 0.01250000
0.18203643 0.00000000 0.01244800
0.18015590 0.00000000 0.01203203
0.17850122 0.00000000 0.01120008
0.17707239 0.00000000 0.00995215
0.17644267 0.00000000 0.00917220
0.17587876 0.00000000 0.00830093
0.17497653 0.00000000 0.00632245
0.17437503 0.00000000 0.00402940
0.17407428 0.00000000 0.00142178
0.17403668 0.00000000 0.00000000
0.17407428 0.00000000 -0.00142178
0.17437503 0.00000000 -0.00402940
0.17497653 0.00000000 -0.00632245
0.17587876 0.00000000 -0.00830093
0.17644267 0.00000000 -0.00917220
0.17707239 0.00000000 -0.00995215
0.17850122 0.00000000 -0.01120008
0.18015590 0.00000000 -0.01203203
0.18203643 0.00000000 -0.01244800
0.18306139 0.00000000 -0.01250000
0.18408419 0.00000000 -0.01244800
0.18596126 0.00000000 -0.01203203
0.18761365 0.00000000 -0.01120008
0.18904133 0.00000000 -0.00995215
0.18967091 0.00000000 -0.00917220
0.19023481 0.00000000 -0.00830093
0.19113705 0.00000000 -0.00632245
0.19173855 0.00000000 -0.00402940
0.19203928 0.00000000 -0.00142178
0.19207688 -0.00176991 0.00000000
0.19203928 -0.00176991 0.00142178
0.19173855 -0.00176991 0.00402940
0.19113705 -0.00176991 0.00632245
0.19023481 -0.00176991 0.00830093
0.18967091 -0.00176991 0.00917220
0.18904133 -0.00176991 0.00995215
0.18761365 -0.00176991 0.01120008
0.18596126 -0.00176991 0.01203203
0.18408419 -0.00176991 0.01244800
0.18306139 -0.00176991 0.01250000
0.18203643 -0.00176991 0.01244800
0.18015590 -0.00176991 0.01203203
0.17850122 -0.00176991 0.01120008
0.17707239 -0.00176991 0.00995215
0.17644267 -0.00176991 0.00917220
0.17587876 -0.00176991 0.00830093
0.17497653 -0.00176991 0.00632245
0.17437503 -0.00176991 0.00402940
0.17407428 -0.00176991 0.00142178
0.17403668 -0.00176991 0.00000000
0.17407428 -0.00176991 -0.00142178
0.17437503 -0.00176991 -0.00402940
0.17497653 -0.00176991 -0.00632245
0.17587876 -0.00176991 -0.00830093
0.17644267 -0.00176991 -0.00917220
0.17707239 -0.00176991 -0.00995215
0.17850122 -0.00176991 -0.01120008
0.18015590 -0.00176991 -0.01203203
0.18203643 -0.00176991 -0.01244800
0.18306139 -0.00176991 -0.01250000
0.18408419 -0.00176991 -0.01244800
0.18596126 -0.00176991 -0.01203203
0.18761365 -0.00176991 -0.01120008
0.18904133 -0.00176991 -0.00995215
0.18967091 -0.00176991 -0.00917220
0.19023481 -0.00176991 -0.00830093
0.19113705 -0.00176991 -0.00632245
0.19173855 -0.00176991 -0.00402940
0.19203928 -0.00176991 -0.00142178
0.21886063 0.00000000 0.01244469
0.21782370 0.00000000 0.01239269
0.21591668 0.00000000 0.01197672
0.21423203 0.00000000 0.01114477
0.21276978 0.00000000 0.00989684
0.21212205 0.00000000 0.00911689
0.21154086 0.00000000 0.00824648
0.21061097 0.00000000 0.00627492
0.20999104 0.00000000 0.00399570
0.20968108 0.00000000 0.00140881
0.20964234 0.00000000 0.00000000
0.20968078 0.00000000 -0.00140881
0.20998845 0.00000000 -0.00399570
0.21060377 0.00000000 -0.00627492
0.21152675 0.00000000 -0.00824648
0.21210362 0.00000000 -0.00911689
0.21274962 0.00000000 -0.00989684
0.21421187 0.00000000 -0.01114477
0.21590112 0.00000000 -0.01197672
0.21781737 0.00000000 -0.01239269
0.21886063 0.00000000 -0.01244469
0.21989307 0.00000000 -0.01239255
0.22179204 0.00000000 -0.01197542
0.22346976 0.00000000 -0.01114117
0.22492625 0.00000000 -0.00988978
0.22557153 0.00000000 -0.00910767
0.22615272 0.00000000 -0.00823337
0.22708261 0.00000000 -0.00625835
0.22770254 0.00000000 -0.00398144
0.22801250 0.00000000 -0.00140262
0.22805126 0.00000000 0.00000000
0.22801250 0.00000000 0.00139628
0.22770254 0.00000000 0.00396588
0.22708261 0.00000000 0.00623819
0.22615272 0.00000000 0.00821321
0.22557153 0.00000000 0.00908923
0.22492625 0.00000000 0.00987567
0.22346976 0.00000000 0.01113397
0.22179204 0.00000000 0.01197283
0.21989307 0.00000000 0.01239226
0.21886063 -0.00176991 0.01244469
0.21782370 -0.00176991 0.01239269
0.21591668 -0.00176991 0.01197672
0.21423203 -0.00176991 0.01114477
0.21276978 -0.00176991 0.00989684
0.21212205 -0.00176991 0.00911689
0.21154086 -0.00176991 0.00824648
0.21061097 -0.00176991 0.00627492
0.20999104 -0.00176991 0.00399570
0.20968108 -0.00176991 0.00140881
0.20964234 -0.00176991 0.00000000
0.20968078 -0.00176991 -0.00140881
0.20998845 -0.00176991 -0.00399570
0.21060377 -0.00176991 -0.00627492
0.21152675 -0.00176991 -0.00824648
0.21210362 -0.00176991 -0.00911689
0.21274962 -0.00176991 -0.00989684
0.21421187 -0.00176991 -0.01114477
0.21590112 -0.00176991 -0.01197672
0.21781737 -0.00176991 -0.01239269
0.21886063 -0.00176991 -0.01244469
0.21989307 -0.00176991 -0.01239255
0.22179204 -0.00176991 -0.01197542
0.22346976 -0.00176991 -0.01114117
0.22492625 -0.00176991 -0.00988978
0.22557153 -0.00176991 -0.00910767
0.22615272 -0.00176991 -0.00823337
0.22708261 -0.00176991 -0.00625835
0.22770254 -0.00176991 -0.00398144
0.22801250 -0.00176991 -0.00140262
0.22805126 -0.00176991 0.00000000
0.22801250 -0.00176991 0.00139628
0.22770254 -0.00176991 0.00396588
0.22708261 -0.00176991 0.00623819
0.22615272 -0.00176991 0.00821321
0.22557153 -0.00176991 0.00908923
0.22492625 -0.00176991 0.00987567
0.22346976 -0.00176991 0.01113397
0.22179204 -0.00176991 0.01197283
0.21989307 -0.00176991 0.01239226
3 1 0 39
3 3 2 1
3 5 4 3
3 7 6 5
3 9 8 7
3 11 10 9
3 13 12 11
3 15 14 13
3 17 16 15
3 19 18 17
3 21 20 19
3 23 22 21
3 25 24 23
3 27 26 25
3 29 28 27
3 31 30 29
3 33 32 31
3 35 34 33
3 37 36 35
3 39 38 37
3 3 1 39
3 7 5 3
3 11 9 7
3 15 13 11
3 19 17 15
3 23 21 19
3 27 25 23
3 31 29 27
3 35 33 31
3 39 37 35
3 7 3 39
3 15 11 7
3 23 19 15
3 31 27 23
3 39 35 31
3 15 7 39
3 31 23 15
3 15 39 31
3 79 40 41
3 41 42 43
3 43 44 45
3 45 46 47
3 47 48 49
3 49 50 51
3 51 52 53
3 53 54 55
3 55 56 57
3 57 58 59
3 59 60 61
3 61 62 63
3 63 64 65
3 65 66 67
3 67 68 69
3 69 70 71
3 71 72 73
3 73 74 75
3 75 76 77
3 77 78 79
3 79 41 43
3 43 45 47
3 47 49 51
3 51 53 55
3 55 57 59
3 59 61 63
3 63 65 67
3 67 69 71
3 71 73 75
3 75 77 79
3 79 43 47
3 47 51 55
3 55 59 63
3 63 67 71
3 71 75 79
3 79 47 55
3 55 63 71
3 71 79 55
3 41 40 1
3 1 40 0
3 42 41 2
3 2 41 1
3 43 42 3
3 3 42 2
3 44 43 4
3 4 43 3
3 45 44 5
3 5 44 4
3 46 45 6
3 6 45 5
3 47 46 7
3 7 46 6
3 48 47 8
3 8 47 7
3 49 48 9
3 9 48 8
3 50 49 10
3 10 49 9
3 51 50 11
3 11 50 10
3 52 51 12
3 12 51 11
3 53 52 13
3 13 52 12
3 54 53 14
3 14 53 13
3 55 54 15
3 15 54 14
3 56 55 16
3 16 55 15
3 57 56 17
3 17 56 16
3 58 57 18
3 18 57 17
3 59 58 19
3 19 58 18
3 60 59 20
3 20 59 19
3 61 60 21
3 21 60 20
3 62 61 22
3 22 61 21
3 63 62 23
3 23 62 22
3 64 63 24
3 24 63 23
3 65 64 25
3 25 64 24
3 66 65 26
3 26 65 25
3 67 66 27
3 27 66 26
3 68 67 28
3 28 67 27
3 69 68 29
3 29 68 28
3 70 69 30
3 30 69 29
3 71 70 31
3 31 70 30
3 72 71 32
3 32 71 31
3 73 72 33
3 33 72 32
3 74 73 34
3 34 73 33
3 75 74 35
3 35 74 34
3 76 75 36
3 36 75 35
3 77 76 37
3 37 76 36
3 78 77 38
3 38 77 37
3 40 79 0
3 0 79 39
3 79 78 39
3 39 78 38
3 81 80 119
3 83 82 81
3 85 84 83
3 87 86 85
3 89 88 87
3 91 90 89
3 93 92 91
3 95 94 93
3 97 96 95
3 99 98 97
3 101 100 99
3 103 102 101
3 105 104 103
3 107 106 105
3 109 108 107
3 111 110 109
3 113 112 111
3 115 114 113
3 117 116 115
3 119 118 117
3 83 81 119
3 87 85 83
3 91 89 87
3 95 93 91
3 99 97 95
3 103 101 99
3 107 105 103
3 111 109 107
3 115 113 111
3 119 117 115
3 87 83 119
3 95 91 87
3 103 99 95
3 111 107 103
3 119 115 111
3 95 87 119
3 111 103 95
3 95 119 111
3 159 120 121
3 121 122 123
3 123 124 125
3 125 126 127
3 127 128 129
3 129 130 131
3 131 132 133
3 133 134 135
3 135 136 137
3 137 138 139
3 139 140 141
3 141 142 143
3 143 144 145
3 145 146 147
3 147 148 149
3 149 150 151
3 151 152 153
3 153 154 155
3 155 156 157
3 157 158 159
3 159 121 123
3 123 125 127
3 127 129 131
3 131 133 135
3 135 137 139
3 139 141 143
3 143 145 147
3 147 149 151
3 151 153 155
3 155 157 159
3 159 123 127
3 127 131 135
3 135 139 143
3 143 147 151
3 151 155 159
3 159 127 135
3 135 143 151
3 151 159 135
3 121 120 81
3 81 120 80
3 122 121 82
3 82 121 81
3 123 122 83
3 83 122 82
3 124 123 84
3 84 123 83
3 125 124 85
3 85 124 84
3 126 125 86
3 86 125 85
3 127 126 87
3 87 126 86
3 128 127 88
3 88 127 87
3 129 128 89
3 89 128 88
3 130 129 90
3 90 129 89
3 131 130 91
3 91 130 90
3 132 131 92
3 92 131 91
3 133 132 93
3 93 132 92
3 134 133 94
3 94 133 93
3 135 134 95
3 95 134 94
3 136 135 96
3 96 135 95
3 137 136 97
3 97 136 96
3 138 137 98
3 98 137 97
3 139 138 99
3 99 138 98
3 140 139 100
3 100 139 99
3 141 140 101
3 101 140 100
3 142 141 102
3 102 141 101
3 143 142 103
3 103 142 102
3 144 143 104
3 104 143 103
3 145 144 105
3 105 144 104
3 146 145 106
3 106 145 105
3 147 146 107
3 107 146 106
3 148 147 108
3 108 147 107
3 149 148 109
3 109 148 108
3 150 149 110
3 110 149 109
3 151 150 111
3 111 150 110
3 152 151 112
3 112 151 111
3 153 152 113
3 113 152 112
3 154 153 114
3 114 153 113
3 155 154 115
3 115 154 114
3 156 155 116
3 116 155 115
3 157 156 117
3 117 156 116
3 158 157 118
3 118 157 117
3 120 159 80
3 80 159 119
3 159 158 119
3 119 158 118
3 161 160 180
3 163 162 161
3 165 164 163
3 167 166 165
3 169 168 167
3 171 170 169
3 173 172 171
3 175 174 173
3 177 176 175
3 179 178 177
3 161 180 179
3 165 163 161
3 169 167 165
3 173 171 169
3 177 175 173
3 161 179 177
3 169 165 161
3 177 173 169
3 169 161 177
3 201 181 182
3 182 183 184
3 184 185 186
3 186 187 188
3 188 189 190
3 190 191 192
3 192 193 194
3 194 195 196
3 196 197 198
3 198 199 200
3 200 201 182
3 182 184 186
3 186 188 190
3 190 192 194
3 194 196 198
3 198 200 182
3 182 186 190
3 190 194 198
3 198 182 190
3 182 181 161
3 161 181 160
3 183 182 162
3 162 182 161
3 184 183 163
3 163 183 162
3 185 184 164
3 164 184 163
3 186 185 165
3 165 185 164
3 187 186 166
3 166 186 165
3 188 187 167
3 167 187 166
3 189 188 168
3 168 188 167
3 190 189 169
3 169 189 168
3 191 190 170
3 170 190 169
3 192 191 171
3 171 191 170
3 193 192 172
3 172 192 171
3 194 193 173
3 173 193 172
3 195 194 174
3 174 194 173
3 196 195 175
3 175 195 174
3 197 196 176
3 176 196 175
3 198 197 177
3 177 197 176
3 199 198 178
3 178 198 177
3 200 199 179
3 179 199 178
3 181 201 160
3 160 201 180
3 201 200 180
3 180 200 179
3 203 202 241
3 205 204 203
3 207 206 205
3 209 208 207
3 211 210 209
3 213 212 211
3 215 214 213
3 217 216 215
3 219 218 217
3 221 220 219
3 223 222 221
3 225 224 223
3 227 226 225
3 229 228 227
3 231 230 229
3 233 232 231
3 235 234 233
3 237 236 235
3 239 238 237
3 241 240 239
3 205 203 241
3 209 207 205
3 213 211 209
3 217 215 213
3 221 219 217
3 225 223 221
3 229 227 225
3 233 231 229
3 237 235 233
3 241 239 237
3 209 205 241
3 217 213 209
3 225 221 217
3 233 229 225
3 241 237 233
3 217 209 241
3 233 225 217
3 217 241 233
3 281 242 243
3 243 244 245
3 245 246 247
3 247 248 249
3 249 250 251
3 251 252 253
3 253 254 255
3 255 256 257
3 257 258 259
3 259 260 261
3 261 262 263
3 263 264 265
3 265 266 267
3 267 268 269
3 269 270 271
3 271 272 273
3 273 274 275
3 275 276 277
3 277 278 279
3 279 280 281
3 281 243 245
3 245 247 249
3 249 251 253
3 253 255 257
3 257 259 261
3 261 263 265
3 265 267 269
3 269 271 273
3 273 275 277
3 277 279 281
3 281 245 249
3 249 253 257
3 257 261 265
3 265 269 273
3 273 277 281
3 281 249 257
3 257 265 273
3 273 281 257
3 243 242 203
3 203 242 202
3 244 243 204
3 204 243 203
3 245 244 205
3 205 244 204
3 246 245 206
3 206 245 205
3 247 246 207
3 207 246 206
3 248 247 208
3 208 247 207
3 249 248 209
3 209 248 208
3 250 249 210
3 210 249 209
3 251 250 211
3 211 250 210
3 252 251 212
3 212 251 211
3 253 252 213
3 213 252 212
3 254 253 214
3 214 253 213
3 255 254 215
3 215 254 214
3 256 255 216
3 216 255 215
3 257 256 217
3 217 256 216
3 258 257 218
3 218 257 217
3 259 258 219
3 219 258 218
3 260 259 220
3 220 259 219
3 261 260 221
3 221 260 220
3 262 261 222
3 222 261 221
3 263 262 223
3 223 262 222
3 264 263 224
3 224 263 223
3 265 264 225
3 225 264 224
3 266 265 226
3 226 265 225
3 267 266 227
3 227 266 226
3 268 267 228
3 228 267 227
3 269 268 229
3 229 268 228
3 270 269 230
3 230 269 229
3 271 270 231
3 231 270 230
3 272 271 232
3 232 271 231
3 273 272 233
3 233 272 232
3 274 273 234
3 234 273 233
3 275 274 235
3 235 274 234
3 276 275 236
3 236 275 235
3 277 276 237
3 237 276 236
3 278 277 238
3 238 277 237
3 279 278 239
3 239 278 238
3 280 279 240
3 240 279 239
3 242 281 202
3 202 281 241
3 281 280 241
3 241 280 240
3 283 282 321
3 285 284 283
3 287 286 285
3 289 288 287
3 291 290 289
3 293 292 291
3 295 294 293
3 297 296 295
3 299 298 297
3 301 300 299
3 303 302 301
3 305 304 303
3 307 306 305
3 309 308 307
3 311 310 309
3 313 312 311
3 315 314 313
3 317 316 315
3 319 318 317
3 321 320 319
3 285 283 321
3 289 287 285
3 293 291 289
3 297 295 293
3 301 299 297
3 305 303 301
3 309 307 305
3 313 311 309
3 317 315 313
3 321 319 317
3 289 285 321
3 297 293 289
3 305 301 297
3 313 309 305
3 321 317 313
3 297 289 321
3 313 305 297
3 297 321 313
3 361 322 323
3 323 324 325
3 325 326 327
3 327 328 329
3 329 330 331
3 331 332 333
3 333 334 335
3 335 336 337
3 337 338 339
3 339 340 341
3 341 342 343
3 343 344 345
3 345 346 347
3 347 348 349
3 349 350 351
3 351 352 353
3 353 354 355
3 355 356 357
3 357 358 359
3 359 360 361
3 361 323 325
3 325 327 329
3 329 331 333
3 333 335 337
3 337 339 341
3 341 343 345
3 345 347 349
3 349 351 353
3 353 355 357
3 357 359 361
3 361 325 329
3 329 333 337
3 337 341 345
3 345 349 353
3 353 357 361
3 361 329 337
3 337 345 353
3 353 361 337
3 323 322 283
3 283 322 282
3 324 323 284
3 284 323 283
3 325 324 285
3 285 324 284
3 326 325 286
3 286 325 285
3 327 326 287
3 287 326 286
3 328 327 288
3 288 327 287
3 329 328 289
3 289 328 288
3 330 329 290
3 290 329 289
3 331 330 291
3 291 330 290
3 332 331 292
3 292 331 291
3 333 332 293
3 293 332 292
3 334 333 294
3 294 333 293
3 335 334 295
3 295 334 294
3 336 335 296
3 296 335 295
3 337 336 297
3 297 336 296
3 338 337 298
3 298 337 297
3 339 338 299
3 299 338 298
3 340 339 300
3 300 339 299
3 341 340 301
3 301 340 300
3 342 341 302
3 302 341 301
3 343 342 303
3 303 342 302
3 344 343 304
3 304 343 303
3 345 344 305
3 305 344 304
3 346 345 306
3 306 345 305
3 347 346 307
3 307 346 306
3 348 347 308
3 308 347 307
3 349 348 309
3 309 348 308
3 350 349 310
3 310 349 309
3 351 350 311
3 311 350 310
3 352 351 312
3 312 351 311
3 353 352 313
3 313 352 312
3 354 353 314
3 314 353 313
3 355 354 315
3 315 354 314
3 356 355 316
3 316 355 315
3 357 356 317
3 317 356 316
3 358 357 318
3 318 357 317
3 359 358 319
3 319 358 318
3 360 359 320
3 320 359 319
3 322 361 282
3 282 361 321
3 361 360 321
3 321 360 320
