ply
format ascii 1.0
comment https://github.com/mikedh/trimesh
element vertex 554
property float x
property float y
property float z
element face 1072
property list uchar int vertex_indices
end_header
-0.30748871 0.00000000 0.01244469
-0.30852562 0.00000000 0.01239269
-0.31043264 0.00000000 0.01197672
-0.31211731 0.00000000 0.01114477
-0.31357956 0.00000000 0.00989684
-0.31422728 0.00000000 0.00911689
-0.31480846 0.00000000 0.00824648
-0.31573835 0.00000000 0.00627492
-0.31635830 0.00000000 0.00399570
-0.31666824 0.00000000 0.00140881
-0.31670699 0.00000000 0.00000000
-0.31666854 0.00000000 -0.00140881
-0.31636089 0.00000000 -0.00399570
-0.31574556 0.00000000 -0.00627492
-0.31482258 0.00000000 -0.00824648
-0.31424570 0.00000000 -0.00911689
-0.31359971 0.00000000 -0.00989684
-0.31213745 0.00000000 -0.01114477
-0.31044820 0.00000000 -0.01197672
-0.30853197 0.00000000 -0.01239269
-0.30748871 0.00000000 -0.01244469
-0.30645627 0.00000000 -0.01239255
-0.30455729 0.00000000 -0.01197542
-0.30287957 0.00000000 -0.01114117
-0.30142307 0.00000000 -0.00988978
-0.30077779 0.00000000 -0.00910767
-0.30019662 0.00000000 -0.00823337
-0.29926673 0.00000000 -0.00625835
-0.29864678 0.00000000 -0.00398144
-0.29833683 0.00000000 -0.00140262
-0.29829806 0.00000000 0.00000000
-0.29833683 0.00000000 0.00139628
-0.29864678 0.00000000 0.00396588
-0.29926673 0.00000000 0.00623819
-0.30019662 0.00000000 0.00821321
-0.30077779 0.00000000 0.00908923
-0.30142307 0.00000000 0.00987567
-0.30287957 0.00000000 0.01113397
-0.30455729 0.00000000 0.01197283
-0.30645627 0.00000000 0.01239226
-0.30748871 -0.00176991 0.01244469
-0.30852562 -0.00176991 0.01239269
-0.31043264 -0.00176991 0.01197672
-0.31211731 -0.00176991 0.01114477
-0.31357956 -0.00176991 0.00989684
-0.31422728 -0.00176991 0.00911689
-0.31480846 -0.00176991 0.00824648
-0.31573835 -0.00176991 0.00627492
-0.31635830 -0.00176991 0.00399570
-0.31666824 -0.00176991 0.00140881
-0.31670699 -0.00176991 0.00000000
-0.31666854 -0.00176991 -0.00140881
-0.31636089 -0.00176991 -0.00399570
-0.31574556 -0.00176991 -0.00627492
-0.31482258 -0.00176991 -0.00824648
-0.31424570 -0.00176991 -0.00911689
-0.31359971 -0.00176991 -0.00989684
-0.31213745 -0.00176991 -0.01114477
-0.31044820 -0.00176991 -0.01197672
-0.30853197 -0.00176991 -0.01239269
-0.30748871 -0.00176991 -0.01244469
-0.30645627 -0.00176991 -0.01239255
-0.30455729 -0.00176991 -0.01197542
-0.30287957 -0.00176991 -0.01114117
-0.30142307 -0.00176991 -0.00988978
-0.30077779 -0.00176991 -0.00910767
-0.30019662 -0.00176991 -0.00823337
-0.29926673 -0.00176991 -0.00625835
-0.29864678 -0.00176991 -0.00398144
-0.29833683 -0.00176991 -0.00140262
-0.29829806 -0.00176991 0.00000000
-0.29833683 -0.00176991 0.00139628
-0.29864678 -0.00176991 0.00396588
-0.29926673 -0.00176991 0.00623819
-0.30019662 -0.00176991 0.00821321
-0.30077779 -0.00176991 0.00908923
-0.30142307 -0.00176991 0.00987567
-0.30287957 -0.00176991 0.01113397
-0.30455729 -0.00176991 0.01197283
-0.30645627 -0.00176991 0.01239226
-0.23647216 0.00000000 0.00000000
-0.23650976 0.00000000 0.00142178
-0.23681051 0.00000000 0.00402940
-0.23741199 0.00000000 0.00632245
-0.23831424 0.00000000 0.00830093
-0.23887813 0.00000000 0.00917220
-0.23950772 0.00000000 0.00995215
-0.24093540 0.00000000 0.01120008
-0.24258777 0.00000000 0.01203203
-0.24446484 0.00000000 0.01244800
-0.24548765 0.00000000 0.01250000
-0.24651261 0.00000000 0.01244800
-0.24839313 0.00000000 0.01203203
-0.25004783 0.00000000 0.01120008
-0.25147665 0.00000000 0.00995215
-0.25210637 0.00000000 0.00917220
-0.25267029 0.00000000 0.00830093
-0.25357252 0.00000000 0.00632245
-0.25417402 0.00000000 0.00402940
-0.25447476 0.00000000 0.00142178
-0.25451234 0.00000000 0.00000000
-0.25447476 0.00000000 -0.00142178
-0.25417402 0.00000000 -0.00402940
-0.25357252 0.00000000 -0.00632245
-0.25267029 0.00000000 -0.00830093
-0.25210637 0.00000000 -0.00917220
-0.25147665 0.00000000 -0.00995215
-0.25004783 0.00000000 -0.01120008
-0.24839313 0.00000000 -0.01203203
-0.24651261 0.00000000 -0.01244800
-0.24548765 0.00000000 -0.01250000
-0.24446484 0.00000000 -0.01244800
-0.24258777 0.00000000 -0.01203203
-0.24093540 0.00000000 -0.01120008
-0.23950772 0.00000000 -0.00995215
-0.23887813 0.00000000 -0.00917220
-0.23831424 0.00000000 -0.00830093
-0.23741199 0.00000000 -0.00632245
-0.23681051 0.00000000 -0.00402940
-0.23650976 0.00000000 -0.00142178
-0.23647216 -0.00176991 0.00000000
-0.23650976 -0.00176991 0.00142178
-0.23681051 -0.00176991 0.00402940
-0.23741199 -0.00176991 0.00632245
-0.23831424 -0.00176991 0.00830093
-0.23887813 -0.00176991 0.00917220
-0.23950772 -0.00176991 0.00995215
-0.24093540 -0.00176991 0.01120008
-0.24258777 -0.00176991 0.01203203
-0.24446484 -0.00176991 0.01244800
-0.24548765 -0.00176991 0.01250000
-0.24651261 -0.00176991 0.01244800
-0.24839313 -0.00176991 0.01203203
-0.25004783 -0.00176991 0.01120008
-0.25147665 -0.00176991 0.00995215
-0.25210637 -0.00176991 0.00917220
-0.25267029 -0.00176991 0.00830093
-0.25357252 -0.00176991 0.00632245
-0.25417402 -0.00176991 0.00402940
-0.25447476 -0.00176991 0.00142178
-0.25451234 -0.00176991 0.00000000
-0.25447476 -0.00176991 -0.00142178
-0.25417402 -0.00176991 -0.00402940
-0.25357252 -0.00176991 -0.00632245
-0.25267029 -0.00176991 -0.00830093
-0.25210637 -0.00176991 -0.00917220
-0.25147665 -0.00176991 -0.00995215
-0.25004783 -0.00176991 -0.01120008
-0.24839313 -0.00176991 -0.01203203
-0.24651261 -0.00176991 -0.01244800
-0.24548765 -0.00176991 -0.01250000
-0.24446484 -0.00176991 -0.01244800
-0.24258777 -0.00176991 -0.01203203
-0.24093540 -0.00176991 -0.01120008
-0.23950772 -0.00176991 -0.00995215
-0.23887813 -0.00176991 -0.00917220
-0.23831424 -0.00176991 -0.00830093
-0.23741199 -0.00176991 -0.00632245
-0.23681051 -0.00176991 -0.00402940
-0.23650976 -0.00176991 -0.00142178
-0.13213265 0.00000000 0.00000000
-0.13217025 0.00000000 0.00142178
-0.13247100 0.00000000 0.00402940
-0.13307248 0.00000000 0.00632245
-0.13397473 0.00000000 0.00830093
-0.13453862 0.00000000 0.00917220
-0.13516821 0.00000000 0.00995215
-0.13659589 0.00000000 0.01120008
-0.13824826 0.00000000 0.01203203
-0.14012533 0.00000000 0.01244800
-0.14114814 0.00000000 0.01250000
-0.14217310 0.00000000 0.01244800
-0.14405362 0.00000000 0.01203203
-0.14570831 0.00000000 0.01120008
-0.14713715 0.00000000 0.00995215
-0.14776687 0.00000000 0.00917220
-0.14833076 0.00000000 0.00830093
-0.14923301 0.00000000 0.00632245
-0.14983450 0.00000000 0.00402940
-0.15013525 0.00000000 0.00142178
-0.15017284 0.00000000 0.00000000
-0.15013525 0.00000000 -0.00142178
-0.14983450 0.00000000 -0.00402940
-0.14923301 0.00000000 -0.00632245
-0.14833076 0.00000000 -0.00830093
-0.14776687 0.00000000 -0.00917220
-0.14713715 0.00000000 -0.00995215
-0.14570831 0.00000000 -0.01120008
-0.14405362 0.00000000 -0.01203203
-0.14217310 0.00000000 -0.01244800
-0.14114814 0.00000000 -0.01250000
-0.14012533 0.00000000 -0.01244800
-0.13824826 0.00000000 -0.01203203
-0.13659589 0.00000000 -0.01120008
-0.13516821 0.00000000 -0.00995215
-0.13453862 0.00000000 -0.00917220
-0.13397473 0.00000000 -0.00830093
-0.13307248 0.00000000 -0.00632245
-0.13247100 0.00000000 -0.00402940
-0.13217025 0.00000000 -0.00142178
-0.13213265 -0.00176991 0.00000000
-0.13217025 -0.00176991 0.00142178
-0.13247100 -0.00176991 0.00402940
-0.13307248 -0.00176991 0.00632245
-0.13397473 -0.00176991 0.00830093
-0.13453862 -0.00176991 0.00917220
-0.13516821 -0.00176991 0.00995215
-0.13659589 -0.00176991 0.01120008
-0.13824826 -0.00176991 0.01203203
-0.14012533 -0.00176991 0.01244800
-0.14114814 -0.00176991 0.01250000
-0.14217310 -0.00176991 0.01244800
-0.14405362 -0.00176991 0.01203203
-0.14570831 -0.00176991 0.01120008
-0.14713715 -0.00176991 0.00995215
-0.14776687 -0.00176991 0.00917220
-0.14833076 -0.00176991 0.00830093
-0.14923301 -0.00176991 0.00632245
-0.14983450 -0.00176991 0.00402940
-0.15013525 -0.00176991 0.00142178
-0.15017284 -0.00176991 0.00000000
-0.15013525 -0.00176991 -0.00142178
-0.14983450 -0.00176991 -0.00402940
-0.14923301 -0.00176991 -0.00632245
-0.14833076 -0.00176991 -0.00830093
-0.14776687 -0.00176991 -0.00917220
-0.14713715 -0.00176991 -0.00995215
-0.14570831 -0.00176991 -0.01120008
-0.14405362 -0.00176991 -0.01203203
-0.14217310 -0.00176991 -0.01244800
-0.14114814 -0.00176991 -0.01250000
-0.14012533 -0.00176991 -0.01244800
-0.13824826 -0.00176991 -0.01203203
-0.13659589 -0.00176991 -0.01120008
-0.13516821 -0.00176991 -0.00995215
-0.13453862 -0.00176991 -0.00917220
-0.13397473 -0.00176991 -0.00830093
-0.13307248 -0.00176991 -0.00632245
-0.13247100 -0.00176991 -0.00402940
-0.13217025 -0.00176991 -0.00142178
-0.07262168 0.00000000 0.00291298
-0.07267181 0.00000000 0.00397107
-0.07298984 0.00000000 0.00592304
-0.07359824 0.00000000 0.00765608
-0.07449703 0.00000000 0.00917018
-0.07505531 0.00000000 0.00984513
-0.07567395 0.00000000 0.01045440
-0.07705554 0.00000000 0.01142924
-0.07862956 0.00000000 0.01207913
-0.08039601 0.00000000 0.01240407
-0.08135140 0.00000000 0.01244469
-0.08243225 0.00000000 0.01240551
-0.08442800 0.00000000 0.01209209
-0.08620252 0.00000000 0.01146525
-0.08775581 0.00000000 0.01052498
-0.08844949 0.00000000 0.00993732
-0.08908021 0.00000000 0.00927850
-0.09012995 0.00000000 0.00776900
-0.09089737 0.00000000 0.00600370
-0.09138248 0.00000000 0.00398259
-0.09151918 0.00000000 0.00287611
-0.07262168 -0.00176991 0.00291298
-0.07267181 -0.00176991 0.00397107
-0.07298984 -0.00176991 0.00592304
-0.07359824 -0.00176991 0.00765608
-0.07449703 -0.00176991 0.00917018
-0.07505531 -0.00176991 0.00984513
-0.07567395 -0.00176991 0.01045440
-0.07705554 -0.00176991 0.01142924
-0.07862956 -0.00176991 0.01207913
-0.08039601 -0.00176991 0.01240407
-0.08135140 -0.00176991 0.01244469
-0.08243225 -0.00176991 0.01240551
-0.08442800 -0.00176991 0.01209209
-0.08620252 -0.00176991 0.01146525
-0.08775581 -0.00176991 0.01052498
-0.08844949 -0.00176991 0.00993732
-0.08908021 -0.00176991 0.00927850
-0.09012995 -0.00176991 0.00776900
-0.09089737 -0.00176991 0.00600370
-0.09138248 -0.00176991 0.00398259
-0.09151918 -0.00176991 0.00287611
-0.04395741 0.00000000 0.00011062
-0.04692340 0.00000000 0.00001901
-0.05044766 0.00000000 -0.00046192
-0.05218070 0.00000000 -0.00101156
-0.05286228 0.00000000 -0.00135509
-0.05344346 0.00000000 -0.00175407
-0.05437336 0.00000000 -0.00274734
-0.05499329 0.00000000 -0.00400103
-0.05530325 0.00000000 -0.00551513
-0.05534200 0.00000000 -0.00636984
-0.05522562 0.00000000 -0.00770764
-0.05429457 0.00000000 -0.00994769
-0.05347990 0.00000000 -0.01084993
-0.05246589 0.00000000 -0.01157183
-0.04994008 0.00000000 -0.01239687
-0.04842828 0.00000000 -0.01250000
-0.04735176 0.00000000 -0.01245117
-0.04536291 0.00000000 -0.01206055
-0.04359300 0.00000000 -0.01127930
-0.04204202 0.00000000 -0.01010742
-0.04134864 0.00000000 -0.00937500
-0.04072424 0.00000000 -0.00856163
-0.03972521 0.00000000 -0.00674217
-0.03905919 0.00000000 -0.00466575
-0.03872618 0.00000000 -0.00233237
-0.03868455 0.00000000 -0.00106932
-0.03868455 0.00000000 0.00011062
-0.04395741 -0.00176991 0.00011062
-0.04692340 -0.00176991 0.00001901
-0.05044766 -0.00176991 -0.00046192
-0.05218070 -0.00176991 -0.00101156
-0.05286228 -0.00176991 -0.00135509
-0.05344346 -0.00176991 -0.00175407
-0.05437336 -0.00176991 -0.00274734
-0.05499329 -0.00176991 -0.00400103
-0.05530325 -0.00176991 -0.00551513
-0.05534200 -0.00176991 -0.00636984
-0.05522562 -0.00176991 -0.00770764
-0.05429457 -0.00176991 -0.00994769
-0.05347990 -0.00176991 -0.01084993
-0.05246589 -0.00176991 -0.01157183
-0.04994008 -0.00176991 -0.01239687
-0.04842828 -0.00176991 -0.01250000
-0.04735176 -0.00176991 -0.01245117
-0.04536291 -0.00176991 -0.01206055
-0.04359300 -0.00176991 -0.01127930
-0.04204202 -0.00176991 -0.01010742
-0.04134864 -0.00176991 -0.00937500
-0.04072424 -0.00176991 -0.00856163
-0.03972521 -0.00176991 -0.00674217
-0.03905919 -0.00176991 -0.00466575
-0.03872618 -0.00176991 -0.00233237
-0.03868455 -0.00176991 -0.00106932
-0.03868455 -0.00176991 0.00011062
0.06035214 0.00000000 0.00291298
0.06030202 0.00000000 0.00397107
0.05998398 0.00000000 0.00592304
0.05937558 0.00000000 0.00765608
0.05847679 0.00000000 0.00917018
0.05791851 0.00000000 0.00984513
0.05729988 0.00000000 0.01045440
0.05591829 0.00000000 0.01142924
0.05434426 0.00000000 0.01207913
0.05257781 0.00000000 0.01240407
0.05162242 0.00000000 0.01244469
0.05054158 0.00000000 0.01240551
0.04854582 0.00000000 0.01209209
0.04677130 0.00000000 0.01146525
0.04521801 0.00000000 0.01052498
0.04452434 0.00000000 0.00993732
0.04389361 0.00000000 0.00927850
0.04284387 0.00000000 0.00776900
0.04207645 0.00000000 0.00600370
0.04159134 0.00000000 0.00398259
0.04145465 0.00000000 0.00287611
0.06035214 -0.00176991 0.00291298
0.06030202 -0.00176991 0.00397107
0.05998398 -0.00176991 0.00592304
0.05937558 -0.00176991 0.00765608
0.05847679 -0.00176991 0.00917018
0.05791851 -0.00176991 0.00984513
0.05729988 -0.00176991 0.01045440
0.05591829 -0.00176991 0.01142924
0.05434426 -0.00176991 0.01207913
0.05257781 -0.00176991 0.01240407
0.05162242 -0.00176991 0.01244469
0.05054158 -0.00176991 0.01240551
0.04854582 -0.00176991 0.01209209
0.04677130 -0.00176991 0.01146525
0.04521801 -0.00176991 0.01052498
0.04452434 -0.00176991 0.00993732
0.04389361 -0.00176991 0.00927850
0.04284387 -0.00176991 0.00776900
0.04207645 -0.00176991 0.00600370
0.04159134 -0.00176991 0.00398259
0.04145465 -0.00176991 0.00287611
0.15095179 0.00000000 0.00011062
0.14798580 0.00000000 0.00001901
0.14446154 0.00000000 -0.00046192
0.14272849 0.00000000 -0.00101156
0.14204693 0.00000000 -0.00135509
0.14146574 0.00000000 -0.00175407
0.14053585 0.00000000 -0.00274734
0.13991591 0.00000000 -0.00400103
0.13960595 0.00000000 -0.00551513
0.13956720 0.00000000 -0.00636984
0.13968359 0.00000000 -0.00770764
0.14061463 0.00000000 -0.00994769
0.14142929 0.00000000 -0.01084993
0.14244331 0.00000000 -0.01157183
0.14496912 0.00000000 -0.01239687
0.14648092 0.00000000 -0.01250000
0.14755744 0.00000000 -0.01245117
0.14954628 0.00000000 -0.01206055
0.15131620 0.00000000 -0.01127930
0.15286718 0.00000000 -0.01010742
0.15356056 0.00000000 -0.00937500
0.15418495 0.00000000 -0.00856163
0.15518399 0.00000000 -0.00674217
0.15585001 0.00000000 -0.00466575
0.15618302 0.00000000 -0.00233237
0.15622465 0.00000000 -0.00106932
0.15622465 0.00000000 0.00011062
0.15095179 -0.00176991 0.00011062
0.14798580 -0.00176991 0.00001901
0.14446154 -0.00176991 -0.00046192
0.14272849 -0.00176991 -0.00101156
0.14204693 -0.00176991 -0.00135509
0.14146574 -0.00176991 -0.00175407
0.14053585 -0.00176991 -0.00274734
0.13991591 -0.00176991 -0.00400103
0.13960595 -0.00176991 -0.00551513
0.13956720 -0.00176991 -0.00636984
0.13968359 -0.00176991 -0.00770764
0.14061463 -0.00176991 -0.00994769
0.14142929 -0.00176991 -0.01084993
0.14244331 -0.00176991 -0.01157183
0.14496912 -0.00176991 -0.01239687
0.14648092 -0.00176991 -0.01250000
0.14755744 -0.00176991 -0.01245117
0.14954628 -0.00176991 -0.01206055
0.15131620 -0.00176991 -0.01127930
0.15286718 -0.00176991 -0.01010742
0.15356056 -0.00176991 -0.00937500
0.15418495 -0.00176991 -0.00856163
0.15518399 -0.00176991 -0.00674217
0.15585001 -0.00176991 -0.00466575
0.15618302 -0.00176991 -0.00233237
0.15622465 -0.00176991 -0.00106932
0.15622465 -0.00176991 0.00011062
0.19560403 0.00000000 0.00000000
0.19556643 0.00000000 0.00142178
0.19526570 0.00000000 0.00402940
0.19466420 0.00000000 0.00632245
0.19376196 0.00000000 0.00830093
0.19319806 0.00000000 0.00917220
0.19256848 0.00000000 0.00995215
0.19114079 0.00000000 0.01120008
0.18948841 0.00000000 0.01203203
0.18761134 0.00000000 0.01244800
0.18658854 0.00000000 0.01250000
0.18556358 0.00000000 0.01244800
0.18368305 0.00000000 0.01203203
0.18202837 0.00000000 0.01120008
0.18059954 0.00000000 0.00995215
0.17996982 0.00000000 0.00917220
0.17940591 0.00000000 0.00830093
0.17850368 0.00000000 0.00632245
0.17790218 0.00000000 0.00402940
0.17760143 0.00000000 0.00142178
0.17756383 0.00000000 0.00000000
0.17760143 0.00000000 -0.00142178
0.17790218 0.00000000 -0.00402940
0.17850368 0.00000000 -0.00632245
0.17940591 0.00000000 -0.00830093
0.17996982 0.00000000 -0.00917220
0.18059954 0.00000000 -0.00995215
0.18202837 0.00000000 -0.01120008
0.18368305 0.00000000 -0.01203203
0.18556358 0.00000000 -0.01244800
0.18658854 0.00000000 -0.01250000
0.18761134 0.00000000 -0.01244800
0.18948841 0.00000000 -0.01203203
0.19114079 0.00000000 -0.01120008
0.19256848 0.00000000 -0.00995215
0.19319806 0.00000000 -0.00917220
0.19376196 0.00000000 -0.00830093
0.19466420 0.00000000 -0.00632245
0.19526570 0.00000000 -0.00402940
0.19556643 0.00000000 -0.00142178
0.19560403 -0.00176991 0.00000000
0.19556643 -0.00176991 0.00142178
0.19526570 -0.00176991 0.00402940
0.19466420 -0.00176991 0.00632245
0.19376196 -0.00176991 0.00830093
0.19319806 -0.00176991 0.00917220
0.19256848 -0.00176991 0.00995215
0.19114079 -0.00176991 0.01120008
0.18948841 -0.00176991 0.01203203
0.18761134 -0.00176991 0.01244800
0.18658854 -0.00176991 0.01250000
0.18556358 -0.00176991 0.01244800
0.18368305 -0.00176991 0.01203203
0.18202837 -0.00176991 0.01120008
0.18059954 -0.00176991 0.00995215
0.17996982 -0.00176991 0.00917220
0.17940591 -0.00176991 0.00830093
0.17850368 -0.00176991 0.00632245
0.17790218 -0.00176991 0.00402940
0.17760143 -0.00176991 0.00142178
0.17756383 -0.00176991 0.00000000
0.17760143 -0.00176991 -0.00142178
0.17790218 -0.00176991 -0.00402940
0.17850368 -0.00176991 -0.00632245
0.17940591 -0.00176991 -0.00830093
0.17996982 -0.00176991 -0.00917220
0.18059954 -0.00176991 -0.00995215
0.18202837 -0.00176991 -0.01120008
0.18368305 -0.00176991 -0.01203203
0.18556358 -0.00176991 -0.01244800
0.18658854 -0.00176991 -0.01250000
0.18761134 -0.00176991 -0.01244800
0.18948841 -0.00176991 -0.01203203
0.19114079 -0.00176991 -0.01120008
0.19256848 -0.00176991 -0.00995215
0.19319806 -0.00176991 -0.00917220
0.19376196 -0.00176991 -0.00830093
0.19466420 -0.00176991 -0.00632245
0.19526570 -0.00176991 -0.00402940
0.19556643 -0.00176991 -0.00142178
0.31670699 0.00000000 0.00291298
0.31665686 0.00000000 0.00397107
0.31633884 0.00000000 0.00592304
0.31573042 0.00000000 0.00765608
0.31483164 0.00000000 0.00917018
0.31427336 0.00000000 0.00984513
0.31365472 0.00000000 0.01045440
0.31227314 0.00000000 0.01142924
0.31069914 0.00000000 0.01207913
0.30893266 0.00000000 0.01240407
0.30797729 0.00000000 0.01244469
0.30689642 0.00000000 0.01240551
0.30490068 0.00000000 0.01209209
0.30312616 0.00000000 0.01146525
0.30157286 0.00000000 0.01052498
0.30087918 0.00000000 0.00993732
0.30024847 0.00000000 0.00927850
0.29919872 0.00000000 0.00776900
0.29843131 0.00000000 0.00600370
0.29794618 0.00000000 0.00398259
0.29780951 0.00000000 0.00287611
0.31670699 -0.00176991 0.00291298
0.31665686 -0.00176991 0.00397107
0.31633884 -0.00176991 0.00592304
0.31573042 -0.00176991 0.00765608
0.31483164 -0.00176991 0.00917018
0.31427336 -0.00176991 0.00984513
0.31365472 -0.00176991 0.01045440
0.31227314 -0.00176991 0.01142924
0.31069914 -0.00176991 0.01207913
0.30893266 -0.00176991 0.01240407
0.30797729 -0.00176991 0.01244469
0.30689642 -0.00176991 0.01240551
0.30490068 -0.00176991 0.01209209
0.30312616 -0.00176991 0.01146525
0.30157286 -0.00176991 0.01052498
0.30087918 -0.00176991 0.00993732
0.30024847 -0.00176991 0.00927850
0.29919872 -0.00176991 0.00776900
0.29843131 -0.00176991 0.00600370
0.29794618 -0.00176991 0.00398259
0.29780951 -0.00176991 0.00287611
3 1 0 39
3 3 2 1
3 5 4 3
3 7 6 5
3 9 8 7
3 11 10 9
3 13 12 11
3 15 14 13
3 17 16 15
3 19 18 17
3 21 20 19
3 23 22 21
3 25 24 23
3 27 26 25
3 29 28 27
3 31 30 29
3 33 32 31
3 35 34 33
3 37 36 35
3 39 38 37
3 3 1 39
3 7 5 3
3 11 9 7
3 15 13 11
3 19 17 15
3 23 21 19
3 27 25 23
3 31 29 27
3 35 33 31
3 39 37 35
3 7 3 39
3 15 11 7
3 23 19 15
3 31 27 23
3 39 35 31
3 15 7 39
3 31 23 15
3 15 39 31
3 79 40 41
3 41 42 43
3 43 44 45
3 45 46 47
3 47 48 49
3 49 50 51
3 51 52 53
3 53 54 55
3 55 56 57
3 57 58 59
3 59 60 61
3 61 62 63
3 63 64 65
3 65 66 67
3 67 68 69
3 69 70 71
3 71 72 73
3 73 74 75
3 75 76 77
3 77 78 79
3 79 41 43
3 43 45 47
3 47 49 51
3 51 53 55
3 55 57 59
3 59 61 63
3 63 65 67
3 67 69 71
3 71 73 75
3 75 77 79
3 79 43 47
3 47 51 55
3 55 59 63
3 63 67 71
3 71 75 79
3 79 47 55
3 55 63 71
3 71 79 55
3 41 40 1
3 1 40 0
3 42 41 2
3 2 41 1
3 43 42 3
3 3 42 2
3 44 43 4
3 4 43 3
3 45 44 5
3 5 44 4
3 46 45 6
3 6 45 5
3 47 46 7
3 7 46 6
3 48 47 8
3 8 47 7
3 49 48 9
3 9 48 8
3 50 49 10
3 10 49 9
3 51 50 11
3 11 50 10
3 52 51 12
3 12 51 11
3 53 52 13
3 13 52 12
3 54 53 14
3 14 53 13
3 55 54 15
3 15 54 14
3 56 55 16
3 16 55 15
3 57 56 17
3 17 56 16
3 58 57 18
3 18 57 17
3 59 58 19
3 19 58 18
3 60 59 20
3 20 59 19
3 61 60 21
3 21 60 20
3 62 61 22
3 22 61 21
3 63 62 23
3 23 62 22
3 64 63 24
3 24 63 23
3 65 64 25
3 25 64 24
3 66 65 26
3 26 65 25
3 67 66 27
3 27 66 26
3 68 67 28
3 28 67 27
3 69 68 29
3 29 68 28
3 70 69 30
3 30 69 29
3 71 70 31
3 31 70 30
3 72 71 32
3 32 71 31
3 73 72 33
3 33 72 32
3 74 73 34
3 34 73 33
3 75 74 35
3 35 74 34
3 76 75 36
3 36 75 35
3 77 76 37
3 37 76 36
3 78 77 38
3 38 77 37
3 40 79 0
3 0 79 39
3 79 78 39
3 39 78 38
3 81 80 119
3 83 82 81
3 85 84 83
3 87 86 85
3 89 88 87
3 91 90 89
3 93 92 91
3 95 94 93
3 97 96 95
3 99 98 97
3 101 100 99
3 103 102 101
3 105 104 103
3 107 106 105
3 109 108 107
3 111 110 109
3 113 112 111
3 115 114 113
3 117 116 115
3 119 118 117
3 83 81 119
3 87 85 83
3 91 89 87
3 95 93 91
3 99 97 95
3 103 101 99
3 107 105 103
3 111 109 107
3 115 113 111
3 119 117 115
3 87 83 119
3 95 91 87
3 103 99 95
3 111 107 103
3 119 115 111
3 95 87 119
3 111 103 95
3 95 119 111
3 159 120 121
3 121 122 123
3 123 124 125
3 125 126 127
3 127 128 129
3 129 130 131
3 131 132 133
3 133 134 135
3 135 136 137
3 137 138 139
3 139 140 141
3 141 142 143
3 143 144 145
3 145 146 147
3 147 148 149
3 149 150 151
3 151 152 153
3 153 154 155
3 155 156 157
3 157 158 159
3 159 121 123
3 123 125 127
3 127 129 131
3 131 133 135
3 135 137 139
3 139 141 143
3 143 145 147
3 147 149 151
3 151 153 155
3 155 157 159
3 159 123 127
3 127 131 135
3 135 139 143
3 143 147 151
3 151 155 159
3 159 127 135
3 135 143 151
3 151 159 135
3 121 120 81
3 81 120 80
3 122 121 82
3 82 121 81
3 123 122 83
3 83 122 82
3 124 123 84
3 84 123 83
3 125 124 85
3 85 124 84
3 126 125 86
3 86 125 85
3 127 126 87
3 87 126 86
3 128 127 88
3 88 127 87
3 129 128 89
3 89 128 88
3 130 129 90
3 90 129 89
3 131 130 91
3 91 130 90
3 132 131 92
3 92 131 91
3 133 132 93
3 93 132 92
3 134 133 94
3 94 133 93
3 135 134 95
3 95 134 94
3 136 135 96
3 96 135 95
3 137 136 97
3 97 136 96
3 138 137 98
3 98 137 97
3 139 138 99
3 99 138 98
3 140 139 100
3 100 139 99
3 141 140 101
3 101 140 100
3 142 141 102
3 102 141 101
3 143 142 103
3 103 142 102
3 144 143 104
3 104 143 103
3 145 144 105
3 105 144 104
3 146 145 106
3 106 145 105
3 147 146 107
3 107 146 106
3 148 147 108
3 108 147 107
3 149 148 109
3 109 148 108
3 150 149 110
3 110 149 109
3 151 150 111
3 111 150 110
3 152 151 112
3 112 151 111
3 153 152 113
3 113 152 112
3 154 153 114
3 114 153 113
3 155 154 115
3 115 154 114
3 156 155 116
3 116 155 115
3 157 156 117
3 117 156 116
3 158 157 118
3 118 157 117
3 120 159 80
3 80 159 119
3 159 158 119
3 119 158 118
3 161 160 199
3 163 162 161
3 165 164 163
3 167 166 165
3 169 168 167
3 171 170 169
3 173 172 171
3 175 174 173
3 177 176 175
3 179 178 177
3 181 180 179
3 183 182 181
3 185 184 183
3 187 186 185
3 189 188 187
3 191 190 189
3 193 192 191
3 195 194 193
3 197 196 195
3 199 198 197
3 163 161 199
3 167 165 163
3 171 169 167
3 175 173 171
3 179 177 175
3 183 181 179
3 187 185 183
3 191 189 187
3 195 193 191
3 199 197 195
3 167 163 199
3 175 171 167
3 183 179 175
3 191 187 183
3 199 195 191
3 175 167 199
3 191 183 175
3 175 199 191
3 239 200 201
3 201 202 203
3 203 204 205
3 205 206 207
3 207 208 209
3 209 210 211
3 211 212 213
3 213 214 215
3 215 216 217
3 217 218 219
3 219 220 221
3 221 222 223
3 223 224 225
3 225 226 227
3 227 228 229
3 229 230 231
3 231 232 233
3 233 234 235
3 235 236 237
3 237 238 239
3 239 201 203
3 203 205 207
3 207 209 211
3 211 213 215
3 215 217 219
3 219 221 223
3 223 225 227
3 227 229 231
3 231 233 235
3 235 237 239
3 239 203 207
3 207 211 215
3 215 219 223
3 223 227 231
3 231 235 239
3 239 207 215
3 215 223 231
3 231 239 215
3 201 200 161
3 161 200 160
3 202 201 162
3 162 201 161
3 203 202 163
3 163 202 162
3 204 203 164
3 164 203 163
3 205 204 165
3 165 204 164
3 206 205 166
3 166 205 165
3 207 206 167
3 167 206 166
3 208 207 168
3 168 207 167
3 209 208 169
3 169 208 168
3 210 209 170
3 170 209 169
3 211 210 171
3 171 210 170
3 212 211 172
3 172 211 171
3 213 212 173
3 173 212 172
3 214 213 174
3 174 213 173
3 215 214 175
3 175 214 174
3 216 215 176
3 176 215 175
3 217 216 177
3 177 216 176
3 218 217 178
3 178 217 177
3 219 218 179
3 179 218 178
3 220 219 180
3 180 219 179
3 221 220 181
3 181 220 180
3 222 221 182
3 182 221 181
3 223 222 183
3 183 222 182
3 224 223 184
3 184 223 183
3 225 224 185
3 185 224 184
3 226 225 186
3 186 225 185
3 227 226 187
3 187 226 186
3 228 227 188
3 188 227 187
3 229 228 189
3 189 228 188
3 230 229 190
3 190 229 189
3 231 230 191
3 191 230 190
3 232 231 192
3 192 231 191
3 233 232 193
3 193 232 192
3 234 233 194
3 194 233 193
3 235 234 195
3 195 234 194
3 236 235 196
3 196 235 195
3 237 236 197
3 197 236 196
3 238 237 198
3 198 237 197
3 200 239 160
3 160 239 199
3 239 238 199
3 199 238 198
3 241 240 260
3 243 242 241
3 245 244 243
3 247 246 245
3 249 248 247
3 251 250 249
3 253 252 251
3 255 254 253
3 257 256 255
3 259 258 257
3 241 260 259
3 245 243 241
3 249 247 245
3 253 251 249
3 257 255 253
3 241 259 257
3 249 245 241
3 257 253 249
3 249 241 257
3 281 261 262
3 262 263 264
3 264 265 266
3 266 267 268
3 268 269 270
3 270 271 272
3 272 273 274
3 274 275 276
3 276 277 278
3 278 279 280
3 280 281 262
3 262 264 266
3 266 268 270
3 270 272 274
3 274 276 278
3 278 280 262
3 262 266 270
3 270 274 278
3 278 262 270
3 262 261 241
3 241 261 240
3 263 262 242
3 242 262 241
3 264 263 243
3 243 263 242
3 265 264 244
3 244 264 243
3 266 265 245
3 245 265 244
3 267 266 246
3 246 266 245
3 268 267 247
3 247 267 246
3 269 268 248
3 248 268 247
3 270 269 249
3 249 269 248
3 271 270 250
3 250 270 249
3 272 271 251
3 251 271 250
3 273 272 252
3 252 272 251
3 274 273 253
3 253 273 252
3 275 274 254
3 254 274 253
3 276 275 255
3 255 275 254
3 277 276 256
3 256 276 255
3 278 277 257
3 257 277 256
3 279 278 258
3 258 278 257
3 280 279 259
3 259 279 258
3 261 281 240
3 240 281 260
3 281 280 260
3 260 280 259
3 283 282 308
3 285 284 283
3 287 286 285
3 289 288 287
3 291 290 289
3 293 292 291
3 295 294 293
3 297 296 295
3 299 298 297
3 301 300 299
3 303 302 301
3 305 304 303
3 307 306 305
3 283 308 307
3 287 285 283
3 291 289 287
3 295 293 291
3 299 297 295
3 303 301 299
3 307 305 303
3 287 283 307
3 295 291 287
3 303 299 295
3 287 307 303
3 303 295 287
3 335 309 310
3 310 311 312
3 312 313 314
3 314 315 316
3 316 317 318
3 318 319 320
3 320 321 322
3 322 323 324
3 324 325 326
3 326 327 328
3 328 329 330
3 330 331 332
3 332 333 334
3 334 335 310
3 310 312 314
3 314 316 318
3 318 320 322
3 322 324 326
3 326 328 330
3 330 332 334
3 334 310 314
3 314 318 322
3 322 326 330
3 330 334 314
3 314 322 330
3 310 309 283
3 283 309 282
3 311 310 284
3 284 310 283
3 312 311 285
3 285 311 284
3 313 312 286
3 286 312 285
3 314 313 287
3 287 313 286
3 315 314 288
3 288 314 287
3 316 315 289
3 289 315 288
3 317 316 290
3 290 316 289
3 318 317 291
3 291 317 290
3 319 318 292
3 292 318 291
3 320 319 293
3 293 319 292
3 321 320 294
3 294 320 293
3 322 321 295
3 295 321 294
3 323 322 296
3 296 322 295
3 324 323 297
3 297 323 296
3 325 324 298
3 298 324 297
3 326 325 299
3 299 325 298
3 327 326 300
3 300 326 299
3 328 327 301
3 301 327 300
3 329 328 302
3 302 328 301
3 330 329 303
3 303 329 302
3 331 330 304
3 304 330 303
3 332 331 305
3 305 331 304
3 333 332 306
3 306 332 305
3 334 333 307
3 307 333 306
3 309 335 282
3 282 335 308
3 335 334 308
3 308 334 307
3 337 336 356
3 339 338 337
3 341 340 339
3 343 342 341
3 345 344 343
3 347 346 345
3 349 348 347
3 351 350 349
3 353 352 351
3 355 354 353
3 337 356 355
3 341 339 337
3 345 343 341
3 349 347 345
3 353 351 349
3 337 355 353
3 345 341 337
3 353 349 345
3 345 337 353
3 377 357 358
3 358 359 360
3 360 361 362
3 362 363 364
3 364 365 366
3 366 367 368
3 368 369 370
3 370 371 372
3 372 373 374
3 374 375 376
3 376 377 358
3 358 360 362
3 362 364 366
3 366 368 370
3 370 372 374
3 374 376 358
3 358 362 366
3 366 370 374
3 374 358 366
3 358 357 337
3 337 357 336
3 359 358 338
3 338 358 337
3 360 359 339
3 339 359 338
3 361 360 340
3 340 360 339
3 362 361 341
3 341 361 340
3 363 362 342
3 342 362 341
3 364 363 343
3 343 363 342
3 365 364 344
3 344 364 343
3 366 365 345
3 345 365 344
3 367 366 346
3 346 366 345
3 368 367 347
3 347 367 346
3 369 368 348
3 348 368 347
3 370 369 349
3 349 369 348
3 371 370 350
3 350 370 349
3 372 371 351
3 351 371 350
3 373 372 352
3 352 372 351
3 374 373 353
3 353 373 352
3 375 374 354
3 354 374 353
3 376 375 355
3 355 375 354
3 357 377 336
3 336 377 356
3 377 376 356
3 356 376 355
3 379 378 404
3 381 380 379
3 383 382 381
3 385 384 383
3 387 386 385
3 389 388 387
3 391 390 389
3 393 392 391
3 395 394 393
3 397 396 395
3 399 398 397
3 401 400 399
3 403 402 401
3 379 404 403
3 383 381 379
3 387 385 383
3 391 389 387
3 395 393 391
3 399 397 395
3 403 401 399
3 383 379 403
3 391 387 383
3 399 395 391
3 383 403 399
3 399 391 383
3 431 405 406
3 406 407 408
3 408 409 410
3 410 411 412
3 412 413 414
3 414 415 416
3 416 417 418
3 418 419 420
3 420 421 422
3 422 423 424
3 424 425 426
3 426 427 428
3 428 429 430
3 430 431 406
3 406 408 410
3 410 412 414
3 414 416 418
3 418 420 422
3 422 424 426
3 426 428 430
3 430 406 410
3 410 414 418
3 418 422 426
3 426 430 410
3 410 418 426
3 406 405 379
3 379 405 378
3 407 406 380
3 380 406 379
3 408 407 381
3 381 407 380
3 409 408 382
3 382 408 381
3 410 409 383
3 383 409 382
3 411 410 384
3 384 410 383
3 412 411 385
3 385 411 384
3 413 412 386
3 386 412 385
3 414 413 387
3 387 413 386
3 415 414 388
3 388 414 387
3 416 415 389
3 389 415 388
3 417 416 390
3 390 416 389
3 418 417 391
3 391 417 390
3 419 418 392
3 392 418 391
3 420 419 393
3 393 419 392
3 421 420 394
3 394 420 393
3 422 421 395
3 395 421 394
3 423 422 396
3 396 422 395
3 424 423 397
3 397 423 396
3 425 424 398
3 398 424 397
3 426 425 399
3 399 425 398
3 427 426 400
3 400 426 399
3 428 427 401
3 401 427 400
3 429 428 402
3 402 428 401
3 430 429 403
3 403 429 402
3 405 431 378
3 378 431 404
3 431 430 404
3 404 430 403
3 433 432 471
3 435 434 433
3 437 436 435
3 439 438 437
3 441 440 439
3 443 442 441
3 445 444 443
3 447 446 445
3 449 448 447
3 451 450 449
3 453 452 451
3 455 454 453
3 457 456 455
3 459 458 457
3 461 460 459
3 463 462 461
3 465 464 463
3 467 466 465
3 469 468 467
3 471 470 469
3 435 433 471
3 439 437 435
3 443 441 439
3 447 445 443
3 451 449 447
3 455 453 451
3 459 457 455
3 463 461 459
3 467 465 463
3 471 469 467
3 439 435 471
3 447 443 439
3 455 451 447
3 463 459 455
3 471 467 463
3 447 439 471
3 463 455 447
3 447 471 463
3 511 472 473
3 473 474 475
3 475 476 477
3 477 478 479
3 479 480 481
3 481 482 483
3 483 484 485
3 485 486 487
3 487 488 489
3 489 490 491
3 491 492 493
3 493 494 495
3 495 496 497
3 497 498 499
3 499 500 501
3 501 502 503
3 503 504 505
3 505 506 507
3 507 508 509
3 509 510 511
3 511 473 475
3 475 477 479
3 479 481 483
3 483 485 487
3 487 489 491
3 491 493 495
3 495 497 499
3 499 501 503
3 503 505 507
3 507 509 511
3 511 475 479
3 479 483 487
3 487 491 495
3 495 499 503
3 503 507 511
3 511 479 487
3 487 495 503
3 503 511 487
3 473 472 433
3 433 472 432
3 474 473 434
3 434 473 433
3 475 474 435
3 435 474 434
3 476 475 436
3 436 475 435
3 477 476 437
3 437 476 436
3 478 477 438
3 438 477 437
3 479 478 439
3 439 478 438
3 480 479 440
3 440 479 439
3 481 480 441
3 441 480 440
3 482 481 442
3 442 481 441
3 483 482 443
3 443 482 442
3 484 483 444
3 444 483 443
3 485 484 445
3 445 484 444
3 486 485 446
3 446 485 445
3 487 486 447
3 447 486 446
3 488 487 448
3 448 487 447
3 489 488 449
3 449 488 448
3 490 489 450
3 450 489 449
3 491 490 451
3 451 490 450
3 492 491 452
3 452 491 451
3 493 492 453
3 453 492 452
3 494 493 454
3 454 493 453
3 495 494 455
3 455 494 454
3 496 495 456
3 456 495 455
3 497 496 457
3 457 496 456
3 498 497 458
3 458 497 457
3 499 498 459
3 459 498 458
3 500 499 460
3 460 499 459
3 501 500 461
3 461 500 460
3 502 501 462
3 462 501 461
3 503 502 463
3 463 502 462
3 504 503 464
3 464 503 463
3 505 504 465
3 465 504 464
3 506 505 466
3 466 505 465
3 507 506 467
3 467 506 466
3 508 507 468
3 468 507 467
3 509 508 469
3 469 508 468
3 510 509 470
3 470 509 469
3 472 511 432
3 432 511 471
3 511 510 471
3 471 510 470
3 513 512 532
3 515 514 513
3 517 516 515
3 519 518 517
3 521 520 519
3 523 522 521
3 525 524 523
3 527 526 525
3 529 528 527
3 531 530 529
3 513 532 531
3 517 515 513
3 521 519 517
3 525 523 521
3 529 527 525
3 513 531 529
3 521 517 513
3 529 525 521
3 521 513 529
3 553 533 534
3 534 535 536
3 536 537 538
3 538 539 540
3 540 541 542
3 542 543 544
3 544 545 546
3 546 547 548
3 548 549 550
3 550 551 552
3 552 553 534
3 534 536 538
3 538 540 542
3 542 544 546
3 546 548 550
3 550 552 534
3 534 538 542
3 542 546 550
3 550 534 542
3 534 533 513
3 513 533 512
3 535 534 514
3 514 534 513
3 536 535 515
3 515 535 514
3 537 536 516
3 516 536 515
3 538 537 517
3 517 537 516
3 539 538 518
3 518 538 517
3 540 539 519
3 519 539 518
3 541 540 520
3 520 540 519
3 542 541 521
3 521 541 520
3 543 542 522
3 522 542 521
3 544 543 523
3 523 543 522
3 545 544 524
3 524 544 523
3 546 545 525
3 525 545 524
3 547 546 526
3 526 546 525
3 548 547 527
3 527 547 526
3 549 548 528
3 528 548 527
3 550 549 529
3 529 549 528
3 551 550 530
3 530 550 529
3 552 551 531
3 531 551 530
3 533 553 512
3 512 553 532
3 553 552 532
3 532 552 531
