ply
format ascii 1.0
comment https://github.com/mikedh/trimesh
element vertex 378
property float x
property float y
property float z
element face 732
property list uchar int vertex_indices
end_header
-0.67205560 0.00000000 0.03500000
-0.67496544 0.00000000 0.03485408
-0.68031693 0.00000000 0.03368677
-0.68504441 0.00000000 0.03135215
-0.68914777 0.00000000 0.02785021
-0.69096547 0.00000000 0.02566149
-0.69259638 0.00000000 0.02321895
-0.69520587 0.00000000 0.01768633
-0.69694549 0.00000000 0.01129036
-0.69781536 0.00000000 0.00403103
-0.69792408 0.00000000 0.00007761
-0.69781613 0.00000000 -0.00387582
-0.69695276 0.00000000 -0.01113515
-0.69522607 0.00000000 -0.01753112
-0.69263595 0.00000000 -0.02306374
-0.69101721 0.00000000 -0.02550628
-0.68920439 0.00000000 -0.02769499
-0.68510097 0.00000000 -0.03119694
-0.68036062 0.00000000 -0.03353156
-0.67498320 0.00000000 -0.03469887
-0.67205560 0.00000000 -0.03484479
-0.66915834 0.00000000 -0.03469847
-0.66382945 0.00000000 -0.03352793
-0.65912139 0.00000000 -0.03118683
-0.65503418 0.00000000 -0.02767519
-0.65322340 0.00000000 -0.02548041
-0.65159249 0.00000000 -0.02302695
-0.64898300 0.00000000 -0.01748464
-0.64724332 0.00000000 -0.01109514
-0.64637351 0.00000000 -0.00385844
-0.64626479 0.00000000 0.00007761
-0.64637351 0.00000000 0.00399587
-0.64724332 0.00000000 0.01120669
-0.64898300 0.00000000 0.01758326
-0.65159249 0.00000000 0.02312558
-0.65322340 0.00000000 0.02558389
-0.65503418 0.00000000 0.02779079
-0.65912139 0.00000000 0.03132183
-0.66382945 0.00000000 0.03367586
-0.66915834 0.00000000 0.03485287
-0.67205560 -0.00496674 0.03500000
-0.67496544 -0.00496674 0.03485408
-0.68031693 -0.00496674 0.03368677
-0.68504441 -0.00496674 0.03135215
-0.68914777 -0.00496674 0.02785021
-0.69096547 -0.00496674 0.02566149
-0.69259638 -0.00496674 0.02321895
-0.69520587 -0.00496674 0.01768633
-0.69694549 -0.00496674 0.01129036
-0.69781536 -0.00496674 0.00403103
-0.69792408 -0.00496674 0.00007761
-0.69781613 -0.00496674 -0.00387582
-0.69695276 -0.00496674 -0.01113515
-0.69522607 -0.00496674 -0.01753112
-0.69263595 -0.00496674 -0.02306374
-0.69101721 -0.00496674 -0.02550628
-0.68920439 -0.00496674 -0.02769499
-0.68510097 -0.00496674 -0.03119694
-0.68036062 -0.00496674 -0.03353156
-0.67498320 -0.00496674 -0.03469887
-0.67205560 -0.00496674 -0.03484479
-0.66915834 -0.00496674 -0.03469847
-0.66382945 -0.00496674 -0.03352793
-0.65912139 -0.00496674 -0.03118683
-0.65503418 -0.00496674 -0.02767519
-0.65322340 -0.00496674 -0.02548041
-0.65159249 -0.00496674 -0.02302695
-0.64898300 -0.00496674 -0.01748464
-0.64724332 -0.00496674 -0.01109514
-0.64637351 -0.00496674 -0.00385844
-0.64626479 -0.00496674 0.00007761
-0.64637351 -0.00496674 0.00399587
-0.64724332 -0.00496674 0.01120669
-0.64898300 -0.00496674 0.01758326
-0.65159249 -0.00496674 0.02312558
-0.65322340 -0.00496674 0.02558389
-0.65503418 -0.00496674 0.02779079
-0.65912139 -0.00496674 0.03132183
-0.66382945 -0.00496674 0.03367586
-0.66915834 -0.00496674 0.03485287
-0.42920271 0.00000000 0.00825203
-0.42934334 0.00000000 0.01122124
-0.43023583 0.00000000 0.01669889
-0.43194315 0.00000000 0.02156215
-0.43446532 0.00000000 0.02581104
-0.43603197 0.00000000 0.02770510
-0.43776798 0.00000000 0.02941484
-0.44164503 0.00000000 0.03215043
-0.44606206 0.00000000 0.03397416
-0.45101908 0.00000000 0.03488602
-0.45370013 0.00000000 0.03500000
-0.45673320 0.00000000 0.03489006
-0.46233371 0.00000000 0.03401053
-0.46731338 0.00000000 0.03225148
-0.47167221 0.00000000 0.02961290
-0.47361881 0.00000000 0.02796378
-0.47538877 0.00000000 0.02611500
-0.47833455 0.00000000 0.02187904
-0.48048809 0.00000000 0.01692524
-0.48184943 0.00000000 0.01125358
-0.48223299 0.00000000 0.00814856
-0.42920271 -0.00496674 0.00825203
-0.42934334 -0.00496674 0.01122124
-0.43023583 -0.00496674 0.01669889
-0.43194315 -0.00496674 0.02156215
-0.43446532 -0.00496674 0.02581104
-0.43603197 -0.00496674 0.02770510
-0.43776798 -0.00496674 0.02941484
-0.44164503 -0.00496674 0.03215043
-0.44606206 -0.00496674 0.03397416
-0.45101908 -0.00496674 0.03488602
-0.45370013 -0.00496674 0.03500000
-0.45673320 -0.00496674 0.03489006
-0.46233371 -0.00496674 0.03401053
-0.46731338 -0.00496674 0.03225148
-0.47167221 -0.00496674 0.02961290
-0.47361881 -0.00496674 0.02796378
-0.47538877 -0.00496674 0.02611500
-0.47833455 -0.00496674 0.02187904
-0.48048809 -0.00496674 0.01692524
-0.48184943 -0.00496674 0.01125358
-0.48223299 -0.00496674 0.00814856
-0.17892230 0.00000000 0.00038803
-0.18724547 0.00000000 0.00013096
-0.19713530 0.00000000 -0.00121865
-0.20199856 0.00000000 -0.00276105
-0.20391122 0.00000000 -0.00372506
-0.20554215 0.00000000 -0.00484467
-0.20815162 0.00000000 -0.00763200
-0.20989127 0.00000000 -0.01115011
-0.21076110 0.00000000 -0.01539900
-0.21086982 0.00000000 -0.01779749
-0.21054323 0.00000000 -0.02155164
-0.20793052 0.00000000 -0.02783768
-0.20564440 0.00000000 -0.03036955
-0.20279887 0.00000000 -0.03239537
-0.19571093 0.00000000 -0.03471060
-0.19146849 0.00000000 -0.03500000
-0.18844755 0.00000000 -0.03486298
-0.18286642 0.00000000 -0.03376680
-0.17789969 0.00000000 -0.03157445
-0.17354733 0.00000000 -0.02828593
-0.17160153 0.00000000 -0.02623060
-0.16984935 0.00000000 -0.02394811
-0.16704586 0.00000000 -0.01884233
-0.16517687 0.00000000 -0.01301546
-0.16424237 0.00000000 -0.00646751
-0.16412556 0.00000000 -0.00292313
-0.16412556 0.00000000 0.00038803
-0.17892230 -0.00496674 0.00038803
-0.18724547 -0.00496674 0.00013096
-0.19713530 -0.00496674 -0.00121865
-0.20199856 -0.00496674 -0.00276105
-0.20391122 -0.00496674 -0.00372506
-0.20554215 -0.00496674 -0.00484467
-0.20815162 -0.00496674 -0.00763200
-0.20989127 -0.00496674 -0.01115011
-0.21076110 -0.00496674 -0.01539900
-0.21086982 -0.00496674 -0.01779749
-0.21054323 -0.00496674 -0.02155164
-0.20793052 -0.00496674 -0.02783768
-0.20564440 -0.00496674 -0.03036955
-0.20279887 -0.00496674 -0.03239537
-0.19571093 -0.00496674 -0.03471060
-0.19146849 -0.00496674 -0.03500000
-0.18844755 -0.00496674 -0.03486298
-0.18286642 -0.00496674 -0.03376680
-0.17789969 -0.00496674 -0.03157445
-0.17354733 -0.00496674 -0.02828593
-0.17160153 -0.00496674 -0.02623060
-0.16984935 -0.00496674 -0.02394811
-0.16704586 -0.00496674 -0.01884233
-0.16517687 -0.00496674 -0.01301546
-0.16424237 -0.00496674 -0.00646751
-0.16412556 -0.00496674 -0.00292313
-0.16412556 -0.00496674 0.00038803
0.02736234 0.00000000 0.03500000
0.02445255 0.00000000 0.03485408
0.01910101 0.00000000 0.03368677
0.01437356 0.00000000 0.03135215
0.01027018 0.00000000 0.02785021
0.00845251 0.00000000 0.02566149
0.00682159 0.00000000 0.02321895
0.00421211 0.00000000 0.01768633
0.00247246 0.00000000 0.01129036
0.00160263 0.00000000 0.00403103
0.00149390 0.00000000 0.00007761
0.00160182 0.00000000 -0.00387582
0.00246518 0.00000000 -0.01113515
0.00419190 0.00000000 -0.01753112
0.00678198 0.00000000 -0.02306374
0.00840078 0.00000000 -0.02550628
0.01021359 0.00000000 -0.02769499
0.01431697 0.00000000 -0.03119694
0.01905736 0.00000000 -0.03353156
0.02443476 0.00000000 -0.03469887
0.02736234 0.00000000 -0.03484479
0.03025961 0.00000000 -0.03469847
0.03558851 0.00000000 -0.03352793
0.04029656 0.00000000 -0.03118683
0.04438378 0.00000000 -0.02767519
0.04619457 0.00000000 -0.02548041
0.04782549 0.00000000 -0.02302695
0.05043497 0.00000000 -0.01748464
0.05217462 0.00000000 -0.01109514
0.05304445 0.00000000 -0.00385844
0.05315318 0.00000000 0.00007761
0.05304445 0.00000000 0.00399587
0.05217462 0.00000000 0.01120669
0.05043497 0.00000000 0.01758326
0.04782549 0.00000000 0.02312558
0.04619457 0.00000000 0.02558389
0.04438378 0.00000000 0.02779079
0.04029656 0.00000000 0.03132183
0.03558851 0.00000000 0.03367586
0.03025961 0.00000000 0.03485287
0.02736234 -0.00496674 0.03500000
0.02445255 -0.00496674 0.03485408
0.01910101 -0.00496674 0.03368677
0.01437356 -0.00496674 0.03135215
0.01027018 -0.00496674 0.02785021
0.00845251 -0.00496674 0.02566149
0.00682159 -0.00496674 0.02321895
0.00421211 -0.00496674 0.01768633
0.00247246 -0.00496674 0.01129036
0.00160263 -0.00496674 0.00403103
0.00149390 -0.00496674 0.00007761
0.00160182 -0.00496674 -0.00387582
0.00246518 -0.00496674 -0.01113515
0.00419190 -0.00496674 -0.01753112
0.00678198 -0.00496674 -0.02306374
0.00840078 -0.00496674 -0.02550628
0.01021359 -0.00496674 -0.02769499
0.01431697 -0.00496674 -0.03119694
0.01905736 -0.00496674 -0.03353156
0.02443476 -0.00496674 -0.03469887
0.02736234 -0.00496674 -0.03484479
0.03025961 -0.00496674 -0.03469847
0.03558851 -0.00496674 -0.03352793
0.04029656 -0.00496674 -0.03118683
0.04438378 -0.00496674 -0.02767519
0.04619457 -0.00496674 -0.02548041
0.04782549 -0.00496674 -0.02302695
0.05043497 -0.00496674 -0.01748464
0.05217462 -0.00496674 -0.01109514
0.05304445 -0.00496674 -0.00385844
0.05315318 -0.00496674 0.00007761
0.05304445 -0.00496674 0.00399587
0.05217462 -0.00496674 0.01120669
0.05043497 -0.00496674 0.01758326
0.04782549 -0.00496674 0.02312558
0.04619457 -0.00496674 0.02558389
0.04438378 -0.00496674 0.02779079
0.04029656 -0.00496674 0.03132183
0.03558851 -0.00496674 0.03367586
0.03025961 -0.00496674 0.03485287
0.44183621 0.00000000 0.00825203
0.44169554 0.00000000 0.01122124
0.44080308 0.00000000 0.01669889
0.43909577 0.00000000 0.02156215
0.43657359 0.00000000 0.02581104
0.43500692 0.00000000 0.02770510
0.43327090 0.00000000 0.02941484
0.42939389 0.00000000 0.03215043
0.42497686 0.00000000 0.03397416
0.42001981 0.00000000 0.03488602
0.41733879 0.00000000 0.03500000
0.41430572 0.00000000 0.03489006
0.40870520 0.00000000 0.03401053
0.40372550 0.00000000 0.03225148
0.39936668 0.00000000 0.02961290
0.39742008 0.00000000 0.02796378
0.39565012 0.00000000 0.02611500
0.39270434 0.00000000 0.02187904
0.39055079 0.00000000 0.01692524
0.38918948 0.00000000 0.01125358
0.38880590 0.00000000 0.00814856
0.44183621 -0.00496674 0.00825203
0.44169554 -0.00496674 0.01122124
0.44080308 -0.00496674 0.01669889
0.43909577 -0.00496674 0.02156215
0.43657359 -0.00496674 0.02581104
0.43500692 -0.00496674 0.02770510
0.43327090 -0.00496674 0.02941484
0.42939389 -0.00496674 0.03215043
0.42497686 -0.00496674 0.03397416
0.42001981 -0.00496674 0.03488602
0.41733879 -0.00496674 0.03500000
0.41430572 -0.00496674 0.03489006
0.40870520 -0.00496674 0.03401053
0.40372550 -0.00496674 0.03225148
0.39936668 -0.00496674 0.02961290
0.39742008 -0.00496674 0.02796378
0.39565012 -0.00496674 0.02611500
0.39270434 -0.00496674 0.02187904
0.39055079 -0.00496674 0.01692524
0.38918948 -0.00496674 0.01125358
0.38880590 -0.00496674 0.00814856
0.67213321 0.00000000 0.03500000
0.66922343 0.00000000 0.03485408
0.66387188 0.00000000 0.03368677
0.65914446 0.00000000 0.03135215
0.65504104 0.00000000 0.02785021
0.65322340 0.00000000 0.02566149
0.65159249 0.00000000 0.02321895
0.64898300 0.00000000 0.01768633
0.64724332 0.00000000 0.01129036
0.64637351 0.00000000 0.00403103
0.64626479 0.00000000 0.00007761
0.64637268 0.00000000 -0.00387582
0.64723605 0.00000000 -0.01113515
0.64896280 0.00000000 -0.01753112
0.65155286 0.00000000 -0.02306374
0.65317166 0.00000000 -0.02550628
0.65498447 0.00000000 -0.02769499
0.65908784 0.00000000 -0.03119694
0.66382825 0.00000000 -0.03353156
0.66920567 0.00000000 -0.03469887
0.67213321 0.00000000 -0.03484479
0.67503047 0.00000000 -0.03469847
0.68035936 0.00000000 -0.03352793
0.68506742 0.00000000 -0.03118683
0.68915468 0.00000000 -0.02767519
0.69096547 0.00000000 -0.02548041
0.69259638 0.00000000 -0.02302695
0.69520587 0.00000000 -0.01748464
0.69694549 0.00000000 -0.01109514
0.69781536 0.00000000 -0.00385844
0.69792408 0.00000000 0.00007761
0.69781536 0.00000000 0.00399587
0.69694549 0.00000000 0.01120669
0.69520587 0.00000000 0.01758326
0.69259638 0.00000000 0.02312558
0.69096547 0.00000000 0.02558389
0.68915468 0.00000000 0.02779079
0.68506742 0.00000000 0.03132183
0.68035936 0.00000000 0.03367586
0.67503047 0.00000000 0.03485287
0.67213321 -0.00496674 0.03500000
0.66922343 -0.00496674 0.03485408
0.66387188 -0.00496674 0.03368677
0.65914446 -0.00496674 0.03135215
0.65504104 -0.00496674 0.02785021
0.65322340 -0.00496674 0.02566149
0.65159249 -0.00496674 0.02321895
0.64898300 -0.00496674 0.01768633
0.64724332 -0.00496674 0.01129036
0.64637351 -0.00496674 0.00403103
0.64626479 -0.00496674 0.00007761
0.64637268 -0.00496674 -0.00387582
0.64723605 -0.00496674 -0.01113515
0.64896280 -0.00496674 -0.01753112
0.65155286 -0.00496674 -0.02306374
0.65317166 -0.00496674 -0.02550628
0.65498447 -0.00496674 -0.02769499
0.65908784 -0.00496674 -0.03119694
0.66382825 -0.00496674 -0.03353156
0.66920567 -0.00496674 -0.03469887
0.67213321 -0.00496674 -0.03484479
0.67503047 -0.00496674 -0.03469847
0.68035936 -0.00496674 -0.03352793
0.68506742 -0.00496674 -0.03118683
0.68915468 -0.00496674 -0.02767519
0.69096547 -0.00496674 -0.02548041
0.69259638 -0.00496674 -0.02302695
0.69520587 -0.00496674 -0.01748464
0.69694549 -0.00496674 -0.01109514
0.69781536 -0.00496674 -0.00385844
0.69792408 -0.00496674 0.00007761
0.69781536 -0.00496674 0.00399587
0.69694549 -0.00496674 0.01120669
0.69520587 -0.00496674 0.01758326
0.69259638 -0.00496674 0.02312558
0.69096547 -0.00496674 0.02558389
0.68915468 -0.00496674 0.02779079
0.68506742 -0.00496674 0.03132183
0.68035936 -0.00496674 0.03367586
0.67503047 -0.00496674 0.03485287
3 1 0 39
3 3 2 1
3 5 4 3
3 7 6 5
3 9 8 7
3 11 10 9
3 13 12 11
3 15 14 13
3 17 16 15
3 19 18 17
3 21 20 19
3 23 22 21
3 25 24 23
3 27 26 25
3 29 28 27
3 31 30 29
3 33 32 31
3 35 34 33
3 37 36 35
3 39 38 37
3 3 1 39
3 7 5 3
3 11 9 7
3 15 13 11
3 19 17 15
3 23 21 19
3 27 25 23
3 31 29 27
3 35 33 31
3 39 37 35
3 7 3 39
3 15 11 7
3 23 19 15
3 31 27 23
3 39 35 31
3 15 7 39
3 31 23 15
3 15 39 31
3 79 40 41
3 41 42 43
3 43 44 45
3 45 46 47
3 47 48 49
3 49 50 51
3 51 52 53
3 53 54 55
3 55 56 57
3 57 58 59
3 59 60 61
3 61 62 63
3 63 64 65
3 65 66 67
3 67 68 69
3 69 70 71
3 71 72 73
3 73 74 75
3 75 76 77
3 77 78 79
3 79 41 43
3 43 45 47
3 47 49 51
3 51 53 55
3 55 57 59
3 59 61 63
3 63 65 67
3 67 69 71
3 71 73 75
3 75 77 79
3 79 43 47
3 47 51 55
3 55 59 63
3 63 67 71
3 71 75 79
3 79 47 55
3 55 63 71
3 71 79 55
3 41 40 1
3 1 40 0
3 42 41 2
3 2 41 1
3 43 42 3
3 3 42 2
3 44 43 4
3 4 43 3
3 45 44 5
3 5 44 4
3 46 45 6
3 6 45 5
3 47 46 7
3 7 46 6
3 48 47 8
3 8 47 7
3 49 48 9
3 9 48 8
3 50 49 10
3 10 49 9
3 51 50 11
3 11 50 10
3 52 51 12
3 12 51 11
3 53 52 13
3 13 52 12
3 54 53 14
3 14 53 13
3 55 54 15
3 15 54 14
3 56 55 16
3 16 55 15
3 57 56 17
3 17 56 16
3 58 57 18
3 18 57 17
3 59 58 19
3 19 58 18
3 60 59 20
3 20 59 19
3 61 60 21
3 21 60 20
3 62 61 22
3 22 61 21
3 63 62 23
3 23 62 22
3 64 63 24
3 24 63 23
3 65 64 25
3 25 64 24
3 66 65 26
3 26 65 25
3 67 66 27
3 27 66 26
3 68 67 28
3 28 67 27
3 69 68 29
3 29 68 28
3 70 69 30
3 30 69 29
3 71 70 31
3 31 70 30
3 72 71 32
3 32 71 31
3 73 72 33
3 33 72 32
3 74 73 34
3 34 73 33
3 75 74 35
3 35 74 34
3 76 75 36
3 36 75 35
3 77 76 37
3 37 76 36
3 78 77 38
3 38 77 37
3 40 79 0
3 0 79 39
3 79 78 39
3 39 78 38
3 81 80 100
3 83 82 81
3 85 84 83
3 87 86 85
3 89 88 87
3 91 90 89
3 93 92 91
3 95 94 93
3 97 96 95
3 99 98 97
3 81 100 99
3 85 83 81
3 89 87 85
3 93 91 89
3 97 95 93
3 81 99 97
3 89 85 81
3 97 93 89
3 89 81 97
3 121 101 102
3 102 103 104
3 104 105 106
3 106 107 108
3 108 109 110
3 110 111 112
3 112 113 114
3 114 115 116
3 116 117 118
3 118 119 120
3 120 121 102
3 102 104 106
3 106 108 110
3 110 112 114
3 114 116 118
3 118 120 102
3 102 106 110
3 110 114 118
3 118 102 110
3 102 101 81
3 81 101 80
3 103 102 82
3 82 102 81
3 104 103 83
3 83 103 82
3 105 104 84
3 84 104 83
3 106 105 85
3 85 105 84
3 107 106 86
3 86 106 85
3 108 107 87
3 87 107 86
3 109 108 88
3 88 108 87
3 110 109 89
3 89 109 88
3 111 110 90
3 90 110 89
3 112 111 91
3 91 111 90
3 113 112 92
3 92 112 91
3 114 113 93
3 93 113 92
3 115 114 94
3 94 114 93
3 116 115 95
3 95 115 94
3 117 116 96
3 96 116 95
3 118 117 97
3 97 117 96
3 119 118 98
3 98 118 97
3 120 119 99
3 99 119 98
3 101 121 80
3 80 121 100
3 121 120 100
3 100 120 99
3 123 122 148
3 125 124 123
3 127 126 125
3 129 128 127
3 131 130 129
3 133 132 131
3 135 134 133
3 137 136 135
3 139 138 137
3 141 140 139
3 143 142 141
3 145 144 143
3 147 146 145
3 123 148 147
3 127 125 123
3 131 129 127
3 135 133 131
3 139 137 135
3 143 141 139
3 147 145 143
3 127 123 147
3 135 131 127
3 143 139 135
3 127 147 143
3 143 135 127
3 175 149 150
3 150 151 152
3 152 153 154
3 154 155 156
3 156 157 158
3 158 159 160
3 160 161 162
3 162 163 164
3 164 165 166
3 166 167 168
3 168 169 170
3 170 171 172
3 172 173 174
3 174 175 150
3 150 152 154
3 154 156 158
3 158 160 162
3 162 164 166
3 166 168 170
3 170 172 174
3 174 150 154
3 154 158 162
3 162 166 170
3 170 174 154
3 154 162 170
3 150 149 123
3 123 149 122
3 151 150 124
3 124 150 123
3 152 151 125
3 125 151 124
3 153 152 126
3 126 152 125
3 154 153 127
3 127 153 126
3 155 154 128
3 128 154 127
3 156 155 129
3 129 155 128
3 157 156 130
3 130 156 129
3 158 157 131
3 131 157 130
3 159 158 132
3 132 158 131
3 160 159 133
3 133 159 132
3 161 160 134
3 134 160 133
3 162 161 135
3 135 161 134
3 163 162 136
3 136 162 135
3 164 163 137
3 137 163 136
3 165 164 138
3 138 164 137
3 166 165 139
3 139 165 138
3 167 166 140
3 140 166 139
3 168 167 141
3 141 167 140
3 169 168 142
3 142 168 141
3 170 169 143
3 143 169 142
3 171 170 144
3 144 170 143
3 172 171 145
3 145 171 144
3 173 172 146
3 146 172 145
3 174 173 147
3 147 173 146
3 149 175 122
3 122 175 148
3 175 174 148
3 148 174 147
3 177 176 215
3 179 178 177
3 181 180 179
3 183 182 181
3 185 184 183
3 187 186 185
3 189 188 187
3 191 190 189
3 193 192 191
3 195 194 193
3 197 196 195
3 199 198 197
3 201 200 199
3 203 202 201
3 205 204 203
3 207 206 205
3 209 208 207
3 211 210 209
3 213 212 211
3 215 214 213
3 179 177 215
3 183 181 179
3 187 185 183
3 191 189 187
3 195 193 191
3 199 197 195
3 203 201 199
3 207 205 203
3 211 209 207
3 215 213 211
3 183 179 215
3 191 187 183
3 199 195 191
3 207 203 199
3 215 211 207
3 191 183 215
3 207 199 191
3 191 215 207
3 255 216 217
3 217 218 219
3 219 220 221
3 221 222 223
3 223 224 225
3 225 226 227
3 227 228 229
3 229 230 231
3 231 232 233
3 233 234 235
3 235 236 237
3 237 238 239
3 239 240 241
3 241 242 243
3 243 244 245
3 245 246 247
3 247 248 249
3 249 250 251
3 251 252 253
3 253 254 255
3 255 217 219
3 219 221 223
3 223 225 227
3 227 229 231
3 231 233 235
3 235 237 239
3 239 241 243
3 243 245 247
3 247 249 251
3 251 253 255
3 255 219 223
3 223 227 231
3 231 235 239
3 239 243 247
3 247 251 255
3 255 223 231
3 231 239 247
3 247 255 231
3 217 216 177
3 177 216 176
3 218 217 178
3 178 217 177
3 219 218 179
3 179 218 178
3 220 219 180
3 180 219 179
3 221 220 181
3 181 220 180
3 222 221 182
3 182 221 181
3 223 222 183
3 183 222 182
3 224 223 184
3 184 223 183
3 225 224 185
3 185 224 184
3 226 225 186
3 186 225 185
3 227 226 187
3 187 226 186
3 228 227 188
3 188 227 187
3 229 228 189
3 189 228 188
3 230 229 190
3 190 229 189
3 231 230 191
3 191 230 190
3 232 231 192
3 192 231 191
3 233 232 193
3 193 232 192
3 234 233 194
3 194 233 193
3 235 234 195
3 195 234 194
3 236 235 196
3 196 235 195
3 237 236 197
3 197 236 196
3 238 237 198
3 198 237 197
3 239 238 199
3 199 238 198
3 240 239 200
3 200 239 199
3 241 240 201
3 201 240 200
3 242 241 202
3 202 241 201
3 243 242 203
3 203 242 202
3 244 243 204
3 204 243 203
3 245 244 205
3 205 244 204
3 246 245 206
3 206 245 205
3 247 246 207
3 207 246 206
3 248 247 208
3 208 247 207
3 249 248 209
3 209 248 208
3 250 249 210
3 210 249 209
3 251 250 211
3 211 250 210
3 252 251 212
3 212 251 211
3 253 252 213
3 213 252 212
3 254 253 214
3 214 253 213
3 216 255 176
3 176 255 215
3 255 254 215
3 215 254 214
3 257 256 276
3 259 258 257
3 261 260 259
3 263 262 261
3 265 264 263
3 267 266 265
3 269 268 267
3 271 270 269
3 273 272 271
3 275 274 273
3 257 276 275
3 261 259 257
3 265 263 261
3 269 267 265
3 273 271 269
3 257 275 273
3 265 261 257
3 273 269 265
3 265 257 273
3 297 277 278
3 278 279 280
3 280 281 282
3 282 283 284
3 284 285 286
3 286 287 288
3 288 289 290
3 290 291 292
3 292 293 294
3 294 295 296
3 296 297 278
3 278 280 282
3 282 284 286
3 286 288 290
3 290 292 294
3 294 296 278
3 278 282 286
3 286 290 294
3 294 278 286
3 278 277 257
3 257 277 256
3 279 278 258
3 258 278 257
3 280 279 259
3 259 279 258
3 281 280 260
3 260 280 259
3 282 281 261
3 261 281 260
3 283 282 262
3 262 282 261
3 284 283 263
3 263 283 262
3 285 284 264
3 264 284 263
3 286 285 265
3 265 285 264
3 287 286 266
3 266 286 265
3 288 287 267
3 267 287 266
3 289 288 268
3 268 288 267
3 290 289 269
3 269 289 268
3 291 290 270
3 270 290 269
3 292 291 271
3 271 291 270
3 293 292 272
3 272 292 271
3 294 293 273
3 273 293 272
3 295 294 274
3 274 294 273
3 296 295 275
3 275 295 274
3 277 297 256
3 256 297 276
3 297 296 276
3 276 296 275
3 299 298 337
3 301 300 299
3 303 302 301
3 305 304 303
3 307 306 305
3 309 308 307
3 311 310 309
3 313 312 311
3 315 314 313
3 317 316 315
3 319 318 317
3 321 320 319
3 323 322 321
3 325 324 323
3 327 326 325
3 329 328 327
3 331 330 329
3 333 332 331
3 335 334 333
3 337 336 335
3 301 299 337
3 305 303 301
3 309 307 305
3 313 311 309
3 317 315 313
3 321 319 317
3 325 323 321
3 329 327 325
3 333 331 329
3 337 335 333
3 305 301 337
3 313 309 305
3 321 317 313
3 329 325 321
3 337 333 329
3 313 305 337
3 329 321 313
3 313 337 329
3 377 338 339
3 339 340 341
3 341 342 343
3 343 344 345
3 345 346 347
3 347 348 349
3 349 350 351
3 351 352 353
3 353 354 355
3 355 356 357
3 357 358 359
3 359 360 361
3 361 362 363
3 363 364 365
3 365 366 367
3 367 368 369
3 369 370 371
3 371 372 373
3 373 374 375
3 375 376 377
3 377 339 341
3 341 343 345
3 345 347 349
3 349 351 353
3 353 355 357
3 357 359 361
3 361 363 365
3 365 367 369
3 369 371 373
3 373 375 377
3 377 341 345
3 345 349 353
3 353 357 361
3 361 365 369
3 369 373 377
3 377 345 353
3 353 361 369
3 369 377 353
3 339 338 299
3 299 338 298
3 340 339 300
3 300 339 299
3 341 340 301
3 301 340 300
3 342 341 302
3 302 341 301
3 343 342 303
3 303 342 302
3 344 343 304
3 304 343 303
3 345 344 305
3 305 344 304
3 346 345 306
3 306 345 305
3 347 346 307
3 307 346 306
3 348 347 308
3 308 347 307
3 349 348 309
3 309 348 308
3 350 349 310
3 310 349 309
3 351 350 311
3 311 350 310
3 352 351 312
3 312 351 311
3 353 352 313
3 313 352 312
3 354 353 314
3 314 353 313
3 355 354 315
3 315 354 314
3 356 355 316
3 316 355 315
3 357 356 317
3 317 356 316
3 358 357 318
3 318 357 317
3 359 358 319
3 319 358 318
3 360 359 320
3 320 359 319
3 361 360 321
3 321 360 320
3 362 361 322
3 322 361 321
3 363 362 323
3 323 362 322
3 364 363 324
3 324 363 323
3 365 364 325
3 325 364 324
3 366 365 326
3 326 365 325
3 367 366 327
3 327 366 326
3 368 367 328
3 328 367 327
3 369 368 329
3 329 368 328
3 370 369 330
3 330 369 329
3 371 370 331
3 331 370 330
3 372 371 332
3 332 371 331
3 373 372 333
3 333 372 332
3 374 373 334
3 334 373 333
3 375 374 335
3 335 374 334
3 376 375 336
3 336 375 335
3 338 377 298
3 298 377 337
3 377 376 337
3 337 376 336
