ply
format ascii 1.0
comment https://github.com/mikedh/trimesh
element vertex 366
property float x
property float y
property float z
element face 708
property list uchar int vertex_indices
end_header
-0.19037092 0.00000000 0.00000000
-0.19033332 0.00000000 -0.00142178
-0.19003259 0.00000000 -0.00402940
-0.18943109 0.00000000 -0.00632245
-0.18852885 0.00000000 -0.00830093
-0.18796495 0.00000000 -0.00917220
-0.18733537 0.00000000 -0.00995215
-0.18590769 0.00000000 -0.01120008
-0.18425530 0.00000000 -0.01203203
-0.18237823 0.00000000 -0.01244800
-0.18135543 0.00000000 -0.01250000
-0.18033250 0.00000000 -0.01244800
-0.17845426 0.00000000 -0.01203203
-0.17679958 0.00000000 -0.01120008
-0.17536844 0.00000000 -0.00995215
-0.17473671 0.00000000 -0.00917220
-0.17416848 0.00000000 -0.00830093
-0.17325933 0.00000000 -0.00632245
-0.17265323 0.00000000 -0.00402940
-0.17235017 0.00000000 -0.00142178
-0.17231229 0.00000000 0.00000000
-0.17235017 0.00000000 0.00142178
-0.17265323 0.00000000 0.00402940
-0.17325933 0.00000000 0.00632245
-0.17416848 0.00000000 0.00830093
-0.17473671 0.00000000 0.00917220
-0.17536844 0.00000000 0.00995215
-0.17679958 0.00000000 0.01120008
-0.17845426 0.00000000 0.01203203
-0.18033250 0.00000000 0.01244800
-0.18135543 0.00000000 0.01250000
-0.18237823 0.00000000 0.01244800
-0.18425530 0.00000000 0.01203203
-0.18590769 0.00000000 0.01120008
-0.18733537 0.00000000 0.00995215
-0.18796495 0.00000000 0.00917220
-0.18852885 0.00000000 0.00830093
-0.18943109 0.00000000 0.00632245
-0.19003259 0.00000000 0.00402940
-0.19033332 0.00000000 0.00142178
-0.19037092 -0.00176991 0.00000000
-0.19033332 -0.00176991 -0.00142178
-0.19003259 -0.00176991 -0.00402940
-0.18943109 -0.00176991 -0.00632245
-0.18852885 -0.00176991 -0.00830093
-0.18796495 -0.00176991 -0.00917220
-0.18733537 -0.00176991 -0.00995215
-0.18590769 -0.00176991 -0.01120008
-0.18425530 -0.00176991 -0.01203203
-0.18237823 -0.00176991 -0.01244800
-0.18135543 -0.00176991 -0.01250000
-0.18033250 -0.00176991 -0.01244800
-0.17845426 -0.00176991 -0.01203203
-0.17679958 -0.00176991 -0.01120008
-0.17536844 -0.00176991 -0.00995215
-0.17473671 -0.00176991 -0.00917220
-0.17416848 -0.00176991 -0.00830093
-0.17325933 -0.00176991 -0.00632245
-0.17265323 -0.00176991 -0.00402940
-0.17235017 -0.00176991 -0.00142178
-0.17231229 -0.00176991 0.00000000
-0.17235017 -0.00176991 0.00142178
-0.17265323 -0.00176991 0.00402940
-0.17325933 -0.00176991 0.00632245
-0.17416848 -0.00176991 0.00830093
-0.17473671 -0.00176991 0.00917220
-0.17536844 -0.00176991 0.00995215
-0.17679958 -0.00176991 0.01120008
-0.17845426 -0.00176991 0.01203203
-0.18033250 -0.00176991 0.01244800
-0.18135543 -0.00176991 0.01250000
-0.18237823 -0.00176991 0.01244800
-0.18425530 -0.00176991 0.01203203
-0.18590769 -0.00176991 0.01120008
-0.18733537 -0.00176991 0.00995215
-0.18796495 -0.00176991 0.00917220
-0.18852885 -0.00176991 0.00830093
-0.18943109 -0.00176991 0.00632245
-0.19003259 -0.00176991 0.00402940
-0.19033332 -0.00176991 0.00142178
-0.13379367 0.00000000 0.00291298
-0.13384379 0.00000000 0.00397107
-0.13416183 0.00000000 0.00592304
-0.13477023 0.00000000 0.00765608
-0.13566902 0.00000000 0.00917018
-0.13622729 0.00000000 0.00984513
-0.13684593 0.00000000 0.01045440
-0.13822752 0.00000000 0.01142924
-0.13980155 0.00000000 0.01207913
-0.14156801 0.00000000 0.01240407
-0.14252339 0.00000000 0.01244469
-0.14360423 0.00000000 0.01240551
-0.14559999 0.00000000 0.01209209
-0.14737451 0.00000000 0.01146525
-0.14892779 0.00000000 0.01052498
-0.14962147 0.00000000 0.00993732
-0.15025221 0.00000000 0.00927850
-0.15130194 0.00000000 0.00776900
-0.15206936 0.00000000 0.00600370
-0.15255447 0.00000000 0.00398259
-0.15269117 0.00000000 0.00287611
-0.13379367 -0.00176991 0.00291298
-0.13384379 -0.00176991 0.00397107
-0.13416183 -0.00176991 0.00592304
-0.13477023 -0.00176991 0.00765608
-0.13566902 -0.00176991 0.00917018
-0.13622729 -0.00176991 0.00984513
-0.13684593 -0.00176991 0.01045440
-0.13822752 -0.00176991 0.01142924
-0.13980155 -0.00176991 0.01207913
-0.14156801 -0.00176991 0.01240407
-0.14252339 -0.00176991 0.01244469
-0.14360423 -0.00176991 0.01240551
-0.14559999 -0.00176991 0.01209209
-0.14737451 -0.00176991 0.01146525
-0.14892779 -0.00176991 0.01052498
-0.14962147 -0.00176991 0.00993732
-0.15025221 -0.00176991 0.00927850
-0.15130194 -0.00176991 0.00776900
-0.15206936 -0.00176991 0.00600370
-0.15255447 -0.00176991 0.00398259
-0.15269117 -0.00176991 0.00287611
-0.04982543 0.00000000 0.01244469
-0.05086234 0.00000000 0.01239269
-0.05276937 0.00000000 0.01197672
-0.05445402 0.00000000 0.01114477
-0.05591627 0.00000000 0.00989684
-0.05656400 0.00000000 0.00911689
-0.05714518 0.00000000 0.00824648
-0.05807508 0.00000000 0.00627492
-0.05869501 0.00000000 0.00399570
-0.05900497 0.00000000 0.00140881
-0.05904372 0.00000000 0.00000000
-0.05900526 0.00000000 -0.00140881
-0.05869760 0.00000000 -0.00399570
-0.05808228 0.00000000 -0.00627492
-0.05715930 0.00000000 -0.00824648
-0.05658244 0.00000000 -0.00911689
-0.05593643 0.00000000 -0.00989684
-0.05447418 0.00000000 -0.01114477
-0.05278493 0.00000000 -0.01197672
-0.05086868 0.00000000 -0.01239269
-0.04982543 0.00000000 -0.01244469
-0.04879298 0.00000000 -0.01239255
-0.04689401 0.00000000 -0.01197542
-0.04521628 0.00000000 -0.01114117
-0.04375979 0.00000000 -0.00988978
-0.04311451 0.00000000 -0.00910767
-0.04253333 0.00000000 -0.00823337
-0.04160343 0.00000000 -0.00625835
-0.04098351 0.00000000 -0.00398144
-0.04067354 0.00000000 -0.00140262
-0.04063480 0.00000000 0.00000000
-0.04067354 0.00000000 0.00139628
-0.04098351 0.00000000 0.00396588
-0.04160343 0.00000000 0.00623819
-0.04253333 0.00000000 0.00821321
-0.04311451 0.00000000 0.00908923
-0.04375979 0.00000000 0.00987567
-0.04521628 0.00000000 0.01113397
-0.04689401 0.00000000 0.01197283
-0.04879298 0.00000000 0.01239226
-0.04982543 -0.00176991 0.01244469
-0.05086234 -0.00176991 0.01239269
-0.05276937 -0.00176991 0.01197672
-0.05445402 -0.00176991 0.01114477
-0.05591627 -0.00176991 0.00989684
-0.05656400 -0.00176991 0.00911689
-0.05714518 -0.00176991 0.00824648
-0.05807508 -0.00176991 0.00627492
-0.05869501 -0.00176991 0.00399570
-0.05900497 -0.00176991 0.00140881
-0.05904372 -0.00176991 0.00000000
-0.05900526 -0.00176991 -0.00140881
-0.05869760 -0.00176991 -0.00399570
-0.05808228 -0.00176991 -0.00627492
-0.05715930 -0.00176991 -0.00824648
-0.05658244 -0.00176991 -0.00911689
-0.05593643 -0.00176991 -0.00989684
-0.05447418 -0.00176991 -0.01114477
-0.05278493 -0.00176991 -0.01197672
-0.05086868 -0.00176991 -0.01239269
-0.04982543 -0.00176991 -0.01244469
-0.04879298 -0.00176991 -0.01239255
-0.04689401 -0.00176991 -0.01197542
-0.04521628 -0.00176991 -0.01114117
-0.04375979 -0.00176991 -0.00988978
-0.04311451 -0.00176991 -0.00910767
-0.04253333 -0.00176991 -0.00823337
-0.04160343 -0.00176991 -0.00625835
-0.04098351 -0.00176991 -0.00398144
-0.04067354 -0.00176991 -0.00140262
-0.04063480 -0.00176991 0.00000000
-0.04067354 -0.00176991 0.00139628
-0.04098351 -0.00176991 0.00396588
-0.04160343 -0.00176991 0.00623819
-0.04253333 -0.00176991 0.00821321
-0.04311451 -0.00176991 0.00908923
-0.04375979 -0.00176991 0.00987567
-0.04521628 -0.00176991 0.01113397
-0.04689401 -0.00176991 0.01197283
-0.04879298 -0.00176991 0.01239226
0.05717125 0.00000000 0.00000000
0.05713366 0.00000000 0.00142178
0.05683291 0.00000000 0.00402940
0.05623142 0.00000000 0.00632245
0.05532918 0.00000000 0.00830093
0.05476528 0.00000000 0.00917220
0.05413570 0.00000000 0.00995215
0.05270801 0.00000000 0.01120008
0.05105564 0.00000000 0.01203203
0.04917856 0.00000000 0.01244800
0.04815577 0.00000000 0.01250000
0.04713081 0.00000000 0.01244800
0.04525028 0.00000000 0.01203203
0.04359559 0.00000000 0.01120008
0.04216676 0.00000000 0.00995215
0.04153704 0.00000000 0.00917220
0.04097313 0.00000000 0.00830093
0.04007090 0.00000000 0.00632245
0.03946940 0.00000000 0.00402940
0.03916866 0.00000000 0.00142178
0.03913106 0.00000000 0.00000000
0.03916866 0.00000000 -0.00142178
0.03946940 0.00000000 -0.00402940
0.04007090 0.00000000 -0.00632245
0.04097313 0.00000000 -0.00830093
0.04153704 0.00000000 -0.00917220
0.04216676 0.00000000 -0.00995215
0.04359559 0.00000000 -0.01120008
0.04525028 0.00000000 -0.01203203
0.04713081 0.00000000 -0.01244800
0.04815577 0.00000000 -0.01250000
0.04917856 0.00000000 -0.01244800
0.05105564 0.00000000 -0.01203203
0.05270801 0.00000000 -0.01120008
0.05413570 0.00000000 -0.00995215
0.05476528 0.00000000 -0.00917220
0.05532918 0.00000000 -0.00830093
0.05623142 0.00000000 -0.00632245
0.05683291 0.00000000 -0.00402940
0.05713366 0.00000000 -0.00142178
0.05717125 -0.00176991 0.00000000
0.05713366 -0.00176991 0.00142178
0.05683291 -0.00176991 0.00402940
0.05623142 -0.00176991 0.00632245
0.05532918 -0.00176991 0.00830093
0.05476528 -0.00176991 0.00917220
0.05413570 -0.00176991 0.00995215
0.05270801 -0.00176991 0.01120008
0.05105564 -0.00176991 0.01203203
0.04917856 -0.00176991 0.01244800
0.04815577 -0.00176991 0.01250000
0.04713081 -0.00176991 0.01244800
0.04525028 -0.00176991 0.01203203
0.04359559 -0.00176991 0.01120008
0.04216676 -0.00176991 0.00995215
0.04153704 -0.00176991 0.00917220
0.04097313 -0.00176991 0.00830093
0.04007090 -0.00176991 0.00632245
0.03946940 -0.00176991 0.00402940
0.03916866 -0.00176991 0.00142178
0.03913106 -0.00176991 0.00000000
0.03916866 -0.00176991 -0.00142178
0.03946940 -0.00176991 -0.00402940
0.04007090 -0.00176991 -0.00632245
0.04097313 -0.00176991 -0.00830093
0.04153704 -0.00176991 -0.00917220
0.04216676 -0.00176991 -0.00995215
0.04359559 -0.00176991 -0.01120008
0.04525028 -0.00176991 -0.01203203
0.04713081 -0.00176991 -0.01244800
0.04815577 -0.00176991 -0.01250000
0.04917856 -0.00176991 -0.01244800
0.05105564 -0.00176991 -0.01203203
0.05270801 -0.00176991 -0.01120008
0.05413570 -0.00176991 -0.00995215
0.05476528 -0.00176991 -0.00917220
0.05532918 -0.00176991 -0.00830093
0.05623142 -0.00176991 -0.00632245
0.05683291 -0.00176991 -0.00402940
0.05713366 -0.00176991 -0.00142178
0.13114572 0.00000000 0.00291298
0.13109559 0.00000000 0.00397107
0.13077757 0.00000000 0.00592304
0.13016915 0.00000000 0.00765608
0.12927037 0.00000000 0.00917018
0.12871209 0.00000000 0.00984513
0.12809345 0.00000000 0.01045440
0.12671186 0.00000000 0.01142924
0.12513784 0.00000000 0.01207913
0.12337139 0.00000000 0.01240407
0.12241600 0.00000000 0.01244469
0.12133516 0.00000000 0.01240551
0.11933939 0.00000000 0.01209209
0.11756487 0.00000000 0.01146525
0.11601159 0.00000000 0.01052498
0.11531792 0.00000000 0.00993732
0.11468718 0.00000000 0.00927850
0.11363745 0.00000000 0.00776900
0.11287003 0.00000000 0.00600370
0.11238492 0.00000000 0.00398259
0.11224823 0.00000000 0.00287611
0.13114572 -0.00176991 0.00291298
0.13109559 -0.00176991 0.00397107
0.13077757 -0.00176991 0.00592304
0.13016915 -0.00176991 0.00765608
0.12927037 -0.00176991 0.00917018
0.12871209 -0.00176991 0.00984513
0.12809345 -0.00176991 0.01045440
0.12671186 -0.00176991 0.01142924
0.12513784 -0.00176991 0.01207913
0.12337139 -0.00176991 0.01240407
0.12241600 -0.00176991 0.01244469
0.12133516 -0.00176991 0.01240551
0.11933939 -0.00176991 0.01209209
0.11756487 -0.00176991 0.01146525
0.11601159 -0.00176991 0.01052498
0.11531792 -0.00176991 0.00993732
0.11468718 -0.00176991 0.00927850
0.11363745 -0.00176991 0.00776900
0.11287003 -0.00176991 0.00600370
0.11238492 -0.00176991 0.00398259
0.11224823 -0.00176991 0.00287611
0.19037092 0.00000000 0.00291298
0.19032079 0.00000000 0.00397107
0.19000277 0.00000000 0.00592304
0.18939435 0.00000000 0.00765608
0.18849558 0.00000000 0.00917018
0.18793729 0.00000000 0.00984513
0.18731865 0.00000000 0.01045440
0.18593706 0.00000000 0.01142924
0.18436305 0.00000000 0.01207913
0.18259659 0.00000000 0.01240407
0.18164121 0.00000000 0.01244469
0.18056035 0.00000000 0.01240551
0.17856459 0.00000000 0.01209209
0.17679007 0.00000000 0.01146525
0.17523679 0.00000000 0.01052498
0.17454311 0.00000000 0.00993732
0.17391239 0.00000000 0.00927850
0.17286265 0.00000000 0.00776900
0.17209522 0.00000000 0.00600370
0.17161012 0.00000000 0.00398259
0.17147343 0.00000000 0.00287611
0.19037092 -0.00176991 0.00291298
0.19032079 -0.00176991 0.00397107
0.19000277 -0.00176991 0.00592304
0.18939435 -0.00176991 0.00765608
0.18849558 -0.00176991 0.00917018
0.18793729 -0.00176991 0.00984513
0.18731865 -0.00176991 0.01045440
0.18593706 -0.00176991 0.01142924
0.18436305 -0.00176991 0.01207913
0.18259659 -0.00176991 0.01240407
0.18164121 -0.00176991 0.01244469
0.18056035 -0.00176991 0.01240551
0.17856459 -0.00176991 0.01209209
0.17679007 -0.00176991 0.01146525
0.17523679 -0.00176991 0.01052498
0.17454311 -0.00176991 0.00993732
0.17391239 -0.00176991 0.00927850
0.17286265 -0.00176991 0.00776900
0.17209522 -0.00176991 0.00600370
0.17161012 -0.00176991 0.00398259
0.17147343 -0.00176991 0.00287611
3 1 0 39
3 3 2 1
3 5 4 3
3 7 6 5
3 9 8 7
3 11 10 9
3 13 12 11
3 15 14 13
3 17 16 15
3 19 18 17
3 21 20 19
3 23 22 21
3 25 24 23
3 27 26 25
3 29 28 27
3 31 30 29
3 33 32 31
3 35 34 33
3 37 36 35
3 39 38 37
3 3 1 39
3 7 5 3
3 11 9 7
3 15 13 11
3 19 17 15
3 23 21 19
3 27 25 23
3 31 29 27
3 35 33 31
3 39 37 35
3 7 3 39
3 15 11 7
3 23 19 15
3 31 27 23
3 39 35 31
3 15 7 39
3 31 23 15
3 15 39 31
3 79 40 41
3 41 42 43
3 43 44 45
3 45 46 47
3 47 48 49
3 49 50 51
3 51 52 53
3 53 54 55
3 55 56 57
3 57 58 59
3 59 60 61
3 61 62 63
3 63 64 65
3 65 66 67
3 67 68 69
3 69 70 71
3 71 72 73
3 73 74 75
3 75 76 77
3 77 78 79
3 79 41 43
3 43 45 47
3 47 49 51
3 51 53 55
3 55 57 59
3 59 61 63
3 63 65 67
3 67 69 71
3 71 73 75
3 75 77 79
3 79 43 47
3 47 51 55
3 55 59 63
3 63 67 71
3 71 75 79
3 79 47 55
3 55 63 71
3 71 79 55
3 41 40 1
3 1 40 0
3 42 41 2
3 2 41 1
3 43 42 3
3 3 42 2
3 44 43 4
3 4 43 3
3 45 44 5
3 5 44 4
3 46 45 6
3 6 45 5
3 47 46 7
3 7 46 6
3 48 47 8
3 8 47 7
3 49 48 9
3 9 48 8
3 50 49 10
3 10 49 9
3 51 50 11
3 11 50 10
3 52 51 12
3 12 51 11
3 53 52 13
3 13 52 12
3 54 53 14
3 14 53 13
3 55 54 15
3 15 54 14
3 56 55 16
3 16 55 15
3 57 56 17
3 17 56 16
3 58 57 18
3 18 57 17
3 59 58 19
3 19 58 18
3 60 59 20
3 20 59 19
3 61 60 21
3 21 60 20
3 62 61 22
3 22 61 21
3 63 62 23
3 23 62 22
3 64 63 24
3 24 63 23
3 65 64 25
3 25 64 24
3 66 65 26
3 26 65 25
3 67 66 27
3 27 66 26
3 68 67 28
3 28 67 27
3 69 68 29
3 29 68 28
3 70 69 30
3 30 69 29
3 71 70 31
3 31 70 30
3 72 71 32
3 32 71 31
3 73 72 33
3 33 72 32
3 74 73 34
3 34 73 33
3 75 74 35
3 35 74 34
3 76 75 36
3 36 75 35
3 77 76 37
3 37 76 36
3 78 77 38
3 38 77 37
3 40 79 0
3 0 79 39
3 79 78 39
3 39 78 38
3 81 80 100
3 83 82 81
3 85 84 83
3 87 86 85
3 89 88 87
3 91 90 89
3 93 92 91
3 95 94 93
3 97 96 95
3 99 98 97
3 81 100 99
3 85 83 81
3 89 87 85
3 93 91 89
3 97 95 93
3 81 99 97
3 89 85 81
3 97 93 89
3 89 81 97
3 121 101 102
3 102 103 104
3 104 105 106
3 106 107 108
3 108 109 110
3 110 111 112
3 112 113 114
3 114 115 116
3 116 117 118
3 118 119 120
3 120 121 102
3 102 104 106
3 106 108 110
3 110 112 114
3 114 116 118
3 118 120 102
3 102 106 110
3 110 114 118
3 118 102 110
3 102 101 81
3 81 101 80
3 103 102 82
3 82 102 81
3 104 103 83
3 83 103 82
3 105 104 84
3 84 104 83
3 106 105 85
3 85 105 84
3 107 106 86
3 86 106 85
3 108 107 87
3 87 107 86
3 109 108 88
3 88 108 87
3 110 109 89
3 89 109 88
3 111 110 90
3 90 110 89
3 112 111 91
3 91 111 90
3 113 112 92
3 92 112 91
3 114 113 93
3 93 113 92
3 115 114 94
3 94 114 93
3 116 115 95
3 95 115 94
3 117 116 96
3 96 116 95
3 118 117 97
3 97 117 96
3 119 118 98
3 98 118 97
3 120 119 99
3 99 119 98
3 101 121 80
3 80 121 100
3 121 120 100
3 100 120 99
3 123 122 161
3 125 124 123
3 127 126 125
3 129 128 127
3 131 130 129
3 133 132 131
3 135 134 133
3 137 136 135
3 139 138 137
3 141 140 139
3 143 142 141
3 145 144 143
3 147 146 145
3 149 148 147
3 151 150 149
3 153 152 151
3 155 154 153
3 157 156 155
3 159 158 157
3 161 160 159
3 125 123 161
3 129 127 125
3 133 131 129
3 137 135 133
3 141 139 137
3 145 143 141
3 149 147 145
3 153 151 149
3 157 155 153
3 161 159 157
3 129 125 161
3 137 133 129
3 145 141 137
3 153 149 145
3 161 157 153
3 137 129 161
3 153 145 137
3 137 161 153
3 201 162 163
3 163 164 165
3 165 166 167
3 167 168 169
3 169 170 171
3 171 172 173
3 173 174 175
3 175 176 177
3 177 178 179
3 179 180 181
3 181 182 183
3 183 184 185
3 185 186 187
3 187 188 189
3 189 190 191
3 191 192 193
3 193 194 195
3 195 196 197
3 197 198 199
3 199 200 201
3 201 163 165
3 165 167 169
3 169 171 173
3 173 175 177
3 177 179 181
3 181 183 185
3 185 187 189
3 189 191 193
3 193 195 197
3 197 199 201
3 201 165 169
3 169 173 177
3 177 181 185
3 185 189 193
3 193 197 201
3 201 169 177
3 177 185 193
3 193 201 177
3 163 162 123
3 123 162 122
3 164 163 124
3 124 163 123
3 165 164 125
3 125 164 124
3 166 165 126
3 126 165 125
3 167 166 127
3 127 166 126
3 168 167 128
3 128 167 127
3 169 168 129
3 129 168 128
3 170 169 130
3 130 169 129
3 171 170 131
3 131 170 130
3 172 171 132
3 132 171 131
3 173 172 133
3 133 172 132
3 174 173 134
3 134 173 133
3 175 174 135
3 135 174 134
3 176 175 136
3 136 175 135
3 177 176 137
3 137 176 136
3 178 177 138
3 138 177 137
3 179 178 139
3 139 178 138
3 180 179 140
3 140 179 139
3 181 180 141
3 141 180 140
3 182 181 142
3 142 181 141
3 183 182 143
3 143 182 142
3 184 183 144
3 144 183 143
3 185 184 145
3 145 184 144
3 186 185 146
3 146 185 145
3 187 186 147
3 147 186 146
3 188 187 148
3 148 187 147
3 189 188 149
3 149 188 148
3 190 189 150
3 150 189 149
3 191 190 151
3 151 190 150
3 192 191 152
3 152 191 151
3 193 192 153
3 153 192 152
3 194 193 154
3 154 193 153
3 195 194 155
3 155 194 154
3 196 195 156
3 156 195 155
3 197 196 157
3 157 196 156
3 198 197 158
3 158 197 157
3 199 198 159
3 159 198 158
3 200 199 160
3 160 199 159
3 162 201 122
3 122 201 161
3 201 200 161
3 161 200 160
3 203 202 241
3 205 204 203
3 207 206 205
3 209 208 207
3 211 210 209
3 213 212 211
3 215 214 213
3 217 216 215
3 219 218 217
3 221 220 219
3 223 222 221
3 225 224 223
3 227 226 225
3 229 228 227
3 231 230 229
3 233 232 231
3 235 234 233
3 237 236 235
3 239 238 237
3 241 240 239
3 205 203 241
3 209 207 205
3 213 211 209
3 217 215 213
3 221 219 217
3 225 223 221
3 229 227 225
3 233 231 229
3 237 235 233
3 241 239 237
3 209 205 241
3 217 213 209
3 225 221 217
3 233 229 225
3 241 237 233
3 217 209 241
3 233 225 217
3 217 241 233
3 281 242 243
3 243 244 245
3 245 246 247
3 247 248 249
3 249 250 251
3 251 252 253
3 253 254 255
3 255 256 257
3 257 258 259
3 259 260 261
3 261 262 263
3 263 264 265
3 265 266 267
3 267 268 269
3 269 270 271
3 271 272 273
3 273 274 275
3 275 276 277
3 277 278 279
3 279 280 281
3 281 243 245
3 245 247 249
3 249 251 253
3 253 255 257
3 257 259 261
3 261 263 265
3 265 267 269
3 269 271 273
3 273 275 277
3 277 279 281
3 281 245 249
3 249 253 257
3 257 261 265
3 265 269 273
3 273 277 281
3 281 249 257
3 257 265 273
3 273 281 257
3 243 242 203
3 203 242 202
3 244 243 204
3 204 243 203
3 245 244 205
3 205 244 204
3 246 245 206
3 206 245 205
3 247 246 207
3 207 246 206
3 248 247 208
3 208 247 207
3 249 248 209
3 209 248 208
3 250 249 210
3 210 249 209
3 251 250 211
3 211 250 210
3 252 251 212
3 212 251 211
3 253 252 213
3 213 252 212
3 254 253 214
3 214 253 213
3 255 254 215
3 215 254 214
3 256 255 216
3 216 255 215
3 257 256 217
3 217 256 216
3 258 257 218
3 218 257 217
3 259 258 219
3 219 258 218
3 260 259 220
3 220 259 219
3 261 260 221
3 221 260 220
3 262 261 222
3 222 261 221
3 263 262 223
3 223 262 222
3 264 263 224
3 224 263 223
3 265 264 225
3 225 264 224
3 266 265 226
3 226 265 225
3 267 266 227
3 227 266 226
3 268 267 228
3 228 267 227
3 269 268 229
3 229 268 228
3 270 269 230
3 230 269 229
3 271 270 231
3 231 270 230
3 272 271 232
3 232 271 231
3 273 272 233
3 233 272 232
3 274 273 234
3 234 273 233
3 275 274 235
3 235 274 234
3 276 275 236
3 236 275 235
3 277 276 237
3 237 276 236
3 278 277 238
3 238 277 237
3 279 278 239
3 239 278 238
3 280 279 240
3 240 279 239
3 242 281 202
3 202 281 241
3 281 280 241
3 241 280 240
3 283 282 302
3 285 284 283
3 287 286 285
3 289 288 287
3 291 290 289
3 293 292 291
3 295 294 293
3 297 296 295
3 299 298 297
3 301 300 299
3 283 302 301
3 287 285 283
3 291 289 287
3 295 293 291
3 299 297 295
3 283 301 299
3 291 287 283
3 299 295 291
3 291 283 299
3 323 303 304
3 304 305 306
3 306 307 308
3 308 309 310
3 310 311 312
3 312 313 314
3 314 315 316
3 316 317 318
3 318 319 320
3 320 321 322
3 322 323 304
3 304 306 308
3 308 310 312
3 312 314 316
3 316 318 320
3 320 322 304
3 304 308 312
3 312 316 320
3 320 304 312
3 304 303 283
3 283 303 282
3 305 304 284
3 284 304 283
3 306 305 285
3 285 305 284
3 307 306 286
3 286 306 285
3 308 307 287
3 287 307 286
3 309 308 288
3 288 308 287
3 310 309 289
3 289 309 288
3 311 310 290
3 290 310 289
3 312 311 291
3 291 311 290
3 313 312 292
3 292 312 291
3 314 313 293
3 293 313 292
3 315 314 294
3 294 314 293
3 316 315 295
3 295 315 294
3 317 316 296
3 296 316 295
3 318 317 297
3 297 317 296
3 319 318 298
3 298 318 297
3 320 319 299
3 299 319 298
3 321 320 300
3 300 320 299
3 322 321 301
3 301 321 300
3 303 323 282
3 282 323 302
3 323 322 302
3 302 322 301
3 325 324 344
3 327 326 325
3 329 328 327
3 331 330 329
3 333 332 331
3 335 334 333
3 337 336 335
3 339 338 337
3 341 340 339
3 343 342 341
3 325 344 343
3 329 327 325
3 333 331 329
3 337 335 333
3 341 339 337
3 325 343 341
3 333 329 325
3 341 337 333
3 333 325 341
3 365 345 346
3 346 347 348
3 348 349 350
3 350 351 352
3 352 353 354
3 354 355 356
3 356 357 358
3 358 359 360
3 360 361 362
3 362 363 364
3 364 365 346
3 346 348 350
3 350 352 354
3 354 356 358
3 358 360 362
3 362 364 346
3 346 350 354
3 354 358 362
3 362 346 354
3 346 345 325
3 325 345 324
3 347 346 326
3 326 346 325
3 348 347 327
3 327 347 326
3 349 348 328
3 328 348 327
3 350 349 329
3 329 349 328
3 351 350 330
3 330 350 329
3 352 351 331
3 331 351 330
3 353 352 332
3 332 352 331
3 354 353 333
3 333 353 332
3 355 354 334
3 334 354 333
3 356 355 335
3 335 355 334
3 357 356 336
3 336 356 335
3 358 357 337
3 337 357 336
3 359 358 338
3 338 358 337
3 360 359 339
3 339 359 338
3 361 360 340
3 340 360 339
3 362 361 341
3 341 361 340
3 363 362 342
3 342 362 341
3 364 363 343
3 343 363 342
3 345 365 324
3 324 365 344
3 365 364 344
3 344 364 343
