ply
format ascii 1.0
comment https://github.com/mikedh/trimesh
element vertex 378
property float x
property float y
property float z
element face 732
property list uchar int vertex_indices
end_header
-0.20324887 0.00000000 0.00000000
-0.20321128 0.00000000 -0.00142178
-0.20291053 0.00000000 -0.00402940
-0.20230904 0.00000000 -0.00632245
-0.20140679 0.00000000 -0.00830093
-0.20084290 0.00000000 -0.00917220
-0.20021331 0.00000000 -0.00995215
-0.19878563 0.00000000 -0.01120008
-0.19713326 0.00000000 -0.01203203
-0.19525619 0.00000000 -0.01244800
-0.19423339 0.00000000 -0.01250000
-0.19321044 0.00000000 -0.01244800
-0.19133222 0.00000000 -0.01203203
-0.18967754 0.00000000 -0.01120008
-0.18824640 0.00000000 -0.00995215
-0.18761465 0.00000000 -0.00917220
-0.18704644 0.00000000 -0.00830093
-0.18613727 0.00000000 -0.00632245
-0.18553117 0.00000000 -0.00402940
-0.18522812 0.00000000 -0.00142178
-0.18519025 0.00000000 0.00000000
-0.18522812 0.00000000 0.00142178
-0.18553117 0.00000000 0.00402940
-0.18613727 0.00000000 0.00632245
-0.18704644 0.00000000 0.00830093
-0.18761465 0.00000000 0.00917220
-0.18824640 0.00000000 0.00995215
-0.18967754 0.00000000 0.01120008
-0.19133222 0.00000000 0.01203203
-0.19321044 0.00000000 0.01244800
-0.19423339 0.00000000 0.01250000
-0.19525619 0.00000000 0.01244800
-0.19713326 0.00000000 0.01203203
-0.19878563 0.00000000 0.01120008
-0.20021331 0.00000000 0.00995215
-0.20084290 0.00000000 0.00917220
-0.20140679 0.00000000 0.00830093
-0.20230904 0.00000000 0.00632245
-0.20291053 0.00000000 0.00402940
-0.20321128 0.00000000 0.00142178
-0.20324887 -0.00176991 0.00000000
-0.20321128 -0.00176991 -0.00142178
-0.20291053 -0.00176991 -0.00402940
-0.20230904 -0.00176991 -0.00632245
-0.20140679 -0.00176991 -0.00830093
-0.20084290 -0.00176991 -0.00917220
-0.20021331 -0.00176991 -0.00995215
-0.19878563 -0.00176991 -0.01120008
-0.19713326 -0.00176991 -0.01203203
-0.19525619 -0.00176991 -0.01244800
-0.19423339 -0.00176991 -0.01250000
-0.19321044 -0.00176991 -0.01244800
-0.19133222 -0.00176991 -0.01203203
-0.18967754 -0.00176991 -0.01120008
-0.18824640 -0.00176991 -0.00995215
-0.18761465 -0.00176991 -0.00917220
-0.18704644 -0.00176991 -0.00830093
-0.18613727 -0.00176991 -0.00632245
-0.18553117 -0.00176991 -0.00402940
-0.18522812 -0.00176991 -0.00142178
-0.18519025 -0.00176991 0.00000000
-0.18522812 -0.00176991 0.00142178
-0.18553117 -0.00176991 0.00402940
-0.18613727 -0.00176991 0.00632245
-0.18704644 -0.00176991 0.00830093
-0.18761465 -0.00176991 0.00917220
-0.18824640 -0.00176991 0.00995215
-0.18967754 -0.00176991 0.01120008
-0.19133222 -0.00176991 0.01203203
-0.19321044 -0.00176991 0.01244800
-0.19423339 -0.00176991 0.01250000
-0.19525619 -0.00176991 0.01244800
-0.19713326 -0.00176991 0.01203203
-0.19878563 -0.00176991 0.01120008
-0.20021331 -0.00176991 0.00995215
-0.20084290 -0.00176991 0.00917220
-0.20140679 -0.00176991 0.00830093
-0.20230904 -0.00176991 0.00632245
-0.20291053 -0.00176991 0.00402940
-0.20321128 -0.00176991 0.00142178
-0.14667162 0.00000000 0.00291298
-0.14672175 0.00000000 0.00397107
-0.14703977 0.00000000 0.00592304
-0.14764819 0.00000000 0.00765608
-0.14854696 0.00000000 0.00917018
-0.14910525 0.00000000 0.00984513
-0.14972389 0.00000000 0.01045440
-0.15110548 0.00000000 0.01142924
-0.15267950 0.00000000 0.01207913
-0.15444595 0.00000000 0.01240407
-0.15540133 0.00000000 0.01244469
-0.15648219 0.00000000 0.01240551
-0.15847795 0.00000000 0.01209209
-0.16025247 0.00000000 0.01146525
-0.16180575 0.00000000 0.01052498
-0.16249943 0.00000000 0.00993732
-0.16313015 0.00000000 0.00927850
-0.16417989 0.00000000 0.00776900
-0.16494732 0.00000000 0.00600370
-0.16543242 0.00000000 0.00398259
-0.16556911 0.00000000 0.00287611
-0.14667162 -0.00176991 0.00291298
-0.14672175 -0.00176991 0.00397107
-0.14703977 -0.00176991 0.00592304
-0.14764819 -0.00176991 0.00765608
-0.14854696 -0.00176991 0.00917018
-0.14910525 -0.00176991 0.00984513
-0.14972389 -0.00176991 0.01045440
-0.15110548 -0.00176991 0.01142924
-0.15267950 -0.00176991 0.01207913
-0.15444595 -0.00176991 0.01240407
-0.15540133 -0.00176991 0.01244469
-0.15648219 -0.00176991 0.01240551
-0.15847795 -0.00176991 0.01209209
-0.16025247 -0.00176991 0.01146525
-0.16180575 -0.00176991 0.01052498
-0.16249943 -0.00176991 0.00993732
-0.16313015 -0.00176991 0.00927850
-0.16417989 -0.00176991 0.00776900
-0.16494732 -0.00176991 0.00600370
-0.16543242 -0.00176991 0.00398259
-0.16556911 -0.00176991 0.00287611
-0.06270338 0.00000000 0.01244469
-0.06374029 0.00000000 0.01239269
-0.06564733 0.00000000 0.01197672
-0.06733197 0.00000000 0.01114477
-0.06879422 0.00000000 0.00989684
-0.06944194 0.00000000 0.00911689
-0.07002313 0.00000000 0.00824648
-0.07095303 0.00000000 0.00627492
-0.07157296 0.00000000 0.00399570
-0.07188292 0.00000000 0.00140881
-0.07192167 0.00000000 0.00000000
-0.07188321 0.00000000 -0.00140881
-0.07157555 0.00000000 -0.00399570
-0.07096023 0.00000000 -0.00627492
-0.07003725 0.00000000 -0.00824648
-0.06946038 0.00000000 -0.00911689
-0.06881438 0.00000000 -0.00989684
-0.06735213 0.00000000 -0.01114477
-0.06566288 0.00000000 -0.01197672
-0.06374663 0.00000000 -0.01239269
-0.06270338 0.00000000 -0.01244469
-0.06167093 0.00000000 -0.01239255
-0.05977196 0.00000000 -0.01197542
-0.05809423 0.00000000 -0.01114117
-0.05663775 0.00000000 -0.00988978
-0.05599247 0.00000000 -0.00910767
-0.05541128 0.00000000 -0.00823337
-0.05448138 0.00000000 -0.00625835
-0.05386145 0.00000000 -0.00398144
-0.05355149 0.00000000 -0.00140262
-0.05351274 0.00000000 0.00000000
-0.05355149 0.00000000 0.00139628
-0.05386145 0.00000000 0.00396588
-0.05448138 0.00000000 0.00623819
-0.05541128 0.00000000 0.00821321
-0.05599247 0.00000000 0.00908923
-0.05663775 0.00000000 0.00987567
-0.05809423 0.00000000 0.01113397
-0.05977196 0.00000000 0.01197283
-0.06167093 0.00000000 0.01239226
-0.06270338 -0.00176991 0.01244469
-0.06374029 -0.00176991 0.01239269
-0.06564733 -0.00176991 0.01197672
-0.06733197 -0.00176991 0.01114477
-0.06879422 -0.00176991 0.00989684
-0.06944194 -0.00176991 0.00911689
-0.07002313 -0.00176991 0.00824648
-0.07095303 -0.00176991 0.00627492
-0.07157296 -0.00176991 0.00399570
-0.07188292 -0.00176991 0.00140881
-0.07192167 -0.00176991 0.00000000
-0.07188321 -0.00176991 -0.00140881
-0.07157555 -0.00176991 -0.00399570
-0.07096023 -0.00176991 -0.00627492
-0.07003725 -0.00176991 -0.00824648
-0.06946038 -0.00176991 -0.00911689
-0.06881438 -0.00176991 -0.00989684
-0.06735213 -0.00176991 -0.01114477
-0.06566288 -0.00176991 -0.01197672
-0.06374663 -0.00176991 -0.01239269
-0.06270338 -0.00176991 -0.01244469
-0.06167093 -0.00176991 -0.01239255
-0.05977196 -0.00176991 -0.01197542
-0.05809423 -0.00176991 -0.01114117
-0.05663775 -0.00176991 -0.00988978
-0.05599247 -0.00176991 -0.00910767
-0.05541128 -0.00176991 -0.00823337
-0.05448138 -0.00176991 -0.00625835
-0.05386145 -0.00176991 -0.00398144
-0.05355149 -0.00176991 -0.00140262
-0.05351274 -0.00176991 0.00000000
-0.05355149 -0.00176991 0.00139628
-0.05386145 -0.00176991 0.00396588
-0.05448138 -0.00176991 0.00623819
-0.05541128 -0.00176991 0.00821321
-0.05599247 -0.00176991 0.00908923
-0.05663775 -0.00176991 0.00987567
-0.05809423 -0.00176991 0.01113397
-0.05977196 -0.00176991 0.01197283
-0.06167093 -0.00176991 0.01239226
0.03749366 0.00000000 0.00011062
0.03452768 0.00000000 0.00001901
0.03100341 0.00000000 -0.00046192
0.02927037 0.00000000 -0.00101156
0.02858880 0.00000000 -0.00135509
0.02800761 0.00000000 -0.00175407
0.02707772 0.00000000 -0.00274734
0.02645779 0.00000000 -0.00400103
0.02614782 0.00000000 -0.00551513
0.02610908 0.00000000 -0.00636984
0.02622546 0.00000000 -0.00770764
0.02715650 0.00000000 -0.00994769
0.02797117 0.00000000 -0.01084993
0.02898518 0.00000000 -0.01157183
0.03151099 0.00000000 -0.01239687
0.03302279 0.00000000 -0.01250000
0.03409931 0.00000000 -0.01245117
0.03608816 0.00000000 -0.01206055
0.03785807 0.00000000 -0.01127930
0.03940905 0.00000000 -0.01010742
0.04010244 0.00000000 -0.00937500
0.04072683 0.00000000 -0.00856163
0.04172587 0.00000000 -0.00674217
0.04239189 0.00000000 -0.00466575
0.04272490 0.00000000 -0.00233237
0.04276652 0.00000000 -0.00106932
0.04276652 0.00000000 0.00011062
0.03749366 -0.00176991 0.00011062
0.03452768 -0.00176991 0.00001901
0.03100341 -0.00176991 -0.00046192
0.02927037 -0.00176991 -0.00101156
0.02858880 -0.00176991 -0.00135509
0.02800761 -0.00176991 -0.00175407
0.02707772 -0.00176991 -0.00274734
0.02645779 -0.00176991 -0.00400103
0.02614782 -0.00176991 -0.00551513
0.02610908 -0.00176991 -0.00636984
0.02622546 -0.00176991 -0.00770764
0.02715650 -0.00176991 -0.00994769
0.02797117 -0.00176991 -0.01084993
0.02898518 -0.00176991 -0.01157183
0.03151099 -0.00176991 -0.01239687
0.03302279 -0.00176991 -0.01250000
0.03409931 -0.00176991 -0.01245117
0.03608816 -0.00176991 -0.01206055
0.03785807 -0.00176991 -0.01127930
0.03940905 -0.00176991 -0.01010742
0.04010244 -0.00176991 -0.00937500
0.04072683 -0.00176991 -0.00856163
0.04172587 -0.00176991 -0.00674217
0.04239189 -0.00176991 -0.00466575
0.04272490 -0.00176991 -0.00233237
0.04276652 -0.00176991 -0.00106932
0.04276652 -0.00176991 0.00011062
0.08214590 0.00000000 0.00000000
0.08210831 0.00000000 0.00142178
0.08180756 0.00000000 0.00402940
0.08120607 0.00000000 0.00632245
0.08030383 0.00000000 0.00830093
0.07973993 0.00000000 0.00917220
0.07911035 0.00000000 0.00995215
0.07768267 0.00000000 0.01120008
0.07603028 0.00000000 0.01203203
0.07415321 0.00000000 0.01244800
0.07313041 0.00000000 0.01250000
0.07210546 0.00000000 0.01244800
0.07022493 0.00000000 0.01203203
0.06857024 0.00000000 0.01120008
0.06714141 0.00000000 0.00995215
0.06651168 0.00000000 0.00917220
0.06594779 0.00000000 0.00830093
0.06504554 0.00000000 0.00632245
0.06444405 0.00000000 0.00402940
0.06414331 0.00000000 0.00142178
0.06410571 0.00000000 0.00000000
0.06414331 0.00000000 -0.00142178
0.06444405 0.00000000 -0.00402940
0.06504554 0.00000000 -0.00632245
0.06594779 0.00000000 -0.00830093
0.06651168 0.00000000 -0.00917220
0.06714141 0.00000000 -0.00995215
0.06857024 0.00000000 -0.01120008
0.07022493 0.00000000 -0.01203203
0.07210546 0.00000000 -0.01244800
0.07313041 0.00000000 -0.01250000
0.07415321 0.00000000 -0.01244800
0.07603028 0.00000000 -0.01203203
0.07768267 0.00000000 -0.01120008
0.07911035 0.00000000 -0.00995215
0.07973993 0.00000000 -0.00917220
0.08030383 0.00000000 -0.00830093
0.08120607 0.00000000 -0.00632245
0.08180756 0.00000000 -0.00402940
0.08210831 0.00000000 -0.00142178
0.08214590 -0.00176991 0.00000000
0.08210831 -0.00176991 0.00142178
0.08180756 -0.00176991 0.00402940
0.08120607 -0.00176991 0.00632245
0.08030383 -0.00176991 0.00830093
0.07973993 -0.00176991 0.00917220
0.07911035 -0.00176991 0.00995215
0.07768267 -0.00176991 0.01120008
0.07603028 -0.00176991 0.01203203
0.07415321 -0.00176991 0.01244800
0.07313041 -0.00176991 0.01250000
0.07210546 -0.00176991 0.01244800
0.07022493 -0.00176991 0.01203203
0.06857024 -0.00176991 0.01120008
0.06714141 -0.00176991 0.00995215
0.06651168 -0.00176991 0.00917220
0.06594779 -0.00176991 0.00830093
0.06504554 -0.00176991 0.00632245
0.06444405 -0.00176991 0.00402940
0.06414331 -0.00176991 0.00142178
0.06410571 -0.00176991 0.00000000
0.06414331 -0.00176991 -0.00142178
0.06444405 -0.00176991 -0.00402940
0.06504554 -0.00176991 -0.00632245
0.06594779 -0.00176991 -0.00830093
0.06651168 -0.00176991 -0.00917220
0.06714141 -0.00176991 -0.00995215
0.06857024 -0.00176991 -0.01120008
0.07022493 -0.00176991 -0.01203203
0.07210546 -0.00176991 -0.01244800
0.07313041 -0.00176991 -0.01250000
0.07415321 -0.00176991 -0.01244800
0.07603028 -0.00176991 -0.01203203
0.07768267 -0.00176991 -0.01120008
0.07911035 -0.00176991 -0.00995215
0.07973993 -0.00176991 -0.00917220
0.08030383 -0.00176991 -0.00830093
0.08120607 -0.00176991 -0.00632245
0.08180756 -0.00176991 -0.00402940
0.08210831 -0.00176991 -0.00142178
0.20324887 0.00000000 0.00291298
0.20319875 0.00000000 0.00397107
0.20288071 0.00000000 0.00592304
0.20227231 0.00000000 0.00765608
0.20137353 0.00000000 0.00917018
0.20081525 0.00000000 0.00984513
0.20019661 0.00000000 0.01045440
0.19881502 0.00000000 0.01142924
0.19724099 0.00000000 0.01207913
0.19547454 0.00000000 0.01240407
0.19451915 0.00000000 0.01244469
0.19343831 0.00000000 0.01240551
0.19144255 0.00000000 0.01209209
0.18966803 0.00000000 0.01146525
0.18811475 0.00000000 0.01052498
0.18742107 0.00000000 0.00993732
0.18679033 0.00000000 0.00927850
0.18574060 0.00000000 0.00776900
0.18497318 0.00000000 0.00600370
0.18448807 0.00000000 0.00398259
0.18435138 0.00000000 0.00287611
0.20324887 -0.00176991 0.00291298
0.20319875 -0.00176991 0.00397107
0.20288071 -0.00176991 0.00592304
0.20227231 -0.00176991 0.00765608
0.20137353 -0.00176991 0.00917018
0.20081525 -0.00176991 0.00984513
0.20019661 -0.00176991 0.01045440
0.19881502 -0.00176991 0.01142924
0.19724099 -0.00176991 0.01207913
0.19547454 -0.00176991 0.01240407
0.19451915 -0.00176991 0.01244469
0.19343831 -0.00176991 0.01240551
0.19144255 -0.00176991 0.01209209
0.18966803 -0.00176991 0.01146525
0.18811475 -0.00176991 0.01052498
0.18742107 -0.00176991 0.00993732
0.18679033 -0.00176991 0.00927850
0.18574060 -0.00176991 0.00776900
0.18497318 -0.00176991 0.00600370
0.18448807 -0.00176991 0.00398259
0.18435138 -0.00176991 0.00287611
3 1 0 39
3 3 2 1
3 5 4 3
3 7 6 5
3 9 8 7
3 11 10 9
3 13 12 11
3 15 14 13
3 17 16 15
3 19 18 17
3 21 20 19
3 23 22 21
3 25 24 23
3 27 26 25
3 29 28 27
3 31 30 29
3 33 32 31
3 35 34 33
3 37 36 35
3 39 38 37
3 3 1 39
3 7 5 3
3 11 9 7
3 15 13 11
3 19 17 15
3 23 21 19
3 27 25 23
3 31 29 27
3 35 33 31
3 39 37 35
3 7 3 39
3 15 11 7
3 23 19 15
3 31 27 23
3 39 35 31
3 15 7 39
3 31 23 15
3 15 39 31
3 79 40 41
3 41 42 43
3 43 44 45
3 45 46 47
3 47 48 49
3 49 50 51
3 51 52 53
3 53 54 55
3 55 56 57
3 57 58 59
3 59 60 61
3 61 62 63
3 63 64 65
3 65 66 67
3 67 68 69
3 69 70 71
3 71 72 73
3 73 74 75
3 75 76 77
3 77 78 79
3 79 41 43
3 43 45 47
3 47 49 51
3 51 53 55
3 55 57 59
3 59 61 63
3 63 65 67
3 67 69 71
3 71 73 75
3 75 77 79
3 79 43 47
3 47 51 55
3 55 59 63
3 63 67 71
3 71 75 79
3 79 47 55
3 55 63 71
3 71 79 55
3 41 40 1
3 1 40 0
3 42 41 2
3 2 41 1
3 43 42 3
3 3 42 2
3 44 43 4
3 4 43 3
3 45 44 5
3 5 44 4
3 46 45 6
3 6 45 5
3 47 46 7
3 7 46 6
3 48 47 8
3 8 47 7
3 49 48 9
3 9 48 8
3 50 49 10
3 10 49 9
3 51 50 11
3 11 50 10
3 52 51 12
3 12 51 11
3 53 52 13
3 13 52 12
3 54 53 14
3 14 53 13
3 55 54 15
3 15 54 14
3 56 55 16
3 16 55 15
3 57 56 17
3 17 56 16
3 58 57 18
3 18 57 17
3 59 58 19
3 19 58 18
3 60 59 20
3 20 59 19
3 61 60 21
3 21 60 20
3 62 61 22
3 22 61 21
3 63 62 23
3 23 62 22
3 64 63 24
3 24 63 23
3 65 64 25
3 25 64 24
3 66 65 26
3 26 65 25
3 67 66 27
3 27 66 26
3 68 67 28
3 28 67 27
3 69 68 29
3 29 68 28
3 70 69 30
3 30 69 29
3 71 70 31
3 31 70 30
3 72 71 32
3 32 71 31
3 73 72 33
3 33 72 32
3 74 73 34
3 34 73 33
3 75 74 35
3 35 74 34
3 76 75 36
3 36 75 35
3 77 76 37
3 37 76 36
3 78 77 38
3 38 77 37
3 40 79 0
3 0 79 39
3 79 78 39
3 39 78 38
3 81 80 100
3 83 82 81
3 85 84 83
3 87 86 85
3 89 88 87
3 91 90 89
3 93 92 91
3 95 94 93
3 97 96 95
3 99 98 97
3 81 100 99
3 85 83 81
3 89 87 85
3 93 91 89
3 97 95 93
3 81 99 97
3 89 85 81
3 97 93 89
3 89 81 97
3 121 101 102
3 102 103 104
3 104 105 106
3 106 107 108
3 108 109 110
3 110 111 112
3 112 113 114
3 114 115 116
3 116 117 118
3 118 119 120
3 120 121 102
3 102 104 106
3 106 108 110
3 110 112 114
3 114 116 118
3 118 120 102
3 102 106 110
3 110 114 118
3 118 102 110
3 102 101 81
3 81 101 80
3 103 102 82
3 82 102 81
3 104 103 83
3 83 103 82
3 105 104 84
3 84 104 83
3 106 105 85
3 85 105 84
3 107 106 86
3 86 106 85
3 108 107 87
3 87 107 86
3 109 108 88
3 88 108 87
3 110 109 89
3 89 109 88
3 111 110 90
3 90 110 89
3 112 111 91
3 91 111 90
3 113 112 92
3 92 112 91
3 114 113 93
3 93 113 92
3 115 114 94
3 94 114 93
3 116 115 95
3 95 115 94
3 117 116 96
3 96 116 95
3 118 117 97
3 97 117 96
3 119 118 98
3 98 118 97
3 120 119 99
3 99 119 98
3 101 121 80
3 80 121 100
3 121 120 100
3 100 120 99
3 123 122 161
3 125 124 123
3 127 126 125
3 129 128 127
3 131 130 129
3 133 132 131
3 135 134 133
3 137 136 135
3 139 138 137
3 141 140 139
3 143 142 141
3 145 144 143
3 147 146 145
3 149 148 147
3 151 150 149
3 153 152 151
3 155 154 153
3 157 156 155
3 159 158 157
3 161 160 159
3 125 123 161
3 129 127 125
3 133 131 129
3 137 135 133
3 141 139 137
3 145 143 141
3 149 147 145
3 153 151 149
3 157 155 153
3 161 159 157
3 129 125 161
3 137 133 129
3 145 141 137
3 153 149 145
3 161 157 153
3 137 129 161
3 153 145 137
3 137 161 153
3 201 162 163
3 163 164 165
3 165 166 167
3 167 168 169
3 169 170 171
3 171 172 173
3 173 174 175
3 175 176 177
3 177 178 179
3 179 180 181
3 181 182 183
3 183 184 185
3 185 186 187
3 187 188 189
3 189 190 191
3 191 192 193
3 193 194 195
3 195 196 197
3 197 198 199
3 199 200 201
3 201 163 165
3 165 167 169
3 169 171 173
3 173 175 177
3 177 179 181
3 181 183 185
3 185 187 189
3 189 191 193
3 193 195 197
3 197 199 201
3 201 165 169
3 169 173 177
3 177 181 185
3 185 189 193
3 193 197 201
3 201 169 177
3 177 185 193
3 193 201 177
3 163 162 123
3 123 162 122
3 164 163 124
3 124 163 123
3 165 164 125
3 125 164 124
3 166 165 126
3 126 165 125
3 167 166 127
3 127 166 126
3 168 167 128
3 128 167 127
3 169 168 129
3 129 168 128
3 170 169 130
3 130 169 129
3 171 170 131
3 131 170 130
3 172 171 132
3 132 171 131
3 173 172 133
3 133 172 132
3 174 173 134
3 134 173 133
3 175 174 135
3 135 174 134
3 176 175 136
3 136 175 135
3 177 176 137
3 137 176 136
3 178 177 138
3 138 177 137
3 179 178 139
3 139 178 138
3 180 179 140
3 140 179 139
3 181 180 141
3 141 180 140
3 182 181 142
3 142 181 141
3 183 182 143
3 143 182 142
3 184 183 144
3 144 183 143
3 185 184 145
3 145 184 144
3 186 185 146
3 146 185 145
3 187 186 147
3 147 186 146
3 188 187 148
3 148 187 147
3 189 188 149
3 149 188 148
3 190 189 150
3 150 189 149
3 191 190 151
3 151 190 150
3 192 191 152
3 152 191 151
3 193 192 153
3 153 192 152
3 194 193 154
3 154 193 153
3 195 194 155
3 155 194 154
3 196 195 156
3 156 195 155
3 197 196 157
3 157 196 156
3 198 197 158
3 158 197 157
3 199 198 159
3 159 198 158
3 200 199 160
3 160 199 159
3 162 201 122
3 122 201 161
3 201 200 161
3 161 200 160
3 203 202 228
3 205 204 203
3 207 206 205
3 209 208 207
3 211 210 209
3 213 212 211
3 215 214 213
3 217 216 215
3 219 218 217
3 221 220 219
3 223 222 221
3 225 224 223
3 227 226 225
3 203 228 227
3 207 205 203
3 211 209 207
3 215 213 211
3 219 217 215
3 223 221 219
3 227 225 223
3 207 203 227
3 215 211 207
3 223 219 215
3 207 227 223
3 223 215 207
3 255 229 230
3 230 231 232
3 232 233 234
3 234 235 236
3 236 237 238
3 238 239 240
3 240 241 242
3 242 243 244
3 244 245 246
3 246 247 248
3 248 249 250
3 250 251 252
3 252 253 254
3 254 255 230
3 230 232 234
3 234 236 238
3 238 240 242
3 242 244 246
3 246 248 250
3 250 252 254
3 254 230 234
3 234 238 242
3 242 246 250
3 250 254 234
3 234 242 250
3 230 229 203
3 203 229 202
3 231 230 204
3 204 230 203
3 232 231 205
3 205 231 204
3 233 232 206
3 206 232 205
3 234 233 207
3 207 233 206
3 235 234 208
3 208 234 207
3 236 235 209
3 209 235 208
3 237 236 210
3 210 236 209
3 238 237 211
3 211 237 210
3 239 238 212
3 212 238 211
3 240 239 213
3 213 239 212
3 241 240 214
3 214 240 213
3 242 241 215
3 215 241 214
3 243 242 216
3 216 242 215
3 244 243 217
3 217 243 216
3 245 244 218
3 218 244 217
3 246 245 219
3 219 245 218
3 247 246 220
3 220 246 219
3 248 247 221
3 221 247 220
3 249 248 222
3 222 248 221
3 250 249 223
3 223 249 222
3 251 250 224
3 224 250 223
3 252 251 225
3 225 251 224
3 253 252 226
3 226 252 225
3 254 253 227
3 227 253 226
3 229 255 202
3 202 255 228
3 255 254 228
3 228 254 227
3 257 256 295
3 259 258 257
3 261 260 259
3 263 262 261
3 265 264 263
3 267 266 265
3 269 268 267
3 271 270 269
3 273 272 271
3 275 274 273
3 277 276 275
3 279 278 277
3 281 280 279
3 283 282 281
3 285 284 283
3 287 286 285
3 289 288 287
3 291 290 289
3 293 292 291
3 295 294 293
3 259 257 295
3 263 261 259
3 267 265 263
3 271 269 267
3 275 273 271
3 279 277 275
3 283 281 279
3 287 285 283
3 291 289 287
3 295 293 291
3 263 259 295
3 271 267 263
3 279 275 271
3 287 283 279
3 295 291 287
3 271 263 295
3 287 279 271
3 271 295 287
3 335 296 297
3 297 298 299
3 299 300 301
3 301 302 303
3 303 304 305
3 305 306 307
3 307 308 309
3 309 310 311
3 311 312 313
3 313 314 315
3 315 316 317
3 317 318 319
3 319 320 321
3 321 322 323
3 323 324 325
3 325 326 327
3 327 328 329
3 329 330 331
3 331 332 333
3 333 334 335
3 335 297 299
3 299 301 303
3 303 305 307
3 307 309 311
3 311 313 315
3 315 317 319
3 319 321 323
3 323 325 327
3 327 329 331
3 331 333 335
3 335 299 303
3 303 307 311
3 311 315 319
3 319 323 327
3 327 331 335
3 335 303 311
3 311 319 327
3 327 335 311
3 297 296 257
3 257 296 256
3 298 297 258
3 258 297 257
3 299 298 259
3 259 298 258
3 300 299 260
3 260 299 259
3 301 300 261
3 261 300 260
3 302 301 262
3 262 301 261
3 303 302 263
3 263 302 262
3 304 303 264
3 264 303 263
3 305 304 265
3 265 304 264
3 306 305 266
3 266 305 265
3 307 306 267
3 267 306 266
3 308 307 268
3 268 307 267
3 309 308 269
3 269 308 268
3 310 309 270
3 270 309 269
3 311 310 271
3 271 310 270
3 312 311 272
3 272 311 271
3 313 312 273
3 273 312 272
3 314 313 274
3 274 313 273
3 315 314 275
3 275 314 274
3 316 315 276
3 276 315 275
3 317 316 277
3 277 316 276
3 318 317 278
3 278 317 277
3 319 318 279
3 279 318 278
3 320 319 280
3 280 319 279
3 321 320 281
3 281 320 280
3 322 321 282
3 282 321 281
3 323 322 283
3 283 322 282
3 324 323 284
3 284 323 283
3 325 324 285
3 285 324 284
3 326 325 286
3 286 325 285
3 327 326 287
3 287 326 286
3 328 327 288
3 288 327 287
3 329 328 289
3 289 328 288
3 330 329 290
3 290 329 289
3 331 330 291
3 291 330 290
3 332 331 292
3 292 331 291
3 333 332 293
3 293 332 292
3 334 333 294
3 294 333 293
3 296 335 256
3 256 335 295
3 335 334 295
3 295 334 294
3 337 336 356
3 339 338 337
3 341 340 339
3 343 342 341
3 345 344 343
3 347 346 345
3 349 348 347
3 351 350 349
3 353 352 351
3 355 354 353
3 337 356 355
3 341 339 337
3 345 343 341
3 349 347 345
3 353 351 349
3 337 355 353
3 345 341 337
3 353 349 345
3 345 337 353
3 377 357 358
3 358 359 360
3 360 361 362
3 362 363 364
3 364 365 366
3 366 367 368
3 368 369 370
3 370 371 372
3 372 373 374
3 374 375 376
3 376 377 358
3 358 360 362
3 362 364 366
3 366 368 370
3 370 372 374
3 374 376 358
3 358 362 366
3 366 370 374
3 374 358 366
3 358 357 337
3 337 357 336
3 359 358 338
3 338 358 337
3 360 359 339
3 339 359 338
3 361 360 340
3 340 360 339
3 362 361 341
3 341 361 340
3 363 362 342
3 342 362 341
3 364 363 343
3 343 363 342
3 365 364 344
3 344 364 343
3 366 365 345
3 345 365 344
3 367 366 346
3 346 366 345
3 368 367 347
3 347 367 346
3 369 368 348
3 348 368 347
3 370 369 349
3 349 369 348
3 371 370 350
3 350 370 349
3 372 371 351
3 351 371 350
3 373 372 352
3 352 372 351
3 374 373 353
3 353 373 352
3 375 374 354
3 354 374 353
3 376 375 355
3 355 375 354
3 357 377 336
3 336 377 356
3 377 376 356
3 356 376 355
