ply
format ascii 1.0
comment https://github.com/mikedh/trimesh
element vertex 198
property float x
property float y
property float z
element face 376
property list uchar int vertex_indices
end_header
-0.15491611 0.00000000 -0.00331879
-0.15707551 0.00000000 -0.00338549
-0.15964136 0.00000000 -0.00373563
-0.16090311 0.00000000 -0.00413580
-0.16139933 0.00000000 -0.00438591
-0.16182247 0.00000000 -0.00467638
-0.16249947 0.00000000 -0.00539954
-0.16295081 0.00000000 -0.00631229
-0.16317649 0.00000000 -0.00741464
-0.16320470 0.00000000 -0.00803691
-0.16311997 0.00000000 -0.00901091
-0.16244212 0.00000000 -0.01064178
-0.16184899 0.00000000 -0.01129866
-0.16111074 0.00000000 -0.01182424
-0.15927181 0.00000000 -0.01242492
-0.15817115 0.00000000 -0.01250000
-0.15738738 0.00000000 -0.01246445
-0.15593939 0.00000000 -0.01218005
-0.15465079 0.00000000 -0.01161126
-0.15352160 0.00000000 -0.01075807
-0.15301678 0.00000000 -0.01022483
-0.15256219 0.00000000 -0.00963266
-0.15183483 0.00000000 -0.00830799
-0.15134993 0.00000000 -0.00679625
-0.15110749 0.00000000 -0.00509742
-0.15107718 0.00000000 -0.00417785
-0.15107718 0.00000000 -0.00331879
-0.15491611 -0.00128859 -0.00331879
-0.15707551 -0.00128859 -0.00338549
-0.15964136 -0.00128859 -0.00373563
-0.16090311 -0.00128859 -0.00413580
-0.16139933 -0.00128859 -0.00438591
-0.16182247 -0.00128859 -0.00467638
-0.16249947 -0.00128859 -0.00539954
-0.16295081 -0.00128859 -0.00631229
-0.16317649 -0.00128859 -0.00741464
-0.16320470 -0.00128859 -0.00803691
-0.16311997 -0.00128859 -0.00901091
-0.16244212 -0.00128859 -0.01064178
-0.16184899 -0.00128859 -0.01129866
-0.16111074 -0.00128859 -0.01182424
-0.15927181 -0.00128859 -0.01242492
-0.15817115 -0.00128859 -0.01250000
-0.15738738 -0.00128859 -0.01246445
-0.15593939 -0.00128859 -0.01218005
-0.15465079 -0.00128859 -0.01161126
-0.15352160 -0.00128859 -0.01075807
-0.15301678 -0.00128859 -0.01022483
-0.15256219 -0.00128859 -0.00963266
-0.15183483 -0.00128859 -0.00830799
-0.15134993 -0.00128859 -0.00679625
-0.15110749 -0.00128859 -0.00509742
-0.15107718 -0.00128859 -0.00417785
-0.15107718 -0.00128859 -0.00331879
-0.08119631 0.00000000 -0.00127852
-0.08123280 0.00000000 -0.00050818
-0.08146434 0.00000000 0.00091296
-0.08190730 0.00000000 0.00217471
-0.08256166 0.00000000 0.00327706
-0.08296812 0.00000000 0.00376846
-0.08341852 0.00000000 0.00421204
-0.08442439 0.00000000 0.00492177
-0.08557037 0.00000000 0.00539492
-0.08685644 0.00000000 0.00563150
-0.08755201 0.00000000 0.00566107
-0.08833893 0.00000000 0.00563255
-0.08979195 0.00000000 0.00540436
-0.09108389 0.00000000 0.00494799
-0.09221476 0.00000000 0.00426342
-0.09271980 0.00000000 0.00383557
-0.09317900 0.00000000 0.00335591
-0.09394327 0.00000000 0.00225692
-0.09450199 0.00000000 0.00097169
-0.09485518 0.00000000 -0.00049979
-0.09495470 0.00000000 -0.00130537
-0.08119631 -0.00128859 -0.00127852
-0.08123280 -0.00128859 -0.00050818
-0.08146434 -0.00128859 0.00091296
-0.08190730 -0.00128859 0.00217471
-0.08256166 -0.00128859 0.00327706
-0.08296812 -0.00128859 0.00376846
-0.08341852 -0.00128859 0.00421204
-0.08442439 -0.00128859 0.00492177
-0.08557037 -0.00128859 0.00539492
-0.08685644 -0.00128859 0.00563150
-0.08755201 -0.00128859 0.00566107
-0.08833893 -0.00128859 0.00563255
-0.08979195 -0.00128859 0.00540436
-0.09108389 -0.00128859 0.00494799
-0.09221476 -0.00128859 0.00426342
-0.09271980 -0.00128859 0.00383557
-0.09317900 -0.00128859 0.00335591
-0.09394327 -0.00128859 0.00225692
-0.09450199 -0.00128859 0.00097169
-0.09485518 -0.00128859 -0.00049979
-0.09495470 -0.00128859 -0.00130537
0.09766275 0.00000000 -0.00127852
0.09762626 0.00000000 -0.00050818
0.09739471 0.00000000 0.00091296
0.09695176 0.00000000 0.00217471
0.09629740 0.00000000 0.00327706
0.09589094 0.00000000 0.00376846
0.09544054 0.00000000 0.00421204
0.09443467 0.00000000 0.00492177
0.09328870 0.00000000 0.00539492
0.09200262 0.00000000 0.00563150
0.09130704 0.00000000 0.00566107
0.09052014 0.00000000 0.00563255
0.08906712 0.00000000 0.00540436
0.08777517 0.00000000 0.00494799
0.08664429 0.00000000 0.00426342
0.08613926 0.00000000 0.00383557
0.08568005 0.00000000 0.00335591
0.08491579 0.00000000 0.00225692
0.08435707 0.00000000 0.00097169
0.08400388 0.00000000 -0.00049979
0.08390436 0.00000000 -0.00130537
0.09766275 -0.00128859 -0.00127852
0.09762626 -0.00128859 -0.00050818
0.09739471 -0.00128859 0.00091296
0.09695176 -0.00128859 0.00217471
0.09629740 -0.00128859 0.00327706
0.09589094 -0.00128859 0.00376846
0.09544054 -0.00128859 0.00421204
0.09443467 -0.00128859 0.00492177
0.09328870 -0.00128859 0.00539492
0.09200262 -0.00128859 0.00563150
0.09130704 -0.00128859 0.00566107
0.09052014 -0.00128859 0.00563255
0.08906712 -0.00128859 0.00540436
0.08777517 -0.00128859 0.00494799
0.08664429 -0.00128859 0.00426342
0.08613926 -0.00128859 0.00383557
0.08568005 -0.00128859 0.00335591
0.08491579 -0.00128859 0.00225692
0.08435707 -0.00128859 0.00097169
0.08400388 -0.00128859 -0.00049979
0.08390436 -0.00128859 -0.00130537
0.13537332 0.00000000 -0.00331879
0.13321392 0.00000000 -0.00338549
0.13064808 0.00000000 -0.00373563
0.12938632 0.00000000 -0.00413580
0.12889010 0.00000000 -0.00438591
0.12846696 0.00000000 -0.00467638
0.12778996 0.00000000 -0.00539954
0.12733862 0.00000000 -0.00631229
0.12711294 0.00000000 -0.00741464
0.12708473 0.00000000 -0.00803691
0.12716946 0.00000000 -0.00901091
0.12784731 0.00000000 -0.01064178
0.12844044 0.00000000 -0.01129866
0.12917869 0.00000000 -0.01182424
0.13101761 0.00000000 -0.01242492
0.13211828 0.00000000 -0.01250000
0.13290206 0.00000000 -0.01246445
0.13435005 0.00000000 -0.01218005
0.13563864 0.00000000 -0.01161126
0.13676783 0.00000000 -0.01075807
0.13727266 0.00000000 -0.01022483
0.13772725 0.00000000 -0.00963266
0.13845459 0.00000000 -0.00830799
0.13893950 0.00000000 -0.00679625
0.13918194 0.00000000 -0.00509742
0.13921225 0.00000000 -0.00417785
0.13921225 0.00000000 -0.00331879
0.13537332 -0.00128859 -0.00331879
0.13321392 -0.00128859 -0.00338549
0.13064808 -0.00128859 -0.00373563
0.12938632 -0.00128859 -0.00413580
0.12889010 -0.00128859 -0.00438591
0.12846696 -0.00128859 -0.00467638
0.12778996 -0.00128859 -0.00539954
0.12733862 -0.00128859 -0.00631229
0.12711294 -0.00128859 -0.00741464
0.12708473 -0.00128859 -0.00803691
0.12716946 -0.00128859 -0.00901091
0.12784731 -0.00128859 -0.01064178
0.12844044 -0.00128859 -0.01129866
0.12917869 -0.00128859 -0.01182424
0.13101761 -0.00128859 -0.01242492
0.13211828 -0.00128859 -0.01250000
0.13290206 -0.00128859 -0.01246445
0.13435005 -0.00128859 -0.01218005
0.13563864 -0.00128859 -0.01161126
0.13676783 -0.00128859 -0.01075807
0.13727266 -0.00128859 -0.01022483
0.13772725 -0.00128859 -0.00963266
0.13845459 -0.00128859 -0.00830799
0.13893950 -0.00128859 -0.00679625
0.13918194 -0.00128859 -0.00509742
0.13921225 -0.00128859 -0.00417785
0.13921225 -0.00128859 -0.00331879
0.16320470 0.00000000 0.01250000
0.15250671 0.00000000 -0.00421812
0.16320470 0.00000000 -0.00421812
0.16320470 -0.00128859 0.01250000
0.15250671 -0.00128859 -0.00421812
0.16320470 -0.00128859 -0.00421812
3 1 0 26
3 3 2 1
3 5 4 3
3 7 6 5
3 9 8 7
3 11 10 9
3 13 12 11
3 15 14 13
3 17 16 15
3 19 18 17
3 21 20 19
3 23 22 21
3 25 24 23
3 1 26 25
3 5 3 1
3 9 7 5
3 13 11 9
3 17 15 13
3 21 19 17
3 25 23 21
3 5 1 25
3 13 9 5
3 21 17 13
3 5 25 21
3 21 13 5
3 53 27 28
3 28 29 30
3 30 31 32
3 32 33 34
3 34 35 36
3 36 37 38
3 38 39 40
3 40 41 42
3 42 43 44
3 44 45 46
3 46 47 48
3 48 49 50
3 50 51 52
3 52 53 28
3 28 30 32
3 32 34 36
3 36 38 40
3 40 42 44
3 44 46 48
3 48 50 52
3 52 28 32
3 32 36 40
3 40 44 48
3 48 52 32
3 32 40 48
3 28 27 1
3 1 27 0
3 29 28 2
3 2 28 1
3 30 29 3
3 3 29 2
3 31 30 4
3 4 30 3
3 32 31 5
3 5 31 4
3 33 32 6
3 6 32 5
3 34 33 7
3 7 33 6
3 35 34 8
3 8 34 7
3 36 35 9
3 9 35 8
3 37 36 10
3 10 36 9
3 38 37 11
3 11 37 10
3 39 38 12
3 12 38 11
3 40 39 13
3 13 39 12
3 41 40 14
3 14 40 13
3 42 41 15
3 15 41 14
3 43 42 16
3 16 42 15
3 44 43 17
3 17 43 16
3 45 44 18
3 18 44 17
3 46 45 19
3 19 45 18
3 47 46 20
3 20 46 19
3 48 47 21
3 21 47 20
3 49 48 22
3 22 48 21
3 50 49 23
3 23 49 22
3 51 50 24
3 24 50 23
3 52 51 25
3 25 51 24
3 27 53 0
3 0 53 26
3 53 52 26
3 26 52 25
3 55 54 74
3 57 56 55
3 59 58 57
3 61 60 59
3 63 62 61
3 65 64 63
3 67 66 65
3 69 68 67
3 71 70 69
3 73 72 71
3 55 74 73
3 59 57 55
3 63 61 59
3 67 65 63
3 71 69 67
3 55 73 71
3 63 59 55
3 71 67 63
3 63 55 71
3 95 75 76
3 76 77 78
3 78 79 80
3 80 81 82
3 82 83 84
3 84 85 86
3 86 87 88
3 88 89 90
3 90 91 92
3 92 93 94
3 94 95 76
3 76 78 80
3 80 82 84
3 84 86 88
3 88 90 92
3 92 94 76
3 76 80 84
3 84 88 92
3 92 76 84
3 76 75 55
3 55 75 54
3 77 76 56
3 56 76 55
3 78 77 57
3 57 77 56
3 79 78 58
3 58 78 57
3 80 79 59
3 59 79 58
3 81 80 60
3 60 80 59
3 82 81 61
3 61 81 60
3 83 82 62
3 62 82 61
3 84 83 63
3 63 83 62
3 85 84 64
3 64 84 63
3 86 85 65
3 65 85 64
3 87 86 66
3 66 86 65
3 88 87 67
3 67 87 66
3 89 88 68
3 68 88 67
3 90 89 69
3 69 89 68
3 91 90 70
3 70 90 69
3 92 91 71
3 71 91 70
3 93 92 72
3 72 92 71
3 94 93 73
3 73 93 72
3 75 95 54
3 54 95 74
3 95 94 74
3 74 94 73
3 97 96 116
3 99 98 97
3 101 100 99
3 103 102 101
3 105 104 103
3 107 106 105
3 109 108 107
3 111 110 109
3 113 112 111
3 115 114 113
3 97 116 115
3 101 99 97
3 105 103 101
3 109 107 105
3 113 111 109
3 97 115 113
3 105 101 97
3 113 109 105
3 105 97 113
3 137 117 118
3 118 119 120
3 120 121 122
3 122 123 124
3 124 125 126
3 126 127 128
3 128 129 130
3 130 131 132
3 132 133 134
3 134 135 136
3 136 137 118
3 118 120 122
3 122 124 126
3 126 128 130
3 130 132 134
3 134 136 118
3 118 122 126
3 126 130 134
3 134 118 126
3 118 117 97
3 97 117 96
3 119 118 98
3 98 118 97
3 120 119 99
3 99 119 98
3 121 120 100
3 100 120 99
3 122 121 101
3 101 121 100
3 123 122 102
3 102 122 101
3 124 123 103
3 103 123 102
3 125 124 104
3 104 124 103
3 126 125 105
3 105 125 104
3 127 126 106
3 106 126 105
3 128 127 107
3 107 127 106
3 129 128 108
3 108 128 107
3 130 129 109
3 109 129 108
3 131 130 110
3 110 130 109
3 132 131 111
3 111 131 110
3 133 132 112
3 112 132 111
3 134 133 113
3 113 133 112
3 135 134 114
3 114 134 113
3 136 135 115
3 115 135 114
3 117 137 96
3 96 137 116
3 137 136 116
3 116 136 115
3 139 138 164
3 141 140 139
3 143 142 141
3 145 144 143
3 147 146 145
3 149 148 147
3 151 150 149
3 153 152 151
3 155 154 153
3 157 156 155
3 159 158 157
3 161 160 159
3 163 162 161
3 139 164 163
3 143 141 139
3 147 145 143
3 151 149 147
3 155 153 151
3 159 157 155
3 163 161 159
3 143 139 163
3 151 147 143
3 159 155 151
3 143 163 159
3 159 151 143
3 191 165 166
3 166 167 168
3 168 169 170
3 170 171 172
3 172 173 174
3 174 175 176
3 176 177 178
3 178 179 180
3 180 181 182
3 182 183 184
3 184 185 186
3 186 187 188
3 188 189 190
3 190 191 166
3 166 168 170
3 170 172 174
3 174 176 178
3 178 180 182
3 182 184 186
3 186 188 190
3 190 166 170
3 170 174 178
3 178 182 186
3 186 190 170
3 170 178 186
3 166 165 139
3 139 165 138
3 167 166 140
3 140 166 139
3 168 167 141
3 141 167 140
3 169 168 142
3 142 168 141
3 170 169 143
3 143 169 142
3 171 170 144
3 144 170 143
3 172 171 145
3 145 171 144
3 173 172 146
3 146 172 145
3 174 173 147
3 147 173 146
3 175 174 148
3 148 174 147
3 176 175 149
3 149 175 148
3 177 176 150
3 150 176 149
3 178 177 151
3 151 177 150
3 179 178 152
3 152 178 151
3 180 179 153
3 153 179 152
3 181 180 154
3 154 180 153
3 182 181 155
3 155 181 154
3 183 182 156
3 156 182 155
3 184 183 157
3 157 183 156
3 185 184 158
3 158 184 157
3 186 185 159
3 159 185 158
3 187 186 160
3 160 186 159
3 188 187 161
3 161 187 160
3 189 188 162
3 162 188 161
3 190 189 163
3 163 189 162
3 165 191 138
3 138 191 164
3 191 190 164
3 164 190 163
3 193 192 194
3 197 195 196
3 196 195 193
3 193 195 192
3 195 197 192
3 192 197 194
3 197 196 194
3 194 196 193
