ply
format ascii 1.0
comment https://github.com/mikedh/trimesh
element vertex 244
property float x
property float y
property float z
element face 472
property list uchar int vertex_indices
end_header
-0.14263542 0.00000000 0.01250000
-0.14367694 0.00000000 0.01244777
-0.14559245 0.00000000 0.01202995
-0.14728458 0.00000000 0.01119430
-0.14875333 0.00000000 0.00994083
-0.14940393 0.00000000 0.00915741
-0.14998770 0.00000000 0.00828313
-0.15092173 0.00000000 0.00630281
-0.15154442 0.00000000 0.00401346
-0.15185575 0.00000000 0.00141508
-0.15189467 0.00000000 0.00000000
-0.15185605 0.00000000 -0.00141508
-0.15154701 0.00000000 -0.00401346
-0.15092896 0.00000000 -0.00630281
-0.15000188 0.00000000 -0.00828313
-0.14942245 0.00000000 -0.00915741
-0.14877358 0.00000000 -0.00994083
-0.14730483 0.00000000 -0.01119430
-0.14560807 0.00000000 -0.01202995
-0.14368330 0.00000000 -0.01244777
-0.14263542 0.00000000 -0.01250000
-0.14159837 0.00000000 -0.01244763
-0.13969097 0.00000000 -0.01202865
-0.13800579 0.00000000 -0.01119068
-0.13654283 0.00000000 -0.00993374
-0.13589467 0.00000000 -0.00914815
-0.13531090 0.00000000 -0.00826997
-0.13437688 0.00000000 -0.00628617
-0.13375419 0.00000000 -0.00399913
-0.13344285 0.00000000 -0.00140885
-0.13340394 0.00000000 0.00000000
-0.13344285 0.00000000 0.00140249
-0.13375419 0.00000000 0.00398351
-0.13437688 0.00000000 0.00626591
-0.13531090 0.00000000 0.00824971
-0.13589467 0.00000000 0.00912963
-0.13654283 0.00000000 0.00991956
-0.13800579 0.00000000 0.01118345
-0.13969097 0.00000000 0.01202604
-0.14159837 0.00000000 0.01244734
-0.14263542 -0.00177778 0.01250000
-0.14367694 -0.00177778 0.01244777
-0.14559245 -0.00177778 0.01202995
-0.14728458 -0.00177778 0.01119430
-0.14875333 -0.00177778 0.00994083
-0.14940393 -0.00177778 0.00915741
-0.14998770 -0.00177778 0.00828313
-0.15092173 -0.00177778 0.00630281
-0.15154442 -0.00177778 0.00401346
-0.15185575 -0.00177778 0.00141508
-0.15189467 -0.00177778 0.00000000
-0.15185605 -0.00177778 -0.00141508
-0.15154701 -0.00177778 -0.00401346
-0.15092896 -0.00177778 -0.00630281
-0.15000188 -0.00177778 -0.00828313
-0.14942245 -0.00177778 -0.00915741
-0.14877358 -0.00177778 -0.00994083
-0.14730483 -0.00177778 -0.01119430
-0.14560807 -0.00177778 -0.01202995
-0.14368330 -0.00177778 -0.01244777
-0.14263542 -0.00177778 -0.01250000
-0.14159837 -0.00177778 -0.01244763
-0.13969097 -0.00177778 -0.01202865
-0.13800579 -0.00177778 -0.01119068
-0.13654283 -0.00177778 -0.00993374
-0.13589467 -0.00177778 -0.00914815
-0.13531090 -0.00177778 -0.00826997
-0.13437688 -0.00177778 -0.00628617
-0.13375419 -0.00177778 -0.00399913
-0.13344285 -0.00177778 -0.00140885
-0.13340394 -0.00177778 0.00000000
-0.13344285 -0.00177778 0.00140249
-0.13375419 -0.00177778 0.00398351
-0.13437688 -0.00177778 0.00626591
-0.13531090 -0.00177778 0.00824971
-0.13589467 -0.00177778 0.00912963
-0.13654283 -0.00177778 0.00991956
-0.13800579 -0.00177778 0.01118345
-0.13969097 -0.00177778 0.01202604
-0.14159837 -0.00177778 0.01244734
-0.04092593 0.00000000 0.00292593
-0.04097627 0.00000000 0.00398872
-0.04129572 0.00000000 0.00594936
-0.04190683 0.00000000 0.00769010
-0.04280961 0.00000000 0.00921094
-0.04337037 0.00000000 0.00988889
-0.04399175 0.00000000 0.01050087
-0.04537949 0.00000000 0.01148003
-0.04696050 0.00000000 0.01213281
-0.04873481 0.00000000 0.01245920
-0.04969444 0.00000000 0.01250000
-0.05078009 0.00000000 0.01246065
-0.05278472 0.00000000 0.01214583
-0.05456713 0.00000000 0.01151620
-0.05612731 0.00000000 0.01057176
-0.05682407 0.00000000 0.00998148
-0.05745761 0.00000000 0.00931973
-0.05851201 0.00000000 0.00780353
-0.05928284 0.00000000 0.00603038
-0.05977011 0.00000000 0.00400029
-0.05990741 0.00000000 0.00288889
-0.04092593 -0.00177778 0.00292593
-0.04097627 -0.00177778 0.00398872
-0.04129572 -0.00177778 0.00594936
-0.04190683 -0.00177778 0.00769010
-0.04280961 -0.00177778 0.00921094
-0.04337037 -0.00177778 0.00988889
-0.04399175 -0.00177778 0.01050087
-0.04537949 -0.00177778 0.01148003
-0.04696050 -0.00177778 0.01213281
-0.04873481 -0.00177778 0.01245920
-0.04969444 -0.00177778 0.01250000
-0.05078009 -0.00177778 0.01246065
-0.05278472 -0.00177778 0.01214583
-0.05456713 -0.00177778 0.01151620
-0.05612731 -0.00177778 0.01057176
-0.05682407 -0.00177778 0.00998148
-0.05745761 -0.00177778 0.00931973
-0.05851201 -0.00177778 0.00780353
-0.05928284 -0.00177778 0.00603038
-0.05977011 -0.00177778 0.00400029
-0.05990741 -0.00177778 0.00288889
0.06023148 0.00000000 0.00292593
0.06018113 0.00000000 0.00398872
0.05986169 0.00000000 0.00594936
0.05925058 0.00000000 0.00769010
0.05834780 0.00000000 0.00921094
0.05778704 0.00000000 0.00988889
0.05716565 0.00000000 0.01050087
0.05577792 0.00000000 0.01148003
0.05419691 0.00000000 0.01213281
0.05242260 0.00000000 0.01245920
0.05146296 0.00000000 0.01250000
0.05037731 0.00000000 0.01246065
0.04837269 0.00000000 0.01214583
0.04659028 0.00000000 0.01151620
0.04503009 0.00000000 0.01057176
0.04433334 0.00000000 0.00998148
0.04369980 0.00000000 0.00931973
0.04264540 0.00000000 0.00780353
0.04187457 0.00000000 0.00603038
0.04138730 0.00000000 0.00400029
0.04125000 0.00000000 0.00288889
0.06023148 -0.00177778 0.00292593
0.06018113 -0.00177778 0.00398872
0.05986169 -0.00177778 0.00594936
0.05925058 -0.00177778 0.00769010
0.05834780 -0.00177778 0.00921094
0.05778704 -0.00177778 0.00988889
0.05716565 -0.00177778 0.01050087
0.05577792 -0.00177778 0.01148003
0.05419691 -0.00177778 0.01213281
0.05242260 -0.00177778 0.01245920
0.05146296 -0.00177778 0.01250000
0.05037731 -0.00177778 0.01246065
0.04837269 -0.00177778 0.01214583
0.04659028 -0.00177778 0.01151620
0.04503009 -0.00177778 0.01057176
0.04433334 -0.00177778 0.00998148
0.04369980 -0.00177778 0.00931973
0.04264540 -0.00177778 0.00780353
0.04187457 -0.00177778 0.00603038
0.04138730 -0.00177778 0.00400029
0.04125000 -0.00177778 0.00288889
0.14266320 0.00000000 0.01250000
0.14162168 0.00000000 0.01244777
0.13970616 0.00000000 0.01202995
0.13801403 0.00000000 0.01119430
0.13654529 0.00000000 0.00994083
0.13589467 0.00000000 0.00915741
0.13531090 0.00000000 0.00828313
0.13437688 0.00000000 0.00630281
0.13375419 0.00000000 0.00401346
0.13344285 0.00000000 0.00141508
0.13340394 0.00000000 0.00000000
0.13344257 0.00000000 -0.00141508
0.13375159 0.00000000 -0.00401346
0.13436964 0.00000000 -0.00630281
0.13529673 0.00000000 -0.00828313
0.13587616 0.00000000 -0.00915741
0.13652503 0.00000000 -0.00994083
0.13799378 0.00000000 -0.01119430
0.13969053 0.00000000 -0.01202995
0.14161530 0.00000000 -0.01244777
0.14266320 0.00000000 -0.01250000
0.14370023 0.00000000 -0.01244763
0.14560764 0.00000000 -0.01202865
0.14729282 0.00000000 -0.01119068
0.14875579 0.00000000 -0.00993374
0.14940393 0.00000000 -0.00914815
0.14998770 0.00000000 -0.00826997
0.15092173 0.00000000 -0.00628617
0.15154442 0.00000000 -0.00399913
0.15185575 0.00000000 -0.00140885
0.15189467 0.00000000 0.00000000
0.15185575 0.00000000 0.00140249
0.15154442 0.00000000 0.00398351
0.15092173 0.00000000 0.00626591
0.14998770 0.00000000 0.00824971
0.14940393 0.00000000 0.00912963
0.14875579 0.00000000 0.00991956
0.14729282 0.00000000 0.01118345
0.14560764 0.00000000 0.01202604
0.14370023 0.00000000 0.01244734
0.14266320 -0.00177778 0.01250000
0.14162168 -0.00177778 0.01244777
0.13970616 -0.00177778 0.01202995
0.13801403 -0.00177778 0.01119430
0.13654529 -0.00177778 0.00994083
0.13589467 -0.00177778 0.00915741
0.13531090 -0.00177778 0.00828313
0.13437688 -0.00177778 0.00630281
0.13375419 -0.00177778 0.00401346
0.13344285 -0.00177778 0.00141508
0.13340394 -0.00177778 0.00000000
0.13344257 -0.00177778 -0.00141508
0.13375159 -0.00177778 -0.00401346
0.13436964 -0.00177778 -0.00630281
0.13529673 -0.00177778 -0.00828313
0.13587616 -0.00177778 -0.00915741
0.13652503 -0.00177778 -0.00994083
0.13799378 -0.00177778 -0.01119430
0.13969053 -0.00177778 -0.01202995
0.14161530 -0.00177778 -0.01244777
0.14266320 -0.00177778 -0.01250000
0.14370023 -0.00177778 -0.01244763
0.14560764 -0.00177778 -0.01202865
0.14729282 -0.00177778 -0.01119068
0.14875579 -0.00177778 -0.00993374
0.14940393 -0.00177778 -0.00914815
0.14998770 -0.00177778 -0.00826997
0.15092173 -0.00177778 -0.00628617
0.15154442 -0.00177778 -0.00399913
0.15185575 -0.00177778 -0.00140885
0.15189467 -0.00177778 0.00000000
0.15185575 -0.00177778 0.00140249
0.15154442 -0.00177778 0.00398351
0.15092173 -0.00177778 0.00626591
0.14998770 -0.00177778 0.00824971
0.14940393 -0.00177778 0.00912963
0.14875579 -0.00177778 0.00991956
0.14729282 -0.00177778 0.01118345
0.14560764 -0.00177778 0.01202604
0.14370023 -0.00177778 0.01244734
3 1 0 39
3 3 2 1
3 5 4 3
3 7 6 5
3 9 8 7
3 11 10 9
3 13 12 11
3 15 14 13
3 17 16 15
3 19 18 17
3 21 20 19
3 23 22 21
3 25 24 23
3 27 26 25
3 29 28 27
3 31 30 29
3 33 32 31
3 35 34 33
3 37 36 35
3 39 38 37
3 3 1 39
3 7 5 3
3 11 9 7
3 15 13 11
3 19 17 15
3 23 21 19
3 27 25 23
3 31 29 27
3 35 33 31
3 39 37 35
3 7 3 39
3 15 11 7
3 23 19 15
3 31 27 23
3 39 35 31
3 15 7 39
3 31 23 15
3 15 39 31
3 79 40 41
3 41 42 43
3 43 44 45
3 45 46 47
3 47 48 49
3 49 50 51
3 51 52 53
3 53 54 55
3 55 56 57
3 57 58 59
3 59 60 61
3 61 62 63
3 63 64 65
3 65 66 67
3 67 68 69
3 69 70 71
3 71 72 73
3 73 74 75
3 75 76 77
3 77 78 79
3 79 41 43
3 43 45 47
3 47 49 51
3 51 53 55
3 55 57 59
3 59 61 63
3 63 65 67
3 67 69 71
3 71 73 75
3 75 77 79
3 79 43 47
3 47 51 55
3 55 59 63
3 63 67 71
3 71 75 79
3 79 47 55
3 55 63 71
3 71 79 55
3 41 40 1
3 1 40 0
3 42 41 2
3 2 41 1
3 43 42 3
3 3 42 2
3 44 43 4
3 4 43 3
3 45 44 5
3 5 44 4
3 46 45 6
3 6 45 5
3 47 46 7
3 7 46 6
3 48 47 8
3 8 47 7
3 49 48 9
3 9 48 8
3 50 49 10
3 10 49 9
3 51 50 11
3 11 50 10
3 52 51 12
3 12 51 11
3 53 52 13
3 13 52 12
3 54 53 14
3 14 53 13
3 55 54 15
3 15 54 14
3 56 55 16
3 16 55 15
3 57 56 17
3 17 56 16
3 58 57 18
3 18 57 17
3 59 58 19
3 19 58 18
3 60 59 20
3 20 59 19
3 61 60 21
3 21 60 20
3 62 61 22
3 22 61 21
3 63 62 23
3 23 62 22
3 64 63 24
3 24 63 23
3 65 64 25
3 25 64 24
3 66 65 26
3 26 65 25
3 67 66 27
3 27 66 26
3 68 67 28
3 28 67 27
3 69 68 29
3 29 68 28
3 70 69 30
3 30 69 29
3 71 70 31
3 31 70 30
3 72 71 32
3 32 71 31
3 73 72 33
3 33 72 32
3 74 73 34
3 34 73 33
3 75 74 35
3 35 74 34
3 76 75 36
3 36 75 35
3 77 76 37
3 37 76 36
3 78 77 38
3 38 77 37
3 40 79 0
3 0 79 39
3 79 78 39
3 39 78 38
3 81 80 100
3 83 82 81
3 85 84 83
3 87 86 85
3 89 88 87
3 91 90 89
3 93 92 91
3 95 94 93
3 97 96 95
3 99 98 97
3 81 100 99
3 85 83 81
3 89 87 85
3 93 91 89
3 97 95 93
3 81 99 97
3 89 85 81
3 97 93 89
3 89 81 97
3 121 101 102
3 102 103 104
3 104 105 106
3 106 107 108
3 108 109 110
3 110 111 112
3 112 113 114
3 114 115 116
3 116 117 118
3 118 119 120
3 120 121 102
3 102 104 106
3 106 108 110
3 110 112 114
3 114 116 118
3 118 120 102
3 102 106 110
3 110 114 118
3 118 102 110
3 102 101 81
3 81 101 80
3 103 102 82
3 82 102 81
3 104 103 83
3 83 103 82
3 105 104 84
3 84 104 83
3 106 105 85
3 85 105 84
3 107 106 86
3 86 106 85
3 108 107 87
3 87 107 86
3 109 108 88
3 88 108 87
3 110 109 89
3 89 109 88
3 111 110 90
3 90 110 89
3 112 111 91
3 91 111 90
3 113 112 92
3 92 112 91
3 114 113 93
3 93 113 92
3 115 114 94
3 94 114 93
3 116 115 95
3 95 115 94
3 117 116 96
3 96 116 95
3 118 117 97
3 97 117 96
3 119 118 98
3 98 118 97
3 120 119 99
3 99 119 98
3 101 121 80
3 80 121 100
3 121 120 100
3 100 120 99
3 123 122 142
3 125 124 123
3 127 126 125
3 129 128 127
3 131 130 129
3 133 132 131
3 135 134 133
3 137 136 135
3 139 138 137
3 141 140 139
3 123 142 141
3 127 125 123
3 131 129 127
3 135 133 131
3 139 137 135
3 123 141 139
3 131 127 123
3 139 135 131
3 131 123 139
3 163 143 144
3 144 145 146
3 146 147 148
3 148 149 150
3 150 151 152
3 152 153 154
3 154 155 156
3 156 157 158
3 158 159 160
3 160 161 162
3 162 163 144
3 144 146 148
3 148 150 152
3 152 154 156
3 156 158 160
3 160 162 144
3 144 148 152
3 152 156 160
3 160 144 152
3 144 143 123
3 123 143 122
3 145 144 124
3 124 144 123
3 146 145 125
3 125 145 124
3 147 146 126
3 126 146 125
3 148 147 127
3 127 147 126
3 149 148 128
3 128 148 127
3 150 149 129
3 129 149 128
3 151 150 130
3 130 150 129
3 152 151 131
3 131 151 130
3 153 152 132
3 132 152 131
3 154 153 133
3 133 153 132
3 155 154 134
3 134 154 133
3 156 155 135
3 135 155 134
3 157 156 136
3 136 156 135
3 158 157 137
3 137 157 136
3 159 158 138
3 138 158 137
3 160 159 139
3 139 159 138
3 161 160 140
3 140 160 139
3 162 161 141
3 141 161 140
3 143 163 122
3 122 163 142
3 163 162 142
3 142 162 141
3 165 164 203
3 167 166 165
3 169 168 167
3 171 170 169
3 173 172 171
3 175 174 173
3 177 176 175
3 179 178 177
3 181 180 179
3 183 182 181
3 185 184 183
3 187 186 185
3 189 188 187
3 191 190 189
3 193 192 191
3 195 194 193
3 197 196 195
3 199 198 197
3 201 200 199
3 203 202 201
3 167 165 203
3 171 169 167
3 175 173 171
3 179 177 175
3 183 181 179
3 187 185 183
3 191 189 187
3 195 193 191
3 199 197 195
3 203 201 199
3 171 167 203
3 179 175 171
3 187 183 179
3 195 191 187
3 203 199 195
3 179 171 203
3 195 187 179
3 179 203 195
3 243 204 205
3 205 206 207
3 207 208 209
3 209 210 211
3 211 212 213
3 213 214 215
3 215 216 217
3 217 218 219
3 219 220 221
3 221 222 223
3 223 224 225
3 225 226 227
3 227 228 229
3 229 230 231
3 231 232 233
3 233 234 235
3 235 236 237
3 237 238 239
3 239 240 241
3 241 242 243
3 243 205 207
3 207 209 211
3 211 213 215
3 215 217 219
3 219 221 223
3 223 225 227
3 227 229 231
3 231 233 235
3 235 237 239
3 239 241 243
3 243 207 211
3 211 215 219
3 219 223 227
3 227 231 235
3 235 239 243
3 243 211 219
3 219 227 235
3 235 243 219
3 205 204 165
3 165 204 164
3 206 205 166
3 166 205 165
3 207 206 167
3 167 206 166
3 208 207 168
3 168 207 167
3 209 208 169
3 169 208 168
3 210 209 170
3 170 209 169
3 211 210 171
3 171 210 170
3 212 211 172
3 172 211 171
3 213 212 173
3 173 212 172
3 214 213 174
3 174 213 173
3 215 214 175
3 175 214 174
3 216 215 176
3 176 215 175
3 217 216 177
3 177 216 176
3 218 217 178
3 178 217 177
3 219 218 179
3 179 218 178
3 220 219 180
3 180 219 179
3 221 220 181
3 181 220 180
3 222 221 182
3 182 221 181
3 223 222 183
3 183 222 182
3 224 223 184
3 184 223 183
3 225 224 185
3 185 224 184
3 226 225 186
3 186 225 185
3 227 226 187
3 187 226 186
3 228 227 188
3 188 227 187
3 229 228 189
3 189 228 188
3 230 229 190
3 190 229 189
3 231 230 191
3 191 230 190
3 232 231 192
3 192 231 191
3 233 232 193
3 193 232 192
3 234 233 194
3 194 233 193
3 235 234 195
3 195 234 194
3 236 235 196
3 196 235 195
3 237 236 197
3 197 236 196
3 238 237 198
3 198 237 197
3 239 238 199
3 199 238 198
3 240 239 200
3 200 239 199
3 241 240 201
3 201 240 200
3 242 241 202
3 202 241 201
3 204 243 164
3 164 243 203
3 243 242 203
3 203 242 202
