ply
format ascii 1.0
comment https://github.com/mikedh/trimesh
element vertex 244
property float x
property float y
property float z
element face 472
property list uchar int vertex_indices
end_header
-0.08361755 0.00000000 -0.00173457
-0.08365294 0.00000000 -0.00098750
-0.08387749 0.00000000 0.00039073
-0.08430707 0.00000000 0.00161437
-0.08494166 0.00000000 0.00268342
-0.08533585 0.00000000 0.00315998
-0.08577265 0.00000000 0.00359017
-0.08674814 0.00000000 0.00427847
-0.08785950 0.00000000 0.00473733
-0.08910674 0.00000000 0.00496676
-0.08978131 0.00000000 0.00499544
-0.09054445 0.00000000 0.00496778
-0.09195359 0.00000000 0.00474649
-0.09320652 0.00000000 0.00430389
-0.09430324 0.00000000 0.00364000
-0.09479302 0.00000000 0.00322507
-0.09523837 0.00000000 0.00275990
-0.09597954 0.00000000 0.00169410
-0.09652139 0.00000000 0.00044768
-0.09686392 0.00000000 -0.00097936
-0.09696043 0.00000000 -0.00176061
-0.08361755 -0.00124967 -0.00173457
-0.08365294 -0.00124967 -0.00098750
-0.08387749 -0.00124967 0.00039073
-0.08430707 -0.00124967 0.00161437
-0.08494166 -0.00124967 0.00268342
-0.08533585 -0.00124967 0.00315998
-0.08577265 -0.00124967 0.00359017
-0.08674814 -0.00124967 0.00427847
-0.08785950 -0.00124967 0.00473733
-0.08910674 -0.00124967 0.00496676
-0.08978131 -0.00124967 0.00499544
-0.09054445 -0.00124967 0.00496778
-0.09195359 -0.00124967 0.00474649
-0.09320652 -0.00124967 0.00430389
-0.09430324 -0.00124967 0.00364000
-0.09479302 -0.00124967 0.00322507
-0.09523837 -0.00124967 0.00275990
-0.09597954 -0.00124967 0.00169410
-0.09652139 -0.00124967 0.00044768
-0.09686392 -0.00124967 -0.00097936
-0.09696043 -0.00124967 -0.00176061
0.02404078 0.00000000 -0.00173457
0.02400539 0.00000000 -0.00098750
0.02378084 0.00000000 0.00039073
0.02335126 0.00000000 0.00161437
0.02271666 0.00000000 0.00268342
0.02232247 0.00000000 0.00315998
0.02188568 0.00000000 0.00359017
0.02091018 0.00000000 0.00427847
0.01979882 0.00000000 0.00473733
0.01855159 0.00000000 0.00496676
0.01787702 0.00000000 0.00499544
0.01711387 0.00000000 0.00496778
0.01570473 0.00000000 0.00474649
0.01445180 0.00000000 0.00430389
0.01335508 0.00000000 0.00364000
0.01286530 0.00000000 0.00322507
0.01241996 0.00000000 0.00275990
0.01167878 0.00000000 0.00169410
0.01113693 0.00000000 0.00044768
0.01079441 0.00000000 -0.00097936
0.01069790 0.00000000 -0.00176061
0.02404078 -0.00124967 -0.00173457
0.02400539 -0.00124967 -0.00098750
0.02378084 -0.00124967 0.00039073
0.02335126 -0.00124967 0.00161437
0.02271666 -0.00124967 0.00268342
0.02232247 -0.00124967 0.00315998
0.02188568 -0.00124967 0.00359017
0.02091018 -0.00124967 0.00427847
0.01979882 -0.00124967 0.00473733
0.01855159 -0.00124967 0.00496676
0.01787702 -0.00124967 0.00499544
0.01711387 -0.00124967 0.00496778
0.01570473 -0.00124967 0.00474649
0.01445180 -0.00124967 0.00430389
0.01335508 -0.00124967 0.00364000
0.01286530 -0.00124967 0.00322507
0.01241996 -0.00124967 0.00275990
0.01167878 -0.00124967 0.00169410
0.01113693 -0.00124967 0.00044768
0.01079441 -0.00124967 -0.00097936
0.01069790 -0.00124967 -0.00176061
0.06406616 0.00000000 0.01250000
0.06329823 0.00000000 0.01245118
0.06190943 0.00000000 0.01206066
0.06071671 0.00000000 0.01127961
0.05972007 0.00000000 0.01010804
0.05929527 0.00000000 0.00937581
0.05892152 0.00000000 0.00854717
0.05832354 0.00000000 0.00659456
0.05792488 0.00000000 0.00424816
0.05772555 0.00000000 0.00150799
0.05770063 0.00000000 -0.00000976
0.05772555 0.00000000 -0.00152152
0.05792488 0.00000000 -0.00425274
0.05832354 0.00000000 -0.00659425
0.05892152 0.00000000 -0.00854605
0.05929527 0.00000000 -0.00937581
0.05972007 0.00000000 -0.01010804
0.06071671 0.00000000 -0.01127961
0.06190943 0.00000000 -0.01206066
0.06329823 0.00000000 -0.01245118
0.06406616 0.00000000 -0.01250000
0.06484009 0.00000000 -0.01245118
0.06623784 0.00000000 -0.01206066
0.06743544 0.00000000 -0.01127961
0.06843290 0.00000000 -0.01010804
0.06885658 0.00000000 -0.00937581
0.06923185 0.00000000 -0.00854605
0.06983228 0.00000000 -0.00659425
0.07023256 0.00000000 -0.00425274
0.07043271 0.00000000 -0.00152152
0.07045773 0.00000000 -0.00000976
0.07043271 0.00000000 0.00150799
0.07023256 0.00000000 0.00424816
0.06983228 0.00000000 0.00659456
0.06923185 0.00000000 0.00854717
0.06885658 0.00000000 0.00937581
0.06843290 0.00000000 0.01010804
0.06743544 0.00000000 0.01127961
0.06623784 0.00000000 0.01206066
0.06484009 0.00000000 0.01245118
0.06406616 -0.00124967 0.01250000
0.06329823 -0.00124967 0.01245118
0.06190943 -0.00124967 0.01206066
0.06071671 -0.00124967 0.01127961
0.05972007 -0.00124967 0.01010804
0.05929527 -0.00124967 0.00937581
0.05892152 -0.00124967 0.00854717
0.05832354 -0.00124967 0.00659456
0.05792488 -0.00124967 0.00424816
0.05772555 -0.00124967 0.00150799
0.05770063 -0.00124967 -0.00000976
0.05772555 -0.00124967 -0.00152152
0.05792488 -0.00124967 -0.00425274
0.05832354 -0.00124967 -0.00659425
0.05892152 -0.00124967 -0.00854605
0.05929527 -0.00124967 -0.00937581
0.05972007 -0.00124967 -0.01010804
0.06071671 -0.00124967 -0.01127961
0.06190943 -0.00124967 -0.01206066
0.06329823 -0.00124967 -0.01245118
0.06406616 -0.00124967 -0.01250000
0.06484009 -0.00124967 -0.01245118
0.06623784 -0.00124967 -0.01206066
0.06743544 -0.00124967 -0.01127961
0.06843290 -0.00124967 -0.01010804
0.06885658 -0.00124967 -0.00937581
0.06923185 -0.00124967 -0.00854605
0.06983228 -0.00124967 -0.00659425
0.07023256 -0.00124967 -0.00425274
0.07043271 -0.00124967 -0.00152152
0.07045773 -0.00124967 -0.00000976
0.07043271 -0.00124967 0.00150799
0.07023256 -0.00124967 0.00424816
0.06983228 -0.00124967 0.00659456
0.06923185 -0.00124967 0.00854717
0.06885658 -0.00124967 0.00937581
0.06843290 -0.00124967 0.01010804
0.06743544 -0.00124967 0.01127961
0.06623784 -0.00124967 0.01206066
0.06484009 -0.00124967 0.01245118
0.09056886 0.00000000 0.01250000
0.08980093 0.00000000 0.01245118
0.08841214 0.00000000 0.01206066
0.08721941 0.00000000 0.01127961
0.08622277 0.00000000 0.01010804
0.08579797 0.00000000 0.00937581
0.08542423 0.00000000 0.00854717
0.08482624 0.00000000 0.00659456
0.08442758 0.00000000 0.00424816
0.08422825 0.00000000 0.00150799
0.08420333 0.00000000 -0.00000976
0.08422825 0.00000000 -0.00152152
0.08442758 0.00000000 -0.00425274
0.08482624 0.00000000 -0.00659425
0.08542423 0.00000000 -0.00854605
0.08579797 0.00000000 -0.00937581
0.08622277 0.00000000 -0.01010804
0.08721941 0.00000000 -0.01127961
0.08841214 0.00000000 -0.01206066
0.08980093 0.00000000 -0.01245118
0.09056886 0.00000000 -0.01250000
0.09134279 0.00000000 -0.01245118
0.09274054 0.00000000 -0.01206066
0.09393814 0.00000000 -0.01127961
0.09493560 0.00000000 -0.01010804
0.09535928 0.00000000 -0.00937581
0.09573455 0.00000000 -0.00854605
0.09633498 0.00000000 -0.00659425
0.09673527 0.00000000 -0.00425274
0.09693541 0.00000000 -0.00152152
0.09696043 0.00000000 -0.00000976
0.09693541 0.00000000 0.00150799
0.09673527 0.00000000 0.00424816
0.09633498 0.00000000 0.00659456
0.09573455 0.00000000 0.00854717
0.09535928 0.00000000 0.00937581
0.09493560 0.00000000 0.01010804
0.09393814 0.00000000 0.01127961
0.09274054 0.00000000 0.01206066
0.09134279 0.00000000 0.01245118
0.09056886 -0.00124967 0.01250000
0.08980093 -0.00124967 0.01245118
0.08841214 -0.00124967 0.01206066
0.08721941 -0.00124967 0.01127961
0.08622277 -0.00124967 0.01010804
0.08579797 -0.00124967 0.00937581
0.08542423 -0.00124967 0.00854717
0.08482624 -0.00124967 0.00659456
0.08442758 -0.00124967 0.00424816
0.08422825 -0.00124967 0.00150799
0.08420333 -0.00124967 -0.00000976
0.08422825 -0.00124967 -0.00152152
0.08442758 -0.00124967 -0.00425274
0.08482624 -0.00124967 -0.00659425
0.08542423 -0.00124967 -0.00854605
0.08579797 -0.00124967 -0.00937581
0.08622277 -0.00124967 -0.01010804
0.08721941 -0.00124967 -0.01127961
0.08841214 -0.00124967 -0.01206066
0.08980093 -0.00124967 -0.01245118
0.09056886 -0.00124967 -0.01250000
0.09134279 -0.00124967 -0.01245118
0.09274054 -0.00124967 -0.01206066
0.09393814 -0.00124967 -0.01127961
0.09493560 -0.00124967 -0.01010804
0.09535928 -0.00124967 -0.00937581
0.09573455 -0.00124967 -0.00854605
0.09633498 -0.00124967 -0.00659425
0.09673527 -0.00124967 -0.00425274
0.09693541 -0.00124967 -0.00152152
0.09696043 -0.00124967 -0.00000976
0.09693541 -0.00124967 0.00150799
0.09673527 -0.00124967 0.00424816
0.09633498 -0.00124967 0.00659456
0.09573455 -0.00124967 0.00854717
0.09535928 -0.00124967 0.00937581
0.09493560 -0.00124967 0.01010804
0.09393814 -0.00124967 0.01127961
0.09274054 -0.00124967 0.01206066
0.09134279 -0.00124967 0.01245118
3 1 0 20
3 3 2 1
3 5 4 3
3 7 6 5
3 9 8 7
3 11 10 9
3 13 12 11
3 15 14 13
3 17 16 15
3 19 18 17
3 1 20 19
3 5 3 1
3 9 7 5
3 13 11 9
3 17 15 13
3 1 19 17
3 9 5 1
3 17 13 9
3 9 1 17
3 41 21 22
3 22 23 24
3 24 25 26
3 26 27 28
3 28 29 30
3 30 31 32
3 32 33 34
3 34 35 36
3 36 37 38
3 38 39 40
3 40 41 22
3 22 24 26
3 26 28 30
3 30 32 34
3 34 36 38
3 38 40 22
3 22 26 30
3 30 34 38
3 38 22 30
3 22 21 1
3 1 21 0
3 23 22 2
3 2 22 1
3 24 23 3
3 3 23 2
3 25 24 4
3 4 24 3
3 26 25 5
3 5 25 4
3 27 26 6
3 6 26 5
3 28 27 7
3 7 27 6
3 29 28 8
3 8 28 7
3 30 29 9
3 9 29 8
3 31 30 10
3 10 30 9
3 32 31 11
3 11 31 10
3 33 32 12
3 12 32 11
3 34 33 13
3 13 33 12
3 35 34 14
3 14 34 13
3 36 35 15
3 15 35 14
3 37 36 16
3 16 36 15
3 38 37 17
3 17 37 16
3 39 38 18
3 18 38 17
3 40 39 19
3 19 39 18
3 21 41 0
3 0 41 20
3 41 40 20
3 20 40 19
3 43 42 62
3 45 44 43
3 47 46 45
3 49 48 47
3 51 50 49
3 53 52 51
3 55 54 53
3 57 56 55
3 59 58 57
3 61 60 59
3 43 62 61
3 47 45 43
3 51 49 47
3 55 53 51
3 59 57 55
3 43 61 59
3 51 47 43
3 59 55 51
3 51 43 59
3 83 63 64
3 64 65 66
3 66 67 68
3 68 69 70
3 70 71 72
3 72 73 74
3 74 75 76
3 76 77 78
3 78 79 80
3 80 81 82
3 82 83 64
3 64 66 68
3 68 70 72
3 72 74 76
3 76 78 80
3 80 82 64
3 64 68 72
3 72 76 80
3 80 64 72
3 64 63 43
3 43 63 42
3 65 64 44
3 44 64 43
3 66 65 45
3 45 65 44
3 67 66 46
3 46 66 45
3 68 67 47
3 47 67 46
3 69 68 48
3 48 68 47
3 70 69 49
3 49 69 48
3 71 70 50
3 50 70 49
3 72 71 51
3 51 71 50
3 73 72 52
3 52 72 51
3 74 73 53
3 53 73 52
3 75 74 54
3 54 74 53
3 76 75 55
3 55 75 54
3 77 76 56
3 56 76 55
3 78 77 57
3 57 77 56
3 79 78 58
3 58 78 57
3 80 79 59
3 59 79 58
3 81 80 60
3 60 80 59
3 82 81 61
3 61 81 60
3 63 83 42
3 42 83 62
3 83 82 62
3 62 82 61
3 85 84 123
3 87 86 85
3 89 88 87
3 91 90 89
3 93 92 91
3 95 94 93
3 97 96 95
3 99 98 97
3 101 100 99
3 103 102 101
3 105 104 103
3 107 106 105
3 109 108 107
3 111 110 109
3 113 112 111
3 115 114 113
3 117 116 115
3 119 118 117
3 121 120 119
3 123 122 121
3 87 85 123
3 91 89 87
3 95 93 91
3 99 97 95
3 103 101 99
3 107 105 103
3 111 109 107
3 115 113 111
3 119 117 115
3 123 121 119
3 91 87 123
3 99 95 91
3 107 103 99
3 115 111 107
3 123 119 115
3 99 91 123
3 115 107 99
3 99 123 115
3 163 124 125
3 125 126 127
3 127 128 129
3 129 130 131
3 131 132 133
3 133 134 135
3 135 136 137
3 137 138 139
3 139 140 141
3 141 142 143
3 143 144 145
3 145 146 147
3 147 148 149
3 149 150 151
3 151 152 153
3 153 154 155
3 155 156 157
3 157 158 159
3 159 160 161
3 161 162 163
3 163 125 127
3 127 129 131
3 131 133 135
3 135 137 139
3 139 141 143
3 143 145 147
3 147 149 151
3 151 153 155
3 155 157 159
3 159 161 163
3 163 127 131
3 131 135 139
3 139 143 147
3 147 151 155
3 155 159 163
3 163 131 139
3 139 147 155
3 155 163 139
3 125 124 85
3 85 124 84
3 126 125 86
3 86 125 85
3 127 126 87
3 87 126 86
3 128 127 88
3 88 127 87
3 129 128 89
3 89 128 88
3 130 129 90
3 90 129 89
3 131 130 91
3 91 130 90
3 132 131 92
3 92 131 91
3 133 132 93
3 93 132 92
3 134 133 94
3 94 133 93
3 135 134 95
3 95 134 94
3 136 135 96
3 96 135 95
3 137 136 97
3 97 136 96
3 138 137 98
3 98 137 97
3 139 138 99
3 99 138 98
3 140 139 100
3 100 139 99
3 141 140 101
3 101 140 100
3 142 141 102
3 102 141 101
3 143 142 103
3 103 142 102
3 144 143 104
3 104 143 103
3 145 144 105
3 105 144 104
3 146 145 106
3 106 145 105
3 147 146 107
3 107 146 106
3 148 147 108
3 108 147 107
3 149 148 109
3 109 148 108
3 150 149 110
3 110 149 109
3 151 150 111
3 111 150 110
3 152 151 112
3 112 151 111
3 153 152 113
3 113 152 112
3 154 153 114
3 114 153 113
3 155 154 115
3 115 154 114
3 156 155 116
3 116 155 115
3 157 156 117
3 117 156 116
3 158 157 118
3 118 157 117
3 159 158 119
3 119 158 118
3 160 159 120
3 120 159 119
3 161 160 121
3 121 160 120
3 162 161 122
3 122 161 121
3 124 163 84
3 84 163 123
3 163 162 123
3 123 162 122
3 165 164 203
3 167 166 165
3 169 168 167
3 171 170 169
3 173 172 171
3 175 174 173
3 177 176 175
3 179 178 177
3 181 180 179
3 183 182 181
3 185 184 183
3 187 186 185
3 189 188 187
3 191 190 189
3 193 192 191
3 195 194 193
3 197 196 195
3 199 198 197
3 201 200 199
3 203 202 201
3 167 165 203
3 171 169 167
3 175 173 171
3 179 177 175
3 183 181 179
3 187 185 183
3 191 189 187
3 195 193 191
3 199 197 195
3 203 201 199
3 171 167 203
3 179 175 171
3 187 183 179
3 195 191 187
3 203 199 195
3 179 171 203
3 195 187 179
3 179 203 195
3 243 204 205
3 205 206 207
3 207 208 209
3 209 210 211
3 211 212 213
3 213 214 215
3 215 216 217
3 217 218 219
3 219 220 221
3 221 222 223
3 223 224 225
3 225 226 227
3 227 228 229
3 229 230 231
3 231 232 233
3 233 234 235
3 235 236 237
3 237 238 239
3 239 240 241
3 241 242 243
3 243 205 207
3 207 209 211
3 211 213 215
3 215 217 219
3 219 221 223
3 223 225 227
3 227 229 231
3 231 233 235
3 235 237 239
3 239 241 243
3 243 207 211
3 211 215 219
3 219 223 227
3 227 231 235
3 235 239 243
3 243 211 219
3 219 227 235
3 235 243 219
3 205 204 165
3 165 204 164
3 206 205 166
3 166 205 165
3 207 206 167
3 167 206 166
3 208 207 168
3 168 207 167
3 209 208 169
3 169 208 168
3 210 209 170
3 170 209 169
3 211 210 171
3 171 210 170
3 212 211 172
3 172 211 171
3 213 212 173
3 173 212 172
3 214 213 174
3 174 213 173
3 215 214 175
3 175 214 174
3 216 215 176
3 176 215 175
3 217 216 177
3 177 216 176
3 218 217 178
3 178 217 177
3 219 218 179
3 179 218 178
3 220 219 180
3 180 219 179
3 221 220 181
3 181 220 180
3 222 221 182
3 182 221 181
3 223 222 183
3 183 222 182
3 224 223 184
3 184 223 183
3 225 224 185
3 185 224 184
3 226 225 186
3 186 225 185
3 227 226 187
3 187 226 186
3 228 227 188
3 188 227 187
3 229 228 189
3 189 228 188
3 230 229 190
3 190 229 189
3 231 230 191
3 191 230 190
3 232 231 192
3 192 231 191
3 233 232 193
3 193 232 192
3 234 233 194
3 194 233 193
3 235 234 195
3 195 234 194
3 236 235 196
3 196 235 195
3 237 236 197
3 197 236 196
3 238 237 198
3 198 237 197
3 239 238 199
3 199 238 198
3 240 239 200
3 200 239 199
3 241 240 201
3 201 240 200
3 242 241 202
3 202 241 201
3 204 243 164
3 164 243 203
3 243 242 203
3 203 242 202
