ply
format ascii 1.0
comment https://github.com/mikedh/trimesh
element vertex 726
property float x
property float y
property float z
element face 1420
property list uchar int vertex_indices
end_header
0.06261452 -0.00000000 0.00715239
0.05796919 0.00000000 0.00715239
0.05796919 0.00000000 0.00539862
0.06261452 -0.00000000 0.00539862
0.06261452 0.00000000 -0.00205587
0.06258582 0.00000000 -0.00282044
0.06235630 0.00000000 -0.00389938
0.06215547 0.00000000 -0.00421375
0.06186637 0.00000000 -0.00442316
0.06093064 0.00000000 -0.00466249
0.06028401 0.00000000 -0.00469240
0.05796919 0.00000000 -0.00469240
0.05796919 0.00000000 -0.00657957
0.06028401 0.00000000 -0.00657957
0.06091193 0.00000000 -0.00656436
0.06201589 0.00000000 -0.00644274
0.06291729 0.00000000 -0.00619949
0.06361615 0.00000000 -0.00583461
0.06388962 0.00000000 -0.00560656
0.06412227 0.00000000 -0.00533738
0.06449451 0.00000000 -0.00464931
0.06474266 0.00000000 -0.00376164
0.06486674 0.00000000 -0.00267436
0.06488225 0.00000000 -0.00205587
0.06488225 -0.00000000 0.00539862
0.06653793 -0.00000000 0.00539862
0.06653793 -0.00000000 0.00715239
0.06488225 -0.00000000 0.00715239
0.06488225 -0.00000000 0.01105226
0.06261452 -0.00000000 0.01105226
0.06261452 0.00075330 0.00715239
0.05796919 0.00075330 0.00715239
0.05796919 0.00075330 0.00539862
0.06261452 0.00075330 0.00539862
0.06261452 0.00075330 -0.00205587
0.06258582 0.00075330 -0.00282044
0.06235630 0.00075330 -0.00389938
0.06215547 0.00075330 -0.00421375
0.06186637 0.00075330 -0.00442316
0.06093064 0.00075330 -0.00466249
0.06028401 0.00075330 -0.00469240
0.05796919 0.00075330 -0.00469240
0.05796919 0.00075330 -0.00657957
0.06028401 0.00075330 -0.00657957
0.06091193 0.00075330 -0.00656436
0.06201589 0.00075330 -0.00644274
0.06291729 0.00075330 -0.00619949
0.06361615 0.00075330 -0.00583461
0.06388962 0.00075330 -0.00560656
0.06412227 0.00075330 -0.00533738
0.06449451 0.00075330 -0.00464931
0.06474266 0.00075330 -0.00376164
0.06486674 0.00075330 -0.00267436
0.06488225 0.00075330 -0.00205587
0.06488225 0.00075330 0.00539862
0.06653793 0.00075330 0.00539862
0.06653793 0.00075330 0.00715239
0.06488225 0.00075330 0.00715239
0.06488225 0.00075330 0.01105226
0.06261452 0.00075330 0.01105226
0.04744218 0.00000000 0.00523580
0.04787277 0.00000000 0.00536723
0.04834260 0.00000000 0.00544668
0.04885755 0.00000000 0.00547316
0.04932229 0.00000000 0.00545373
0.05016828 0.00000000 0.00529827
0.05090294 0.00000000 0.00498733
0.05152627 0.00000000 0.00452094
0.05179619 0.00000000 0.00422944
0.05203619 0.00000000 0.00390153
0.05242020 0.00000000 0.00314382
0.05267620 0.00000000 0.00225026
0.05280420 0.00000000 0.00122086
0.05282020 0.00000000 0.00065521
0.05282020 0.00000000 -0.00657957
0.05508794 0.00000000 -0.00657957
0.05508794 0.00000000 0.00715239
0.05282020 0.00000000 0.00715239
0.05282020 0.00000000 0.00501805
0.05243669 0.00000000 0.00560337
0.05151076 0.00000000 0.00653126
0.05096835 0.00000000 0.00687382
0.05036684 0.00000000 0.00713988
0.04897991 0.00000000 0.00744394
0.04819449 0.00000000 0.00748195
0.04795026 0.00000000 0.00747411
0.04768053 0.00000000 0.00745056
0.04738333 0.00000000 0.00741427
0.04705670 0.00000000 0.00736033
0.04704493 0.00000000 0.00504551
0.04744218 0.00075330 0.00523580
0.04787277 0.00075330 0.00536723
0.04834260 0.00075330 0.00544668
0.04885755 0.00075330 0.00547316
0.04932229 0.00075330 0.00545373
0.05016828 0.00075330 0.00529827
0.05090294 0.00075330 0.00498733
0.05152627 0.00075330 0.00452094
0.05179619 0.00075330 0.00422944
0.05203619 0.00075330 0.00390153
0.05242020 0.00075330 0.00314382
0.05267620 0.00075330 0.00225026
0.05280420 0.00075330 0.00122086
0.05282020 0.00075330 0.00065521
0.05282020 0.00075330 -0.00657957
0.05508794 0.00075330 -0.00657957
0.05508794 0.00075330 0.00715239
0.05282020 0.00075330 0.00715239
0.05282020 0.00075330 0.00501805
0.05243669 0.00075330 0.00560337
0.05151076 0.00075330 0.00653126
0.05096835 0.00075330 0.00687382
0.05036684 0.00075330 0.00713988
0.04897991 0.00075330 0.00744394
0.04819449 0.00075330 0.00748195
0.04795026 0.00075330 0.00747411
0.04768053 0.00075330 0.00745056
0.04738333 0.00075330 0.00741427
0.04705670 0.00075330 0.00736033
0.04704493 0.00075330 0.00504551
0.03393582 0.00000000 -0.00657957
0.03619179 0.00000000 -0.00657957
0.03619179 0.00000000 -0.00449623
0.03660203 0.00000000 -0.00507935
0.03756523 0.00000000 -0.00600135
0.03811818 0.00000000 -0.00634024
0.03872705 0.00000000 -0.00660115
0.04013751 0.00000000 -0.00689933
0.04093912 0.00000000 -0.00693660
0.04145241 0.00000000 -0.00691808
0.04239845 0.00000000 -0.00676998
0.04323708 0.00000000 -0.00647376
0.04396830 0.00000000 -0.00602943
0.04429364 0.00000000 -0.00575173
0.04458513 0.00000000 -0.00544300
0.04505153 0.00000000 -0.00475052
0.04536246 0.00000000 -0.00395799
0.04551793 0.00000000 -0.00306541
0.04553736 0.00000000 -0.00258161
0.04551315 0.00000000 -0.00202068
0.04531943 0.00000000 -0.00100550
0.04493199 0.00000000 -0.00013254
0.04435083 0.00000000 0.00059820
0.04398761 0.00000000 0.00091023
0.04357541 0.00000000 0.00118610
0.04260829 0.00000000 0.00162748
0.04145088 0.00000000 0.00192174
0.04010319 0.00000000 0.00206887
0.03935798 0.00000000 0.00208726
0.03619179 0.00000000 0.00208726
0.03619179 0.00000000 0.00231089
0.03620779 0.00000000 0.00268926
0.03633579 0.00000000 0.00337978
0.03659179 0.00000000 0.00398202
0.03697579 0.00000000 0.00449599
0.03721580 0.00000000 0.00471987
0.03748474 0.00000000 0.00491941
0.03810022 0.00000000 0.00523868
0.03921748 0.00000000 0.00551804
0.04009166 0.00000000 0.00557125
0.04067649 0.00000000 0.00555359
0.04182409 0.00000000 0.00541235
0.04238686 0.00000000 0.00528876
0.04293859 0.00000000 0.00512986
0.04400968 0.00000000 0.00470614
0.04452904 0.00000000 0.00444131
0.04452904 0.00000000 0.00652856
0.04331082 0.00000000 0.00694641
0.04212791 0.00000000 0.00724262
0.04097835 0.00000000 0.00742212
0.03986018 0.00000000 0.00748195
0.03913833 0.00000000 0.00745780
0.03783625 0.00000000 0.00726457
0.03672298 0.00000000 0.00687811
0.03579852 0.00000000 0.00629843
0.03540710 0.00000000 0.00593613
0.03506227 0.00000000 0.00552570
0.03451054 0.00000000 0.00455515
0.03414272 0.00000000 0.00338499
0.03395881 0.00000000 0.00201523
0.03393582 0.00000000 0.00125549
0.03969834 0.00000000 0.00028273
0.04119831 0.00000000 0.00007804
0.04193591 0.00000000 -0.00015589
0.04222600 0.00000000 -0.00030210
0.04247336 0.00000000 -0.00047191
0.04286913 0.00000000 -0.00089466
0.04313298 0.00000000 -0.00142825
0.04326491 0.00000000 -0.00207267
0.04328140 0.00000000 -0.00243644
0.04323186 0.00000000 -0.00300583
0.04283560 0.00000000 -0.00395922
0.04248887 0.00000000 -0.00434322
0.04205729 0.00000000 -0.00465047
0.04098228 0.00000000 -0.00500162
0.04033884 0.00000000 -0.00504551
0.03988066 0.00000000 -0.00502473
0.03903418 0.00000000 -0.00485848
0.03828088 0.00000000 -0.00452597
0.03762077 0.00000000 -0.00402720
0.03732565 0.00000000 -0.00371547
0.03705990 0.00000000 -0.00336929
0.03663470 0.00000000 -0.00259491
0.03635124 0.00000000 -0.00171116
0.03620950 0.00000000 -0.00071805
0.03619179 0.00000000 -0.00018048
0.03619179 0.00000000 0.00032172
0.03843598 0.00000000 0.00032172
0.03393582 0.00075330 -0.00657957
0.03619179 0.00075330 -0.00657957
0.03619179 0.00075330 -0.00449623
0.03660203 0.00075330 -0.00507935
0.03756523 0.00075330 -0.00600135
0.03811818 0.00075330 -0.00634024
0.03872705 0.00075330 -0.00660115
0.04013751 0.00075330 -0.00689933
0.04093912 0.00075330 -0.00693660
0.04145241 0.00075330 -0.00691808
0.04239845 0.00075330 -0.00676998
0.04323708 0.00075330 -0.00647376
0.04396830 0.00075330 -0.00602943
0.04429364 0.00075330 -0.00575173
0.04458513 0.00075330 -0.00544300
0.04505153 0.00075330 -0.00475052
0.04536246 0.00075330 -0.00395799
0.04551793 0.00075330 -0.00306541
0.04553736 0.00075330 -0.00258161
0.04551315 0.00075330 -0.00202068
0.04531943 0.00075330 -0.00100550
0.04493199 0.00075330 -0.00013254
0.04435083 0.00075330 0.00059820
0.04398761 0.00075330 0.00091023
0.04357541 0.00075330 0.00118610
0.04260829 0.00075330 0.00162748
0.04145088 0.00075330 0.00192174
0.04010319 0.00075330 0.00206887
0.03935798 0.00075330 0.00208726
0.03619179 0.00075330 0.00208726
0.03619179 0.00075330 0.00231089
0.03620779 0.00075330 0.00268926
0.03633579 0.00075330 0.00337978
0.03659179 0.00075330 0.00398202
0.03697579 0.00075330 0.00449599
0.03721580 0.00075330 0.00471987
0.03748474 0.00075330 0.00491941
0.03810022 0.00075330 0.00523868
0.03921748 0.00075330 0.00551804
0.04009166 0.00075330 0.00557125
0.04067649 0.00075330 0.00555359
0.04182409 0.00075330 0.00541235
0.04238686 0.00075330 0.00528876
0.04293859 0.00075330 0.00512986
0.04400968 0.00075330 0.00470614
0.04452904 0.00075330 0.00444131
0.04452904 0.00075330 0.00652856
0.04331082 0.00075330 0.00694641
0.04212791 0.00075330 0.00724262
0.04097835 0.00075330 0.00742212
0.03986018 0.00075330 0.00748195
0.03913833 0.00075330 0.00745780
0.03783625 0.00075330 0.00726457
0.03672298 0.00075330 0.00687811
0.03579852 0.00075330 0.00629843
0.03540710 0.00075330 0.00593613
0.03506227 0.00075330 0.00552570
0.03451054 0.00075330 0.00455515
0.03414272 0.00075330 0.00338499
0.03395881 0.00075330 0.00201523
0.03393582 0.00075330 0.00125549
0.03969834 0.00075330 0.00028273
0.04119831 0.00075330 0.00007804
0.04193591 0.00075330 -0.00015589
0.04222600 0.00075330 -0.00030210
0.04247336 0.00075330 -0.00047191
0.04286913 0.00075330 -0.00089466
0.04313298 0.00075330 -0.00142825
0.04326491 0.00075330 -0.00207267
0.04328140 0.00075330 -0.00243644
0.04323186 0.00075330 -0.00300583
0.04283560 0.00075330 -0.00395922
0.04248887 0.00075330 -0.00434322
0.04205729 0.00075330 -0.00465047
0.04098228 0.00075330 -0.00500162
0.04033884 0.00075330 -0.00504551
0.03988066 0.00075330 -0.00502473
0.03903418 0.00075330 -0.00485848
0.03828088 0.00075330 -0.00452597
0.03762077 0.00075330 -0.00402720
0.03732565 0.00075330 -0.00371547
0.03705990 0.00075330 -0.00336929
0.03663470 0.00075330 -0.00259491
0.03635124 0.00075330 -0.00171116
0.03620950 0.00075330 -0.00071805
0.03619179 0.00075330 -0.00018048
0.03619179 0.00075330 0.00032172
0.03843598 0.00075330 0.00032172
0.02703503 0.00000000 0.00715239
0.02703503 0.00000000 -0.00682674
0.02705066 0.00000000 -0.00745939
0.02717572 0.00000000 -0.00858934
0.02742583 0.00000000 -0.00953880
0.02780101 0.00000000 -0.01030779
0.02803550 0.00000000 -0.01062461
0.02830376 0.00000000 -0.01090047
0.02895505 0.00000000 -0.01134186
0.02975935 0.00000000 -0.01163611
0.03071666 0.00000000 -0.01178324
0.03125270 0.00000000 -0.01180163
0.03211192 0.00000000 -0.01180163
0.03211192 0.00000000 -0.00989093
0.03150772 0.00000000 -0.00989093
0.03091577 0.00000000 -0.00985366
0.03004085 0.00000000 -0.00955548
0.02975788 0.00000000 -0.00929457
0.02955361 0.00000000 -0.00891817
0.02932017 0.00000000 -0.00768425
0.02929099 0.00000000 -0.00682674
0.02929099 0.00000000 0.00715239
0.02703503 0.00075330 0.00715239
0.02703503 0.00075330 -0.00682674
0.02705066 0.00075330 -0.00745939
0.02717572 0.00075330 -0.00858934
0.02742583 0.00075330 -0.00953880
0.02780101 0.00075330 -0.01030779
0.02803550 0.00075330 -0.01062461
0.02830376 0.00075330 -0.01090047
0.02895505 0.00075330 -0.01134186
0.02975935 0.00075330 -0.01163611
0.03071666 0.00075330 -0.01178324
0.03125270 0.00075330 -0.01180163
0.03211192 0.00075330 -0.01180163
0.03211192 0.00075330 -0.00989093
0.03150772 0.00075330 -0.00989093
0.03091577 0.00075330 -0.00985366
0.03004085 0.00075330 -0.00955548
0.02975788 0.00075330 -0.00929457
0.02955361 0.00075330 -0.00891817
0.02932017 0.00075330 -0.00768425
0.02929099 0.00075330 -0.00682674
0.02929099 0.00075330 0.00715239
0.02703503 0.00000000 0.01250000
0.02703503 0.00000000 0.00963983
0.02929099 0.00000000 0.00963983
0.02929099 0.00000000 0.01250000
0.02703503 0.00075330 0.01250000
0.02703503 0.00075330 0.00963983
0.02929099 0.00075330 0.00963983
0.02929099 0.00075330 0.01250000
0.01187838 0.00000000 -0.01250000
0.02492766 0.00000000 -0.01250000
0.02492766 0.00000000 -0.01075016
0.01187838 0.00000000 -0.01075016
0.01187838 0.00075330 -0.01250000
0.02492766 0.00075330 -0.01250000
0.02492766 0.00075330 -0.01075016
0.01187838 0.00075330 -0.01075016
0.00881420 0.00000000 0.00715239
0.00599326 0.00000000 -0.00356246
0.00318802 0.00000000 0.00715239
0.00052794 0.00000000 0.00715239
-0.00229299 0.00000000 -0.00356246
-0.00510216 0.00000000 0.00715239
-0.00735812 0.00000000 0.00715239
-0.00376427 0.00000000 -0.00657957
-0.00110420 0.00000000 -0.00657957
0.00185014 0.00000000 0.00467671
0.00481624 0.00000000 -0.00657957
0.00748024 0.00000000 -0.00657957
0.01107016 0.00000000 0.00715239
0.00881420 0.00075330 0.00715239
0.00599326 0.00075330 -0.00356246
0.00318802 0.00075330 0.00715239
0.00052794 0.00075330 0.00715239
-0.00229299 0.00075330 -0.00356246
-0.00510216 0.00075330 0.00715239
-0.00735812 0.00075330 0.00715239
-0.00376427 0.00075330 -0.00657957
-0.00110420 0.00075330 -0.00657957
0.00185014 0.00075330 0.00467671
0.00481624 0.00075330 -0.00657957
0.00748024 0.00075330 -0.00657957
0.01107016 0.00075330 0.00715239
-0.01295830 0.00000000 -0.01180163
-0.01069057 0.00000000 -0.01180163
-0.01069057 0.00000000 0.00715239
-0.01295830 0.00000000 0.00715239
-0.01295830 0.00000000 0.00506905
-0.01333839 0.00000000 0.00564163
-0.01423685 0.00000000 0.00654990
-0.01475523 0.00000000 0.00688559
-0.01532486 0.00000000 0.00714650
-0.01662155 0.00000000 0.00744468
-0.01734861 0.00000000 0.00748195
-0.01795968 0.00000000 0.00745093
-0.01909354 0.00000000 0.00720278
-0.02010971 0.00000000 0.00670647
-0.02100817 0.00000000 0.00596200
-0.02141326 0.00000000 0.00549670
-0.02178016 0.00000000 0.00498084
-0.02236721 0.00000000 0.00383177
-0.02275857 0.00000000 0.00252625
-0.02295425 0.00000000 0.00106429
-0.02297871 0.00000000 0.00027464
-0.02295425 0.00000000 -0.00051507
-0.02275857 0.00000000 -0.00197752
-0.02236721 0.00000000 -0.00328402
-0.02178016 0.00000000 -0.00443456
-0.02141326 0.00000000 -0.00495135
-0.02100817 0.00000000 -0.00541664
-0.02010971 0.00000000 -0.00616111
-0.01909354 0.00000000 -0.00665742
-0.01795968 0.00000000 -0.00690558
-0.01734861 0.00000000 -0.00693660
-0.01662155 0.00000000 -0.00689933
-0.01532486 0.00000000 -0.00660115
-0.01475523 0.00000000 -0.00634024
-0.01423685 0.00000000 -0.00600282
-0.01333839 0.00000000 -0.00509259
-0.01295830 0.00000000 -0.00451977
-0.02062043 0.00000000 0.00087976
-0.02049243 0.00000000 0.00198960
-0.02023642 0.00000000 0.00296555
-0.01985242 0.00000000 0.00380761
-0.01961241 0.00000000 0.00417844
-0.01934446 0.00000000 0.00451039
-0.01873682 0.00000000 0.00504153
-0.01803355 0.00000000 0.00539562
-0.01723464 0.00000000 0.00557266
-0.01679933 0.00000000 0.00559479
-0.01636309 0.00000000 0.00557266
-0.01556272 0.00000000 0.00539562
-0.01485846 0.00000000 0.00504153
-0.01425033 0.00000000 0.00451039
-0.01398232 0.00000000 0.00417844
-0.01374231 0.00000000 0.00380761
-0.01335831 0.00000000 0.00296555
-0.01310231 0.00000000 0.00198960
-0.01297430 0.00000000 0.00087976
-0.01295830 0.00000000 0.00027464
-0.01297430 0.00000000 -0.00033049
-0.01310231 0.00000000 -0.00144032
-0.01335831 0.00000000 -0.00241627
-0.01374231 0.00000000 -0.00325833
-0.01398232 0.00000000 -0.00362916
-0.01425033 0.00000000 -0.00396112
-0.01485846 0.00000000 -0.00449225
-0.01556272 0.00000000 -0.00484634
-0.01636309 0.00000000 -0.00502338
-0.01679933 0.00000000 -0.00504551
-0.01723464 0.00000000 -0.00502338
-0.01803355 0.00000000 -0.00484634
-0.01873682 0.00000000 -0.00449225
-0.01934446 0.00000000 -0.00396112
-0.01961241 0.00000000 -0.00362916
-0.01985242 0.00000000 -0.00325833
-0.02023642 0.00000000 -0.00241627
-0.02049243 0.00000000 -0.00144032
-0.02062043 0.00000000 -0.00033049
-0.02063643 0.00000000 0.00027464
-0.01295830 0.00075330 -0.01180163
-0.01069057 0.00075330 -0.01180163
-0.01069057 0.00075330 0.00715239
-0.01295830 0.00075330 0.00715239
-0.01295830 0.00075330 0.00506905
-0.01333839 0.00075330 0.00564163
-0.01423685 0.00075330 0.00654990
-0.01475523 0.00075330 0.00688559
-0.01532486 0.00075330 0.00714650
-0.01662155 0.00075330 0.00744468
-0.01734861 0.00075330 0.00748195
-0.01795968 0.00075330 0.00745093
-0.01909354 0.00075330 0.00720278
-0.02010971 0.00075330 0.00670647
-0.02100817 0.00075330 0.00596200
-0.02141326 0.00075330 0.00549670
-0.02178016 0.00075330 0.00498084
-0.02236721 0.00075330 0.00383177
-0.02275857 0.00075330 0.00252625
-0.02295425 0.00075330 0.00106429
-0.02297871 0.00075330 0.00027464
-0.02295425 0.00075330 -0.00051507
-0.02275857 0.00075330 -0.00197752
-0.02236721 0.00075330 -0.00328402
-0.02178016 0.00075330 -0.00443456
-0.02141326 0.00075330 -0.00495135
-0.02100817 0.00075330 -0.00541664
-0.02010971 0.00075330 -0.00616111
-0.01909354 0.00075330 -0.00665742
-0.01795968 0.00075330 -0.00690558
-0.01734861 0.00075330 -0.00693660
-0.01662155 0.00075330 -0.00689933
-0.01532486 0.00075330 -0.00660115
-0.01475523 0.00075330 -0.00634024
-0.01423685 0.00075330 -0.00600282
-0.01333839 0.00075330 -0.00509259
-0.01295830 0.00075330 -0.00451977
-0.02062043 0.00075330 0.00087976
-0.02049243 0.00075330 0.00198960
-0.02023642 0.00075330 0.00296555
-0.01985242 0.00075330 0.00380761
-0.01961241 0.00075330 0.00417844
-0.01934446 0.00075330 0.00451039
-0.01873682 0.00075330 0.00504153
-0.01803355 0.00075330 0.00539562
-0.01723464 0.00075330 0.00557266
-0.01679933 0.00075330 0.00559479
-0.01636309 0.00075330 0.00557266
-0.01556272 0.00075330 0.00539562
-0.01485846 0.00075330 0.00504153
-0.01425033 0.00075330 0.00451039
-0.01398232 0.00075330 0.00417844
-0.01374231 0.00075330 0.00380761
-0.01335831 0.00075330 0.00296555
-0.01310231 0.00075330 0.00198960
-0.01297430 0.00075330 0.00087976
-0.01295830 0.00075330 0.00027464
-0.01297430 0.00075330 -0.00033049
-0.01310231 0.00075330 -0.00144032
-0.01335831 0.00075330 -0.00241627
-0.01374231 0.00075330 -0.00325833
-0.01398232 0.00075330 -0.00362916
-0.01425033 0.00075330 -0.00396112
-0.01485846 0.00075330 -0.00449225
-0.01556272 0.00075330 -0.00484634
-0.01636309 0.00075330 -0.00502338
-0.01679933 0.00075330 -0.00504551
-0.01723464 0.00075330 -0.00502338
-0.01803355 0.00075330 -0.00484634
-0.01873682 0.00075330 -0.00449225
-0.01934446 0.00075330 -0.00396112
-0.01961241 0.00075330 -0.00362916
-0.01985242 0.00075330 -0.00325833
-0.02023642 0.00075330 -0.00241627
-0.02049243 0.00075330 -0.00144032
-0.02062043 0.00075330 -0.00033049
-0.02063643 0.00075330 0.00027464
-0.03715204 0.00000000 -0.01250000
-0.02410276 0.00000000 -0.01250000
-0.02410276 0.00000000 -0.01075016
-0.03715204 0.00000000 -0.01075016
-0.03715204 0.00075330 -0.01250000
-0.02410276 0.00075330 -0.01250000
-0.02410276 0.00075330 -0.01075016
-0.03715204 0.00075330 -0.01075016
-0.04563232 0.00000000 0.01201858
-0.04699031 0.00000000 0.01171403
-0.04816636 0.00000000 0.01110492
-0.04916045 0.00000000 0.01019125
-0.04958927 0.00000000 0.00962021
-0.04996996 0.00000000 0.00897769
-0.05057907 0.00000000 0.00748630
-0.05098515 0.00000000 0.00571979
-0.05118818 0.00000000 0.00367814
-0.05121356 0.00000000 0.00255414
-0.05118818 0.00000000 0.00143284
-0.05098515 0.00000000 -0.00060488
-0.05057907 0.00000000 -0.00236944
-0.04996996 0.00000000 -0.00386082
-0.04958927 0.00000000 -0.00450408
-0.04916045 0.00000000 -0.00507420
-0.04816636 0.00000000 -0.00598640
-0.04699031 0.00000000 -0.00659452
-0.04563232 0.00000000 -0.00689859
-0.04488509 0.00000000 -0.00693660
-0.04413879 0.00000000 -0.00689859
-0.04278227 0.00000000 -0.00659452
-0.04160720 0.00000000 -0.00598640
-0.04061360 0.00000000 -0.00507420
-0.04018484 0.00000000 -0.00450408
-0.03980415 0.00000000 -0.00386082
-0.03919504 0.00000000 -0.00236944
-0.03878896 0.00000000 -0.00060488
-0.03858593 0.00000000 0.00143284
-0.03856055 0.00000000 0.00255414
-0.03858593 0.00000000 0.00367814
-0.03878896 0.00000000 0.00571979
-0.03919504 0.00000000 0.00748630
-0.03980415 0.00000000 0.00897769
-0.04018484 0.00000000 0.00962021
-0.04061360 0.00000000 0.01019125
-0.04160720 0.00000000 0.01110492
-0.04278227 0.00000000 0.01171403
-0.04413879 0.00000000 0.01201858
-0.04488509 0.00000000 0.01205665
-0.04442219 0.00000000 0.01006552
-0.04358503 0.00000000 0.00983012
-0.04286607 0.00000000 0.00935931
-0.04226529 0.00000000 0.00865309
-0.04200923 0.00000000 0.00821171
-0.04178394 0.00000000 0.00771221
-0.04142348 0.00000000 0.00653518
-0.04118317 0.00000000 0.00512079
-0.04106301 0.00000000 0.00346903
-0.04104799 0.00000000 0.00255414
-0.04106301 0.00000000 0.00164287
-0.04118317 0.00000000 -0.00000349
-0.04142348 0.00000000 -0.00141494
-0.04178394 0.00000000 -0.00259148
-0.04200923 0.00000000 -0.00309165
-0.04226529 0.00000000 -0.00353304
-0.04286607 0.00000000 -0.00423925
-0.04358503 0.00000000 -0.00471006
-0.04442219 0.00000000 -0.00494546
-0.04488509 0.00000000 -0.00497489
-0.04535161 0.00000000 -0.00494546
-0.04619417 0.00000000 -0.00471006
-0.04691608 0.00000000 -0.00423925
-0.04751734 0.00000000 -0.00353304
-0.04777273 0.00000000 -0.00309165
-0.04799893 0.00000000 -0.00259148
-0.04836087 0.00000000 -0.00141494
-0.04860216 0.00000000 -0.00000349
-0.04872281 0.00000000 0.00164287
-0.04873789 0.00000000 0.00255414
-0.04872281 0.00000000 0.00346903
-0.04860216 0.00000000 0.00512079
-0.04836087 0.00000000 0.00653518
-0.04799893 0.00000000 0.00771221
-0.04777273 0.00000000 0.00821171
-0.04751734 0.00000000 0.00865309
-0.04691608 0.00000000 0.00935931
-0.04619417 0.00000000 0.00983012
-0.04535161 0.00000000 0.01006552
-0.04488509 0.00000000 0.01009495
-0.04563232 0.00075330 0.01201858
-0.04699031 0.00075330 0.01171403
-0.04816636 0.00075330 0.01110492
-0.04916045 0.00075330 0.01019125
-0.04958927 0.00075330 0.00962021
-0.04996996 0.00075330 0.00897769
-0.05057907 0.00075330 0.00748630
-0.05098515 0.00075330 0.00571979
-0.05118818 0.00075330 0.00367814
-0.05121356 0.00075330 0.00255414
-0.05118818 0.00075330 0.00143284
-0.05098515 0.00075330 -0.00060488
-0.05057907 0.00075330 -0.00236944
-0.04996996 0.00075330 -0.00386082
-0.04958927 0.00075330 -0.00450408
-0.04916045 0.00075330 -0.00507420
-0.04816636 0.00075330 -0.00598640
-0.04699031 0.00075330 -0.00659452
-0.04563232 0.00075330 -0.00689859
-0.04488509 0.00075330 -0.00693660
-0.04413879 0.00075330 -0.00689859
-0.04278227 0.00075330 -0.00659452
-0.04160720 0.00075330 -0.00598640
-0.04061360 0.00075330 -0.00507420
-0.04018484 0.00075330 -0.00450408
-0.03980415 0.00075330 -0.00386082
-0.03919504 0.00075330 -0.00236944
-0.03878896 0.00075330 -0.00060488
-0.03858593 0.00075330 0.00143284
-0.03856055 0.00075330 0.00255414
-0.03858593 0.00075330 0.00367814
-0.03878896 0.00075330 0.00571979
-0.03919504 0.00075330 0.00748630
-0.03980415 0.00075330 0.00897769
-0.04018484 0.00075330 0.00962021
-0.04061360 0.00075330 0.01019125
-0.04160720 0.00075330 0.01110492
-0.04278227 0.00075330 0.01171403
-0.04413879 0.00075330 0.01201858
-0.04488509 0.00075330 0.01205665
-0.04442219 0.00075330 0.01006552
-0.04358503 0.00075330 0.00983012
-0.04286607 0.00075330 0.00935931
-0.04226529 0.00075330 0.00865309
-0.04200923 0.00075330 0.00821171
-0.04178394 0.00075330 0.00771221
-0.04142348 0.00075330 0.00653518
-0.04118317 0.00075330 0.00512079
-0.04106301 0.00075330 0.00346903
-0.04104799 0.00075330 0.00255414
-0.04106301 0.00075330 0.00164287
-0.04118317 0.00075330 -0.00000349
-0.04142348 0.00075330 -0.00141494
-0.04178394 0.00075330 -0.00259148
-0.04200923 0.00075330 -0.00309165
-0.04226529 0.00075330 -0.00353304
-0.04286607 0.00075330 -0.00423925
-0.04358503 0.00075330 -0.00471006
-0.04442219 0.00075330 -0.00494546
-0.04488509 0.00075330 -0.00497489
-0.04535161 0.00075330 -0.00494546
-0.04619417 0.00075330 -0.00471006
-0.04691608 0.00075330 -0.00423925
-0.04751734 0.00075330 -0.00353304
-0.04777273 0.00075330 -0.00309165
-0.04799893 0.00075330 -0.00259148
-0.04836087 0.00075330 -0.00141494
-0.04860216 0.00075330 -0.00000349
-0.04872281 0.00075330 0.00164287
-0.04873789 0.00075330 0.00255414
-0.04872281 0.00075330 0.00346903
-0.04860216 0.00075330 0.00512079
-0.04836087 0.00075330 0.00653518
-0.04799893 0.00075330 0.00771221
-0.04777273 0.00075330 0.00821171
-0.04751734 0.00075330 0.00865309
-0.04691608 0.00075330 0.00935931
-0.04619417 0.00075330 0.00983012
-0.04535161 0.00075330 0.01006552
-0.04488509 0.00075330 0.01009495
-0.06004075 0.00000000 -0.00449623
-0.06004075 0.00000000 0.00947112
-0.05563868 0.00000000 0.00858836
-0.05563868 0.00000000 0.01084432
-0.06001721 0.00000000 0.01172709
-0.06249289 0.00000000 0.01172709
-0.06249289 0.00000000 -0.00449623
-0.06653793 0.00000000 -0.00449623
-0.06653793 0.00000000 -0.00657957
-0.05599571 0.00000000 -0.00657957
-0.05599571 0.00000000 -0.00449623
-0.06004075 0.00075330 -0.00449623
-0.06004075 0.00075330 0.00947112
-0.05563868 0.00075330 0.00858836
-0.05563868 0.00075330 0.01084432
-0.06001721 0.00075330 0.01172709
-0.06249289 0.00075330 0.01172709
-0.06249289 0.00075330 -0.00449623
-0.06653793 0.00075330 -0.00449623
-0.06653793 0.00075330 -0.00657957
-0.05599571 0.00075330 -0.00657957
-0.05599571 0.00075330 -0.00449623
3 28 29 0
3 25 26 27
3 22 23 24
3 20 21 22
3 18 19 20
3 16 17 18
3 14 15 16
3 12 13 14
3 10 11 12
3 1 2 3
3 27 28 0
3 24 25 27
3 20 22 24
3 16 18 20
3 12 14 16
3 9 10 12
3 0 1 3
3 24 27 0
3 16 20 24
3 9 12 16
3 24 0 3
3 8 9 16
3 24 3 4
3 7 8 16
3 24 4 5
3 6 7 16
3 24 5 6
3 6 16 24
3 30 59 58
3 57 56 55
3 54 53 52
3 52 51 50
3 50 49 48
3 48 47 46
3 46 45 44
3 44 43 42
3 42 41 40
3 33 32 31
3 30 58 57
3 57 55 54
3 54 52 50
3 50 48 46
3 46 44 42
3 42 40 39
3 33 31 30
3 30 57 54
3 54 50 46
3 46 42 39
3 33 30 54
3 46 39 38
3 34 33 54
3 46 38 37
3 35 34 54
3 46 37 36
3 36 35 54
3 54 46 36
3 30 31 0
3 0 31 1
3 31 32 1
3 1 32 2
3 32 33 2
3 2 33 3
3 33 34 3
3 3 34 4
3 34 35 4
3 4 35 5
3 35 36 5
3 5 36 6
3 36 37 6
3 6 37 7
3 37 38 7
3 7 38 8
3 38 39 8
3 8 39 9
3 39 40 9
3 9 40 10
3 40 41 10
3 10 41 11
3 41 42 11
3 11 42 12
3 42 43 12
3 12 43 13
3 43 44 13
3 13 44 14
3 44 45 14
3 14 45 15
3 45 46 15
3 15 46 16
3 46 47 16
3 16 47 17
3 47 48 17
3 17 48 18
3 48 49 18
3 18 49 19
3 49 50 19
3 19 50 20
3 50 51 20
3 20 51 21
3 51 52 21
3 21 52 22
3 52 53 22
3 22 53 23
3 53 54 23
3 23 54 24
3 54 55 24
3 24 55 25
3 55 56 25
3 25 56 26
3 56 57 26
3 26 57 27
3 57 58 27
3 27 58 28
3 59 30 29
3 29 30 0
3 58 59 28
3 28 59 29
3 88 89 60
3 86 87 88
3 84 85 86
3 82 83 84
3 80 81 82
3 78 79 80
3 76 77 78
3 74 75 76
3 88 60 61
3 84 86 88
3 80 82 84
3 73 74 76
3 88 61 62
3 80 84 88
3 73 76 78
3 88 62 63
3 78 80 88
3 72 73 78
3 88 63 64
3 71 72 78
3 88 64 65
3 70 71 78
3 88 65 66
3 69 70 78
3 78 88 66
3 68 69 78
3 78 66 67
3 67 68 78
3 90 119 118
3 118 117 116
3 116 115 114
3 114 113 112
3 112 111 110
3 110 109 108
3 108 107 106
3 106 105 104
3 91 90 118
3 118 116 114
3 114 112 110
3 106 104 103
3 92 91 118
3 118 114 110
3 108 106 103
3 93 92 118
3 118 110 108
3 108 103 102
3 94 93 118
3 108 102 101
3 95 94 118
3 108 101 100
3 96 95 118
3 108 100 99
3 96 118 108
3 108 99 98
3 97 96 108
3 108 98 97
3 90 91 60
3 60 91 61
3 91 92 61
3 61 92 62
3 92 93 62
3 62 93 63
3 93 94 63
3 63 94 64
3 94 95 64
3 64 95 65
3 95 96 65
3 65 96 66
3 96 97 66
3 66 97 67
3 97 98 67
3 67 98 68
3 98 99 68
3 68 99 69
3 99 100 69
3 69 100 70
3 100 101 70
3 70 101 71
3 101 102 71
3 71 102 72
3 102 103 72
3 72 103 73
3 103 104 73
3 73 104 74
3 104 105 74
3 74 105 75
3 105 106 75
3 75 106 76
3 106 107 76
3 76 107 77
3 107 108 77
3 77 108 78
3 108 109 78
3 78 109 79
3 109 110 79
3 79 110 80
3 110 111 80
3 80 111 81
3 111 112 81
3 81 112 82
3 112 113 82
3 82 113 83
3 113 114 83
3 83 114 84
3 114 115 84
3 84 115 85
3 115 116 85
3 85 116 86
3 116 117 86
3 86 117 87
3 117 118 87
3 87 118 88
3 119 90 89
3 89 90 60
3 118 119 88
3 88 119 89
3 188 189 138
3 138 189 190
3 136 137 138
3 134 135 136
3 132 133 134
3 130 131 132
3 128 129 130
3 126 127 128
3 124 125 126
3 122 123 124
3 120 121 122
3 179 180 120
3 177 178 179
3 175 176 177
3 173 174 175
3 171 172 173
3 169 170 171
3 167 168 169
3 165 166 167
3 147 148 149
3 145 146 147
3 143 144 145
3 141 142 143
3 139 140 141
3 188 138 139
3 138 190 191
3 134 136 138
3 130 132 134
3 126 128 130
3 122 124 126
3 179 120 122
3 175 177 179
3 171 173 175
3 167 169 171
3 164 165 167
3 145 147 149
3 141 143 145
3 188 139 141
3 138 191 192
3 130 134 138
3 122 126 130
3 175 179 122
3 167 171 175
3 163 164 167
3 141 145 149
3 187 188 141
3 138 192 193
3 162 163 167
3 186 187 141
3 130 138 193
3 161 162 167
3 185 186 141
3 130 193 194
3 160 161 167
3 184 185 141
3 130 194 195
3 160 167 175
3 183 184 141
3 130 195 196
3 159 160 175
3 183 141 149
3 130 196 197
3 158 159 175
3 182 183 149
3 130 197 198
3 157 158 175
3 181 182 149
3 122 130 198
3 156 157 175
3 207 181 149
3 122 198 199
3 155 156 175
3 206 207 149
3 122 199 200
3 154 155 175
3 122 200 201
3 153 154 175
3 122 201 202
3 152 153 175
3 122 202 203
3 151 152 175
3 122 203 204
3 150 151 175
3 122 204 205
3 149 150 175
3 175 122 205
3 206 149 175
3 175 205 206
3 226 277 276
3 278 277 226
3 226 225 224
3 224 223 222
3 222 221 220
3 220 219 218
3 218 217 216
3 216 215 214
3 214 213 212
3 212 211 210
3 210 209 208
3 208 268 267
3 267 266 265
3 265 264 263
3 263 262 261
3 261 260 259
3 259 258 257
3 257 256 255
3 255 254 253
3 237 236 235
3 235 234 233
3 233 232 231
3 231 230 229
3 229 228 227
3 227 226 276
3 279 278 226
3 226 224 222
3 222 220 218
3 218 216 214
3 214 212 210
3 210 208 267
3 267 265 263
3 263 261 259
3 259 257 255
3 255 253 252
3 237 235 233
3 233 231 229
3 229 227 276
3 280 279 226
3 226 222 218
3 218 214 210
3 210 267 263
3 263 259 255
3 255 252 251
3 237 233 229
3 229 276 275
3 281 280 226
3 255 251 250
3 229 275 274
3 281 226 218
3 255 250 249
3 229 274 273
3 282 281 218
3 255 249 248
3 229 273 272
3 283 282 218
3 263 255 248
3 229 272 271
3 284 283 218
3 263 248 247
3 237 229 271
3 285 284 218
3 263 247 246
3 237 271 270
3 286 285 218
3 263 246 245
3 237 270 269
3 286 218 210
3 263 245 244
3 237 269 295
3 287 286 210
3 263 244 243
3 237 295 294
3 288 287 210
3 263 243 242
3 289 288 210
3 263 242 241
3 290 289 210
3 263 241 240
3 291 290 210
3 263 240 239
3 292 291 210
3 263 239 238
3 293 292 210
3 263 238 237
3 293 210 263
3 263 237 294
3 294 293 263
3 208 209 120
3 120 209 121
3 209 210 121
3 121 210 122
3 210 211 122
3 122 211 123
3 211 212 123
3 123 212 124
3 212 213 124
3 124 213 125
3 213 214 125
3 125 214 126
3 214 215 126
3 126 215 127
3 215 216 127
3 127 216 128
3 216 217 128
3 128 217 129
3 217 218 129
3 129 218 130
3 218 219 130
3 130 219 131
3 219 220 131
3 131 220 132
3 220 221 132
3 132 221 133
3 221 222 133
3 133 222 134
3 222 223 134
3 134 223 135
3 223 224 135
3 135 224 136
3 224 225 136
3 136 225 137
3 225 226 137
3 137 226 138
3 226 227 138
3 138 227 139
3 227 228 139
3 139 228 140
3 228 229 140
3 140 229 141
3 229 230 141
3 141 230 142
3 230 231 142
3 142 231 143
3 231 232 143
3 143 232 144
3 232 233 144
3 144 233 145
3 233 234 145
3 145 234 146
3 234 235 146
3 146 235 147
3 235 236 147
3 147 236 148
3 236 237 148
3 148 237 149
3 237 238 149
3 149 238 150
3 238 239 150
3 150 239 151
3 239 240 151
3 151 240 152
3 240 241 152
3 152 241 153
3 241 242 153
3 153 242 154
3 242 243 154
3 154 243 155
3 243 244 155
3 155 244 156
3 244 245 156
3 156 245 157
3 245 246 157
3 157 246 158
3 246 247 158
3 158 247 159
3 247 248 159
3 159 248 160
3 248 249 160
3 160 249 161
3 249 250 161
3 161 250 162
3 250 251 162
3 162 251 163
3 251 252 163
3 163 252 164
3 252 253 164
3 164 253 165
3 253 254 165
3 165 254 166
3 254 255 166
3 166 255 167
3 255 256 167
3 167 256 168
3 256 257 168
3 168 257 169
3 257 258 169
3 169 258 170
3 258 259 170
3 170 259 171
3 259 260 171
3 171 260 172
3 260 261 172
3 172 261 173
3 261 262 173
3 173 262 174
3 262 263 174
3 174 263 175
3 263 264 175
3 175 264 176
3 264 265 176
3 176 265 177
3 265 266 177
3 177 266 178
3 266 267 178
3 178 267 179
3 268 208 180
3 180 208 120
3 267 268 179
3 179 268 180
3 269 270 181
3 181 270 182
3 270 271 182
3 182 271 183
3 271 272 183
3 183 272 184
3 272 273 184
3 184 273 185
3 273 274 185
3 185 274 186
3 274 275 186
3 186 275 187
3 275 276 187
3 187 276 188
3 276 277 188
3 188 277 189
3 277 278 189
3 189 278 190
3 278 279 190
3 190 279 191
3 279 280 191
3 191 280 192
3 280 281 192
3 192 281 193
3 281 282 193
3 193 282 194
3 282 283 194
3 194 283 195
3 283 284 195
3 195 284 196
3 284 285 196
3 196 285 197
3 285 286 197
3 197 286 198
3 286 287 198
3 198 287 199
3 287 288 199
3 199 288 200
3 288 289 200
3 200 289 201
3 289 290 201
3 201 290 202
3 290 291 202
3 202 291 203
3 291 292 203
3 203 292 204
3 292 293 204
3 204 293 205
3 293 294 205
3 205 294 206
3 295 269 207
3 207 269 181
3 294 295 206
3 206 295 207
3 316 317 296
3 308 309 310
3 306 307 308
3 304 305 306
3 302 303 304
3 300 301 302
3 298 299 300
3 296 297 298
3 315 316 296
3 308 310 311
3 304 306 308
3 300 302 304
3 296 298 300
3 308 311 312
3 300 304 308
3 315 296 300
3 308 312 313
3 314 315 300
3 300 308 313
3 313 314 300
3 318 339 338
3 332 331 330
3 330 329 328
3 328 327 326
3 326 325 324
3 324 323 322
3 322 321 320
3 320 319 318
3 318 338 337
3 333 332 330
3 330 328 326
3 326 324 322
3 322 320 318
3 334 333 330
3 330 326 322
3 322 318 337
3 335 334 330
3 322 337 336
3 335 330 322
3 322 336 335
3 318 319 296
3 296 319 297
3 319 320 297
3 297 320 298
3 320 321 298
3 298 321 299
3 321 322 299
3 299 322 300
3 322 323 300
3 300 323 301
3 323 324 301
3 301 324 302
3 324 325 302
3 302 325 303
3 325 326 303
3 303 326 304
3 326 327 304
3 304 327 305
3 327 328 305
3 305 328 306
3 328 329 306
3 306 329 307
3 329 330 307
3 307 330 308
3 330 331 308
3 308 331 309
3 331 332 309
3 309 332 310
3 332 333 310
3 310 333 311
3 333 334 311
3 311 334 312
3 334 335 312
3 312 335 313
3 335 336 313
3 313 336 314
3 336 337 314
3 314 337 315
3 337 338 315
3 315 338 316
3 339 318 317
3 317 318 296
3 338 339 316
3 316 339 317
3 342 343 340
3 340 341 342
3 344 347 346
3 346 345 344
3 344 345 340
3 340 345 341
3 345 346 341
3 341 346 342
3 347 344 343
3 343 344 340
3 346 347 342
3 342 347 343
3 350 351 348
3 348 349 350
3 352 355 354
3 354 353 352
3 352 353 348
3 348 353 349
3 353 354 349
3 349 354 350
3 355 352 351
3 351 352 348
3 354 355 350
3 350 355 351
3 367 368 356
3 365 366 367
3 363 364 365
3 361 362 363
3 367 356 357
3 360 361 363
3 365 367 357
3 360 363 365
3 365 357 358
3 359 360 365
3 365 358 359
3 369 381 380
3 380 379 378
3 378 377 376
3 376 375 374
3 370 369 380
3 376 374 373
3 370 380 378
3 378 376 373
3 371 370 378
3 378 373 372
3 372 371 378
3 369 370 356
3 356 370 357
3 370 371 357
3 357 371 358
3 371 372 358
3 358 372 359
3 372 373 359
3 359 373 360
3 373 374 360
3 360 374 361
3 374 375 361
3 361 375 362
3 375 376 362
3 362 376 363
3 376 377 363
3 363 377 364
3 377 378 364
3 364 378 365
3 378 379 365
3 365 379 366
3 379 380 366
3 366 380 367
3 381 369 368
3 368 369 356
3 380 381 367
3 367 381 368
3 437 438 383
3 383 438 439
3 418 382 383
3 416 417 418
3 414 415 416
3 412 413 414
3 410 411 412
3 408 409 410
3 406 407 408
3 404 405 406
3 402 403 404
3 400 401 402
3 398 399 400
3 396 397 398
3 394 395 396
3 392 393 394
3 390 391 392
3 388 389 390
3 386 387 388
3 384 385 386
3 437 383 384
3 383 439 440
3 414 416 418
3 410 412 414
3 406 408 410
3 402 404 406
3 398 400 402
3 394 396 398
3 390 392 394
3 386 388 390
3 437 384 386
3 383 440 441
3 410 414 418
3 402 406 410
3 394 398 402
3 386 390 394
3 436 437 386
3 418 383 441
3 435 436 386
3 418 441 442
3 434 435 386
3 418 442 443
3 433 434 386
3 418 443 444
3 432 433 386
3 418 444 445
3 431 432 386
3 418 445 446
3 431 386 394
3 418 446 447
3 430 431 394
3 410 418 447
3 429 430 394
3 410 447 448
3 428 429 394
3 410 448 449
3 427 428 394
3 410 449 450
3 426 427 394
3 410 450 451
3 425 426 394
3 410 451 452
3 424 425 394
3 410 452 453
3 424 394 402
3 410 453 454
3 423 424 402
3 410 454 455
3 422 423 402
3 402 410 455
3 421 422 402
3 402 455 456
3 420 421 402
3 402 456 457
3 419 420 402
3 402 457 458
3 458 419 402
3 460 515 514
3 516 515 460
3 460 459 495
3 495 494 493
3 493 492 491
3 491 490 489
3 489 488 487
3 487 486 485
3 485 484 483
3 483 482 481
3 481 480 479
3 479 478 477
3 477 476 475
3 475 474 473
3 473 472 471
3 471 470 469
3 469 468 467
3 467 466 465
3 465 464 463
3 463 462 461
3 461 460 514
3 517 516 460
3 495 493 491
3 491 489 487
3 487 485 483
3 483 481 479
3 479 477 475
3 475 473 471
3 471 469 467
3 467 465 463
3 463 461 514
3 518 517 460
3 495 491 487
3 487 483 479
3 479 475 471
3 471 467 463
3 463 514 513
3 518 460 495
3 463 513 512
3 519 518 495
3 463 512 511
3 520 519 495
3 463 511 510
3 521 520 495
3 463 510 509
3 522 521 495
3 463 509 508
3 523 522 495
3 471 463 508
3 524 523 495
3 471 508 507
3 524 495 487
3 471 507 506
3 525 524 487
3 471 506 505
3 526 525 487
3 471 505 504
3 527 526 487
3 471 504 503
3 528 527 487
3 471 503 502
3 529 528 487
3 471 502 501
3 530 529 487
3 479 471 501
3 531 530 487
3 479 501 500
3 532 531 487
3 479 500 499
3 532 487 479
3 479 499 498
3 533 532 479
3 479 498 497
3 534 533 479
3 479 497 496
3 535 534 479
3 479 496 535
3 459 460 382
3 382 460 383
3 460 461 383
3 383 461 384
3 461 462 384
3 384 462 385
3 462 463 385
3 385 463 386
3 463 464 386
3 386 464 387
3 464 465 387
3 387 465 388
3 465 466 388
3 388 466 389
3 466 467 389
3 389 467 390
3 467 468 390
3 390 468 391
3 468 469 391
3 391 469 392
3 469 470 392
3 392 470 393
3 470 471 393
3 393 471 394
3 471 472 394
3 394 472 395
3 472 473 395
3 395 473 396
3 473 474 396
3 396 474 397
3 474 475 397
3 397 475 398
3 475 476 398
3 398 476 399
3 476 477 399
3 399 477 400
3 477 478 400
3 400 478 401
3 478 479 401
3 401 479 402
3 479 480 402
3 402 480 403
3 480 481 403
3 403 481 404
3 481 482 404
3 404 482 405
3 482 483 405
3 405 483 406
3 483 484 406
3 406 484 407
3 484 485 407
3 407 485 408
3 485 486 408
3 408 486 409
3 486 487 409
3 409 487 410
3 487 488 410
3 410 488 411
3 488 489 411
3 411 489 412
3 489 490 412
3 412 490 413
3 490 491 413
3 413 491 414
3 491 492 414
3 414 492 415
3 492 493 415
3 415 493 416
3 493 494 416
3 416 494 417
3 495 459 418
3 418 459 382
3 494 495 417
3 417 495 418
3 496 497 419
3 419 497 420
3 497 498 420
3 420 498 421
3 498 499 421
3 421 499 422
3 499 500 422
3 422 500 423
3 500 501 423
3 423 501 424
3 501 502 424
3 424 502 425
3 502 503 425
3 425 503 426
3 503 504 426
3 426 504 427
3 504 505 427
3 427 505 428
3 505 506 428
3 428 506 429
3 506 507 429
3 429 507 430
3 507 508 430
3 430 508 431
3 508 509 431
3 431 509 432
3 509 510 432
3 432 510 433
3 510 511 433
3 433 511 434
3 511 512 434
3 434 512 435
3 512 513 435
3 435 513 436
3 513 514 436
3 436 514 437
3 514 515 437
3 437 515 438
3 515 516 438
3 438 516 439
3 516 517 439
3 439 517 440
3 517 518 440
3 440 518 441
3 518 519 441
3 441 519 442
3 519 520 442
3 442 520 443
3 520 521 443
3 443 521 444
3 521 522 444
3 444 522 445
3 522 523 445
3 445 523 446
3 523 524 446
3 446 524 447
3 524 525 447
3 447 525 448
3 525 526 448
3 448 526 449
3 526 527 449
3 449 527 450
3 527 528 450
3 450 528 451
3 528 529 451
3 451 529 452
3 529 530 452
3 452 530 453
3 530 531 453
3 453 531 454
3 531 532 454
3 454 532 455
3 532 533 455
3 455 533 456
3 533 534 456
3 456 534 457
3 535 496 458
3 458 496 419
3 534 535 457
3 457 535 458
3 538 539 536
3 536 537 538
3 540 543 542
3 542 541 540
3 540 541 536
3 536 541 537
3 541 542 537
3 537 542 538
3 543 540 539
3 539 540 536
3 542 543 538
3 538 543 539
3 592 593 573
3 573 593 594
3 571 572 573
3 569 570 571
3 567 568 569
3 565 566 567
3 563 564 565
3 561 562 563
3 559 560 561
3 557 558 559
3 555 556 557
3 553 554 555
3 551 552 553
3 549 550 551
3 547 548 549
3 545 546 547
3 583 544 545
3 581 582 583
3 579 580 581
3 577 578 579
3 575 576 577
3 573 574 575
3 591 592 573
3 573 594 595
3 569 571 573
3 565 567 569
3 561 563 565
3 557 559 561
3 553 555 557
3 549 551 553
3 545 547 549
3 581 583 545
3 577 579 581
3 573 575 577
3 590 591 573
3 573 595 596
3 565 569 573
3 557 561 565
3 549 553 557
3 581 545 549
3 573 577 581
3 589 590 573
3 573 596 597
3 589 573 581
3 573 597 598
3 588 589 581
3 573 598 599
3 587 588 581
3 565 573 599
3 586 587 581
3 565 599 600
3 585 586 581
3 565 600 601
3 584 585 581
3 565 601 602
3 623 584 581
3 565 602 603
3 622 623 581
3 565 603 604
3 622 581 549
3 565 604 605
3 621 622 549
3 557 565 605
3 620 621 549
3 557 605 606
3 619 620 549
3 557 606 607
3 618 619 549
3 557 607 608
3 617 618 549
3 557 608 609
3 616 617 549
3 557 609 610
3 615 616 549
3 557 610 611
3 615 549 557
3 557 611 612
3 614 615 557
3 557 612 613
3 613 614 557
3 653 673 672
3 674 673 653
3 653 652 651
3 651 650 649
3 649 648 647
3 647 646 645
3 645 644 643
3 643 642 641
3 641 640 639
3 639 638 637
3 637 636 635
3 635 634 633
3 633 632 631
3 631 630 629
3 629 628 627
3 627 626 625
3 625 624 663
3 663 662 661
3 661 660 659
3 659 658 657
3 657 656 655
3 655 654 653
3 653 672 671
3 675 674 653
3 653 651 649
3 649 647 645
3 645 643 641
3 641 639 637
3 637 635 633
3 633 631 629
3 629 627 625
3 625 663 661
3 661 659 657
3 657 655 653
3 653 671 670
3 676 675 653
3 653 649 645
3 645 641 637
3 637 633 629
3 629 625 661
3 661 657 653
3 653 670 669
3 677 676 653
3 661 653 669
3 678 677 653
3 661 669 668
3 679 678 653
3 661 668 667
3 679 653 645
3 661 667 666
3 680 679 645
3 661 666 665
3 681 680 645
3 661 665 664
3 682 681 645
3 661 664 703
3 683 682 645
3 661 703 702
3 684 683 645
3 629 661 702
3 685 684 645
3 629 702 701
3 685 645 637
3 629 701 700
3 686 685 637
3 629 700 699
3 687 686 637
3 629 699 698
3 688 687 637
3 629 698 697
3 689 688 637
3 629 697 696
3 690 689 637
3 629 696 695
3 691 690 637
3 637 629 695
3 692 691 637
3 637 695 694
3 693 692 637
3 637 694 693
3 624 625 544
3 544 625 545
3 625 626 545
3 545 626 546
3 626 627 546
3 546 627 547
3 627 628 547
3 547 628 548
3 628 629 548
3 548 629 549
3 629 630 549
3 549 630 550
3 630 631 550
3 550 631 551
3 631 632 551
3 551 632 552
3 632 633 552
3 552 633 553
3 633 634 553
3 553 634 554
3 634 635 554
3 554 635 555
3 635 636 555
3 555 636 556
3 636 637 556
3 556 637 557
3 637 638 557
3 557 638 558
3 638 639 558
3 558 639 559
3 639 640 559
3 559 640 560
3 640 641 560
3 560 641 561
3 641 642 561
3 561 642 562
3 642 643 562
3 562 643 563
3 643 644 563
3 563 644 564
3 644 645 564
3 564 645 565
3 645 646 565
3 565 646 566
3 646 647 566
3 566 647 567
3 647 648 567
3 567 648 568
3 648 649 568
3 568 649 569
3 649 650 569
3 569 650 570
3 650 651 570
3 570 651 571
3 651 652 571
3 571 652 572
3 652 653 572
3 572 653 573
3 653 654 573
3 573 654 574
3 654 655 574
3 574 655 575
3 655 656 575
3 575 656 576
3 656 657 576
3 576 657 577
3 657 658 577
3 577 658 578
3 658 659 578
3 578 659 579
3 659 660 579
3 579 660 580
3 660 661 580
3 580 661 581
3 661 662 581
3 581 662 582
3 663 624 583
3 583 624 544
3 662 663 582
3 582 663 583
3 664 665 584
3 584 665 585
3 665 666 585
3 585 666 586
3 666 667 586
3 586 667 587
3 667 668 587
3 587 668 588
3 668 669 588
3 588 669 589
3 669 670 589
3 589 670 590
3 670 671 590
3 590 671 591
3 671 672 591
3 591 672 592
3 672 673 592
3 592 673 593
3 673 674 593
3 593 674 594
3 674 675 594
3 594 675 595
3 675 676 595
3 595 676 596
3 676 677 596
3 596 677 597
3 677 678 597
3 597 678 598
3 678 679 598
3 598 679 599
3 679 680 599
3 599 680 600
3 680 681 600
3 600 681 601
3 681 682 601
3 601 682 602
3 682 683 602
3 602 683 603
3 683 684 603
3 603 684 604
3 684 685 604
3 604 685 605
3 685 686 605
3 605 686 606
3 686 687 606
3 606 687 607
3 687 688 607
3 607 688 608
3 688 689 608
3 608 689 609
3 689 690 609
3 609 690 610
3 690 691 610
3 610 691 611
3 691 692 611
3 611 692 612
3 692 693 612
3 612 693 613
3 693 694 613
3 613 694 614
3 694 695 614
3 614 695 615
3 695 696 615
3 615 696 616
3 696 697 616
3 616 697 617
3 697 698 617
3 617 698 618
3 698 699 618
3 618 699 619
3 699 700 619
3 619 700 620
3 700 701 620
3 620 701 621
3 701 702 621
3 621 702 622
3 703 664 623
3 623 664 584
3 702 703 622
3 622 703 623
3 713 714 704
3 711 712 713
3 708 709 710
3 706 707 708
3 710 711 713
3 705 706 708
3 710 713 704
3 705 708 710
3 710 704 705
3 715 725 724
3 724 723 722
3 721 720 719
3 719 718 717
3 724 722 721
3 719 717 716
3 715 724 721
3 721 719 716
3 716 715 721
3 715 716 704
3 704 716 705
3 716 717 705
3 705 717 706
3 717 718 706
3 706 718 707
3 718 719 707
3 707 719 708
3 719 720 708
3 708 720 709
3 720 721 709
3 709 721 710
3 721 722 710
3 710 722 711
3 722 723 711
3 711 723 712
3 723 724 712
3 712 724 713
3 725 715 714
3 714 715 704
3 724 725 713
3 713 725 714
