ply
format ascii 1.0
comment https://github.com/mikedh/trimesh
element vertex 446
property float x
property float y
property float z
element face 864
property list uchar int vertex_indices
end_header
-0.70710456 0.00000000 0.03484513
-0.71000791 0.00000000 0.03469954
-0.71534759 0.00000000 0.03353481
-0.72006458 0.00000000 0.03120535
-0.72415888 0.00000000 0.02771116
-0.72597253 0.00000000 0.02552729
-0.72759986 0.00000000 0.02309014
-0.73020357 0.00000000 0.01756977
-0.73193938 0.00000000 0.01118795
-0.73280728 0.00000000 0.00394468
-0.73291576 0.00000000 0.00000000
-0.73280805 0.00000000 -0.00394468
-0.73194659 0.00000000 -0.01118795
-0.73022372 0.00000000 -0.01756977
-0.72763938 0.00000000 -0.02309014
-0.72602415 0.00000000 -0.02552729
-0.72421533 0.00000000 -0.02771116
-0.72012103 0.00000000 -0.03120535
-0.71539116 0.00000000 -0.03353481
-0.71002567 0.00000000 -0.03469954
-0.70710456 0.00000000 -0.03484513
-0.70421368 0.00000000 -0.03469914
-0.69889659 0.00000000 -0.03353118
-0.69419891 0.00000000 -0.03119527
-0.69012076 0.00000000 -0.02769139
-0.68831396 0.00000000 -0.02550147
-0.68668664 0.00000000 -0.02305344
-0.68408293 0.00000000 -0.01752339
-0.68234718 0.00000000 -0.01114802
-0.68147928 0.00000000 -0.00392734
-0.68137074 0.00000000 0.00000000
-0.68147928 0.00000000 0.00390959
-0.68234718 0.00000000 0.01110447
-0.68408293 0.00000000 0.01746693
-0.68668664 0.00000000 0.02299698
-0.68831396 0.00000000 0.02544985
-0.69012076 0.00000000 0.02765187
-0.69419891 0.00000000 0.03117510
-0.69889659 0.00000000 0.03352392
-0.70421368 0.00000000 0.03469833
-0.70710456 -0.00495575 0.03484513
-0.71000791 -0.00495575 0.03469954
-0.71534759 -0.00495575 0.03353481
-0.72006458 -0.00495575 0.03120535
-0.72415888 -0.00495575 0.02771116
-0.72597253 -0.00495575 0.02552729
-0.72759986 -0.00495575 0.02309014
-0.73020357 -0.00495575 0.01756977
-0.73193938 -0.00495575 0.01118795
-0.73280728 -0.00495575 0.00394468
-0.73291576 -0.00495575 0.00000000
-0.73280805 -0.00495575 -0.00394468
-0.73194659 -0.00495575 -0.01118795
-0.73022372 -0.00495575 -0.01756977
-0.72763938 -0.00495575 -0.02309014
-0.72602415 -0.00495575 -0.02552729
-0.72421533 -0.00495575 -0.02771116
-0.72012103 -0.00495575 -0.03120535
-0.71539116 -0.00495575 -0.03353481
-0.71002567 -0.00495575 -0.03469954
-0.70710456 -0.00495575 -0.03484513
-0.70421368 -0.00495575 -0.03469914
-0.69889659 -0.00495575 -0.03353118
-0.69419891 -0.00495575 -0.03119527
-0.69012076 -0.00495575 -0.02769139
-0.68831396 -0.00495575 -0.02550147
-0.68668664 -0.00495575 -0.02305344
-0.68408293 -0.00495575 -0.01752339
-0.68234718 -0.00495575 -0.01114802
-0.68147928 -0.00495575 -0.00392734
-0.68137074 -0.00495575 0.00000000
-0.68147928 -0.00495575 0.00390959
-0.68234718 -0.00495575 0.01110447
-0.68408293 -0.00495575 0.01746693
-0.68668664 -0.00495575 0.02299698
-0.68831396 -0.00495575 0.02544985
-0.69012076 -0.00495575 0.02765187
-0.69419891 -0.00495575 0.03117510
-0.69889659 -0.00495575 0.03352392
-0.70421368 -0.00495575 0.03469833
-0.42357808 0.00000000 0.00815634
-0.42371842 0.00000000 0.01111898
-0.42460892 0.00000000 0.01658451
-0.42631245 0.00000000 0.02143702
-0.42882904 0.00000000 0.02567651
-0.43039224 0.00000000 0.02756637
-0.43212441 0.00000000 0.02927233
-0.43599287 0.00000000 0.03200187
-0.44040012 0.00000000 0.03382156
-0.44534621 0.00000000 0.03473140
-0.44802129 0.00000000 0.03484513
-0.45104766 0.00000000 0.03473543
-0.45663577 0.00000000 0.03385785
-0.46160445 0.00000000 0.03210269
-0.46595362 0.00000000 0.02946995
-0.46789593 0.00000000 0.02782448
-0.46966198 0.00000000 0.02597979
-0.47260123 0.00000000 0.02175320
-0.47475001 0.00000000 0.01681036
-0.47610831 0.00000000 0.01115125
-0.47649106 0.00000000 0.00805310
-0.42357808 -0.00495575 0.00815634
-0.42371842 -0.00495575 0.01111898
-0.42460892 -0.00495575 0.01658451
-0.42631245 -0.00495575 0.02143702
-0.42882904 -0.00495575 0.02567651
-0.43039224 -0.00495575 0.02756637
-0.43212441 -0.00495575 0.02927233
-0.43599287 -0.00495575 0.03200187
-0.44040012 -0.00495575 0.03382156
-0.44534621 -0.00495575 0.03473140
-0.44802129 -0.00495575 0.03484513
-0.45104766 -0.00495575 0.03473543
-0.45663577 -0.00495575 0.03385785
-0.46160445 -0.00495575 0.03210269
-0.46595362 -0.00495575 0.02946995
-0.46789593 -0.00495575 0.02782448
-0.46966198 -0.00495575 0.02597979
-0.47260123 -0.00495575 0.02175320
-0.47475001 -0.00495575 0.01681036
-0.47610831 -0.00495575 0.01115125
-0.47649106 -0.00495575 0.00805310
-0.14159061 0.00000000 0.00815634
-0.14173096 0.00000000 0.01111898
-0.14262146 0.00000000 0.01658451
-0.14432499 0.00000000 0.02143702
-0.14684159 0.00000000 0.02567651
-0.14840478 0.00000000 0.02756637
-0.15013695 0.00000000 0.02927233
-0.15400541 0.00000000 0.03200187
-0.15841267 0.00000000 0.03382156
-0.16335875 0.00000000 0.03473140
-0.16603383 0.00000000 0.03484513
-0.16906020 0.00000000 0.03473543
-0.17464833 0.00000000 0.03385785
-0.17961697 0.00000000 0.03210269
-0.18396617 0.00000000 0.02946995
-0.18590847 0.00000000 0.02782448
-0.18767451 0.00000000 0.02597979
-0.19061376 0.00000000 0.02175320
-0.19276255 0.00000000 0.01681036
-0.19412087 0.00000000 0.01115125
-0.19450359 0.00000000 0.00805310
-0.14159061 -0.00495575 0.00815634
-0.14173096 -0.00495575 0.01111898
-0.14262146 -0.00495575 0.01658451
-0.14432499 -0.00495575 0.02143702
-0.14684159 -0.00495575 0.02567651
-0.14840478 -0.00495575 0.02756637
-0.15013695 -0.00495575 0.02927233
-0.15400541 -0.00495575 0.03200187
-0.15841267 -0.00495575 0.03382156
-0.16335875 -0.00495575 0.03473140
-0.16603383 -0.00495575 0.03484513
-0.16906020 -0.00495575 0.03473543
-0.17464833 -0.00495575 0.03385785
-0.17961697 -0.00495575 0.03210269
-0.18396617 -0.00495575 0.02946995
-0.18590847 -0.00495575 0.02782448
-0.18767451 -0.00495575 0.02597979
-0.19061376 -0.00495575 0.02175320
-0.19276255 -0.00495575 0.01681036
-0.19412087 -0.00495575 0.01115125
-0.19450359 -0.00495575 0.00805310
0.08819690 0.00000000 0.03484513
0.08529355 0.00000000 0.03469954
0.07995385 0.00000000 0.03353481
0.07523685 0.00000000 0.03120535
0.07114255 0.00000000 0.02771116
0.06932891 0.00000000 0.02552729
0.06770159 0.00000000 0.02309014
0.06509788 0.00000000 0.01756977
0.06336208 0.00000000 0.01118795
0.06249418 0.00000000 0.00394468
0.06238569 0.00000000 0.00000000
0.06249337 0.00000000 -0.00394468
0.06335482 0.00000000 -0.01118795
0.06507772 0.00000000 -0.01756977
0.06766207 0.00000000 -0.02309014
0.06927729 0.00000000 -0.02552729
0.07108609 0.00000000 -0.02771116
0.07518039 0.00000000 -0.03120535
0.07991029 0.00000000 -0.03353481
0.08527580 0.00000000 -0.03469954
0.08819690 0.00000000 -0.03484513
0.09108776 0.00000000 -0.03469914
0.09640487 0.00000000 -0.03353118
0.10110251 0.00000000 -0.03119527
0.10518068 0.00000000 -0.02769139
0.10698746 0.00000000 -0.02550147
0.10861478 0.00000000 -0.02305344
0.11121848 0.00000000 -0.01752339
0.11295429 0.00000000 -0.01114802
0.11382219 0.00000000 -0.00392734
0.11393068 0.00000000 0.00000000
0.11382219 0.00000000 0.00390959
0.11295429 0.00000000 0.01110447
0.11121848 0.00000000 0.01746693
0.10861478 0.00000000 0.02299698
0.10698746 0.00000000 0.02544985
0.10518068 0.00000000 0.02765187
0.10110251 0.00000000 0.03117510
0.09640487 0.00000000 0.03352392
0.09108776 0.00000000 0.03469833
0.08819690 -0.00495575 0.03484513
0.08529355 -0.00495575 0.03469954
0.07995385 -0.00495575 0.03353481
0.07523685 -0.00495575 0.03120535
0.07114255 -0.00495575 0.02771116
0.06932891 -0.00495575 0.02552729
0.06770159 -0.00495575 0.02309014
0.06509788 -0.00495575 0.01756977
0.06336208 -0.00495575 0.01118795
0.06249418 -0.00495575 0.00394468
0.06238569 -0.00495575 0.00000000
0.06249337 -0.00495575 -0.00394468
0.06335482 -0.00495575 -0.01118795
0.06507772 -0.00495575 -0.01756977
0.06766207 -0.00495575 -0.02309014
0.06927729 -0.00495575 -0.02552729
0.07108609 -0.00495575 -0.02771116
0.07518039 -0.00495575 -0.03120535
0.07991029 -0.00495575 -0.03353481
0.08527580 -0.00495575 -0.03469954
0.08819690 -0.00495575 -0.03484513
0.09108776 -0.00495575 -0.03469914
0.09640487 -0.00495575 -0.03353118
0.10110251 -0.00495575 -0.03119527
0.10518068 -0.00495575 -0.02769139
0.10698746 -0.00495575 -0.02550147
0.10861478 -0.00495575 -0.02305344
0.11121848 -0.00495575 -0.01752339
0.11295429 -0.00495575 -0.01114802
0.11382219 -0.00495575 -0.00392734
0.11393068 -0.00495575 0.00000000
0.11382219 -0.00495575 0.00390959
0.11295429 -0.00495575 0.01110447
0.11121848 -0.00495575 0.01746693
0.10861478 -0.00495575 0.02299698
0.10698746 -0.00495575 0.02544985
0.10518068 -0.00495575 0.02765187
0.10110251 -0.00495575 0.03117510
0.09640487 -0.00495575 0.03352392
0.09108776 -0.00495575 0.03469833
0.31365460 0.00000000 0.00000000
0.31375986 0.00000000 -0.00398098
0.31460193 0.00000000 -0.01128232
0.31628612 0.00000000 -0.01770286
0.31881240 0.00000000 -0.02324259
0.32039133 0.00000000 -0.02568215
0.32215413 0.00000000 -0.02786602
0.32615164 0.00000000 -0.03136022
0.33077830 0.00000000 -0.03368968
0.33603412 0.00000000 -0.03485441
0.33889794 0.00000000 -0.03500000
0.34176219 0.00000000 -0.03485441
0.34702122 0.00000000 -0.03368968
0.35165435 0.00000000 -0.03136022
0.35566154 0.00000000 -0.02786602
0.35743040 0.00000000 -0.02568215
0.35902143 0.00000000 -0.02324259
0.36156705 0.00000000 -0.01770286
0.36326414 0.00000000 -0.01128232
0.36411268 0.00000000 -0.00398098
0.36421874 0.00000000 0.00000000
0.36411268 0.00000000 0.00398098
0.36326414 0.00000000 0.01128232
0.36156705 0.00000000 0.01770286
0.35902143 0.00000000 0.02324259
0.35743040 0.00000000 0.02568215
0.35566154 0.00000000 0.02786602
0.35165435 0.00000000 0.03136022
0.34702122 0.00000000 0.03368968
0.34176219 0.00000000 0.03485441
0.33889794 0.00000000 0.03500000
0.33603412 0.00000000 0.03485441
0.33077830 0.00000000 0.03368968
0.32615164 0.00000000 0.03136022
0.32215413 0.00000000 0.02786602
0.32039133 0.00000000 0.02568215
0.31881240 0.00000000 0.02324259
0.31628612 0.00000000 0.01770286
0.31460193 0.00000000 0.01128232
0.31375986 0.00000000 0.00398098
0.31365460 -0.00495575 0.00000000
0.31375986 -0.00495575 -0.00398098
0.31460193 -0.00495575 -0.01128232
0.31628612 -0.00495575 -0.01770286
0.31881240 -0.00495575 -0.02324259
0.32039133 -0.00495575 -0.02568215
0.32215413 -0.00495575 -0.02786602
0.32615164 -0.00495575 -0.03136022
0.33077830 -0.00495575 -0.03368968
0.33603412 -0.00495575 -0.03485441
0.33889794 -0.00495575 -0.03500000
0.34176219 -0.00495575 -0.03485441
0.34702122 -0.00495575 -0.03368968
0.35165435 -0.00495575 -0.03136022
0.35566154 -0.00495575 -0.02786602
0.35743040 -0.00495575 -0.02568215
0.35902143 -0.00495575 -0.02324259
0.36156705 -0.00495575 -0.01770286
0.36326414 -0.00495575 -0.01128232
0.36411268 -0.00495575 -0.00398098
0.36421874 -0.00495575 0.00000000
0.36411268 -0.00495575 0.00398098
0.36326414 -0.00495575 0.01128232
0.36156705 -0.00495575 0.01770286
0.35902143 -0.00495575 0.02324259
0.35743040 -0.00495575 0.02568215
0.35566154 -0.00495575 0.02786602
0.35165435 -0.00495575 0.03136022
0.34702122 -0.00495575 0.03368968
0.34176219 -0.00495575 0.03485441
0.33889794 -0.00495575 0.03500000
0.33603412 -0.00495575 0.03485441
0.33077830 -0.00495575 0.03368968
0.32615164 -0.00495575 0.03136022
0.32215413 -0.00495575 0.02786602
0.32039133 -0.00495575 0.02568215
0.31881240 -0.00495575 0.02324259
0.31628612 -0.00495575 0.01770286
0.31460193 -0.00495575 0.01128232
0.31375986 -0.00495575 0.00398098
0.47207090 0.00000000 0.00815634
0.47193053 0.00000000 0.01111898
0.47104004 0.00000000 0.01658451
0.46933651 0.00000000 0.02143702
0.46681991 0.00000000 0.02567651
0.46525672 0.00000000 0.02756637
0.46352455 0.00000000 0.02927233
0.45965609 0.00000000 0.03200187
0.45524883 0.00000000 0.03382156
0.45030275 0.00000000 0.03473140
0.44762766 0.00000000 0.03484513
0.44460130 0.00000000 0.03473543
0.43901318 0.00000000 0.03385785
0.43404451 0.00000000 0.03210269
0.42969534 0.00000000 0.02946995
0.42775303 0.00000000 0.02782448
0.42598701 0.00000000 0.02597979
0.42304775 0.00000000 0.02175320
0.42089894 0.00000000 0.01681036
0.41954064 0.00000000 0.01115125
0.41915792 0.00000000 0.00805310
0.47207090 -0.00495575 0.00815634
0.47193053 -0.00495575 0.01111898
0.47104004 -0.00495575 0.01658451
0.46933651 -0.00495575 0.02143702
0.46681991 -0.00495575 0.02567651
0.46525672 -0.00495575 0.02756637
0.46352455 -0.00495575 0.02927233
0.45965609 -0.00495575 0.03200187
0.45524883 -0.00495575 0.03382156
0.45030275 -0.00495575 0.03473140
0.44762766 -0.00495575 0.03484513
0.44460130 -0.00495575 0.03473543
0.43901318 -0.00495575 0.03385785
0.43404451 -0.00495575 0.03210269
0.42969534 -0.00495575 0.02946995
0.42775303 -0.00495575 0.02782448
0.42598701 -0.00495575 0.02597979
0.42304775 -0.00495575 0.02175320
0.42089894 -0.00495575 0.01681036
0.41954064 -0.00495575 0.01115125
0.41915792 -0.00495575 0.00805310
0.70718199 0.00000000 0.03484513
0.70427859 0.00000000 0.03469954
0.69893891 0.00000000 0.03353481
0.69422191 0.00000000 0.03120535
0.69012761 0.00000000 0.02771116
0.68831396 0.00000000 0.02552729
0.68668664 0.00000000 0.02309014
0.68408293 0.00000000 0.01756977
0.68234718 0.00000000 0.01118795
0.68147928 0.00000000 0.00394468
0.68137074 0.00000000 0.00000000
0.68147844 0.00000000 -0.00394468
0.68233991 0.00000000 -0.01118795
0.68406278 0.00000000 -0.01756977
0.68664712 0.00000000 -0.02309014
0.68826234 0.00000000 -0.02552729
0.69007117 0.00000000 -0.02771116
0.69416547 0.00000000 -0.03120535
0.69889534 0.00000000 -0.03353481
0.70426089 0.00000000 -0.03469954
0.70718199 0.00000000 -0.03484513
0.71007282 0.00000000 -0.03469914
0.71538991 0.00000000 -0.03353118
0.72008759 0.00000000 -0.03119527
0.72416574 0.00000000 -0.02769139
0.72597253 0.00000000 -0.02550147
0.72759986 0.00000000 -0.02305344
0.73020357 0.00000000 -0.01752339
0.73193938 0.00000000 -0.01114802
0.73280728 0.00000000 -0.00392734
0.73291576 0.00000000 0.00000000
0.73280728 0.00000000 0.00390959
0.73193938 0.00000000 0.01110447
0.73020357 0.00000000 0.01746693
0.72759986 0.00000000 0.02299698
0.72597253 0.00000000 0.02544985
0.72416574 0.00000000 0.02765187
0.72008759 0.00000000 0.03117510
0.71538991 0.00000000 0.03352392
0.71007282 0.00000000 0.03469833
0.70718199 -0.00495575 0.03484513
0.70427859 -0.00495575 0.03469954
0.69893891 -0.00495575 0.03353481
0.69422191 -0.00495575 0.03120535
0.69012761 -0.00495575 0.02771116
0.68831396 -0.00495575 0.02552729
0.68668664 -0.00495575 0.02309014
0.68408293 -0.00495575 0.01756977
0.68234718 -0.00495575 0.01118795
0.68147928 -0.00495575 0.00394468
0.68137074 -0.00495575 0.00000000
0.68147844 -0.00495575 -0.00394468
0.68233991 -0.00495575 -0.01118795
0.68406278 -0.00495575 -0.01756977
0.68664712 -0.00495575 -0.02309014
0.68826234 -0.00495575 -0.02552729
0.69007117 -0.00495575 -0.02771116
0.69416547 -0.00495575 -0.03120535
0.69889534 -0.00495575 -0.03353481
0.70426089 -0.00495575 -0.03469954
0.70718199 -0.00495575 -0.03484513
0.71007282 -0.00495575 -0.03469914
0.71538991 -0.00495575 -0.03353118
0.72008759 -0.00495575 -0.03119527
0.72416574 -0.00495575 -0.02769139
0.72597253 -0.00495575 -0.02550147
0.72759986 -0.00495575 -0.02305344
0.73020357 -0.00495575 -0.01752339
0.73193938 -0.00495575 -0.01114802
0.73280728 -0.00495575 -0.00392734
0.73291576 -0.00495575 0.00000000
0.73280728 -0.00495575 0.00390959
0.73193938 -0.00495575 0.01110447
0.73020357 -0.00495575 0.01746693
0.72759986 -0.00495575 0.02299698
0.72597253 -0.00495575 0.02544985
0.72416574 -0.00495575 0.02765187
0.72008759 -0.00495575 0.03117510
0.71538991 -0.00495575 0.03352392
0.71007282 -0.00495575 0.03469833
3 1 0 39
3 3 2 1
3 5 4 3
3 7 6 5
3 9 8 7
3 11 10 9
3 13 12 11
3 15 14 13
3 17 16 15
3 19 18 17
3 21 20 19
3 23 22 21
3 25 24 23
3 27 26 25
3 29 28 27
3 31 30 29
3 33 32 31
3 35 34 33
3 37 36 35
3 39 38 37
3 3 1 39
3 7 5 3
3 11 9 7
3 15 13 11
3 19 17 15
3 23 21 19
3 27 25 23
3 31 29 27
3 35 33 31
3 39 37 35
3 7 3 39
3 15 11 7
3 23 19 15
3 31 27 23
3 39 35 31
3 15 7 39
3 31 23 15
3 15 39 31
3 79 40 41
3 41 42 43
3 43 44 45
3 45 46 47
3 47 48 49
3 49 50 51
3 51 52 53
3 53 54 55
3 55 56 57
3 57 58 59
3 59 60 61
3 61 62 63
3 63 64 65
3 65 66 67
3 67 68 69
3 69 70 71
3 71 72 73
3 73 74 75
3 75 76 77
3 77 78 79
3 79 41 43
3 43 45 47
3 47 49 51
3 51 53 55
3 55 57 59
3 59 61 63
3 63 65 67
3 67 69 71
3 71 73 75
3 75 77 79
3 79 43 47
3 47 51 55
3 55 59 63
3 63 67 71
3 71 75 79
3 79 47 55
3 55 63 71
3 71 79 55
3 41 40 1
3 1 40 0
3 42 41 2
3 2 41 1
3 43 42 3
3 3 42 2
3 44 43 4
3 4 43 3
3 45 44 5
3 5 44 4
3 46 45 6
3 6 45 5
3 47 46 7
3 7 46 6
3 48 47 8
3 8 47 7
3 49 48 9
3 9 48 8
3 50 49 10
3 10 49 9
3 51 50 11
3 11 50 10
3 52 51 12
3 12 51 11
3 53 52 13
3 13 52 12
3 54 53 14
3 14 53 13
3 55 54 15
3 15 54 14
3 56 55 16
3 16 55 15
3 57 56 17
3 17 56 16
3 58 57 18
3 18 57 17
3 59 58 19
3 19 58 18
3 60 59 20
3 20 59 19
3 61 60 21
3 21 60 20
3 62 61 22
3 22 61 21
3 63 62 23
3 23 62 22
3 64 63 24
3 24 63 23
3 65 64 25
3 25 64 24
3 66 65 26
3 26 65 25
3 67 66 27
3 27 66 26
3 68 67 28
3 28 67 27
3 69 68 29
3 29 68 28
3 70 69 30
3 30 69 29
3 71 70 31
3 31 70 30
3 72 71 32
3 32 71 31
3 73 72 33
3 33 72 32
3 74 73 34
3 34 73 33
3 75 74 35
3 35 74 34
3 76 75 36
3 36 75 35
3 77 76 37
3 37 76 36
3 78 77 38
3 38 77 37
3 40 79 0
3 0 79 39
3 79 78 39
3 39 78 38
3 81 80 100
3 83 82 81
3 85 84 83
3 87 86 85
3 89 88 87
3 91 90 89
3 93 92 91
3 95 94 93
3 97 96 95
3 99 98 97
3 81 100 99
3 85 83 81
3 89 87 85
3 93 91 89
3 97 95 93
3 81 99 97
3 89 85 81
3 97 93 89
3 89 81 97
3 121 101 102
3 102 103 104
3 104 105 106
3 106 107 108
3 108 109 110
3 110 111 112
3 112 113 114
3 114 115 116
3 116 117 118
3 118 119 120
3 120 121 102
3 102 104 106
3 106 108 110
3 110 112 114
3 114 116 118
3 118 120 102
3 102 106 110
3 110 114 118
3 118 102 110
3 102 101 81
3 81 101 80
3 103 102 82
3 82 102 81
3 104 103 83
3 83 103 82
3 105 104 84
3 84 104 83
3 106 105 85
3 85 105 84
3 107 106 86
3 86 106 85
3 108 107 87
3 87 107 86
3 109 108 88
3 88 108 87
3 110 109 89
3 89 109 88
3 111 110 90
3 90 110 89
3 112 111 91
3 91 111 90
3 113 112 92
3 92 112 91
3 114 113 93
3 93 113 92
3 115 114 94
3 94 114 93
3 116 115 95
3 95 115 94
3 117 116 96
3 96 116 95
3 118 117 97
3 97 117 96
3 119 118 98
3 98 118 97
3 120 119 99
3 99 119 98
3 101 121 80
3 80 121 100
3 121 120 100
3 100 120 99
3 123 122 142
3 125 124 123
3 127 126 125
3 129 128 127
3 131 130 129
3 133 132 131
3 135 134 133
3 137 136 135
3 139 138 137
3 141 140 139
3 123 142 141
3 127 125 123
3 131 129 127
3 135 133 131
3 139 137 135
3 123 141 139
3 131 127 123
3 139 135 131
3 131 123 139
3 163 143 144
3 144 145 146
3 146 147 148
3 148 149 150
3 150 151 152
3 152 153 154
3 154 155 156
3 156 157 158
3 158 159 160
3 160 161 162
3 162 163 144
3 144 146 148
3 148 150 152
3 152 154 156
3 156 158 160
3 160 162 144
3 144 148 152
3 152 156 160
3 160 144 152
3 144 143 123
3 123 143 122
3 145 144 124
3 124 144 123
3 146 145 125
3 125 145 124
3 147 146 126
3 126 146 125
3 148 147 127
3 127 147 126
3 149 148 128
3 128 148 127
3 150 149 129
3 129 149 128
3 151 150 130
3 130 150 129
3 152 151 131
3 131 151 130
3 153 152 132
3 132 152 131
3 154 153 133
3 133 153 132
3 155 154 134
3 134 154 133
3 156 155 135
3 135 155 134
3 157 156 136
3 136 156 135
3 158 157 137
3 137 157 136
3 159 158 138
3 138 158 137
3 160 159 139
3 139 159 138
3 161 160 140
3 140 160 139
3 162 161 141
3 141 161 140
3 143 163 122
3 122 163 142
3 163 162 142
3 142 162 141
3 165 164 203
3 167 166 165
3 169 168 167
3 171 170 169
3 173 172 171
3 175 174 173
3 177 176 175
3 179 178 177
3 181 180 179
3 183 182 181
3 185 184 183
3 187 186 185
3 189 188 187
3 191 190 189
3 193 192 191
3 195 194 193
3 197 196 195
3 199 198 197
3 201 200 199
3 203 202 201
3 167 165 203
3 171 169 167
3 175 173 171
3 179 177 175
3 183 181 179
3 187 185 183
3 191 189 187
3 195 193 191
3 199 197 195
3 203 201 199
3 171 167 203
3 179 175 171
3 187 183 179
3 195 191 187
3 203 199 195
3 179 171 203
3 195 187 179
3 179 203 195
3 243 204 205
3 205 206 207
3 207 208 209
3 209 210 211
3 211 212 213
3 213 214 215
3 215 216 217
3 217 218 219
3 219 220 221
3 221 222 223
3 223 224 225
3 225 226 227
3 227 228 229
3 229 230 231
3 231 232 233
3 233 234 235
3 235 236 237
3 237 238 239
3 239 240 241
3 241 242 243
3 243 205 207
3 207 209 211
3 211 213 215
3 215 217 219
3 219 221 223
3 223 225 227
3 227 229 231
3 231 233 235
3 235 237 239
3 239 241 243
3 243 207 211
3 211 215 219
3 219 223 227
3 227 231 235
3 235 239 243
3 243 211 219
3 219 227 235
3 235 243 219
3 205 204 165
3 165 204 164
3 206 205 166
3 166 205 165
3 207 206 167
3 167 206 166
3 208 207 168
3 168 207 167
3 209 208 169
3 169 208 168
3 210 209 170
3 170 209 169
3 211 210 171
3 171 210 170
3 212 211 172
3 172 211 171
3 213 212 173
3 173 212 172
3 214 213 174
3 174 213 173
3 215 214 175
3 175 214 174
3 216 215 176
3 176 215 175
3 217 216 177
3 177 216 176
3 218 217 178
3 178 217 177
3 219 218 179
3 179 218 178
3 220 219 180
3 180 219 179
3 221 220 181
3 181 220 180
3 222 221 182
3 182 221 181
3 223 222 183
3 183 222 182
3 224 223 184
3 184 223 183
3 225 224 185
3 185 224 184
3 226 225 186
3 186 225 185
3 227 226 187
3 187 226 186
3 228 227 188
3 188 227 187
3 229 228 189
3 189 228 188
3 230 229 190
3 190 229 189
3 231 230 191
3 191 230 190
3 232 231 192
3 192 231 191
3 233 232 193
3 193 232 192
3 234 233 194
3 194 233 193
3 235 234 195
3 195 234 194
3 236 235 196
3 196 235 195
3 237 236 197
3 197 236 196
3 238 237 198
3 198 237 197
3 239 238 199
3 199 238 198
3 240 239 200
3 200 239 199
3 241 240 201
3 201 240 200
3 242 241 202
3 202 241 201
3 204 243 164
3 164 243 203
3 243 242 203
3 203 242 202
3 245 244 283
3 247 246 245
3 249 248 247
3 251 250 249
3 253 252 251
3 255 254 253
3 257 256 255
3 259 258 257
3 261 260 259
3 263 262 261
3 265 264 263
3 267 266 265
3 269 268 267
3 271 270 269
3 273 272 271
3 275 274 273
3 277 276 275
3 279 278 277
3 281 280 279
3 283 282 281
3 247 245 283
3 251 249 247
3 255 253 251
3 259 257 255
3 263 261 259
3 267 265 263
3 271 269 267
3 275 273 271
3 279 277 275
3 283 281 279
3 251 247 283
3 259 255 251
3 267 263 259
3 275 271 267
3 283 279 275
3 259 251 283
3 275 267 259
3 259 283 275
3 323 284 285
3 285 286 287
3 287 288 289
3 289 290 291
3 291 292 293
3 293 294 295
3 295 296 297
3 297 298 299
3 299 300 301
3 301 302 303
3 303 304 305
3 305 306 307
3 307 308 309
3 309 310 311
3 311 312 313
3 313 314 315
3 315 316 317
3 317 318 319
3 319 320 321
3 321 322 323
3 323 285 287
3 287 289 291
3 291 293 295
3 295 297 299
3 299 301 303
3 303 305 307
3 307 309 311
3 311 313 315
3 315 317 319
3 319 321 323
3 323 287 291
3 291 295 299
3 299 303 307
3 307 311 315
3 315 319 323
3 323 291 299
3 299 307 315
3 315 323 299
3 285 284 245
3 245 284 244
3 286 285 246
3 246 285 245
3 287 286 247
3 247 286 246
3 288 287 248
3 248 287 247
3 289 288 249
3 249 288 248
3 290 289 250
3 250 289 249
3 291 290 251
3 251 290 250
3 292 291 252
3 252 291 251
3 293 292 253
3 253 292 252
3 294 293 254
3 254 293 253
3 295 294 255
3 255 294 254
3 296 295 256
3 256 295 255
3 297 296 257
3 257 296 256
3 298 297 258
3 258 297 257
3 299 298 259
3 259 298 258
3 300 299 260
3 260 299 259
3 301 300 261
3 261 300 260
3 302 301 262
3 262 301 261
3 303 302 263
3 263 302 262
3 304 303 264
3 264 303 263
3 305 304 265
3 265 304 264
3 306 305 266
3 266 305 265
3 307 306 267
3 267 306 266
3 308 307 268
3 268 307 267
3 309 308 269
3 269 308 268
3 310 309 270
3 270 309 269
3 311 310 271
3 271 310 270
3 312 311 272
3 272 311 271
3 313 312 273
3 273 312 272
3 314 313 274
3 274 313 273
3 315 314 275
3 275 314 274
3 316 315 276
3 276 315 275
3 317 316 277
3 277 316 276
3 318 317 278
3 278 317 277
3 319 318 279
3 279 318 278
3 320 319 280
3 280 319 279
3 321 320 281
3 281 320 280
3 322 321 282
3 282 321 281
3 284 323 244
3 244 323 283
3 323 322 283
3 283 322 282
3 325 324 344
3 327 326 325
3 329 328 327
3 331 330 329
3 333 332 331
3 335 334 333
3 337 336 335
3 339 338 337
3 341 340 339
3 343 342 341
3 325 344 343
3 329 327 325
3 333 331 329
3 337 335 333
3 341 339 337
3 325 343 341
3 333 329 325
3 341 337 333
3 333 325 341
3 365 345 346
3 346 347 348
3 348 349 350
3 350 351 352
3 352 353 354
3 354 355 356
3 356 357 358
3 358 359 360
3 360 361 362
3 362 363 364
3 364 365 346
3 346 348 350
3 350 352 354
3 354 356 358
3 358 360 362
3 362 364 346
3 346 350 354
3 354 358 362
3 362 346 354
3 346 345 325
3 325 345 324
3 347 346 326
3 326 346 325
3 348 347 327
3 327 347 326
3 349 348 328
3 328 348 327
3 350 349 329
3 329 349 328
3 351 350 330
3 330 350 329
3 352 351 331
3 331 351 330
3 353 352 332
3 332 352 331
3 354 353 333
3 333 353 332
3 355 354 334
3 334 354 333
3 356 355 335
3 335 355 334
3 357 356 336
3 336 356 335
3 358 357 337
3 337 357 336
3 359 358 338
3 338 358 337
3 360 359 339
3 339 359 338
3 361 360 340
3 340 360 339
3 362 361 341
3 341 361 340
3 363 362 342
3 342 362 341
3 364 363 343
3 343 363 342
3 345 365 324
3 324 365 344
3 365 364 344
3 344 364 343
3 367 366 405
3 369 368 367
3 371 370 369
3 373 372 371
3 375 374 373
3 377 376 375
3 379 378 377
3 381 380 379
3 383 382 381
3 385 384 383
3 387 386 385
3 389 388 387
3 391 390 389
3 393 392 391
3 395 394 393
3 397 396 395
3 399 398 397
3 401 400 399
3 403 402 401
3 405 404 403
3 369 367 405
3 373 371 369
3 377 375 373
3 381 379 377
3 385 383 381
3 389 387 385
3 393 391 389
3 397 395 393
3 401 399 397
3 405 403 401
3 373 369 405
3 381 377 373
3 389 385 381
3 397 393 389
3 405 401 397
3 381 373 405
3 397 389 381
3 381 405 397
3 445 406 407
3 407 408 409
3 409 410 411
3 411 412 413
3 413 414 415
3 415 416 417
3 417 418 419
3 419 420 421
3 421 422 423
3 423 424 425
3 425 426 427
3 427 428 429
3 429 430 431
3 431 432 433
3 433 434 435
3 435 436 437
3 437 438 439
3 439 440 441
3 441 442 443
3 443 444 445
3 445 407 409
3 409 411 413
3 413 415 417
3 417 419 421
3 421 423 425
3 425 427 429
3 429 431 433
3 433 435 437
3 437 439 441
3 441 443 445
3 445 409 413
3 413 417 421
3 421 425 429
3 429 433 437
3 437 441 445
3 445 413 421
3 421 429 437
3 437 445 421
3 407 406 367
3 367 406 366
3 408 407 368
3 368 407 367
3 409 408 369
3 369 408 368
3 410 409 370
3 370 409 369
3 411 410 371
3 371 410 370
3 412 411 372
3 372 411 371
3 413 412 373
3 373 412 372
3 414 413 374
3 374 413 373
3 415 414 375
3 375 414 374
3 416 415 376
3 376 415 375
3 417 416 377
3 377 416 376
3 418 417 378
3 378 417 377
3 419 418 379
3 379 418 378
3 420 419 380
3 380 419 379
3 421 420 381
3 381 420 380
3 422 421 382
3 382 421 381
3 423 422 383
3 383 422 382
3 424 423 384
3 384 423 383
3 425 424 385
3 385 424 384
3 426 425 386
3 386 425 385
3 427 426 387
3 387 426 386
3 428 427 388
3 388 427 387
3 429 428 389
3 389 428 388
3 430 429 390
3 390 429 389
3 431 430 391
3 391 430 390
3 432 431 392
3 392 431 391
3 433 432 393
3 393 432 392
3 434 433 394
3 394 433 393
3 435 434 395
3 395 434 394
3 436 435 396
3 396 435 395
3 437 436 397
3 397 436 396
3 438 437 398
3 398 437 397
3 439 438 399
3 399 438 398
3 440 439 400
3 400 439 399
3 441 440 401
3 401 440 400
3 442 441 402
3 402 441 401
3 443 442 403
3 403 442 402
3 444 443 404
3 404 443 403
3 406 445 366
3 366 445 405
3 445 444 405
3 405 444 404
