ply
format ascii 1.0
comment https://github.com/mikedh/trimesh
element vertex 446
property float x
property float y
property float z
element face 864
property list uchar int vertex_indices
end_header
-0.25891984 0.00000000 0.01244469
-0.25995675 0.00000000 0.01239269
-0.26186380 0.00000000 0.01197672
-0.26354843 0.00000000 0.01114477
-0.26501068 0.00000000 0.00989684
-0.26565841 0.00000000 0.00911689
-0.26623961 0.00000000 0.00824648
-0.26716951 0.00000000 0.00627492
-0.26778942 0.00000000 0.00399570
-0.26809940 0.00000000 0.00140881
-0.26813814 0.00000000 0.00000000
-0.26809967 0.00000000 -0.00140881
-0.26779202 0.00000000 -0.00399570
-0.26717669 0.00000000 -0.00627492
-0.26625371 0.00000000 -0.00824648
-0.26567686 0.00000000 -0.00911689
-0.26503086 0.00000000 -0.00989684
-0.26356861 0.00000000 -0.01114477
-0.26187935 0.00000000 -0.01197672
-0.25996310 0.00000000 -0.01239269
-0.25891984 0.00000000 -0.01244469
-0.25788739 0.00000000 -0.01239255
-0.25598842 0.00000000 -0.01197542
-0.25431070 0.00000000 -0.01114117
-0.25285420 0.00000000 -0.00988978
-0.25220892 0.00000000 -0.00910767
-0.25162774 0.00000000 -0.00823337
-0.25069785 0.00000000 -0.00625835
-0.25007793 0.00000000 -0.00398144
-0.24976796 0.00000000 -0.00140262
-0.24972922 0.00000000 0.00000000
-0.24976796 0.00000000 0.00139628
-0.25007793 0.00000000 0.00396588
-0.25069785 0.00000000 0.00623819
-0.25162774 0.00000000 0.00821321
-0.25220892 0.00000000 0.00908923
-0.25285420 0.00000000 0.00987567
-0.25431070 0.00000000 0.01113397
-0.25598842 0.00000000 0.01197283
-0.25788739 0.00000000 0.01239226
-0.25891984 -0.00176991 0.01244469
-0.25995675 -0.00176991 0.01239269
-0.26186380 -0.00176991 0.01197672
-0.26354843 -0.00176991 0.01114477
-0.26501068 -0.00176991 0.00989684
-0.26565841 -0.00176991 0.00911689
-0.26623961 -0.00176991 0.00824648
-0.26716951 -0.00176991 0.00627492
-0.26778942 -0.00176991 0.00399570
-0.26809940 -0.00176991 0.00140881
-0.26813814 -0.00176991 0.00000000
-0.26809967 -0.00176991 -0.00140881
-0.26779202 -0.00176991 -0.00399570
-0.26717669 -0.00176991 -0.00627492
-0.26625371 -0.00176991 -0.00824648
-0.26567686 -0.00176991 -0.00911689
-0.26503086 -0.00176991 -0.00989684
-0.26356861 -0.00176991 -0.01114477
-0.26187935 -0.00176991 -0.01197672
-0.25996310 -0.00176991 -0.01239269
-0.25891984 -0.00176991 -0.01244469
-0.25788739 -0.00176991 -0.01239255
-0.25598842 -0.00176991 -0.01197542
-0.25431070 -0.00176991 -0.01114117
-0.25285420 -0.00176991 -0.00988978
-0.25220892 -0.00176991 -0.00910767
-0.25162774 -0.00176991 -0.00823337
-0.25069785 -0.00176991 -0.00625835
-0.25007793 -0.00176991 -0.00398144
-0.24976796 -0.00176991 -0.00140262
-0.24972922 -0.00176991 0.00000000
-0.24976796 -0.00176991 0.00139628
-0.25007793 -0.00176991 0.00396588
-0.25069785 -0.00176991 0.00623819
-0.25162774 -0.00176991 0.00821321
-0.25220892 -0.00176991 0.00908923
-0.25285420 -0.00176991 0.00987567
-0.25431070 -0.00176991 0.01113397
-0.25598842 -0.00176991 0.01197283
-0.25788739 -0.00176991 0.01239226
-0.18790330 0.00000000 0.00000000
-0.18794090 0.00000000 0.00142178
-0.18824165 0.00000000 0.00402940
-0.18884313 0.00000000 0.00632245
-0.18974537 0.00000000 0.00830093
-0.19030927 0.00000000 0.00917220
-0.19093886 0.00000000 0.00995215
-0.19236654 0.00000000 0.01120008
-0.19401892 0.00000000 0.01203203
-0.19589598 0.00000000 0.01244800
-0.19691879 0.00000000 0.01250000
-0.19794375 0.00000000 0.01244800
-0.19982427 0.00000000 0.01203203
-0.20147896 0.00000000 0.01120008
-0.20290780 0.00000000 0.00995215
-0.20353752 0.00000000 0.00917220
-0.20410141 0.00000000 0.00830093
-0.20500366 0.00000000 0.00632245
-0.20560515 0.00000000 0.00402940
-0.20590590 0.00000000 0.00142178
-0.20594350 0.00000000 0.00000000
-0.20590590 0.00000000 -0.00142178
-0.20560515 0.00000000 -0.00402940
-0.20500366 0.00000000 -0.00632245
-0.20410141 0.00000000 -0.00830093
-0.20353752 0.00000000 -0.00917220
-0.20290780 0.00000000 -0.00995215
-0.20147896 0.00000000 -0.01120008
-0.19982427 0.00000000 -0.01203203
-0.19794375 0.00000000 -0.01244800
-0.19691879 0.00000000 -0.01250000
-0.19589598 0.00000000 -0.01244800
-0.19401892 0.00000000 -0.01203203
-0.19236654 0.00000000 -0.01120008
-0.19093886 0.00000000 -0.00995215
-0.19030927 0.00000000 -0.00917220
-0.18974537 0.00000000 -0.00830093
-0.18884313 0.00000000 -0.00632245
-0.18824165 0.00000000 -0.00402940
-0.18794090 0.00000000 -0.00142178
-0.18790330 -0.00176991 0.00000000
-0.18794090 -0.00176991 0.00142178
-0.18824165 -0.00176991 0.00402940
-0.18884313 -0.00176991 0.00632245
-0.18974537 -0.00176991 0.00830093
-0.19030927 -0.00176991 0.00917220
-0.19093886 -0.00176991 0.00995215
-0.19236654 -0.00176991 0.01120008
-0.19401892 -0.00176991 0.01203203
-0.19589598 -0.00176991 0.01244800
-0.19691879 -0.00176991 0.01250000
-0.19794375 -0.00176991 0.01244800
-0.19982427 -0.00176991 0.01203203
-0.20147896 -0.00176991 0.01120008
-0.20290780 -0.00176991 0.00995215
-0.20353752 -0.00176991 0.00917220
-0.20410141 -0.00176991 0.00830093
-0.20500366 -0.00176991 0.00632245
-0.20560515 -0.00176991 0.00402940
-0.20590590 -0.00176991 0.00142178
-0.20594350 -0.00176991 0.00000000
-0.20590590 -0.00176991 -0.00142178
-0.20560515 -0.00176991 -0.00402940
-0.20500366 -0.00176991 -0.00632245
-0.20410141 -0.00176991 -0.00830093
-0.20353752 -0.00176991 -0.00917220
-0.20290780 -0.00176991 -0.00995215
-0.20147896 -0.00176991 -0.01120008
-0.19982427 -0.00176991 -0.01203203
-0.19794375 -0.00176991 -0.01244800
-0.19691879 -0.00176991 -0.01250000
-0.19589598 -0.00176991 -0.01244800
-0.19401892 -0.00176991 -0.01203203
-0.19236654 -0.00176991 -0.01120008
-0.19093886 -0.00176991 -0.00995215
-0.19030927 -0.00176991 -0.00917220
-0.18974537 -0.00176991 -0.00830093
-0.18884313 -0.00176991 -0.00632245
-0.18824165 -0.00176991 -0.00402940
-0.18794090 -0.00176991 -0.00142178
-0.08356379 0.00000000 0.00000000
-0.08360139 0.00000000 0.00142178
-0.08390213 0.00000000 0.00402940
-0.08450362 0.00000000 0.00632245
-0.08540586 0.00000000 0.00830093
-0.08596976 0.00000000 0.00917220
-0.08659934 0.00000000 0.00995215
-0.08802703 0.00000000 0.01120008
-0.08967941 0.00000000 0.01203203
-0.09155648 0.00000000 0.01244800
-0.09257928 0.00000000 0.01250000
-0.09360424 0.00000000 0.01244800
-0.09548476 0.00000000 0.01203203
-0.09713945 0.00000000 0.01120008
-0.09856828 0.00000000 0.00995215
-0.09919801 0.00000000 0.00917220
-0.09976191 0.00000000 0.00830093
-0.10066415 0.00000000 0.00632245
-0.10126564 0.00000000 0.00402940
-0.10156639 0.00000000 0.00142178
-0.10160398 0.00000000 0.00000000
-0.10156639 0.00000000 -0.00142178
-0.10126564 0.00000000 -0.00402940
-0.10066415 0.00000000 -0.00632245
-0.09976191 0.00000000 -0.00830093
-0.09919801 0.00000000 -0.00917220
-0.09856828 0.00000000 -0.00995215
-0.09713945 0.00000000 -0.01120008
-0.09548476 0.00000000 -0.01203203
-0.09360424 0.00000000 -0.01244800
-0.09257928 0.00000000 -0.01250000
-0.09155648 0.00000000 -0.01244800
-0.08967941 0.00000000 -0.01203203
-0.08802703 0.00000000 -0.01120008
-0.08659934 0.00000000 -0.00995215
-0.08596976 0.00000000 -0.00917220
-0.08540586 0.00000000 -0.00830093
-0.08450362 0.00000000 -0.00632245
-0.08390213 0.00000000 -0.00402940
-0.08360139 0.00000000 -0.00142178
-0.08356379 -0.00176991 0.00000000
-0.08360139 -0.00176991 0.00142178
-0.08390213 -0.00176991 0.00402940
-0.08450362 -0.00176991 0.00632245
-0.08540586 -0.00176991 0.00830093
-0.08596976 -0.00176991 0.00917220
-0.08659934 -0.00176991 0.00995215
-0.08802703 -0.00176991 0.01120008
-0.08967941 -0.00176991 0.01203203
-0.09155648 -0.00176991 0.01244800
-0.09257928 -0.00176991 0.01250000
-0.09360424 -0.00176991 0.01244800
-0.09548476 -0.00176991 0.01203203
-0.09713945 -0.00176991 0.01120008
-0.09856828 -0.00176991 0.00995215
-0.09919801 -0.00176991 0.00917220
-0.09976191 -0.00176991 0.00830093
-0.10066415 -0.00176991 0.00632245
-0.10126564 -0.00176991 0.00402940
-0.10156639 -0.00176991 0.00142178
-0.10160398 -0.00176991 0.00000000
-0.10156639 -0.00176991 -0.00142178
-0.10126564 -0.00176991 -0.00402940
-0.10066415 -0.00176991 -0.00632245
-0.09976191 -0.00176991 -0.00830093
-0.09919801 -0.00176991 -0.00917220
-0.09856828 -0.00176991 -0.00995215
-0.09713945 -0.00176991 -0.01120008
-0.09548476 -0.00176991 -0.01203203
-0.09360424 -0.00176991 -0.01244800
-0.09257928 -0.00176991 -0.01250000
-0.09155648 -0.00176991 -0.01244800
-0.08967941 -0.00176991 -0.01203203
-0.08802703 -0.00176991 -0.01120008
-0.08659934 -0.00176991 -0.00995215
-0.08596976 -0.00176991 -0.00917220
-0.08540586 -0.00176991 -0.00830093
-0.08450362 -0.00176991 -0.00632245
-0.08390213 -0.00176991 -0.00402940
-0.08360139 -0.00176991 -0.00142178
0.03753918 0.00000000 0.00291298
0.03748905 0.00000000 0.00397107
0.03717102 0.00000000 0.00592304
0.03656261 0.00000000 0.00765608
0.03566383 0.00000000 0.00917018
0.03510555 0.00000000 0.00984513
0.03448692 0.00000000 0.01045440
0.03310532 0.00000000 0.01142924
0.03153130 0.00000000 0.01207913
0.02976485 0.00000000 0.01240407
0.02880946 0.00000000 0.01244469
0.02772861 0.00000000 0.01240551
0.02573285 0.00000000 0.01209209
0.02395833 0.00000000 0.01146525
0.02240505 0.00000000 0.01052498
0.02171138 0.00000000 0.00993732
0.02108064 0.00000000 0.00927850
0.02003091 0.00000000 0.00776900
0.01926349 0.00000000 0.00600370
0.01877837 0.00000000 0.00398259
0.01864168 0.00000000 0.00287611
0.03753918 -0.00176991 0.00291298
0.03748905 -0.00176991 0.00397107
0.03717102 -0.00176991 0.00592304
0.03656261 -0.00176991 0.00765608
0.03566383 -0.00176991 0.00917018
0.03510555 -0.00176991 0.00984513
0.03448692 -0.00176991 0.01045440
0.03310532 -0.00176991 0.01142924
0.03153130 -0.00176991 0.01207913
0.02976485 -0.00176991 0.01240407
0.02880946 -0.00176991 0.01244469
0.02772861 -0.00176991 0.01240551
0.02573285 -0.00176991 0.01209209
0.02395833 -0.00176991 0.01146525
0.02240505 -0.00176991 0.01052498
0.02171138 -0.00176991 0.00993732
0.02108064 -0.00176991 0.00927850
0.02003091 -0.00176991 0.00776900
0.01926349 -0.00176991 0.00600370
0.01877837 -0.00176991 0.00398259
0.01864168 -0.00176991 0.00287611
0.13493846 0.00000000 0.00000000
0.13490087 0.00000000 0.00142178
0.13460013 0.00000000 0.00402940
0.13399863 0.00000000 0.00632245
0.13309640 0.00000000 0.00830093
0.13253249 0.00000000 0.00917220
0.13190292 0.00000000 0.00995215
0.13047524 0.00000000 0.01120008
0.12882285 0.00000000 0.01203203
0.12694578 0.00000000 0.01244800
0.12592298 0.00000000 0.01250000
0.12489802 0.00000000 0.01244800
0.12301749 0.00000000 0.01203203
0.12136281 0.00000000 0.01120008
0.11993398 0.00000000 0.00995215
0.11930425 0.00000000 0.00917220
0.11874035 0.00000000 0.00830093
0.11783811 0.00000000 0.00632245
0.11723661 0.00000000 0.00402940
0.11693587 0.00000000 0.00142178
0.11689828 0.00000000 0.00000000
0.11693587 0.00000000 -0.00142178
0.11723661 0.00000000 -0.00402940
0.11783811 0.00000000 -0.00632245
0.11874035 0.00000000 -0.00830093
0.11930425 0.00000000 -0.00917220
0.11993398 0.00000000 -0.00995215
0.12136281 0.00000000 -0.01120008
0.12301749 0.00000000 -0.01203203
0.12489802 0.00000000 -0.01244800
0.12592298 0.00000000 -0.01250000
0.12694578 0.00000000 -0.01244800
0.12882285 0.00000000 -0.01203203
0.13047524 0.00000000 -0.01120008
0.13190292 0.00000000 -0.00995215
0.13253249 0.00000000 -0.00917220
0.13309640 0.00000000 -0.00830093
0.13399863 0.00000000 -0.00632245
0.13460013 0.00000000 -0.00402940
0.13490087 0.00000000 -0.00142178
0.13493846 -0.00176991 0.00000000
0.13490087 -0.00176991 0.00142178
0.13460013 -0.00176991 0.00402940
0.13399863 -0.00176991 0.00632245
0.13309640 -0.00176991 0.00830093
0.13253249 -0.00176991 0.00917220
0.13190292 -0.00176991 0.00995215
0.13047524 -0.00176991 0.01120008
0.12882285 -0.00176991 0.01203203
0.12694578 -0.00176991 0.01244800
0.12592298 -0.00176991 0.01250000
0.12489802 -0.00176991 0.01244800
0.12301749 -0.00176991 0.01203203
0.12136281 -0.00176991 0.01120008
0.11993398 -0.00176991 0.00995215
0.11930425 -0.00176991 0.00917220
0.11874035 -0.00176991 0.00830093
0.11783811 -0.00176991 0.00632245
0.11723661 -0.00176991 0.00402940
0.11693587 -0.00176991 0.00142178
0.11689828 -0.00176991 0.00000000
0.11693587 -0.00176991 -0.00142178
0.11723661 -0.00176991 -0.00402940
0.11783811 -0.00176991 -0.00632245
0.11874035 -0.00176991 -0.00830093
0.11930425 -0.00176991 -0.00917220
0.11993398 -0.00176991 -0.00995215
0.12136281 -0.00176991 -0.01120008
0.12301749 -0.00176991 -0.01203203
0.12489802 -0.00176991 -0.01244800
0.12592298 -0.00176991 -0.01250000
0.12694578 -0.00176991 -0.01244800
0.12882285 -0.00176991 -0.01203203
0.13047524 -0.00176991 -0.01120008
0.13190292 -0.00176991 -0.00995215
0.13253249 -0.00176991 -0.00917220
0.13309640 -0.00176991 -0.00830093
0.13399863 -0.00176991 -0.00632245
0.13460013 -0.00176991 -0.00402940
0.13490087 -0.00176991 -0.00142178
0.20891294 0.00000000 0.00291298
0.20886281 0.00000000 0.00397107
0.20854478 0.00000000 0.00592304
0.20793638 0.00000000 0.00765608
0.20703758 0.00000000 0.00917018
0.20647931 0.00000000 0.00984513
0.20586067 0.00000000 0.01045440
0.20447908 0.00000000 0.01142924
0.20290506 0.00000000 0.01207913
0.20113860 0.00000000 0.01240407
0.20018321 0.00000000 0.01244469
0.19910237 0.00000000 0.01240551
0.19710661 0.00000000 0.01209209
0.19533210 0.00000000 0.01146525
0.19377881 0.00000000 0.01052498
0.19308513 0.00000000 0.00993732
0.19245440 0.00000000 0.00927850
0.19140467 0.00000000 0.00776900
0.19063725 0.00000000 0.00600370
0.19015212 0.00000000 0.00398259
0.19001544 0.00000000 0.00287611
0.20891294 -0.00176991 0.00291298
0.20886281 -0.00176991 0.00397107
0.20854478 -0.00176991 0.00592304
0.20793638 -0.00176991 0.00765608
0.20703758 -0.00176991 0.00917018
0.20647931 -0.00176991 0.00984513
0.20586067 -0.00176991 0.01045440
0.20447908 -0.00176991 0.01142924
0.20290506 -0.00176991 0.01207913
0.20113860 -0.00176991 0.01240407
0.20018321 -0.00176991 0.01244469
0.19910237 -0.00176991 0.01240551
0.19710661 -0.00176991 0.01209209
0.19533210 -0.00176991 0.01146525
0.19377881 -0.00176991 0.01052498
0.19308513 -0.00176991 0.00993732
0.19245440 -0.00176991 0.00927850
0.19140467 -0.00176991 0.00776900
0.19063725 -0.00176991 0.00600370
0.19015212 -0.00176991 0.00398259
0.19001544 -0.00176991 0.00287611
0.26813814 0.00000000 0.00291298
0.26808801 0.00000000 0.00397107
0.26776999 0.00000000 0.00592304
0.26716158 0.00000000 0.00765608
0.26626280 0.00000000 0.00917018
0.26570451 0.00000000 0.00984513
0.26508588 0.00000000 0.01045440
0.26370427 0.00000000 0.01142924
0.26213026 0.00000000 0.01207913
0.26036382 0.00000000 0.01240407
0.25940841 0.00000000 0.01244469
0.25832757 0.00000000 0.01240551
0.25633180 0.00000000 0.01209209
0.25455728 0.00000000 0.01146525
0.25300401 0.00000000 0.01052498
0.25231034 0.00000000 0.00993732
0.25167960 0.00000000 0.00927850
0.25062987 0.00000000 0.00776900
0.24986245 0.00000000 0.00600370
0.24937734 0.00000000 0.00398259
0.24924064 0.00000000 0.00287611
0.26813814 -0.00176991 0.00291298
0.26808801 -0.00176991 0.00397107
0.26776999 -0.00176991 0.00592304
0.26716158 -0.00176991 0.00765608
0.26626280 -0.00176991 0.00917018
0.26570451 -0.00176991 0.00984513
0.26508588 -0.00176991 0.01045440
0.26370427 -0.00176991 0.01142924
0.26213026 -0.00176991 0.01207913
0.26036382 -0.00176991 0.01240407
0.25940841 -0.00176991 0.01244469
0.25832757 -0.00176991 0.01240551
0.25633180 -0.00176991 0.01209209
0.25455728 -0.00176991 0.01146525
0.25300401 -0.00176991 0.01052498
0.25231034 -0.00176991 0.00993732
0.25167960 -0.00176991 0.00927850
0.25062987 -0.00176991 0.00776900
0.24986245 -0.00176991 0.00600370
0.24937734 -0.00176991 0.00398259
0.24924064 -0.00176991 0.00287611
3 1 0 39
3 3 2 1
3 5 4 3
3 7 6 5
3 9 8 7
3 11 10 9
3 13 12 11
3 15 14 13
3 17 16 15
3 19 18 17
3 21 20 19
3 23 22 21
3 25 24 23
3 27 26 25
3 29 28 27
3 31 30 29
3 33 32 31
3 35 34 33
3 37 36 35
3 39 38 37
3 3 1 39
3 7 5 3
3 11 9 7
3 15 13 11
3 19 17 15
3 23 21 19
3 27 25 23
3 31 29 27
3 35 33 31
3 39 37 35
3 7 3 39
3 15 11 7
3 23 19 15
3 31 27 23
3 39 35 31
3 15 7 39
3 31 23 15
3 15 39 31
3 79 40 41
3 41 42 43
3 43 44 45
3 45 46 47
3 47 48 49
3 49 50 51
3 51 52 53
3 53 54 55
3 55 56 57
3 57 58 59
3 59 60 61
3 61 62 63
3 63 64 65
3 65 66 67
3 67 68 69
3 69 70 71
3 71 72 73
3 73 74 75
3 75 76 77
3 77 78 79
3 79 41 43
3 43 45 47
3 47 49 51
3 51 53 55
3 55 57 59
3 59 61 63
3 63 65 67
3 67 69 71
3 71 73 75
3 75 77 79
3 79 43 47
3 47 51 55
3 55 59 63
3 63 67 71
3 71 75 79
3 79 47 55
3 55 63 71
3 71 79 55
3 41 40 1
3 1 40 0
3 42 41 2
3 2 41 1
3 43 42 3
3 3 42 2
3 44 43 4
3 4 43 3
3 45 44 5
3 5 44 4
3 46 45 6
3 6 45 5
3 47 46 7
3 7 46 6
3 48 47 8
3 8 47 7
3 49 48 9
3 9 48 8
3 50 49 10
3 10 49 9
3 51 50 11
3 11 50 10
3 52 51 12
3 12 51 11
3 53 52 13
3 13 52 12
3 54 53 14
3 14 53 13
3 55 54 15
3 15 54 14
3 56 55 16
3 16 55 15
3 57 56 17
3 17 56 16
3 58 57 18
3 18 57 17
3 59 58 19
3 19 58 18
3 60 59 20
3 20 59 19
3 61 60 21
3 21 60 20
3 62 61 22
3 22 61 21
3 63 62 23
3 23 62 22
3 64 63 24
3 24 63 23
3 65 64 25
3 25 64 24
3 66 65 26
3 26 65 25
3 67 66 27
3 27 66 26
3 68 67 28
3 28 67 27
3 69 68 29
3 29 68 28
3 70 69 30
3 30 69 29
3 71 70 31
3 31 70 30
3 72 71 32
3 32 71 31
3 73 72 33
3 33 72 32
3 74 73 34
3 34 73 33
3 75 74 35
3 35 74 34
3 76 75 36
3 36 75 35
3 77 76 37
3 37 76 36
3 78 77 38
3 38 77 37
3 40 79 0
3 0 79 39
3 79 78 39
3 39 78 38
3 81 80 119
3 83 82 81
3 85 84 83
3 87 86 85
3 89 88 87
3 91 90 89
3 93 92 91
3 95 94 93
3 97 96 95
3 99 98 97
3 101 100 99
3 103 102 101
3 105 104 103
3 107 106 105
3 109 108 107
3 111 110 109
3 113 112 111
3 115 114 113
3 117 116 115
3 119 118 117
3 83 81 119
3 87 85 83
3 91 89 87
3 95 93 91
3 99 97 95
3 103 101 99
3 107 105 103
3 111 109 107
3 115 113 111
3 119 117 115
3 87 83 119
3 95 91 87
3 103 99 95
3 111 107 103
3 119 115 111
3 95 87 119
3 111 103 95
3 95 119 111
3 159 120 121
3 121 122 123
3 123 124 125
3 125 126 127
3 127 128 129
3 129 130 131
3 131 132 133
3 133 134 135
3 135 136 137
3 137 138 139
3 139 140 141
3 141 142 143
3 143 144 145
3 145 146 147
3 147 148 149
3 149 150 151
3 151 152 153
3 153 154 155
3 155 156 157
3 157 158 159
3 159 121 123
3 123 125 127
3 127 129 131
3 131 133 135
3 135 137 139
3 139 141 143
3 143 145 147
3 147 149 151
3 151 153 155
3 155 157 159
3 159 123 127
3 127 131 135
3 135 139 143
3 143 147 151
3 151 155 159
3 159 127 135
3 135 143 151
3 151 159 135
3 121 120 81
3 81 120 80
3 122 121 82
3 82 121 81
3 123 122 83
3 83 122 82
3 124 123 84
3 84 123 83
3 125 124 85
3 85 124 84
3 126 125 86
3 86 125 85
3 127 126 87
3 87 126 86
3 128 127 88
3 88 127 87
3 129 128 89
3 89 128 88
3 130 129 90
3 90 129 89
3 131 130 91
3 91 130 90
3 132 131 92
3 92 131 91
3 133 132 93
3 93 132 92
3 134 133 94
3 94 133 93
3 135 134 95
3 95 134 94
3 136 135 96
3 96 135 95
3 137 136 97
3 97 136 96
3 138 137 98
3 98 137 97
3 139 138 99
3 99 138 98
3 140 139 100
3 100 139 99
3 141 140 101
3 101 140 100
3 142 141 102
3 102 141 101
3 143 142 103
3 103 142 102
3 144 143 104
3 104 143 103
3 145 144 105
3 105 144 104
3 146 145 106
3 106 145 105
3 147 146 107
3 107 146 106
3 148 147 108
3 108 147 107
3 149 148 109
3 109 148 108
3 150 149 110
3 110 149 109
3 151 150 111
3 111 150 110
3 152 151 112
3 112 151 111
3 153 152 113
3 113 152 112
3 154 153 114
3 114 153 113
3 155 154 115
3 115 154 114
3 156 155 116
3 116 155 115
3 157 156 117
3 117 156 116
3 158 157 118
3 118 157 117
3 120 159 80
3 80 159 119
3 159 158 119
3 119 158 118
3 161 160 199
3 163 162 161
3 165 164 163
3 167 166 165
3 169 168 167
3 171 170 169
3 173 172 171
3 175 174 173
3 177 176 175
3 179 178 177
3 181 180 179
3 183 182 181
3 185 184 183
3 187 186 185
3 189 188 187
3 191 190 189
3 193 192 191
3 195 194 193
3 197 196 195
3 199 198 197
3 163 161 199
3 167 165 163
3 171 169 167
3 175 173 171
3 179 177 175
3 183 181 179
3 187 185 183
3 191 189 187
3 195 193 191
3 199 197 195
3 167 163 199
3 175 171 167
3 183 179 175
3 191 187 183
3 199 195 191
3 175 167 199
3 191 183 175
3 175 199 191
3 239 200 201
3 201 202 203
3 203 204 205
3 205 206 207
3 207 208 209
3 209 210 211
3 211 212 213
3 213 214 215
3 215 216 217
3 217 218 219
3 219 220 221
3 221 222 223
3 223 224 225
3 225 226 227
3 227 228 229
3 229 230 231
3 231 232 233
3 233 234 235
3 235 236 237
3 237 238 239
3 239 201 203
3 203 205 207
3 207 209 211
3 211 213 215
3 215 217 219
3 219 221 223
3 223 225 227
3 227 229 231
3 231 233 235
3 235 237 239
3 239 203 207
3 207 211 215
3 215 219 223
3 223 227 231
3 231 235 239
3 239 207 215
3 215 223 231
3 231 239 215
3 201 200 161
3 161 200 160
3 202 201 162
3 162 201 161
3 203 202 163
3 163 202 162
3 204 203 164
3 164 203 163
3 205 204 165
3 165 204 164
3 206 205 166
3 166 205 165
3 207 206 167
3 167 206 166
3 208 207 168
3 168 207 167
3 209 208 169
3 169 208 168
3 210 209 170
3 170 209 169
3 211 210 171
3 171 210 170
3 212 211 172
3 172 211 171
3 213 212 173
3 173 212 172
3 214 213 174
3 174 213 173
3 215 214 175
3 175 214 174
3 216 215 176
3 176 215 175
3 217 216 177
3 177 216 176
3 218 217 178
3 178 217 177
3 219 218 179
3 179 218 178
3 220 219 180
3 180 219 179
3 221 220 181
3 181 220 180
3 222 221 182
3 182 221 181
3 223 222 183
3 183 222 182
3 224 223 184
3 184 223 183
3 225 224 185
3 185 224 184
3 226 225 186
3 186 225 185
3 227 226 187
3 187 226 186
3 228 227 188
3 188 227 187
3 229 228 189
3 189 228 188
3 230 229 190
3 190 229 189
3 231 230 191
3 191 230 190
3 232 231 192
3 192 231 191
3 233 232 193
3 193 232 192
3 234 233 194
3 194 233 193
3 235 234 195
3 195 234 194
3 236 235 196
3 196 235 195
3 237 236 197
3 197 236 196
3 238 237 198
3 198 237 197
3 200 239 160
3 160 239 199
3 239 238 199
3 199 238 198
3 241 240 260
3 243 242 241
3 245 244 243
3 247 246 245
3 249 248 247
3 251 250 249
3 253 252 251
3 255 254 253
3 257 256 255
3 259 258 257
3 241 260 259
3 245 243 241
3 249 247 245
3 253 251 249
3 257 255 253
3 241 259 257
3 249 245 241
3 257 253 249
3 249 241 257
3 281 261 262
3 262 263 264
3 264 265 266
3 266 267 268
3 268 269 270
3 270 271 272
3 272 273 274
3 274 275 276
3 276 277 278
3 278 279 280
3 280 281 262
3 262 264 266
3 266 268 270
3 270 272 274
3 274 276 278
3 278 280 262
3 262 266 270
3 270 274 278
3 278 262 270
3 262 261 241
3 241 261 240
3 263 262 242
3 242 262 241
3 264 263 243
3 243 263 242
3 265 264 244
3 244 264 243
3 266 265 245
3 245 265 244
3 267 266 246
3 246 266 245
3 268 267 247
3 247 267 246
3 269 268 248
3 248 268 247
3 270 269 249
3 249 269 248
3 271 270 250
3 250 270 249
3 272 271 251
3 251 271 250
3 273 272 252
3 252 272 251
3 274 273 253
3 253 273 252
3 275 274 254
3 254 274 253
3 276 275 255
3 255 275 254
3 277 276 256
3 256 276 255
3 278 277 257
3 257 277 256
3 279 278 258
3 258 278 257
3 280 279 259
3 259 279 258
3 261 281 240
3 240 281 260
3 281 280 260
3 260 280 259
3 283 282 321
3 285 284 283
3 287 286 285
3 289 288 287
3 291 290 289
3 293 292 291
3 295 294 293
3 297 296 295
3 299 298 297
3 301 300 299
3 303 302 301
3 305 304 303
3 307 306 305
3 309 308 307
3 311 310 309
3 313 312 311
3 315 314 313
3 317 316 315
3 319 318 317
3 321 320 319
3 285 283 321
3 289 287 285
3 293 291 289
3 297 295 293
3 301 299 297
3 305 303 301
3 309 307 305
3 313 311 309
3 317 315 313
3 321 319 317
3 289 285 321
3 297 293 289
3 305 301 297
3 313 309 305
3 321 317 313
3 297 289 321
3 313 305 297
3 297 321 313
3 361 322 323
3 323 324 325
3 325 326 327
3 327 328 329
3 329 330 331
3 331 332 333
3 333 334 335
3 335 336 337
3 337 338 339
3 339 340 341
3 341 342 343
3 343 344 345
3 345 346 347
3 347 348 349
3 349 350 351
3 351 352 353
3 353 354 355
3 355 356 357
3 357 358 359
3 359 360 361
3 361 323 325
3 325 327 329
3 329 331 333
3 333 335 337
3 337 339 341
3 341 343 345
3 345 347 349
3 349 351 353
3 353 355 357
3 357 359 361
3 361 325 329
3 329 333 337
3 337 341 345
3 345 349 353
3 353 357 361
3 361 329 337
3 337 345 353
3 353 361 337
3 323 322 283
3 283 322 282
3 324 323 284
3 284 323 283
3 325 324 285
3 285 324 284
3 326 325 286
3 286 325 285
3 327 326 287
3 287 326 286
3 328 327 288
3 288 327 287
3 329 328 289
3 289 328 288
3 330 329 290
3 290 329 289
3 331 330 291
3 291 330 290
3 332 331 292
3 292 331 291
3 333 332 293
3 293 332 292
3 334 333 294
3 294 333 293
3 335 334 295
3 295 334 294
3 336 335 296
3 296 335 295
3 337 336 297
3 297 336 296
3 338 337 298
3 298 337 297
3 339 338 299
3 299 338 298
3 340 339 300
3 300 339 299
3 341 340 301
3 301 340 300
3 342 341 302
3 302 341 301
3 343 342 303
3 303 342 302
3 344 343 304
3 304 343 303
3 345 344 305
3 305 344 304
3 346 345 306
3 306 345 305
3 347 346 307
3 307 346 306
3 348 347 308
3 308 347 307
3 349 348 309
3 309 348 308
3 350 349 310
3 310 349 309
3 351 350 311
3 311 350 310
3 352 351 312
3 312 351 311
3 353 352 313
3 313 352 312
3 354 353 314
3 314 353 313
3 355 354 315
3 315 354 314
3 356 355 316
3 316 355 315
3 357 356 317
3 317 356 316
3 358 357 318
3 318 357 317
3 359 358 319
3 319 358 318
3 360 359 320
3 320 359 319
3 322 361 282
3 282 361 321
3 361 360 321
3 321 360 320
3 363 362 382
3 365 364 363
3 367 366 365
3 369 368 367
3 371 370 369
3 373 372 371
3 375 374 373
3 377 376 375
3 379 378 377
3 381 380 379
3 363 382 381
3 367 365 363
3 371 369 367
3 375 373 371
3 379 377 375
3 363 381 379
3 371 367 363
3 379 375 371
3 371 363 379
3 403 383 384
3 384 385 386
3 386 387 388
3 388 389 390
3 390 391 392
3 392 393 394
3 394 395 396
3 396 397 398
3 398 399 400
3 400 401 402
3 402 403 384
3 384 386 388
3 388 390 392
3 392 394 396
3 396 398 400
3 400 402 384
3 384 388 392
3 392 396 400
3 400 384 392
3 384 383 363
3 363 383 362
3 385 384 364
3 364 384 363
3 386 385 365
3 365 385 364
3 387 386 366
3 366 386 365
3 388 387 367
3 367 387 366
3 389 388 368
3 368 388 367
3 390 389 369
3 369 389 368
3 391 390 370
3 370 390 369
3 392 391 371
3 371 391 370
3 393 392 372
3 372 392 371
3 394 393 373
3 373 393 372
3 395 394 374
3 374 394 373
3 396 395 375
3 375 395 374
3 397 396 376
3 376 396 375
3 398 397 377
3 377 397 376
3 399 398 378
3 378 398 377
3 400 399 379
3 379 399 378
3 401 400 380
3 380 400 379
3 402 401 381
3 381 401 380
3 383 403 362
3 362 403 382
3 403 402 382
3 382 402 381
3 405 404 424
3 407 406 405
3 409 408 407
3 411 410 409
3 413 412 411
3 415 414 413
3 417 416 415
3 419 418 417
3 421 420 419
3 423 422 421
3 405 424 423
3 409 407 405
3 413 411 409
3 417 415 413
3 421 419 417
3 405 423 421
3 413 409 405
3 421 417 413
3 413 405 421
3 445 425 426
3 426 427 428
3 428 429 430
3 430 431 432
3 432 433 434
3 434 435 436
3 436 437 438
3 438 439 440
3 440 441 442
3 442 443 444
3 444 445 426
3 426 428 430
3 430 432 434
3 434 436 438
3 438 440 442
3 442 444 426
3 426 430 434
3 434 438 442
3 442 426 434
3 426 425 405
3 405 425 404
3 427 426 406
3 406 426 405
3 428 427 407
3 407 427 406
3 429 428 408
3 408 428 407
3 430 429 409
3 409 429 408
3 431 430 410
3 410 430 409
3 432 431 411
3 411 431 410
3 433 432 412
3 412 432 411
3 434 433 413
3 413 433 412
3 435 434 414
3 414 434 413
3 436 435 415
3 415 435 414
3 437 436 416
3 416 436 415
3 438 437 417
3 417 437 416
3 439 438 418
3 418 438 417
3 440 439 419
3 419 439 418
3 441 440 420
3 420 440 419
3 442 441 421
3 421 441 420
3 443 442 422
3 422 442 421
3 444 443 423
3 423 443 422
3 425 445 404
3 404 445 424
3 445 444 424
3 424 444 423
