ply
format ascii 1.0
comment https://github.com/mikedh/trimesh
element vertex 340
property float x
property float y
property float z
element face 656
property list uchar int vertex_indices
end_header
-0.57876313 0.00000000 0.00030973
-0.58706790 0.00000000 0.00005324
-0.59693587 0.00000000 -0.00129338
-0.60178834 0.00000000 -0.00283238
-0.60369676 0.00000000 -0.00379425
-0.60532409 0.00000000 -0.00491139
-0.60792780 0.00000000 -0.00769255
-0.60966361 0.00000000 -0.01120287
-0.61053151 0.00000000 -0.01544236
-0.61063999 0.00000000 -0.01783555
-0.61031413 0.00000000 -0.02158140
-0.60770720 0.00000000 -0.02785352
-0.60542613 0.00000000 -0.03037979
-0.60258687 0.00000000 -0.03240113
-0.59551460 0.00000000 -0.03471124
-0.59128159 0.00000000 -0.03500000
-0.58826733 0.00000000 -0.03486328
-0.58269852 0.00000000 -0.03376953
-0.57774282 0.00000000 -0.03158203
-0.57340008 0.00000000 -0.02830078
-0.57145858 0.00000000 -0.02625000
-0.56971025 0.00000000 -0.02397256
-0.56691295 0.00000000 -0.01887808
-0.56504810 0.00000000 -0.01306410
-0.56411570 0.00000000 -0.00653064
-0.56399912 0.00000000 -0.00299410
-0.56399912 0.00000000 0.00030973
-0.57876313 -0.00495575 0.00030973
-0.58706790 -0.00495575 0.00005324
-0.59693587 -0.00495575 -0.00129338
-0.60178834 -0.00495575 -0.00283238
-0.60369676 -0.00495575 -0.00379425
-0.60532409 -0.00495575 -0.00491139
-0.60792780 -0.00495575 -0.00769255
-0.60966361 -0.00495575 -0.01120287
-0.61053151 -0.00495575 -0.01544236
-0.61063999 -0.00495575 -0.01783555
-0.61031413 -0.00495575 -0.02158140
-0.60770720 -0.00495575 -0.02785352
-0.60542613 -0.00495575 -0.03037979
-0.60258687 -0.00495575 -0.03240113
-0.59551460 -0.00495575 -0.03471124
-0.59128159 -0.00495575 -0.03500000
-0.58826733 -0.00495575 -0.03486328
-0.58269852 -0.00495575 -0.03376953
-0.57774282 -0.00495575 -0.03158203
-0.57340008 -0.00495575 -0.02830078
-0.57145858 -0.00495575 -0.02625000
-0.56971025 -0.00495575 -0.02397256
-0.56691295 -0.00495575 -0.01887808
-0.56504810 -0.00495575 -0.01306410
-0.56411570 -0.00495575 -0.00653064
-0.56399912 -0.00495575 -0.00299410
-0.56399912 -0.00495575 0.00030973
-0.41026756 0.00000000 0.00815634
-0.41040790 0.00000000 0.01111898
-0.41129839 0.00000000 0.01658451
-0.41300192 0.00000000 0.02143702
-0.41551852 0.00000000 0.02567651
-0.41708171 0.00000000 0.02756637
-0.41881388 0.00000000 0.02927233
-0.42268234 0.00000000 0.03200187
-0.42708960 0.00000000 0.03382156
-0.43203568 0.00000000 0.03473140
-0.43471077 0.00000000 0.03484513
-0.43773714 0.00000000 0.03473543
-0.44332528 0.00000000 0.03385785
-0.44829392 0.00000000 0.03210269
-0.45264313 0.00000000 0.02946995
-0.45458540 0.00000000 0.02782448
-0.45635146 0.00000000 0.02597979
-0.45929071 0.00000000 0.02175320
-0.46143949 0.00000000 0.01681036
-0.46279782 0.00000000 0.01115125
-0.46318054 0.00000000 0.00805310
-0.41026756 -0.00495575 0.00815634
-0.41040790 -0.00495575 0.01111898
-0.41129839 -0.00495575 0.01658451
-0.41300192 -0.00495575 0.02143702
-0.41551852 -0.00495575 0.02567651
-0.41708171 -0.00495575 0.02756637
-0.41881388 -0.00495575 0.02927233
-0.42268234 -0.00495575 0.03200187
-0.42708960 -0.00495575 0.03382156
-0.43203568 -0.00495575 0.03473140
-0.43471077 -0.00495575 0.03484513
-0.43773714 -0.00495575 0.03473543
-0.44332528 -0.00495575 0.03385785
-0.44829392 -0.00495575 0.03210269
-0.45264313 -0.00495575 0.02946995
-0.45458540 -0.00495575 0.02782448
-0.45635146 -0.00495575 0.02597979
-0.45929071 -0.00495575 0.02175320
-0.46143949 -0.00495575 0.01681036
-0.46279782 -0.00495575 0.01115125
-0.46318054 -0.00495575 0.00805310
-0.18048005 0.00000000 0.03484513
-0.18338341 0.00000000 0.03469954
-0.18872309 0.00000000 0.03353481
-0.19344009 0.00000000 0.03120535
-0.19753440 0.00000000 0.02771116
-0.19934803 0.00000000 0.02552729
-0.20097536 0.00000000 0.02309014
-0.20357905 0.00000000 0.01756977
-0.20531486 0.00000000 0.01118795
-0.20618276 0.00000000 0.00394468
-0.20629126 0.00000000 0.00000000
-0.20618357 0.00000000 -0.00394468
-0.20532212 0.00000000 -0.01118795
-0.20359923 0.00000000 -0.01756977
-0.20101488 0.00000000 -0.02309014
-0.19939966 0.00000000 -0.02552729
-0.19759086 0.00000000 -0.02771116
-0.19349656 0.00000000 -0.03120535
-0.18876664 0.00000000 -0.03353481
-0.18340115 0.00000000 -0.03469954
-0.18048005 0.00000000 -0.03484513
-0.17758919 0.00000000 -0.03469914
-0.17227207 0.00000000 -0.03353118
-0.16757444 0.00000000 -0.03119527
-0.16349627 0.00000000 -0.02769139
-0.16168948 0.00000000 -0.02550147
-0.16006216 0.00000000 -0.02305344
-0.15745845 0.00000000 -0.01752339
-0.15572266 0.00000000 -0.01114802
-0.15485476 0.00000000 -0.00392734
-0.15474626 0.00000000 0.00000000
-0.15485476 0.00000000 0.00390959
-0.15572266 0.00000000 0.01110447
-0.15745845 0.00000000 0.01746693
-0.16006216 0.00000000 0.02299698
-0.16168948 0.00000000 0.02544985
-0.16349627 0.00000000 0.02765187
-0.16757444 0.00000000 0.03117510
-0.17227207 0.00000000 0.03352392
-0.17758919 0.00000000 0.03469833
-0.18048005 -0.00495575 0.03484513
-0.18338341 -0.00495575 0.03469954
-0.18872309 -0.00495575 0.03353481
-0.19344009 -0.00495575 0.03120535
-0.19753440 -0.00495575 0.02771116
-0.19934803 -0.00495575 0.02552729
-0.20097536 -0.00495575 0.02309014
-0.20357905 -0.00495575 0.01756977
-0.20531486 -0.00495575 0.01118795
-0.20618276 -0.00495575 0.00394468
-0.20629126 -0.00495575 0.00000000
-0.20618357 -0.00495575 -0.00394468
-0.20532212 -0.00495575 -0.01118795
-0.20359923 -0.00495575 -0.01756977
-0.20101488 -0.00495575 -0.02309014
-0.19939966 -0.00495575 -0.02552729
-0.19759086 -0.00495575 -0.02771116
-0.19349656 -0.00495575 -0.03120535
-0.18876664 -0.00495575 -0.03353481
-0.18340115 -0.00495575 -0.03469954
-0.18048005 -0.00495575 -0.03484513
-0.17758919 -0.00495575 -0.03469914
-0.17227207 -0.00495575 -0.03353118
-0.16757444 -0.00495575 -0.03119527
-0.16349627 -0.00495575 -0.02769139
-0.16168948 -0.00495575 -0.02550147
-0.16006216 -0.00495575 -0.02305344
-0.15745845 -0.00495575 -0.01752339
-0.15572266 -0.00495575 -0.01114802
-0.15485476 -0.00495575 -0.00392734
-0.15474626 -0.00495575 0.00000000
-0.15485476 -0.00495575 0.00390959
-0.15572266 -0.00495575 0.01110447
-0.15745845 -0.00495575 0.01746693
-0.16006216 -0.00495575 0.02299698
-0.16168948 -0.00495575 0.02544985
-0.16349627 -0.00495575 0.02765187
-0.16757444 -0.00495575 0.03117510
-0.17227207 -0.00495575 0.03352392
-0.17758919 -0.00495575 0.03469833
0.19872211 0.00000000 0.00000000
0.19861685 0.00000000 0.00398098
0.19777477 0.00000000 0.01128232
0.19609058 0.00000000 0.01770286
0.19356431 0.00000000 0.02324259
0.19198538 0.00000000 0.02568215
0.19022256 0.00000000 0.02786602
0.18622506 0.00000000 0.03136022
0.18159840 0.00000000 0.03368968
0.17634259 0.00000000 0.03485441
0.17347875 0.00000000 0.03500000
0.17060886 0.00000000 0.03485441
0.16534337 0.00000000 0.03368968
0.16071028 0.00000000 0.03136022
0.15670954 0.00000000 0.02786602
0.15494630 0.00000000 0.02568215
0.15336739 0.00000000 0.02324259
0.15084112 0.00000000 0.01770286
0.14915693 0.00000000 0.01128232
0.14831483 0.00000000 0.00398098
0.14820957 0.00000000 0.00000000
0.14831483 0.00000000 -0.00398098
0.14915693 0.00000000 -0.01128232
0.15084112 0.00000000 -0.01770286
0.15336739 0.00000000 -0.02324259
0.15494630 0.00000000 -0.02568215
0.15670954 0.00000000 -0.02786602
0.16071028 0.00000000 -0.03136022
0.16534337 0.00000000 -0.03368968
0.17060886 0.00000000 -0.03485441
0.17347875 0.00000000 -0.03500000
0.17634259 0.00000000 -0.03485441
0.18159840 0.00000000 -0.03368968
0.18622506 0.00000000 -0.03136022
0.19022256 0.00000000 -0.02786602
0.19198538 0.00000000 -0.02568215
0.19356431 0.00000000 -0.02324259
0.19609058 0.00000000 -0.01770286
0.19777477 0.00000000 -0.01128232
0.19861685 0.00000000 -0.00398098
0.19872211 -0.00495575 0.00000000
0.19861685 -0.00495575 0.00398098
0.19777477 -0.00495575 0.01128232
0.19609058 -0.00495575 0.01770286
0.19356431 -0.00495575 0.02324259
0.19198538 -0.00495575 0.02568215
0.19022256 -0.00495575 0.02786602
0.18622506 -0.00495575 0.03136022
0.18159840 -0.00495575 0.03368968
0.17634259 -0.00495575 0.03485441
0.17347875 -0.00495575 0.03500000
0.17060886 -0.00495575 0.03485441
0.16534337 -0.00495575 0.03368968
0.16071028 -0.00495575 0.03136022
0.15670954 -0.00495575 0.02786602
0.15494630 -0.00495575 0.02568215
0.15336739 -0.00495575 0.02324259
0.15084112 -0.00495575 0.01770286
0.14915693 -0.00495575 0.01128232
0.14831483 -0.00495575 0.00398098
0.14820957 -0.00495575 0.00000000
0.14831483 -0.00495575 -0.00398098
0.14915693 -0.00495575 -0.01128232
0.15084112 -0.00495575 -0.01770286
0.15336739 -0.00495575 -0.02324259
0.15494630 -0.00495575 -0.02568215
0.15670954 -0.00495575 -0.02786602
0.16071028 -0.00495575 -0.03136022
0.16534337 -0.00495575 -0.03368968
0.17060886 -0.00495575 -0.03485441
0.17347875 -0.00495575 -0.03500000
0.17634259 -0.00495575 -0.03485441
0.18159840 -0.00495575 -0.03368968
0.18622506 -0.00495575 -0.03136022
0.19022256 -0.00495575 -0.02786602
0.19198538 -0.00495575 -0.02568215
0.19356431 -0.00495575 -0.02324259
0.19609058 -0.00495575 -0.01770286
0.19777477 -0.00495575 -0.01128232
0.19861685 -0.00495575 -0.00398098
0.36535284 0.00000000 0.00815634
0.36521247 0.00000000 0.01111898
0.36432201 0.00000000 0.01658451
0.36261845 0.00000000 0.02143702
0.36010185 0.00000000 0.02567651
0.35853866 0.00000000 0.02756637
0.35680649 0.00000000 0.02927233
0.35293806 0.00000000 0.03200187
0.34853077 0.00000000 0.03382156
0.34358472 0.00000000 0.03473140
0.34090960 0.00000000 0.03484513
0.33788326 0.00000000 0.03473543
0.33229512 0.00000000 0.03385785
0.32732648 0.00000000 0.03210269
0.32297727 0.00000000 0.02946995
0.32103500 0.00000000 0.02782448
0.31926894 0.00000000 0.02597979
0.31632969 0.00000000 0.02175320
0.31418091 0.00000000 0.01681036
0.31282258 0.00000000 0.01115125
0.31243986 0.00000000 0.00805310
0.36535284 -0.00495575 0.00815634
0.36521247 -0.00495575 0.01111898
0.36432201 -0.00495575 0.01658451
0.36261845 -0.00495575 0.02143702
0.36010185 -0.00495575 0.02567651
0.35853866 -0.00495575 0.02756637
0.35680649 -0.00495575 0.02927233
0.35293806 -0.00495575 0.03200187
0.34853077 -0.00495575 0.03382156
0.34358472 -0.00495575 0.03473140
0.34090960 -0.00495575 0.03484513
0.33788326 -0.00495575 0.03473543
0.33229512 -0.00495575 0.03385785
0.32732648 -0.00495575 0.03210269
0.32297727 -0.00495575 0.02946995
0.32103500 -0.00495575 0.02782448
0.31926894 -0.00495575 0.02597979
0.31632969 -0.00495575 0.02175320
0.31418091 -0.00495575 0.01681036
0.31282258 -0.00495575 0.01115125
0.31243986 -0.00495575 0.00805310
0.61063999 0.00000000 0.00815634
0.61049962 0.00000000 0.01111898
0.60960913 0.00000000 0.01658451
0.60790563 0.00000000 0.02143702
0.60538900 0.00000000 0.02567651
0.60382581 0.00000000 0.02756637
0.60209364 0.00000000 0.02927233
0.59822518 0.00000000 0.03200187
0.59381795 0.00000000 0.03382156
0.58887184 0.00000000 0.03473140
0.58619678 0.00000000 0.03484513
0.58317041 0.00000000 0.03473543
0.57758230 0.00000000 0.03385785
0.57261360 0.00000000 0.03210269
0.56826442 0.00000000 0.02946995
0.56632215 0.00000000 0.02782448
0.56455606 0.00000000 0.02597979
0.56161684 0.00000000 0.02175320
0.55946803 0.00000000 0.01681036
0.55810976 0.00000000 0.01115125
0.55772698 0.00000000 0.00805310
0.61063999 -0.00495575 0.00815634
0.61049962 -0.00495575 0.01111898
0.60960913 -0.00495575 0.01658451
0.60790563 -0.00495575 0.02143702
0.60538900 -0.00495575 0.02567651
0.60382581 -0.00495575 0.02756637
0.60209364 -0.00495575 0.02927233
0.59822518 -0.00495575 0.03200187
0.59381795 -0.00495575 0.03382156
0.58887184 -0.00495575 0.03473140
0.58619678 -0.00495575 0.03484513
0.58317041 -0.00495575 0.03473543
0.57758230 -0.00495575 0.03385785
0.57261360 -0.00495575 0.03210269
0.56826442 -0.00495575 0.02946995
0.56632215 -0.00495575 0.02782448
0.56455606 -0.00495575 0.02597979
0.56161684 -0.00495575 0.02175320
0.55946803 -0.00495575 0.01681036
0.55810976 -0.00495575 0.01115125
0.55772698 -0.00495575 0.00805310
3 1 0 26
3 3 2 1
3 5 4 3
3 7 6 5
3 9 8 7
3 11 10 9
3 13 12 11
3 15 14 13
3 17 16 15
3 19 18 17
3 21 20 19
3 23 22 21
3 25 24 23
3 1 26 25
3 5 3 1
3 9 7 5
3 13 11 9
3 17 15 13
3 21 19 17
3 25 23 21
3 5 1 25
3 13 9 5
3 21 17 13
3 5 25 21
3 21 13 5
3 53 27 28
3 28 29 30
3 30 31 32
3 32 33 34
3 34 35 36
3 36 37 38
3 38 39 40
3 40 41 42
3 42 43 44
3 44 45 46
3 46 47 48
3 48 49 50
3 50 51 52
3 52 53 28
3 28 30 32
3 32 34 36
3 36 38 40
3 40 42 44
3 44 46 48
3 48 50 52
3 52 28 32
3 32 36 40
3 40 44 48
3 48 52 32
3 32 40 48
3 28 27 1
3 1 27 0
3 29 28 2
3 2 28 1
3 30 29 3
3 3 29 2
3 31 30 4
3 4 30 3
3 32 31 5
3 5 31 4
3 33 32 6
3 6 32 5
3 34 33 7
3 7 33 6
3 35 34 8
3 8 34 7
3 36 35 9
3 9 35 8
3 37 36 10
3 10 36 9
3 38 37 11
3 11 37 10
3 39 38 12
3 12 38 11
3 40 39 13
3 13 39 12
3 41 40 14
3 14 40 13
3 42 41 15
3 15 41 14
3 43 42 16
3 16 42 15
3 44 43 17
3 17 43 16
3 45 44 18
3 18 44 17
3 46 45 19
3 19 45 18
3 47 46 20
3 20 46 19
3 48 47 21
3 21 47 20
3 49 48 22
3 22 48 21
3 50 49 23
3 23 49 22
3 51 50 24
3 24 50 23
3 52 51 25
3 25 51 24
3 27 53 0
3 0 53 26
3 53 52 26
3 26 52 25
3 55 54 74
3 57 56 55
3 59 58 57
3 61 60 59
3 63 62 61
3 65 64 63
3 67 66 65
3 69 68 67
3 71 70 69
3 73 72 71
3 55 74 73
3 59 57 55
3 63 61 59
3 67 65 63
3 71 69 67
3 55 73 71
3 63 59 55
3 71 67 63
3 63 55 71
3 95 75 76
3 76 77 78
3 78 79 80
3 80 81 82
3 82 83 84
3 84 85 86
3 86 87 88
3 88 89 90
3 90 91 92
3 92 93 94
3 94 95 76
3 76 78 80
3 80 82 84
3 84 86 88
3 88 90 92
3 92 94 76
3 76 80 84
3 84 88 92
3 92 76 84
3 76 75 55
3 55 75 54
3 77 76 56
3 56 76 55
3 78 77 57
3 57 77 56
3 79 78 58
3 58 78 57
3 80 79 59
3 59 79 58
3 81 80 60
3 60 80 59
3 82 81 61
3 61 81 60
3 83 82 62
3 62 82 61
3 84 83 63
3 63 83 62
3 85 84 64
3 64 84 63
3 86 85 65
3 65 85 64
3 87 86 66
3 66 86 65
3 88 87 67
3 67 87 66
3 89 88 68
3 68 88 67
3 90 89 69
3 69 89 68
3 91 90 70
3 70 90 69
3 92 91 71
3 71 91 70
3 93 92 72
3 72 92 71
3 94 93 73
3 73 93 72
3 75 95 54
3 54 95 74
3 95 94 74
3 74 94 73
3 97 96 135
3 99 98 97
3 101 100 99
3 103 102 101
3 105 104 103
3 107 106 105
3 109 108 107
3 111 110 109
3 113 112 111
3 115 114 113
3 117 116 115
3 119 118 117
3 121 120 119
3 123 122 121
3 125 124 123
3 127 126 125
3 129 128 127
3 131 130 129
3 133 132 131
3 135 134 133
3 99 97 135
3 103 101 99
3 107 105 103
3 111 109 107
3 115 113 111
3 119 117 115
3 123 121 119
3 127 125 123
3 131 129 127
3 135 133 131
3 103 99 135
3 111 107 103
3 119 115 111
3 127 123 119
3 135 131 127
3 111 103 135
3 127 119 111
3 111 135 127
3 175 136 137
3 137 138 139
3 139 140 141
3 141 142 143
3 143 144 145
3 145 146 147
3 147 148 149
3 149 150 151
3 151 152 153
3 153 154 155
3 155 156 157
3 157 158 159
3 159 160 161
3 161 162 163
3 163 164 165
3 165 166 167
3 167 168 169
3 169 170 171
3 171 172 173
3 173 174 175
3 175 137 139
3 139 141 143
3 143 145 147
3 147 149 151
3 151 153 155
3 155 157 159
3 159 161 163
3 163 165 167
3 167 169 171
3 171 173 175
3 175 139 143
3 143 147 151
3 151 155 159
3 159 163 167
3 167 171 175
3 175 143 151
3 151 159 167
3 167 175 151
3 137 136 97
3 97 136 96
3 138 137 98
3 98 137 97
3 139 138 99
3 99 138 98
3 140 139 100
3 100 139 99
3 141 140 101
3 101 140 100
3 142 141 102
3 102 141 101
3 143 142 103
3 103 142 102
3 144 143 104
3 104 143 103
3 145 144 105
3 105 144 104
3 146 145 106
3 106 145 105
3 147 146 107
3 107 146 106
3 148 147 108
3 108 147 107
3 149 148 109
3 109 148 108
3 150 149 110
3 110 149 109
3 151 150 111
3 111 150 110
3 152 151 112
3 112 151 111
3 153 152 113
3 113 152 112
3 154 153 114
3 114 153 113
3 155 154 115
3 115 154 114
3 156 155 116
3 116 155 115
3 157 156 117
3 117 156 116
3 158 157 118
3 118 157 117
3 159 158 119
3 119 158 118
3 160 159 120
3 120 159 119
3 161 160 121
3 121 160 120
3 162 161 122
3 122 161 121
3 163 162 123
3 123 162 122
3 164 163 124
3 124 163 123
3 165 164 125
3 125 164 124
3 166 165 126
3 126 165 125
3 167 166 127
3 127 166 126
3 168 167 128
3 128 167 127
3 169 168 129
3 129 168 128
3 170 169 130
3 130 169 129
3 171 170 131
3 131 170 130
3 172 171 132
3 132 171 131
3 173 172 133
3 133 172 132
3 174 173 134
3 134 173 133
3 136 175 96
3 96 175 135
3 175 174 135
3 135 174 134
3 177 176 215
3 179 178 177
3 181 180 179
3 183 182 181
3 185 184 183
3 187 186 185
3 189 188 187
3 191 190 189
3 193 192 191
3 195 194 193
3 197 196 195
3 199 198 197
3 201 200 199
3 203 202 201
3 205 204 203
3 207 206 205
3 209 208 207
3 211 210 209
3 213 212 211
3 215 214 213
3 179 177 215
3 183 181 179
3 187 185 183
3 191 189 187
3 195 193 191
3 199 197 195
3 203 201 199
3 207 205 203
3 211 209 207
3 215 213 211
3 183 179 215
3 191 187 183
3 199 195 191
3 207 203 199
3 215 211 207
3 191 183 215
3 207 199 191
3 191 215 207
3 255 216 217
3 217 218 219
3 219 220 221
3 221 222 223
3 223 224 225
3 225 226 227
3 227 228 229
3 229 230 231
3 231 232 233
3 233 234 235
3 235 236 237
3 237 238 239
3 239 240 241
3 241 242 243
3 243 244 245
3 245 246 247
3 247 248 249
3 249 250 251
3 251 252 253
3 253 254 255
3 255 217 219
3 219 221 223
3 223 225 227
3 227 229 231
3 231 233 235
3 235 237 239
3 239 241 243
3 243 245 247
3 247 249 251
3 251 253 255
3 255 219 223
3 223 227 231
3 231 235 239
3 239 243 247
3 247 251 255
3 255 223 231
3 231 239 247
3 247 255 231
3 217 216 177
3 177 216 176
3 218 217 178
3 178 217 177
3 219 218 179
3 179 218 178
3 220 219 180
3 180 219 179
3 221 220 181
3 181 220 180
3 222 221 182
3 182 221 181
3 223 222 183
3 183 222 182
3 224 223 184
3 184 223 183
3 225 224 185
3 185 224 184
3 226 225 186
3 186 225 185
3 227 226 187
3 187 226 186
3 228 227 188
3 188 227 187
3 229 228 189
3 189 228 188
3 230 229 190
3 190 229 189
3 231 230 191
3 191 230 190
3 232 231 192
3 192 231 191
3 233 232 193
3 193 232 192
3 234 233 194
3 194 233 193
3 235 234 195
3 195 234 194
3 236 235 196
3 196 235 195
3 237 236 197
3 197 236 196
3 238 237 198
3 198 237 197
3 239 238 199
3 199 238 198
3 240 239 200
3 200 239 199
3 241 240 201
3 201 240 200
3 242 241 202
3 202 241 201
3 243 242 203
3 203 242 202
3 244 243 204
3 204 243 203
3 245 244 205
3 205 244 204
3 246 245 206
3 206 245 205
3 247 246 207
3 207 246 206
3 248 247 208
3 208 247 207
3 249 248 209
3 209 248 208
3 250 249 210
3 210 249 209
3 251 250 211
3 211 250 210
3 252 251 212
3 212 251 211
3 253 252 213
3 213 252 212
3 254 253 214
3 214 253 213
3 216 255 176
3 176 255 215
3 255 254 215
3 215 254 214
3 257 256 276
3 259 258 257
3 261 260 259
3 263 262 261
3 265 264 263
3 267 266 265
3 269 268 267
3 271 270 269
3 273 272 271
3 275 274 273
3 257 276 275
3 261 259 257
3 265 263 261
3 269 267 265
3 273 271 269
3 257 275 273
3 265 261 257
3 273 269 265
3 265 257 273
3 297 277 278
3 278 279 280
3 280 281 282
3 282 283 284
3 284 285 286
3 286 287 288
3 288 289 290
3 290 291 292
3 292 293 294
3 294 295 296
3 296 297 278
3 278 280 282
3 282 284 286
3 286 288 290
3 290 292 294
3 294 296 278
3 278 282 286
3 286 290 294
3 294 278 286
3 278 277 257
3 257 277 256
3 279 278 258
3 258 278 257
3 280 279 259
3 259 279 258
3 281 280 260
3 260 280 259
3 282 281 261
3 261 281 260
3 283 282 262
3 262 282 261
3 284 283 263
3 263 283 262
3 285 284 264
3 264 284 263
3 286 285 265
3 265 285 264
3 287 286 266
3 266 286 265
3 288 287 267
3 267 287 266
3 289 288 268
3 268 288 267
3 290 289 269
3 269 289 268
3 291 290 270
3 270 290 269
3 292 291 271
3 271 291 270
3 293 292 272
3 272 292 271
3 294 293 273
3 273 293 272
3 295 294 274
3 274 294 273
3 296 295 275
3 275 295 274
3 277 297 256
3 256 297 276
3 297 296 276
3 276 296 275
3 299 298 318
3 301 300 299
3 303 302 301
3 305 304 303
3 307 306 305
3 309 308 307
3 311 310 309
3 313 312 311
3 315 314 313
3 317 316 315
3 299 318 317
3 303 301 299
3 307 305 303
3 311 309 307
3 315 313 311
3 299 317 315
3 307 303 299
3 315 311 307
3 307 299 315
3 339 319 320
3 320 321 322
3 322 323 324
3 324 325 326
3 326 327 328
3 328 329 330
3 330 331 332
3 332 333 334
3 334 335 336
3 336 337 338
3 338 339 320
3 320 322 324
3 324 326 328
3 328 330 332
3 332 334 336
3 336 338 320
3 320 324 328
3 328 332 336
3 336 320 328
3 320 319 299
3 299 319 298
3 321 320 300
3 300 320 299
3 322 321 301
3 301 321 300
3 323 322 302
3 302 322 301
3 324 323 303
3 303 323 302
3 325 324 304
3 304 324 303
3 326 325 305
3 305 325 304
3 327 326 306
3 306 326 305
3 328 327 307
3 307 327 306
3 329 328 308
3 308 328 307
3 330 329 309
3 309 329 308
3 331 330 310
3 310 330 309
3 332 331 311
3 311 331 310
3 333 332 312
3 312 332 311
3 334 333 313
3 313 333 312
3 335 334 314
3 314 334 313
3 336 335 315
3 315 335 314
3 337 336 316
3 316 336 315
3 338 337 317
3 317 337 316
3 319 339 298
3 298 339 318
3 339 338 318
3 318 338 317
