ply
format ascii 1.0
comment https://github.com/mikedh/trimesh
element vertex 122
property float x
property float y
property float z
element face 236
property list uchar int vertex_indices
end_header
-0.29048419 0.00000000 0.00000000
-0.29058945 0.00000000 0.00398098
-0.29143155 0.00000000 0.01128232
-0.29311574 0.00000000 0.01770286
-0.29564199 0.00000000 0.02324259
-0.29722092 0.00000000 0.02568215
-0.29898375 0.00000000 0.02786602
-0.30298126 0.00000000 0.03136022
-0.30760792 0.00000000 0.03368968
-0.31286371 0.00000000 0.03485441
-0.31572756 0.00000000 0.03500000
-0.31859744 0.00000000 0.03485441
-0.32386291 0.00000000 0.03368968
-0.32849604 0.00000000 0.03136022
-0.33249676 0.00000000 0.02786602
-0.33426002 0.00000000 0.02568215
-0.33583891 0.00000000 0.02324259
-0.33836520 0.00000000 0.01770286
-0.34004939 0.00000000 0.01128232
-0.34089148 0.00000000 0.00398098
-0.34099674 0.00000000 0.00000000
-0.34089148 0.00000000 -0.00398098
-0.34004939 0.00000000 -0.01128232
-0.33836520 0.00000000 -0.01770286
-0.33583891 0.00000000 -0.02324259
-0.33426002 0.00000000 -0.02568215
-0.33249676 0.00000000 -0.02786602
-0.32849604 0.00000000 -0.03136022
-0.32386291 0.00000000 -0.03368968
-0.31859744 0.00000000 -0.03485441
-0.31572756 0.00000000 -0.03500000
-0.31286371 0.00000000 -0.03485441
-0.30760792 0.00000000 -0.03368968
-0.30298126 0.00000000 -0.03136022
-0.29898375 0.00000000 -0.02786602
-0.29722092 0.00000000 -0.02568215
-0.29564199 0.00000000 -0.02324259
-0.29311574 0.00000000 -0.01770286
-0.29143155 0.00000000 -0.01128232
-0.29058945 0.00000000 -0.00398098
-0.29048419 -0.00495575 0.00000000
-0.29058945 -0.00495575 0.00398098
-0.29143155 -0.00495575 0.01128232
-0.29311574 -0.00495575 0.01770286
-0.29564199 -0.00495575 0.02324259
-0.29722092 -0.00495575 0.02568215
-0.29898375 -0.00495575 0.02786602
-0.30298126 -0.00495575 0.03136022
-0.30760792 -0.00495575 0.03368968
-0.31286371 -0.00495575 0.03485441
-0.31572756 -0.00495575 0.03500000
-0.31859744 -0.00495575 0.03485441
-0.32386291 -0.00495575 0.03368968
-0.32849604 -0.00495575 0.03136022
-0.33249676 -0.00495575 0.02786602
-0.33426002 -0.00495575 0.02568215
-0.33583891 -0.00495575 0.02324259
-0.33836520 -0.00495575 0.01770286
-0.34004939 -0.00495575 0.01128232
-0.34089148 -0.00495575 0.00398098
-0.34099674 -0.00495575 0.00000000
-0.34089148 -0.00495575 -0.00398098
-0.34004939 -0.00495575 -0.01128232
-0.33836520 -0.00495575 -0.01770286
-0.33583891 -0.00495575 -0.02324259
-0.33426002 -0.00495575 -0.02568215
-0.33249676 -0.00495575 -0.02786602
-0.32849604 -0.00495575 -0.03136022
-0.32386291 -0.00495575 -0.03368968
-0.31859744 -0.00495575 -0.03485441
-0.31572756 -0.00495575 -0.03500000
-0.31286371 -0.00495575 -0.03485441
-0.30760792 -0.00495575 -0.03368968
-0.30298126 -0.00495575 -0.03136022
-0.29898375 -0.00495575 -0.02786602
-0.29722092 -0.00495575 -0.02568215
-0.29564199 -0.00495575 -0.02324259
-0.29311574 -0.00495575 -0.01770286
-0.29143155 -0.00495575 -0.01128232
-0.29058945 -0.00495575 -0.00398098
0.34099674 0.00000000 0.00815634
0.34085637 0.00000000 0.01111898
0.33996588 0.00000000 0.01658451
0.33826235 0.00000000 0.02143702
0.33574575 0.00000000 0.02567651
0.33418256 0.00000000 0.02756637
0.33245039 0.00000000 0.02927233
0.32858193 0.00000000 0.03200187
0.32417467 0.00000000 0.03382156
0.31922859 0.00000000 0.03473140
0.31655350 0.00000000 0.03484513
0.31352714 0.00000000 0.03473543
0.30793902 0.00000000 0.03385785
0.30297035 0.00000000 0.03210269
0.29862118 0.00000000 0.02946995
0.29667887 0.00000000 0.02782448
0.29491282 0.00000000 0.02597979
0.29197359 0.00000000 0.02175320
0.28982478 0.00000000 0.01681036
0.28846648 0.00000000 0.01115125
0.28808376 0.00000000 0.00805310
0.34099674 -0.00495575 0.00815634
0.34085637 -0.00495575 0.01111898
0.33996588 -0.00495575 0.01658451
0.33826235 -0.00495575 0.02143702
0.33574575 -0.00495575 0.02567651
0.33418256 -0.00495575 0.02756637
0.33245039 -0.00495575 0.02927233
0.32858193 -0.00495575 0.03200187
0.32417467 -0.00495575 0.03382156
0.31922859 -0.00495575 0.03473140
0.31655350 -0.00495575 0.03484513
0.31352714 -0.00495575 0.03473543
0.30793902 -0.00495575 0.03385785
0.30297035 -0.00495575 0.03210269
0.29862118 -0.00495575 0.02946995
0.29667887 -0.00495575 0.02782448
0.29491282 -0.00495575 0.02597979
0.29197359 -0.00495575 0.02175320
0.28982478 -0.00495575 0.01681036
0.28846648 -0.00495575 0.01115125
0.28808376 -0.00495575 0.00805310
3 1 0 39
3 3 2 1
3 5 4 3
3 7 6 5
3 9 8 7
3 11 10 9
3 13 12 11
3 15 14 13
3 17 16 15
3 19 18 17
3 21 20 19
3 23 22 21
3 25 24 23
3 27 26 25
3 29 28 27
3 31 30 29
3 33 32 31
3 35 34 33
3 37 36 35
3 39 38 37
3 3 1 39
3 7 5 3
3 11 9 7
3 15 13 11
3 19 17 15
3 23 21 19
3 27 25 23
3 31 29 27
3 35 33 31
3 39 37 35
3 7 3 39
3 15 11 7
3 23 19 15
3 31 27 23
3 39 35 31
3 15 7 39
3 31 23 15
3 15 39 31
3 79 40 41
3 41 42 43
3 43 44 45
3 45 46 47
3 47 48 49
3 49 50 51
3 51 52 53
3 53 54 55
3 55 56 57
3 57 58 59
3 59 60 61
3 61 62 63
3 63 64 65
3 65 66 67
3 67 68 69
3 69 70 71
3 71 72 73
3 73 74 75
3 75 76 77
3 77 78 79
3 79 41 43
3 43 45 47
3 47 49 51
3 51 53 55
3 55 57 59
3 59 61 63
3 63 65 67
3 67 69 71
3 71 73 75
3 75 77 79
3 79 43 47
3 47 51 55
3 55 59 63
3 63 67 71
3 71 75 79
3 79 47 55
3 55 63 71
3 71 79 55
3 41 40 1
3 1 40 0
3 42 41 2
3 2 41 1
3 43 42 3
3 3 42 2
3 44 43 4
3 4 43 3
3 45 44 5
3 5 44 4
3 46 45 6
3 6 45 5
3 47 46 7
3 7 46 6
3 48 47 8
3 8 47 7
3 49 48 9
3 9 48 8
3 50 49 10
3 10 49 9
3 51 50 11
3 11 50 10
3 52 51 12
3 12 51 11
3 53 52 13
3 13 52 12
3 54 53 14
3 14 53 13
3 55 54 15
3 15 54 14
3 56 55 16
3 16 55 15
3 57 56 17
3 17 56 16
3 58 57 18
3 18 57 17
3 59 58 19
3 19 58 18
3 60 59 20
3 20 59 19
3 61 60 21
3 21 60 20
3 62 61 22
3 22 61 21
3 63 62 23
3 23 62 22
3 64 63 24
3 24 63 23
3 65 64 25
3 25 64 24
3 66 65 26
3 26 65 25
3 67 66 27
3 27 66 26
3 68 67 28
3 28 67 27
3 69 68 29
3 29 68 28
3 70 69 30
3 30 69 29
3 71 70 31
3 31 70 30
3 72 71 32
3 32 71 31
3 73 72 33
3 33 72 32
3 74 73 34
3 34 73 33
3 75 74 35
3 35 74 34
3 76 75 36
3 36 75 35
3 77 76 37
3 37 76 36
3 78 77 38
3 38 77 37
3 40 79 0
3 0 79 39
3 79 78 39
3 39 78 38
3 81 80 100
3 83 82 81
3 85 84 83
3 87 86 85
3 89 88 87
3 91 90 89
3 93 92 91
3 95 94 93
3 97 96 95
3 99 98 97
3 81 100 99
3 85 83 81
3 89 87 85
3 93 91 89
3 97 95 93
3 81 99 97
3 89 85 81
3 97 93 89
3 89 81 97
3 121 101 102
3 102 103 104
3 104 105 106
3 106 107 108
3 108 109 110
3 110 111 112
3 112 113 114
3 114 115 116
3 116 117 118
3 118 119 120
3 120 121 102
3 102 104 106
3 106 108 110
3 110 112 114
3 114 116 118
3 118 120 102
3 102 106 110
3 110 114 118
3 118 102 110
3 102 101 81
3 81 101 80
3 103 102 82
3 82 102 81
3 104 103 83
3 83 103 82
3 105 104 84
3 84 104 83
3 106 105 85
3 85 105 84
3 107 106 86
3 86 106 85
3 108 107 87
3 87 107 86
3 109 108 88
3 88 108 87
3 110 109 89
3 89 109 88
3 111 110 90
3 90 110 89
3 112 111 91
3 91 111 90
3 113 112 92
3 92 112 91
3 114 113 93
3 93 113 92
3 115 114 94
3 94 114 93
3 116 115 95
3 95 115 94
3 117 116 96
3 96 116 95
3 118 117 97
3 97 117 96
3 119 118 98
3 98 118 97
3 120 119 99
3 99 119 98
3 101 121 80
3 80 121 100
3 121 120 100
3 100 120 99
