ply
format ascii 1.0
comment https://github.com/mikedh/trimesh
element vertex 484
property float x
property float y
property float z
element face 940
property list uchar int vertex_indices
end_header
-0.49250531 0.00000000 0.00815634
-0.49264565 0.00000000 0.01111898
-0.49353614 0.00000000 0.01658451
-0.49523968 0.00000000 0.02143702
-0.49775627 0.00000000 0.02567651
-0.49931946 0.00000000 0.02756637
-0.50105160 0.00000000 0.02927233
-0.50492007 0.00000000 0.03200187
-0.50932735 0.00000000 0.03382156
-0.51427341 0.00000000 0.03473140
-0.51694852 0.00000000 0.03484513
-0.51997489 0.00000000 0.03473543
-0.52556300 0.00000000 0.03385785
-0.53053164 0.00000000 0.03210269
-0.53488088 0.00000000 0.02946995
-0.53682315 0.00000000 0.02782448
-0.53858918 0.00000000 0.02597979
-0.54152846 0.00000000 0.02175320
-0.54367721 0.00000000 0.01681036
-0.54503554 0.00000000 0.01115125
-0.54541826 0.00000000 0.00805310
-0.49250531 -0.00495575 0.00815634
-0.49264565 -0.00495575 0.01111898
-0.49353614 -0.00495575 0.01658451
-0.49523968 -0.00495575 0.02143702
-0.49775627 -0.00495575 0.02567651
-0.49931946 -0.00495575 0.02756637
-0.50105160 -0.00495575 0.02927233
-0.50492007 -0.00495575 0.03200187
-0.50932735 -0.00495575 0.03382156
-0.51427341 -0.00495575 0.03473140
-0.51694852 -0.00495575 0.03484513
-0.51997489 -0.00495575 0.03473543
-0.52556300 -0.00495575 0.03385785
-0.53053164 -0.00495575 0.03210269
-0.53488088 -0.00495575 0.02946995
-0.53682315 -0.00495575 0.02782448
-0.53858918 -0.00495575 0.02597979
-0.54152846 -0.00495575 0.02175320
-0.54367721 -0.00495575 0.01681036
-0.54503554 -0.00495575 0.01115125
-0.54541826 -0.00495575 0.00805310
-0.44443193 0.00000000 0.00000000
-0.44432667 0.00000000 -0.00398098
-0.44348457 0.00000000 -0.01128232
-0.44180039 0.00000000 -0.01770286
-0.43927410 0.00000000 -0.02324259
-0.43769521 0.00000000 -0.02568215
-0.43593237 0.00000000 -0.02786602
-0.43193486 0.00000000 -0.03136022
-0.42730820 0.00000000 -0.03368968
-0.42205238 0.00000000 -0.03485441
-0.41918856 0.00000000 -0.03500000
-0.41632432 0.00000000 -0.03485441
-0.41106528 0.00000000 -0.03368968
-0.40643218 0.00000000 -0.03136022
-0.40242499 0.00000000 -0.02786602
-0.40065610 0.00000000 -0.02568215
-0.39906511 0.00000000 -0.02324259
-0.39651945 0.00000000 -0.01770286
-0.39482239 0.00000000 -0.01128232
-0.39397383 0.00000000 -0.00398098
-0.39386776 0.00000000 0.00000000
-0.39397383 0.00000000 0.00398098
-0.39482239 0.00000000 0.01128232
-0.39651945 0.00000000 0.01770286
-0.39906511 0.00000000 0.02324259
-0.40065610 0.00000000 0.02568215
-0.40242499 0.00000000 0.02786602
-0.40643218 0.00000000 0.03136022
-0.41106528 0.00000000 0.03368968
-0.41632432 0.00000000 0.03485441
-0.41918856 0.00000000 0.03500000
-0.42205238 0.00000000 0.03485441
-0.42730820 0.00000000 0.03368968
-0.43193486 0.00000000 0.03136022
-0.43593237 0.00000000 0.02786602
-0.43769521 0.00000000 0.02568215
-0.43927410 0.00000000 0.02324259
-0.44180039 0.00000000 0.01770286
-0.44348457 0.00000000 0.01128232
-0.44432667 0.00000000 0.00398098
-0.44443193 -0.00495575 0.00000000
-0.44432667 -0.00495575 -0.00398098
-0.44348457 -0.00495575 -0.01128232
-0.44180039 -0.00495575 -0.01770286
-0.43927410 -0.00495575 -0.02324259
-0.43769521 -0.00495575 -0.02568215
-0.43593237 -0.00495575 -0.02786602
-0.43193486 -0.00495575 -0.03136022
-0.42730820 -0.00495575 -0.03368968
-0.42205238 -0.00495575 -0.03485441
-0.41918856 -0.00495575 -0.03500000
-0.41632432 -0.00495575 -0.03485441
-0.41106528 -0.00495575 -0.03368968
-0.40643218 -0.00495575 -0.03136022
-0.40242499 -0.00495575 -0.02786602
-0.40065610 -0.00495575 -0.02568215
-0.39906511 -0.00495575 -0.02324259
-0.39651945 -0.00495575 -0.01770286
-0.39482239 -0.00495575 -0.01128232
-0.39397383 -0.00495575 -0.00398098
-0.39386776 -0.00495575 0.00000000
-0.39397383 -0.00495575 0.00398098
-0.39482239 -0.00495575 0.01128232
-0.39651945 -0.00495575 0.01770286
-0.39906511 -0.00495575 0.02324259
-0.40065610 -0.00495575 0.02568215
-0.40242499 -0.00495575 0.02786602
-0.40643218 -0.00495575 0.03136022
-0.41106528 -0.00495575 0.03368968
-0.41632432 -0.00495575 0.03485441
-0.41918856 -0.00495575 0.03500000
-0.42205238 -0.00495575 0.03485441
-0.42730820 -0.00495575 0.03368968
-0.43193486 -0.00495575 0.03136022
-0.43593237 -0.00495575 0.02786602
-0.43769521 -0.00495575 0.02568215
-0.43927410 -0.00495575 0.02324259
-0.44180039 -0.00495575 0.01770286
-0.44348457 -0.00495575 0.01128232
-0.44432667 -0.00495575 0.00398098
-0.20099351 0.00000000 0.00000000
-0.20109876 0.00000000 0.00398098
-0.20194085 0.00000000 0.01128232
-0.20362504 0.00000000 0.01770286
-0.20615131 0.00000000 0.02324259
-0.20773023 0.00000000 0.02568215
-0.20949306 0.00000000 0.02786602
-0.21349056 0.00000000 0.03136022
-0.21811722 0.00000000 0.03368968
-0.22337303 0.00000000 0.03485441
-0.22623686 0.00000000 0.03500000
-0.22910675 0.00000000 0.03485441
-0.23437223 0.00000000 0.03368968
-0.23900534 0.00000000 0.03136022
-0.24300608 0.00000000 0.02786602
-0.24476930 0.00000000 0.02568215
-0.24634823 0.00000000 0.02324259
-0.24887450 0.00000000 0.01770286
-0.25055867 0.00000000 0.01128232
-0.25140077 0.00000000 0.00398098
-0.25150603 0.00000000 0.00000000
-0.25140077 0.00000000 -0.00398098
-0.25055867 0.00000000 -0.01128232
-0.24887450 0.00000000 -0.01770286
-0.24634823 0.00000000 -0.02324259
-0.24476930 0.00000000 -0.02568215
-0.24300608 0.00000000 -0.02786602
-0.23900534 0.00000000 -0.03136022
-0.23437223 0.00000000 -0.03368968
-0.22910675 0.00000000 -0.03485441
-0.22623686 0.00000000 -0.03500000
-0.22337303 0.00000000 -0.03485441
-0.21811722 0.00000000 -0.03368968
-0.21349056 0.00000000 -0.03136022
-0.20949306 0.00000000 -0.02786602
-0.20773023 0.00000000 -0.02568215
-0.20615131 0.00000000 -0.02324259
-0.20362504 0.00000000 -0.01770286
-0.20194085 0.00000000 -0.01128232
-0.20109876 0.00000000 -0.00398098
-0.20099351 -0.00495575 0.00000000
-0.20109876 -0.00495575 0.00398098
-0.20194085 -0.00495575 0.01128232
-0.20362504 -0.00495575 0.01770286
-0.20615131 -0.00495575 0.02324259
-0.20773023 -0.00495575 0.02568215
-0.20949306 -0.00495575 0.02786602
-0.21349056 -0.00495575 0.03136022
-0.21811722 -0.00495575 0.03368968
-0.22337303 -0.00495575 0.03485441
-0.22623686 -0.00495575 0.03500000
-0.22910675 -0.00495575 0.03485441
-0.23437223 -0.00495575 0.03368968
-0.23900534 -0.00495575 0.03136022
-0.24300608 -0.00495575 0.02786602
-0.24476930 -0.00495575 0.02568215
-0.24634823 -0.00495575 0.02324259
-0.24887450 -0.00495575 0.01770286
-0.25055867 -0.00495575 0.01128232
-0.25140077 -0.00495575 0.00398098
-0.25150603 -0.00495575 0.00000000
-0.25140077 -0.00495575 -0.00398098
-0.25055867 -0.00495575 -0.01128232
-0.24887450 -0.00495575 -0.01770286
-0.24634823 -0.00495575 -0.02324259
-0.24476930 -0.00495575 -0.02568215
-0.24300608 -0.00495575 -0.02786602
-0.23900534 -0.00495575 -0.03136022
-0.23437223 -0.00495575 -0.03368968
-0.22910675 -0.00495575 -0.03485441
-0.22623686 -0.00495575 -0.03500000
-0.22337303 -0.00495575 -0.03485441
-0.21811722 -0.00495575 -0.03368968
-0.21349056 -0.00495575 -0.03136022
-0.20949306 -0.00495575 -0.02786602
-0.20773023 -0.00495575 -0.02568215
-0.20615131 -0.00495575 -0.02324259
-0.20362504 -0.00495575 -0.01770286
-0.20194085 -0.00495575 -0.01128232
-0.20109876 -0.00495575 -0.00398098
-0.06129678 0.00000000 0.00000000
-0.06119152 0.00000000 -0.00398098
-0.06034943 0.00000000 -0.01128232
-0.05866525 0.00000000 -0.01770286
-0.05613898 0.00000000 -0.02324259
-0.05456006 0.00000000 -0.02568215
-0.05279723 0.00000000 -0.02786602
-0.04879972 0.00000000 -0.03136022
-0.04417306 0.00000000 -0.03368968
-0.03891725 0.00000000 -0.03485441
-0.03605342 0.00000000 -0.03500000
-0.03318918 0.00000000 -0.03485441
-0.02793015 0.00000000 -0.03368968
-0.02329704 0.00000000 -0.03136022
-0.01928985 0.00000000 -0.02786602
-0.01752097 0.00000000 -0.02568215
-0.01592995 0.00000000 -0.02324259
-0.01338432 0.00000000 -0.01770286
-0.01168723 0.00000000 -0.01128232
-0.01083869 0.00000000 -0.00398098
-0.01073262 0.00000000 0.00000000
-0.01083869 0.00000000 0.00398098
-0.01168723 0.00000000 0.01128232
-0.01338432 0.00000000 0.01770286
-0.01592995 0.00000000 0.02324259
-0.01752097 0.00000000 0.02568215
-0.01928985 0.00000000 0.02786602
-0.02329704 0.00000000 0.03136022
-0.02793015 0.00000000 0.03368968
-0.03318918 0.00000000 0.03485441
-0.03605342 0.00000000 0.03500000
-0.03891725 0.00000000 0.03485441
-0.04417306 0.00000000 0.03368968
-0.04879972 0.00000000 0.03136022
-0.05279723 0.00000000 0.02786602
-0.05456006 0.00000000 0.02568215
-0.05613898 0.00000000 0.02324259
-0.05866525 0.00000000 0.01770286
-0.06034943 0.00000000 0.01128232
-0.06119152 0.00000000 0.00398098
-0.06129678 -0.00495575 0.00000000
-0.06119152 -0.00495575 -0.00398098
-0.06034943 -0.00495575 -0.01128232
-0.05866525 -0.00495575 -0.01770286
-0.05613898 -0.00495575 -0.02324259
-0.05456006 -0.00495575 -0.02568215
-0.05279723 -0.00495575 -0.02786602
-0.04879972 -0.00495575 -0.03136022
-0.04417306 -0.00495575 -0.03368968
-0.03891725 -0.00495575 -0.03485441
-0.03605342 -0.00495575 -0.03500000
-0.03318918 -0.00495575 -0.03485441
-0.02793015 -0.00495575 -0.03368968
-0.02329704 -0.00495575 -0.03136022
-0.01928985 -0.00495575 -0.02786602
-0.01752097 -0.00495575 -0.02568215
-0.01592995 -0.00495575 -0.02324259
-0.01338432 -0.00495575 -0.01770286
-0.01168723 -0.00495575 -0.01128232
-0.01083869 -0.00495575 -0.00398098
-0.01073262 -0.00495575 0.00000000
-0.01083869 -0.00495575 0.00398098
-0.01168723 -0.00495575 0.01128232
-0.01338432 -0.00495575 0.01770286
-0.01592995 -0.00495575 0.02324259
-0.01752097 -0.00495575 0.02568215
-0.01928985 -0.00495575 0.02786602
-0.02329704 -0.00495575 0.03136022
-0.02793015 -0.00495575 0.03368968
-0.03318918 -0.00495575 0.03485441
-0.03605342 -0.00495575 0.03500000
-0.03891725 -0.00495575 0.03485441
-0.04417306 -0.00495575 0.03368968
-0.04879972 -0.00495575 0.03136022
-0.05279723 -0.00495575 0.02786602
-0.05456006 -0.00495575 0.02568215
-0.05613898 -0.00495575 0.02324259
-0.05866525 -0.00495575 0.01770286
-0.06034943 -0.00495575 0.01128232
-0.06119152 -0.00495575 0.00398098
0.12615712 0.00000000 0.00000000
0.12626238 0.00000000 -0.00398098
0.12710448 0.00000000 -0.01128232
0.12878866 0.00000000 -0.01770286
0.13131493 0.00000000 -0.02324259
0.13289385 0.00000000 -0.02568215
0.13465668 0.00000000 -0.02786602
0.13865419 0.00000000 -0.03136022
0.14328085 0.00000000 -0.03368968
0.14853665 0.00000000 -0.03485441
0.15140049 0.00000000 -0.03500000
0.15426473 0.00000000 -0.03485441
0.15952376 0.00000000 -0.03368968
0.16415687 0.00000000 -0.03136022
0.16816406 0.00000000 -0.02786602
0.16993293 0.00000000 -0.02568215
0.17152396 0.00000000 -0.02324259
0.17406958 0.00000000 -0.01770286
0.17576668 0.00000000 -0.01128232
0.17661522 0.00000000 -0.00398098
0.17672129 0.00000000 0.00000000
0.17661522 0.00000000 0.00398098
0.17576668 0.00000000 0.01128232
0.17406958 0.00000000 0.01770286
0.17152396 0.00000000 0.02324259
0.16993293 0.00000000 0.02568215
0.16816406 0.00000000 0.02786602
0.16415687 0.00000000 0.03136022
0.15952376 0.00000000 0.03368968
0.15426473 0.00000000 0.03485441
0.15140049 0.00000000 0.03500000
0.14853665 0.00000000 0.03485441
0.14328085 0.00000000 0.03368968
0.13865419 0.00000000 0.03136022
0.13465668 0.00000000 0.02786602
0.13289385 0.00000000 0.02568215
0.13131493 0.00000000 0.02324259
0.12878866 0.00000000 0.01770286
0.12710448 0.00000000 0.01128232
0.12626238 0.00000000 0.00398098
0.12615712 -0.00495575 0.00000000
0.12626238 -0.00495575 -0.00398098
0.12710448 -0.00495575 -0.01128232
0.12878866 -0.00495575 -0.01770286
0.13131493 -0.00495575 -0.02324259
0.13289385 -0.00495575 -0.02568215
0.13465668 -0.00495575 -0.02786602
0.13865419 -0.00495575 -0.03136022
0.14328085 -0.00495575 -0.03368968
0.14853665 -0.00495575 -0.03485441
0.15140049 -0.00495575 -0.03500000
0.15426473 -0.00495575 -0.03485441
0.15952376 -0.00495575 -0.03368968
0.16415687 -0.00495575 -0.03136022
0.16816406 -0.00495575 -0.02786602
0.16993293 -0.00495575 -0.02568215
0.17152396 -0.00495575 -0.02324259
0.17406958 -0.00495575 -0.01770286
0.17576668 -0.00495575 -0.01128232
0.17661522 -0.00495575 -0.00398098
0.17672129 -0.00495575 0.00000000
0.17661522 -0.00495575 0.00398098
0.17576668 -0.00495575 0.01128232
0.17406958 -0.00495575 0.01770286
0.17152396 -0.00495575 0.02324259
0.16993293 -0.00495575 0.02568215
0.16816406 -0.00495575 0.02786602
0.16415687 -0.00495575 0.03136022
0.15952376 -0.00495575 0.03368968
0.15426473 -0.00495575 0.03485441
0.15140049 -0.00495575 0.03500000
0.14853665 -0.00495575 0.03485441
0.14328085 -0.00495575 0.03368968
0.13865419 -0.00495575 0.03136022
0.13465668 -0.00495575 0.02786602
0.13289385 -0.00495575 0.02568215
0.13131493 -0.00495575 0.02324259
0.12878866 -0.00495575 0.01770286
0.12710448 -0.00495575 0.01128232
0.12626238 -0.00495575 0.00398098
0.28457344 0.00000000 0.00815634
0.28443307 0.00000000 0.01111898
0.28354260 0.00000000 0.01658451
0.28183904 0.00000000 0.02143702
0.27932245 0.00000000 0.02567651
0.27775925 0.00000000 0.02756637
0.27602708 0.00000000 0.02927233
0.27215862 0.00000000 0.03200187
0.26775137 0.00000000 0.03382156
0.26280531 0.00000000 0.03473140
0.26013020 0.00000000 0.03484513
0.25710383 0.00000000 0.03473543
0.25151572 0.00000000 0.03385785
0.24654706 0.00000000 0.03210269
0.24219787 0.00000000 0.02946995
0.24025558 0.00000000 0.02782448
0.23848952 0.00000000 0.02597979
0.23555027 0.00000000 0.02175320
0.23340149 0.00000000 0.01681036
0.23204318 0.00000000 0.01115125
0.23166044 0.00000000 0.00805310
0.28457344 -0.00495575 0.00815634
0.28443307 -0.00495575 0.01111898
0.28354260 -0.00495575 0.01658451
0.28183904 -0.00495575 0.02143702
0.27932245 -0.00495575 0.02567651
0.27775925 -0.00495575 0.02756637
0.27602708 -0.00495575 0.02927233
0.27215862 -0.00495575 0.03200187
0.26775137 -0.00495575 0.03382156
0.26280531 -0.00495575 0.03473140
0.26013020 -0.00495575 0.03484513
0.25710383 -0.00495575 0.03473543
0.25151572 -0.00495575 0.03385785
0.24654706 -0.00495575 0.03210269
0.24219787 -0.00495575 0.02946995
0.24025558 -0.00495575 0.02782448
0.23848952 -0.00495575 0.02597979
0.23555027 -0.00495575 0.02175320
0.23340149 -0.00495575 0.01681036
0.23204318 -0.00495575 0.01115125
0.23166044 -0.00495575 0.00805310
0.51968449 0.00000000 0.03484513
0.51678115 0.00000000 0.03469954
0.51144147 0.00000000 0.03353481
0.50672448 0.00000000 0.03120535
0.50263017 0.00000000 0.02771116
0.50081652 0.00000000 0.02552729
0.49918920 0.00000000 0.02309014
0.49658549 0.00000000 0.01756977
0.49484968 0.00000000 0.01118795
0.49398178 0.00000000 0.00394468
0.49387330 0.00000000 0.00000000
0.49398097 0.00000000 -0.00394468
0.49484241 0.00000000 -0.01118795
0.49656531 0.00000000 -0.01756977
0.49914968 0.00000000 -0.02309014
0.50076491 0.00000000 -0.02552729
0.50257367 0.00000000 -0.02771116
0.50666797 0.00000000 -0.03120535
0.51139790 0.00000000 -0.03353481
0.51676339 0.00000000 -0.03469954
0.51968449 0.00000000 -0.03484513
0.52257538 0.00000000 -0.03469914
0.52789247 0.00000000 -0.03353118
0.53259009 0.00000000 -0.03119527
0.53666830 0.00000000 -0.02769139
0.53847504 0.00000000 -0.02550147
0.54010236 0.00000000 -0.02305344
0.54270607 0.00000000 -0.01752339
0.54444188 0.00000000 -0.01114802
0.54530978 0.00000000 -0.00392734
0.54541826 0.00000000 0.00000000
0.54530978 0.00000000 0.00390959
0.54444188 0.00000000 0.01110447
0.54270607 0.00000000 0.01746693
0.54010236 0.00000000 0.02299698
0.53847504 0.00000000 0.02544985
0.53666830 0.00000000 0.02765187
0.53259009 0.00000000 0.03117510
0.52789247 0.00000000 0.03352392
0.52257538 0.00000000 0.03469833
0.51968449 -0.00495575 0.03484513
0.51678115 -0.00495575 0.03469954
0.51144147 -0.00495575 0.03353481
0.50672448 -0.00495575 0.03120535
0.50263017 -0.00495575 0.02771116
0.50081652 -0.00495575 0.02552729
0.49918920 -0.00495575 0.02309014
0.49658549 -0.00495575 0.01756977
0.49484968 -0.00495575 0.01118795
0.49398178 -0.00495575 0.00394468
0.49387330 -0.00495575 0.00000000
0.49398097 -0.00495575 -0.00394468
0.49484241 -0.00495575 -0.01118795
0.49656531 -0.00495575 -0.01756977
0.49914968 -0.00495575 -0.02309014
0.50076491 -0.00495575 -0.02552729
0.50257367 -0.00495575 -0.02771116
0.50666797 -0.00495575 -0.03120535
0.51139790 -0.00495575 -0.03353481
0.51676339 -0.00495575 -0.03469954
0.51968449 -0.00495575 -0.03484513
0.52257538 -0.00495575 -0.03469914
0.52789247 -0.00495575 -0.03353118
0.53259009 -0.00495575 -0.03119527
0.53666830 -0.00495575 -0.02769139
0.53847504 -0.00495575 -0.02550147
0.54010236 -0.00495575 -0.02305344
0.54270607 -0.00495575 -0.01752339
0.54444188 -0.00495575 -0.01114802
0.54530978 -0.00495575 -0.00392734
0.54541826 -0.00495575 0.00000000
0.54530978 -0.00495575 0.00390959
0.54444188 -0.00495575 0.01110447
0.54270607 -0.00495575 0.01746693
0.54010236 -0.00495575 0.02299698
0.53847504 -0.00495575 0.02544985
0.53666830 -0.00495575 0.02765187
0.53259009 -0.00495575 0.03117510
0.52789247 -0.00495575 0.03352392
0.52257538 -0.00495575 0.03469833
3 1 0 20
3 3 2 1
3 5 4 3
3 7 6 5
3 9 8 7
3 11 10 9
3 13 12 11
3 15 14 13
3 17 16 15
3 19 18 17
3 1 20 19
3 5 3 1
3 9 7 5
3 13 11 9
3 17 15 13
3 1 19 17
3 9 5 1
3 17 13 9
3 9 1 17
3 41 21 22
3 22 23 24
3 24 25 26
3 26 27 28
3 28 29 30
3 30 31 32
3 32 33 34
3 34 35 36
3 36 37 38
3 38 39 40
3 40 41 22
3 22 24 26
3 26 28 30
3 30 32 34
3 34 36 38
3 38 40 22
3 22 26 30
3 30 34 38
3 38 22 30
3 22 21 1
3 1 21 0
3 23 22 2
3 2 22 1
3 24 23 3
3 3 23 2
3 25 24 4
3 4 24 3
3 26 25 5
3 5 25 4
3 27 26 6
3 6 26 5
3 28 27 7
3 7 27 6
3 29 28 8
3 8 28 7
3 30 29 9
3 9 29 8
3 31 30 10
3 10 30 9
3 32 31 11
3 11 31 10
3 33 32 12
3 12 32 11
3 34 33 13
3 13 33 12
3 35 34 14
3 14 34 13
3 36 35 15
3 15 35 14
3 37 36 16
3 16 36 15
3 38 37 17
3 17 37 16
3 39 38 18
3 18 38 17
3 40 39 19
3 19 39 18
3 21 41 0
3 0 41 20
3 41 40 20
3 20 40 19
3 43 42 81
3 45 44 43
3 47 46 45
3 49 48 47
3 51 50 49
3 53 52 51
3 55 54 53
3 57 56 55
3 59 58 57
3 61 60 59
3 63 62 61
3 65 64 63
3 67 66 65
3 69 68 67
3 71 70 69
3 73 72 71
3 75 74 73
3 77 76 75
3 79 78 77
3 81 80 79
3 45 43 81
3 49 47 45
3 53 51 49
3 57 55 53
3 61 59 57
3 65 63 61
3 69 67 65
3 73 71 69
3 77 75 73
3 81 79 77
3 49 45 81
3 57 53 49
3 65 61 57
3 73 69 65
3 81 77 73
3 57 49 81
3 73 65 57
3 57 81 73
3 121 82 83
3 83 84 85
3 85 86 87
3 87 88 89
3 89 90 91
3 91 92 93
3 93 94 95
3 95 96 97
3 97 98 99
3 99 100 101
3 101 102 103
3 103 104 105
3 105 106 107
3 107 108 109
3 109 110 111
3 111 112 113
3 113 114 115
3 115 116 117
3 117 118 119
3 119 120 121
3 121 83 85
3 85 87 89
3 89 91 93
3 93 95 97
3 97 99 101
3 101 103 105
3 105 107 109
3 109 111 113
3 113 115 117
3 117 119 121
3 121 85 89
3 89 93 97
3 97 101 105
3 105 109 113
3 113 117 121
3 121 89 97
3 97 105 113
3 113 121 97
3 83 82 43
3 43 82 42
3 84 83 44
3 44 83 43
3 85 84 45
3 45 84 44
3 86 85 46
3 46 85 45
3 87 86 47
3 47 86 46
3 88 87 48
3 48 87 47
3 89 88 49
3 49 88 48
3 90 89 50
3 50 89 49
3 91 90 51
3 51 90 50
3 92 91 52
3 52 91 51
3 93 92 53
3 53 92 52
3 94 93 54
3 54 93 53
3 95 94 55
3 55 94 54
3 96 95 56
3 56 95 55
3 97 96 57
3 57 96 56
3 98 97 58
3 58 97 57
3 99 98 59
3 59 98 58
3 100 99 60
3 60 99 59
3 101 100 61
3 61 100 60
3 102 101 62
3 62 101 61
3 103 102 63
3 63 102 62
3 104 103 64
3 64 103 63
3 105 104 65
3 65 104 64
3 106 105 66
3 66 105 65
3 107 106 67
3 67 106 66
3 108 107 68
3 68 107 67
3 109 108 69
3 69 108 68
3 110 109 70
3 70 109 69
3 111 110 71
3 71 110 70
3 112 111 72
3 72 111 71
3 113 112 73
3 73 112 72
3 114 113 74
3 74 113 73
3 115 114 75
3 75 114 74
3 116 115 76
3 76 115 75
3 117 116 77
3 77 116 76
3 118 117 78
3 78 117 77
3 119 118 79
3 79 118 78
3 120 119 80
3 80 119 79
3 82 121 42
3 42 121 81
3 121 120 81
3 81 120 80
3 123 122 161
3 125 124 123
3 127 126 125
3 129 128 127
3 131 130 129
3 133 132 131
3 135 134 133
3 137 136 135
3 139 138 137
3 141 140 139
3 143 142 141
3 145 144 143
3 147 146 145
3 149 148 147
3 151 150 149
3 153 152 151
3 155 154 153
3 157 156 155
3 159 158 157
3 161 160 159
3 125 123 161
3 129 127 125
3 133 131 129
3 137 135 133
3 141 139 137
3 145 143 141
3 149 147 145
3 153 151 149
3 157 155 153
3 161 159 157
3 129 125 161
3 137 133 129
3 145 141 137
3 153 149 145
3 161 157 153
3 137 129 161
3 153 145 137
3 137 161 153
3 201 162 163
3 163 164 165
3 165 166 167
3 167 168 169
3 169 170 171
3 171 172 173
3 173 174 175
3 175 176 177
3 177 178 179
3 179 180 181
3 181 182 183
3 183 184 185
3 185 186 187
3 187 188 189
3 189 190 191
3 191 192 193
3 193 194 195
3 195 196 197
3 197 198 199
3 199 200 201
3 201 163 165
3 165 167 169
3 169 171 173
3 173 175 177
3 177 179 181
3 181 183 185
3 185 187 189
3 189 191 193
3 193 195 197
3 197 199 201
3 201 165 169
3 169 173 177
3 177 181 185
3 185 189 193
3 193 197 201
3 201 169 177
3 177 185 193
3 193 201 177
3 163 162 123
3 123 162 122
3 164 163 124
3 124 163 123
3 165 164 125
3 125 164 124
3 166 165 126
3 126 165 125
3 167 166 127
3 127 166 126
3 168 167 128
3 128 167 127
3 169 168 129
3 129 168 128
3 170 169 130
3 130 169 129
3 171 170 131
3 131 170 130
3 172 171 132
3 132 171 131
3 173 172 133
3 133 172 132
3 174 173 134
3 134 173 133
3 175 174 135
3 135 174 134
3 176 175 136
3 136 175 135
3 177 176 137
3 137 176 136
3 178 177 138
3 138 177 137
3 179 178 139
3 139 178 138
3 180 179 140
3 140 179 139
3 181 180 141
3 141 180 140
3 182 181 142
3 142 181 141
3 183 182 143
3 143 182 142
3 184 183 144
3 144 183 143
3 185 184 145
3 145 184 144
3 186 185 146
3 146 185 145
3 187 186 147
3 147 186 146
3 188 187 148
3 148 187 147
3 189 188 149
3 149 188 148
3 190 189 150
3 150 189 149
3 191 190 151
3 151 190 150
3 192 191 152
3 152 191 151
3 193 192 153
3 153 192 152
3 194 193 154
3 154 193 153
3 195 194 155
3 155 194 154
3 196 195 156
3 156 195 155
3 197 196 157
3 157 196 156
3 198 197 158
3 158 197 157
3 199 198 159
3 159 198 158
3 200 199 160
3 160 199 159
3 162 201 122
3 122 201 161
3 201 200 161
3 161 200 160
3 203 202 241
3 205 204 203
3 207 206 205
3 209 208 207
3 211 210 209
3 213 212 211
3 215 214 213
3 217 216 215
3 219 218 217
3 221 220 219
3 223 222 221
3 225 224 223
3 227 226 225
3 229 228 227
3 231 230 229
3 233 232 231
3 235 234 233
3 237 236 235
3 239 238 237
3 241 240 239
3 205 203 241
3 209 207 205
3 213 211 209
3 217 215 213
3 221 219 217
3 225 223 221
3 229 227 225
3 233 231 229
3 237 235 233
3 241 239 237
3 209 205 241
3 217 213 209
3 225 221 217
3 233 229 225
3 241 237 233
3 217 209 241
3 233 225 217
3 217 241 233
3 281 242 243
3 243 244 245
3 245 246 247
3 247 248 249
3 249 250 251
3 251 252 253
3 253 254 255
3 255 256 257
3 257 258 259
3 259 260 261
3 261 262 263
3 263 264 265
3 265 266 267
3 267 268 269
3 269 270 271
3 271 272 273
3 273 274 275
3 275 276 277
3 277 278 279
3 279 280 281
3 281 243 245
3 245 247 249
3 249 251 253
3 253 255 257
3 257 259 261
3 261 263 265
3 265 267 269
3 269 271 273
3 273 275 277
3 277 279 281
3 281 245 249
3 249 253 257
3 257 261 265
3 265 269 273
3 273 277 281
3 281 249 257
3 257 265 273
3 273 281 257
3 243 242 203
3 203 242 202
3 244 243 204
3 204 243 203
3 245 244 205
3 205 244 204
3 246 245 206
3 206 245 205
3 247 246 207
3 207 246 206
3 248 247 208
3 208 247 207
3 249 248 209
3 209 248 208
3 250 249 210
3 210 249 209
3 251 250 211
3 211 250 210
3 252 251 212
3 212 251 211
3 253 252 213
3 213 252 212
3 254 253 214
3 214 253 213
3 255 254 215
3 215 254 214
3 256 255 216
3 216 255 215
3 257 256 217
3 217 256 216
3 258 257 218
3 218 257 217
3 259 258 219
3 219 258 218
3 260 259 220
3 220 259 219
3 261 260 221
3 221 260 220
3 262 261 222
3 222 261 221
3 263 262 223
3 223 262 222
3 264 263 224
3 224 263 223
3 265 264 225
3 225 264 224
3 266 265 226
3 226 265 225
3 267 266 227
3 227 266 226
3 268 267 228
3 228 267 227
3 269 268 229
3 229 268 228
3 270 269 230
3 230 269 229
3 271 270 231
3 231 270 230
3 272 271 232
3 232 271 231
3 273 272 233
3 233 272 232
3 274 273 234
3 234 273 233
3 275 274 235
3 235 274 234
3 276 275 236
3 236 275 235
3 277 276 237
3 237 276 236
3 278 277 238
3 238 277 237
3 279 278 239
3 239 278 238
3 280 279 240
3 240 279 239
3 242 281 202
3 202 281 241
3 281 280 241
3 241 280 240
3 283 282 321
3 285 284 283
3 287 286 285
3 289 288 287
3 291 290 289
3 293 292 291
3 295 294 293
3 297 296 295
3 299 298 297
3 301 300 299
3 303 302 301
3 305 304 303
3 307 306 305
3 309 308 307
3 311 310 309
3 313 312 311
3 315 314 313
3 317 316 315
3 319 318 317
3 321 320 319
3 285 283 321
3 289 287 285
3 293 291 289
3 297 295 293
3 301 299 297
3 305 303 301
3 309 307 305
3 313 311 309
3 317 315 313
3 321 319 317
3 289 285 321
3 297 293 289
3 305 301 297
3 313 309 305
3 321 317 313
3 297 289 321
3 313 305 297
3 297 321 313
3 361 322 323
3 323 324 325
3 325 326 327
3 327 328 329
3 329 330 331
3 331 332 333
3 333 334 335
3 335 336 337
3 337 338 339
3 339 340 341
3 341 342 343
3 343 344 345
3 345 346 347
3 347 348 349
3 349 350 351
3 351 352 353
3 353 354 355
3 355 356 357
3 357 358 359
3 359 360 361
3 361 323 325
3 325 327 329
3 329 331 333
3 333 335 337
3 337 339 341
3 341 343 345
3 345 347 349
3 349 351 353
3 353 355 357
3 357 359 361
3 361 325 329
3 329 333 337
3 337 341 345
3 345 349 353
3 353 357 361
3 361 329 337
3 337 345 353
3 353 361 337
3 323 322 283
3 283 322 282
3 324 323 284
3 284 323 283
3 325 324 285
3 285 324 284
3 326 325 286
3 286 325 285
3 327 326 287
3 287 326 286
3 328 327 288
3 288 327 287
3 329 328 289
3 289 328 288
3 330 329 290
3 290 329 289
3 331 330 291
3 291 330 290
3 332 331 292
3 292 331 291
3 333 332 293
3 293 332 292
3 334 333 294
3 294 333 293
3 335 334 295
3 295 334 294
3 336 335 296
3 296 335 295
3 337 336 297
3 297 336 296
3 338 337 298
3 298 337 297
3 339 338 299
3 299 338 298
3 340 339 300
3 300 339 299
3 341 340 301
3 301 340 300
3 342 341 302
3 302 341 301
3 343 342 303
3 303 342 302
3 344 343 304
3 304 343 303
3 345 344 305
3 305 344 304
3 346 345 306
3 306 345 305
3 347 346 307
3 307 346 306
3 348 347 308
3 308 347 307
3 349 348 309
3 309 348 308
3 350 349 310
3 310 349 309
3 351 350 311
3 311 350 310
3 352 351 312
3 312 351 311
3 353 352 313
3 313 352 312
3 354 353 314
3 314 353 313
3 355 354 315
3 315 354 314
3 356 355 316
3 316 355 315
3 357 356 317
3 317 356 316
3 358 357 318
3 318 357 317
3 359 358 319
3 319 358 318
3 360 359 320
3 320 359 319
3 322 361 282
3 282 361 321
3 361 360 321
3 321 360 320
3 363 362 382
3 365 364 363
3 367 366 365
3 369 368 367
3 371 370 369
3 373 372 371
3 375 374 373
3 377 376 375
3 379 378 377
3 381 380 379
3 363 382 381
3 367 365 363
3 371 369 367
3 375 373 371
3 379 377 375
3 363 381 379
3 371 367 363
3 379 375 371
3 371 363 379
3 403 383 384
3 384 385 386
3 386 387 388
3 388 389 390
3 390 391 392
3 392 393 394
3 394 395 396
3 396 397 398
3 398 399 400
3 400 401 402
3 402 403 384
3 384 386 388
3 388 390 392
3 392 394 396
3 396 398 400
3 400 402 384
3 384 388 392
3 392 396 400
3 400 384 392
3 384 383 363
3 363 383 362
3 385 384 364
3 364 384 363
3 386 385 365
3 365 385 364
3 387 386 366
3 366 386 365
3 388 387 367
3 367 387 366
3 389 388 368
3 368 388 367
3 390 389 369
3 369 389 368
3 391 390 370
3 370 390 369
3 392 391 371
3 371 391 370
3 393 392 372
3 372 392 371
3 394 393 373
3 373 393 372
3 395 394 374
3 374 394 373
3 396 395 375
3 375 395 374
3 397 396 376
3 376 396 375
3 398 397 377
3 377 397 376
3 399 398 378
3 378 398 377
3 400 399 379
3 379 399 378
3 401 400 380
3 380 400 379
3 402 401 381
3 381 401 380
3 383 403 362
3 362 403 382
3 403 402 382
3 382 402 381
3 405 404 443
3 407 406 405
3 409 408 407
3 411 410 409
3 413 412 411
3 415 414 413
3 417 416 415
3 419 418 417
3 421 420 419
3 423 422 421
3 425 424 423
3 427 426 425
3 429 428 427
3 431 430 429
3 433 432 431
3 435 434 433
3 437 436 435
3 439 438 437
3 441 440 439
3 443 442 441
3 407 405 443
3 411 409 407
3 415 413 411
3 419 417 415
3 423 421 419
3 427 425 423
3 431 429 427
3 435 433 431
3 439 437 435
3 443 441 439
3 411 407 443
3 419 415 411
3 427 423 419
3 435 431 427
3 443 439 435
3 419 411 443
3 435 427 419
3 419 443 435
3 483 444 445
3 445 446 447
3 447 448 449
3 449 450 451
3 451 452 453
3 453 454 455
3 455 456 457
3 457 458 459
3 459 460 461
3 461 462 463
3 463 464 465
3 465 466 467
3 467 468 469
3 469 470 471
3 471 472 473
3 473 474 475
3 475 476 477
3 477 478 479
3 479 480 481
3 481 482 483
3 483 445 447
3 447 449 451
3 451 453 455
3 455 457 459
3 459 461 463
3 463 465 467
3 467 469 471
3 471 473 475
3 475 477 479
3 479 481 483
3 483 447 451
3 451 455 459
3 459 463 467
3 467 471 475
3 475 479 483
3 483 451 459
3 459 467 475
3 475 483 459
3 445 444 405
3 405 444 404
3 446 445 406
3 406 445 405
3 447 446 407
3 407 446 406
3 448 447 408
3 408 447 407
3 449 448 409
3 409 448 408
3 450 449 410
3 410 449 409
3 451 450 411
3 411 450 410
3 452 451 412
3 412 451 411
3 453 452 413
3 413 452 412
3 454 453 414
3 414 453 413
3 455 454 415
3 415 454 414
3 456 455 416
3 416 455 415
3 457 456 417
3 417 456 416
3 458 457 418
3 418 457 417
3 459 458 419
3 419 458 418
3 460 459 420
3 420 459 419
3 461 460 421
3 421 460 420
3 462 461 422
3 422 461 421
3 463 462 423
3 423 462 422
3 464 463 424
3 424 463 423
3 465 464 425
3 425 464 424
3 466 465 426
3 426 465 425
3 467 466 427
3 427 466 426
3 468 467 428
3 428 467 427
3 469 468 429
3 429 468 428
3 470 469 430
3 430 469 429
3 471 470 431
3 431 470 430
3 472 471 432
3 432 471 431
3 473 472 433
3 433 472 432
3 474 473 434
3 434 473 433
3 475 474 435
3 435 474 434
3 476 475 436
3 436 475 435
3 477 476 437
3 437 476 436
3 478 477 438
3 438 477 437
3 479 478 439
3 439 478 438
3 480 479 440
3 440 479 439
3 481 480 441
3 441 480 440
3 482 481 442
3 442 481 441
3 444 483 404
3 404 483 443
3 483 482 443
3 443 482 442
