ply
format ascii 1.0
comment https://github.com/mikedh/trimesh
element vertex 164
property float x
property float y
property float z
element face 316
property list uchar int vertex_indices
end_header
-0.06086951 0.00000000 0.00291298
-0.06091964 0.00000000 0.00397107
-0.06123767 0.00000000 0.00592304
-0.06184608 0.00000000 0.00765608
-0.06274486 0.00000000 0.00917018
-0.06330314 0.00000000 0.00984513
-0.06392178 0.00000000 0.01045440
-0.06530337 0.00000000 0.01142924
-0.06687739 0.00000000 0.01207913
-0.06864385 0.00000000 0.01240407
-0.06959923 0.00000000 0.01244469
-0.07068008 0.00000000 0.01240551
-0.07267584 0.00000000 0.01209209
-0.07445036 0.00000000 0.01146525
-0.07600364 0.00000000 0.01052498
-0.07669732 0.00000000 0.00993732
-0.07732805 0.00000000 0.00927850
-0.07837778 0.00000000 0.00776900
-0.07914521 0.00000000 0.00600370
-0.07963032 0.00000000 0.00398259
-0.07976701 0.00000000 0.00287611
-0.06086951 -0.00176991 0.00291298
-0.06091964 -0.00176991 0.00397107
-0.06123767 -0.00176991 0.00592304
-0.06184608 -0.00176991 0.00765608
-0.06274486 -0.00176991 0.00917018
-0.06330314 -0.00176991 0.00984513
-0.06392178 -0.00176991 0.01045440
-0.06530337 -0.00176991 0.01142924
-0.06687739 -0.00176991 0.01207913
-0.06864385 -0.00176991 0.01240407
-0.06959923 -0.00176991 0.01244469
-0.07068008 -0.00176991 0.01240551
-0.07267584 -0.00176991 0.01209209
-0.07445036 -0.00176991 0.01146525
-0.07600364 -0.00176991 0.01052498
-0.07669732 -0.00176991 0.00993732
-0.07732805 -0.00176991 0.00927850
-0.07837778 -0.00176991 0.00776900
-0.07914521 -0.00176991 0.00600370
-0.07963032 -0.00176991 0.00398259
-0.07976701 -0.00176991 0.00287611
-0.04370045 0.00000000 0.00000000
-0.04366286 0.00000000 -0.00142178
-0.04336211 0.00000000 -0.00402940
-0.04276062 0.00000000 -0.00632245
-0.04185838 0.00000000 -0.00830093
-0.04129448 0.00000000 -0.00917220
-0.04066490 0.00000000 -0.00995215
-0.03923722 0.00000000 -0.01120008
-0.03758484 0.00000000 -0.01203203
-0.03570776 0.00000000 -0.01244800
-0.03468496 0.00000000 -0.01250000
-0.03366202 0.00000000 -0.01244800
-0.03178380 0.00000000 -0.01203203
-0.03012911 0.00000000 -0.01120008
-0.02869797 0.00000000 -0.00995215
-0.02806623 0.00000000 -0.00917220
-0.02749801 0.00000000 -0.00830093
-0.02658886 0.00000000 -0.00632245
-0.02598276 0.00000000 -0.00402940
-0.02567971 0.00000000 -0.00142178
-0.02564182 0.00000000 0.00000000
-0.02567971 0.00000000 0.00142178
-0.02598276 0.00000000 0.00402940
-0.02658886 0.00000000 0.00632245
-0.02749801 0.00000000 0.00830093
-0.02806623 0.00000000 0.00917220
-0.02869797 0.00000000 0.00995215
-0.03012911 0.00000000 0.01120008
-0.03178380 0.00000000 0.01203203
-0.03366202 0.00000000 0.01244800
-0.03468496 0.00000000 0.01250000
-0.03570776 0.00000000 0.01244800
-0.03758484 0.00000000 0.01203203
-0.03923722 0.00000000 0.01120008
-0.04066490 0.00000000 0.00995215
-0.04129448 0.00000000 0.00917220
-0.04185838 0.00000000 0.00830093
-0.04276062 0.00000000 0.00632245
-0.04336211 0.00000000 0.00402940
-0.04366286 0.00000000 0.00142178
-0.04370045 -0.00176991 0.00000000
-0.04366286 -0.00176991 -0.00142178
-0.04336211 -0.00176991 -0.00402940
-0.04276062 -0.00176991 -0.00632245
-0.04185838 -0.00176991 -0.00830093
-0.04129448 -0.00176991 -0.00917220
-0.04066490 -0.00176991 -0.00995215
-0.03923722 -0.00176991 -0.01120008
-0.03758484 -0.00176991 -0.01203203
-0.03570776 -0.00176991 -0.01244800
-0.03468496 -0.00176991 -0.01250000
-0.03366202 -0.00176991 -0.01244800
-0.03178380 -0.00176991 -0.01203203
-0.03012911 -0.00176991 -0.01120008
-0.02869797 -0.00176991 -0.00995215
-0.02806623 -0.00176991 -0.00917220
-0.02749801 -0.00176991 -0.00830093
-0.02658886 -0.00176991 -0.00632245
-0.02598276 -0.00176991 -0.00402940
-0.02567971 -0.00176991 -0.00142178
-0.02564182 -0.00176991 0.00000000
-0.02567971 -0.00176991 0.00142178
-0.02598276 -0.00176991 0.00402940
-0.02658886 -0.00176991 0.00632245
-0.02749801 -0.00176991 0.00830093
-0.02806623 -0.00176991 0.00917220
-0.02869797 -0.00176991 0.00995215
-0.03012911 -0.00176991 0.01120008
-0.03178380 -0.00176991 0.01203203
-0.03366202 -0.00176991 0.01244800
-0.03468496 -0.00176991 0.01250000
-0.03570776 -0.00176991 0.01244800
-0.03758484 -0.00176991 0.01203203
-0.03923722 -0.00176991 0.01120008
-0.04066490 -0.00176991 0.00995215
-0.04129448 -0.00176991 0.00917220
-0.04185838 -0.00176991 0.00830093
-0.04276062 -0.00176991 0.00632245
-0.04336211 -0.00176991 0.00402940
-0.04366286 -0.00176991 0.00142178
0.07976701 0.00000000 0.00291298
0.07971688 0.00000000 0.00397107
0.07939886 0.00000000 0.00592304
0.07879045 0.00000000 0.00765608
0.07789166 0.00000000 0.00917018
0.07733338 0.00000000 0.00984513
0.07671475 0.00000000 0.01045440
0.07533316 0.00000000 0.01142924
0.07375913 0.00000000 0.01207913
0.07199268 0.00000000 0.01240407
0.07103729 0.00000000 0.01244469
0.06995644 0.00000000 0.01240551
0.06796069 0.00000000 0.01209209
0.06618616 0.00000000 0.01146525
0.06463289 0.00000000 0.01052498
0.06393921 0.00000000 0.00993732
0.06330847 0.00000000 0.00927850
0.06225874 0.00000000 0.00776900
0.06149132 0.00000000 0.00600370
0.06100620 0.00000000 0.00398259
0.06086951 0.00000000 0.00287611
0.07976701 -0.00176991 0.00291298
0.07971688 -0.00176991 0.00397107
0.07939886 -0.00176991 0.00592304
0.07879045 -0.00176991 0.00765608
0.07789166 -0.00176991 0.00917018
0.07733338 -0.00176991 0.00984513
0.07671475 -0.00176991 0.01045440
0.07533316 -0.00176991 0.01142924
0.07375913 -0.00176991 0.01207913
0.07199268 -0.00176991 0.01240407
0.07103729 -0.00176991 0.01244469
0.06995644 -0.00176991 0.01240551
0.06796069 -0.00176991 0.01209209
0.06618616 -0.00176991 0.01146525
0.06463289 -0.00176991 0.01052498
0.06393921 -0.00176991 0.00993732
0.06330847 -0.00176991 0.00927850
0.06225874 -0.00176991 0.00776900
0.06149132 -0.00176991 0.00600370
0.06100620 -0.00176991 0.00398259
0.06086951 -0.00176991 0.00287611
3 1 0 20
3 3 2 1
3 5 4 3
3 7 6 5
3 9 8 7
3 11 10 9
3 13 12 11
3 15 14 13
3 17 16 15
3 19 18 17
3 1 20 19
3 5 3 1
3 9 7 5
3 13 11 9
3 17 15 13
3 1 19 17
3 9 5 1
3 17 13 9
3 9 1 17
3 41 21 22
3 22 23 24
3 24 25 26
3 26 27 28
3 28 29 30
3 30 31 32
3 32 33 34
3 34 35 36
3 36 37 38
3 38 39 40
3 40 41 22
3 22 24 26
3 26 28 30
3 30 32 34
3 34 36 38
3 38 40 22
3 22 26 30
3 30 34 38
3 38 22 30
3 22 21 1
3 1 21 0
3 23 22 2
3 2 22 1
3 24 23 3
3 3 23 2
3 25 24 4
3 4 24 3
3 26 25 5
3 5 25 4
3 27 26 6
3 6 26 5
3 28 27 7
3 7 27 6
3 29 28 8
3 8 28 7
3 30 29 9
3 9 29 8
3 31 30 10
3 10 30 9
3 32 31 11
3 11 31 10
3 33 32 12
3 12 32 11
3 34 33 13
3 13 33 12
3 35 34 14
3 14 34 13
3 36 35 15
3 15 35 14
3 37 36 16
3 16 36 15
3 38 37 17
3 17 37 16
3 39 38 18
3 18 38 17
3 40 39 19
3 19 39 18
3 21 41 0
3 0 41 20
3 41 40 20
3 20 40 19
3 43 42 81
3 45 44 43
3 47 46 45
3 49 48 47
3 51 50 49
3 53 52 51
3 55 54 53
3 57 56 55
3 59 58 57
3 61 60 59
3 63 62 61
3 65 64 63
3 67 66 65
3 69 68 67
3 71 70 69
3 73 72 71
3 75 74 73
3 77 76 75
3 79 78 77
3 81 80 79
3 45 43 81
3 49 47 45
3 53 51 49
3 57 55 53
3 61 59 57
3 65 63 61
3 69 67 65
3 73 71 69
3 77 75 73
3 81 79 77
3 49 45 81
3 57 53 49
3 65 61 57
3 73 69 65
3 81 77 73
3 57 49 81
3 73 65 57
3 57 81 73
3 121 82 83
3 83 84 85
3 85 86 87
3 87 88 89
3 89 90 91
3 91 92 93
3 93 94 95
3 95 96 97
3 97 98 99
3 99 100 101
3 101 102 103
3 103 104 105
3 105 106 107
3 107 108 109
3 109 110 111
3 111 112 113
3 113 114 115
3 115 116 117
3 117 118 119
3 119 120 121
3 121 83 85
3 85 87 89
3 89 91 93
3 93 95 97
3 97 99 101
3 101 103 105
3 105 107 109
3 109 111 113
3 113 115 117
3 117 119 121
3 121 85 89
3 89 93 97
3 97 101 105
3 105 109 113
3 113 117 121
3 121 89 97
3 97 105 113
3 113 121 97
3 83 82 43
3 43 82 42
3 84 83 44
3 44 83 43
3 85 84 45
3 45 84 44
3 86 85 46
3 46 85 45
3 87 86 47
3 47 86 46
3 88 87 48
3 48 87 47
3 89 88 49
3 49 88 48
3 90 89 50
3 50 89 49
3 91 90 51
3 51 90 50
3 92 91 52
3 52 91 51
3 93 92 53
3 53 92 52
3 94 93 54
3 54 93 53
3 95 94 55
3 55 94 54
3 96 95 56
3 56 95 55
3 97 96 57
3 57 96 56
3 98 97 58
3 58 97 57
3 99 98 59
3 59 98 58
3 100 99 60
3 60 99 59
3 101 100 61
3 61 100 60
3 102 101 62
3 62 101 61
3 103 102 63
3 63 102 62
3 104 103 64
3 64 103 63
3 105 104 65
3 65 104 64
3 106 105 66
3 66 105 65
3 107 106 67
3 67 106 66
3 108 107 68
3 68 107 67
3 109 108 69
3 69 108 68
3 110 109 70
3 70 109 69
3 111 110 71
3 71 110 70
3 112 111 72
3 72 111 71
3 113 112 73
3 73 112 72
3 114 113 74
3 74 113 73
3 115 114 75
3 75 114 74
3 116 115 76
3 76 115 75
3 117 116 77
3 77 116 76
3 118 117 78
3 78 117 77
3 119 118 79
3 79 118 78
3 120 119 80
3 80 119 79
3 82 121 42
3 42 121 81
3 121 120 81
3 81 120 80
3 123 122 142
3 125 124 123
3 127 126 125
3 129 128 127
3 131 130 129
3 133 132 131
3 135 134 133
3 137 136 135
3 139 138 137
3 141 140 139
3 123 142 141
3 127 125 123
3 131 129 127
3 135 133 131
3 139 137 135
3 123 141 139
3 131 127 123
3 139 135 131
3 131 123 139
3 163 143 144
3 144 145 146
3 146 147 148
3 148 149 150
3 150 151 152
3 152 153 154
3 154 155 156
3 156 157 158
3 158 159 160
3 160 161 162
3 162 163 144
3 144 146 148
3 148 150 152
3 152 154 156
3 156 158 160
3 160 162 144
3 144 148 152
3 152 156 160
3 160 144 152
3 144 143 123
3 123 143 122
3 145 144 124
3 124 144 123
3 146 145 125
3 125 145 124
3 147 146 126
3 126 146 125
3 148 147 127
3 127 147 126
3 149 148 128
3 128 148 127
3 150 149 129
3 129 149 128
3 151 150 130
3 130 150 129
3 152 151 131
3 131 151 130
3 153 152 132
3 132 152 131
3 154 153 133
3 133 153 132
3 155 154 134
3 134 154 133
3 156 155 135
3 135 155 134
3 157 156 136
3 136 156 135
3 158 157 137
3 137 157 136
3 159 158 138
3 138 158 137
3 160 159 139
3 139 159 138
3 161 160 140
3 140 160 139
3 162 161 141
3 141 161 140
3 143 163 122
3 122 163 142
3 163 162 142
3 142 162 141
