ply
format ascii 1.0
comment https://github.com/mikedh/trimesh
element vertex 336
property float x
property float y
property float z
element face 652
property list uchar int vertex_indices
end_header
-0.08775994 0.00000000 -0.00363760
-0.08984436 0.00000000 -0.00370198
-0.09232111 0.00000000 -0.00403997
-0.09353905 0.00000000 -0.00442624
-0.09401804 0.00000000 -0.00466766
-0.09442648 0.00000000 -0.00494805
-0.09507999 0.00000000 -0.00564610
-0.09551566 0.00000000 -0.00652715
-0.09573349 0.00000000 -0.00759122
-0.09576072 0.00000000 -0.00819189
-0.09567893 0.00000000 -0.00913206
-0.09502462 0.00000000 -0.01070630
-0.09445209 0.00000000 -0.01134037
-0.09373947 0.00000000 -0.01184771
-0.09196440 0.00000000 -0.01242752
-0.09090195 0.00000000 -0.01250000
-0.09014540 0.00000000 -0.01246568
-0.08874770 0.00000000 -0.01219116
-0.08750384 0.00000000 -0.01164212
-0.08641386 0.00000000 -0.01081856
-0.08592657 0.00000000 -0.01030384
-0.08548776 0.00000000 -0.00973222
-0.08478567 0.00000000 -0.00845355
-0.08431760 0.00000000 -0.00699430
-0.08408357 0.00000000 -0.00535447
-0.08405432 0.00000000 -0.00446683
-0.08405432 0.00000000 -0.00363760
-0.08775994 -0.00124385 -0.00363760
-0.08984436 -0.00124385 -0.00370198
-0.09232111 -0.00124385 -0.00403997
-0.09353905 -0.00124385 -0.00442624
-0.09401804 -0.00124385 -0.00466766
-0.09442648 -0.00124385 -0.00494805
-0.09507999 -0.00124385 -0.00564610
-0.09551566 -0.00124385 -0.00652715
-0.09573349 -0.00124385 -0.00759122
-0.09576072 -0.00124385 -0.00819189
-0.09567893 -0.00124385 -0.00913206
-0.09502462 -0.00124385 -0.01070630
-0.09445209 -0.00124385 -0.01134037
-0.09373947 -0.00124385 -0.01184771
-0.09196440 -0.00124385 -0.01242752
-0.09090195 -0.00124385 -0.01250000
-0.09014540 -0.00124385 -0.01246568
-0.08874770 -0.00124385 -0.01219116
-0.08750384 -0.00124385 -0.01164212
-0.08641386 -0.00124385 -0.01081856
-0.08592657 -0.00124385 -0.01030384
-0.08548776 -0.00124385 -0.00973222
-0.08478567 -0.00124385 -0.00845355
-0.08431760 -0.00124385 -0.00699430
-0.08408357 -0.00124385 -0.00535447
-0.08405432 -0.00124385 -0.00446683
-0.08405432 -0.00124385 -0.00363760
-0.00313715 0.00000000 -0.00166818
-0.00317237 0.00000000 -0.00092458
-0.00339588 0.00000000 0.00044721
-0.00382345 0.00000000 0.00166514
-0.00445509 0.00000000 0.00272921
-0.00484743 0.00000000 0.00320355
-0.00528219 0.00000000 0.00363173
-0.00625314 0.00000000 0.00431682
-0.00735932 0.00000000 0.00477354
-0.00860073 0.00000000 0.00500190
-0.00927216 0.00000000 0.00503045
-0.01003174 0.00000000 0.00500292
-0.01143431 0.00000000 0.00478265
-0.01268139 0.00000000 0.00434212
-0.01377300 0.00000000 0.00368133
-0.01426050 0.00000000 0.00326833
-0.01470376 0.00000000 0.00280533
-0.01544148 0.00000000 0.00174450
-0.01598080 0.00000000 0.00050390
-0.01632173 0.00000000 -0.00091649
-0.01641779 0.00000000 -0.00169409
-0.00313715 -0.00124385 -0.00166818
-0.00317237 -0.00124385 -0.00092458
-0.00339588 -0.00124385 0.00044721
-0.00382345 -0.00124385 0.00166514
-0.00445509 -0.00124385 0.00272921
-0.00484743 -0.00124385 0.00320355
-0.00528219 -0.00124385 0.00363173
-0.00625314 -0.00124385 0.00431682
-0.00735932 -0.00124385 0.00477354
-0.00860073 -0.00124385 0.00500190
-0.00927216 -0.00124385 0.00503045
-0.01003174 -0.00124385 0.00500292
-0.01143431 -0.00124385 0.00478265
-0.01268139 -0.00124385 0.00434212
-0.01377300 -0.00124385 0.00368133
-0.01426050 -0.00124385 0.00326833
-0.01470376 -0.00124385 0.00280533
-0.01544148 -0.00124385 0.00174450
-0.01598080 -0.00124385 0.00050390
-0.01632173 -0.00124385 -0.00091649
-0.01641779 -0.00124385 -0.00169409
0.02161991 0.00000000 -0.00343029
0.02159380 0.00000000 -0.00244659
0.02138487 0.00000000 -0.00065047
0.02096702 0.00000000 0.00091730
0.02034024 0.00000000 0.00225670
0.01994850 0.00000000 0.00284076
0.01951111 0.00000000 0.00336308
0.01850939 0.00000000 0.00419879
0.01733842 0.00000000 0.00475593
0.01599821 0.00000000 0.00503450
0.01526464 0.00000000 0.00506932
0.01453704 0.00000000 0.00503450
0.01320574 0.00000000 0.00475593
0.01203963 0.00000000 0.00419879
0.01103872 0.00000000 0.00336308
0.01060022 0.00000000 0.00284076
0.01020848 0.00000000 0.00225670
0.00958170 0.00000000 0.00091730
0.00916385 0.00000000 -0.00065047
0.00895492 0.00000000 -0.00244659
0.00892880 0.00000000 -0.00343029
0.00895492 0.00000000 -0.00440954
0.00916385 0.00000000 -0.00619919
0.00958170 0.00000000 -0.00776371
0.01020848 0.00000000 -0.00910311
0.01060022 0.00000000 -0.00968839
0.01103872 0.00000000 -0.01021071
0.01203963 0.00000000 -0.01104642
0.01320574 0.00000000 -0.01160356
0.01453704 0.00000000 -0.01188213
0.01526464 0.00000000 -0.01191695
0.01599821 0.00000000 -0.01188213
0.01733842 0.00000000 -0.01160356
0.01850939 0.00000000 -0.01104642
0.01951111 0.00000000 -0.01021071
0.01994850 0.00000000 -0.00968839
0.02034024 0.00000000 -0.00910311
0.02096702 0.00000000 -0.00776371
0.02138487 0.00000000 -0.00619919
0.02159380 0.00000000 -0.00440954
0.02161991 -0.00124385 -0.00343029
0.02159380 -0.00124385 -0.00244659
0.02138487 -0.00124385 -0.00065047
0.02096702 -0.00124385 0.00091730
0.02034024 -0.00124385 0.00225670
0.01994850 -0.00124385 0.00284076
0.01951111 -0.00124385 0.00336308
0.01850939 -0.00124385 0.00419879
0.01733842 -0.00124385 0.00475593
0.01599821 -0.00124385 0.00503450
0.01526464 -0.00124385 0.00506932
0.01453704 -0.00124385 0.00503450
0.01320574 -0.00124385 0.00475593
0.01203963 -0.00124385 0.00419879
0.01103872 -0.00124385 0.00336308
0.01060022 -0.00124385 0.00284076
0.01020848 -0.00124385 0.00225670
0.00958170 -0.00124385 0.00091730
0.00916385 -0.00124385 -0.00065047
0.00895492 -0.00124385 -0.00244659
0.00892880 -0.00124385 -0.00343029
0.00895492 -0.00124385 -0.00440954
0.00916385 -0.00124385 -0.00619919
0.00958170 -0.00124385 -0.00776371
0.01020848 -0.00124385 -0.00910311
0.01060022 -0.00124385 -0.00968839
0.01103872 -0.00124385 -0.01021071
0.01203963 -0.00124385 -0.01104642
0.01320574 -0.00124385 -0.01160356
0.01453704 -0.00124385 -0.01188213
0.01526464 -0.00124385 -0.01191695
0.01599821 -0.00124385 -0.01188213
0.01733842 -0.00124385 -0.01160356
0.01850939 -0.00124385 -0.01104642
0.01951111 -0.00124385 -0.01021071
0.01994850 -0.00124385 -0.00968839
0.02034024 -0.00124385 -0.00910311
0.02096702 -0.00124385 -0.00776371
0.02138487 -0.00124385 -0.00619919
0.02159380 -0.00124385 -0.00440954
0.06301989 0.00000000 0.01250000
0.06225554 0.00000000 0.01245141
0.06087322 0.00000000 0.01206271
0.05968606 0.00000000 0.01128531
0.05869406 0.00000000 0.01011920
0.05827125 0.00000000 0.00939039
0.05789925 0.00000000 0.00856561
0.05730405 0.00000000 0.00662210
0.05690725 0.00000000 0.00428665
0.05670885 0.00000000 0.00155926
0.05668405 0.00000000 0.00004859
0.05670885 0.00000000 -0.00145611
0.05690725 0.00000000 -0.00417460
0.05730405 0.00000000 -0.00650519
0.05789925 0.00000000 -0.00844789
0.05827125 0.00000000 -0.00927378
0.05869406 0.00000000 -0.01000259
0.05968606 0.00000000 -0.01116870
0.06087322 0.00000000 -0.01194610
0.06225554 0.00000000 -0.01233480
0.06301989 0.00000000 -0.01238339
0.06379021 0.00000000 -0.01233480
0.06518143 0.00000000 -0.01194610
0.06637345 0.00000000 -0.01116870
0.06736626 0.00000000 -0.01000259
0.06778796 0.00000000 -0.00927378
0.06816148 0.00000000 -0.00844789
0.06875911 0.00000000 -0.00650519
0.06915753 0.00000000 -0.00417460
0.06935674 0.00000000 -0.00145611
0.06938164 0.00000000 0.00004859
0.06935674 0.00000000 0.00155926
0.06915753 0.00000000 0.00428665
0.06875911 0.00000000 0.00662210
0.06816148 0.00000000 0.00856561
0.06778796 0.00000000 0.00939039
0.06736626 0.00000000 0.01011920
0.06637345 0.00000000 0.01128531
0.06518143 0.00000000 0.01206271
0.06379021 0.00000000 0.01245141
0.06301989 -0.00124385 0.01250000
0.06225554 -0.00124385 0.01245141
0.06087322 -0.00124385 0.01206271
0.05968606 -0.00124385 0.01128531
0.05869406 -0.00124385 0.01011920
0.05827125 -0.00124385 0.00939039
0.05789925 -0.00124385 0.00856561
0.05730405 -0.00124385 0.00662210
0.05690725 -0.00124385 0.00428665
0.05670885 -0.00124385 0.00155926
0.05668405 -0.00124385 0.00004859
0.05670885 -0.00124385 -0.00145611
0.05690725 -0.00124385 -0.00417460
0.05730405 -0.00124385 -0.00650519
0.05789925 -0.00124385 -0.00844789
0.05827125 -0.00124385 -0.00927378
0.05869406 -0.00124385 -0.01000259
0.05968606 -0.00124385 -0.01116870
0.06087322 -0.00124385 -0.01194610
0.06225554 -0.00124385 -0.01233480
0.06301989 -0.00124385 -0.01238339
0.06379021 -0.00124385 -0.01233480
0.06518143 -0.00124385 -0.01194610
0.06637345 -0.00124385 -0.01116870
0.06736626 -0.00124385 -0.01000259
0.06778796 -0.00124385 -0.00927378
0.06816148 -0.00124385 -0.00844789
0.06875911 -0.00124385 -0.00650519
0.06915753 -0.00124385 -0.00417460
0.06935674 -0.00124385 -0.00145611
0.06938164 -0.00124385 0.00004859
0.06935674 -0.00124385 0.00155926
0.06915753 -0.00124385 0.00428665
0.06875911 -0.00124385 0.00662210
0.06816148 -0.00124385 0.00856561
0.06778796 -0.00124385 0.00939039
0.06736626 -0.00124385 0.01011920
0.06637345 -0.00124385 0.01128531
0.06518143 -0.00124385 0.01206271
0.06379021 -0.00124385 0.01245141
0.08939897 0.00000000 0.01250000
0.08863463 0.00000000 0.01245141
0.08725230 0.00000000 0.01206271
0.08606514 0.00000000 0.01128531
0.08507314 0.00000000 0.01011920
0.08465033 0.00000000 0.00939039
0.08427833 0.00000000 0.00856561
0.08368313 0.00000000 0.00662210
0.08328633 0.00000000 0.00428665
0.08308793 0.00000000 0.00155926
0.08306313 0.00000000 0.00004859
0.08308793 0.00000000 -0.00145611
0.08328633 0.00000000 -0.00417460
0.08368313 0.00000000 -0.00650519
0.08427833 0.00000000 -0.00844789
0.08465033 0.00000000 -0.00927378
0.08507314 0.00000000 -0.01000259
0.08606514 0.00000000 -0.01116870
0.08725230 0.00000000 -0.01194610
0.08863463 0.00000000 -0.01233480
0.08939897 0.00000000 -0.01238339
0.09016929 0.00000000 -0.01233480
0.09156051 0.00000000 -0.01194610
0.09275253 0.00000000 -0.01116870
0.09374534 0.00000000 -0.01000259
0.09416705 0.00000000 -0.00927378
0.09454057 0.00000000 -0.00844789
0.09513819 0.00000000 -0.00650519
0.09553661 0.00000000 -0.00417460
0.09573582 0.00000000 -0.00145611
0.09576072 0.00000000 0.00004859
0.09573582 0.00000000 0.00155926
0.09553661 0.00000000 0.00428665
0.09513819 0.00000000 0.00662210
0.09454057 0.00000000 0.00856561
0.09416705 0.00000000 0.00939039
0.09374534 0.00000000 0.01011920
0.09275253 0.00000000 0.01128531
0.09156051 0.00000000 0.01206271
0.09016929 0.00000000 0.01245141
0.08939897 -0.00124385 0.01250000
0.08863463 -0.00124385 0.01245141
0.08725230 -0.00124385 0.01206271
0.08606514 -0.00124385 0.01128531
0.08507314 -0.00124385 0.01011920
0.08465033 -0.00124385 0.00939039
0.08427833 -0.00124385 0.00856561
0.08368313 -0.00124385 0.00662210
0.08328633 -0.00124385 0.00428665
0.08308793 -0.00124385 0.00155926
0.08306313 -0.00124385 0.00004859
0.08308793 -0.00124385 -0.00145611
0.08328633 -0.00124385 -0.00417460
0.08368313 -0.00124385 -0.00650519
0.08427833 -0.00124385 -0.00844789
0.08465033 -0.00124385 -0.00927378
0.08507314 -0.00124385 -0.01000259
0.08606514 -0.00124385 -0.01116870
0.08725230 -0.00124385 -0.01194610
0.08863463 -0.00124385 -0.01233480
0.08939897 -0.00124385 -0.01238339
0.09016929 -0.00124385 -0.01233480
0.09156051 -0.00124385 -0.01194610
0.09275253 -0.00124385 -0.01116870
0.09374534 -0.00124385 -0.01000259
0.09416705 -0.00124385 -0.00927378
0.09454057 -0.00124385 -0.00844789
0.09513819 -0.00124385 -0.00650519
0.09553661 -0.00124385 -0.00417460
0.09573582 -0.00124385 -0.00145611
0.09576072 -0.00124385 0.00004859
0.09573582 -0.00124385 0.00155926
0.09553661 -0.00124385 0.00428665
0.09513819 -0.00124385 0.00662210
0.09454057 -0.00124385 0.00856561
0.09416705 -0.00124385 0.00939039
0.09374534 -0.00124385 0.01011920
0.09275253 -0.00124385 0.01128531
0.09156051 -0.00124385 0.01206271
0.09016929 -0.00124385 0.01245141
3 1 0 26
3 3 2 1
3 5 4 3
3 7 6 5
3 9 8 7
3 11 10 9
3 13 12 11
3 15 14 13
3 17 16 15
3 19 18 17
3 21 20 19
3 23 22 21
3 25 24 23
3 1 26 25
3 5 3 1
3 9 7 5
3 13 11 9
3 17 15 13
3 21 19 17
3 25 23 21
3 5 1 25
3 13 9 5
3 21 17 13
3 5 25 21
3 21 13 5
3 53 27 28
3 28 29 30
3 30 31 32
3 32 33 34
3 34 35 36
3 36 37 38
3 38 39 40
3 40 41 42
3 42 43 44
3 44 45 46
3 46 47 48
3 48 49 50
3 50 51 52
3 52 53 28
3 28 30 32
3 32 34 36
3 36 38 40
3 40 42 44
3 44 46 48
3 48 50 52
3 52 28 32
3 32 36 40
3 40 44 48
3 48 52 32
3 32 40 48
3 28 27 1
3 1 27 0
3 29 28 2
3 2 28 1
3 30 29 3
3 3 29 2
3 31 30 4
3 4 30 3
3 32 31 5
3 5 31 4
3 33 32 6
3 6 32 5
3 34 33 7
3 7 33 6
3 35 34 8
3 8 34 7
3 36 35 9
3 9 35 8
3 37 36 10
3 10 36 9
3 38 37 11
3 11 37 10
3 39 38 12
3 12 38 11
3 40 39 13
3 13 39 12
3 41 40 14
3 14 40 13
3 42 41 15
3 15 41 14
3 43 42 16
3 16 42 15
3 44 43 17
3 17 43 16
3 45 44 18
3 18 44 17
3 46 45 19
3 19 45 18
3 47 46 20
3 20 46 19
3 48 47 21
3 21 47 20
3 49 48 22
3 22 48 21
3 50 49 23
3 23 49 22
3 51 50 24
3 24 50 23
3 52 51 25
3 25 51 24
3 27 53 0
3 0 53 26
3 53 52 26
3 26 52 25
3 55 54 74
3 57 56 55
3 59 58 57
3 61 60 59
3 63 62 61
3 65 64 63
3 67 66 65
3 69 68 67
3 71 70 69
3 73 72 71
3 55 74 73
3 59 57 55
3 63 61 59
3 67 65 63
3 71 69 67
3 55 73 71
3 63 59 55
3 71 67 63
3 63 55 71
3 95 75 76
3 76 77 78
3 78 79 80
3 80 81 82
3 82 83 84
3 84 85 86
3 86 87 88
3 88 89 90
3 90 91 92
3 92 93 94
3 94 95 76
3 76 78 80
3 80 82 84
3 84 86 88
3 88 90 92
3 92 94 76
3 76 80 84
3 84 88 92
3 92 76 84
3 76 75 55
3 55 75 54
3 77 76 56
3 56 76 55
3 78 77 57
3 57 77 56
3 79 78 58
3 58 78 57
3 80 79 59
3 59 79 58
3 81 80 60
3 60 80 59
3 82 81 61
3 61 81 60
3 83 82 62
3 62 82 61
3 84 83 63
3 63 83 62
3 85 84 64
3 64 84 63
3 86 85 65
3 65 85 64
3 87 86 66
3 66 86 65
3 88 87 67
3 67 87 66
3 89 88 68
3 68 88 67
3 90 89 69
3 69 89 68
3 91 90 70
3 70 90 69
3 92 91 71
3 71 91 70
3 93 92 72
3 72 92 71
3 94 93 73
3 73 93 72
3 75 95 54
3 54 95 74
3 95 94 74
3 74 94 73
3 97 96 135
3 99 98 97
3 101 100 99
3 103 102 101
3 105 104 103
3 107 106 105
3 109 108 107
3 111 110 109
3 113 112 111
3 115 114 113
3 117 116 115
3 119 118 117
3 121 120 119
3 123 122 121
3 125 124 123
3 127 126 125
3 129 128 127
3 131 130 129
3 133 132 131
3 135 134 133
3 99 97 135
3 103 101 99
3 107 105 103
3 111 109 107
3 115 113 111
3 119 117 115
3 123 121 119
3 127 125 123
3 131 129 127
3 135 133 131
3 103 99 135
3 111 107 103
3 119 115 111
3 127 123 119
3 135 131 127
3 111 103 135
3 127 119 111
3 111 135 127
3 175 136 137
3 137 138 139
3 139 140 141
3 141 142 143
3 143 144 145
3 145 146 147
3 147 148 149
3 149 150 151
3 151 152 153
3 153 154 155
3 155 156 157
3 157 158 159
3 159 160 161
3 161 162 163
3 163 164 165
3 165 166 167
3 167 168 169
3 169 170 171
3 171 172 173
3 173 174 175
3 175 137 139
3 139 141 143
3 143 145 147
3 147 149 151
3 151 153 155
3 155 157 159
3 159 161 163
3 163 165 167
3 167 169 171
3 171 173 175
3 175 139 143
3 143 147 151
3 151 155 159
3 159 163 167
3 167 171 175
3 175 143 151
3 151 159 167
3 167 175 151
3 137 136 97
3 97 136 96
3 138 137 98
3 98 137 97
3 139 138 99
3 99 138 98
3 140 139 100
3 100 139 99
3 141 140 101
3 101 140 100
3 142 141 102
3 102 141 101
3 143 142 103
3 103 142 102
3 144 143 104
3 104 143 103
3 145 144 105
3 105 144 104
3 146 145 106
3 106 145 105
3 147 146 107
3 107 146 106
3 148 147 108
3 108 147 107
3 149 148 109
3 109 148 108
3 150 149 110
3 110 149 109
3 151 150 111
3 111 150 110
3 152 151 112
3 112 151 111
3 153 152 113
3 113 152 112
3 154 153 114
3 114 153 113
3 155 154 115
3 115 154 114
3 156 155 116
3 116 155 115
3 157 156 117
3 117 156 116
3 158 157 118
3 118 157 117
3 159 158 119
3 119 158 118
3 160 159 120
3 120 159 119
3 161 160 121
3 121 160 120
3 162 161 122
3 122 161 121
3 163 162 123
3 123 162 122
3 164 163 124
3 124 163 123
3 165 164 125
3 125 164 124
3 166 165 126
3 126 165 125
3 167 166 127
3 127 166 126
3 168 167 128
3 128 167 127
3 169 168 129
3 129 168 128
3 170 169 130
3 130 169 129
3 171 170 131
3 131 170 130
3 172 171 132
3 132 171 131
3 173 172 133
3 133 172 132
3 174 173 134
3 134 173 133
3 136 175 96
3 96 175 135
3 175 174 135
3 135 174 134
3 177 176 215
3 179 178 177
3 181 180 179
3 183 182 181
3 185 184 183
3 187 186 185
3 189 188 187
3 191 190 189
3 193 192 191
3 195 194 193
3 197 196 195
3 199 198 197
3 201 200 199
3 203 202 201
3 205 204 203
3 207 206 205
3 209 208 207
3 211 210 209
3 213 212 211
3 215 214 213
3 179 177 215
3 183 181 179
3 187 185 183
3 191 189 187
3 195 193 191
3 199 197 195
3 203 201 199
3 207 205 203
3 211 209 207
3 215 213 211
3 183 179 215
3 191 187 183
3 199 195 191
3 207 203 199
3 215 211 207
3 191 183 215
3 207 199 191
3 191 215 207
3 255 216 217
3 217 218 219
3 219 220 221
3 221 222 223
3 223 224 225
3 225 226 227
3 227 228 229
3 229 230 231
3 231 232 233
3 233 234 235
3 235 236 237
3 237 238 239
3 239 240 241
3 241 242 243
3 243 244 245
3 245 246 247
3 247 248 249
3 249 250 251
3 251 252 253
3 253 254 255
3 255 217 219
3 219 221 223
3 223 225 227
3 227 229 231
3 231 233 235
3 235 237 239
3 239 241 243
3 243 245 247
3 247 249 251
3 251 253 255
3 255 219 223
3 223 227 231
3 231 235 239
3 239 243 247
3 247 251 255
3 255 223 231
3 231 239 247
3 247 255 231
3 217 216 177
3 177 216 176
3 218 217 178
3 178 217 177
3 219 218 179
3 179 218 178
3 220 219 180
3 180 219 179
3 221 220 181
3 181 220 180
3 222 221 182
3 182 221 181
3 223 222 183
3 183 222 182
3 224 223 184
3 184 223 183
3 225 224 185
3 185 224 184
3 226 225 186
3 186 225 185
3 227 226 187
3 187 226 186
3 228 227 188
3 188 227 187
3 229 228 189
3 189 228 188
3 230 229 190
3 190 229 189
3 231 230 191
3 191 230 190
3 232 231 192
3 192 231 191
3 233 232 193
3 193 232 192
3 234 233 194
3 194 233 193
3 235 234 195
3 195 234 194
3 236 235 196
3 196 235 195
3 237 236 197
3 197 236 196
3 238 237 198
3 198 237 197
3 239 238 199
3 199 238 198
3 240 239 200
3 200 239 199
3 241 240 201
3 201 240 200
3 242 241 202
3 202 241 201
3 243 242 203
3 203 242 202
3 244 243 204
3 204 243 203
3 245 244 205
3 205 244 204
3 246 245 206
3 206 245 205
3 247 246 207
3 207 246 206
3 248 247 208
3 208 247 207
3 249 248 209
3 209 248 208
3 250 249 210
3 210 249 209
3 251 250 211
3 211 250 210
3 252 251 212
3 212 251 211
3 253 252 213
3 213 252 212
3 254 253 214
3 214 253 213
3 216 255 176
3 176 255 215
3 255 254 215
3 215 254 214
3 257 256 295
3 259 258 257
3 261 260 259
3 263 262 261
3 265 264 263
3 267 266 265
3 269 268 267
3 271 270 269
3 273 272 271
3 275 274 273
3 277 276 275
3 279 278 277
3 281 280 279
3 283 282 281
3 285 284 283
3 287 286 285
3 289 288 287
3 291 290 289
3 293 292 291
3 295 294 293
3 259 257 295
3 263 261 259
3 267 265 263
3 271 269 267
3 275 273 271
3 279 277 275
3 283 281 279
3 287 285 283
3 291 289 287
3 295 293 291
3 263 259 295
3 271 267 263
3 279 275 271
3 287 283 279
3 295 291 287
3 271 263 295
3 287 279 271
3 271 295 287
3 335 296 297
3 297 298 299
3 299 300 301
3 301 302 303
3 303 304 305
3 305 306 307
3 307 308 309
3 309 310 311
3 311 312 313
3 313 314 315
3 315 316 317
3 317 318 319
3 319 320 321
3 321 322 323
3 323 324 325
3 325 326 327
3 327 328 329
3 329 330 331
3 331 332 333
3 333 334 335
3 335 297 299
3 299 301 303
3 303 305 307
3 307 309 311
3 311 313 315
3 315 317 319
3 319 321 323
3 323 325 327
3 327 329 331
3 331 333 335
3 335 299 303
3 303 307 311
3 311 315 319
3 319 323 327
3 327 331 335
3 335 303 311
3 311 319 327
3 327 335 311
3 297 296 257
3 257 296 256
3 298 297 258
3 258 297 257
3 299 298 259
3 259 298 258
3 300 299 260
3 260 299 259
3 301 300 261
3 261 300 260
3 302 301 262
3 262 301 261
3 303 302 263
3 263 302 262
3 304 303 264
3 264 303 263
3 305 304 265
3 265 304 264
3 306 305 266
3 266 305 265
3 307 306 267
3 267 306 266
3 308 307 268
3 268 307 267
3 309 308 269
3 269 308 268
3 310 309 270
3 270 309 269
3 311 310 271
3 271 310 270
3 312 311 272
3 272 311 271
3 313 312 273
3 273 312 272
3 314 313 274
3 274 313 273
3 315 314 275
3 275 314 274
3 316 315 276
3 276 315 275
3 317 316 277
3 277 316 276
3 318 317 278
3 278 317 277
3 319 318 279
3 279 318 278
3 320 319 280
3 280 319 279
3 321 320 281
3 281 320 280
3 322 321 282
3 282 321 281
3 323 322 283
3 283 322 282
3 324 323 284
3 284 323 283
3 325 324 285
3 285 324 284
3 326 325 286
3 286 325 285
3 327 326 287
3 287 326 286
3 328 327 288
3 288 327 287
3 329 328 289
3 289 328 288
3 330 329 290
3 290 329 289
3 331 330 291
3 291 330 290
3 332 331 292
3 292 331 291
3 333 332 293
3 293 332 292
3 334 333 294
3 294 333 293
3 296 335 256
3 256 335 295
3 335 334 295
3 295 334 294
