ply
format ascii 1.0
comment https://github.com/mikedh/trimesh
element vertex 282
property float x
property float y
property float z
element face 548
property list uchar int vertex_indices
end_header
-0.10840247 0.00000000 0.00000000
-0.10836488 0.00000000 -0.00142178
-0.10806413 0.00000000 -0.00402940
-0.10746264 0.00000000 -0.00632245
-0.10656039 0.00000000 -0.00830093
-0.10599650 0.00000000 -0.00917220
-0.10536692 0.00000000 -0.00995215
-0.10393924 0.00000000 -0.01120008
-0.10228685 0.00000000 -0.01203203
-0.10040978 0.00000000 -0.01244800
-0.09938698 0.00000000 -0.01250000
-0.09836404 0.00000000 -0.01244800
-0.09648582 0.00000000 -0.01203203
-0.09483113 0.00000000 -0.01120008
-0.09339999 0.00000000 -0.00995215
-0.09276825 0.00000000 -0.00917220
-0.09220003 0.00000000 -0.00830093
-0.09129088 0.00000000 -0.00632245
-0.09068477 0.00000000 -0.00402940
-0.09038173 0.00000000 -0.00142178
-0.09034384 0.00000000 0.00000000
-0.09038173 0.00000000 0.00142178
-0.09068477 0.00000000 0.00402940
-0.09129088 0.00000000 0.00632245
-0.09220003 0.00000000 0.00830093
-0.09276825 0.00000000 0.00917220
-0.09339999 0.00000000 0.00995215
-0.09483113 0.00000000 0.01120008
-0.09648582 0.00000000 0.01203203
-0.09836404 0.00000000 0.01244800
-0.09938698 0.00000000 0.01250000
-0.10040978 0.00000000 0.01244800
-0.10228685 0.00000000 0.01203203
-0.10393924 0.00000000 0.01120008
-0.10536692 0.00000000 0.00995215
-0.10599650 0.00000000 0.00917220
-0.10656039 0.00000000 0.00830093
-0.10746264 0.00000000 0.00632245
-0.10806413 0.00000000 0.00402940
-0.10836488 0.00000000 0.00142178
-0.10840247 -0.00176991 0.00000000
-0.10836488 -0.00176991 -0.00142178
-0.10806413 -0.00176991 -0.00402940
-0.10746264 -0.00176991 -0.00632245
-0.10656039 -0.00176991 -0.00830093
-0.10599650 -0.00176991 -0.00917220
-0.10536692 -0.00176991 -0.00995215
-0.10393924 -0.00176991 -0.01120008
-0.10228685 -0.00176991 -0.01203203
-0.10040978 -0.00176991 -0.01244800
-0.09938698 -0.00176991 -0.01250000
-0.09836404 -0.00176991 -0.01244800
-0.09648582 -0.00176991 -0.01203203
-0.09483113 -0.00176991 -0.01120008
-0.09339999 -0.00176991 -0.00995215
-0.09276825 -0.00176991 -0.00917220
-0.09220003 -0.00176991 -0.00830093
-0.09129088 -0.00176991 -0.00632245
-0.09068477 -0.00176991 -0.00402940
-0.09038173 -0.00176991 -0.00142178
-0.09034384 -0.00176991 0.00000000
-0.09038173 -0.00176991 0.00142178
-0.09068477 -0.00176991 0.00402940
-0.09129088 -0.00176991 0.00632245
-0.09220003 -0.00176991 0.00830093
-0.09276825 -0.00176991 0.00917220
-0.09339999 -0.00176991 0.00995215
-0.09483113 -0.00176991 0.01120008
-0.09648582 -0.00176991 0.01203203
-0.09836404 -0.00176991 0.01244800
-0.09938698 -0.00176991 0.01250000
-0.10040978 -0.00176991 0.01244800
-0.10228685 -0.00176991 0.01203203
-0.10393924 -0.00176991 0.01120008
-0.10536692 -0.00176991 0.00995215
-0.10599650 -0.00176991 0.00917220
-0.10656039 -0.00176991 0.00830093
-0.10746264 -0.00176991 0.00632245
-0.10806413 -0.00176991 0.00402940
-0.10836488 -0.00176991 0.00142178
-0.05182522 0.00000000 0.00291298
-0.05187535 0.00000000 0.00397107
-0.05219338 0.00000000 0.00592304
-0.05280178 0.00000000 0.00765608
-0.05370057 0.00000000 0.00917018
-0.05425885 0.00000000 0.00984513
-0.05487748 0.00000000 0.01045440
-0.05625907 0.00000000 0.01142924
-0.05783310 0.00000000 0.01207913
-0.05959955 0.00000000 0.01240407
-0.06055494 0.00000000 0.01244469
-0.06163578 0.00000000 0.01240551
-0.06363154 0.00000000 0.01209209
-0.06540607 0.00000000 0.01146525
-0.06695934 0.00000000 0.01052498
-0.06765302 0.00000000 0.00993732
-0.06828376 0.00000000 0.00927850
-0.06933349 0.00000000 0.00776900
-0.07010091 0.00000000 0.00600370
-0.07058603 0.00000000 0.00398259
-0.07072271 0.00000000 0.00287611
-0.05182522 -0.00176991 0.00291298
-0.05187535 -0.00176991 0.00397107
-0.05219338 -0.00176991 0.00592304
-0.05280178 -0.00176991 0.00765608
-0.05370057 -0.00176991 0.00917018
-0.05425885 -0.00176991 0.00984513
-0.05487748 -0.00176991 0.01045440
-0.05625907 -0.00176991 0.01142924
-0.05783310 -0.00176991 0.01207913
-0.05959955 -0.00176991 0.01240407
-0.06055494 -0.00176991 0.01244469
-0.06163578 -0.00176991 0.01240551
-0.06363154 -0.00176991 0.01209209
-0.06540607 -0.00176991 0.01146525
-0.06695934 -0.00176991 0.01052498
-0.06765302 -0.00176991 0.00993732
-0.06828376 -0.00176991 0.00927850
-0.06933349 -0.00176991 0.00776900
-0.07010091 -0.00176991 0.00600370
-0.07058603 -0.00176991 0.00398259
-0.07072271 -0.00176991 0.00287611
0.03214302 0.00000000 0.01244469
0.03110611 0.00000000 0.01239269
0.02919907 0.00000000 0.01197672
0.02751443 0.00000000 0.01114477
0.02605218 0.00000000 0.00989684
0.02540445 0.00000000 0.00911689
0.02482327 0.00000000 0.00824648
0.02389337 0.00000000 0.00627492
0.02327344 0.00000000 0.00399570
0.02296348 0.00000000 0.00140881
0.02292473 0.00000000 0.00000000
0.02296319 0.00000000 -0.00140881
0.02327085 0.00000000 -0.00399570
0.02388617 0.00000000 -0.00627492
0.02480915 0.00000000 -0.00824648
0.02538601 0.00000000 -0.00911689
0.02603202 0.00000000 -0.00989684
0.02749427 0.00000000 -0.01114477
0.02918352 0.00000000 -0.01197672
0.03109977 0.00000000 -0.01239269
0.03214302 0.00000000 -0.01244469
0.03317547 0.00000000 -0.01239255
0.03507444 0.00000000 -0.01197542
0.03675217 0.00000000 -0.01114117
0.03820866 0.00000000 -0.00988978
0.03885394 0.00000000 -0.00910767
0.03943512 0.00000000 -0.00823337
0.04036501 0.00000000 -0.00625835
0.04098495 0.00000000 -0.00398144
0.04129491 0.00000000 -0.00140262
0.04133366 0.00000000 0.00000000
0.04129491 0.00000000 0.00139628
0.04098495 0.00000000 0.00396588
0.04036501 0.00000000 0.00623819
0.03943512 0.00000000 0.00821321
0.03885394 0.00000000 0.00908923
0.03820866 0.00000000 0.00987567
0.03675217 0.00000000 0.01113397
0.03507444 0.00000000 0.01197283
0.03317547 0.00000000 0.01239226
0.03214302 -0.00176991 0.01244469
0.03110611 -0.00176991 0.01239269
0.02919907 -0.00176991 0.01197672
0.02751443 -0.00176991 0.01114477
0.02605218 -0.00176991 0.00989684
0.02540445 -0.00176991 0.00911689
0.02482327 -0.00176991 0.00824648
0.02389337 -0.00176991 0.00627492
0.02327344 -0.00176991 0.00399570
0.02296348 -0.00176991 0.00140881
0.02292473 -0.00176991 0.00000000
0.02296319 -0.00176991 -0.00140881
0.02327085 -0.00176991 -0.00399570
0.02388617 -0.00176991 -0.00627492
0.02480915 -0.00176991 -0.00824648
0.02538601 -0.00176991 -0.00911689
0.02603202 -0.00176991 -0.00989684
0.02749427 -0.00176991 -0.01114477
0.02918352 -0.00176991 -0.01197672
0.03109977 -0.00176991 -0.01239269
0.03214302 -0.00176991 -0.01244469
0.03317547 -0.00176991 -0.01239255
0.03507444 -0.00176991 -0.01197542
0.03675217 -0.00176991 -0.01114117
0.03820866 -0.00176991 -0.00988978
0.03885394 -0.00176991 -0.00910767
0.03943512 -0.00176991 -0.00823337
0.04036501 -0.00176991 -0.00625835
0.04098495 -0.00176991 -0.00398144
0.04129491 -0.00176991 -0.00140262
0.04133366 -0.00176991 0.00000000
0.04129491 -0.00176991 0.00139628
0.04098495 -0.00176991 0.00396588
0.04036501 -0.00176991 0.00623819
0.03943512 -0.00176991 0.00821321
0.03885394 -0.00176991 0.00908923
0.03820866 -0.00176991 0.00987567
0.03675217 -0.00176991 0.01113397
0.03507444 -0.00176991 0.01197283
0.03317547 -0.00176991 0.01239226
0.10840247 0.00000000 0.00000000
0.10836488 0.00000000 0.00142178
0.10806413 0.00000000 0.00402940
0.10746264 0.00000000 0.00632245
0.10656039 0.00000000 0.00830093
0.10599650 0.00000000 0.00917220
0.10536692 0.00000000 0.00995215
0.10393924 0.00000000 0.01120008
0.10228685 0.00000000 0.01203203
0.10040978 0.00000000 0.01244800
0.09938698 0.00000000 0.01250000
0.09836203 0.00000000 0.01244800
0.09648149 0.00000000 0.01203203
0.09482681 0.00000000 0.01120008
0.09339797 0.00000000 0.00995215
0.09276825 0.00000000 0.00917220
0.09220435 0.00000000 0.00830093
0.09130211 0.00000000 0.00632245
0.09070062 0.00000000 0.00402940
0.09039987 0.00000000 0.00142178
0.09036228 0.00000000 0.00000000
0.09039987 0.00000000 -0.00142178
0.09070062 0.00000000 -0.00402940
0.09130211 0.00000000 -0.00632245
0.09220435 0.00000000 -0.00830093
0.09276825 0.00000000 -0.00917220
0.09339797 0.00000000 -0.00995215
0.09482681 0.00000000 -0.01120008
0.09648149 0.00000000 -0.01203203
0.09836203 0.00000000 -0.01244800
0.09938698 0.00000000 -0.01250000
0.10040978 0.00000000 -0.01244800
0.10228685 0.00000000 -0.01203203
0.10393924 0.00000000 -0.01120008
0.10536692 0.00000000 -0.00995215
0.10599650 0.00000000 -0.00917220
0.10656039 0.00000000 -0.00830093
0.10746264 0.00000000 -0.00632245
0.10806413 0.00000000 -0.00402940
0.10836488 0.00000000 -0.00142178
0.10840247 -0.00176991 0.00000000
0.10836488 -0.00176991 0.00142178
0.10806413 -0.00176991 0.00402940
0.10746264 -0.00176991 0.00632245
0.10656039 -0.00176991 0.00830093
0.10599650 -0.00176991 0.00917220
0.10536692 -0.00176991 0.00995215
0.10393924 -0.00176991 0.01120008
0.10228685 -0.00176991 0.01203203
0.10040978 -0.00176991 0.01244800
0.09938698 -0.00176991 0.01250000
0.09836203 -0.00176991 0.01244800
0.09648149 -0.00176991 0.01203203
0.09482681 -0.00176991 0.01120008
0.09339797 -0.00176991 0.00995215
0.09276825 -0.00176991 0.00917220
0.09220435 -0.00176991 0.00830093
0.09130211 -0.00176991 0.00632245
0.09070062 -0.00176991 0.00402940
0.09039987 -0.00176991 0.00142178
0.09036228 -0.00176991 0.00000000
0.09039987 -0.00176991 -0.00142178
0.09070062 -0.00176991 -0.00402940
0.09130211 -0.00176991 -0.00632245
0.09220435 -0.00176991 -0.00830093
0.09276825 -0.00176991 -0.00917220
0.09339797 -0.00176991 -0.00995215
0.09482681 -0.00176991 -0.01120008
0.09648149 -0.00176991 -0.01203203
0.09836203 -0.00176991 -0.01244800
0.09938698 -0.00176991 -0.01250000
0.10040978 -0.00176991 -0.01244800
0.10228685 -0.00176991 -0.01203203
0.10393924 -0.00176991 -0.01120008
0.10536692 -0.00176991 -0.00995215
0.10599650 -0.00176991 -0.00917220
0.10656039 -0.00176991 -0.00830093
0.10746264 -0.00176991 -0.00632245
0.10806413 -0.00176991 -0.00402940
0.10836488 -0.00176991 -0.00142178
3 1 0 39
3 3 2 1
3 5 4 3
3 7 6 5
3 9 8 7
3 11 10 9
3 13 12 11
3 15 14 13
3 17 16 15
3 19 18 17
3 21 20 19
3 23 22 21
3 25 24 23
3 27 26 25
3 29 28 27
3 31 30 29
3 33 32 31
3 35 34 33
3 37 36 35
3 39 38 37
3 3 1 39
3 7 5 3
3 11 9 7
3 15 13 11
3 19 17 15
3 23 21 19
3 27 25 23
3 31 29 27
3 35 33 31
3 39 37 35
3 7 3 39
3 15 11 7
3 23 19 15
3 31 27 23
3 39 35 31
3 15 7 39
3 31 23 15
3 15 39 31
3 79 40 41
3 41 42 43
3 43 44 45
3 45 46 47
3 47 48 49
3 49 50 51
3 51 52 53
3 53 54 55
3 55 56 57
3 57 58 59
3 59 60 61
3 61 62 63
3 63 64 65
3 65 66 67
3 67 68 69
3 69 70 71
3 71 72 73
3 73 74 75
3 75 76 77
3 77 78 79
3 79 41 43
3 43 45 47
3 47 49 51
3 51 53 55
3 55 57 59
3 59 61 63
3 63 65 67
3 67 69 71
3 71 73 75
3 75 77 79
3 79 43 47
3 47 51 55
3 55 59 63
3 63 67 71
3 71 75 79
3 79 47 55
3 55 63 71
3 71 79 55
3 41 40 1
3 1 40 0
3 42 41 2
3 2 41 1
3 43 42 3
3 3 42 2
3 44 43 4
3 4 43 3
3 45 44 5
3 5 44 4
3 46 45 6
3 6 45 5
3 47 46 7
3 7 46 6
3 48 47 8
3 8 47 7
3 49 48 9
3 9 48 8
3 50 49 10
3 10 49 9
3 51 50 11
3 11 50 10
3 52 51 12
3 12 51 11
3 53 52 13
3 13 52 12
3 54 53 14
3 14 53 13
3 55 54 15
3 15 54 14
3 56 55 16
3 16 55 15
3 57 56 17
3 17 56 16
3 58 57 18
3 18 57 17
3 59 58 19
3 19 58 18
3 60 59 20
3 20 59 19
3 61 60 21
3 21 60 20
3 62 61 22
3 22 61 21
3 63 62 23
3 23 62 22
3 64 63 24
3 24 63 23
3 65 64 25
3 25 64 24
3 66 65 26
3 26 65 25
3 67 66 27
3 27 66 26
3 68 67 28
3 28 67 27
3 69 68 29
3 29 68 28
3 70 69 30
3 30 69 29
3 71 70 31
3 31 70 30
3 72 71 32
3 32 71 31
3 73 72 33
3 33 72 32
3 74 73 34
3 34 73 33
3 75 74 35
3 35 74 34
3 76 75 36
3 36 75 35
3 77 76 37
3 37 76 36
3 78 77 38
3 38 77 37
3 40 79 0
3 0 79 39
3 79 78 39
3 39 78 38
3 81 80 100
3 83 82 81
3 85 84 83
3 87 86 85
3 89 88 87
3 91 90 89
3 93 92 91
3 95 94 93
3 97 96 95
3 99 98 97
3 81 100 99
3 85 83 81
3 89 87 85
3 93 91 89
3 97 95 93
3 81 99 97
3 89 85 81
3 97 93 89
3 89 81 97
3 121 101 102
3 102 103 104
3 104 105 106
3 106 107 108
3 108 109 110
3 110 111 112
3 112 113 114
3 114 115 116
3 116 117 118
3 118 119 120
3 120 121 102
3 102 104 106
3 106 108 110
3 110 112 114
3 114 116 118
3 118 120 102
3 102 106 110
3 110 114 118
3 118 102 110
3 102 101 81
3 81 101 80
3 103 102 82
3 82 102 81
3 104 103 83
3 83 103 82
3 105 104 84
3 84 104 83
3 106 105 85
3 85 105 84
3 107 106 86
3 86 106 85
3 108 107 87
3 87 107 86
3 109 108 88
3 88 108 87
3 110 109 89
3 89 109 88
3 111 110 90
3 90 110 89
3 112 111 91
3 91 111 90
3 113 112 92
3 92 112 91
3 114 113 93
3 93 113 92
3 115 114 94
3 94 114 93
3 116 115 95
3 95 115 94
3 117 116 96
3 96 116 95
3 118 117 97
3 97 117 96
3 119 118 98
3 98 118 97
3 120 119 99
3 99 119 98
3 101 121 80
3 80 121 100
3 121 120 100
3 100 120 99
3 123 122 161
3 125 124 123
3 127 126 125
3 129 128 127
3 131 130 129
3 133 132 131
3 135 134 133
3 137 136 135
3 139 138 137
3 141 140 139
3 143 142 141
3 145 144 143
3 147 146 145
3 149 148 147
3 151 150 149
3 153 152 151
3 155 154 153
3 157 156 155
3 159 158 157
3 161 160 159
3 125 123 161
3 129 127 125
3 133 131 129
3 137 135 133
3 141 139 137
3 145 143 141
3 149 147 145
3 153 151 149
3 157 155 153
3 161 159 157
3 129 125 161
3 137 133 129
3 145 141 137
3 153 149 145
3 161 157 153
3 137 129 161
3 153 145 137
3 137 161 153
3 201 162 163
3 163 164 165
3 165 166 167
3 167 168 169
3 169 170 171
3 171 172 173
3 173 174 175
3 175 176 177
3 177 178 179
3 179 180 181
3 181 182 183
3 183 184 185
3 185 186 187
3 187 188 189
3 189 190 191
3 191 192 193
3 193 194 195
3 195 196 197
3 197 198 199
3 199 200 201
3 201 163 165
3 165 167 169
3 169 171 173
3 173 175 177
3 177 179 181
3 181 183 185
3 185 187 189
3 189 191 193
3 193 195 197
3 197 199 201
3 201 165 169
3 169 173 177
3 177 181 185
3 185 189 193
3 193 197 201
3 201 169 177
3 177 185 193
3 193 201 177
3 163 162 123
3 123 162 122
3 164 163 124
3 124 163 123
3 165 164 125
3 125 164 124
3 166 165 126
3 126 165 125
3 167 166 127
3 127 166 126
3 168 167 128
3 128 167 127
3 169 168 129
3 129 168 128
3 170 169 130
3 130 169 129
3 171 170 131
3 131 170 130
3 172 171 132
3 132 171 131
3 173 172 133
3 133 172 132
3 174 173 134
3 134 173 133
3 175 174 135
3 135 174 134
3 176 175 136
3 136 175 135
3 177 176 137
3 137 176 136
3 178 177 138
3 138 177 137
3 179 178 139
3 139 178 138
3 180 179 140
3 140 179 139
3 181 180 141
3 141 180 140
3 182 181 142
3 142 181 141
3 183 182 143
3 143 182 142
3 184 183 144
3 144 183 143
3 185 184 145
3 145 184 144
3 186 185 146
3 146 185 145
3 187 186 147
3 147 186 146
3 188 187 148
3 148 187 147
3 189 188 149
3 149 188 148
3 190 189 150
3 150 189 149
3 191 190 151
3 151 190 150
3 192 191 152
3 152 191 151
3 193 192 153
3 153 192 152
3 194 193 154
3 154 193 153
3 195 194 155
3 155 194 154
3 196 195 156
3 156 195 155
3 197 196 157
3 157 196 156
3 198 197 158
3 158 197 157
3 199 198 159
3 159 198 158
3 200 199 160
3 160 199 159
3 162 201 122
3 122 201 161
3 201 200 161
3 161 200 160
3 203 202 241
3 205 204 203
3 207 206 205
3 209 208 207
3 211 210 209
3 213 212 211
3 215 214 213
3 217 216 215
3 219 218 217
3 221 220 219
3 223 222 221
3 225 224 223
3 227 226 225
3 229 228 227
3 231 230 229
3 233 232 231
3 235 234 233
3 237 236 235
3 239 238 237
3 241 240 239
3 205 203 241
3 209 207 205
3 213 211 209
3 217 215 213
3 221 219 217
3 225 223 221
3 229 227 225
3 233 231 229
3 237 235 233
3 241 239 237
3 209 205 241
3 217 213 209
3 225 221 217
3 233 229 225
3 241 237 233
3 217 209 241
3 233 225 217
3 217 241 233
3 281 242 243
3 243 244 245
3 245 246 247
3 247 248 249
3 249 250 251
3 251 252 253
3 253 254 255
3 255 256 257
3 257 258 259
3 259 260 261
3 261 262 263
3 263 264 265
3 265 266 267
3 267 268 269
3 269 270 271
3 271 272 273
3 273 274 275
3 275 276 277
3 277 278 279
3 279 280 281
3 281 243 245
3 245 247 249
3 249 251 253
3 253 255 257
3 257 259 261
3 261 263 265
3 265 267 269
3 269 271 273
3 273 275 277
3 277 279 281
3 281 245 249
3 249 253 257
3 257 261 265
3 265 269 273
3 273 277 281
3 281 249 257
3 257 265 273
3 273 281 257
3 243 242 203
3 203 242 202
3 244 243 204
3 204 243 203
3 245 244 205
3 205 244 204
3 246 245 206
3 206 245 205
3 247 246 207
3 207 246 206
3 248 247 208
3 208 247 207
3 249 248 209
3 209 248 208
3 250 249 210
3 210 249 209
3 251 250 211
3 211 250 210
3 252 251 212
3 212 251 211
3 253 252 213
3 213 252 212
3 254 253 214
3 214 253 213
3 255 254 215
3 215 254 214
3 256 255 216
3 216 255 215
3 257 256 217
3 217 256 216
3 258 257 218
3 218 257 217
3 259 258 219
3 219 258 218
3 260 259 220
3 220 259 219
3 261 260 221
3 221 260 220
3 262 261 222
3 222 261 221
3 263 262 223
3 223 262 222
3 264 263 224
3 224 263 223
3 265 264 225
3 225 264 224
3 266 265 226
3 226 265 225
3 267 266 227
3 227 266 226
3 268 267 228
3 228 267 227
3 269 268 229
3 229 268 228
3 270 269 230
3 230 269 229
3 271 270 231
3 231 270 230
3 272 271 232
3 232 271 231
3 273 272 233
3 233 272 232
3 274 273 234
3 234 273 233
3 275 274 235
3 235 274 234
3 276 275 236
3 236 275 235
3 277 276 237
3 237 276 236
3 278 277 238
3 238 277 237
3 279 278 239
3 239 278 238
3 280 279 240
3 240 279 239
3 242 281 202
3 202 281 241
3 281 280 241
3 241 280 240
