ply
format ascii 1.0
comment https://github.com/mikedh/trimesh
element vertex 404
property float x
property float y
property float z
element face 784
property list uchar int vertex_indices
end_header
-0.58395118 0.00000000 0.00113569
-0.58405524 0.00000000 0.00505496
-0.58488762 0.00000000 0.01221112
-0.58655250 0.00000000 0.01845744
-0.58904970 0.00000000 0.02379390
-0.59061050 0.00000000 0.02612094
-0.59235317 0.00000000 0.02820197
-0.59634417 0.00000000 0.03153162
-0.60100955 0.00000000 0.03375138
-0.60634929 0.00000000 0.03486126
-0.60927200 0.00000000 0.03500000
-0.61217093 0.00000000 0.03486126
-0.61747509 0.00000000 0.03375138
-0.62212116 0.00000000 0.03153162
-0.62610894 0.00000000 0.02820197
-0.62785608 0.00000000 0.02612094
-0.62941682 0.00000000 0.02379390
-0.63191408 0.00000000 0.01845744
-0.63357890 0.00000000 0.01221112
-0.63441128 0.00000000 0.00505496
-0.63451535 0.00000000 0.00113569
-0.63441128 0.00000000 -0.00276583
-0.63357890 0.00000000 -0.00989618
-0.63191408 0.00000000 -0.01612959
-0.62941682 0.00000000 -0.02146605
-0.62785608 0.00000000 -0.02379793
-0.62610894 0.00000000 -0.02587896
-0.62212116 0.00000000 -0.02920861
-0.61747509 0.00000000 -0.03142837
-0.61217093 0.00000000 -0.03253826
-0.60927200 0.00000000 -0.03267699
-0.60634929 0.00000000 -0.03253826
-0.60100955 0.00000000 -0.03142837
-0.59634417 0.00000000 -0.02920861
-0.59235317 0.00000000 -0.02587896
-0.59061050 0.00000000 -0.02379793
-0.58904970 0.00000000 -0.02146605
-0.58655250 0.00000000 -0.01612959
-0.58488762 0.00000000 -0.00989618
-0.58405524 0.00000000 -0.00276583
-0.58395118 -0.00495575 0.00113569
-0.58405524 -0.00495575 0.00505496
-0.58488762 -0.00495575 0.01221112
-0.58655250 -0.00495575 0.01845744
-0.58904970 -0.00495575 0.02379390
-0.59061050 -0.00495575 0.02612094
-0.59235317 -0.00495575 0.02820197
-0.59634417 -0.00495575 0.03153162
-0.60100955 -0.00495575 0.03375138
-0.60634929 -0.00495575 0.03486126
-0.60927200 -0.00495575 0.03500000
-0.61217093 -0.00495575 0.03486126
-0.61747509 -0.00495575 0.03375138
-0.62212116 -0.00495575 0.03153162
-0.62610894 -0.00495575 0.02820197
-0.62785608 -0.00495575 0.02612094
-0.62941682 -0.00495575 0.02379390
-0.63191408 -0.00495575 0.01845744
-0.63357890 -0.00495575 0.01221112
-0.63441128 -0.00495575 0.00505496
-0.63451535 -0.00495575 0.00113569
-0.63441128 -0.00495575 -0.00276583
-0.63357890 -0.00495575 -0.00989618
-0.63191408 -0.00495575 -0.01612959
-0.62941682 -0.00495575 -0.02146605
-0.62785608 -0.00495575 -0.02379793
-0.62610894 -0.00495575 -0.02587896
-0.62212116 -0.00495575 -0.02920861
-0.61747509 -0.00495575 -0.03142837
-0.61217093 -0.00495575 -0.03253826
-0.60927200 -0.00495575 -0.03267699
-0.60634929 -0.00495575 -0.03253826
-0.60100955 -0.00495575 -0.03142837
-0.59634417 -0.00495575 -0.02920861
-0.59235317 -0.00495575 -0.02587896
-0.59061050 -0.00495575 -0.02379793
-0.58904970 -0.00495575 -0.02146605
-0.58655250 -0.00495575 -0.01612959
-0.58488762 -0.00495575 -0.00989618
-0.58405524 -0.00495575 -0.00276583
-0.47609904 0.00000000 0.00815634
-0.47623941 0.00000000 0.01111898
-0.47712988 0.00000000 0.01658451
-0.47883344 0.00000000 0.02143702
-0.48135000 0.00000000 0.02567651
-0.48291320 0.00000000 0.02756637
-0.48464540 0.00000000 0.02927233
-0.48851383 0.00000000 0.03200187
-0.49292111 0.00000000 0.03382156
-0.49786717 0.00000000 0.03473140
-0.50054228 0.00000000 0.03484513
-0.50356865 0.00000000 0.03473543
-0.50915676 0.00000000 0.03385785
-0.51412541 0.00000000 0.03210269
-0.51847458 0.00000000 0.02946995
-0.52041692 0.00000000 0.02782448
-0.52218294 0.00000000 0.02597979
-0.52512223 0.00000000 0.02175320
-0.52727097 0.00000000 0.01681036
-0.52862930 0.00000000 0.01115125
-0.52901202 0.00000000 0.00805310
-0.47609904 -0.00495575 0.00815634
-0.47623941 -0.00495575 0.01111898
-0.47712988 -0.00495575 0.01658451
-0.47883344 -0.00495575 0.02143702
-0.48135000 -0.00495575 0.02567651
-0.48291320 -0.00495575 0.02756637
-0.48464540 -0.00495575 0.02927233
-0.48851383 -0.00495575 0.03200187
-0.49292111 -0.00495575 0.03382156
-0.49786717 -0.00495575 0.03473140
-0.50054228 -0.00495575 0.03484513
-0.50356865 -0.00495575 0.03473543
-0.50915676 -0.00495575 0.03385785
-0.51412541 -0.00495575 0.03210269
-0.51847458 -0.00495575 0.02946995
-0.52041692 -0.00495575 0.02782448
-0.52218294 -0.00495575 0.02597979
-0.52512223 -0.00495575 0.02175320
-0.52727097 -0.00495575 0.01681036
-0.52862930 -0.00495575 0.01115125
-0.52901202 -0.00495575 0.00805310
-0.40190473 0.00000000 0.03484513
-0.40480807 0.00000000 0.03469954
-0.41014779 0.00000000 0.03353481
-0.41486478 0.00000000 0.03120535
-0.41895908 0.00000000 0.02771116
-0.42077273 0.00000000 0.02552729
-0.42240003 0.00000000 0.02309014
-0.42500374 0.00000000 0.01756977
-0.42673954 0.00000000 0.01118795
-0.42760745 0.00000000 0.00394468
-0.42771593 0.00000000 0.00000000
-0.42760825 0.00000000 -0.00394468
-0.42674682 0.00000000 -0.01118795
-0.42502391 0.00000000 -0.01756977
-0.42243958 0.00000000 -0.02309014
-0.42082435 0.00000000 -0.02552729
-0.41901556 0.00000000 -0.02771116
-0.41492125 0.00000000 -0.03120535
-0.41019133 0.00000000 -0.03353481
-0.40482584 0.00000000 -0.03469954
-0.40190473 0.00000000 -0.03484513
-0.39901388 0.00000000 -0.03469914
-0.39369676 0.00000000 -0.03353118
-0.38899913 0.00000000 -0.03119527
-0.38492095 0.00000000 -0.02769139
-0.38311416 0.00000000 -0.02550147
-0.38148686 0.00000000 -0.02305344
-0.37888315 0.00000000 -0.01752339
-0.37714735 0.00000000 -0.01114802
-0.37627944 0.00000000 -0.00392734
-0.37617096 0.00000000 0.00000000
-0.37627944 0.00000000 0.00390959
-0.37714735 0.00000000 0.01110447
-0.37888315 0.00000000 0.01746693
-0.38148686 0.00000000 0.02299698
-0.38311416 0.00000000 0.02544985
-0.38492095 0.00000000 0.02765187
-0.38899913 0.00000000 0.03117510
-0.39369676 0.00000000 0.03352392
-0.39901388 0.00000000 0.03469833
-0.40190473 -0.00495575 0.03484513
-0.40480807 -0.00495575 0.03469954
-0.41014779 -0.00495575 0.03353481
-0.41486478 -0.00495575 0.03120535
-0.41895908 -0.00495575 0.02771116
-0.42077273 -0.00495575 0.02552729
-0.42240003 -0.00495575 0.02309014
-0.42500374 -0.00495575 0.01756977
-0.42673954 -0.00495575 0.01118795
-0.42760745 -0.00495575 0.00394468
-0.42771593 -0.00495575 0.00000000
-0.42760825 -0.00495575 -0.00394468
-0.42674682 -0.00495575 -0.01118795
-0.42502391 -0.00495575 -0.01756977
-0.42243958 -0.00495575 -0.02309014
-0.42082435 -0.00495575 -0.02552729
-0.41901556 -0.00495575 -0.02771116
-0.41492125 -0.00495575 -0.03120535
-0.41019133 -0.00495575 -0.03353481
-0.40482584 -0.00495575 -0.03469954
-0.40190473 -0.00495575 -0.03484513
-0.39901388 -0.00495575 -0.03469914
-0.39369676 -0.00495575 -0.03353118
-0.38899913 -0.00495575 -0.03119527
-0.38492095 -0.00495575 -0.02769139
-0.38311416 -0.00495575 -0.02550147
-0.38148686 -0.00495575 -0.02305344
-0.37888315 -0.00495575 -0.01752339
-0.37714735 -0.00495575 -0.01114802
-0.37627944 -0.00495575 -0.00392734
-0.37617096 -0.00495575 0.00000000
-0.37627944 -0.00495575 0.00390959
-0.37714735 -0.00495575 0.01110447
-0.37888315 -0.00495575 0.01746693
-0.38148686 -0.00495575 0.02299698
-0.38311416 -0.00495575 0.02544985
-0.38492095 -0.00495575 0.02765187
-0.38899913 -0.00495575 0.03117510
-0.39369676 -0.00495575 0.03352392
-0.39901388 -0.00495575 0.03469833
-0.11248364 0.00000000 0.00815634
-0.11262399 0.00000000 0.01111898
-0.11351448 0.00000000 0.01658451
-0.11521801 0.00000000 0.02143702
-0.11773460 0.00000000 0.02567651
-0.11929779 0.00000000 0.02756637
-0.12102997 0.00000000 0.02927233
-0.12489843 0.00000000 0.03200187
-0.12930569 0.00000000 0.03382156
-0.13425176 0.00000000 0.03473140
-0.13692686 0.00000000 0.03484513
-0.13995321 0.00000000 0.03473543
-0.14554134 0.00000000 0.03385785
-0.15051000 0.00000000 0.03210269
-0.15485919 0.00000000 0.02946995
-0.15680148 0.00000000 0.02782448
-0.15856753 0.00000000 0.02597979
-0.16150679 0.00000000 0.02175320
-0.16365556 0.00000000 0.01681036
-0.16501388 0.00000000 0.01115125
-0.16539662 0.00000000 0.00805310
-0.11248364 -0.00495575 0.00815634
-0.11262399 -0.00495575 0.01111898
-0.11351448 -0.00495575 0.01658451
-0.11521801 -0.00495575 0.02143702
-0.11773460 -0.00495575 0.02567651
-0.11929779 -0.00495575 0.02756637
-0.12102997 -0.00495575 0.02927233
-0.12489843 -0.00495575 0.03200187
-0.12930569 -0.00495575 0.03382156
-0.13425176 -0.00495575 0.03473140
-0.13692686 -0.00495575 0.03484513
-0.13995321 -0.00495575 0.03473543
-0.14554134 -0.00495575 0.03385785
-0.15051000 -0.00495575 0.03210269
-0.15485919 -0.00495575 0.02946995
-0.15680148 -0.00495575 0.02782448
-0.15856753 -0.00495575 0.02597979
-0.16150679 -0.00495575 0.02175320
-0.16365556 -0.00495575 0.01681036
-0.16501388 -0.00495575 0.01115125
-0.16539662 -0.00495575 0.00805310
0.43566900 0.00000000 0.03484513
0.43276566 0.00000000 0.03469954
0.42742595 0.00000000 0.03353481
0.42270896 0.00000000 0.03120535
0.41861466 0.00000000 0.02771116
0.41680104 0.00000000 0.02552729
0.41517371 0.00000000 0.02309014
0.41257000 0.00000000 0.01756977
0.41083419 0.00000000 0.01118795
0.40996629 0.00000000 0.00394468
0.40985781 0.00000000 0.00000000
0.40996549 0.00000000 -0.00394468
0.41082695 0.00000000 -0.01118795
0.41254982 0.00000000 -0.01756977
0.41513419 0.00000000 -0.02309014
0.41674939 0.00000000 -0.02552729
0.41855821 0.00000000 -0.02771116
0.42265251 0.00000000 -0.03120535
0.42738241 0.00000000 -0.03353481
0.43274790 0.00000000 -0.03469954
0.43566900 0.00000000 -0.03484513
0.43855986 0.00000000 -0.03469914
0.44387698 0.00000000 -0.03353118
0.44857463 0.00000000 -0.03119527
0.45265278 0.00000000 -0.02769139
0.45445958 0.00000000 -0.02550147
0.45608690 0.00000000 -0.02305344
0.45869061 0.00000000 -0.01752339
0.46042639 0.00000000 -0.01114802
0.46129429 0.00000000 -0.00392734
0.46140280 0.00000000 0.00000000
0.46129429 0.00000000 0.00390959
0.46042639 0.00000000 0.01110447
0.45869061 0.00000000 0.01746693
0.45608690 0.00000000 0.02299698
0.45445958 0.00000000 0.02544985
0.45265278 0.00000000 0.02765187
0.44857463 0.00000000 0.03117510
0.44387698 0.00000000 0.03352392
0.43855986 0.00000000 0.03469833
0.43566900 -0.00495575 0.03484513
0.43276566 -0.00495575 0.03469954
0.42742595 -0.00495575 0.03353481
0.42270896 -0.00495575 0.03120535
0.41861466 -0.00495575 0.02771116
0.41680104 -0.00495575 0.02552729
0.41517371 -0.00495575 0.02309014
0.41257000 -0.00495575 0.01756977
0.41083419 -0.00495575 0.01118795
0.40996629 -0.00495575 0.00394468
0.40985781 -0.00495575 0.00000000
0.40996549 -0.00495575 -0.00394468
0.41082695 -0.00495575 -0.01118795
0.41254982 -0.00495575 -0.01756977
0.41513419 -0.00495575 -0.02309014
0.41674939 -0.00495575 -0.02552729
0.41855821 -0.00495575 -0.02771116
0.42265251 -0.00495575 -0.03120535
0.42738241 -0.00495575 -0.03353481
0.43274790 -0.00495575 -0.03469954
0.43566900 -0.00495575 -0.03484513
0.43855986 -0.00495575 -0.03469914
0.44387698 -0.00495575 -0.03353118
0.44857463 -0.00495575 -0.03119527
0.45265278 -0.00495575 -0.02769139
0.45445958 -0.00495575 -0.02550147
0.45608690 -0.00495575 -0.02305344
0.45869061 -0.00495575 -0.01752339
0.46042639 -0.00495575 -0.01114802
0.46129429 -0.00495575 -0.00392734
0.46140280 -0.00495575 0.00000000
0.46129429 -0.00495575 0.00390959
0.46042639 -0.00495575 0.01110447
0.45869061 -0.00495575 0.01746693
0.45608690 -0.00495575 0.02299698
0.45445958 -0.00495575 0.02544985
0.45265278 -0.00495575 0.02765187
0.44857463 -0.00495575 0.03117510
0.44387698 -0.00495575 0.03352392
0.43855986 -0.00495575 0.03469833
0.63451535 0.00000000 0.00000000
0.63441008 0.00000000 0.00398098
0.63356799 0.00000000 0.01128232
0.63188380 0.00000000 0.01770286
0.62935752 0.00000000 0.02324259
0.62777865 0.00000000 0.02568215
0.62601578 0.00000000 0.02786602
0.62201828 0.00000000 0.03136022
0.61739165 0.00000000 0.03368968
0.61213583 0.00000000 0.03485441
0.60927200 0.00000000 0.03500000
0.60640210 0.00000000 0.03485441
0.60113662 0.00000000 0.03368968
0.59650350 0.00000000 0.03136022
0.59250277 0.00000000 0.02786602
0.59073955 0.00000000 0.02568215
0.58916062 0.00000000 0.02324259
0.58663434 0.00000000 0.01770286
0.58495015 0.00000000 0.01128232
0.58410805 0.00000000 0.00398098
0.58400279 0.00000000 0.00000000
0.58410805 0.00000000 -0.00398098
0.58495015 0.00000000 -0.01128232
0.58663434 0.00000000 -0.01770286
0.58916062 0.00000000 -0.02324259
0.59073955 0.00000000 -0.02568215
0.59250277 0.00000000 -0.02786602
0.59650350 0.00000000 -0.03136022
0.60113662 0.00000000 -0.03368968
0.60640210 0.00000000 -0.03485441
0.60927200 0.00000000 -0.03500000
0.61213583 0.00000000 -0.03485441
0.61739165 0.00000000 -0.03368968
0.62201828 0.00000000 -0.03136022
0.62601578 0.00000000 -0.02786602
0.62777865 0.00000000 -0.02568215
0.62935752 0.00000000 -0.02324259
0.63188380 0.00000000 -0.01770286
0.63356799 0.00000000 -0.01128232
0.63441008 0.00000000 -0.00398098
0.63451535 -0.00495575 0.00000000
0.63441008 -0.00495575 0.00398098
0.63356799 -0.00495575 0.01128232
0.63188380 -0.00495575 0.01770286
0.62935752 -0.00495575 0.02324259
0.62777865 -0.00495575 0.02568215
0.62601578 -0.00495575 0.02786602
0.62201828 -0.00495575 0.03136022
0.61739165 -0.00495575 0.03368968
0.61213583 -0.00495575 0.03485441
0.60927200 -0.00495575 0.03500000
0.60640210 -0.00495575 0.03485441
0.60113662 -0.00495575 0.03368968
0.59650350 -0.00495575 0.03136022
0.59250277 -0.00495575 0.02786602
0.59073955 -0.00495575 0.02568215
0.58916062 -0.00495575 0.02324259
0.58663434 -0.00495575 0.01770286
0.58495015 -0.00495575 0.01128232
0.58410805 -0.00495575 0.00398098
0.58400279 -0.00495575 0.00000000
0.58410805 -0.00495575 -0.00398098
0.58495015 -0.00495575 -0.01128232
0.58663434 -0.00495575 -0.01770286
0.58916062 -0.00495575 -0.02324259
0.59073955 -0.00495575 -0.02568215
0.59250277 -0.00495575 -0.02786602
0.59650350 -0.00495575 -0.03136022
0.60113662 -0.00495575 -0.03368968
0.60640210 -0.00495575 -0.03485441
0.60927200 -0.00495575 -0.03500000
0.61213583 -0.00495575 -0.03485441
0.61739165 -0.00495575 -0.03368968
0.62201828 -0.00495575 -0.03136022
0.62601578 -0.00495575 -0.02786602
0.62777865 -0.00495575 -0.02568215
0.62935752 -0.00495575 -0.02324259
0.63188380 -0.00495575 -0.01770286
0.63356799 -0.00495575 -0.01128232
0.63441008 -0.00495575 -0.00398098
3 1 0 39
3 3 2 1
3 5 4 3
3 7 6 5
3 9 8 7
3 11 10 9
3 13 12 11
3 15 14 13
3 17 16 15
3 19 18 17
3 21 20 19
3 23 22 21
3 25 24 23
3 27 26 25
3 29 28 27
3 31 30 29
3 33 32 31
3 35 34 33
3 37 36 35
3 39 38 37
3 3 1 39
3 7 5 3
3 11 9 7
3 15 13 11
3 19 17 15
3 23 21 19
3 27 25 23
3 31 29 27
3 35 33 31
3 39 37 35
3 7 3 39
3 15 11 7
3 23 19 15
3 31 27 23
3 39 35 31
3 15 7 39
3 31 23 15
3 15 39 31
3 79 40 41
3 41 42 43
3 43 44 45
3 45 46 47
3 47 48 49
3 49 50 51
3 51 52 53
3 53 54 55
3 55 56 57
3 57 58 59
3 59 60 61
3 61 62 63
3 63 64 65
3 65 66 67
3 67 68 69
3 69 70 71
3 71 72 73
3 73 74 75
3 75 76 77
3 77 78 79
3 79 41 43
3 43 45 47
3 47 49 51
3 51 53 55
3 55 57 59
3 59 61 63
3 63 65 67
3 67 69 71
3 71 73 75
3 75 77 79
3 79 43 47
3 47 51 55
3 55 59 63
3 63 67 71
3 71 75 79
3 79 47 55
3 55 63 71
3 71 79 55
3 41 40 1
3 1 40 0
3 42 41 2
3 2 41 1
3 43 42 3
3 3 42 2
3 44 43 4
3 4 43 3
3 45 44 5
3 5 44 4
3 46 45 6
3 6 45 5
3 47 46 7
3 7 46 6
3 48 47 8
3 8 47 7
3 49 48 9
3 9 48 8
3 50 49 10
3 10 49 9
3 51 50 11
3 11 50 10
3 52 51 12
3 12 51 11
3 53 52 13
3 13 52 12
3 54 53 14
3 14 53 13
3 55 54 15
3 15 54 14
3 56 55 16
3 16 55 15
3 57 56 17
3 17 56 16
3 58 57 18
3 18 57 17
3 59 58 19
3 19 58 18
3 60 59 20
3 20 59 19
3 61 60 21
3 21 60 20
3 62 61 22
3 22 61 21
3 63 62 23
3 23 62 22
3 64 63 24
3 24 63 23
3 65 64 25
3 25 64 24
3 66 65 26
3 26 65 25
3 67 66 27
3 27 66 26
3 68 67 28
3 28 67 27
3 69 68 29
3 29 68 28
3 70 69 30
3 30 69 29
3 71 70 31
3 31 70 30
3 72 71 32
3 32 71 31
3 73 72 33
3 33 72 32
3 74 73 34
3 34 73 33
3 75 74 35
3 35 74 34
3 76 75 36
3 36 75 35
3 77 76 37
3 37 76 36
3 78 77 38
3 38 77 37
3 40 79 0
3 0 79 39
3 79 78 39
3 39 78 38
3 81 80 100
3 83 82 81
3 85 84 83
3 87 86 85
3 89 88 87
3 91 90 89
3 93 92 91
3 95 94 93
3 97 96 95
3 99 98 97
3 81 100 99
3 85 83 81
3 89 87 85
3 93 91 89
3 97 95 93
3 81 99 97
3 89 85 81
3 97 93 89
3 89 81 97
3 121 101 102
3 102 103 104
3 104 105 106
3 106 107 108
3 108 109 110
3 110 111 112
3 112 113 114
3 114 115 116
3 116 117 118
3 118 119 120
3 120 121 102
3 102 104 106
3 106 108 110
3 110 112 114
3 114 116 118
3 118 120 102
3 102 106 110
3 110 114 118
3 118 102 110
3 102 101 81
3 81 101 80
3 103 102 82
3 82 102 81
3 104 103 83
3 83 103 82
3 105 104 84
3 84 104 83
3 106 105 85
3 85 105 84
3 107 106 86
3 86 106 85
3 108 107 87
3 87 107 86
3 109 108 88
3 88 108 87
3 110 109 89
3 89 109 88
3 111 110 90
3 90 110 89
3 112 111 91
3 91 111 90
3 113 112 92
3 92 112 91
3 114 113 93
3 93 113 92
3 115 114 94
3 94 114 93
3 116 115 95
3 95 115 94
3 117 116 96
3 96 116 95
3 118 117 97
3 97 117 96
3 119 118 98
3 98 118 97
3 120 119 99
3 99 119 98
3 101 121 80
3 80 121 100
3 121 120 100
3 100 120 99
3 123 122 161
3 125 124 123
3 127 126 125
3 129 128 127
3 131 130 129
3 133 132 131
3 135 134 133
3 137 136 135
3 139 138 137
3 141 140 139
3 143 142 141
3 145 144 143
3 147 146 145
3 149 148 147
3 151 150 149
3 153 152 151
3 155 154 153
3 157 156 155
3 159 158 157
3 161 160 159
3 125 123 161
3 129 127 125
3 133 131 129
3 137 135 133
3 141 139 137
3 145 143 141
3 149 147 145
3 153 151 149
3 157 155 153
3 161 159 157
3 129 125 161
3 137 133 129
3 145 141 137
3 153 149 145
3 161 157 153
3 137 129 161
3 153 145 137
3 137 161 153
3 201 162 163
3 163 164 165
3 165 166 167
3 167 168 169
3 169 170 171
3 171 172 173
3 173 174 175
3 175 176 177
3 177 178 179
3 179 180 181
3 181 182 183
3 183 184 185
3 185 186 187
3 187 188 189
3 189 190 191
3 191 192 193
3 193 194 195
3 195 196 197
3 197 198 199
3 199 200 201
3 201 163 165
3 165 167 169
3 169 171 173
3 173 175 177
3 177 179 181
3 181 183 185
3 185 187 189
3 189 191 193
3 193 195 197
3 197 199 201
3 201 165 169
3 169 173 177
3 177 181 185
3 185 189 193
3 193 197 201
3 201 169 177
3 177 185 193
3 193 201 177
3 163 162 123
3 123 162 122
3 164 163 124
3 124 163 123
3 165 164 125
3 125 164 124
3 166 165 126
3 126 165 125
3 167 166 127
3 127 166 126
3 168 167 128
3 128 167 127
3 169 168 129
3 129 168 128
3 170 169 130
3 130 169 129
3 171 170 131
3 131 170 130
3 172 171 132
3 132 171 131
3 173 172 133
3 133 172 132
3 174 173 134
3 134 173 133
3 175 174 135
3 135 174 134
3 176 175 136
3 136 175 135
3 177 176 137
3 137 176 136
3 178 177 138
3 138 177 137
3 179 178 139
3 139 178 138
3 180 179 140
3 140 179 139
3 181 180 141
3 141 180 140
3 182 181 142
3 142 181 141
3 183 182 143
3 143 182 142
3 184 183 144
3 144 183 143
3 185 184 145
3 145 184 144
3 186 185 146
3 146 185 145
3 187 186 147
3 147 186 146
3 188 187 148
3 148 187 147
3 189 188 149
3 149 188 148
3 190 189 150
3 150 189 149
3 191 190 151
3 151 190 150
3 192 191 152
3 152 191 151
3 193 192 153
3 153 192 152
3 194 193 154
3 154 193 153
3 195 194 155
3 155 194 154
3 196 195 156
3 156 195 155
3 197 196 157
3 157 196 156
3 198 197 158
3 158 197 157
3 199 198 159
3 159 198 158
3 200 199 160
3 160 199 159
3 162 201 122
3 122 201 161
3 201 200 161
3 161 200 160
3 203 202 222
3 205 204 203
3 207 206 205
3 209 208 207
3 211 210 209
3 213 212 211
3 215 214 213
3 217 216 215
3 219 218 217
3 221 220 219
3 203 222 221
3 207 205 203
3 211 209 207
3 215 213 211
3 219 217 215
3 203 221 219
3 211 207 203
3 219 215 211
3 211 203 219
3 243 223 224
3 224 225 226
3 226 227 228
3 228 229 230
3 230 231 232
3 232 233 234
3 234 235 236
3 236 237 238
3 238 239 240
3 240 241 242
3 242 243 224
3 224 226 228
3 228 230 232
3 232 234 236
3 236 238 240
3 240 242 224
3 224 228 232
3 232 236 240
3 240 224 232
3 224 223 203
3 203 223 202
3 225 224 204
3 204 224 203
3 226 225 205
3 205 225 204
3 227 226 206
3 206 226 205
3 228 227 207
3 207 227 206
3 229 228 208
3 208 228 207
3 230 229 209
3 209 229 208
3 231 230 210
3 210 230 209
3 232 231 211
3 211 231 210
3 233 232 212
3 212 232 211
3 234 233 213
3 213 233 212
3 235 234 214
3 214 234 213
3 236 235 215
3 215 235 214
3 237 236 216
3 216 236 215
3 238 237 217
3 217 237 216
3 239 238 218
3 218 238 217
3 240 239 219
3 219 239 218
3 241 240 220
3 220 240 219
3 242 241 221
3 221 241 220
3 223 243 202
3 202 243 222
3 243 242 222
3 222 242 221
3 245 244 283
3 247 246 245
3 249 248 247
3 251 250 249
3 253 252 251
3 255 254 253
3 257 256 255
3 259 258 257
3 261 260 259
3 263 262 261
3 265 264 263
3 267 266 265
3 269 268 267
3 271 270 269
3 273 272 271
3 275 274 273
3 277 276 275
3 279 278 277
3 281 280 279
3 283 282 281
3 247 245 283
3 251 249 247
3 255 253 251
3 259 257 255
3 263 261 259
3 267 265 263
3 271 269 267
3 275 273 271
3 279 277 275
3 283 281 279
3 251 247 283
3 259 255 251
3 267 263 259
3 275 271 267
3 283 279 275
3 259 251 283
3 275 267 259
3 259 283 275
3 323 284 285
3 285 286 287
3 287 288 289
3 289 290 291
3 291 292 293
3 293 294 295
3 295 296 297
3 297 298 299
3 299 300 301
3 301 302 303
3 303 304 305
3 305 306 307
3 307 308 309
3 309 310 311
3 311 312 313
3 313 314 315
3 315 316 317
3 317 318 319
3 319 320 321
3 321 322 323
3 323 285 287
3 287 289 291
3 291 293 295
3 295 297 299
3 299 301 303
3 303 305 307
3 307 309 311
3 311 313 315
3 315 317 319
3 319 321 323
3 323 287 291
3 291 295 299
3 299 303 307
3 307 311 315
3 315 319 323
3 323 291 299
3 299 307 315
3 315 323 299
3 285 284 245
3 245 284 244
3 286 285 246
3 246 285 245
3 287 286 247
3 247 286 246
3 288 287 248
3 248 287 247
3 289 288 249
3 249 288 248
3 290 289 250
3 250 289 249
3 291 290 251
3 251 290 250
3 292 291 252
3 252 291 251
3 293 292 253
3 253 292 252
3 294 293 254
3 254 293 253
3 295 294 255
3 255 294 254
3 296 295 256
3 256 295 255
3 297 296 257
3 257 296 256
3 298 297 258
3 258 297 257
3 299 298 259
3 259 298 258
3 300 299 260
3 260 299 259
3 301 300 261
3 261 300 260
3 302 301 262
3 262 301 261
3 303 302 263
3 263 302 262
3 304 303 264
3 264 303 263
3 305 304 265
3 265 304 264
3 306 305 266
3 266 305 265
3 307 306 267
3 267 306 266
3 308 307 268
3 268 307 267
3 309 308 269
3 269 308 268
3 310 309 270
3 270 309 269
3 311 310 271
3 271 310 270
3 312 311 272
3 272 311 271
3 313 312 273
3 273 312 272
3 314 313 274
3 274 313 273
3 315 314 275
3 275 314 274
3 316 315 276
3 276 315 275
3 317 316 277
3 277 316 276
3 318 317 278
3 278 317 277
3 319 318 279
3 279 318 278
3 320 319 280
3 280 319 279
3 321 320 281
3 281 320 280
3 322 321 282
3 282 321 281
3 284 323 244
3 244 323 283
3 323 322 283
3 283 322 282
3 325 324 363
3 327 326 325
3 329 328 327
3 331 330 329
3 333 332 331
3 335 334 333
3 337 336 335
3 339 338 337
3 341 340 339
3 343 342 341
3 345 344 343
3 347 346 345
3 349 348 347
3 351 350 349
3 353 352 351
3 355 354 353
3 357 356 355
3 359 358 357
3 361 360 359
3 363 362 361
3 327 325 363
3 331 329 327
3 335 333 331
3 339 337 335
3 343 341 339
3 347 345 343
3 351 349 347
3 355 353 351
3 359 357 355
3 363 361 359
3 331 327 363
3 339 335 331
3 347 343 339
3 355 351 347
3 363 359 355
3 339 331 363
3 355 347 339
3 339 363 355
3 403 364 365
3 365 366 367
3 367 368 369
3 369 370 371
3 371 372 373
3 373 374 375
3 375 376 377
3 377 378 379
3 379 380 381
3 381 382 383
3 383 384 385
3 385 386 387
3 387 388 389
3 389 390 391
3 391 392 393
3 393 394 395
3 395 396 397
3 397 398 399
3 399 400 401
3 401 402 403
3 403 365 367
3 367 369 371
3 371 373 375
3 375 377 379
3 379 381 383
3 383 385 387
3 387 389 391
3 391 393 395
3 395 397 399
3 399 401 403
3 403 367 371
3 371 375 379
3 379 383 387
3 387 391 395
3 395 399 403
3 403 371 379
3 379 387 395
3 395 403 379
3 365 364 325
3 325 364 324
3 366 365 326
3 326 365 325
3 367 366 327
3 327 366 326
3 368 367 328
3 328 367 327
3 369 368 329
3 329 368 328
3 370 369 330
3 330 369 329
3 371 370 331
3 331 370 330
3 372 371 332
3 332 371 331
3 373 372 333
3 333 372 332
3 374 373 334
3 334 373 333
3 375 374 335
3 335 374 334
3 376 375 336
3 336 375 335
3 377 376 337
3 337 376 336
3 378 377 338
3 338 377 337
3 379 378 339
3 339 378 338
3 380 379 340
3 340 379 339
3 381 380 341
3 341 380 340
3 382 381 342
3 342 381 341
3 383 382 343
3 343 382 342
3 384 383 344
3 344 383 343
3 385 384 345
3 345 384 344
3 386 385 346
3 346 385 345
3 387 386 347
3 347 386 346
3 388 387 348
3 348 387 347
3 389 388 349
3 349 388 348
3 390 389 350
3 350 389 349
3 391 390 351
3 351 390 350
3 392 391 352
3 352 391 351
3 393 392 353
3 353 392 352
3 394 393 354
3 354 393 353
3 395 394 355
3 355 394 354
3 396 395 356
3 356 395 355
3 397 396 357
3 357 396 356
3 398 397 358
3 358 397 357
3 399 398 359
3 359 398 358
3 400 399 360
3 360 399 359
3 401 400 361
3 361 400 360
3 402 401 362
3 362 401 361
3 364 403 324
3 324 403 363
3 403 402 363
3 363 402 362
