ply
format ascii 1.0
element vertex 648
property float x
property float y
property float z
element face 1296
property list uchar int vertex_indices
end_header
0.120000 0.000000 0.000000
0.118191 0.000000 0.010261
0.112981 0.000000 0.019284
0.105000 0.000000 0.025981
0.095209 0.000000 0.029544
0.084791 0.000000 0.029544
0.075000 0.000000 0.025981
0.067019 0.000000 0.019284
0.061809 0.000000 0.010261
0.060000 0.000000 0.000000
0.061809 0.000000 -0.010261
0.067019 0.000000 -0.019284
0.075000 0.000000 -0.025981
0.084791 0.000000 -0.029544
0.095209 0.000000 -0.029544
0.105000 0.000000 -0.025981
0.112981 0.000000 -0.019284
0.118191 0.000000 -0.010261
0.118177 0.020838 0.000000
0.116395 0.020524 0.010261
0.111265 0.019619 0.019284
0.103405 0.018233 0.025981
0.093763 0.016533 0.029544
0.083502 0.014724 0.029544
0.073861 0.013024 0.025981
0.066001 0.011638 0.019284
0.060870 0.010733 0.010261
0.059088 0.010419 0.000000
0.060870 0.010733 -0.010261
0.066001 0.011638 -0.019284
0.073861 0.013024 -0.025981
0.083502 0.014724 -0.029544
0.093763 0.016533 -0.029544
0.103405 0.018233 -0.025981
0.111265 0.019619 -0.019284
0.116395 0.020524 -0.010261
0.112763 0.041042 0.000000
0.111063 0.040424 0.010261
0.106168 0.038642 0.019284
0.098668 0.035912 0.025981
0.089468 0.032564 0.029544
0.079677 0.029000 0.029544
0.070477 0.025652 0.025981
0.062977 0.022922 0.019284
0.058082 0.021140 0.010261
0.056382 0.020521 0.000000
0.058082 0.021140 -0.010261
0.062977 0.022922 -0.019284
0.070477 0.025652 -0.025981
0.079677 0.029000 -0.029544
0.089468 0.032564 -0.029544
0.098668 0.035912 -0.025981
0.106168 0.038642 -0.019284
0.111063 0.040424 -0.010261
0.103923 0.060000 0.000000
0.102356 0.059095 0.010261
0.097845 0.056491 0.019284
0.090933 0.052500 0.025981
0.082454 0.047605 0.029544
0.073431 0.042395 0.029544
0.064952 0.037500 0.025981
0.058040 0.033509 0.019284
0.053528 0.030905 0.010261
0.051962 0.030000 0.000000
0.053528 0.030905 -0.010261
0.058040 0.033509 -0.019284
0.064952 0.037500 -0.025981
0.073431 0.042395 -0.029544
0.082454 0.047605 -0.029544
0.090933 0.052500 -0.025981
0.097845 0.056491 -0.019284
0.102356 0.059095 -0.010261
0.091925 0.077135 0.000000
0.090539 0.075972 0.010261
0.086549 0.072623 0.019284
0.080435 0.067493 0.025981
0.072935 0.061199 0.029544
0.064953 0.054502 0.029544
0.057453 0.048209 0.025981
0.051339 0.043079 0.019284
0.047349 0.039730 0.010261
0.045963 0.038567 0.000000
0.047349 0.039730 -0.010261
0.051339 0.043079 -0.019284
0.057453 0.048209 -0.025981
0.064953 0.054502 -0.029544
0.072935 0.061199 -0.029544
0.080435 0.067493 -0.025981
0.086549 0.072623 -0.019284
0.090539 0.075972 -0.010261
0.077135 0.091925 0.000000
0.075972 0.090539 0.010261
0.072623 0.086549 0.019284
0.067493 0.080435 0.025981
0.061199 0.072935 0.029544
0.054502 0.064953 0.029544
0.048209 0.057453 0.025981
0.043079 0.051339 0.019284
0.039730 0.047349 0.010261
0.038567 0.045963 0.000000
0.039730 0.047349 -0.010261
0.043079 0.051339 -0.019284
0.048209 0.057453 -0.025981
0.054502 0.064953 -0.029544
0.061199 0.072935 -0.029544
0.067493 0.080435 -0.025981
0.072623 0.086549 -0.019284
0.075972 0.090539 -0.010261
0.060000 0.103923 0.000000
0.059095 0.102356 0.010261
0.056491 0.097845 0.019284
0.052500 0.090933 0.025981
0.047605 0.082454 0.029544
0.042395 0.073431 0.029544
0.037500 0.064952 0.025981
0.033509 0.058040 0.019284
0.030905 0.053528 0.010261
0.030000 0.051962 0.000000
0.030905 0.053528 -0.010261
0.033509 0.058040 -0.019284
0.037500 0.064952 -0.025981
0.042395 0.073431 -0.029544
0.047605 0.082454 -0.029544
0.052500 0.090933 -0.025981
0.056491 0.097845 -0.019284
0.059095 0.102356 -0.010261
0.041042 0.112763 0.000000
0.040424 0.111063 0.010261
0.038642 0.106168 0.019284
0.035912 0.098668 0.025981
0.032564 0.089468 0.029544
0.029000 0.079677 0.029544
0.025652 0.070477 0.025981
0.022922 0.062977 0.019284
0.021140 0.058082 0.010261
0.020521 0.056382 0.000000
0.021140 0.058082 -0.010261
0.022922 0.062977 -0.019284
0.025652 0.070477 -0.025981
0.029000 0.079677 -0.029544
0.032564 0.089468 -0.029544
0.035912 0.098668 -0.025981
0.038642 0.106168 -0.019284
0.040424 0.111063 -0.010261
0.020838 0.118177 0.000000
0.020524 0.116395 0.010261
0.019619 0.111265 0.019284
0.018233 0.103405 0.025981
0.016533 0.093763 0.029544
0.014724 0.083502 0.029544
0.013024 0.073861 0.025981
0.011638 0.066001 0.019284
0.010733 0.060870 0.010261
0.010419 0.059088 0.000000
0.010733 0.060870 -0.010261
0.011638 0.066001 -0.019284
0.013024 0.073861 -0.025981
0.014724 0.083502 -0.029544
0.016533 0.093763 -0.029544
0.018233 0.103405 -0.025981
0.019619 0.111265 -0.019284
0.020524 0.116395 -0.010261
0.000000 0.120000 0.000000
0.000000 0.118191 0.010261
0.000000 0.112981 0.019284
0.000000 0.105000 0.025981
0.000000 0.095209 0.029544
0.000000 0.084791 0.029544
0.000000 0.075000 0.025981
0.000000 0.067019 0.019284
0.000000 0.061809 0.010261
0.000000 0.060000 0.000000
0.000000 0.061809 -0.010261
0.000000 0.067019 -0.019284
0.000000 0.075000 -0.025981
0.000000 0.084791 -0.029544
0.000000 0.095209 -0.029544
0.000000 0.105000 -0.025981
0.000000 0.112981 -0.019284
0.000000 0.118191 -0.010261
-0.020838 0.118177 0.000000
-0.020524 0.116395 0.010261
-0.019619 0.111265 0.019284
-0.018233 0.103405 0.025981
-0.016533 0.093763 0.029544
-0.014724 0.083502 0.029544
-0.013024 0.073861 0.025981
-0.011638 0.066001 0.019284
-0.010733 0.060870 0.010261
-0.010419 0.059088 0.000000
-0.010733 0.060870 -0.010261
-0.011638 0.066001 -0.019284
-0.013024 0.073861 -0.025981
-0.014724 0.083502 -0.029544
-0.016533 0.093763 -0.029544
-0.018233 0.103405 -0.025981
-0.019619 0.111265 -0.019284
-0.020524 0.116395 -0.010261
-0.041042 0.112763 0.000000
-0.040424 0.111063 0.010261
-0.038642 0.106168 0.019284
-0.035912 0.098668 0.025981
-0.032564 0.089468 0.029544
-0.029000 0.079677 0.029544
-0.025652 0.070477 0.025981
-0.022922 0.062977 0.019284
-0.021140 0.058082 0.010261
-0.020521 0.056382 0.000000
-0.021140 0.058082 -0.010261
-0.022922 0.062977 -0.019284
-0.025652 0.070477 -0.025981
-0.029000 0.079677 -0.029544
-0.032564 0.089468 -0.029544
-0.035912 0.098668 -0.025981
-0.038642 0.106168 -0.019284
-0.040424 0.111063 -0.010261
-0.060000 0.103923 0.000000
-0.059095 0.102356 0.010261
-0.056491 0.097845 0.019284
-0.052500 0.090933 0.025981
-0.047605 0.082454 0.029544
-0.042395 0.073431 0.029544
-0.037500 0.064952 0.025981
-0.033509 0.058040 0.019284
-0.030905 0.053528 0.010261
-0.030000 0.051962 0.000000
-0.030905 0.053528 -0.010261
-0.033509 0.058040 -0.019284
-0.037500 0.064952 -0.025981
-0.042395 0.073431 -0.029544
-0.047605 0.082454 -0.029544
-0.052500 0.090933 -0.025981
-0.056491 0.097845 -0.019284
-0.059095 0.102356 -0.010261
-0.077135 0.091925 0.000000
-0.075972 0.090539 0.010261
-0.072623 0.086549 0.019284
-0.067493 0.080435 0.025981
-0.061199 0.072935 0.029544
-0.054502 0.064953 0.029544
-0.048209 0.057453 0.025981
-0.043079 0.051339 0.019284
-0.039730 0.047349 0.010261
-0.038567 0.045963 0.000000
-0.039730 0.047349 -0.010261
-0.043079 0.051339 -0.019284
-0.048209 0.057453 -0.025981
-0.054502 0.064953 -0.029544
-0.061199 0.072935 -0.029544
-0.067493 0.080435 -0.025981
-0.072623 0.086549 -0.019284
-0.075972 0.090539 -0.010261
-0.091925 0.077135 0.000000
-0.090539 0.075972 0.010261
-0.086549 0.072623 0.019284
-0.080435 0.067493 0.025981
-0.072935 0.061199 0.029544
-0.064953 0.054502 0.029544
-0.057453 0.048209 0.025981
-0.051339 0.043079 0.019284
-0.047349 0.039730 0.010261
-0.045963 0.038567 0.000000
-0.047349 0.039730 -0.010261
-0.051339 0.043079 -0.019284
-0.057453 0.048209 -0.025981
-0.064953 0.054502 -0.029544
-0.072935 0.061199 -0.029544
-0.080435 0.067493 -0.025981
-0.086549 0.072623 -0.019284
-0.090539 0.075972 -0.010261
-0.103923 0.060000 0.000000
-0.102356 0.059095 0.010261
-0.097845 0.056491 0.019284
-0.090933 0.052500 0.025981
-0.082454 0.047605 0.029544
-0.073431 0.042395 0.029544
-0.064952 0.037500 0.025981
-0.058040 0.033509 0.019284
-0.053528 0.030905 0.010261
-0.051962 0.030000 0.000000
-0.053528 0.030905 -0.010261
-0.058040 0.033509 -0.019284
-0.064952 0.037500 -0.025981
-0.073431 0.042395 -0.029544
-0.082454 0.047605 -0.029544
-0.090933 0.052500 -0.025981
-0.097845 0.056491 -0.019284
-0.102356 0.059095 -0.010261
-0.112763 0.041042 0.000000
-0.111063 0.040424 0.010261
-0.106168 0.038642 0.019284
-0.098668 0.035912 0.025981
-0.089468 0.032564 0.029544
-0.079677 0.029000 0.029544
-0.070477 0.025652 0.025981
-0.062977 0.022922 0.019284
-0.058082 0.021140 0.010261
-0.056382 0.020521 0.000000
-0.058082 0.021140 -0.010261
-0.062977 0.022922 -0.019284
-0.070477 0.025652 -0.025981
-0.079677 0.029000 -0.029544
-0.089468 0.032564 -0.029544
-0.098668 0.035912 -0.025981
-0.106168 0.038642 -0.019284
-0.111063 0.040424 -0.010261
-0.118177 0.020838 0.000000
-0.116395 0.020524 0.010261
-0.111265 0.019619 0.019284
-0.103405 0.018233 0.025981
-0.093763 0.016533 0.029544
-0.083502 0.014724 0.029544
-0.073861 0.013024 0.025981
-0.066001 0.011638 0.019284
-0.060870 0.010733 0.010261
-0.059088 0.010419 0.000000
-0.060870 0.010733 -0.010261
-0.066001 0.011638 -0.019284
-0.073861 0.013024 -0.025981
-0.083502 0.014724 -0.029544
-0.093763 0.016533 -0.029544
-0.103405 0.018233 -0.025981
-0.111265 0.019619 -0.019284
-0.116395 0.020524 -0.010261
-0.120000 0.000000 0.000000
-0.118191 0.000000 0.010261
-0.112981 0.000000 0.019284
-0.105000 0.000000 0.025981
-0.095209 0.000000 0.029544
-0.084791 0.000000 0.029544
-0.075000 0.000000 0.025981
-0.067019 0.000000 0.019284
-0.061809 0.000000 0.010261
-0.060000 0.000000 0.000000
-0.061809 0.000000 -0.010261
-0.067019 0.000000 -0.019284
-0.075000 0.000000 -0.025981
-0.084791 0.000000 -0.029544
-0.095209 0.000000 -0.029544
-0.105000 0.000000 -0.025981
-0.112981 0.000000 -0.019284
-0.118191 0.000000 -0.010261
-0.118177 -0.020838 0.000000
-0.116395 -0.020524 0.010261
-0.111265 -0.019619 0.019284
-0.103405 -0.018233 0.025981
-0.093763 -0.016533 0.029544
-0.083502 -0.014724 0.029544
-0.073861 -0.013024 0.025981
-0.066001 -0.011638 0.019284
-0.060870 -0.010733 0.010261
-0.059088 -0.010419 0.000000
-0.060870 -0.010733 -0.010261
-0.066001 -0.011638 -0.019284
-0.073861 -0.013024 -0.025981
-0.083502 -0.014724 -0.029544
-0.093763 -0.016533 -0.029544
-0.103405 -0.018233 -0.025981
-0.111265 -0.019619 -0.019284
-0.116395 -0.020524 -0.010261
-0.112763 -0.041042 0.000000
-0.111063 -0.040424 0.010261
-0.106168 -0.038642 0.019284
-0.098668 -0.035912 0.025981
-0.089468 -0.032564 0.029544
-0.079677 -0.029000 0.029544
-0.070477 -0.025652 0.025981
-0.062977 -0.022922 0.019284
-0.058082 -0.021140 0.010261
-0.056382 -0.020521 0.000000
-0.058082 -0.021140 -0.010261
-0.062977 -0.022922 -0.019284
-0.070477 -0.025652 -0.025981
-0.079677 -0.029000 -0.029544
-0.089468 -0.032564 -0.029544
-0.098668 -0.035912 -0.025981
-0.106168 -0.038642 -0.019284
-0.111063 -0.040424 -0.010261
-0.103923 -0.060000 0.000000
-0.102356 -0.059095 0.010261
-0.097845 -0.056491 0.019284
-0.090933 -0.052500 0.025981
-0.082454 -0.047605 0.029544
-0.073431 -0.042395 0.029544
-0.064952 -0.037500 0.025981
-0.058040 -0.033509 0.019284
-0.053528 -0.030905 0.010261
-0.051962 -0.030000 0.000000
-0.053528 -0.030905 -0.010261
-0.058040 -0.033509 -0.019284
-0.064952 -0.037500 -0.025981
-0.073431 -0.042395 -0.029544
-0.082454 -0.047605 -0.029544
-0.090933 -0.052500 -0.025981
-0.097845 -0.056491 -0.019284
-0.102356 -0.059095 -0.010261
-0.091925 -0.077135 0.000000
-0.090539 -0.075972 0.010261
-0.086549 -0.072623 0.019284
-0.080435 -0.067493 0.025981
-0.072935 -0.061199 0.029544
-0.064953 -0.054502 0.029544
-0.057453 -0.048209 0.025981
-0.051339 -0.043079 0.019284
-0.047349 -0.039730 0.010261
-0.045963 -0.038567 0.000000
-0.047349 -0.039730 -0.010261
-0.051339 -0.043079 -0.019284
-0.057453 -0.048209 -0.025981
-0.064953 -0.054502 -0.029544
-0.072935 -0.061199 -0.029544
-0.080435 -0.067493 -0.025981
-0.086549 -0.072623 -0.019284
-0.090539 -0.075972 -0.010261
-0.077135 -0.091925 0.000000
-0.075972 -0.090539 0.010261
-0.072623 -0.086549 0.019284
-0.067493 -0.080435 0.025981
-0.061199 -0.072935 0.029544
-0.054502 -0.064953 0.029544
-0.048209 -0.057453 0.025981
-0.043079 -0.051339 0.019284
-0.039730 -0.047349 0.010261
-0.038567 -0.045963 0.000000
-0.039730 -0.047349 -0.010261
-0.043079 -0.051339 -0.019284
-0.048209 -0.057453 -0.025981
-0.054502 -0.064953 -0.029544
-0.061199 -0.072935 -0.029544
-0.067493 -0.080435 -0.025981
-0.072623 -0.086549 -0.019284
-0.075972 -0.090539 -0.010261
-0.060000 -0.103923 0.000000
-0.059095 -0.102356 0.010261
-0.056491 -0.097845 0.019284
-0.052500 -0.090933 0.025981
-0.047605 -0.082454 0.029544
-0.042395 -0.073431 0.029544
-0.037500 -0.064952 0.025981
-0.033509 -0.058040 0.019284
-0.030905 -0.053528 0.010261
-0.030000 -0.051962 0.000000
-0.030905 -0.053528 -0.010261
-0.033509 -0.058040 -0.019284
-0.037500 -0.064952 -0.025981
-0.042395 -0.073431 -0.029544
-0.047605 -0.082454 -0.029544
-0.052500 -0.090933 -0.025981
-0.056491 -0.097845 -0.019284
-0.059095 -0.102356 -0.010261
-0.041042 -0.112763 0.000000
-0.040424 -0.111063 0.010261
-0.038642 -0.106168 0.019284
-0.035912 -0.098668 0.025981
-0.032564 -0.089468 0.029544
-0.029000 -0.079677 0.029544
-0.025652 -0.070477 0.025981
-0.022922 -0.062977 0.019284
-0.021140 -0.058082 0.010261
-0.020521 -0.056382 0.000000
-0.021140 -0.058082 -0.010261
-0.022922 -0.062977 -0.019284
-0.025652 -0.070477 -0.025981
-0.029000 -0.079677 -0.029544
-0.032564 -0.089468 -0.029544
-0.035912 -0.098668 -0.025981
-0.038642 -0.106168 -0.019284
-0.040424 -0.111063 -0.010261
-0.020838 -0.118177 0.000000
-0.020524 -0.116395 0.010261
-0.019619 -0.111265 0.019284
-0.018233 -0.103405 0.025981
-0.016533 -0.093763 0.029544
-0.014724 -0.083502 0.029544
-0.013024 -0.073861 0.025981
-0.011638 -0.066001 0.019284
-0.010733 -0.060870 0.010261
-0.010419 -0.059088 0.000000
-0.010733 -0.060870 -0.010261
-0.011638 -0.066001 -0.019284
-0.013024 -0.073861 -0.025981
-0.014724 -0.083502 -0.029544
-0.016533 -0.093763 -0.029544
-0.018233 -0.103405 -0.025981
-0.019619 -0.111265 -0.019284
-0.020524 -0.116395 -0.010261
-0.000000 -0.120000 0.000000
-0.000000 -0.118191 0.010261
-0.000000 -0.112981 0.019284
-0.000000 -0.105000 0.025981
-0.000000 -0.095209 0.029544
-0.000000 -0.084791 0.029544
-0.000000 -0.075000 0.025981
-0.000000 -0.067019 0.019284
-0.000000 -0.061809 0.010261
-0.000000 -0.060000 0.000000
-0.000000 -0.061809 -0.010261
-0.000000 -0.067019 -0.019284
-0.000000 -0.075000 -0.025981
-0.000000 -0.084791 -0.029544
-0.000000 -0.095209 -0.029544
-0.000000 -0.105000 -0.025981
-0.000000 -0.112981 -0.019284
-0.000000 -0.118191 -0.010261
0.020838 -0.118177 0.000000
0.020524 -0.116395 0.010261
0.019619 -0.111265 0.019284
0.018233 -0.103405 0.025981
0.016533 -0.093763 0.029544
0.014724 -0.083502 0.029544
0.013024 -0.073861 0.025981
0.011638 -0.066001 0.019284
0.010733 -0.060870 0.010261
0.010419 -0.059088 0.000000
0.010733 -0.060870 -0.010261
0.011638 -0.066001 -0.019284
0.013024 -0.073861 -0.025981
0.014724 -0.083502 -0.029544
0.016533 -0.093763 -0.029544
0.018233 -0.103405 -0.025981
0.019619 -0.111265 -0.019284
0.020524 -0.116395 -0.010261
0.041042 -0.112763 0.000000
0.040424 -0.111063 0.010261
0.038642 -0.106168 0.019284
0.035912 -0.098668 0.025981
0.032564 -0.089468 0.029544
0.029000 -0.079677 0.029544
0.025652 -0.070477 0.025981
0.022922 -0.062977 0.019284
0.021140 -0.058082 0.010261
0.020521 -0.056382 0.000000
0.021140 -0.058082 -0.010261
0.022922 -0.062977 -0.019284
0.025652 -0.070477 -0.025981
0.029000 -0.079677 -0.029544
0.032564 -0.089468 -0.029544
0.035912 -0.098668 -0.025981
0.038642 -0.106168 -0.019284
0.040424 -0.111063 -0.010261
0.060000 -0.103923 0.000000
0.059095 -0.102356 0.010261
0.056491 -0.097845 0.019284
0.052500 -0.090933 0.025981
0.047605 -0.082454 0.029544
0.042395 -0.073431 0.029544
0.037500 -0.064952 0.025981
0.033509 -0.058040 0.019284
0.030905 -0.053528 0.010261
0.030000 -0.051962 0.000000
0.030905 -0.053528 -0.010261
0.033509 -0.058040 -0.019284
0.037500 -0.064952 -0.025981
0.042395 -0.073431 -0.029544
0.047605 -0.082454 -0.029544
0.052500 -0.090933 -0.025981
0.056491 -0.097845 -0.019284
0.059095 -0.102356 -0.010261
0.077135 -0.091925 0.000000
0.075972 -0.090539 0.010261
0.072623 -0.086549 0.019284
0.067493 -0.080435 0.025981
0.061199 -0.072935 0.029544
0.054502 -0.064953 0.029544
0.048209 -0.057453 0.025981
0.043079 -0.051339 0.019284
0.039730 -0.047349 0.010261
0.038567 -0.045963 0.000000
0.039730 -0.047349 -0.010261
0.043079 -0.051339 -0.019284
0.048209 -0.057453 -0.025981
0.054502 -0.064953 -0.029544
0.061199 -0.072935 -0.029544
0.067493 -0.080435 -0.025981
0.072623 -0.086549 -0.019284
0.075972 -0.090539 -0.010261
0.091925 -0.077135 0.000000
0.090539 -0.075972 0.010261
0.086549 -0.072623 0.019284
0.080435 -0.067493 0.025981
0.072935 -0.061199 0.029544
0.064953 -0.054502 0.029544
0.057453 -0.048209 0.025981
0.051339 -0.043079 0.019284
0.047349 -0.039730 0.010261
0.045963 -0.038567 0.000000
0.047349 -0.039730 -0.010261
0.051339 -0.043079 -0.019284
0.057453 -0.048209 -0.025981
0.064953 -0.054502 -0.029544
0.072935 -0.061199 -0.029544
0.080435 -0.067493 -0.025981
0.086549 -0.072623 -0.019284
0.090539 -0.075972 -0.010261
0.103923 -0.060000 0.000000
0.102356 -0.059095 0.010261
0.097845 -0.056491 0.019284
0.090933 -0.052500 0.025981
0.082454 -0.047605 0.029544
0.073431 -0.042395 0.029544
0.064952 -0.037500 0.025981
0.058040 -0.033509 0.019284
0.053528 -0.030905 0.010261
0.051962 -0.030000 0.000000
0.053528 -0.030905 -0.010261
0.058040 -0.033509 -0.019284
0.064952 -0.037500 -0.025981
0.073431 -0.042395 -0.029544
0.082454 -0.047605 -0.029544
0.090933 -0.052500 -0.025981
0.097845 -0.056491 -0.019284
0.102356 -0.059095 -0.010261
0.112763 -0.041042 0.000000
0.111063 -0.040424 0.010261
0.106168 -0.038642 0.019284
0.098668 -0.035912 0.025981
0.089468 -0.032564 0.029544
0.079677 -0.029000 0.029544
0.070477 -0.025652 0.025981
0.062977 -0.022922 0.019284
0.058082 -0.021140 0.010261
0.056382 -0.020521 0.000000
0.058082 -0.021140 -0.010261
0.062977 -0.022922 -0.019284
0.070477 -0.025652 -0.025981
0.079677 -0.029000 -0.029544
0.089468 -0.032564 -0.029544
0.098668 -0.035912 -0.025981
0.106168 -0.038642 -0.019284
0.111063 -0.040424 -0.010261
0.118177 -0.020838 0.000000
0.116395 -0.020524 0.010261
0.111265 -0.019619 0.019284
0.103405 -0.018233 0.025981
0.093763 -0.016533 0.029544
0.083502 -0.014724 0.029544
0.073861 -0.013024 0.025981
0.066001 -0.011638 0.019284
0.060870 -0.010733 0.010261
0.059088 -0.010419 0.000000
0.060870 -0.010733 -0.010261
0.066001 -0.011638 -0.019284
0.073861 -0.013024 -0.025981
0.083502 -0.014724 -0.029544
0.093763 -0.016533 -0.029544
0.103405 -0.018233 -0.025981
0.111265 -0.019619 -0.019284
0.116395 -0.020524 -0.010261
3 0 18 1
3 1 18 19
3 1 19 2
3 2 19 20
3 2 20 3
3 3 20 21
3 3 21 4
3 4 21 22
3 4 22 5
3 5 22 23
3 5 23 6
3 6 23 24
3 6 24 7
3 7 24 25
3 7 25 8
3 8 25 26
3 8 26 9
3 9 26 27
3 9 27 10
3 10 27 28
3 10 28 11
3 11 28 29
3 11 29 12
3 12 29 30
3 12 30 13
3 13 30 31
3 13 31 14
3 14 31 32
3 14 32 15
3 15 32 33
3 15 33 16
3 16 33 34
3 16 34 17
3 17 34 35
3 17 35 0
3 0 35 18
3 18 36 19
3 19 36 37
3 19 37 20
3 20 37 38
3 20 38 21
3 21 38 39
3 21 39 22
3 22 39 40
3 22 40 23
3 23 40 41
3 23 41 24
3 24 41 42
3 24 42 25
3 25 42 43
3 25 43 26
3 26 43 44
3 26 44 27
3 27 44 45
3 27 45 28
3 28 45 46
3 28 46 29
3 29 46 47
3 29 47 30
3 30 47 48
3 30 48 31
3 31 48 49
3 31 49 32
3 32 49 50
3 32 50 33
3 33 50 51
3 33 51 34
3 34 51 52
3 34 52 35
3 35 52 53
3 35 53 18
3 18 53 36
3 36 54 37
3 37 54 55
3 37 55 38
3 38 55 56
3 38 56 39
3 39 56 57
3 39 57 40
3 40 57 58
3 40 58 41
3 41 58 59
3 41 59 42
3 42 59 60
3 42 60 43
3 43 60 61
3 43 61 44
3 44 61 62
3 44 62 45
3 45 62 63
3 45 63 46
3 46 63 64
3 46 64 47
3 47 64 65
3 47 65 48
3 48 65 66
3 48 66 49
3 49 66 67
3 49 67 50
3 50 67 68
3 50 68 51
3 51 68 69
3 51 69 52
3 52 69 70
3 52 70 53
3 53 70 71
3 53 71 36
3 36 71 54
3 54 72 55
3 55 72 73
3 55 73 56
3 56 73 74
3 56 74 57
3 57 74 75
3 57 75 58
3 58 75 76
3 58 76 59
3 59 76 77
3 59 77 60
3 60 77 78
3 60 78 61
3 61 78 79
3 61 79 62
3 62 79 80
3 62 80 63
3 63 80 81
3 63 81 64
3 64 81 82
3 64 82 65
3 65 82 83
3 65 83 66
3 66 83 84
3 66 84 67
3 67 84 85
3 67 85 68
3 68 85 86
3 68 86 69
3 69 86 87
3 69 87 70
3 70 87 88
3 70 88 71
3 71 88 89
3 71 89 54
3 54 89 72
3 72 90 73
3 73 90 91
3 73 91 74
3 74 91 92
3 74 92 75
3 75 92 93
3 75 93 76
3 76 93 94
3 76 94 77
3 77 94 95
3 77 95 78
3 78 95 96
3 78 96 79
3 79 96 97
3 79 97 80
3 80 97 98
3 80 98 81
3 81 98 99
3 81 99 82
3 82 99 100
3 82 100 83
3 83 100 101
3 83 101 84
3 84 101 102
3 84 102 85
3 85 102 103
3 85 103 86
3 86 103 104
3 86 104 87
3 87 104 105
3 87 105 88
3 88 105 106
3 88 106 89
3 89 106 107
3 89 107 72
3 72 107 90
3 90 108 91
3 91 108 109
3 91 109 92
3 92 109 110
3 92 110 93
3 93 110 111
3 93 111 94
3 94 111 112
3 94 112 95
3 95 112 113
3 95 113 96
3 96 113 114
3 96 114 97
3 97 114 115
3 97 115 98
3 98 115 116
3 98 116 99
3 99 116 117
3 99 117 100
3 100 117 118
3 100 118 101
3 101 118 119
3 101 119 102
3 102 119 120
3 102 120 103
3 103 120 121
3 103 121 104
3 104 121 122
3 104 122 105
3 105 122 123
3 105 123 106
3 106 123 124
3 106 124 107
3 107 124 125
3 107 125 90
3 90 125 108
3 108 126 109
3 109 126 127
3 109 127 110
3 110 127 128
3 110 128 111
3 111 128 129
3 111 129 112
3 112 129 130
3 112 130 113
3 113 130 131
3 113 131 114
3 114 131 132
3 114 132 115
3 115 132 133
3 115 133 116
3 116 133 134
3 116 134 117
3 117 134 135
3 117 135 118
3 118 135 136
3 118 136 119
3 119 136 137
3 119 137 120
3 120 137 138
3 120 138 121
3 121 138 139
3 121 139 122
3 122 139 140
3 122 140 123
3 123 140 141
3 123 141 124
3 124 141 142
3 124 142 125
3 125 142 143
3 125 143 108
3 108 143 126
3 126 144 127
3 127 144 145
3 127 145 128
3 128 145 146
3 128 146 129
3 129 146 147
3 129 147 130
3 130 147 148
3 130 148 131
3 131 148 149
3 131 149 132
3 132 149 150
3 132 150 133
3 133 150 151
3 133 151 134
3 134 151 152
3 134 152 135
3 135 152 153
3 135 153 136
3 136 153 154
3 136 154 137
3 137 154 155
3 137 155 138
3 138 155 156
3 138 156 139
3 139 156 157
3 139 157 140
3 140 157 158
3 140 158 141
3 141 158 159
3 141 159 142
3 142 159 160
3 142 160 143
3 143 160 161
3 143 161 126
3 126 161 144
3 144 162 145
3 145 162 163
3 145 163 146
3 146 163 164
3 146 164 147
3 147 164 165
3 147 165 148
3 148 165 166
3 148 166 149
3 149 166 167
3 149 167 150
3 150 167 168
3 150 168 151
3 151 168 169
3 151 169 152
3 152 169 170
3 152 170 153
3 153 170 171
3 153 171 154
3 154 171 172
3 154 172 155
3 155 172 173
3 155 173 156
3 156 173 174
3 156 174 157
3 157 174 175
3 157 175 158
3 158 175 176
3 158 176 159
3 159 176 177
3 159 177 160
3 160 177 178
3 160 178 161
3 161 178 179
3 161 179 144
3 144 179 162
3 162 180 163
3 163 180 181
3 163 181 164
3 164 181 182
3 164 182 165
3 165 182 183
3 165 183 166
3 166 183 184
3 166 184 167
3 167 184 185
3 167 185 168
3 168 185 186
3 168 186 169
3 169 186 187
3 169 187 170
3 170 187 188
3 170 188 171
3 171 188 189
3 171 189 172
3 172 189 190
3 172 190 173
3 173 190 191
3 173 191 174
3 174 191 192
3 174 192 175
3 175 192 193
3 175 193 176
3 176 193 194
3 176 194 177
3 177 194 195
3 177 195 178
3 178 195 196
3 178 196 179
3 179 196 197
3 179 197 162
3 162 197 180
3 180 198 181
3 181 198 199
3 181 199 182
3 182 199 200
3 182 200 183
3 183 200 201
3 183 201 184
3 184 201 202
3 184 202 185
3 185 202 203
3 185 203 186
3 186 203 204
3 186 204 187
3 187 204 205
3 187 205 188
3 188 205 206
3 188 206 189
3 189 206 207
3 189 207 190
3 190 207 208
3 190 208 191
3 191 208 209
3 191 209 192
3 192 209 210
3 192 210 193
3 193 210 211
3 193 211 194
3 194 211 212
3 194 212 195
3 195 212 213
3 195 213 196
3 196 213 214
3 196 214 197
3 197 214 215
3 197 215 180
3 180 215 198
3 198 216 199
3 199 216 217
3 199 217 200
3 200 217 218
3 200 218 201
3 201 218 219
3 201 219 202
3 202 219 220
3 202 220 203
3 203 220 221
3 203 221 204
3 204 221 222
3 204 222 205
3 205 222 223
3 205 223 206
3 206 223 224
3 206 224 207
3 207 224 225
3 207 225 208
3 208 225 226
3 208 226 209
3 209 226 227
3 209 227 210
3 210 227 228
3 210 228 211
3 211 228 229
3 211 229 212
3 212 229 230
3 212 230 213
3 213 230 231
3 213 231 214
3 214 231 232
3 214 232 215
3 215 232 233
3 215 233 198
3 198 233 216
3 216 234 217
3 217 234 235
3 217 235 218
3 218 235 236
3 218 236 219
3 219 236 237
3 219 237 220
3 220 237 238
3 220 238 221
3 221 238 239
3 221 239 222
3 222 239 240
3 222 240 223
3 223 240 241
3 223 241 224
3 224 241 242
3 224 242 225
3 225 242 243
3 225 243 226
3 226 243 244
3 226 244 227
3 227 244 245
3 227 245 228
3 228 245 246
3 228 246 229
3 229 246 247
3 229 247 230
3 230 247 248
3 230 248 231
3 231 248 249
3 231 249 232
3 232 249 250
3 232 250 233
3 233 250 251
3 233 251 216
3 216 251 234
3 234 252 235
3 235 252 253
3 235 253 236
3 236 253 254
3 236 254 237
3 237 254 255
3 237 255 238
3 238 255 256
3 238 256 239
3 239 256 257
3 239 257 240
3 240 257 258
3 240 258 241
3 241 258 259
3 241 259 242
3 242 259 260
3 242 260 243
3 243 260 261
3 243 261 244
3 244 261 262
3 244 262 245
3 245 262 263
3 245 263 246
3 246 263 264
3 246 264 247
3 247 264 265
3 247 265 248
3 248 265 266
3 248 266 249
3 249 266 267
3 249 267 250
3 250 267 268
3 250 268 251
3 251 268 269
3 251 269 234
3 234 269 252
3 252 270 253
3 253 270 271
3 253 271 254
3 254 271 272
3 254 272 255
3 255 272 273
3 255 273 256
3 256 273 274
3 256 274 257
3 257 274 275
3 257 275 258
3 258 275 276
3 258 276 259
3 259 276 277
3 259 277 260
3 260 277 278
3 260 278 261
3 261 278 279
3 261 279 262
3 262 279 280
3 262 280 263
3 263 280 281
3 263 281 264
3 264 281 282
3 264 282 265
3 265 282 283
3 265 283 266
3 266 283 284
3 266 284 267
3 267 284 285
3 267 285 268
3 268 285 286
3 268 286 269
3 269 286 287
3 269 287 252
3 252 287 270
3 270 288 271
3 271 288 289
3 271 289 272
3 272 289 290
3 272 290 273
3 273 290 291
3 273 291 274
3 274 291 292
3 274 292 275
3 275 292 293
3 275 293 276
3 276 293 294
3 276 294 277
3 277 294 295
3 277 295 278
3 278 295 296
3 278 296 279
3 279 296 297
3 279 297 280
3 280 297 298
3 280 298 281
3 281 298 299
3 281 299 282
3 282 299 300
3 282 300 283
3 283 300 301
3 283 301 284
3 284 301 302
3 284 302 285
3 285 302 303
3 285 303 286
3 286 303 304
3 286 304 287
3 287 304 305
3 287 305 270
3 270 305 288
3 288 306 289
3 289 306 307
3 289 307 290
3 290 307 308
3 290 308 291
3 291 308 309
3 291 309 292
3 292 309 310
3 292 310 293
3 293 310 311
3 293 311 294
3 294 311 312
3 294 312 295
3 295 312 313
3 295 313 296
3 296 313 314
3 296 314 297
3 297 314 315
3 297 315 298
3 298 315 316
3 298 316 299
3 299 316 317
3 299 317 300
3 300 317 318
3 300 318 301
3 301 318 319
3 301 319 302
3 302 319 320
3 302 320 303
3 303 320 321
3 303 321 304
3 304 321 322
3 304 322 305
3 305 322 323
3 305 323 288
3 288 323 306
3 306 324 307
3 307 324 325
3 307 325 308
3 308 325 326
3 308 326 309
3 309 326 327
3 309 327 310
3 310 327 328
3 310 328 311
3 311 328 329
3 311 329 312
3 312 329 330
3 312 330 313
3 313 330 331
3 313 331 314
3 314 331 332
3 314 332 315
3 315 332 333
3 315 333 316
3 316 333 334
3 316 334 317
3 317 334 335
3 317 335 318
3 318 335 336
3 318 336 319
3 319 336 337
3 319 337 320
3 320 337 338
3 320 338 321
3 321 338 339
3 321 339 322
3 322 339 340
3 322 340 323
3 323 340 341
3 323 341 306
3 306 341 324
3 324 342 325
3 325 342 343
3 325 343 326
3 326 343 344
3 326 344 327
3 327 344 345
3 327 345 328
3 328 345 346
3 328 346 329
3 329 346 347
3 329 347 330
3 330 347 348
3 330 348 331
3 331 348 349
3 331 349 332
3 332 349 350
3 332 350 333
3 333 350 351
3 333 351 334
3 334 351 352
3 334 352 335
3 335 352 353
3 335 353 336
3 336 353 354
3 336 354 337
3 337 354 355
3 337 355 338
3 338 355 356
3 338 356 339
3 339 356 357
3 339 357 340
3 340 357 358
3 340 358 341
3 341 358 359
3 341 359 324
3 324 359 342
3 342 360 343
3 343 360 361
3 343 361 344
3 344 361 362
3 344 362 345
3 345 362 363
3 345 363 346
3 346 363 364
3 346 364 347
3 347 364 365
3 347 365 348
3 348 365 366
3 348 366 349
3 349 366 367
3 349 367 350
3 350 367 368
3 350 368 351
3 351 368 369
3 351 369 352
3 352 369 370
3 352 370 353
3 353 370 371
3 353 371 354
3 354 371 372
3 354 372 355
3 355 372 373
3 355 373 356
3 356 373 374
3 356 374 357
3 357 374 375
3 357 375 358
3 358 375 376
3 358 376 359
3 359 376 377
3 359 377 342
3 342 377 360
3 360 378 361
3 361 378 379
3 361 379 362
3 362 379 380
3 362 380 363
3 363 380 381
3 363 381 364
3 364 381 382
3 364 382 365
3 365 382 383
3 365 383 366
3 366 383 384
3 366 384 367
3 367 384 385
3 367 385 368
3 368 385 386
3 368 386 369
3 369 386 387
3 369 387 370
3 370 387 388
3 370 388 371
3 371 388 389
3 371 389 372
3 372 389 390
3 372 390 373
3 373 390 391
3 373 391 374
3 374 391 392
3 374 392 375
3 375 392 393
3 375 393 376
3 376 393 394
3 376 394 377
3 377 394 395
3 377 395 360
3 360 395 378
3 378 396 379
3 379 396 397
3 379 397 380
3 380 397 398
3 380 398 381
3 381 398 399
3 381 399 382
3 382 399 400
3 382 400 383
3 383 400 401
3 383 401 384
3 384 401 402
3 384 402 385
3 385 402 403
3 385 403 386
3 386 403 404
3 386 404 387
3 387 404 405
3 387 405 388
3 388 405 406
3 388 406 389
3 389 406 407
3 389 407 390
3 390 407 408
3 390 408 391
3 391 408 409
3 391 409 392
3 392 409 410
3 392 410 393
3 393 410 411
3 393 411 394
3 394 411 412
3 394 412 395
3 395 412 413
3 395 413 378
3 378 413 396
3 396 414 397
3 397 414 415
3 397 415 398
3 398 415 416
3 398 416 399
3 399 416 417
3 399 417 400
3 400 417 418
3 400 418 401
3 401 418 419
3 401 419 402
3 402 419 420
3 402 420 403
3 403 420 421
3 403 421 404
3 404 421 422
3 404 422 405
3 405 422 423
3 405 423 406
3 406 423 424
3 406 424 407
3 407 424 425
3 407 425 408
3 408 425 426
3 408 426 409
3 409 426 427
3 409 427 410
3 410 427 428
3 410 428 411
3 411 428 429
3 411 429 412
3 412 429 430
3 412 430 413
3 413 430 431
3 413 431 396
3 396 431 414
3 414 432 415
3 415 432 433
3 415 433 416
3 416 433 434
3 416 434 417
3 417 434 435
3 417 435 418
3 418 435 436
3 418 436 419
3 419 436 437
3 419 437 420
3 420 437 438
3 420 438 421
3 421 438 439
3 421 439 422
3 422 439 440
3 422 440 423
3 423 440 441
3 423 441 424
3 424 441 442
3 424 442 425
3 425 442 443
3 425 443 426
3 426 443 444
3 426 444 427
3 427 444 445
3 427 445 428
3 428 445 446
3 428 446 429
3 429 446 447
3 429 447 430
3 430 447 448
3 430 448 431
3 431 448 449
3 431 449 414
3 414 449 432
3 432 450 433
3 433 450 451
3 433 451 434
3 434 451 452
3 434 452 435
3 435 452 453
3 435 453 436
3 436 453 454
3 436 454 437
3 437 454 455
3 437 455 438
3 438 455 456
3 438 456 439
3 439 456 457
3 439 457 440
3 440 457 458
3 440 458 441
3 441 458 459
3 441 459 442
3 442 459 460
3 442 460 443
3 443 460 461
3 443 461 444
3 444 461 462
3 444 462 445
3 445 462 463
3 445 463 446
3 446 463 464
3 446 464 447
3 447 464 465
3 447 465 448
3 448 465 466
3 448 466 449
3 449 466 467
3 449 467 432
3 432 467 450
3 450 468 451
3 451 468 469
3 451 469 452
3 452 469 470
3 452 470 453
3 453 470 471
3 453 471 454
3 454 471 472
3 454 472 455
3 455 472 473
3 455 473 456
3 456 473 474
3 456 474 457
3 457 474 475
3 457 475 458
3 458 475 476
3 458 476 459
3 459 476 477
3 459 477 460
3 460 477 478
3 460 478 461
3 461 478 479
3 461 479 462
3 462 479 480
3 462 480 463
3 463 480 481
3 463 481 464
3 464 481 482
3 464 482 465
3 465 482 483
3 465 483 466
3 466 483 484
3 466 484 467
3 467 484 485
3 467 485 450
3 450 485 468
3 468 486 469
3 469 486 487
3 469 487 470
3 470 487 488
3 470 488 471
3 471 488 489
3 471 489 472
3 472 489 490
3 472 490 473
3 473 490 491
3 473 491 474
3 474 491 492
3 474 492 475
3 475 492 493
3 475 493 476
3 476 493 494
3 476 494 477
3 477 494 495
3 477 495 478
3 478 495 496
3 478 496 479
3 479 496 497
3 479 497 480
3 480 497 498
3 480 498 481
3 481 498 499
3 481 499 482
3 482 499 500
3 482 500 483
3 483 500 501
3 483 501 484
3 484 501 502
3 484 502 485
3 485 502 503
3 485 503 468
3 468 503 486
3 486 504 487
3 487 504 505
3 487 505 488
3 488 505 506
3 488 506 489
3 489 506 507
3 489 507 490
3 490 507 508
3 490 508 491
3 491 508 509
3 491 509 492
3 492 509 510
3 492 510 493
3 493 510 511
3 493 511 494
3 494 511 512
3 494 512 495
3 495 512 513
3 495 513 496
3 496 513 514
3 496 514 497
3 497 514 515
3 497 515 498
3 498 515 516
3 498 516 499
3 499 516 517
3 499 517 500
3 500 517 518
3 500 518 501
3 501 518 519
3 501 519 502
3 502 519 520
3 502 520 503
3 503 520 521
3 503 521 486
3 486 521 504
3 504 522 505
3 505 522 523
3 505 523 506
3 506 523 524
3 506 524 507
3 507 524 525
3 507 525 508
3 508 525 526
3 508 526 509
3 509 526 527
3 509 527 510
3 510 527 528
3 510 528 511
3 511 528 529
3 511 529 512
3 512 529 530
3 512 530 513
3 513 530 531
3 513 531 514
3 514 531 532
3 514 532 515
3 515 532 533
3 515 533 516
3 516 533 534
3 516 534 517
3 517 534 535
3 517 535 518
3 518 535 536
3 518 536 519
3 519 536 537
3 519 537 520
3 520 537 538
3 520 538 521
3 521 538 539
3 521 539 504
3 504 539 522
3 522 540 523
3 523 540 541
3 523 541 524
3 524 541 542
3 524 542 525
3 525 542 543
3 525 543 526
3 526 543 544
3 526 544 527
3 527 544 545
3 527 545 528
3 528 545 546
3 528 546 529
3 529 546 547
3 529 547 530
3 530 547 548
3 530 548 531
3 531 548 549
3 531 549 532
3 532 549 550
3 532 550 533
3 533 550 551
3 533 551 534
3 534 551 552
3 534 552 535
3 535 552 553
3 535 553 536
3 536 553 554
3 536 554 537
3 537 554 555
3 537 555 538
3 538 555 556
3 538 556 539
3 539 556 557
3 539 557 522
3 522 557 540
3 540 558 541
3 541 558 559
3 541 559 542
3 542 559 560
3 542 560 543
3 543 560 561
3 543 561 544
3 544 561 562
3 544 562 545
3 545 562 563
3 545 563 546
3 546 563 564
3 546 564 547
3 547 564 565
3 547 565 548
3 548 565 566
3 548 566 549
3 549 566 567
3 549 567 550
3 550 567 568
3 550 568 551
3 551 568 569
3 551 569 552
3 552 569 570
3 552 570 553
3 553 570 571
3 553 571 554
3 554 571 572
3 554 572 555
3 555 572 573
3 555 573 556
3 556 573 574
3 556 574 557
3 557 574 575
3 557 575 540
3 540 575 558
3 558 576 559
3 559 576 577
3 559 577 560
3 560 577 578
3 560 578 561
3 561 578 579
3 561 579 562
3 562 579 580
3 562 580 563
3 563 580 581
3 563 581 564
3 564 581 582
3 564 582 565
3 565 582 583
3 565 583 566
3 566 583 584
3 566 584 567
3 567 584 585
3 567 585 568
3 568 585 586
3 568 586 569
3 569 586 587
3 569 587 570
3 570 587 588
3 570 588 571
3 571 588 589
3 571 589 572
3 572 589 590
3 572 590 573
3 573 590 591
3 573 591 574
3 574 591 592
3 574 592 575
3 575 592 593
3 575 593 558
3 558 593 576
3 576 594 577
3 577 594 595
3 577 595 578
3 578 595 596
3 578 596 579
3 579 596 597
3 579 597 580
3 580 597 598
3 580 598 581
3 581 598 599
3 581 599 582
3 582 599 600
3 582 600 583
3 583 600 601
3 583 601 584
3 584 601 602
3 584 602 585
3 585 602 603
3 585 603 586
3 586 603 604
3 586 604 587
3 587 604 605
3 587 605 588
3 588 605 606
3 588 606 589
3 589 606 607
3 589 607 590
3 590 607 608
3 590 608 591
3 591 608 609
3 591 609 592
3 592 609 610
3 592 610 593
3 593 610 611
3 593 611 576
3 576 611 594
3 594 612 595
3 595 612 613
3 595 613 596
3 596 613 614
3 596 614 597
3 597 614 615
3 597 615 598
3 598 615 616
3 598 616 599
3 599 616 617
3 599 617 600
3 600 617 618
3 600 618 601
3 601 618 619
3 601 619 602
3 602 619 620
3 602 620 603
3 603 620 621
3 603 621 604
3 604 621 622
3 604 622 605
3 605 622 623
3 605 623 606
3 606 623 624
3 606 624 607
3 607 624 625
3 607 625 608
3 608 625 626
3 608 626 609
3 609 626 627
3 609 627 610
3 610 627 628
3 610 628 611
3 611 628 629
3 611 629 594
3 594 629 612
3 612 630 613
3 613 630 631
3 613 631 614
3 614 631 632
3 614 632 615
3 615 632 633
3 615 633 616
3 616 633 634
3 616 634 617
3 617 634 635
3 617 635 618
3 618 635 636
3 618 636 619
3 619 636 637
3 619 637 620
3 620 637 638
3 620 638 621
3 621 638 639
3 621 639 622
3 622 639 640
3 622 640 623
3 623 640 641
3 623 641 624
3 624 641 642
3 624 642 625
3 625 642 643
3 625 643 626
3 626 643 644
3 626 644 627
3 627 644 645
3 627 645 628
3 628 645 646
3 628 646 629
3 629 646 647
3 629 647 612
3 612 647 630
3 630 0 631
3 631 0 1
3 631 1 632
3 632 1 2
3 632 2 633
3 633 2 3
3 633 3 634
3 634 3 4
3 634 4 635
3 635 4 5
3 635 5 636
3 636 5 6
3 636 6 637
3 637 6 7
3 637 7 638
3 638 7 8
3 638 8 639
3 639 8 9
3 639 9 640
3 640 9 10
3 640 10 641
3 641 10 11
3 641 11 642
3 642 11 12
3 642 12 643
3 643 12 13
3 643 13 644
3 644 13 14
3 644 14 645
3 645 14 15
3 645 15 646
3 646 15 16
3 646 16 647
3 647 16 17
3 647 17 630
3 630 17 0
