ply
format ascii 1.0
comment TextureFile uv_sphere.png
element vertex 642
property float x
property float y
property float z
property float s
property float t
element face 1280
property list uchar int vertex_indices
end_header
-0.047316 0.076559 0.000000 0.838104 0.500000
0.047316 0.076559 0.000000 0.661896 0.500000
-0.047316 -0.076559 0.000000 0.161896 0.500000
0.047316 -0.076559 0.000000 0.338104 0.500000
0.000000 -0.047316 0.076559 0.250000 0.823792
0.000000 0.047316 0.076559 0.750000 0.823792
0.000000 -0.047316 -0.076559 0.250000 0.176208
0.000000 0.047316 -0.076559 0.750000 0.176208
0.076559 0.000000 -0.047316 0.500000 0.323792
0.076559 0.000000 0.047316 0.500000 0.676208
-0.076559 0.000000 -0.047316 1.000000 0.323792
-0.076559 0.000000 0.047316 1.000000 0.676208
-0.072812 0.045000 0.027812 0.911896 0.600000
-0.045000 0.027812 0.072812 0.911896 0.800000
-0.027812 0.072812 0.045000 0.808070 0.666667
0.027812 0.072812 0.045000 0.691930 0.666667
0.000000 0.090000 0.000000 0.750000 0.500000
0.027812 0.072812 -0.045000 0.691930 0.333333
-0.027812 0.072812 -0.045000 0.808070 0.333333
-0.045000 0.027812 -0.072812 0.911896 0.200000
-0.072812 0.045000 -0.027812 0.911896 0.400000
-0.090000 0.000000 0.000000 1.000000 0.500000
0.045000 0.027812 0.072812 0.588104 0.800000
0.072812 0.045000 0.027812 0.588104 0.600000
-0.045000 -0.027812 0.072812 0.088104 0.800000
0.000000 0.000000 0.090000 0.500000 1.000000
-0.072812 -0.045000 -0.027812 0.088104 0.400000
-0.072812 -0.045000 0.027812 0.088104 0.600000
0.000000 0.000000 -0.090000 0.500000 0.000000
-0.045000 -0.027812 -0.072812 0.088104 0.200000
0.072812 0.045000 -0.027812 0.588104 0.400000
0.045000 0.027812 -0.072812 0.588104 0.200000
0.072812 -0.045000 0.027812 0.411896 0.600000
0.045000 -0.027812 0.072812 0.411896 0.800000
0.027812 -0.072812 0.045000 0.308070 0.666667
-0.027812 -0.072812 0.045000 0.191930 0.666667
0.000000 -0.090000 0.000000 0.250000 0.500000
-0.027812 -0.072812 -0.045000 0.191930 0.333333
0.027812 -0.072812 -0.045000 0.308070 0.333333
0.045000 -0.027812 -0.072812 0.411896 0.200000
0.072812 -0.045000 -0.027812 0.411896 0.400000
0.090000 0.000000 0.000000 0.500000 0.500000
-0.062440 0.063184 0.014456 0.874058 0.551350
-0.052901 0.061937 0.038279 0.862502 0.639840
-0.039050 0.077640 0.023390 0.824168 0.583687
-0.063184 0.014456 0.062440 0.964203 0.744056
-0.061937 0.038279 0.052901 0.911896 0.700000
-0.077640 0.023390 0.039050 0.953429 0.642859
-0.014456 0.062440 0.063184 0.786209 0.747730
-0.038279 0.052901 0.061937 0.849694 0.741595
-0.023390 0.039050 0.077640 0.835891 0.831209
-0.014621 0.085595 0.023658 0.776927 0.584668
-0.024594 0.086574 0.000000 0.794052 0.500000
0.014456 0.062440 0.063184 0.713791 0.747730
0.000000 0.076559 0.047316 0.750000 0.676208
0.024594 0.086574 0.000000 0.705948 0.500000
0.014621 0.085595 0.023658 0.723073 0.584668
0.039050 0.077640 0.023390 0.675832 0.583687
-0.014621 0.085595 -0.023658 0.776927 0.415332
-0.039050 0.077640 -0.023390 0.824168 0.416313
0.039050 0.077640 -0.023390 0.675832 0.416313
0.014621 0.085595 -0.023658 0.723073 0.415332
-0.014456 0.062440 -0.063184 0.786209 0.252270
0.000000 0.076559 -0.047316 0.750000 0.323792
0.014456 0.062440 -0.063184 0.713791 0.252270
-0.052901 0.061937 -0.038279 0.862502 0.360160
-0.062440 0.063184 -0.014456 0.874058 0.448650
-0.023390 0.039050 -0.077640 0.835891 0.168791
-0.038279 0.052901 -0.061937 0.849694 0.258405
-0.077640 0.023390 -0.039050 0.953429 0.357141
-0.061937 0.038279 -0.052901 0.911896 0.300000
-0.063184 0.014456 -0.062440 0.964203 0.255944
-0.076559 0.047316 0.000000 0.911896 0.500000
-0.086574 0.000000 -0.024594 1.000000 0.411896
-0.085595 0.023658 -0.014621 0.957082 0.448057
-0.085595 0.023658 0.014621 0.957082 0.551943
-0.086574 0.000000 0.024594 1.000000 0.588104
0.052901 0.061937 0.038279 0.637498 0.639840
0.062440 0.063184 0.014456 0.625942 0.551350
0.023390 0.039050 0.077640 0.664109 0.831209
0.038279 0.052901 0.061937 0.650306 0.741595
0.077640 0.023390 0.039050 0.546571 0.642859
0.061937 0.038279 0.052901 0.588104 0.700000
0.063184 0.014456 0.062440 0.535797 0.744056
-0.023658 0.014621 0.085595 0.911896 0.900000
0.000000 0.024594 0.086574 0.750000 0.911896
-0.063184 -0.014456 0.062440 0.035797 0.744056
-0.047316 0.000000 0.076559 1.000000 0.823792
0.000000 -0.024594 0.086574 0.250000 0.911896
-0.023658 -0.014621 0.085595 0.088104 0.900000
-0.023390 -0.039050 0.077640 0.164109 0.831209
-0.085595 -0.023658 0.014621 0.042918 0.551943
-0.077640 -0.023390 0.039050 0.046571 0.642859
-0.077640 -0.023390 -0.039050 0.046571 0.357141
-0.085595 -0.023658 -0.014621 0.042918 0.448057
-0.062440 -0.063184 0.014456 0.125942 0.551350
-0.076559 -0.047316 0.000000 0.088104 0.500000
-0.062440 -0.063184 -0.014456 0.125942 0.448650
-0.047316 0.000000 -0.076559 1.000000 0.176208
-0.063184 -0.014456 -0.062440 0.035797 0.255944
0.000000 0.024594 -0.086574 0.750000 0.088104
-0.023658 0.014621 -0.085595 0.911896 0.100000
-0.023390 -0.039050 -0.077640 0.164109 0.168791
-0.023658 -0.014621 -0.085595 0.088104 0.100000
0.000000 -0.024594 -0.086574 0.250000 0.088104
0.038279 0.052901 -0.061937 0.650306 0.258405
0.023390 0.039050 -0.077640 0.664109 0.168791
0.062440 0.063184 -0.014456 0.625942 0.448650
0.052901 0.061937 -0.038279 0.637498 0.360160
0.063184 0.014456 -0.062440 0.535797 0.255944
0.061937 0.038279 -0.052901 0.588104 0.300000
0.077640 0.023390 -0.039050 0.546571 0.357141
0.062440 -0.063184 0.014456 0.374058 0.551350
0.052901 -0.061937 0.038279 0.362502 0.639840
0.039050 -0.077640 0.023390 0.324168 0.583687
0.063184 -0.014456 0.062440 0.464203 0.744056
0.061937 -0.038279 0.052901 0.411896 0.700000
0.077640 -0.023390 0.039050 0.453429 0.642859
0.014456 -0.062440 0.063184 0.286209 0.747730
0.038279 -0.052901 0.061937 0.349694 0.741595
0.023390 -0.039050 0.077640 0.335891 0.831209
0.014621 -0.085595 0.023658 0.276927 0.584668
0.024594 -0.086574 0.000000 0.294052 0.500000
-0.014456 -0.062440 0.063184 0.213791 0.747730
0.000000 -0.076559 0.047316 0.250000 0.676208
-0.024594 -0.086574 0.000000 0.205948 0.500000
-0.014621 -0.085595 0.023658 0.223073 0.584668
-0.039050 -0.077640 0.023390 0.175832 0.583687
0.014621 -0.085595 -0.023658 0.276927 0.415332
0.039050 -0.077640 -0.023390 0.324168 0.416313
-0.039050 -0.077640 -0.023390 0.175832 0.416313
-0.014621 -0.085595 -0.023658 0.223073 0.415332
0.014456 -0.062440 -0.063184 0.286209 0.252270
0.000000 -0.076559 -0.047316 0.250000 0.323792
-0.014456 -0.062440 -0.063184 0.213791 0.252270
0.052901 -0.061937 -0.038279 0.362502 0.360160
0.062440 -0.063184 -0.014456 0.374058 0.448650
0.023390 -0.039050 -0.077640 0.335891 0.168791
0.038279 -0.052901 -0.061937 0.349694 0.258405
0.077640 -0.023390 -0.039050 0.453429 0.357141
0.061937 -0.038279 -0.052901 0.411896 0.300000
0.063184 -0.014456 -0.062440 0.464203 0.255944
0.076559 -0.047316 0.000000 0.411896 0.500000
0.086574 0.000000 -0.024594 0.500000 0.411896
0.085595 -0.023658 -0.014621 0.457082 0.448057
0.085595 -0.023658 0.014621 0.457082 0.551943
0.086574 0.000000 0.024594 0.500000 0.588104
0.023658 -0.014621 0.085595 0.411896 0.900000
0.047316 0.000000 0.076559 0.500000 0.823792
0.023658 0.014621 0.085595 0.588104 0.900000
-0.052901 -0.061937 0.038279 0.137498 0.639840
-0.038279 -0.052901 0.061937 0.150306 0.741595
-0.061937 -0.038279 0.052901 0.088104 0.700000
-0.038279 -0.052901 -0.061937 0.150306 0.258405
-0.052901 -0.061937 -0.038279 0.137498 0.360160
-0.061937 -0.038279 -0.052901 0.088104 0.300000
0.047316 0.000000 -0.076559 0.500000 0.176208
0.023658 -0.014621 -0.085595 0.411896 0.100000
0.023658 0.014621 -0.085595 0.588104 0.100000
0.085595 0.023658 0.014621 0.542918 0.551943
0.085595 0.023658 -0.014621 0.542918 0.448057
0.076559 0.047316 0.000000 0.588104 0.500000
-0.055408 0.070546 0.007298 0.855963 0.525839
-0.051413 0.071338 0.019172 0.849388 0.568331
-0.043600 0.077844 0.011808 0.831258 0.541883
-0.063640 0.054135 0.033457 0.887816 0.621241
-0.058267 0.063208 0.026640 0.868530 0.595654
-0.068279 0.054614 0.021338 0.892624 0.576192
-0.033753 0.075952 0.034525 0.816557 0.625321
-0.046451 0.070511 0.031154 0.842711 0.612512
-0.040859 0.068214 0.042159 0.835891 0.655180
-0.070546 0.007298 0.055408 0.983594 0.711103
-0.071338 0.019172 0.051413 0.958215 0.693542
-0.077844 0.011808 0.043600 0.976041 0.660977
-0.054135 0.033457 0.063640 0.911896 0.750000
-0.063208 0.026640 0.058267 0.936516 0.724149
-0.054614 0.021338 0.068279 0.940721 0.774142
-0.075952 0.034525 0.033753 0.932097 0.622371
-0.070511 0.031154 0.046451 0.933785 0.672625
-0.068214 0.042159 0.040859 0.911896 0.650000
-0.007298 0.055408 0.070546 0.770842 0.786743
-0.019172 0.051413 0.071338 0.806808 0.791299
-0.011808 0.043600 0.077844 0.792094 0.832637
-0.033457 0.063640 0.054135 0.827034 0.705430
-0.026640 0.058267 0.063208 0.818251 0.747848
-0.021338 0.068279 0.054614 0.798207 0.707557
-0.034525 0.033753 0.075952 0.876799 0.819753
-0.031154 0.046451 0.070511 0.844025 0.786543
-0.042159 0.040859 0.068214 0.877491 0.773792
-0.058192 0.050783 0.046204 0.885804 0.671605
-0.050783 0.046204 0.058192 0.882509 0.723800
-0.046204 0.058192 0.050783 0.856803 0.690836
-0.032241 0.083187 0.011849 0.808846 0.542029
-0.036302 0.082354 0.000000 0.816078 0.500000
-0.021481 0.080191 0.034757 0.791655 0.626208
-0.027113 0.082462 0.023767 0.800558 0.585069
-0.012416 0.089139 0.000000 0.772026 0.500000
-0.019811 0.086975 0.011951 0.785643 0.542394
-0.007402 0.088892 0.011976 0.763222 0.542484
0.007298 0.055408 0.070546 0.729158 0.786743
0.000000 0.063262 0.064015 0.750000 0.751885
0.014079 0.075616 0.046733 0.720702 0.673792
0.007303 0.070218 0.055822 0.733507 0.712965
0.021338 0.068279 0.054614 0.701793 0.707557
-0.007303 0.070218 0.055822 0.766493 0.712965
-0.014079 0.075616 0.046733 0.779298 0.673792
0.036302 0.082354 0.000000 0.683922 0.500000
0.032241 0.083187 0.011849 0.691154 0.542029
0.043600 0.077844 0.011808 0.668742 0.541883
0.007402 0.088892 0.011976 0.736778 0.542484
0.019811 0.086975 0.011951 0.714357 0.542394
0.012416 0.089139 0.000000 0.727974 0.500000
0.033753 0.075952 0.034525 0.683443 0.625321
0.027113 0.082462 0.023767 0.699442 0.585069
0.021481 0.080191 0.034757 0.708345 0.626208
-0.007409 0.082168 0.035965 0.764312 0.630853
0.007409 0.082168 0.035965 0.735688 0.630853
0.000000 0.086748 0.023976 0.750000 0.585836
-0.032241 0.083187 -0.011849 0.808846 0.457971
-0.043600 0.077844 -0.011808 0.831258 0.458117
-0.007402 0.088892 -0.011976 0.763222 0.457516
-0.019811 0.086975 -0.011951 0.785643 0.457606
-0.033753 0.075952 -0.034525 0.816557 0.374679
-0.027113 0.082462 -0.023767 0.800558 0.414931
-0.021481 0.080191 -0.034757 0.791655 0.373792
0.043600 0.077844 -0.011808 0.668742 0.458117
0.032241 0.083187 -0.011849 0.691154 0.457971
0.021481 0.080191 -0.034757 0.708345 0.373792
0.027113 0.082462 -0.023767 0.699442 0.414931
0.033753 0.075952 -0.034525 0.683443 0.374679
0.019811 0.086975 -0.011951 0.714357 0.457606
0.007402 0.088892 -0.011976 0.736778 0.457516
-0.007298 0.055408 -0.070546 0.770842 0.213257
0.000000 0.063262 -0.064015 0.750000 0.248115
0.007298 0.055408 -0.070546 0.729158 0.213257
-0.014079 0.075616 -0.046733 0.779298 0.326208
-0.007303 0.070218 -0.055822 0.766493 0.287035
-0.021338 0.068279 -0.054614 0.798207 0.292443
0.021338 0.068279 -0.054614 0.701793 0.292443
0.007303 0.070218 -0.055822 0.733507 0.287035
0.014079 0.075616 -0.046733 0.720702 0.326208
0.000000 0.086748 -0.023976 0.750000 0.414164
0.007409 0.082168 -0.035965 0.735688 0.369147
-0.007409 0.082168 -0.035965 0.764312 0.369147
-0.051413 0.071338 -0.019172 0.849388 0.431669
-0.055408 0.070546 -0.007298 0.855963 0.474161
-0.040859 0.068214 -0.042159 0.835891 0.344820
-0.046451 0.070511 -0.031154 0.842711 0.387488
-0.068279 0.054614 -0.021338 0.892624 0.423808
-0.058267 0.063208 -0.026640 0.868530 0.404346
-0.063640 0.054135 -0.033457 0.887816 0.378759
-0.011808 0.043600 -0.077844 0.792094 0.167363
-0.019172 0.051413 -0.071338 0.806808 0.208701
-0.042159 0.040859 -0.068214 0.877491 0.226208
-0.031154 0.046451 -0.070511 0.844025 0.213457
-0.034525 0.033753 -0.075952 0.876799 0.180247
-0.026640 0.058267 -0.063208 0.818251 0.252152
-0.033457 0.063640 -0.054135 0.827034 0.294570
-0.077844 0.011808 -0.043600 0.976041 0.339023
-0.071338 0.019172 -0.051413 0.958215 0.306458
-0.070546 0.007298 -0.055408 0.983594 0.288897
-0.068214 0.042159 -0.040859 0.911896 0.350000
-0.070511 0.031154 -0.046451 0.933785 0.327375
-0.075952 0.034525 -0.033753 0.932097 0.377629
-0.054614 0.021338 -0.068279 0.940721 0.225858
-0.063208 0.026640 -0.058267 0.936516 0.275851
-0.054135 0.033457 -0.063640 0.911896 0.250000
-0.046204 0.058192 -0.050783 0.856803 0.309164
-0.050783 0.046204 -0.058192 0.882509 0.276200
-0.058192 0.050783 -0.046204 0.885804 0.328395
-0.063262 0.064015 0.000000 0.874058 0.500000
-0.075616 0.046733 -0.014079 0.911896 0.450000
-0.070218 0.055822 -0.007303 0.893101 0.474143
-0.070218 0.055822 0.007303 0.893101 0.525857
-0.075616 0.046733 0.014079 0.911896 0.550000
-0.082354 0.000000 -0.036302 1.000000 0.367844
-0.083187 0.011849 -0.032241 0.977482 0.383381
-0.088892 0.011976 -0.007402 0.978685 0.473792
-0.086975 0.011951 -0.019811 0.978267 0.429356
-0.089139 0.000000 -0.012416 1.000000 0.455948
-0.082462 0.023767 -0.027113 0.955338 0.402593
-0.080191 0.034757 -0.021481 0.934908 0.423286
-0.083187 0.011849 0.032241 0.977482 0.616619
-0.082354 0.000000 0.036302 1.000000 0.632156
-0.080191 0.034757 0.021481 0.934908 0.576714
-0.082462 0.023767 0.027113 0.955338 0.597407
-0.089139 0.000000 0.012416 1.000000 0.544052
-0.086975 0.011951 0.019811 0.978267 0.570644
-0.088892 0.011976 0.007402 0.978685 0.526208
-0.082168 0.035965 -0.007409 0.934337 0.473766
-0.086748 0.023976 0.000000 0.957082 0.500000
-0.082168 0.035965 0.007409 0.934337 0.526234
0.051413 0.071338 0.019172 0.650612 0.568331
0.055408 0.070546 0.007298 0.644037 0.525839
0.040859 0.068214 0.042159 0.664109 0.655180
0.046451 0.070511 0.031154 0.657289 0.612512
0.068279 0.054614 0.021338 0.607376 0.576192
0.058267 0.063208 0.026640 0.631470 0.595654
0.063640 0.054135 0.033457 0.612184 0.621241
0.011808 0.043600 0.077844 0.707906 0.832637
0.019172 0.051413 0.071338 0.693192 0.791299
0.042159 0.040859 0.068214 0.622509 0.773792
0.031154 0.046451 0.070511 0.655975 0.786543
0.034525 0.033753 0.075952 0.623201 0.819753
0.026640 0.058267 0.063208 0.681749 0.747848
0.033457 0.063640 0.054135 0.672966 0.705430
0.077844 0.011808 0.043600 0.523959 0.660977
0.071338 0.019172 0.051413 0.541785 0.693542
0.070546 0.007298 0.055408 0.516406 0.711103
0.068214 0.042159 0.040859 0.588104 0.650000
0.070511 0.031154 0.046451 0.566215 0.672625
0.075952 0.034525 0.033753 0.567903 0.622371
0.054614 0.021338 0.068279 0.559279 0.774142
0.063208 0.026640 0.058267 0.563484 0.724149
0.054135 0.033457 0.063640 0.588104 0.750000
0.046204 0.058192 0.050783 0.643197 0.690836
0.050783 0.046204 0.058192 0.617491 0.723800
0.058192 0.050783 0.046204 0.614196 0.671605
-0.011849 0.032241 0.083187 0.806054 0.875354
0.000000 0.036302 0.082354 0.750000 0.867844
-0.034757 0.021481 0.080191 0.911896 0.850000
-0.023767 0.027113 0.082462 0.864549 0.868795
0.000000 0.012416 0.089139 0.750000 0.955948
-0.011951 0.019811 0.086975 0.836394 0.917243
-0.011976 0.007402 0.088892 0.911896 0.950000
-0.070546 -0.007298 0.055408 0.016406 0.711103
-0.064015 0.000000 0.063262 1.000000 0.748115
-0.046733 -0.014079 0.075616 0.046571 0.817549
-0.055822 -0.007303 0.070218 0.020704 0.784885
-0.054614 -0.021338 0.068279 0.059279 0.774142
-0.055822 0.007303 0.070218 0.979296 0.784885
-0.046733 0.014079 0.075616 0.953429 0.817549
0.000000 -0.036302 0.082354 0.250000 0.867844
-0.011849 -0.032241 0.083187 0.193946 0.875354
-0.011808 -0.043600 0.077844 0.207906 0.832637
-0.011976 -0.007402 0.088892 0.088104 0.950000
-0.011951 -0.019811 0.086975 0.163606 0.917243
0.000000 -0.012416 0.089139 0.250000 0.955948
-0.034525 -0.033753 0.075952 0.123201 0.819753
-0.023767 -0.027113 0.082462 0.135451 0.868795
-0.034757 -0.021481 0.080191 0.088104 0.850000
-0.035965 0.007409 0.082168 0.967665 0.866227
-0.035965 -0.007409 0.082168 0.032335 0.866227
-0.023976 0.000000 0.086748 1.000000 0.914164
-0.083187 -0.011849 0.032241 0.022518 0.616619
-0.077844 -0.011808 0.043600 0.023959 0.660977
-0.088892 -0.011976 0.007402 0.021315 0.526208
-0.086975 -0.011951 0.019811 0.021733 0.570644
-0.075952 -0.034525 0.033753 0.067903 0.622371
-0.082462 -0.023767 0.027113 0.044662 0.597407
-0.080191 -0.034757 0.021481 0.065092 0.576714
-0.077844 -0.011808 -0.043600 0.023959 0.339023
-0.083187 -0.011849 -0.032241 0.022518 0.383381
-0.080191 -0.034757 -0.021481 0.065092 0.423286
-0.082462 -0.023767 -0.027113 0.044662 0.402593
-0.075952 -0.034525 -0.033753 0.067903 0.377629
-0.086975 -0.011951 -0.019811 0.021733 0.429356
-0.088892 -0.011976 -0.007402 0.021315 0.473792
-0.055408 -0.070546 0.007298 0.144037 0.525839
-0.063262 -0.064015 0.000000 0.125942 0.500000
-0.055408 -0.070546 -0.007298 0.144037 0.474161
-0.075616 -0.046733 0.014079 0.088104 0.550000
-0.070218 -0.055822 0.007303 0.106899 0.525857
-0.068279 -0.054614 0.021338 0.107376 0.576192
-0.068279 -0.054614 -0.021338 0.107376 0.423808
-0.070218 -0.055822 -0.007303 0.106899 0.474143
-0.075616 -0.046733 -0.014079 0.088104 0.450000
-0.086748 -0.023976 0.000000 0.042918 0.500000
-0.082168 -0.035965 -0.007409 0.065663 0.473766
-0.082168 -0.035965 0.007409 0.065663 0.526234
-0.064015 0.000000 -0.063262 1.000000 0.251885
-0.070546 -0.007298 -0.055408 0.016406 0.288897
-0.046733 0.014079 -0.075616 0.953429 0.182451
-0.055822 0.007303 -0.070218 0.979296 0.215115
-0.054614 -0.021338 -0.068279 0.059279 0.225858
-0.055822 -0.007303 -0.070218 0.020704 0.215115
-0.046733 -0.014079 -0.075616 0.046571 0.182451
0.000000 0.036302 -0.082354 0.750000 0.132156
-0.011849 0.032241 -0.083187 0.806054 0.124646
-0.011976 0.007402 -0.088892 0.911896 0.050000
-0.011951 0.019811 -0.086975 0.836394 0.082757
0.000000 0.012416 -0.089139 0.750000 0.044052
-0.023767 0.027113 -0.082462 0.864549 0.131205
-0.034757 0.021481 -0.080191 0.911896 0.150000
-0.011808 -0.043600 -0.077844 0.207906 0.167363
-0.011849 -0.032241 -0.083187 0.193946 0.124646
0.000000 -0.036302 -0.082354 0.250000 0.132156
-0.034757 -0.021481 -0.080191 0.088104 0.150000
-0.023767 -0.027113 -0.082462 0.135451 0.131205
-0.034525 -0.033753 -0.075952 0.123201 0.180247
0.000000 -0.012416 -0.089139 0.250000 0.044052
-0.011951 -0.019811 -0.086975 0.163606 0.082757
-0.011976 -0.007402 -0.088892 0.088104 0.050000
-0.035965 0.007409 -0.082168 0.967665 0.133773
-0.023976 0.000000 -0.086748 1.000000 0.085836
-0.035965 -0.007409 -0.082168 0.032335 0.133773
0.019172 0.051413 -0.071338 0.693192 0.208701
0.011808 0.043600 -0.077844 0.707906 0.167363
0.033457 0.063640 -0.054135 0.672966 0.294570
0.026640 0.058267 -0.063208 0.681749 0.252152
0.034525 0.033753 -0.075952 0.623201 0.180247
0.031154 0.046451 -0.070511 0.655975 0.213457
0.042159 0.040859 -0.068214 0.622509 0.226208
0.055408 0.070546 -0.007298 0.644037 0.474161
0.051413 0.071338 -0.019172 0.650612 0.431669
0.063640 0.054135 -0.033457 0.612184 0.378759
0.058267 0.063208 -0.026640 0.631470 0.404346
0.068279 0.054614 -0.021338 0.607376 0.423808
0.046451 0.070511 -0.031154 0.657289 0.387488
0.040859 0.068214 -0.042159 0.664109 0.344820
0.070546 0.007298 -0.055408 0.516406 0.288897
0.071338 0.019172 -0.051413 0.541785 0.306458
0.077844 0.011808 -0.043600 0.523959 0.339023
0.054135 0.033457 -0.063640 0.588104 0.250000
0.063208 0.026640 -0.058267 0.563484 0.275851
0.054614 0.021338 -0.068279 0.559279 0.225858
0.075952 0.034525 -0.033753 0.567903 0.377629
0.070511 0.031154 -0.046451 0.566215 0.327375
0.068214 0.042159 -0.040859 0.588104 0.350000
0.046204 0.058192 -0.050783 0.643197 0.309164
0.058192 0.050783 -0.046204 0.614196 0.328395
0.050783 0.046204 -0.058192 0.617491 0.276200
0.055408 -0.070546 0.007298 0.355963 0.525839
0.051413 -0.071338 0.019172 0.349388 0.568331
0.043600 -0.077844 0.011808 0.331258 0.541883
0.063640 -0.054135 0.033457 0.387816 0.621241
0.058267 -0.063208 0.026640 0.368530 0.595654
0.068279 -0.054614 0.021338 0.392624 0.576192
0.033753 -0.075952 0.034525 0.316557 0.625321
0.046451 -0.070511 0.031154 0.342711 0.612512
0.040859 -0.068214 0.042159 0.335891 0.655180
0.070546 -0.007298 0.055408 0.483594 0.711103
0.071338 -0.019172 0.051413 0.458215 0.693542
0.077844 -0.011808 0.043600 0.476041 0.660977
0.054135 -0.033457 0.063640 0.411896 0.750000
0.063208 -0.026640 0.058267 0.436516 0.724149
0.054614 -0.021338 0.068279 0.440721 0.774142
0.075952 -0.034525 0.033753 0.432097 0.622371
0.070511 -0.031154 0.046451 0.433785 0.672625
0.068214 -0.042159 0.040859 0.411896 0.650000
0.007298 -0.055408 0.070546 0.270842 0.786743
0.019172 -0.051413 0.071338 0.306808 0.791299
0.011808 -0.043600 0.077844 0.292094 0.832637
0.033457 -0.063640 0.054135 0.327034 0.705430
0.026640 -0.058267 0.063208 0.318251 0.747848
0.021338 -0.068279 0.054614 0.298207 0.707557
0.034525 -0.033753 0.075952 0.376799 0.819753
0.031154 -0.046451 0.070511 0.344025 0.786543
0.042159 -0.040859 0.068214 0.377491 0.773792
0.058192 -0.050783 0.046204 0.385804 0.671605
0.050783 -0.046204 0.058192 0.382509 0.723800
0.046204 -0.058192 0.050783 0.356803 0.690836
0.032241 -0.083187 0.011849 0.308846 0.542029
0.036302 -0.082354 0.000000 0.316078 0.500000
0.021481 -0.080191 0.034757 0.291655 0.626208
0.027113 -0.082462 0.023767 0.300558 0.585069
0.012416 -0.089139 0.000000 0.272026 0.500000
0.019811 -0.086975 0.011951 0.285643 0.542394
0.007402 -0.088892 0.011976 0.263222 0.542484
-0.007298 -0.055408 0.070546 0.229158 0.786743
0.000000 -0.063262 0.064015 0.250000 0.751885
-0.014079 -0.075616 0.046733 0.220702 0.673792
-0.007303 -0.070218 0.055822 0.233507 0.712965
-0.021338 -0.068279 0.054614 0.201793 0.707557
0.007303 -0.070218 0.055822 0.266493 0.712965
0.014079 -0.075616 0.046733 0.279298 0.673792
-0.036302 -0.082354 0.000000 0.183922 0.500000
-0.032241 -0.083187 0.011849 0.191154 0.542029
-0.043600 -0.077844 0.011808 0.168742 0.541883
-0.007402 -0.088892 0.011976 0.236778 0.542484
-0.019811 -0.086975 0.011951 0.214357 0.542394
-0.012416 -0.089139 0.000000 0.227974 0.500000
-0.033753 -0.075952 0.034525 0.183443 0.625321
-0.027113 -0.082462 0.023767 0.199442 0.585069
-0.021481 -0.080191 0.034757 0.208345 0.626208
0.007409 -0.082168 0.035965 0.264312 0.630853
-0.007409 -0.082168 0.035965 0.235688 0.630853
0.000000 -0.086748 0.023976 0.250000 0.585836
0.032241 -0.083187 -0.011849 0.308846 0.457971
0.043600 -0.077844 -0.011808 0.331258 0.458117
0.007402 -0.088892 -0.011976 0.263222 0.457516
0.019811 -0.086975 -0.011951 0.285643 0.457606
0.033753 -0.075952 -0.034525 0.316557 0.374679
0.027113 -0.082462 -0.023767 0.300558 0.414931
0.021481 -0.080191 -0.034757 0.291655 0.373792
-0.043600 -0.077844 -0.011808 0.168742 0.458117
-0.032241 -0.083187 -0.011849 0.191154 0.457971
-0.021481 -0.080191 -0.034757 0.208345 0.373792
-0.027113 -0.082462 -0.023767 0.199442 0.414931
-0.033753 -0.075952 -0.034525 0.183443 0.374679
-0.019811 -0.086975 -0.011951 0.214357 0.457606
-0.007402 -0.088892 -0.011976 0.236778 0.457516
0.007298 -0.055408 -0.070546 0.270842 0.213257
0.000000 -0.063262 -0.064015 0.250000 0.248115
-0.007298 -0.055408 -0.070546 0.229158 0.213257
0.014079 -0.075616 -0.046733 0.279298 0.326208
0.007303 -0.070218 -0.055822 0.266493 0.287035
0.021338 -0.068279 -0.054614 0.298207 0.292443
-0.021338 -0.068279 -0.054614 0.201793 0.292443
-0.007303 -0.070218 -0.055822 0.233507 0.287035
-0.014079 -0.075616 -0.046733 0.220702 0.326208
0.000000 -0.086748 -0.023976 0.250000 0.414164
-0.007409 -0.082168 -0.035965 0.235688 0.369147
0.007409 -0.082168 -0.035965 0.264312 0.369147
0.051413 -0.071338 -0.019172 0.349388 0.431669
0.055408 -0.070546 -0.007298 0.355963 0.474161
0.040859 -0.068214 -0.042159 0.335891 0.344820
0.046451 -0.070511 -0.031154 0.342711 0.387488
0.068279 -0.054614 -0.021338 0.392624 0.423808
0.058267 -0.063208 -0.026640 0.368530 0.404346
0.063640 -0.054135 -0.033457 0.387816 0.378759
0.011808 -0.043600 -0.077844 0.292094 0.167363
0.019172 -0.051413 -0.071338 0.306808 0.208701
0.042159 -0.040859 -0.068214 0.377491 0.226208
0.031154 -0.046451 -0.070511 0.344025 0.213457
0.034525 -0.033753 -0.075952 0.376799 0.180247
0.026640 -0.058267 -0.063208 0.318251 0.252152
0.033457 -0.063640 -0.054135 0.327034 0.294570
0.077844 -0.011808 -0.043600 0.476041 0.339023
0.071338 -0.019172 -0.051413 0.458215 0.306458
0.070546 -0.007298 -0.055408 0.483594 0.288897
0.068214 -0.042159 -0.040859 0.411896 0.350000
0.070511 -0.031154 -0.046451 0.433785 0.327375
0.075952 -0.034525 -0.033753 0.432097 0.377629
0.054614 -0.021338 -0.068279 0.440721 0.225858
0.063208 -0.026640 -0.058267 0.436516 0.275851
0.054135 -0.033457 -0.063640 0.411896 0.250000
0.046204 -0.058192 -0.050783 0.356803 0.309164
0.050783 -0.046204 -0.058192 0.382509 0.276200
0.058192 -0.050783 -0.046204 0.385804 0.328395
0.063262 -0.064015 0.000000 0.374058 0.500000
0.075616 -0.046733 -0.014079 0.411896 0.450000
0.070218 -0.055822 -0.007303 0.393101 0.474143
0.070218 -0.055822 0.007303 0.393101 0.525857
0.075616 -0.046733 0.014079 0.411896 0.550000
0.082354 0.000000 -0.036302 0.500000 0.367844
0.083187 -0.011849 -0.032241 0.477482 0.383381
0.088892 -0.011976 -0.007402 0.478685 0.473792
0.086975 -0.011951 -0.019811 0.478267 0.429356
0.089139 0.000000 -0.012416 0.500000 0.455948
0.082462 -0.023767 -0.027113 0.455338 0.402593
0.080191 -0.034757 -0.021481 0.434908 0.423286
0.083187 -0.011849 0.032241 0.477482 0.616619
0.082354 0.000000 0.036302 0.500000 0.632156
0.080191 -0.034757 0.021481 0.434908 0.576714
0.082462 -0.023767 0.027113 0.455338 0.597407
0.089139 0.000000 0.012416 0.500000 0.544052
0.086975 -0.011951 0.019811 0.478267 0.570644
0.088892 -0.011976 0.007402 0.478685 0.526208
0.082168 -0.035965 -0.007409 0.434337 0.473766
0.086748 -0.023976 0.000000 0.457082 0.500000
0.082168 -0.035965 0.007409 0.434337 0.526234
0.011849 -0.032241 0.083187 0.306054 0.875354
0.034757 -0.021481 0.080191 0.411896 0.850000
0.023767 -0.027113 0.082462 0.364549 0.868795
0.011951 -0.019811 0.086975 0.336394 0.917243
0.011976 -0.007402 0.088892 0.411896 0.950000
0.064015 0.000000 0.063262 0.500000 0.748115
0.046733 0.014079 0.075616 0.546571 0.817549
0.055822 0.007303 0.070218 0.520704 0.784885
0.055822 -0.007303 0.070218 0.479296 0.784885
0.046733 -0.014079 0.075616 0.453429 0.817549
0.011849 0.032241 0.083187 0.693946 0.875354
0.011976 0.007402 0.088892 0.588104 0.950000
0.011951 0.019811 0.086975 0.663606 0.917243
0.023767 0.027113 0.082462 0.635451 0.868795
0.034757 0.021481 0.080191 0.588104 0.850000
0.035965 -0.007409 0.082168 0.467665 0.866227
0.035965 0.007409 0.082168 0.532335 0.866227
0.023976 0.000000 0.086748 0.500000 0.914164
-0.051413 -0.071338 0.019172 0.150612 0.568331
-0.040859 -0.068214 0.042159 0.164109 0.655180
-0.046451 -0.070511 0.031154 0.157289 0.612512
-0.058267 -0.063208 0.026640 0.131470 0.595654
-0.063640 -0.054135 0.033457 0.112184 0.621241
-0.019172 -0.051413 0.071338 0.193192 0.791299
-0.042159 -0.040859 0.068214 0.122509 0.773792
-0.031154 -0.046451 0.070511 0.155975 0.786543
-0.026640 -0.058267 0.063208 0.181749 0.747848
-0.033457 -0.063640 0.054135 0.172966 0.705430
-0.071338 -0.019172 0.051413 0.041785 0.693542
-0.068214 -0.042159 0.040859 0.088104 0.650000
-0.070511 -0.031154 0.046451 0.066215 0.672625
-0.063208 -0.026640 0.058267 0.063484 0.724149
-0.054135 -0.033457 0.063640 0.088104 0.750000
-0.046204 -0.058192 0.050783 0.143197 0.690836
-0.050783 -0.046204 0.058192 0.117491 0.723800
-0.058192 -0.050783 0.046204 0.114196 0.671605
-0.019172 -0.051413 -0.071338 0.193192 0.208701
-0.033457 -0.063640 -0.054135 0.172966 0.294570
-0.026640 -0.058267 -0.063208 0.181749 0.252152
-0.031154 -0.046451 -0.070511 0.155975 0.213457
-0.042159 -0.040859 -0.068214 0.122509 0.226208
-0.051413 -0.071338 -0.019172 0.150612 0.431669
-0.063640 -0.054135 -0.033457 0.112184 0.378759
-0.058267 -0.063208 -0.026640 0.131470 0.404346
-0.046451 -0.070511 -0.031154 0.157289 0.387488
-0.040859 -0.068214 -0.042159 0.164109 0.344820
-0.071338 -0.019172 -0.051413 0.041785 0.306458
-0.054135 -0.033457 -0.063640 0.088104 0.250000
-0.063208 -0.026640 -0.058267 0.063484 0.275851
-0.070511 -0.031154 -0.046451 0.066215 0.327375
-0.068214 -0.042159 -0.040859 0.088104 0.350000
-0.046204 -0.058192 -0.050783 0.143197 0.309164
-0.058192 -0.050783 -0.046204 0.114196 0.328395
-0.050783 -0.046204 -0.058192 0.117491 0.276200
0.064015 0.000000 -0.063262 0.500000 0.251885
0.046733 -0.014079 -0.075616 0.453429 0.182451
0.055822 -0.007303 -0.070218 0.479296 0.215115
0.055822 0.007303 -0.070218 0.520704 0.215115
0.046733 0.014079 -0.075616 0.546571 0.182451
0.011849 -0.032241 -0.083187 0.306054 0.124646
0.011976 -0.007402 -0.088892 0.411896 0.050000
0.011951 -0.019811 -0.086975 0.336394 0.082757
0.023767 -0.027113 -0.082462 0.364549 0.131205
0.034757 -0.021481 -0.080191 0.411896 0.150000
0.011849 0.032241 -0.083187 0.693946 0.124646
0.034757 0.021481 -0.080191 0.588104 0.150000
0.023767 0.027113 -0.082462 0.635451 0.131205
0.011951 0.019811 -0.086975 0.663606 0.082757
0.011976 0.007402 -0.088892 0.588104 0.050000
0.035965 -0.007409 -0.082168 0.467665 0.133773
0.023976 0.000000 -0.086748 0.500000 0.085836
0.035965 0.007409 -0.082168 0.532335 0.133773
0.083187 0.011849 0.032241 0.522518 0.616619
0.088892 0.011976 0.007402 0.521315 0.526208
0.086975 0.011951 0.019811 0.521733 0.570644
0.082462 0.023767 0.027113 0.544662 0.597407
0.080191 0.034757 0.021481 0.565092 0.576714
0.083187 0.011849 -0.032241 0.522518 0.383381
0.080191 0.034757 -0.021481 0.565092 0.423286
0.082462 0.023767 -0.027113 0.544662 0.402593
0.086975 0.011951 -0.019811 0.521733 0.429356
0.088892 0.011976 -0.007402 0.521315 0.473792
0.063262 0.064015 0.000000 0.625942 0.500000
0.075616 0.046733 0.014079 0.588104 0.550000
0.070218 0.055822 0.007303 0.606899 0.525857
0.070218 0.055822 -0.007303 0.606899 0.474143
0.075616 0.046733 -0.014079 0.588104 0.450000
0.086748 0.023976 0.000000 0.542918 0.500000
0.082168 0.035965 -0.007409 0.565663 0.473766
0.082168 0.035965 0.007409 0.565663 0.526234
3 0 162 164
3 42 163 162
3 44 164 163
3 162 163 164
3 12 165 167
3 43 166 165
3 42 167 166
3 165 166 167
3 14 168 170
3 44 169 168
3 43 170 169
3 168 169 170
3 42 166 163
3 43 169 166
3 44 163 169
3 166 169 163
3 11 171 173
3 45 172 171
3 47 173 172
3 171 172 173
3 13 174 176
3 46 175 174
3 45 176 175
3 174 175 176
3 12 177 179
3 47 178 177
3 46 179 178
3 177 178 179
3 45 175 172
3 46 178 175
3 47 172 178
3 175 178 172
3 5 180 182
3 48 181 180
3 50 182 181
3 180 181 182
3 14 183 185
3 49 184 183
3 48 185 184
3 183 184 185
3 13 186 188
3 50 187 186
3 49 188 187
3 186 187 188
3 48 184 181
3 49 187 184
3 50 181 187
3 184 187 181
3 12 179 165
3 46 189 179
3 43 165 189
3 179 189 165
3 13 188 174
3 49 190 188
3 46 174 190
3 188 190 174
3 14 170 183
3 43 191 170
3 49 183 191
3 170 191 183
3 46 190 189
3 49 191 190
3 43 189 191
3 190 191 189
3 0 164 193
3 44 192 164
3 52 193 192
3 164 192 193
3 14 194 168
3 51 195 194
3 44 168 195
3 194 195 168
3 16 196 198
3 52 197 196
3 51 198 197
3 196 197 198
3 44 195 192
3 51 197 195
3 52 192 197
3 195 197 192
3 5 199 180
3 53 200 199
3 48 180 200
3 199 200 180
3 15 201 203
3 54 202 201
3 53 203 202
3 201 202 203
3 14 185 205
3 48 204 185
3 54 205 204
3 185 204 205
3 53 202 200
3 54 204 202
3 48 200 204
3 202 204 200
3 1 206 208
3 55 207 206
3 57 208 207
3 206 207 208
3 16 209 211
3 56 210 209
3 55 211 210
3 209 210 211
3 15 212 214
3 57 213 212
3 56 214 213
3 212 213 214
3 55 210 207
3 56 213 210
3 57 207 213
3 210 213 207
3 14 205 194
3 54 215 205
3 51 194 215
3 205 215 194
3 15 214 201
3 56 216 214
3 54 201 216
3 214 216 201
3 16 198 209
3 51 217 198
3 56 209 217
3 198 217 209
3 54 216 215
3 56 217 216
3 51 215 217
3 216 217 215
3 0 193 219
3 52 218 193
3 59 219 218
3 193 218 219
3 16 220 196
3 58 221 220
3 52 196 221
3 220 221 196
3 18 222 224
3 59 223 222
3 58 224 223
3 222 223 224
3 52 221 218
3 58 223 221
3 59 218 223
3 221 223 218
3 1 225 206
3 60 226 225
3 55 206 226
3 225 226 206
3 17 227 229
3 61 228 227
3 60 229 228
3 227 228 229
3 16 211 231
3 55 230 211
3 61 231 230
3 211 230 231
3 60 228 226
3 61 230 228
3 55 226 230
3 228 230 226
3 7 232 234
3 62 233 232
3 64 234 233
3 232 233 234
3 18 235 237
3 63 236 235
3 62 237 236
3 235 236 237
3 17 238 240
3 64 239 238
3 63 240 239
3 238 239 240
3 62 236 233
3 63 239 236
3 64 233 239
3 236 239 233
3 16 231 220
3 61 241 231
3 58 220 241
3 231 241 220
3 17 240 227
3 63 242 240
3 61 227 242
3 240 242 227
3 18 224 235
3 58 243 224
3 63 235 243
3 224 243 235
3 61 242 241
3 63 243 242
3 58 241 243
3 242 243 241
3 0 219 245
3 59 244 219
3 66 245 244
3 219 244 245
3 18 246 222
3 65 247 246
3 59 222 247
3 246 247 222
3 20 248 250
3 66 249 248
3 65 250 249
3 248 249 250
3 59 247 244
3 65 249 247
3 66 244 249
3 247 249 244
3 7 251 232
3 67 252 251
3 62 232 252
3 251 252 232
3 19 253 255
3 68 254 253
3 67 255 254
3 253 254 255
3 18 237 257
3 62 256 237
3 68 257 256
3 237 256 257
3 67 254 252
3 68 256 254
3 62 252 256
3 254 256 252
3 10 258 260
3 69 259 258
3 71 260 259
3 258 259 260
3 20 261 263
3 70 262 261
3 69 263 262
3 261 262 263
3 19 264 266
3 71 265 264
3 70 266 265
3 264 265 266
3 69 262 259
3 70 265 262
3 71 259 265
3 262 265 259
3 18 257 246
3 68 267 257
3 65 246 267
3 257 267 246
3 19 266 253
3 70 268 266
3 68 253 268
3 266 268 253
3 20 250 261
3 65 269 250
3 70 261 269
3 250 269 261
3 68 268 267
3 70 269 268
3 65 267 269
3 268 269 267
3 0 245 162
3 66 270 245
3 42 162 270
3 245 270 162
3 20 271 248
3 72 272 271
3 66 248 272
3 271 272 248
3 12 167 274
3 42 273 167
3 72 274 273
3 167 273 274
3 66 272 270
3 72 273 272
3 42 270 273
3 272 273 270
3 10 275 258
3 73 276 275
3 69 258 276
3 275 276 258
3 21 277 279
3 74 278 277
3 73 279 278
3 277 278 279
3 20 263 281
3 69 280 263
3 74 281 280
3 263 280 281
3 73 278 276
3 74 280 278
3 69 276 280
3 278 280 276
3 11 173 283
3 47 282 173
3 76 283 282
3 173 282 283
3 12 284 177
3 75 285 284
3 47 177 285
3 284 285 177
3 21 286 288
3 76 287 286
3 75 288 287
3 286 287 288
3 47 285 282
3 75 287 285
3 76 282 287
3 285 287 282
3 20 281 271
3 74 289 281
3 72 271 289
3 281 289 271
3 21 288 277
3 75 290 288
3 74 277 290
3 288 290 277
3 12 274 284
3 72 291 274
3 75 284 291
3 274 291 284
3 74 290 289
3 75 291 290
3 72 289 291
3 290 291 289
3 1 208 293
3 57 292 208
3 78 293 292
3 208 292 293
3 15 294 212
3 77 295 294
3 57 212 295
3 294 295 212
3 23 296 298
3 78 297 296
3 77 298 297
3 296 297 298
3 57 295 292
3 77 297 295
3 78 292 297
3 295 297 292
3 5 299 199
3 79 300 299
3 53 199 300
3 299 300 199
3 22 301 303
3 80 302 301
3 79 303 302
3 301 302 303
3 15 203 305
3 53 304 203
3 80 305 304
3 203 304 305
3 79 302 300
3 80 304 302
3 53 300 304
3 302 304 300
3 9 306 308
3 81 307 306
3 83 308 307
3 306 307 308
3 23 309 311
3 82 310 309
3 81 311 310
3 309 310 311
3 22 312 314
3 83 313 312
3 82 314 313
3 312 313 314
3 81 310 307
3 82 313 310
3 83 307 313
3 310 313 307
3 15 305 294
3 80 315 305
3 77 294 315
3 305 315 294
3 22 314 301
3 82 316 314
3 80 301 316
3 314 316 301
3 23 298 309
3 77 317 298
3 82 309 317
3 298 317 309
3 80 316 315
3 82 317 316
3 77 315 317
3 316 317 315
3 5 182 319
3 50 318 182
3 85 319 318
3 182 318 319
3 13 320 186
3 84 321 320
3 50 186 321
3 320 321 186
3 25 322 324
3 85 323 322
3 84 324 323
3 322 323 324
3 50 321 318
3 84 323 321
3 85 318 323
3 321 323 318
3 11 325 171
3 86 326 325
3 45 171 326
3 325 326 171
3 24 327 329
3 87 328 327
3 86 329 328
3 327 328 329
3 13 176 331
3 45 330 176
3 87 331 330
3 176 330 331
3 86 328 326
3 87 330 328
3 45 326 330
3 328 330 326
3 4 332 334
3 88 333 332
3 90 334 333
3 332 333 334
3 25 335 337
3 89 336 335
3 88 337 336
3 335 336 337
3 24 338 340
3 90 339 338
3 89 340 339
3 338 339 340
3 88 336 333
3 89 339 336
3 90 333 339
3 336 339 333
3 13 331 320
3 87 341 331
3 84 320 341
3 331 341 320
3 24 340 327
3 89 342 340
3 87 327 342
3 340 342 327
3 25 324 335
3 84 343 324
3 89 335 343
3 324 343 335
3 87 342 341
3 89 343 342
3 84 341 343
3 342 343 341
3 11 283 345
3 76 344 283
3 92 345 344
3 283 344 345
3 21 346 286
3 91 347 346
3 76 286 347
3 346 347 286
3 27 348 350
3 92 349 348
3 91 350 349
3 348 349 350
3 76 347 344
3 91 349 347
3 92 344 349
3 347 349 344
3 10 351 275
3 93 352 351
3 73 275 352
3 351 352 275
3 26 353 355
3 94 354 353
3 93 355 354
3 353 354 355
3 21 279 357
3 73 356 279
3 94 357 356
3 279 356 357
3 93 354 352
3 94 356 354
3 73 352 356
3 354 356 352
3 2 358 360
3 95 359 358
3 97 360 359
3 358 359 360
3 27 361 363
3 96 362 361
3 95 363 362
3 361 362 363
3 26 364 366
3 97 365 364
3 96 366 365
3 364 365 366
3 95 362 359
3 96 365 362
3 97 359 365
3 362 365 359
3 21 357 346
3 94 367 357
3 91 346 367
3 357 367 346
3 26 366 353
3 96 368 366
3 94 353 368
3 366 368 353
3 27 350 361
3 91 369 350
3 96 361 369
3 350 369 361
3 94 368 367
3 96 369 368
3 91 367 369
3 368 369 367
3 10 260 371
3 71 370 260
3 99 371 370
3 260 370 371
3 19 372 264
3 98 373 372
3 71 264 373
3 372 373 264
3 29 374 376
3 99 375 374
3 98 376 375
3 374 375 376
3 71 373 370
3 98 375 373
3 99 370 375
3 373 375 370
3 7 377 251
3 100 378 377
3 67 251 378
3 377 378 251
3 28 379 381
3 101 380 379
3 100 381 380
3 379 380 381
3 19 255 383
3 67 382 255
3 101 383 382
3 255 382 383
3 100 380 378
3 101 382 380
3 67 378 382
3 380 382 378
3 6 384 386
3 102 385 384
3 104 386 385
3 384 385 386
3 29 387 389
3 103 388 387
3 102 389 388
3 387 388 389
3 28 390 392
3 104 391 390
3 103 392 391
3 390 391 392
3 102 388 385
3 103 391 388
3 104 385 391
3 388 391 385
3 19 383 372
3 101 393 383
3 98 372 393
3 383 393 372
3 28 392 379
3 103 394 392
3 101 379 394
3 392 394 379
3 29 376 387
3 98 395 376
3 103 387 395
3 376 395 387
3 101 394 393
3 103 395 394
3 98 393 395
3 394 395 393
3 7 234 397
3 64 396 234
3 106 397 396
3 234 396 397
3 17 398 238
3 105 399 398
3 64 238 399
3 398 399 238
3 31 400 402
3 106 401 400
3 105 402 401
3 400 401 402
3 64 399 396
3 105 401 399
3 106 396 401
3 399 401 396
3 1 403 225
3 107 404 403
3 60 225 404
3 403 404 225
3 30 405 407
3 108 406 405
3 107 407 406
3 405 406 407
3 17 229 409
3 60 408 229
3 108 409 408
3 229 408 409
3 107 406 404
3 108 408 406
3 60 404 408
3 406 408 404
3 8 410 412
3 109 411 410
3 111 412 411
3 410 411 412
3 31 413 415
3 110 414 413
3 109 415 414
3 413 414 415
3 30 416 418
3 111 417 416
3 110 418 417
3 416 417 418
3 109 414 411
3 110 417 414
3 111 411 417
3 414 417 411
3 17 409 398
3 108 419 409
3 105 398 419
3 409 419 398
3 30 418 405
3 110 420 418
3 108 405 420
3 418 420 405
3 31 402 413
3 105 421 402
3 110 413 421
3 402 421 413
3 108 420 419
3 110 421 420
3 105 419 421
3 420 421 419
3 3 422 424
3 112 423 422
3 114 424 423
3 422 423 424
3 32 425 427
3 113 426 425
3 112 427 426
3 425 426 427
3 34 428 430
3 114 429 428
3 113 430 429
3 428 429 430
3 112 426 423
3 113 429 426
3 114 423 429
3 426 429 423
3 9 431 433
3 115 432 431
3 117 433 432
3 431 432 433
3 33 434 436
3 116 435 434
3 115 436 435
3 434 435 436
3 32 437 439
3 117 438 437
3 116 439 438
3 437 438 439
3 115 435 432
3 116 438 435
3 117 432 438
3 435 438 432
3 4 440 442
3 118 441 440
3 120 442 441
3 440 441 442
3 34 443 445
3 119 444 443
3 118 445 444
3 443 444 445
3 33 446 448
3 120 447 446
3 119 448 447
3 446 447 448
3 118 444 441
3 119 447 444
3 120 441 447
3 444 447 441
3 32 439 425
3 116 449 439
3 113 425 449
3 439 449 425
3 33 448 434
3 119 450 448
3 116 434 450
3 448 450 434
3 34 430 443
3 113 451 430
3 119 443 451
3 430 451 443
3 116 450 449
3 119 451 450
3 113 449 451
3 450 451 449
3 3 424 453
3 114 452 424
3 122 453 452
3 424 452 453
3 34 454 428
3 121 455 454
3 114 428 455
3 454 455 428
3 36 456 458
3 122 457 456
3 121 458 457
3 456 457 458
3 114 455 452
3 121 457 455
3 122 452 457
3 455 457 452
3 4 459 440
3 123 460 459
3 118 440 460
3 459 460 440
3 35 461 463
3 124 462 461
3 123 463 462
3 461 462 463
3 34 445 465
3 118 464 445
3 124 465 464
3 445 464 465
3 123 462 460
3 124 464 462
3 118 460 464
3 462 464 460
3 2 466 468
3 125 467 466
3 127 468 467
3 466 467 468
3 36 469 471
3 126 470 469
3 125 471 470
3 469 470 471
3 35 472 474
3 127 473 472
3 126 474 473
3 472 473 474
3 125 470 467
3 126 473 470
3 127 467 473
3 470 473 467
3 34 465 454
3 124 475 465
3 121 454 475
3 465 475 454
3 35 474 461
3 126 476 474
3 124 461 476
3 474 476 461
3 36 458 469
3 121 477 458
3 126 469 477
3 458 477 469
3 124 476 475
3 126 477 476
3 121 475 477
3 476 477 475
3 3 453 479
3 122 478 453
3 129 479 478
3 453 478 479
3 36 480 456
3 128 481 480
3 122 456 481
3 480 481 456
3 38 482 484
3 129 483 482
3 128 484 483
3 482 483 484
3 122 481 478
3 128 483 481
3 129 478 483
3 481 483 478
3 2 485 466
3 130 486 485
3 125 466 486
3 485 486 466
3 37 487 489
3 131 488 487
3 130 489 488
3 487 488 489
3 36 471 491
3 125 490 471
3 131 491 490
3 471 490 491
3 130 488 486
3 131 490 488
3 125 486 490
3 488 490 486
3 6 492 494
3 132 493 492
3 134 494 493
3 492 493 494
3 38 495 497
3 133 496 495
3 132 497 496
3 495 496 497
3 37 498 500
3 134 499 498
3 133 500 499
3 498 499 500
3 132 496 493
3 133 499 496
3 134 493 499
3 496 499 493
3 36 491 480
3 131 501 491
3 128 480 501
3 491 501 480
3 37 500 487
3 133 502 500
3 131 487 502
3 500 502 487
3 38 484 495
3 128 503 484
3 133 495 503
3 484 503 495
3 131 502 501
3 133 503 502
3 128 501 503
3 502 503 501
3 3 479 505
3 129 504 479
3 136 505 504
3 479 504 505
3 38 506 482
3 135 507 506
3 129 482 507
3 506 507 482
3 40 508 510
3 136 509 508
3 135 510 509
3 508 509 510
3 129 507 504
3 135 509 507
3 136 504 509
3 507 509 504
3 6 511 492
3 137 512 511
3 132 492 512
3 511 512 492
3 39 513 515
3 138 514 513
3 137 515 514
3 513 514 515
3 38 497 517
3 132 516 497
3 138 517 516
3 497 516 517
3 137 514 512
3 138 516 514
3 132 512 516
3 514 516 512
3 8 518 520
3 139 519 518
3 141 520 519
3 518 519 520
3 40 521 523
3 140 522 521
3 139 523 522
3 521 522 523
3 39 524 526
3 141 525 524
3 140 526 525
3 524 525 526
3 139 522 519
3 140 525 522
3 141 519 525
3 522 525 519
3 38 517 506
3 138 527 517
3 135 506 527
3 517 527 506
3 39 526 513
3 140 528 526
3 138 513 528
3 526 528 513
3 40 510 521
3 135 529 510
3 140 521 529
3 510 529 521
3 138 528 527
3 140 529 528
3 135 527 529
3 528 529 527
3 3 505 422
3 136 530 505
3 112 422 530
3 505 530 422
3 40 531 508
3 142 532 531
3 136 508 532
3 531 532 508
3 32 427 534
3 112 533 427
3 142 534 533
3 427 533 534
3 136 532 530
3 142 533 532
3 112 530 533
3 532 533 530
3 8 535 518
3 143 536 535
3 139 518 536
3 535 536 518
3 41 537 539
3 144 538 537
3 143 539 538
3 537 538 539
3 40 523 541
3 139 540 523
3 144 541 540
3 523 540 541
3 143 538 536
3 144 540 538
3 139 536 540
3 538 540 536
3 9 433 543
3 117 542 433
3 146 543 542
3 433 542 543
3 32 544 437
3 145 545 544
3 117 437 545
3 544 545 437
3 41 546 548
3 146 547 546
3 145 548 547
3 546 547 548
3 117 545 542
3 145 547 545
3 146 542 547
3 545 547 542
3 40 541 531
3 144 549 541
3 142 531 549
3 541 549 531
3 41 548 537
3 145 550 548
3 144 537 550
3 548 550 537
3 32 534 544
3 142 551 534
3 145 544 551
3 534 551 544
3 144 550 549
3 145 551 550
3 142 549 551
3 550 551 549
3 4 442 332
3 120 552 442
3 88 332 552
3 442 552 332
3 33 553 446
3 147 554 553
3 120 446 554
3 553 554 446
3 25 337 556
3 88 555 337
3 147 556 555
3 337 555 556
3 120 554 552
3 147 555 554
3 88 552 555
3 554 555 552
3 9 308 431
3 83 557 308
3 115 431 557
3 308 557 431
3 22 558 312
3 148 559 558
3 83 312 559
3 558 559 312
3 33 436 561
3 115 560 436
3 148 561 560
3 436 560 561
3 83 559 557
3 148 560 559
3 115 557 560
3 559 560 557
3 5 319 299
3 85 562 319
3 79 299 562
3 319 562 299
3 25 563 322
3 149 564 563
3 85 322 564
3 563 564 322
3 22 303 566
3 79 565 303
3 149 566 565
3 303 565 566
3 85 564 562
3 149 565 564
3 79 562 565
3 564 565 562
3 33 561 553
3 148 567 561
3 147 553 567
3 561 567 553
3 22 566 558
3 149 568 566
3 148 558 568
3 566 568 558
3 25 556 563
3 147 569 556
3 149 563 569
3 556 569 563
3 148 568 567
3 149 569 568
3 147 567 569
3 568 569 567
3 2 468 358
3 127 570 468
3 95 358 570
3 468 570 358
3 35 571 472
3 150 572 571
3 127 472 572
3 571 572 472
3 27 363 574
3 95 573 363
3 150 574 573
3 363 573 574
3 127 572 570
3 150 573 572
3 95 570 573
3 572 573 570
3 4 334 459
3 90 575 334
3 123 459 575
3 334 575 459
3 24 576 338
3 151 577 576
3 90 338 577
3 576 577 338
3 35 463 579
3 123 578 463
3 151 579 578
3 463 578 579
3 90 577 575
3 151 578 577
3 123 575 578
3 577 578 575
3 11 345 325
3 92 580 345
3 86 325 580
3 345 580 325
3 27 581 348
3 152 582 581
3 92 348 582
3 581 582 348
3 24 329 584
3 86 583 329
3 152 584 583
3 329 583 584
3 92 582 580
3 152 583 582
3 86 580 583
3 582 583 580
3 35 579 571
3 151 585 579
3 150 571 585
3 579 585 571
3 24 584 576
3 152 586 584
3 151 576 586
3 584 586 576
3 27 574 581
3 150 587 574
3 152 581 587
3 574 587 581
3 151 586 585
3 152 587 586
3 150 585 587
3 586 587 585
3 6 494 384
3 134 588 494
3 102 384 588
3 494 588 384
3 37 589 498
3 153 590 589
3 134 498 590
3 589 590 498
3 29 389 592
3 102 591 389
3 153 592 591
3 389 591 592
3 134 590 588
3 153 591 590
3 102 588 591
3 590 591 588
3 2 360 485
3 97 593 360
3 130 485 593
3 360 593 485
3 26 594 364
3 154 595 594
3 97 364 595
3 594 595 364
3 37 489 597
3 130 596 489
3 154 597 596
3 489 596 597
3 97 595 593
3 154 596 595
3 130 593 596
3 595 596 593
3 10 371 351
3 99 598 371
3 93 351 598
3 371 598 351
3 29 599 374
3 155 600 599
3 99 374 600
3 599 600 374
3 26 355 602
3 93 601 355
3 155 602 601
3 355 601 602
3 99 600 598
3 155 601 600
3 93 598 601
3 600 601 598
3 37 597 589
3 154 603 597
3 153 589 603
3 597 603 589
3 26 602 594
3 155 604 602
3 154 594 604
3 602 604 594
3 29 592 599
3 153 605 592
3 155 599 605
3 592 605 599
3 154 604 603
3 155 605 604
3 153 603 605
3 604 605 603
3 8 520 410
3 141 606 520
3 109 410 606
3 520 606 410
3 39 607 524
3 156 608 607
3 141 524 608
3 607 608 524
3 31 415 610
3 109 609 415
3 156 610 609
3 415 609 610
3 141 608 606
3 156 609 608
3 109 606 609
3 608 609 606
3 6 386 511
3 104 611 386
3 137 511 611
3 386 611 511
3 28 612 390
3 157 613 612
3 104 390 613
3 612 613 390
3 39 515 615
3 137 614 515
3 157 615 614
3 515 614 615
3 104 613 611
3 157 614 613
3 137 611 614
3 613 614 611
3 7 397 377
3 106 616 397
3 100 377 616
3 397 616 377
3 31 617 400
3 158 618 617
3 106 400 618
3 617 618 400
3 28 381 620
3 100 619 381
3 158 620 619
3 381 619 620
3 106 618 616
3 158 619 618
3 100 616 619
3 618 619 616
3 39 615 607
3 157 621 615
3 156 607 621
3 615 621 607
3 28 620 612
3 158 622 620
3 157 612 622
3 620 622 612
3 31 610 617
3 156 623 610
3 158 617 623
3 610 623 617
3 157 622 621
3 158 623 622
3 156 621 623
3 622 623 621
3 9 543 306
3 146 624 543
3 81 306 624
3 543 624 306
3 41 625 546
3 159 626 625
3 146 546 626
3 625 626 546
3 23 311 628
3 81 627 311
3 159 628 627
3 311 627 628
3 146 626 624
3 159 627 626
3 81 624 627
3 626 627 624
3 8 412 535
3 111 629 412
3 143 535 629
3 412 629 535
3 30 630 416
3 160 631 630
3 111 416 631
3 630 631 416
3 41 539 633
3 143 632 539
3 160 633 632
3 539 632 633
3 111 631 629
3 160 632 631
3 143 629 632
3 631 632 629
3 1 293 403
3 78 634 293
3 107 403 634
3 293 634 403
3 23 635 296
3 161 636 635
3 78 296 636
3 635 636 296
3 30 407 638
3 107 637 407
3 161 638 637
3 407 637 638
3 78 636 634
3 161 637 636
3 107 634 637
3 636 637 634
3 41 633 625
3 160 639 633
3 159 625 639
3 633 639 625
3 30 638 630
3 161 640 638
3 160 630 640
3 638 640 630
3 23 628 635
3 159 641 628
3 161 635 641
3 628 641 635
3 160 640 639
3 161 641 640
3 159 639 641
3 640 641 639
